M48
; DRILL file {KiCad 5.1.5+dfsg1-2build2} date Sun Oct 10 04:01:32 2021
; FORMAT={-:-/ absolute / metric / decimal}
; #@! TF.CreationDate,2021-10-10T04:01:32+00:00
; #@! TF.GenerationSoftware,Kicad,Pcbnew,5.1.5+dfsg1-2build2
FMAT,2
METRIC
T1C0.400
T2C1.000
T3C1.500
%
G90
G05
T1
X57.25Y-57.25
X57.25Y-58.5
X57.25Y-59.75
X57.25Y-76.75
X57.25Y-78.0
X57.25Y-79.25
X57.25Y-96.25
X57.25Y-97.5
X57.25Y-98.75
X57.25Y-115.75
X57.25Y-117.0
X57.25Y-118.25
X125.25Y-56.75
X125.25Y-59.75
X125.25Y-76.25
X125.25Y-79.25
X125.25Y-95.75
X125.25Y-98.75
X125.25Y-115.25
X125.25Y-118.25
X127.75Y-56.5
X127.75Y-60.5
X127.75Y-76.0
X127.75Y-80.0
X127.75Y-95.5
X127.75Y-99.5
X127.75Y-115.0
X127.75Y-119.0
T2
X71.75Y-97.5
X71.75Y-117.0
X102.75Y-58.5
X102.75Y-78.0
X79.75Y-58.5
X79.75Y-78.0
X102.75Y-97.5
X102.75Y-117.0
X110.75Y-58.5
X110.75Y-78.0
X79.75Y-97.5
X79.75Y-117.0
X110.75Y-97.5
X110.75Y-117.0
X71.75Y-58.5
X71.75Y-78.0
T3
X53.999Y-45.499
X128.501Y-45.499
X53.999Y-130.001
T0
M30
