G04 #@! TF.GenerationSoftware,KiCad,Pcbnew,5.1.5+dfsg1-2build2*
G04 #@! TF.CreationDate,2021-10-10T04:01:31+00:00*
G04 #@! TF.ProjectId,base_3.5,62617365-5f33-42e3-952e-6b696361645f,rev?*
G04 #@! TF.SameCoordinates,Original*
G04 #@! TF.FileFunction,Soldermask,Bot*
G04 #@! TF.FilePolarity,Negative*
%FSLAX46Y46*%
G04 Gerber Fmt 4.6, Leading zero omitted, Abs format (unit mm)*
G04 Created by KiCad (PCBNEW 5.1.5+dfsg1-2build2) date 2021-10-10 04:01:31*
%MOMM*%
%LPD*%
G04 APERTURE LIST*
G04 #@! TA.AperFunction,Profile*
%ADD10C,0.100000*%
G04 #@! TD*
%ADD11C,2.000000*%
%ADD12R,2.000000X2.000000*%
%ADD13R,3.000000X2.000000*%
G04 APERTURE END LIST*
D10*
X126499900Y-102715900D02*
X126401100Y-102736200D01*
X126596400Y-102685700D02*
X126499900Y-102715900D01*
X126689300Y-102645900D02*
X126596400Y-102685700D01*
X126777600Y-102596800D02*
X126689300Y-102645900D01*
X126860800Y-102538900D02*
X126777600Y-102596800D01*
X126937500Y-102473100D02*
X126860800Y-102538900D01*
X127007100Y-102399800D02*
X126937500Y-102473100D01*
X127069000Y-102319900D02*
X127007100Y-102399800D01*
X127122400Y-102234100D02*
X127069000Y-102319900D01*
X127166900Y-102143400D02*
X127122400Y-102234100D01*
X127202000Y-102048600D02*
X127166900Y-102143400D01*
X127227300Y-101950700D02*
X127202000Y-102048600D01*
X127242600Y-101850800D02*
X127227300Y-101950700D01*
X127247700Y-101749900D02*
X127242600Y-101850800D01*
X127242600Y-101649200D02*
X127247700Y-101749900D01*
X127227300Y-101549300D02*
X127242600Y-101649200D01*
X127202000Y-101451500D02*
X127227300Y-101549300D01*
X127166900Y-101356700D02*
X127202000Y-101451500D01*
X127122400Y-101266000D02*
X127166900Y-101356700D01*
X127069000Y-101180200D02*
X127122400Y-101266000D01*
X127007100Y-101100300D02*
X127069000Y-101180200D01*
X126937300Y-101026800D02*
X127007100Y-101100300D01*
X126860600Y-100961000D02*
X126937300Y-101026800D01*
X126777600Y-100903300D02*
X126860600Y-100961000D01*
X126689300Y-100854200D02*
X126777600Y-100903300D01*
X126596600Y-100814500D02*
X126689300Y-100854200D01*
X126500200Y-100784200D02*
X126596600Y-100814500D01*
X126401200Y-100763800D02*
X126500200Y-100784200D01*
X126300700Y-100753600D02*
X126401200Y-100763800D01*
X126224800Y-100751000D02*
X126300700Y-100753600D01*
X56275400Y-100751000D02*
X126224800Y-100751000D01*
X56199200Y-100753600D02*
X56275400Y-100751000D01*
X56098800Y-100763800D02*
X56199200Y-100753600D01*
X55999800Y-100784200D02*
X56098800Y-100763800D01*
X55903400Y-100814500D02*
X55999800Y-100784200D01*
X55810500Y-100854300D02*
X55903400Y-100814500D01*
X55722100Y-100903400D02*
X55810500Y-100854300D01*
X55639200Y-100961100D02*
X55722100Y-100903400D01*
X55562500Y-101027000D02*
X55639200Y-100961100D01*
X55492900Y-101100300D02*
X55562500Y-101027000D01*
X55431000Y-101180200D02*
X55492900Y-101100300D01*
X55377600Y-101266000D02*
X55431000Y-101180200D01*
X55333100Y-101356700D02*
X55377600Y-101266000D01*
X55298100Y-101451200D02*
X55333100Y-101356700D01*
X55272700Y-101549100D02*
X55298100Y-101451200D01*
X55257400Y-101649000D02*
X55272700Y-101549100D01*
X55252300Y-101749900D02*
X55257400Y-101649000D01*
X55257400Y-101850800D02*
X55252300Y-101749900D01*
X55272700Y-101950700D02*
X55257400Y-101850800D01*
X55298000Y-102048600D02*
X55272700Y-101950700D01*
X55333100Y-102143400D02*
X55298000Y-102048600D01*
X55377600Y-102234100D02*
X55333100Y-102143400D01*
X55431000Y-102319900D02*
X55377600Y-102234100D01*
X55492900Y-102399800D02*
X55431000Y-102319900D01*
X55562500Y-102473100D02*
X55492900Y-102399800D01*
X55639200Y-102538900D02*
X55562500Y-102473100D01*
X55722100Y-102596700D02*
X55639200Y-102538900D01*
X55810500Y-102645700D02*
X55722100Y-102596700D01*
X55903400Y-102685600D02*
X55810500Y-102645700D01*
X55999800Y-102715900D02*
X55903400Y-102685600D01*
X56098800Y-102736200D02*
X55999800Y-102715900D01*
X56199300Y-102746500D02*
X56098800Y-102736200D01*
X56275200Y-102749000D02*
X56199300Y-102746500D01*
X126224900Y-102749000D02*
X56275200Y-102749000D01*
X126300500Y-102746500D02*
X126224900Y-102749000D01*
X126401100Y-102736200D02*
X126300500Y-102746500D01*
X126499900Y-94215900D02*
X126401100Y-94236200D01*
X126596400Y-94185700D02*
X126499900Y-94215900D01*
X126689300Y-94145900D02*
X126596400Y-94185700D01*
X126777600Y-94096800D02*
X126689300Y-94145900D01*
X126860800Y-94038900D02*
X126777600Y-94096800D01*
X126937500Y-93973100D02*
X126860800Y-94038900D01*
X127007100Y-93899800D02*
X126937500Y-93973100D01*
X127069000Y-93819900D02*
X127007100Y-93899800D01*
X127122400Y-93734100D02*
X127069000Y-93819900D01*
X127166900Y-93643400D02*
X127122400Y-93734100D01*
X127202000Y-93548600D02*
X127166900Y-93643400D01*
X127227300Y-93450700D02*
X127202000Y-93548600D01*
X127242600Y-93350800D02*
X127227300Y-93450700D01*
X127247700Y-93249900D02*
X127242600Y-93350800D01*
X127242600Y-93149200D02*
X127247700Y-93249900D01*
X127227300Y-93049300D02*
X127242600Y-93149200D01*
X127202000Y-92951500D02*
X127227300Y-93049300D01*
X127166900Y-92856700D02*
X127202000Y-92951500D01*
X127122400Y-92766000D02*
X127166900Y-92856700D01*
X127069000Y-92680200D02*
X127122400Y-92766000D01*
X127007100Y-92600300D02*
X127069000Y-92680200D01*
X126937300Y-92526800D02*
X127007100Y-92600300D01*
X126860600Y-92461000D02*
X126937300Y-92526800D01*
X126777600Y-92403300D02*
X126860600Y-92461000D01*
X126689300Y-92354200D02*
X126777600Y-92403300D01*
X126596600Y-92314500D02*
X126689300Y-92354200D01*
X126500200Y-92284200D02*
X126596600Y-92314500D01*
X126401200Y-92263800D02*
X126500200Y-92284200D01*
X126300700Y-92253600D02*
X126401200Y-92263800D01*
X126224800Y-92251000D02*
X126300700Y-92253600D01*
X56275400Y-92251000D02*
X126224800Y-92251000D01*
X56199200Y-92253600D02*
X56275400Y-92251000D01*
X56098800Y-92263800D02*
X56199200Y-92253600D01*
X55999800Y-92284200D02*
X56098800Y-92263800D01*
X55903400Y-92314500D02*
X55999800Y-92284200D01*
X55810500Y-92354300D02*
X55903400Y-92314500D01*
X55722100Y-92403400D02*
X55810500Y-92354300D01*
X55639200Y-92461100D02*
X55722100Y-92403400D01*
X55562500Y-92527000D02*
X55639200Y-92461100D01*
X55492900Y-92600300D02*
X55562500Y-92527000D01*
X55431000Y-92680200D02*
X55492900Y-92600300D01*
X55377600Y-92766000D02*
X55431000Y-92680200D01*
X55333100Y-92856700D02*
X55377600Y-92766000D01*
X55298100Y-92951200D02*
X55333100Y-92856700D01*
X55272700Y-93049100D02*
X55298100Y-92951200D01*
X55257400Y-93149000D02*
X55272700Y-93049100D01*
X55252300Y-93249900D02*
X55257400Y-93149000D01*
X55257400Y-93350800D02*
X55252300Y-93249900D01*
X55272700Y-93450700D02*
X55257400Y-93350800D01*
X55298000Y-93548600D02*
X55272700Y-93450700D01*
X55333100Y-93643400D02*
X55298000Y-93548600D01*
X55377600Y-93734100D02*
X55333100Y-93643400D01*
X55431000Y-93819900D02*
X55377600Y-93734100D01*
X55492900Y-93899800D02*
X55431000Y-93819900D01*
X55562500Y-93973100D02*
X55492900Y-93899800D01*
X55639200Y-94038900D02*
X55562500Y-93973100D01*
X55722100Y-94096700D02*
X55639200Y-94038900D01*
X55810500Y-94145700D02*
X55722100Y-94096700D01*
X55903400Y-94185600D02*
X55810500Y-94145700D01*
X55999800Y-94215900D02*
X55903400Y-94185600D01*
X56098800Y-94236200D02*
X55999800Y-94215900D01*
X56199300Y-94246500D02*
X56098800Y-94236200D01*
X56275200Y-94249000D02*
X56199300Y-94246500D01*
X126224900Y-94249000D02*
X56275200Y-94249000D01*
X126300500Y-94246500D02*
X126224900Y-94249000D01*
X126401100Y-94236200D02*
X126300500Y-94246500D01*
X126499900Y-83215900D02*
X126401000Y-83236200D01*
X126596400Y-83185700D02*
X126499900Y-83215900D01*
X126689300Y-83145800D02*
X126596400Y-83185700D01*
X126777600Y-83096800D02*
X126689300Y-83145800D01*
X126860800Y-83038900D02*
X126777600Y-83096800D01*
X126937500Y-82973100D02*
X126860800Y-83038900D01*
X127007100Y-82899800D02*
X126937500Y-82973100D01*
X127069000Y-82819900D02*
X127007100Y-82899800D01*
X127122400Y-82734100D02*
X127069000Y-82819900D01*
X127166900Y-82643300D02*
X127122400Y-82734100D01*
X127202000Y-82548600D02*
X127166900Y-82643300D01*
X127227300Y-82450700D02*
X127202000Y-82548600D01*
X127242600Y-82350800D02*
X127227300Y-82450700D01*
X127247700Y-82249900D02*
X127242600Y-82350800D01*
X127242600Y-82149200D02*
X127247700Y-82249900D01*
X127227300Y-82049300D02*
X127242600Y-82149200D01*
X127202000Y-81951500D02*
X127227300Y-82049300D01*
X127166900Y-81856700D02*
X127202000Y-81951500D01*
X127122400Y-81765900D02*
X127166900Y-81856700D01*
X127069000Y-81680200D02*
X127122400Y-81765900D01*
X127007100Y-81600200D02*
X127069000Y-81680200D01*
X126937300Y-81526800D02*
X127007100Y-81600200D01*
X126860600Y-81461000D02*
X126937300Y-81526800D01*
X126777600Y-81403200D02*
X126860600Y-81461000D01*
X126689300Y-81354200D02*
X126777600Y-81403200D01*
X126596600Y-81314500D02*
X126689300Y-81354200D01*
X126500200Y-81284200D02*
X126596600Y-81314500D01*
X126401200Y-81263800D02*
X126500200Y-81284200D01*
X126300700Y-81253600D02*
X126401200Y-81263800D01*
X126224800Y-81251000D02*
X126300700Y-81253600D01*
X56275300Y-81251000D02*
X126224800Y-81251000D01*
X56199200Y-81253600D02*
X56275300Y-81251000D01*
X56098800Y-81263800D02*
X56199200Y-81253600D01*
X55999800Y-81284200D02*
X56098800Y-81263800D01*
X55903400Y-81314500D02*
X55999800Y-81284200D01*
X55810500Y-81354300D02*
X55903400Y-81314500D01*
X55722100Y-81403400D02*
X55810500Y-81354300D01*
X55639200Y-81461100D02*
X55722100Y-81403400D01*
X55562500Y-81527000D02*
X55639200Y-81461100D01*
X55492900Y-81600200D02*
X55562500Y-81527000D01*
X55431000Y-81680200D02*
X55492900Y-81600200D01*
X55377600Y-81765900D02*
X55431000Y-81680200D01*
X55333100Y-81856700D02*
X55377600Y-81765900D01*
X55298100Y-81951200D02*
X55333100Y-81856700D01*
X55272700Y-82049000D02*
X55298100Y-81951200D01*
X55257400Y-82148900D02*
X55272700Y-82049000D01*
X55252300Y-82249900D02*
X55257400Y-82148900D01*
X55257400Y-82350800D02*
X55252300Y-82249900D01*
X55272700Y-82450700D02*
X55257400Y-82350800D01*
X55298000Y-82548600D02*
X55272700Y-82450700D01*
X55333100Y-82643300D02*
X55298000Y-82548600D01*
X55377600Y-82734100D02*
X55333100Y-82643300D01*
X55431000Y-82819900D02*
X55377600Y-82734100D01*
X55492900Y-82899800D02*
X55431000Y-82819900D01*
X55562500Y-82973100D02*
X55492900Y-82899800D01*
X55639200Y-83038900D02*
X55562500Y-82973100D01*
X55722100Y-83096700D02*
X55639200Y-83038900D01*
X55810500Y-83145700D02*
X55722100Y-83096700D01*
X55903400Y-83185600D02*
X55810500Y-83145700D01*
X55999800Y-83215800D02*
X55903400Y-83185600D01*
X56098800Y-83236200D02*
X55999800Y-83215800D01*
X56199300Y-83246400D02*
X56098800Y-83236200D01*
X56275200Y-83249000D02*
X56199300Y-83246400D01*
X126224800Y-83249000D02*
X56275200Y-83249000D01*
X126300600Y-83246400D02*
X126224800Y-83249000D01*
X126401000Y-83236200D02*
X126300600Y-83246400D01*
X126499900Y-74715900D02*
X126401000Y-74736200D01*
X126596400Y-74685700D02*
X126499900Y-74715900D01*
X126689300Y-74645800D02*
X126596400Y-74685700D01*
X126777600Y-74596800D02*
X126689300Y-74645800D01*
X126860800Y-74538900D02*
X126777600Y-74596800D01*
X126937500Y-74473100D02*
X126860800Y-74538900D01*
X127007100Y-74399800D02*
X126937500Y-74473100D01*
X127069000Y-74319900D02*
X127007100Y-74399800D01*
X127122400Y-74234100D02*
X127069000Y-74319900D01*
X127166900Y-74143300D02*
X127122400Y-74234100D01*
X127202000Y-74048600D02*
X127166900Y-74143300D01*
X127227300Y-73950700D02*
X127202000Y-74048600D01*
X127242600Y-73850800D02*
X127227300Y-73950700D01*
X127247700Y-73749900D02*
X127242600Y-73850800D01*
X127242600Y-73649200D02*
X127247700Y-73749900D01*
X127227300Y-73549300D02*
X127242600Y-73649200D01*
X127202000Y-73451500D02*
X127227300Y-73549300D01*
X127166900Y-73356700D02*
X127202000Y-73451500D01*
X127122400Y-73265900D02*
X127166900Y-73356700D01*
X127069000Y-73180200D02*
X127122400Y-73265900D01*
X127007100Y-73100200D02*
X127069000Y-73180200D01*
X126937300Y-73026800D02*
X127007100Y-73100200D01*
X126860600Y-72961000D02*
X126937300Y-73026800D01*
X126777600Y-72903200D02*
X126860600Y-72961000D01*
X126689300Y-72854200D02*
X126777600Y-72903200D01*
X126596600Y-72814500D02*
X126689300Y-72854200D01*
X126500200Y-72784200D02*
X126596600Y-72814500D01*
X126401200Y-72763800D02*
X126500200Y-72784200D01*
X126300700Y-72753600D02*
X126401200Y-72763800D01*
X126224800Y-72751000D02*
X126300700Y-72753600D01*
X56275300Y-72751000D02*
X126224800Y-72751000D01*
X56199200Y-72753600D02*
X56275300Y-72751000D01*
X56098800Y-72763800D02*
X56199200Y-72753600D01*
X55999800Y-72784200D02*
X56098800Y-72763800D01*
X55903400Y-72814500D02*
X55999800Y-72784200D01*
X55810500Y-72854300D02*
X55903400Y-72814500D01*
X55722100Y-72903400D02*
X55810500Y-72854300D01*
X55639200Y-72961100D02*
X55722100Y-72903400D01*
X55562500Y-73027000D02*
X55639200Y-72961100D01*
X55492900Y-73100200D02*
X55562500Y-73027000D01*
X55431000Y-73180200D02*
X55492900Y-73100200D01*
X55377600Y-73265900D02*
X55431000Y-73180200D01*
X55333100Y-73356700D02*
X55377600Y-73265900D01*
X55298100Y-73451200D02*
X55333100Y-73356700D01*
X55272700Y-73549000D02*
X55298100Y-73451200D01*
X55257400Y-73648900D02*
X55272700Y-73549000D01*
X55252300Y-73749900D02*
X55257400Y-73648900D01*
X55257400Y-73850800D02*
X55252300Y-73749900D01*
X55272700Y-73950700D02*
X55257400Y-73850800D01*
X55298000Y-74048600D02*
X55272700Y-73950700D01*
X55333100Y-74143300D02*
X55298000Y-74048600D01*
X55377600Y-74234100D02*
X55333100Y-74143300D01*
X55431000Y-74319900D02*
X55377600Y-74234100D01*
X55492900Y-74399800D02*
X55431000Y-74319900D01*
X55562500Y-74473100D02*
X55492900Y-74399800D01*
X55639200Y-74538900D02*
X55562500Y-74473100D01*
X55722100Y-74596700D02*
X55639200Y-74538900D01*
X55810500Y-74645700D02*
X55722100Y-74596700D01*
X55903400Y-74685600D02*
X55810500Y-74645700D01*
X55999800Y-74715800D02*
X55903400Y-74685600D01*
X56098800Y-74736200D02*
X55999800Y-74715800D01*
X56199300Y-74746400D02*
X56098800Y-74736200D01*
X56275200Y-74749000D02*
X56199300Y-74746400D01*
X126224800Y-74749000D02*
X56275200Y-74749000D01*
X126300600Y-74746400D02*
X126224800Y-74749000D01*
X126401000Y-74736200D02*
X126300600Y-74746400D01*
X126499900Y-63715900D02*
X126401000Y-63736200D01*
X126596400Y-63685700D02*
X126499900Y-63715900D01*
X126689300Y-63645800D02*
X126596400Y-63685700D01*
X126777600Y-63596800D02*
X126689300Y-63645800D01*
X126860600Y-63539100D02*
X126777600Y-63596800D01*
X126937300Y-63473200D02*
X126860600Y-63539100D01*
X127007100Y-63399800D02*
X126937300Y-63473200D01*
X127069000Y-63319900D02*
X127007100Y-63399800D01*
X127122300Y-63234300D02*
X127069000Y-63319900D01*
X127166800Y-63143600D02*
X127122300Y-63234300D01*
X127201900Y-63048800D02*
X127166800Y-63143600D01*
X127227300Y-62951000D02*
X127201900Y-63048800D01*
X127242600Y-62851100D02*
X127227300Y-62951000D01*
X127247700Y-62750100D02*
X127242600Y-62851100D01*
X127242600Y-62649200D02*
X127247700Y-62750100D01*
X127227300Y-62549300D02*
X127242600Y-62649200D01*
X127202000Y-62451500D02*
X127227300Y-62549300D01*
X127166900Y-62356700D02*
X127202000Y-62451500D01*
X127122400Y-62265900D02*
X127166900Y-62356700D01*
X127069000Y-62180200D02*
X127122400Y-62265900D01*
X127007100Y-62100200D02*
X127069000Y-62180200D01*
X126937300Y-62026800D02*
X127007100Y-62100200D01*
X126860600Y-61960900D02*
X126937300Y-62026800D01*
X126777900Y-61903400D02*
X126860600Y-61960900D01*
X126689500Y-61854300D02*
X126777900Y-61903400D01*
X126596600Y-61814400D02*
X126689500Y-61854300D01*
X126500200Y-61784200D02*
X126596600Y-61814400D01*
X126401200Y-61763800D02*
X126500200Y-61784200D01*
X126300700Y-61753600D02*
X126401200Y-61763800D01*
X126224800Y-61751000D02*
X126300700Y-61753600D01*
X56275200Y-61751000D02*
X126224800Y-61751000D01*
X56199300Y-61753600D02*
X56275200Y-61751000D01*
X56098800Y-61763800D02*
X56199300Y-61753600D01*
X55999800Y-61784200D02*
X56098800Y-61763800D01*
X55903400Y-61814400D02*
X55999800Y-61784200D01*
X55810500Y-61854300D02*
X55903400Y-61814400D01*
X55722100Y-61903400D02*
X55810500Y-61854300D01*
X55639200Y-61961100D02*
X55722100Y-61903400D01*
X55562500Y-62027000D02*
X55639200Y-61961100D01*
X55492900Y-62100200D02*
X55562500Y-62027000D01*
X55431000Y-62180200D02*
X55492900Y-62100200D01*
X55377600Y-62265900D02*
X55431000Y-62180200D01*
X55333100Y-62356700D02*
X55377600Y-62265900D01*
X55298000Y-62451500D02*
X55333100Y-62356700D01*
X55272700Y-62549000D02*
X55298000Y-62451500D01*
X55257400Y-62648900D02*
X55272700Y-62549000D01*
X55252300Y-62749900D02*
X55257400Y-62648900D01*
X55257400Y-62850800D02*
X55252300Y-62749900D01*
X55272700Y-62950700D02*
X55257400Y-62850800D01*
X55298000Y-63048500D02*
X55272700Y-62950700D01*
X55333100Y-63143300D02*
X55298000Y-63048500D01*
X55377600Y-63234100D02*
X55333100Y-63143300D01*
X55431000Y-63319900D02*
X55377600Y-63234100D01*
X55492900Y-63399800D02*
X55431000Y-63319900D01*
X55562500Y-63473000D02*
X55492900Y-63399800D01*
X55639200Y-63538900D02*
X55562500Y-63473000D01*
X55722100Y-63596600D02*
X55639200Y-63538900D01*
X55810500Y-63645700D02*
X55722100Y-63596600D01*
X55903400Y-63685600D02*
X55810500Y-63645700D01*
X55999800Y-63715800D02*
X55903400Y-63685600D01*
X56098800Y-63736200D02*
X55999800Y-63715800D01*
X56199300Y-63746400D02*
X56098800Y-63736200D01*
X56275200Y-63749000D02*
X56199300Y-63746400D01*
X126224800Y-63749000D02*
X56275200Y-63749000D01*
X126300700Y-63746400D02*
X126224800Y-63749000D01*
X126401000Y-63736200D02*
X126300700Y-63746400D01*
X126499900Y-55215900D02*
X126401000Y-55236200D01*
X126596400Y-55185700D02*
X126499900Y-55215900D01*
X126689300Y-55145800D02*
X126596400Y-55185700D01*
X126777600Y-55096800D02*
X126689300Y-55145800D01*
X126860600Y-55039100D02*
X126777600Y-55096800D01*
X126937300Y-54973200D02*
X126860600Y-55039100D01*
X127007100Y-54899800D02*
X126937300Y-54973200D01*
X127069000Y-54819900D02*
X127007100Y-54899800D01*
X127122300Y-54734300D02*
X127069000Y-54819900D01*
X127166800Y-54643600D02*
X127122300Y-54734300D01*
X127201900Y-54548800D02*
X127166800Y-54643600D01*
X127227300Y-54451000D02*
X127201900Y-54548800D01*
X127242600Y-54351100D02*
X127227300Y-54451000D01*
X127247700Y-54250100D02*
X127242600Y-54351100D01*
X127242600Y-54149200D02*
X127247700Y-54250100D01*
X127227300Y-54049300D02*
X127242600Y-54149200D01*
X127202000Y-53951500D02*
X127227300Y-54049300D01*
X127166900Y-53856700D02*
X127202000Y-53951500D01*
X127122400Y-53765900D02*
X127166900Y-53856700D01*
X127069000Y-53680200D02*
X127122400Y-53765900D01*
X127007100Y-53600200D02*
X127069000Y-53680200D01*
X126937300Y-53526800D02*
X127007100Y-53600200D01*
X126860600Y-53460900D02*
X126937300Y-53526800D01*
X126777900Y-53403400D02*
X126860600Y-53460900D01*
X126689500Y-53354300D02*
X126777900Y-53403400D01*
X126596600Y-53314400D02*
X126689500Y-53354300D01*
X126500200Y-53284200D02*
X126596600Y-53314400D01*
X126401200Y-53263800D02*
X126500200Y-53284200D01*
X126300700Y-53253600D02*
X126401200Y-53263800D01*
X126224800Y-53251000D02*
X126300700Y-53253600D01*
X56275200Y-53251000D02*
X126224800Y-53251000D01*
X56199300Y-53253600D02*
X56275200Y-53251000D01*
X56098800Y-53263800D02*
X56199300Y-53253600D01*
X55999800Y-53284200D02*
X56098800Y-53263800D01*
X55903400Y-53314400D02*
X55999800Y-53284200D01*
X55810500Y-53354300D02*
X55903400Y-53314400D01*
X55722100Y-53403400D02*
X55810500Y-53354300D01*
X55639200Y-53461100D02*
X55722100Y-53403400D01*
X55562500Y-53527000D02*
X55639200Y-53461100D01*
X55492900Y-53600200D02*
X55562500Y-53527000D01*
X55431000Y-53680200D02*
X55492900Y-53600200D01*
X55377600Y-53765900D02*
X55431000Y-53680200D01*
X55333100Y-53856700D02*
X55377600Y-53765900D01*
X55298000Y-53951500D02*
X55333100Y-53856700D01*
X55272700Y-54049000D02*
X55298000Y-53951500D01*
X55257400Y-54148900D02*
X55272700Y-54049000D01*
X55252300Y-54249900D02*
X55257400Y-54148900D01*
X55257400Y-54350800D02*
X55252300Y-54249900D01*
X55272700Y-54450700D02*
X55257400Y-54350800D01*
X55298000Y-54548500D02*
X55272700Y-54450700D01*
X55333100Y-54643300D02*
X55298000Y-54548500D01*
X55377600Y-54734100D02*
X55333100Y-54643300D01*
X55431000Y-54819900D02*
X55377600Y-54734100D01*
X55492900Y-54899800D02*
X55431000Y-54819900D01*
X55562500Y-54973000D02*
X55492900Y-54899800D01*
X55639200Y-55038900D02*
X55562500Y-54973000D01*
X55722100Y-55096600D02*
X55639200Y-55038900D01*
X55810500Y-55145700D02*
X55722100Y-55096600D01*
X55903400Y-55185600D02*
X55810500Y-55145700D01*
X55999800Y-55215800D02*
X55903400Y-55185600D01*
X56098800Y-55236200D02*
X55999800Y-55215800D01*
X56199300Y-55246400D02*
X56098800Y-55236200D01*
X56275200Y-55249000D02*
X56199300Y-55246400D01*
X126224800Y-55249000D02*
X56275200Y-55249000D01*
X126300700Y-55246400D02*
X126224800Y-55249000D01*
X126401000Y-55236200D02*
X126300700Y-55246400D01*
X126500200Y-122215900D02*
X126400700Y-122236300D01*
X126596600Y-122185600D02*
X126500200Y-122215900D01*
X126689500Y-122145700D02*
X126596600Y-122185600D01*
X126777900Y-122096700D02*
X126689500Y-122145700D01*
X126860800Y-122038900D02*
X126777900Y-122096700D01*
X126937500Y-121973100D02*
X126860800Y-122038900D01*
X127007100Y-121899800D02*
X126937500Y-121973100D01*
X127069000Y-121819900D02*
X127007100Y-121899800D01*
X127122400Y-121734100D02*
X127069000Y-121819900D01*
X127166900Y-121643400D02*
X127122400Y-121734100D01*
X127202000Y-121548600D02*
X127166900Y-121643400D01*
X127227300Y-121450800D02*
X127202000Y-121548600D01*
X127242600Y-121350900D02*
X127227300Y-121450800D01*
X127247700Y-121249900D02*
X127242600Y-121350900D01*
X127242600Y-121149300D02*
X127247700Y-121249900D01*
X127227300Y-121049300D02*
X127242600Y-121149300D01*
X127202000Y-120951500D02*
X127227300Y-121049300D01*
X127166900Y-120856700D02*
X127202000Y-120951500D01*
X127122400Y-120766000D02*
X127166900Y-120856700D01*
X127069000Y-120680200D02*
X127122400Y-120766000D01*
X127007100Y-120600300D02*
X127069000Y-120680200D01*
X126937300Y-120526800D02*
X127007100Y-120600300D01*
X126860600Y-120461000D02*
X126937300Y-120526800D01*
X126777600Y-120403300D02*
X126860600Y-120461000D01*
X126689300Y-120354200D02*
X126777600Y-120403300D01*
X126596600Y-120314500D02*
X126689300Y-120354200D01*
X126500200Y-120284200D02*
X126596600Y-120314500D01*
X126401200Y-120263900D02*
X126500200Y-120284200D01*
X126300700Y-120253600D02*
X126401200Y-120263900D01*
X126224800Y-120251100D02*
X126300700Y-120253600D01*
X56275000Y-120251100D02*
X126224800Y-120251100D01*
X56199600Y-120253600D02*
X56275000Y-120251100D01*
X56098800Y-120263900D02*
X56199600Y-120253600D01*
X55999800Y-120284200D02*
X56098800Y-120263900D01*
X55903400Y-120314500D02*
X55999800Y-120284200D01*
X55810500Y-120354400D02*
X55903400Y-120314500D01*
X55722100Y-120403400D02*
X55810500Y-120354400D01*
X55639200Y-120461200D02*
X55722100Y-120403400D01*
X55562500Y-120527000D02*
X55639200Y-120461200D01*
X55492900Y-120600300D02*
X55562500Y-120527000D01*
X55431000Y-120680200D02*
X55492900Y-120600300D01*
X55377600Y-120766000D02*
X55431000Y-120680200D01*
X55333100Y-120856700D02*
X55377600Y-120766000D01*
X55298100Y-120951200D02*
X55333100Y-120856700D01*
X55272700Y-121049100D02*
X55298100Y-120951200D01*
X55257400Y-121149000D02*
X55272700Y-121049100D01*
X55252300Y-121249900D02*
X55257400Y-121149000D01*
X55257400Y-121350900D02*
X55252300Y-121249900D01*
X55272700Y-121450800D02*
X55257400Y-121350900D01*
X55298000Y-121548600D02*
X55272700Y-121450800D01*
X55333100Y-121643400D02*
X55298000Y-121548600D01*
X55377600Y-121734100D02*
X55333100Y-121643400D01*
X55431000Y-121819900D02*
X55377600Y-121734100D01*
X55492900Y-121899800D02*
X55431000Y-121819900D01*
X55562500Y-121973100D02*
X55492900Y-121899800D01*
X55639200Y-122038900D02*
X55562500Y-121973100D01*
X55722100Y-122096700D02*
X55639200Y-122038900D01*
X55810500Y-122145700D02*
X55722100Y-122096700D01*
X55903400Y-122185600D02*
X55810500Y-122145700D01*
X55999800Y-122215900D02*
X55903400Y-122185600D01*
X56098800Y-122236200D02*
X55999800Y-122215900D01*
X56199300Y-122246500D02*
X56098800Y-122236200D01*
X56275200Y-122249100D02*
X56199300Y-122246500D01*
X126224500Y-122249100D02*
X56275200Y-122249100D01*
X126300900Y-122246500D02*
X126224500Y-122249100D01*
X126400700Y-122236300D02*
X126300900Y-122246500D01*
X126500200Y-113715900D02*
X126400700Y-113736300D01*
X126596600Y-113685600D02*
X126500200Y-113715900D01*
X126689500Y-113645700D02*
X126596600Y-113685600D01*
X126777900Y-113596700D02*
X126689500Y-113645700D01*
X126860800Y-113538900D02*
X126777900Y-113596700D01*
X126937500Y-113473100D02*
X126860800Y-113538900D01*
X127007100Y-113399800D02*
X126937500Y-113473100D01*
X127069000Y-113319900D02*
X127007100Y-113399800D01*
X127122400Y-113234100D02*
X127069000Y-113319900D01*
X127166900Y-113143400D02*
X127122400Y-113234100D01*
X127202000Y-113048600D02*
X127166900Y-113143400D01*
X127227300Y-112950800D02*
X127202000Y-113048600D01*
X127242600Y-112850900D02*
X127227300Y-112950800D01*
X127247700Y-112749900D02*
X127242600Y-112850900D01*
X127242600Y-112649300D02*
X127247700Y-112749900D01*
X127227300Y-112549300D02*
X127242600Y-112649300D01*
X127202000Y-112451500D02*
X127227300Y-112549300D01*
X127166900Y-112356700D02*
X127202000Y-112451500D01*
X127122400Y-112266000D02*
X127166900Y-112356700D01*
X127069000Y-112180200D02*
X127122400Y-112266000D01*
X127007100Y-112100300D02*
X127069000Y-112180200D01*
X126937300Y-112026800D02*
X127007100Y-112100300D01*
X126860600Y-111961000D02*
X126937300Y-112026800D01*
X126777600Y-111903300D02*
X126860600Y-111961000D01*
X126689300Y-111854200D02*
X126777600Y-111903300D01*
X126596600Y-111814500D02*
X126689300Y-111854200D01*
X126500200Y-111784200D02*
X126596600Y-111814500D01*
X126401200Y-111763900D02*
X126500200Y-111784200D01*
X126300700Y-111753600D02*
X126401200Y-111763900D01*
X126224800Y-111751100D02*
X126300700Y-111753600D01*
X56275000Y-111751100D02*
X126224800Y-111751100D01*
X56199600Y-111753600D02*
X56275000Y-111751100D01*
X56098800Y-111763900D02*
X56199600Y-111753600D01*
X55999800Y-111784200D02*
X56098800Y-111763900D01*
X55903400Y-111814500D02*
X55999800Y-111784200D01*
X55810500Y-111854400D02*
X55903400Y-111814500D01*
X55722100Y-111903400D02*
X55810500Y-111854400D01*
X55639200Y-111961200D02*
X55722100Y-111903400D01*
X55562500Y-112027000D02*
X55639200Y-111961200D01*
X55492900Y-112100300D02*
X55562500Y-112027000D01*
X55431000Y-112180200D02*
X55492900Y-112100300D01*
X55377600Y-112266000D02*
X55431000Y-112180200D01*
X55333100Y-112356700D02*
X55377600Y-112266000D01*
X55298100Y-112451200D02*
X55333100Y-112356700D01*
X55272700Y-112549100D02*
X55298100Y-112451200D01*
X55257400Y-112649000D02*
X55272700Y-112549100D01*
X55252300Y-112749900D02*
X55257400Y-112649000D01*
X55257400Y-112850900D02*
X55252300Y-112749900D01*
X55272700Y-112950800D02*
X55257400Y-112850900D01*
X55298000Y-113048600D02*
X55272700Y-112950800D01*
X55333100Y-113143400D02*
X55298000Y-113048600D01*
X55377600Y-113234100D02*
X55333100Y-113143400D01*
X55431000Y-113319900D02*
X55377600Y-113234100D01*
X55492900Y-113399800D02*
X55431000Y-113319900D01*
X55562500Y-113473100D02*
X55492900Y-113399800D01*
X55639200Y-113538900D02*
X55562500Y-113473100D01*
X55722100Y-113596700D02*
X55639200Y-113538900D01*
X55810500Y-113645700D02*
X55722100Y-113596700D01*
X55903400Y-113685600D02*
X55810500Y-113645700D01*
X55999800Y-113715900D02*
X55903400Y-113685600D01*
X56098800Y-113736200D02*
X55999800Y-113715900D01*
X56199300Y-113746500D02*
X56098800Y-113736200D01*
X56275200Y-113749100D02*
X56199300Y-113746500D01*
X126224500Y-113749100D02*
X56275200Y-113749100D01*
X126300900Y-113746500D02*
X126224500Y-113749100D01*
X126400700Y-113736300D02*
X126300900Y-113746500D01*
X132476500Y-43499000D02*
X50009200Y-43499700D01*
X132491800Y-43499800D02*
X132476500Y-43499000D01*
X132497700Y-43503000D02*
X132491800Y-43499800D01*
X132500200Y-43508200D02*
X132497700Y-43503000D01*
X132501000Y-43523500D02*
X132500200Y-43508200D01*
X132501000Y-47475500D02*
X132501000Y-43523500D01*
X132499700Y-47492700D02*
X132501000Y-47475500D01*
X132496300Y-47497400D02*
X132499700Y-47492700D01*
X132491800Y-47499200D02*
X132496300Y-47497400D01*
X102241300Y-47500000D02*
X132491800Y-47499200D01*
X102144000Y-47504800D02*
X102241300Y-47500000D01*
X102047900Y-47519000D02*
X102144000Y-47504800D01*
X101953600Y-47542600D02*
X102047900Y-47519000D01*
X101862200Y-47575400D02*
X101953600Y-47542600D01*
X101774300Y-47616900D02*
X101862200Y-47575400D01*
X101691000Y-47666900D02*
X101774300Y-47616900D01*
X101613000Y-47724700D02*
X101691000Y-47666900D01*
X101541000Y-47790000D02*
X101613000Y-47724700D01*
X101475700Y-47862000D02*
X101541000Y-47790000D01*
X101417900Y-47940000D02*
X101475700Y-47862000D01*
X101367900Y-48023300D02*
X101417900Y-47940000D01*
X101326400Y-48111100D02*
X101367900Y-48023300D01*
X101293700Y-48202600D02*
X101326400Y-48111100D01*
X101270000Y-48296900D02*
X101293700Y-48202600D01*
X101255800Y-48393000D02*
X101270000Y-48296900D01*
X101251000Y-48490200D02*
X101255800Y-48393000D01*
X101251000Y-49008800D02*
X101251000Y-48490200D01*
X101255800Y-49106000D02*
X101251000Y-49008800D01*
X101270000Y-49202100D02*
X101255800Y-49106000D01*
X101293700Y-49296400D02*
X101270000Y-49202100D01*
X101326400Y-49387900D02*
X101293700Y-49296400D01*
X101367900Y-49475700D02*
X101326400Y-49387900D01*
X101417900Y-49559000D02*
X101367900Y-49475700D01*
X101475700Y-49637000D02*
X101417900Y-49559000D01*
X101541000Y-49709000D02*
X101475700Y-49637000D01*
X101613000Y-49774300D02*
X101541000Y-49709000D01*
X101691000Y-49832100D02*
X101613000Y-49774300D01*
X101774300Y-49882100D02*
X101691000Y-49832100D01*
X101862200Y-49923600D02*
X101774300Y-49882100D01*
X101953600Y-49956400D02*
X101862200Y-49923600D01*
X102047900Y-49980000D02*
X101953600Y-49956400D01*
X102144000Y-49994200D02*
X102047900Y-49980000D01*
X102241300Y-49999000D02*
X102144000Y-49994200D01*
X128243400Y-49999000D02*
X102241300Y-49999000D01*
X128694100Y-50022600D02*
X128243400Y-49999000D01*
X129121100Y-50089900D02*
X128694100Y-50022600D01*
X129146500Y-50095300D02*
X129121100Y-50089900D01*
X129550900Y-50203600D02*
X129146500Y-50095300D01*
X129575900Y-50211800D02*
X129550900Y-50203600D01*
X129979200Y-50367000D02*
X129575900Y-50211800D01*
X130375600Y-50569000D02*
X129979200Y-50367000D01*
X130748300Y-50811000D02*
X130375600Y-50569000D01*
X131084200Y-51082600D02*
X130748300Y-50811000D01*
X131103800Y-51100200D02*
X131084200Y-51082600D01*
X131399800Y-51396200D02*
X131103800Y-51100200D01*
X131417400Y-51415700D02*
X131399800Y-51396200D01*
X131689000Y-51751800D02*
X131417400Y-51415700D01*
X131931100Y-52124500D02*
X131689000Y-51751800D01*
X132133100Y-52520900D02*
X131931100Y-52124500D01*
X132288200Y-52924100D02*
X132133100Y-52520900D01*
X132296300Y-52949100D02*
X132288200Y-52924100D01*
X132404700Y-53353400D02*
X132296300Y-52949100D01*
X132410200Y-53379100D02*
X132404700Y-53353400D01*
X132477400Y-53806000D02*
X132410200Y-53379100D01*
X132501000Y-54256500D02*
X132477400Y-53806000D01*
X132501000Y-55139700D02*
X132501000Y-54256500D01*
X132495900Y-55244100D02*
X132501000Y-55139700D01*
X132481400Y-55341600D02*
X132495900Y-55244100D01*
X132457200Y-55437700D02*
X132481400Y-55341600D01*
X132423900Y-55530500D02*
X132457200Y-55437700D01*
X132387300Y-55608200D02*
X132423900Y-55530500D01*
X132375600Y-55630000D02*
X132387300Y-55608200D01*
X132323700Y-55713800D02*
X132375600Y-55630000D01*
X132272100Y-55782500D02*
X132323700Y-55713800D01*
X132214100Y-55846600D02*
X132272100Y-55782500D01*
X132196500Y-55864100D02*
X132214100Y-55846600D01*
X132132400Y-55921400D02*
X132196500Y-55864100D01*
X132062800Y-55973000D02*
X132132400Y-55921400D01*
X131968400Y-56030200D02*
X132062800Y-55973000D01*
X131879100Y-56072000D02*
X131968400Y-56030200D01*
X131600100Y-56170700D02*
X131879100Y-56072000D01*
X131509400Y-56207800D02*
X131600100Y-56170700D01*
X131375300Y-56270600D02*
X131509400Y-56207800D01*
X131288700Y-56316400D02*
X131375300Y-56270600D01*
X131161400Y-56392000D02*
X131288700Y-56316400D01*
X131079800Y-56446200D02*
X131161400Y-56392000D01*
X130960600Y-56533900D02*
X131079800Y-56446200D01*
X130884600Y-56595900D02*
X130960600Y-56533900D01*
X130774600Y-56694900D02*
X130884600Y-56595900D01*
X130705100Y-56764000D02*
X130774600Y-56694900D01*
X130605400Y-56873400D02*
X130705100Y-56764000D01*
X130543000Y-56949000D02*
X130605400Y-56873400D01*
X130454500Y-57067700D02*
X130543000Y-56949000D01*
X130399900Y-57149100D02*
X130454500Y-57067700D01*
X130323600Y-57275900D02*
X130399900Y-57149100D01*
X130277200Y-57362300D02*
X130323600Y-57275900D01*
X130213700Y-57496000D02*
X130277200Y-57362300D01*
X130176000Y-57586500D02*
X130213700Y-57496000D01*
X130126000Y-57725800D02*
X130176000Y-57586500D01*
X130097400Y-57819500D02*
X130126000Y-57725800D01*
X130061300Y-57963100D02*
X130097400Y-57819500D01*
X130042200Y-58059200D02*
X130061300Y-57963100D01*
X130020400Y-58205600D02*
X130042200Y-58059200D01*
X130010700Y-58303100D02*
X130020400Y-58205600D01*
X130003400Y-58451000D02*
X130010700Y-58303100D01*
X130003400Y-58549000D02*
X130003400Y-58451000D01*
X130010700Y-58696900D02*
X130003400Y-58549000D01*
X130020400Y-58794400D02*
X130010700Y-58696900D01*
X130042200Y-58940800D02*
X130020400Y-58794400D01*
X130061300Y-59036900D02*
X130042200Y-58940800D01*
X130097400Y-59180500D02*
X130061300Y-59036900D01*
X130126000Y-59274200D02*
X130097400Y-59180500D01*
X130176000Y-59413500D02*
X130126000Y-59274200D01*
X130213700Y-59504000D02*
X130176000Y-59413500D01*
X130277200Y-59637700D02*
X130213700Y-59504000D01*
X130323600Y-59724100D02*
X130277200Y-59637700D01*
X130399900Y-59850900D02*
X130323600Y-59724100D01*
X130454500Y-59932300D02*
X130399900Y-59850900D01*
X130543000Y-60051000D02*
X130454500Y-59932300D01*
X130605400Y-60126600D02*
X130543000Y-60051000D01*
X130705100Y-60236000D02*
X130605400Y-60126600D01*
X130774600Y-60305100D02*
X130705100Y-60236000D01*
X130884600Y-60404100D02*
X130774600Y-60305100D01*
X130960600Y-60466100D02*
X130884600Y-60404100D01*
X131079800Y-60553800D02*
X130960600Y-60466100D01*
X131161500Y-60608000D02*
X131079800Y-60553800D01*
X131288700Y-60683600D02*
X131161500Y-60608000D01*
X131375300Y-60729500D02*
X131288700Y-60683600D01*
X131509400Y-60792200D02*
X131375300Y-60729500D01*
X131600100Y-60829300D02*
X131509400Y-60792200D01*
X131878700Y-60927800D02*
X131600100Y-60829300D01*
X131957100Y-60964100D02*
X131878700Y-60927800D01*
X131978900Y-60975700D02*
X131957100Y-60964100D01*
X132052700Y-61019900D02*
X131978900Y-60975700D01*
X132122500Y-61070900D02*
X132052700Y-61019900D01*
X132141700Y-61086500D02*
X132122500Y-61070900D01*
X132205400Y-61144300D02*
X132141700Y-61086500D01*
X132263800Y-61207900D02*
X132205400Y-61144300D01*
X132279400Y-61226800D02*
X132263800Y-61207900D01*
X132337500Y-61306700D02*
X132279400Y-61226800D01*
X132381600Y-61380600D02*
X132337500Y-61306700D01*
X132418900Y-61458500D02*
X132381600Y-61380600D01*
X132428400Y-61481300D02*
X132418900Y-61458500D01*
X132460600Y-61574500D02*
X132428400Y-61481300D01*
X132481400Y-61658400D02*
X132460600Y-61574500D01*
X132496700Y-61767700D02*
X132481400Y-61658400D01*
X132501000Y-61860300D02*
X132496700Y-61767700D01*
X132501000Y-62743400D02*
X132501000Y-61860300D01*
X132477400Y-63194100D02*
X132501000Y-62743400D01*
X132407800Y-63633500D02*
X132477400Y-63194100D01*
X132292500Y-64063800D02*
X132407800Y-63633500D01*
X132138200Y-64466700D02*
X132292500Y-64063800D01*
X132127500Y-64490700D02*
X132138200Y-64466700D01*
X131937500Y-64863800D02*
X132127500Y-64490700D01*
X131924300Y-64886500D02*
X131937500Y-64863800D01*
X131689000Y-65248300D02*
X131924300Y-64886500D01*
X131417400Y-65584200D02*
X131689000Y-65248300D01*
X131399800Y-65603800D02*
X131417400Y-65584200D01*
X131094400Y-65908700D02*
X131399800Y-65603800D01*
X130748700Y-66188700D02*
X131094400Y-65908700D01*
X130375500Y-66431100D02*
X130748700Y-66188700D01*
X129978600Y-66633300D02*
X130375500Y-66431100D01*
X129563700Y-66792500D02*
X129978600Y-66633300D01*
X129134000Y-66907700D02*
X129563700Y-66792500D01*
X128694500Y-66977300D02*
X129134000Y-66907700D01*
X128249900Y-67000900D02*
X128694500Y-66977300D01*
X102241300Y-67001000D02*
X128249900Y-67000900D01*
X102144000Y-67005800D02*
X102241300Y-67001000D01*
X102047900Y-67020000D02*
X102144000Y-67005800D01*
X101953600Y-67043600D02*
X102047900Y-67020000D01*
X101862200Y-67076400D02*
X101953600Y-67043600D01*
X101774300Y-67117900D02*
X101862200Y-67076400D01*
X101691000Y-67167900D02*
X101774300Y-67117900D01*
X101613000Y-67225700D02*
X101691000Y-67167900D01*
X101541000Y-67291000D02*
X101613000Y-67225700D01*
X101475700Y-67363000D02*
X101541000Y-67291000D01*
X101417900Y-67441000D02*
X101475700Y-67363000D01*
X101367900Y-67524300D02*
X101417900Y-67441000D01*
X101326400Y-67612100D02*
X101367900Y-67524300D01*
X101293700Y-67703600D02*
X101326400Y-67612100D01*
X101270000Y-67797900D02*
X101293700Y-67703600D01*
X101255800Y-67894000D02*
X101270000Y-67797900D01*
X101251000Y-67991200D02*
X101255800Y-67894000D01*
X101251000Y-68508800D02*
X101251000Y-67991200D01*
X101255800Y-68606000D02*
X101251000Y-68508800D01*
X101270000Y-68702100D02*
X101255800Y-68606000D01*
X101293700Y-68796400D02*
X101270000Y-68702100D01*
X101326400Y-68887900D02*
X101293700Y-68796400D01*
X101367900Y-68975700D02*
X101326400Y-68887900D01*
X101417900Y-69059000D02*
X101367900Y-68975700D01*
X101475700Y-69137000D02*
X101417900Y-69059000D01*
X101541000Y-69209000D02*
X101475700Y-69137000D01*
X101613000Y-69274300D02*
X101541000Y-69209000D01*
X101691000Y-69332200D02*
X101613000Y-69274300D01*
X101774300Y-69382100D02*
X101691000Y-69332200D01*
X101862200Y-69423600D02*
X101774300Y-69382100D01*
X101953600Y-69456400D02*
X101862200Y-69423600D01*
X102047900Y-69480000D02*
X101953600Y-69456400D01*
X102144000Y-69494200D02*
X102047900Y-69480000D01*
X102241300Y-69499000D02*
X102144000Y-69494200D01*
X128243400Y-69499000D02*
X102241300Y-69499000D01*
X128694600Y-69522700D02*
X128243400Y-69499000D01*
X129134000Y-69592300D02*
X128694600Y-69522700D01*
X129550900Y-69703700D02*
X129134000Y-69592300D01*
X129575900Y-69711800D02*
X129550900Y-69703700D01*
X129966700Y-69861800D02*
X129575900Y-69711800D01*
X129990700Y-69872500D02*
X129966700Y-69861800D01*
X130375100Y-70068700D02*
X129990700Y-69872500D01*
X130737600Y-70303700D02*
X130375100Y-70068700D01*
X130758900Y-70319200D02*
X130737600Y-70303700D01*
X131094100Y-70591000D02*
X130758900Y-70319200D01*
X131408700Y-70905600D02*
X131094100Y-70591000D01*
X131688700Y-71251400D02*
X131408700Y-70905600D01*
X131931300Y-71624900D02*
X131688700Y-71251400D01*
X132133100Y-72020900D02*
X131931300Y-71624900D01*
X132288200Y-72424100D02*
X132133100Y-72020900D01*
X132296300Y-72449100D02*
X132288200Y-72424100D01*
X132404700Y-72853500D02*
X132296300Y-72449100D01*
X132410200Y-72879200D02*
X132404700Y-72853500D01*
X132477400Y-73306000D02*
X132410200Y-72879200D01*
X132500900Y-73750100D02*
X132477400Y-73306000D01*
X132500900Y-74646100D02*
X132500900Y-73750100D01*
X132495900Y-74744100D02*
X132500900Y-74646100D01*
X132483400Y-74829700D02*
X132495900Y-74744100D01*
X132478600Y-74853900D02*
X132483400Y-74829700D01*
X132457300Y-74937200D02*
X132478600Y-74853900D01*
X132428400Y-75018700D02*
X132457300Y-74937200D01*
X132418900Y-75041500D02*
X132428400Y-75018700D01*
X132381500Y-75119500D02*
X132418900Y-75041500D01*
X132330900Y-75203500D02*
X132381500Y-75119500D01*
X132272100Y-75282600D02*
X132330900Y-75203500D01*
X132214100Y-75346600D02*
X132272100Y-75282600D01*
X132196500Y-75364100D02*
X132214100Y-75346600D01*
X132132100Y-75421700D02*
X132196500Y-75364100D01*
X132052700Y-75480100D02*
X132132100Y-75421700D01*
X131957300Y-75535800D02*
X132052700Y-75480100D01*
X131878600Y-75572200D02*
X131957300Y-75535800D01*
X131600100Y-75670700D02*
X131878600Y-75572200D01*
X131509400Y-75707800D02*
X131600100Y-75670700D01*
X131375300Y-75770600D02*
X131509400Y-75707800D01*
X131288700Y-75816400D02*
X131375300Y-75770600D01*
X131161400Y-75892000D02*
X131288700Y-75816400D01*
X131079800Y-75946200D02*
X131161400Y-75892000D01*
X130960600Y-76033900D02*
X131079800Y-75946200D01*
X130884600Y-76095900D02*
X130960600Y-76033900D01*
X130774600Y-76194900D02*
X130884600Y-76095900D01*
X130705100Y-76264000D02*
X130774600Y-76194900D01*
X130605400Y-76373400D02*
X130705100Y-76264000D01*
X130543000Y-76449000D02*
X130605400Y-76373400D01*
X130454500Y-76567700D02*
X130543000Y-76449000D01*
X130399900Y-76649100D02*
X130454500Y-76567700D01*
X130323600Y-76775900D02*
X130399900Y-76649100D01*
X130277200Y-76862300D02*
X130323600Y-76775900D01*
X130213700Y-76996000D02*
X130277200Y-76862300D01*
X130176000Y-77086500D02*
X130213700Y-76996000D01*
X130126000Y-77225800D02*
X130176000Y-77086500D01*
X130097400Y-77319500D02*
X130126000Y-77225800D01*
X130061300Y-77463100D02*
X130097400Y-77319500D01*
X130042200Y-77559200D02*
X130061300Y-77463100D01*
X130020400Y-77705600D02*
X130042200Y-77559200D01*
X130010700Y-77803200D02*
X130020400Y-77705600D01*
X130003400Y-77951000D02*
X130010700Y-77803200D01*
X130003400Y-78049000D02*
X130003400Y-77951000D01*
X130010700Y-78196900D02*
X130003400Y-78049000D01*
X130020400Y-78294400D02*
X130010700Y-78196900D01*
X130042200Y-78440800D02*
X130020400Y-78294400D01*
X130061300Y-78536900D02*
X130042200Y-78440800D01*
X130097400Y-78680500D02*
X130061300Y-78536900D01*
X130126000Y-78774200D02*
X130097400Y-78680500D01*
X130176000Y-78913600D02*
X130126000Y-78774200D01*
X130213700Y-79004100D02*
X130176000Y-78913600D01*
X130277200Y-79137800D02*
X130213700Y-79004100D01*
X130323600Y-79224100D02*
X130277200Y-79137800D01*
X130399900Y-79350900D02*
X130323600Y-79224100D01*
X130454500Y-79432300D02*
X130399900Y-79350900D01*
X130543000Y-79551000D02*
X130454500Y-79432300D01*
X130605400Y-79626600D02*
X130543000Y-79551000D01*
X130705100Y-79736000D02*
X130605400Y-79626600D01*
X130774600Y-79805100D02*
X130705100Y-79736000D01*
X130884600Y-79904200D02*
X130774600Y-79805100D01*
X130960600Y-79966100D02*
X130884600Y-79904200D01*
X131079800Y-80053900D02*
X130960600Y-79966100D01*
X131161500Y-80108000D02*
X131079800Y-80053900D01*
X131288700Y-80183600D02*
X131161500Y-80108000D01*
X131375300Y-80229500D02*
X131288700Y-80183600D01*
X131509400Y-80292200D02*
X131375300Y-80229500D01*
X131600100Y-80329300D02*
X131509400Y-80292200D01*
X131879100Y-80428000D02*
X131600100Y-80329300D01*
X131968400Y-80469800D02*
X131879100Y-80428000D01*
X132062800Y-80527000D02*
X131968400Y-80469800D01*
X132141700Y-80586500D02*
X132062800Y-80527000D01*
X132205400Y-80644300D02*
X132141700Y-80586500D01*
X132263800Y-80707900D02*
X132205400Y-80644300D01*
X132279500Y-80727000D02*
X132263800Y-80707900D01*
X132330700Y-80796100D02*
X132279500Y-80727000D01*
X132381600Y-80880600D02*
X132330700Y-80796100D01*
X132423900Y-80969600D02*
X132381600Y-80880600D01*
X132457400Y-81062800D02*
X132423900Y-80969600D01*
X132481400Y-81158400D02*
X132457400Y-81062800D01*
X132494300Y-81243400D02*
X132481400Y-81158400D01*
X132496800Y-81268000D02*
X132494300Y-81243400D01*
X132501000Y-81360300D02*
X132496800Y-81268000D01*
X132500900Y-82249900D02*
X132501000Y-81360300D01*
X132477300Y-82694600D02*
X132500900Y-82249900D01*
X132407700Y-83134100D02*
X132477300Y-82694600D01*
X132296400Y-83550900D02*
X132407700Y-83134100D01*
X132288200Y-83575900D02*
X132296400Y-83550900D01*
X132138200Y-83966800D02*
X132288200Y-83575900D01*
X132127500Y-83990800D02*
X132138200Y-83966800D01*
X131931300Y-84375100D02*
X132127500Y-83990800D01*
X131696300Y-84737600D02*
X131931300Y-84375100D01*
X131680900Y-84758900D02*
X131696300Y-84737600D01*
X131409000Y-85094100D02*
X131680900Y-84758900D01*
X131094400Y-85408700D02*
X131409000Y-85094100D01*
X130748200Y-85689000D02*
X131094400Y-85408700D01*
X130386500Y-85924300D02*
X130748200Y-85689000D01*
X130363800Y-85937500D02*
X130386500Y-85924300D01*
X129990800Y-86127500D02*
X130363800Y-85937500D01*
X129966800Y-86138200D02*
X129990800Y-86127500D01*
X129563700Y-86292600D02*
X129966800Y-86138200D01*
X129146600Y-86404700D02*
X129563700Y-86292600D01*
X129120900Y-86410200D02*
X129146600Y-86404700D01*
X128694500Y-86477400D02*
X129120900Y-86410200D01*
X128249900Y-86500900D02*
X128694500Y-86477400D01*
X102241300Y-86501000D02*
X128249900Y-86500900D01*
X102144000Y-86505800D02*
X102241300Y-86501000D01*
X102047900Y-86520000D02*
X102144000Y-86505800D01*
X101953600Y-86543700D02*
X102047900Y-86520000D01*
X101862200Y-86576400D02*
X101953600Y-86543700D01*
X101774300Y-86617900D02*
X101862200Y-86576400D01*
X101691000Y-86667900D02*
X101774300Y-86617900D01*
X101613000Y-86725700D02*
X101691000Y-86667900D01*
X101541000Y-86791000D02*
X101613000Y-86725700D01*
X101475700Y-86863000D02*
X101541000Y-86791000D01*
X101417900Y-86941000D02*
X101475700Y-86863000D01*
X101367900Y-87024300D02*
X101417900Y-86941000D01*
X101326400Y-87112200D02*
X101367900Y-87024300D01*
X101293700Y-87203600D02*
X101326400Y-87112200D01*
X101270000Y-87297900D02*
X101293700Y-87203600D01*
X101255800Y-87394000D02*
X101270000Y-87297900D01*
X101251000Y-87491300D02*
X101255800Y-87394000D01*
X101251000Y-88008800D02*
X101251000Y-87491300D01*
X101255800Y-88106000D02*
X101251000Y-88008800D01*
X101270000Y-88202100D02*
X101255800Y-88106000D01*
X101293700Y-88296400D02*
X101270000Y-88202100D01*
X101326400Y-88387900D02*
X101293700Y-88296400D01*
X101367900Y-88475700D02*
X101326400Y-88387900D01*
X101417900Y-88559000D02*
X101367900Y-88475700D01*
X101475700Y-88637100D02*
X101417900Y-88559000D01*
X101541000Y-88709000D02*
X101475700Y-88637100D01*
X101613000Y-88774300D02*
X101541000Y-88709000D01*
X101691000Y-88832200D02*
X101613000Y-88774300D01*
X101774300Y-88882100D02*
X101691000Y-88832200D01*
X101862200Y-88923600D02*
X101774300Y-88882100D01*
X101953600Y-88956400D02*
X101862200Y-88923600D01*
X102047900Y-88980000D02*
X101953600Y-88956400D01*
X102144000Y-88994200D02*
X102047900Y-88980000D01*
X102241300Y-88999000D02*
X102144000Y-88994200D01*
X128249900Y-88999100D02*
X102241300Y-88999000D01*
X128681200Y-89021600D02*
X128249900Y-88999100D01*
X128707300Y-89024400D02*
X128681200Y-89021600D01*
X129133500Y-89092200D02*
X128707300Y-89024400D01*
X129550900Y-89203700D02*
X129133500Y-89092200D01*
X129575900Y-89211800D02*
X129550900Y-89203700D01*
X129978700Y-89366800D02*
X129575900Y-89211800D01*
X130375100Y-89568700D02*
X129978700Y-89366800D01*
X130748700Y-89811400D02*
X130375100Y-89568700D01*
X131084200Y-90082600D02*
X130748700Y-89811400D01*
X131103800Y-90100200D02*
X131084200Y-90082600D01*
X131399800Y-90396200D02*
X131103800Y-90100200D01*
X131417400Y-90415800D02*
X131399800Y-90396200D01*
X131688700Y-90751400D02*
X131417400Y-90415800D01*
X131924300Y-91113500D02*
X131688700Y-90751400D01*
X131937400Y-91136200D02*
X131924300Y-91113500D01*
X132133100Y-91520900D02*
X131937400Y-91136200D01*
X132292500Y-91936300D02*
X132133100Y-91520900D01*
X132407800Y-92366600D02*
X132292500Y-91936300D01*
X132475700Y-92792700D02*
X132407800Y-92366600D01*
X132478400Y-92818500D02*
X132475700Y-92792700D01*
X132501000Y-93256400D02*
X132478400Y-92818500D01*
X132501000Y-94139700D02*
X132501000Y-93256400D01*
X132496800Y-94232000D02*
X132501000Y-94139700D01*
X132494300Y-94256700D02*
X132496800Y-94232000D01*
X132481400Y-94341700D02*
X132494300Y-94256700D01*
X132457300Y-94437300D02*
X132481400Y-94341700D01*
X132424000Y-94530000D02*
X132457300Y-94437300D01*
X132381500Y-94619500D02*
X132424000Y-94530000D01*
X132330700Y-94703900D02*
X132381500Y-94619500D01*
X132279600Y-94773000D02*
X132330700Y-94703900D01*
X132263800Y-94792100D02*
X132279600Y-94773000D01*
X132205700Y-94855400D02*
X132263800Y-94792100D01*
X132141700Y-94913500D02*
X132205700Y-94855400D01*
X132062800Y-94973100D02*
X132141700Y-94913500D01*
X131968400Y-95030300D02*
X132062800Y-94973100D01*
X131879100Y-95072000D02*
X131968400Y-95030300D01*
X131600100Y-95170800D02*
X131879100Y-95072000D01*
X131509400Y-95207900D02*
X131600100Y-95170800D01*
X131375300Y-95270600D02*
X131509400Y-95207900D01*
X131288700Y-95316400D02*
X131375300Y-95270600D01*
X131161400Y-95392000D02*
X131288700Y-95316400D01*
X131079800Y-95446200D02*
X131161400Y-95392000D01*
X130960600Y-95534000D02*
X131079800Y-95446200D01*
X130884600Y-95595900D02*
X130960600Y-95534000D01*
X130774600Y-95695000D02*
X130884600Y-95595900D01*
X130705100Y-95764100D02*
X130774600Y-95695000D01*
X130605400Y-95873500D02*
X130705100Y-95764100D01*
X130543000Y-95949100D02*
X130605400Y-95873500D01*
X130454500Y-96067800D02*
X130543000Y-95949100D01*
X130399900Y-96149100D02*
X130454500Y-96067800D01*
X130323600Y-96275900D02*
X130399900Y-96149100D01*
X130277200Y-96362300D02*
X130323600Y-96275900D01*
X130213700Y-96496000D02*
X130277200Y-96362300D01*
X130176000Y-96586500D02*
X130213700Y-96496000D01*
X130126000Y-96725800D02*
X130176000Y-96586500D01*
X130097400Y-96819600D02*
X130126000Y-96725800D01*
X130061300Y-96963100D02*
X130097400Y-96819600D01*
X130042200Y-97059200D02*
X130061300Y-96963100D01*
X130020400Y-97205600D02*
X130042200Y-97059200D01*
X130010700Y-97303200D02*
X130020400Y-97205600D01*
X130003400Y-97451000D02*
X130010700Y-97303200D01*
X130003400Y-97549000D02*
X130003400Y-97451000D01*
X130010700Y-97696900D02*
X130003400Y-97549000D01*
X130020400Y-97794400D02*
X130010700Y-97696900D01*
X130042200Y-97940800D02*
X130020400Y-97794400D01*
X130061300Y-98036900D02*
X130042200Y-97940800D01*
X130097400Y-98180500D02*
X130061300Y-98036900D01*
X130126000Y-98274300D02*
X130097400Y-98180500D01*
X130176000Y-98413600D02*
X130126000Y-98274300D01*
X130213700Y-98504100D02*
X130176000Y-98413600D01*
X130277200Y-98637800D02*
X130213700Y-98504100D01*
X130323600Y-98724100D02*
X130277200Y-98637800D01*
X130399900Y-98850900D02*
X130323600Y-98724100D01*
X130454500Y-98932300D02*
X130399900Y-98850900D01*
X130543000Y-99051000D02*
X130454500Y-98932300D01*
X130605400Y-99126600D02*
X130543000Y-99051000D01*
X130705100Y-99236000D02*
X130605400Y-99126600D01*
X130774600Y-99305100D02*
X130705100Y-99236000D01*
X130884600Y-99404200D02*
X130774600Y-99305100D01*
X130960600Y-99466100D02*
X130884600Y-99404200D01*
X131079800Y-99553900D02*
X130960600Y-99466100D01*
X131161500Y-99608000D02*
X131079800Y-99553900D01*
X131288700Y-99683600D02*
X131161500Y-99608000D01*
X131375300Y-99729500D02*
X131288700Y-99683600D01*
X131509400Y-99792200D02*
X131375300Y-99729500D01*
X131600100Y-99829300D02*
X131509400Y-99792200D01*
X131867300Y-99923500D02*
X131600100Y-99829300D01*
X131890200Y-99932900D02*
X131867300Y-99923500D01*
X131968000Y-99969600D02*
X131890200Y-99932900D01*
X132042400Y-100013500D02*
X131968000Y-99969600D01*
X132063000Y-100027100D02*
X132042400Y-100013500D01*
X132132500Y-100078700D02*
X132063000Y-100027100D01*
X132205400Y-100144300D02*
X132132500Y-100078700D01*
X132271800Y-100217100D02*
X132205400Y-100144300D01*
X132330700Y-100296200D02*
X132271800Y-100217100D01*
X132375500Y-100370000D02*
X132330700Y-100296200D01*
X132387200Y-100391800D02*
X132375500Y-100370000D01*
X132428400Y-100481400D02*
X132387200Y-100391800D01*
X132457400Y-100562900D02*
X132428400Y-100481400D01*
X132481400Y-100658500D02*
X132457400Y-100562900D01*
X132495800Y-100755500D02*
X132481400Y-100658500D01*
X132500900Y-100854200D02*
X132495800Y-100755500D01*
X132501000Y-101743400D02*
X132500900Y-100854200D01*
X132478400Y-102181500D02*
X132501000Y-101743400D01*
X132475700Y-102207400D02*
X132478400Y-102181500D01*
X132407800Y-102633600D02*
X132475700Y-102207400D01*
X132296400Y-103050900D02*
X132407800Y-102633600D01*
X132288200Y-103075900D02*
X132296400Y-103050900D01*
X132133300Y-103478700D02*
X132288200Y-103075900D01*
X131931300Y-103875200D02*
X132133300Y-103478700D01*
X131689000Y-104248300D02*
X131931300Y-103875200D01*
X131409000Y-104594100D02*
X131689000Y-104248300D01*
X131094400Y-104908700D02*
X131409000Y-104594100D01*
X130748700Y-105188700D02*
X131094400Y-104908700D01*
X130375500Y-105431100D02*
X130748700Y-105188700D01*
X129979100Y-105633100D02*
X130375500Y-105431100D01*
X129563700Y-105792600D02*
X129979100Y-105633100D01*
X129134000Y-105907800D02*
X129563700Y-105792600D01*
X128694500Y-105977400D02*
X129134000Y-105907800D01*
X128256600Y-106000700D02*
X128694500Y-105977400D01*
X102241300Y-106001000D02*
X128256600Y-106000700D01*
X102144000Y-106005800D02*
X102241300Y-106001000D01*
X102047900Y-106020100D02*
X102144000Y-106005800D01*
X101953600Y-106043700D02*
X102047900Y-106020100D01*
X101862200Y-106076400D02*
X101953600Y-106043700D01*
X101774300Y-106117900D02*
X101862200Y-106076400D01*
X101691000Y-106167900D02*
X101774300Y-106117900D01*
X101613000Y-106225800D02*
X101691000Y-106167900D01*
X101541000Y-106291000D02*
X101613000Y-106225800D01*
X101475700Y-106363000D02*
X101541000Y-106291000D01*
X101417900Y-106441000D02*
X101475700Y-106363000D01*
X101367900Y-106524300D02*
X101417900Y-106441000D01*
X101326400Y-106612200D02*
X101367900Y-106524300D01*
X101293700Y-106703600D02*
X101326400Y-106612200D01*
X101270000Y-106797900D02*
X101293700Y-106703600D01*
X101255800Y-106894000D02*
X101270000Y-106797900D01*
X101251000Y-106991300D02*
X101255800Y-106894000D01*
X101251000Y-107508800D02*
X101251000Y-106991300D01*
X101255800Y-107606100D02*
X101251000Y-107508800D01*
X101270000Y-107702200D02*
X101255800Y-107606100D01*
X101293700Y-107796500D02*
X101270000Y-107702200D01*
X101326400Y-107887900D02*
X101293700Y-107796500D01*
X101367900Y-107975800D02*
X101326400Y-107887900D01*
X101417900Y-108059100D02*
X101367900Y-107975800D01*
X101475700Y-108137100D02*
X101417900Y-108059100D01*
X101541000Y-108209100D02*
X101475700Y-108137100D01*
X101613000Y-108274400D02*
X101541000Y-108209100D01*
X101691000Y-108332200D02*
X101613000Y-108274400D01*
X101774300Y-108382200D02*
X101691000Y-108332200D01*
X101862200Y-108423700D02*
X101774300Y-108382200D01*
X101953600Y-108456400D02*
X101862200Y-108423700D01*
X102047900Y-108480000D02*
X101953600Y-108456400D01*
X102144000Y-108494300D02*
X102047900Y-108480000D01*
X102241300Y-108499100D02*
X102144000Y-108494300D01*
X128249900Y-108499200D02*
X102241300Y-108499100D01*
X128694600Y-108522700D02*
X128249900Y-108499200D01*
X129134000Y-108592300D02*
X128694600Y-108522700D01*
X129563800Y-108707500D02*
X129134000Y-108592300D01*
X129966700Y-108861800D02*
X129563800Y-108707500D01*
X129990700Y-108872500D02*
X129966700Y-108861800D01*
X130363800Y-109062600D02*
X129990700Y-108872500D01*
X130386500Y-109075700D02*
X130363800Y-109062600D01*
X130748300Y-109311100D02*
X130386500Y-109075700D01*
X131084200Y-109582700D02*
X130748300Y-109311100D01*
X131103800Y-109600200D02*
X131084200Y-109582700D01*
X131408700Y-109905600D02*
X131103800Y-109600200D01*
X131688700Y-110251400D02*
X131408700Y-109905600D01*
X131931300Y-110625000D02*
X131688700Y-110251400D01*
X132127500Y-111009300D02*
X131931300Y-110625000D01*
X132138200Y-111033300D02*
X132127500Y-111009300D01*
X132288200Y-111424100D02*
X132138200Y-111033300D01*
X132296300Y-111449100D02*
X132288200Y-111424100D01*
X132407700Y-111866100D02*
X132296300Y-111449100D01*
X132475700Y-112292700D02*
X132407700Y-111866100D01*
X132478400Y-112318800D02*
X132475700Y-112292700D01*
X132500900Y-112750200D02*
X132478400Y-112318800D01*
X132501000Y-113639800D02*
X132500900Y-112750200D01*
X132496800Y-113732100D02*
X132501000Y-113639800D01*
X132494300Y-113756700D02*
X132496800Y-113732100D01*
X132481400Y-113841700D02*
X132494300Y-113756700D01*
X132457300Y-113937300D02*
X132481400Y-113841700D01*
X132424000Y-114030100D02*
X132457300Y-113937300D01*
X132381800Y-114119100D02*
X132424000Y-114030100D01*
X132330700Y-114204000D02*
X132381800Y-114119100D01*
X132279600Y-114273000D02*
X132330700Y-114204000D01*
X132263800Y-114292100D02*
X132279600Y-114273000D01*
X132205700Y-114355500D02*
X132263800Y-114292100D01*
X132141700Y-114413500D02*
X132205700Y-114355500D01*
X132062800Y-114473100D02*
X132141700Y-114413500D01*
X131968400Y-114530300D02*
X132062800Y-114473100D01*
X131879100Y-114572100D02*
X131968400Y-114530300D01*
X131600100Y-114670800D02*
X131879100Y-114572100D01*
X131509400Y-114707900D02*
X131600100Y-114670800D01*
X131375300Y-114770600D02*
X131509400Y-114707900D01*
X131288700Y-114816500D02*
X131375300Y-114770600D01*
X131161400Y-114892100D02*
X131288700Y-114816500D01*
X131079800Y-114946200D02*
X131161400Y-114892100D01*
X130960600Y-115034000D02*
X131079800Y-114946200D01*
X130884600Y-115095900D02*
X130960600Y-115034000D01*
X130774600Y-115195000D02*
X130884600Y-115095900D01*
X130705100Y-115264100D02*
X130774600Y-115195000D01*
X130605400Y-115373500D02*
X130705100Y-115264100D01*
X130543000Y-115449100D02*
X130605400Y-115373500D01*
X130454500Y-115567800D02*
X130543000Y-115449100D01*
X130399900Y-115649100D02*
X130454500Y-115567800D01*
X130323600Y-115776000D02*
X130399900Y-115649100D01*
X130277200Y-115862300D02*
X130323600Y-115776000D01*
X130213700Y-115996000D02*
X130277200Y-115862300D01*
X130176000Y-116086500D02*
X130213700Y-115996000D01*
X130126000Y-116225800D02*
X130176000Y-116086500D01*
X130097400Y-116319600D02*
X130126000Y-116225800D01*
X130061300Y-116463100D02*
X130097400Y-116319600D01*
X130042200Y-116559300D02*
X130061300Y-116463100D01*
X130020400Y-116705700D02*
X130042200Y-116559300D01*
X130010700Y-116803200D02*
X130020400Y-116705700D01*
X130003400Y-116951000D02*
X130010700Y-116803200D01*
X130003400Y-117049100D02*
X130003400Y-116951000D01*
X130010700Y-117196900D02*
X130003400Y-117049100D01*
X130020400Y-117294400D02*
X130010700Y-117196900D01*
X130042200Y-117440900D02*
X130020400Y-117294400D01*
X130061300Y-117537000D02*
X130042200Y-117440900D01*
X130097400Y-117680500D02*
X130061300Y-117537000D01*
X130126000Y-117774300D02*
X130097400Y-117680500D01*
X130176000Y-117913600D02*
X130126000Y-117774300D01*
X130213700Y-118004100D02*
X130176000Y-117913600D01*
X130277200Y-118137800D02*
X130213700Y-118004100D01*
X130323600Y-118224100D02*
X130277200Y-118137800D01*
X130399900Y-118351000D02*
X130323600Y-118224100D01*
X130454500Y-118432300D02*
X130399900Y-118351000D01*
X130543000Y-118551000D02*
X130454500Y-118432300D01*
X130605400Y-118626600D02*
X130543000Y-118551000D01*
X130705100Y-118736000D02*
X130605400Y-118626600D01*
X130774600Y-118805100D02*
X130705100Y-118736000D01*
X130884600Y-118904200D02*
X130774600Y-118805100D01*
X130960600Y-118966100D02*
X130884600Y-118904200D01*
X131079800Y-119053900D02*
X130960600Y-118966100D01*
X131161500Y-119108000D02*
X131079800Y-119053900D01*
X131288700Y-119183600D02*
X131161500Y-119108000D01*
X131375300Y-119229500D02*
X131288700Y-119183600D01*
X131509400Y-119292200D02*
X131375300Y-119229500D01*
X131600100Y-119329300D02*
X131509400Y-119292200D01*
X131878700Y-119427900D02*
X131600100Y-119329300D01*
X131957300Y-119464300D02*
X131878700Y-119427900D01*
X132052700Y-119520000D02*
X131957300Y-119464300D01*
X132132100Y-119578400D02*
X132052700Y-119520000D01*
X132196500Y-119636000D02*
X132132100Y-119578400D01*
X132214100Y-119653400D02*
X132196500Y-119636000D01*
X132272100Y-119717500D02*
X132214100Y-119653400D01*
X132330700Y-119796200D02*
X132272100Y-119717500D01*
X132375500Y-119870000D02*
X132330700Y-119796200D01*
X132387200Y-119891800D02*
X132375500Y-119870000D01*
X132423900Y-119969600D02*
X132387200Y-119891800D01*
X132453400Y-120050900D02*
X132423900Y-119969600D01*
X132460600Y-120074500D02*
X132453400Y-120050900D01*
X132483400Y-120170400D02*
X132460600Y-120074500D01*
X132495900Y-120256000D02*
X132483400Y-120170400D01*
X132500900Y-120354300D02*
X132495900Y-120256000D01*
X132500900Y-121250000D02*
X132500900Y-120354300D01*
X132477300Y-121694700D02*
X132500900Y-121250000D01*
X132407800Y-122133600D02*
X132477300Y-121694700D01*
X132296400Y-122551000D02*
X132407800Y-122133600D01*
X132288200Y-122576000D02*
X132296400Y-122551000D01*
X132133300Y-122978700D02*
X132288200Y-122576000D01*
X131931000Y-123375600D02*
X132133300Y-122978700D01*
X131696300Y-123737700D02*
X131931000Y-123375600D01*
X131680900Y-123758900D02*
X131696300Y-123737700D01*
X131409000Y-124094100D02*
X131680900Y-123758900D01*
X131103800Y-124399800D02*
X131409000Y-124094100D01*
X131084300Y-124417400D02*
X131103800Y-124399800D01*
X130748700Y-124688800D02*
X131084300Y-124417400D01*
X130375100Y-124931400D02*
X130748700Y-124688800D01*
X129990800Y-125127600D02*
X130375100Y-124931400D01*
X129966800Y-125138200D02*
X129990800Y-125127600D01*
X129563700Y-125292600D02*
X129966800Y-125138200D01*
X129146600Y-125404800D02*
X129563700Y-125292600D01*
X129120900Y-125410200D02*
X129146600Y-125404800D01*
X128707100Y-125475700D02*
X129120900Y-125410200D01*
X128681200Y-125478500D02*
X128707100Y-125475700D01*
X128243500Y-125501100D02*
X128681200Y-125478500D01*
X102241300Y-125501100D02*
X128243500Y-125501100D01*
X102144000Y-125505800D02*
X102241300Y-125501100D01*
X102047900Y-125520100D02*
X102144000Y-125505800D01*
X101953600Y-125543700D02*
X102047900Y-125520100D01*
X101862200Y-125576400D02*
X101953600Y-125543700D01*
X101774300Y-125618000D02*
X101862200Y-125576400D01*
X101691000Y-125667900D02*
X101774300Y-125618000D01*
X101613000Y-125725800D02*
X101691000Y-125667900D01*
X101541000Y-125791000D02*
X101613000Y-125725800D01*
X101475700Y-125863000D02*
X101541000Y-125791000D01*
X101417900Y-125941100D02*
X101475700Y-125863000D01*
X101367900Y-126024400D02*
X101417900Y-125941100D01*
X101326400Y-126112200D02*
X101367900Y-126024400D01*
X101293700Y-126203700D02*
X101326400Y-126112200D01*
X101270000Y-126297900D02*
X101293700Y-126203700D01*
X101255800Y-126394000D02*
X101270000Y-126297900D01*
X101251000Y-126491300D02*
X101255800Y-126394000D01*
X101251000Y-127009800D02*
X101251000Y-126491300D01*
X101255800Y-127107100D02*
X101251000Y-127009800D01*
X101270000Y-127203200D02*
X101255800Y-127107100D01*
X101293700Y-127297400D02*
X101270000Y-127203200D01*
X101326400Y-127388900D02*
X101293700Y-127297400D01*
X101367900Y-127476700D02*
X101326400Y-127388900D01*
X101417900Y-127560100D02*
X101367900Y-127476700D01*
X101475700Y-127638100D02*
X101417900Y-127560100D01*
X101541000Y-127710100D02*
X101475700Y-127638100D01*
X101613000Y-127775300D02*
X101541000Y-127710100D01*
X101691000Y-127833200D02*
X101613000Y-127775300D01*
X101774300Y-127883200D02*
X101691000Y-127833200D01*
X101862200Y-127924700D02*
X101774300Y-127883200D01*
X101953600Y-127957400D02*
X101862200Y-127924700D01*
X102047900Y-127981000D02*
X101953600Y-127957400D01*
X102144000Y-127995300D02*
X102047900Y-127981000D01*
X102241300Y-128000100D02*
X102144000Y-127995300D01*
X132491800Y-128000900D02*
X102241300Y-128000100D01*
X132496300Y-128002700D02*
X132491800Y-128000900D01*
X132499700Y-128007400D02*
X132496300Y-128002700D01*
X132501000Y-128024600D02*
X132499700Y-128007400D01*
X132501000Y-131976500D02*
X132501000Y-128024600D01*
X132500200Y-131991900D02*
X132501000Y-131976500D01*
X132497000Y-131997800D02*
X132500200Y-131991900D01*
X132491800Y-132000300D02*
X132497000Y-131997800D01*
X132476500Y-132001100D02*
X132491800Y-132000300D01*
X50023500Y-132001100D02*
X132476500Y-132001100D01*
X50008200Y-132000300D02*
X50023500Y-132001100D01*
X50002300Y-131997100D02*
X50008200Y-132000300D01*
X49999800Y-131991900D02*
X50002300Y-131997100D01*
X49999000Y-131976500D02*
X49999800Y-131991900D01*
X49999000Y-128024600D02*
X49999000Y-131976500D01*
X50000300Y-128007400D02*
X49999000Y-128024600D01*
X50003000Y-128003300D02*
X50000300Y-128007400D01*
X50008200Y-128000900D02*
X50003000Y-128003300D01*
X80258800Y-128000100D02*
X50008200Y-128000900D01*
X80356000Y-127995300D02*
X80258800Y-128000100D01*
X80452100Y-127981000D02*
X80356000Y-127995300D01*
X80546400Y-127957400D02*
X80452100Y-127981000D01*
X80637900Y-127924700D02*
X80546400Y-127957400D01*
X80725700Y-127883200D02*
X80637900Y-127924700D01*
X80809000Y-127833200D02*
X80725700Y-127883200D01*
X80887100Y-127775300D02*
X80809000Y-127833200D01*
X80959000Y-127710100D02*
X80887100Y-127775300D01*
X81024300Y-127638100D02*
X80959000Y-127710100D01*
X81082200Y-127560100D02*
X81024300Y-127638100D01*
X81132100Y-127476700D02*
X81082200Y-127560100D01*
X81173600Y-127388900D02*
X81132100Y-127476700D01*
X81206400Y-127297400D02*
X81173600Y-127388900D01*
X81230000Y-127203200D02*
X81206400Y-127297400D01*
X81244200Y-127107100D02*
X81230000Y-127203200D01*
X81249000Y-127009800D02*
X81244200Y-127107100D01*
X81249000Y-126491300D02*
X81249000Y-127009800D01*
X81244200Y-126394000D02*
X81249000Y-126491300D01*
X81230000Y-126297900D02*
X81244200Y-126394000D01*
X81206400Y-126203700D02*
X81230000Y-126297900D01*
X81173600Y-126112200D02*
X81206400Y-126203700D01*
X81132100Y-126024400D02*
X81173600Y-126112200D01*
X81082200Y-125941100D02*
X81132100Y-126024400D01*
X81024300Y-125863000D02*
X81082200Y-125941100D01*
X80959000Y-125791100D02*
X81024300Y-125863000D01*
X80887100Y-125725800D02*
X80959000Y-125791100D01*
X80809000Y-125667900D02*
X80887100Y-125725800D01*
X80725700Y-125618000D02*
X80809000Y-125667900D01*
X80637900Y-125576500D02*
X80725700Y-125618000D01*
X80546400Y-125543700D02*
X80637900Y-125576500D01*
X80452100Y-125520100D02*
X80546400Y-125543700D01*
X80356000Y-125505900D02*
X80452100Y-125520100D01*
X80258800Y-125501100D02*
X80356000Y-125505900D01*
X54256600Y-125501100D02*
X80258800Y-125501100D01*
X53805900Y-125477400D02*
X54256600Y-125501100D01*
X53378900Y-125410200D02*
X53805900Y-125477400D01*
X53353500Y-125404800D02*
X53378900Y-125410200D01*
X52949100Y-125296400D02*
X53353500Y-125404800D01*
X52924100Y-125288300D02*
X52949100Y-125296400D01*
X52520800Y-125133100D02*
X52924100Y-125288300D01*
X52124400Y-124931100D02*
X52520800Y-125133100D01*
X51751700Y-124689000D02*
X52124400Y-124931100D01*
X51415800Y-124417400D02*
X51751700Y-124689000D01*
X51396200Y-124399900D02*
X51415800Y-124417400D01*
X51100200Y-124103800D02*
X51396200Y-124399900D01*
X51082600Y-124084300D02*
X51100200Y-124103800D01*
X50811000Y-123748300D02*
X51082600Y-124084300D01*
X50568900Y-123375600D02*
X50811000Y-123748300D01*
X50366900Y-122979200D02*
X50568900Y-123375600D01*
X50211800Y-122576000D02*
X50366900Y-122979200D01*
X50203700Y-122551000D02*
X50211800Y-122576000D01*
X50095300Y-122146600D02*
X50203700Y-122551000D01*
X50089800Y-122120900D02*
X50095300Y-122146600D01*
X50022600Y-121694100D02*
X50089800Y-122120900D01*
X49999000Y-121243500D02*
X50022600Y-121694100D01*
X49999000Y-120360400D02*
X49999000Y-121243500D01*
X50004100Y-120255900D02*
X49999000Y-120360400D01*
X50018600Y-120158400D02*
X50004100Y-120255900D01*
X50042800Y-120062400D02*
X50018600Y-120158400D01*
X50076100Y-119969600D02*
X50042800Y-120062400D01*
X50112700Y-119891900D02*
X50076100Y-119969600D01*
X50124400Y-119870100D02*
X50112700Y-119891900D01*
X50176300Y-119786300D02*
X50124400Y-119870100D01*
X50227900Y-119717500D02*
X50176300Y-119786300D01*
X50285900Y-119653400D02*
X50227900Y-119717500D01*
X50303500Y-119636000D02*
X50285900Y-119653400D01*
X50367600Y-119578700D02*
X50303500Y-119636000D01*
X50437200Y-119527000D02*
X50367600Y-119578700D01*
X50531700Y-119469800D02*
X50437200Y-119527000D01*
X50620900Y-119428000D02*
X50531700Y-119469800D01*
X50899900Y-119329300D02*
X50620900Y-119428000D01*
X50990600Y-119292200D02*
X50899900Y-119329300D01*
X51124700Y-119229500D02*
X50990600Y-119292200D01*
X51211300Y-119183600D02*
X51124700Y-119229500D01*
X51338600Y-119108000D02*
X51211300Y-119183600D01*
X51420200Y-119053900D02*
X51338600Y-119108000D01*
X51539400Y-118966100D02*
X51420200Y-119053900D01*
X51615400Y-118904200D02*
X51539400Y-118966100D01*
X51725400Y-118805100D02*
X51615400Y-118904200D01*
X51794900Y-118736000D02*
X51725400Y-118805100D01*
X51894600Y-118626600D02*
X51794900Y-118736000D01*
X51957000Y-118551000D02*
X51894600Y-118626600D01*
X52045500Y-118432300D02*
X51957000Y-118551000D01*
X52100100Y-118351000D02*
X52045500Y-118432300D01*
X52176400Y-118224100D02*
X52100100Y-118351000D01*
X52222800Y-118137800D02*
X52176400Y-118224100D01*
X52286300Y-118004100D02*
X52222800Y-118137800D01*
X52324000Y-117913600D02*
X52286300Y-118004100D01*
X52374000Y-117774300D02*
X52324000Y-117913600D01*
X52402600Y-117680500D02*
X52374000Y-117774300D01*
X52438700Y-117537000D02*
X52402600Y-117680500D01*
X52457800Y-117440900D02*
X52438700Y-117537000D01*
X52479700Y-117294400D02*
X52457800Y-117440900D01*
X52489300Y-117196900D02*
X52479700Y-117294400D01*
X52496600Y-117049100D02*
X52489300Y-117196900D01*
X52496600Y-116951000D02*
X52496600Y-117049100D01*
X52489300Y-116803200D02*
X52496600Y-116951000D01*
X52479700Y-116705700D02*
X52489300Y-116803200D01*
X52457800Y-116559300D02*
X52479700Y-116705700D01*
X52438700Y-116463100D02*
X52457800Y-116559300D01*
X52402600Y-116319600D02*
X52438700Y-116463100D01*
X52374000Y-116225800D02*
X52402600Y-116319600D01*
X52324000Y-116086500D02*
X52374000Y-116225800D01*
X52286300Y-115996000D02*
X52324000Y-116086500D01*
X52222800Y-115862300D02*
X52286300Y-115996000D01*
X52176400Y-115776000D02*
X52222800Y-115862300D01*
X52100100Y-115649100D02*
X52176400Y-115776000D01*
X52045500Y-115567800D02*
X52100100Y-115649100D01*
X51957000Y-115449100D02*
X52045500Y-115567800D01*
X51894600Y-115373500D02*
X51957000Y-115449100D01*
X51794900Y-115264100D02*
X51894600Y-115373500D01*
X51725400Y-115195000D02*
X51794900Y-115264100D01*
X51615400Y-115095900D02*
X51725400Y-115195000D01*
X51539400Y-115034000D02*
X51615400Y-115095900D01*
X51420200Y-114946200D02*
X51539400Y-115034000D01*
X51338600Y-114892100D02*
X51420200Y-114946200D01*
X51211300Y-114816500D02*
X51338600Y-114892100D01*
X51124700Y-114770600D02*
X51211300Y-114816500D01*
X50990600Y-114707900D02*
X51124700Y-114770600D01*
X50899900Y-114670800D02*
X50990600Y-114707900D01*
X50621300Y-114572200D02*
X50899900Y-114670800D01*
X50542900Y-114535900D02*
X50621300Y-114572200D01*
X50521100Y-114524300D02*
X50542900Y-114535900D01*
X50447300Y-114480200D02*
X50521100Y-114524300D01*
X50377500Y-114429200D02*
X50447300Y-114480200D01*
X50358300Y-114413600D02*
X50377500Y-114429200D01*
X50294600Y-114355800D02*
X50358300Y-114413600D01*
X50236200Y-114292100D02*
X50294600Y-114355800D01*
X50220600Y-114273200D02*
X50236200Y-114292100D01*
X50162500Y-114193300D02*
X50220600Y-114273200D01*
X50118400Y-114119500D02*
X50162500Y-114193300D01*
X50081100Y-114041600D02*
X50118400Y-114119500D01*
X50071600Y-114018700D02*
X50081100Y-114041600D01*
X50039400Y-113925600D02*
X50071600Y-114018700D01*
X50018600Y-113841600D02*
X50039400Y-113925600D01*
X50003300Y-113732300D02*
X50018600Y-113841600D01*
X49999000Y-113639800D02*
X50003300Y-113732300D01*
X49999000Y-112756700D02*
X49999000Y-113639800D01*
X50022600Y-112306000D02*
X49999000Y-112756700D01*
X50092200Y-111866500D02*
X50022600Y-112306000D01*
X50207500Y-111436300D02*
X50092200Y-111866500D01*
X50361800Y-111033300D02*
X50207500Y-111436300D01*
X50372500Y-111009300D02*
X50361800Y-111033300D01*
X50562500Y-110636300D02*
X50372500Y-111009300D01*
X50575700Y-110613500D02*
X50562500Y-110636300D01*
X50811000Y-110251800D02*
X50575700Y-110613500D01*
X51082600Y-109915800D02*
X50811000Y-110251800D01*
X51100200Y-109896300D02*
X51082600Y-109915800D01*
X51405600Y-109591400D02*
X51100200Y-109896300D01*
X51751300Y-109311300D02*
X51405600Y-109591400D01*
X52124500Y-109069000D02*
X51751300Y-109311300D01*
X52521400Y-108866800D02*
X52124500Y-109069000D01*
X52936300Y-108707500D02*
X52521400Y-108866800D01*
X53366000Y-108592300D02*
X52936300Y-108707500D01*
X53805500Y-108522700D02*
X53366000Y-108592300D01*
X54250100Y-108499100D02*
X53805500Y-108522700D01*
X80258800Y-108499100D02*
X54250100Y-108499100D01*
X80356000Y-108494300D02*
X80258800Y-108499100D01*
X80452100Y-108480000D02*
X80356000Y-108494300D01*
X80546400Y-108456400D02*
X80452100Y-108480000D01*
X80637900Y-108423700D02*
X80546400Y-108456400D01*
X80725700Y-108382200D02*
X80637900Y-108423700D01*
X80809000Y-108332200D02*
X80725700Y-108382200D01*
X80887100Y-108274300D02*
X80809000Y-108332200D01*
X80959000Y-108209100D02*
X80887100Y-108274300D01*
X81024300Y-108137100D02*
X80959000Y-108209100D01*
X81082200Y-108059100D02*
X81024300Y-108137100D01*
X81132100Y-107975700D02*
X81082200Y-108059100D01*
X81173600Y-107887900D02*
X81132100Y-107975700D01*
X81206400Y-107796400D02*
X81173600Y-107887900D01*
X81230000Y-107702200D02*
X81206400Y-107796400D01*
X81244200Y-107606100D02*
X81230000Y-107702200D01*
X81249000Y-107508800D02*
X81244200Y-107606100D01*
X81249000Y-106991300D02*
X81249000Y-107508800D01*
X81244200Y-106894000D02*
X81249000Y-106991300D01*
X81230000Y-106797900D02*
X81244200Y-106894000D01*
X81206400Y-106703600D02*
X81230000Y-106797900D01*
X81173600Y-106612200D02*
X81206400Y-106703600D01*
X81132100Y-106524300D02*
X81173600Y-106612200D01*
X81082200Y-106441000D02*
X81132100Y-106524300D01*
X81024300Y-106363000D02*
X81082200Y-106441000D01*
X80959000Y-106291000D02*
X81024300Y-106363000D01*
X80887100Y-106225700D02*
X80959000Y-106291000D01*
X80809000Y-106167900D02*
X80887100Y-106225700D01*
X80725700Y-106117900D02*
X80809000Y-106167900D01*
X80637900Y-106076400D02*
X80725700Y-106117900D01*
X80546400Y-106043700D02*
X80637900Y-106076400D01*
X80452100Y-106020000D02*
X80546400Y-106043700D01*
X80356000Y-106005800D02*
X80452100Y-106020000D01*
X80258800Y-106001000D02*
X80356000Y-106005800D01*
X54256500Y-106001000D02*
X80258800Y-106001000D01*
X53805400Y-105977400D02*
X54256500Y-106001000D01*
X53366000Y-105907700D02*
X53805400Y-105977400D01*
X52949100Y-105796400D02*
X53366000Y-105907700D01*
X52924100Y-105788300D02*
X52949100Y-105796400D01*
X52533300Y-105638200D02*
X52924100Y-105788300D01*
X52509300Y-105627600D02*
X52533300Y-105638200D01*
X52124900Y-105431300D02*
X52509300Y-105627600D01*
X51762400Y-105196300D02*
X52124900Y-105431300D01*
X51741100Y-105180900D02*
X51762400Y-105196300D01*
X51405900Y-104909000D02*
X51741100Y-105180900D01*
X51091300Y-104594500D02*
X51405900Y-104909000D01*
X50811300Y-104248700D02*
X51091300Y-104594500D01*
X50568700Y-103875100D02*
X50811300Y-104248700D01*
X50366900Y-103479100D02*
X50568700Y-103875100D01*
X50211800Y-103076000D02*
X50366900Y-103479100D01*
X50203700Y-103051000D02*
X50211800Y-103076000D01*
X50095300Y-102646600D02*
X50203700Y-103051000D01*
X50089800Y-102620900D02*
X50095300Y-102646600D01*
X50022600Y-102194100D02*
X50089800Y-102620900D01*
X49999100Y-101749900D02*
X50022600Y-102194100D01*
X49999100Y-100853900D02*
X49999100Y-101749900D01*
X50004100Y-100755900D02*
X49999100Y-100853900D01*
X50016600Y-100670400D02*
X50004100Y-100755900D01*
X50021400Y-100646100D02*
X50016600Y-100670400D01*
X50042700Y-100562800D02*
X50021400Y-100646100D01*
X50071600Y-100481400D02*
X50042700Y-100562800D01*
X50081100Y-100458500D02*
X50071600Y-100481400D01*
X50118500Y-100380600D02*
X50081100Y-100458500D01*
X50169100Y-100296500D02*
X50118500Y-100380600D01*
X50227900Y-100217500D02*
X50169100Y-100296500D01*
X50285900Y-100153400D02*
X50227900Y-100217500D01*
X50303500Y-100136000D02*
X50285900Y-100153400D01*
X50367900Y-100078300D02*
X50303500Y-100136000D01*
X50447300Y-100019900D02*
X50367900Y-100078300D01*
X50542700Y-99964300D02*
X50447300Y-100019900D01*
X50621400Y-99927800D02*
X50542700Y-99964300D01*
X50899900Y-99829300D02*
X50621400Y-99927800D01*
X50990600Y-99792200D02*
X50899900Y-99829300D01*
X51124700Y-99729500D02*
X50990600Y-99792200D01*
X51211300Y-99683600D02*
X51124700Y-99729500D01*
X51338600Y-99608000D02*
X51211300Y-99683600D01*
X51420200Y-99553900D02*
X51338600Y-99608000D01*
X51539400Y-99466100D02*
X51420200Y-99553900D01*
X51615400Y-99404200D02*
X51539400Y-99466100D01*
X51725400Y-99305100D02*
X51615400Y-99404200D01*
X51794900Y-99236000D02*
X51725400Y-99305100D01*
X51894600Y-99126600D02*
X51794900Y-99236000D01*
X51957000Y-99051000D02*
X51894600Y-99126600D01*
X52045500Y-98932300D02*
X51957000Y-99051000D01*
X52100100Y-98850900D02*
X52045500Y-98932300D01*
X52176400Y-98724100D02*
X52100100Y-98850900D01*
X52222800Y-98637800D02*
X52176400Y-98724100D01*
X52286300Y-98504100D02*
X52222800Y-98637800D01*
X52324000Y-98413600D02*
X52286300Y-98504100D01*
X52374000Y-98274300D02*
X52324000Y-98413600D01*
X52402600Y-98180500D02*
X52374000Y-98274300D01*
X52438700Y-98036900D02*
X52402600Y-98180500D01*
X52457800Y-97940800D02*
X52438700Y-98036900D01*
X52479700Y-97794400D02*
X52457800Y-97940800D01*
X52489300Y-97696900D02*
X52479700Y-97794400D01*
X52496600Y-97549000D02*
X52489300Y-97696900D01*
X52496600Y-97451000D02*
X52496600Y-97549000D01*
X52489300Y-97303200D02*
X52496600Y-97451000D01*
X52479700Y-97205600D02*
X52489300Y-97303200D01*
X52457800Y-97059200D02*
X52479700Y-97205600D01*
X52438700Y-96963100D02*
X52457800Y-97059200D01*
X52402600Y-96819600D02*
X52438700Y-96963100D01*
X52374000Y-96725800D02*
X52402600Y-96819600D01*
X52324000Y-96586500D02*
X52374000Y-96725800D01*
X52286300Y-96496000D02*
X52324000Y-96586500D01*
X52222800Y-96362300D02*
X52286300Y-96496000D01*
X52176400Y-96275900D02*
X52222800Y-96362300D01*
X52100100Y-96149100D02*
X52176400Y-96275900D01*
X52045500Y-96067800D02*
X52100100Y-96149100D01*
X51957000Y-95949100D02*
X52045500Y-96067800D01*
X51894600Y-95873500D02*
X51957000Y-95949100D01*
X51794900Y-95764100D02*
X51894600Y-95873500D01*
X51725400Y-95695000D02*
X51794900Y-95764100D01*
X51615400Y-95595900D02*
X51725400Y-95695000D01*
X51539400Y-95534000D02*
X51615400Y-95595900D01*
X51420200Y-95446200D02*
X51539400Y-95534000D01*
X51338600Y-95392000D02*
X51420200Y-95446200D01*
X51211300Y-95316400D02*
X51338600Y-95392000D01*
X51124700Y-95270600D02*
X51211300Y-95316400D01*
X50990600Y-95207900D02*
X51124700Y-95270600D01*
X50899900Y-95170800D02*
X50990600Y-95207900D01*
X50620900Y-95072000D02*
X50899900Y-95170800D01*
X50531600Y-95030200D02*
X50620900Y-95072000D01*
X50437200Y-94973100D02*
X50531600Y-95030200D01*
X50358300Y-94913500D02*
X50437200Y-94973100D01*
X50294600Y-94855800D02*
X50358300Y-94913500D01*
X50236200Y-94792100D02*
X50294600Y-94855800D01*
X50220500Y-94773000D02*
X50236200Y-94792100D01*
X50169300Y-94703900D02*
X50220500Y-94773000D01*
X50118400Y-94619500D02*
X50169300Y-94703900D01*
X50076100Y-94530400D02*
X50118400Y-94619500D01*
X50042600Y-94437200D02*
X50076100Y-94530400D01*
X50018600Y-94341600D02*
X50042600Y-94437200D01*
X50005700Y-94256700D02*
X50018600Y-94341600D01*
X50003200Y-94232100D02*
X50005700Y-94256700D01*
X49999000Y-94139800D02*
X50003200Y-94232100D01*
X49999100Y-93250100D02*
X49999000Y-94139800D01*
X50022700Y-92805400D02*
X49999100Y-93250100D01*
X50092300Y-92366000D02*
X50022700Y-92805400D01*
X50203600Y-91949100D02*
X50092300Y-92366000D01*
X50211800Y-91924100D02*
X50203600Y-91949100D01*
X50361800Y-91533300D02*
X50211800Y-91924100D01*
X50372500Y-91509300D02*
X50361800Y-91533300D01*
X50568700Y-91124900D02*
X50372500Y-91509300D01*
X50803700Y-90762400D02*
X50568700Y-91124900D01*
X50819100Y-90741100D02*
X50803700Y-90762400D01*
X51091000Y-90406000D02*
X50819100Y-90741100D01*
X51405600Y-90091300D02*
X51091000Y-90406000D01*
X51751800Y-89811000D02*
X51405600Y-90091300D01*
X52113500Y-89575700D02*
X51751800Y-89811000D01*
X52136200Y-89562600D02*
X52113500Y-89575700D01*
X52509200Y-89372500D02*
X52136200Y-89562600D01*
X52533200Y-89361800D02*
X52509200Y-89372500D01*
X52936300Y-89207500D02*
X52533200Y-89361800D01*
X53353400Y-89095300D02*
X52936300Y-89207500D01*
X53379100Y-89089900D02*
X53353400Y-89095300D01*
X53805500Y-89022700D02*
X53379100Y-89089900D01*
X54250100Y-88999100D02*
X53805500Y-89022700D01*
X80258800Y-88999000D02*
X54250100Y-88999100D01*
X80356000Y-88994200D02*
X80258800Y-88999000D01*
X80452100Y-88980000D02*
X80356000Y-88994200D01*
X80546400Y-88956400D02*
X80452100Y-88980000D01*
X80637900Y-88923700D02*
X80546400Y-88956400D01*
X80725700Y-88882100D02*
X80637900Y-88923700D01*
X80809000Y-88832200D02*
X80725700Y-88882100D01*
X80887100Y-88774300D02*
X80809000Y-88832200D01*
X80959000Y-88709000D02*
X80887100Y-88774300D01*
X81024300Y-88637100D02*
X80959000Y-88709000D01*
X81082200Y-88559000D02*
X81024300Y-88637100D01*
X81132100Y-88475700D02*
X81082200Y-88559000D01*
X81173600Y-88387900D02*
X81132100Y-88475700D01*
X81206400Y-88296400D02*
X81173600Y-88387900D01*
X81230000Y-88202200D02*
X81206400Y-88296400D01*
X81244200Y-88106100D02*
X81230000Y-88202200D01*
X81249000Y-88008800D02*
X81244200Y-88106100D01*
X81249000Y-87491300D02*
X81249000Y-88008800D01*
X81244200Y-87394000D02*
X81249000Y-87491300D01*
X81230000Y-87297900D02*
X81244200Y-87394000D01*
X81206400Y-87203600D02*
X81230000Y-87297900D01*
X81173600Y-87112200D02*
X81206400Y-87203600D01*
X81132100Y-87024300D02*
X81173600Y-87112200D01*
X81082200Y-86941000D02*
X81132100Y-87024300D01*
X81024300Y-86863000D02*
X81082200Y-86941000D01*
X80959000Y-86791000D02*
X81024300Y-86863000D01*
X80887100Y-86725700D02*
X80959000Y-86791000D01*
X80809000Y-86667900D02*
X80887100Y-86725700D01*
X80725700Y-86617900D02*
X80809000Y-86667900D01*
X80637900Y-86576400D02*
X80725700Y-86617900D01*
X80546400Y-86543600D02*
X80637900Y-86576400D01*
X80452100Y-86520000D02*
X80546400Y-86543600D01*
X80356000Y-86505800D02*
X80452100Y-86520000D01*
X80258800Y-86501000D02*
X80356000Y-86505800D01*
X54250100Y-86500900D02*
X80258800Y-86501000D01*
X53818800Y-86478400D02*
X54250100Y-86500900D01*
X53792700Y-86475700D02*
X53818800Y-86478400D01*
X53366500Y-86407800D02*
X53792700Y-86475700D01*
X52949100Y-86296400D02*
X53366500Y-86407800D01*
X52924100Y-86288300D02*
X52949100Y-86296400D01*
X52521300Y-86133300D02*
X52924100Y-86288300D01*
X52124900Y-85931300D02*
X52521300Y-86133300D01*
X51751300Y-85688700D02*
X52124900Y-85931300D01*
X51415800Y-85417400D02*
X51751300Y-85688700D01*
X51396200Y-85399800D02*
X51415800Y-85417400D01*
X51100200Y-85103800D02*
X51396200Y-85399800D01*
X51082600Y-85084300D02*
X51100200Y-85103800D01*
X50811300Y-84748700D02*
X51082600Y-85084300D01*
X50575700Y-84386600D02*
X50811300Y-84748700D01*
X50562600Y-84363800D02*
X50575700Y-84386600D01*
X50366900Y-83979100D02*
X50562600Y-84363800D01*
X50207500Y-83563800D02*
X50366900Y-83979100D01*
X50092200Y-83133500D02*
X50207500Y-83563800D01*
X50024300Y-82707400D02*
X50092200Y-83133500D01*
X50021600Y-82681500D02*
X50024300Y-82707400D01*
X49999000Y-82243600D02*
X50021600Y-82681500D01*
X49999000Y-81360300D02*
X49999000Y-82243600D01*
X50003200Y-81268000D02*
X49999000Y-81360300D01*
X50005700Y-81243400D02*
X50003200Y-81268000D01*
X50018600Y-81158400D02*
X50005700Y-81243400D01*
X50042700Y-81062800D02*
X50018600Y-81158400D01*
X50076000Y-80970000D02*
X50042700Y-81062800D01*
X50118500Y-80880500D02*
X50076000Y-80970000D01*
X50169300Y-80796100D02*
X50118500Y-80880500D01*
X50220400Y-80727000D02*
X50169300Y-80796100D01*
X50236200Y-80708000D02*
X50220400Y-80727000D01*
X50294300Y-80644600D02*
X50236200Y-80708000D01*
X50358300Y-80586500D02*
X50294300Y-80644600D01*
X50437200Y-80527000D02*
X50358300Y-80586500D01*
X50531700Y-80469800D02*
X50437200Y-80527000D01*
X50620900Y-80428000D02*
X50531700Y-80469800D01*
X50899900Y-80329300D02*
X50620900Y-80428000D01*
X50990600Y-80292200D02*
X50899900Y-80329300D01*
X51124700Y-80229500D02*
X50990600Y-80292200D01*
X51211300Y-80183600D02*
X51124700Y-80229500D01*
X51338600Y-80108000D02*
X51211300Y-80183600D01*
X51420200Y-80053900D02*
X51338600Y-80108000D01*
X51539400Y-79966100D02*
X51420200Y-80053900D01*
X51615400Y-79904200D02*
X51539400Y-79966100D01*
X51725400Y-79805100D02*
X51615400Y-79904200D01*
X51794900Y-79736000D02*
X51725400Y-79805100D01*
X51894600Y-79626600D02*
X51794900Y-79736000D01*
X51957000Y-79551000D02*
X51894600Y-79626600D01*
X52045500Y-79432300D02*
X51957000Y-79551000D01*
X52100100Y-79350900D02*
X52045500Y-79432300D01*
X52176400Y-79224100D02*
X52100100Y-79350900D01*
X52222800Y-79137800D02*
X52176400Y-79224100D01*
X52286300Y-79004100D02*
X52222800Y-79137800D01*
X52324000Y-78913600D02*
X52286300Y-79004100D01*
X52374000Y-78774200D02*
X52324000Y-78913600D01*
X52402600Y-78680500D02*
X52374000Y-78774200D01*
X52438700Y-78536900D02*
X52402600Y-78680500D01*
X52457800Y-78440800D02*
X52438700Y-78536900D01*
X52479700Y-78294400D02*
X52457800Y-78440800D01*
X52489300Y-78196900D02*
X52479700Y-78294400D01*
X52496600Y-78049000D02*
X52489300Y-78196900D01*
X52496600Y-77951000D02*
X52496600Y-78049000D01*
X52489300Y-77803200D02*
X52496600Y-77951000D01*
X52479700Y-77705600D02*
X52489300Y-77803200D01*
X52457800Y-77559200D02*
X52479700Y-77705600D01*
X52438700Y-77463100D02*
X52457800Y-77559200D01*
X52402600Y-77319500D02*
X52438700Y-77463100D01*
X52374000Y-77225800D02*
X52402600Y-77319500D01*
X52324000Y-77086500D02*
X52374000Y-77225800D01*
X52286300Y-76996000D02*
X52324000Y-77086500D01*
X52222800Y-76862300D02*
X52286300Y-76996000D01*
X52176400Y-76775900D02*
X52222800Y-76862300D01*
X52100100Y-76649100D02*
X52176400Y-76775900D01*
X52045500Y-76567700D02*
X52100100Y-76649100D01*
X51957000Y-76449000D02*
X52045500Y-76567700D01*
X51894600Y-76373400D02*
X51957000Y-76449000D01*
X51794900Y-76264000D02*
X51894600Y-76373400D01*
X51725400Y-76194900D02*
X51794900Y-76264000D01*
X51615400Y-76095900D02*
X51725400Y-76194900D01*
X51539400Y-76033900D02*
X51615400Y-76095900D01*
X51420200Y-75946200D02*
X51539400Y-76033900D01*
X51338600Y-75892000D02*
X51420200Y-75946200D01*
X51211300Y-75816400D02*
X51338600Y-75892000D01*
X51124700Y-75770600D02*
X51211300Y-75816400D01*
X50990600Y-75707800D02*
X51124700Y-75770600D01*
X50899900Y-75670700D02*
X50990600Y-75707800D01*
X50632700Y-75576500D02*
X50899900Y-75670700D01*
X50609800Y-75567200D02*
X50632700Y-75576500D01*
X50532000Y-75530400D02*
X50609800Y-75567200D01*
X50457600Y-75486600D02*
X50532000Y-75530400D01*
X50437000Y-75472900D02*
X50457600Y-75486600D01*
X50367500Y-75421400D02*
X50437000Y-75472900D01*
X50294600Y-75355700D02*
X50367500Y-75421400D01*
X50228200Y-75282900D02*
X50294600Y-75355700D01*
X50169300Y-75203900D02*
X50228200Y-75282900D01*
X50124500Y-75130000D02*
X50169300Y-75203900D01*
X50112800Y-75108200D02*
X50124500Y-75130000D01*
X50071600Y-75018700D02*
X50112800Y-75108200D01*
X50042600Y-74937200D02*
X50071600Y-75018700D01*
X50018600Y-74841600D02*
X50042600Y-74937200D01*
X50004200Y-74744600D02*
X50018600Y-74841600D01*
X49999100Y-74645800D02*
X50004200Y-74744600D01*
X49999000Y-73756600D02*
X49999100Y-74645800D01*
X50021600Y-73318600D02*
X49999000Y-73756600D01*
X50024300Y-73292700D02*
X50021600Y-73318600D01*
X50092200Y-72866500D02*
X50024300Y-73292700D01*
X50203600Y-72449100D02*
X50092200Y-72866500D01*
X50211800Y-72424100D02*
X50203600Y-72449100D01*
X50366700Y-72021300D02*
X50211800Y-72424100D01*
X50568700Y-71624900D02*
X50366700Y-72021300D01*
X50811000Y-71251700D02*
X50568700Y-71624900D01*
X51091000Y-70906000D02*
X50811000Y-71251700D01*
X51405600Y-70591300D02*
X51091000Y-70906000D01*
X51751300Y-70311300D02*
X51405600Y-70591300D01*
X52124500Y-70069000D02*
X51751300Y-70311300D01*
X52520900Y-69866900D02*
X52124500Y-70069000D01*
X52936300Y-69707500D02*
X52520900Y-69866900D01*
X53366000Y-69592300D02*
X52936300Y-69707500D01*
X53805500Y-69522700D02*
X53366000Y-69592300D01*
X54243400Y-69499400D02*
X53805500Y-69522700D01*
X80258800Y-69499000D02*
X54243400Y-69499400D01*
X80356000Y-69494200D02*
X80258800Y-69499000D01*
X80452100Y-69480000D02*
X80356000Y-69494200D01*
X80546400Y-69456400D02*
X80452100Y-69480000D01*
X80637900Y-69423600D02*
X80546400Y-69456400D01*
X80725700Y-69382100D02*
X80637900Y-69423600D01*
X80809000Y-69332200D02*
X80725700Y-69382100D01*
X80887100Y-69274300D02*
X80809000Y-69332200D01*
X80959000Y-69209000D02*
X80887100Y-69274300D01*
X81024300Y-69137100D02*
X80959000Y-69209000D01*
X81082200Y-69059000D02*
X81024300Y-69137100D01*
X81132100Y-68975700D02*
X81082200Y-69059000D01*
X81173600Y-68887900D02*
X81132100Y-68975700D01*
X81206400Y-68796400D02*
X81173600Y-68887900D01*
X81230000Y-68702100D02*
X81206400Y-68796400D01*
X81244200Y-68606000D02*
X81230000Y-68702100D01*
X81249000Y-68508800D02*
X81244200Y-68606000D01*
X81249000Y-67991200D02*
X81249000Y-68508800D01*
X81244200Y-67894000D02*
X81249000Y-67991200D01*
X81230000Y-67797900D02*
X81244200Y-67894000D01*
X81206400Y-67703600D02*
X81230000Y-67797900D01*
X81173600Y-67612100D02*
X81206400Y-67703600D01*
X81132100Y-67524300D02*
X81173600Y-67612100D01*
X81082200Y-67441000D02*
X81132100Y-67524300D01*
X81024300Y-67363000D02*
X81082200Y-67441000D01*
X80959000Y-67291000D02*
X81024300Y-67363000D01*
X80887100Y-67225700D02*
X80959000Y-67291000D01*
X80809000Y-67167900D02*
X80887100Y-67225700D01*
X80725700Y-67117900D02*
X80809000Y-67167900D01*
X80637900Y-67076400D02*
X80725700Y-67117900D01*
X80546400Y-67043600D02*
X80637900Y-67076400D01*
X80452100Y-67020000D02*
X80546400Y-67043600D01*
X80356000Y-67005800D02*
X80452100Y-67020000D01*
X80258800Y-67001000D02*
X80356000Y-67005800D01*
X54250100Y-67000900D02*
X80258800Y-67001000D01*
X53805400Y-66977300D02*
X54250100Y-67000900D01*
X53366000Y-66907700D02*
X53805400Y-66977300D01*
X52936200Y-66792500D02*
X53366000Y-66907700D01*
X52533300Y-66638200D02*
X52936200Y-66792500D01*
X52509300Y-66627500D02*
X52533300Y-66638200D01*
X52136200Y-66437500D02*
X52509300Y-66627500D01*
X52113500Y-66424300D02*
X52136200Y-66437500D01*
X51751700Y-66189000D02*
X52113500Y-66424300D01*
X51415800Y-65917400D02*
X51751700Y-66189000D01*
X51396200Y-65899800D02*
X51415800Y-65917400D01*
X51091300Y-65594400D02*
X51396200Y-65899800D01*
X50811300Y-65248700D02*
X51091300Y-65594400D01*
X50568700Y-64875100D02*
X50811300Y-65248700D01*
X50372500Y-64490800D02*
X50568700Y-64875100D01*
X50361800Y-64466800D02*
X50372500Y-64490800D01*
X50211800Y-64075900D02*
X50361800Y-64466800D01*
X50203700Y-64050900D02*
X50211800Y-64075900D01*
X50092300Y-63634000D02*
X50203700Y-64050900D01*
X50024300Y-63207400D02*
X50092300Y-63634000D01*
X50021600Y-63181200D02*
X50024300Y-63207400D01*
X49999100Y-62749900D02*
X50021600Y-63181200D01*
X49999000Y-61860300D02*
X49999100Y-62749900D01*
X50003200Y-61768000D02*
X49999000Y-61860300D01*
X50005700Y-61743400D02*
X50003200Y-61768000D01*
X50018600Y-61658400D02*
X50005700Y-61743400D01*
X50042700Y-61562800D02*
X50018600Y-61658400D01*
X50076000Y-61470000D02*
X50042700Y-61562800D01*
X50118200Y-61381000D02*
X50076000Y-61470000D01*
X50169300Y-61296100D02*
X50118200Y-61381000D01*
X50220400Y-61227000D02*
X50169300Y-61296100D01*
X50236200Y-61207900D02*
X50220400Y-61227000D01*
X50294300Y-61144600D02*
X50236200Y-61207900D01*
X50358300Y-61086500D02*
X50294300Y-61144600D01*
X50437200Y-61027000D02*
X50358300Y-61086500D01*
X50531700Y-60969800D02*
X50437200Y-61027000D01*
X50620900Y-60928000D02*
X50531700Y-60969800D01*
X50899900Y-60829300D02*
X50620900Y-60928000D01*
X50990600Y-60792200D02*
X50899900Y-60829300D01*
X51124700Y-60729500D02*
X50990600Y-60792200D01*
X51211300Y-60683600D02*
X51124700Y-60729500D01*
X51338600Y-60608000D02*
X51211300Y-60683600D01*
X51420200Y-60553800D02*
X51338600Y-60608000D01*
X51539400Y-60466100D02*
X51420200Y-60553800D01*
X51615400Y-60404100D02*
X51539400Y-60466100D01*
X51725400Y-60305100D02*
X51615400Y-60404100D01*
X51794900Y-60236000D02*
X51725400Y-60305100D01*
X51894600Y-60126600D02*
X51794900Y-60236000D01*
X51957000Y-60051000D02*
X51894600Y-60126600D01*
X52045500Y-59932300D02*
X51957000Y-60051000D01*
X52100100Y-59850900D02*
X52045500Y-59932300D01*
X52176400Y-59724100D02*
X52100100Y-59850900D01*
X52222800Y-59637700D02*
X52176400Y-59724100D01*
X52286300Y-59504000D02*
X52222800Y-59637700D01*
X52324000Y-59413500D02*
X52286300Y-59504000D01*
X52374000Y-59274200D02*
X52324000Y-59413500D01*
X52402600Y-59180500D02*
X52374000Y-59274200D01*
X52438700Y-59036900D02*
X52402600Y-59180500D01*
X52457800Y-58940800D02*
X52438700Y-59036900D01*
X52479700Y-58794400D02*
X52457800Y-58940800D01*
X52489300Y-58696900D02*
X52479700Y-58794400D01*
X52496600Y-58549000D02*
X52489300Y-58696900D01*
X52496600Y-58451000D02*
X52496600Y-58549000D01*
X52489300Y-58303100D02*
X52496600Y-58451000D01*
X52479700Y-58205600D02*
X52489300Y-58303100D01*
X52457800Y-58059200D02*
X52479700Y-58205600D01*
X52438700Y-57963100D02*
X52457800Y-58059200D01*
X52402600Y-57819500D02*
X52438700Y-57963100D01*
X52374000Y-57725800D02*
X52402600Y-57819500D01*
X52324000Y-57586500D02*
X52374000Y-57725800D01*
X52286300Y-57496000D02*
X52324000Y-57586500D01*
X52222800Y-57362300D02*
X52286300Y-57496000D01*
X52176400Y-57275900D02*
X52222800Y-57362300D01*
X52100100Y-57149100D02*
X52176400Y-57275900D01*
X52045500Y-57067700D02*
X52100100Y-57149100D01*
X51957000Y-56949000D02*
X52045500Y-57067700D01*
X51894600Y-56873400D02*
X51957000Y-56949000D01*
X51794900Y-56764000D02*
X51894600Y-56873400D01*
X51725400Y-56694900D02*
X51794900Y-56764000D01*
X51615400Y-56595900D02*
X51725400Y-56694900D01*
X51539400Y-56533900D02*
X51615400Y-56595900D01*
X51420200Y-56446200D02*
X51539400Y-56533900D01*
X51338600Y-56392000D02*
X51420200Y-56446200D01*
X51211300Y-56316400D02*
X51338600Y-56392000D01*
X51124700Y-56270600D02*
X51211300Y-56316400D01*
X50990600Y-56207800D02*
X51124700Y-56270600D01*
X50899900Y-56170700D02*
X50990600Y-56207800D01*
X50621300Y-56072200D02*
X50899900Y-56170700D01*
X50542700Y-56035700D02*
X50621300Y-56072200D01*
X50447300Y-55980100D02*
X50542700Y-56035700D01*
X50367900Y-55921700D02*
X50447300Y-55980100D01*
X50303500Y-55864100D02*
X50367900Y-55921700D01*
X50285900Y-55846600D02*
X50303500Y-55864100D01*
X50227900Y-55782500D02*
X50285900Y-55846600D01*
X50169300Y-55703900D02*
X50227900Y-55782500D01*
X50124500Y-55630000D02*
X50169300Y-55703900D01*
X50112800Y-55608200D02*
X50124500Y-55630000D01*
X50076100Y-55530400D02*
X50112800Y-55608200D01*
X50046600Y-55449200D02*
X50076100Y-55530400D01*
X50039400Y-55425500D02*
X50046600Y-55449200D01*
X50016600Y-55329700D02*
X50039400Y-55425500D01*
X50004100Y-55244100D02*
X50016600Y-55329700D01*
X49999100Y-55145800D02*
X50004100Y-55244100D01*
X49999100Y-54250100D02*
X49999100Y-55145800D01*
X50022700Y-53805400D02*
X49999100Y-54250100D01*
X50092200Y-53366500D02*
X50022700Y-53805400D01*
X50203600Y-52949100D02*
X50092200Y-53366500D01*
X50211800Y-52924100D02*
X50203600Y-52949100D01*
X50366700Y-52521300D02*
X50211800Y-52924100D01*
X50569000Y-52124400D02*
X50366700Y-52521300D01*
X50803700Y-51762400D02*
X50569000Y-52124400D01*
X50819100Y-51741100D02*
X50803700Y-51762400D01*
X51091000Y-51405900D02*
X50819100Y-51741100D01*
X51396200Y-51100200D02*
X51091000Y-51405900D01*
X51415700Y-51082600D02*
X51396200Y-51100200D01*
X51751300Y-50811300D02*
X51415700Y-51082600D01*
X52124900Y-50568700D02*
X51751300Y-50811300D01*
X52509200Y-50372500D02*
X52124900Y-50568700D01*
X52533200Y-50361800D02*
X52509200Y-50372500D01*
X52936300Y-50207500D02*
X52533200Y-50361800D01*
X53353400Y-50095300D02*
X52936300Y-50207500D01*
X53379100Y-50089800D02*
X53353400Y-50095300D01*
X53792900Y-50024300D02*
X53379100Y-50089800D01*
X53818800Y-50021600D02*
X53792900Y-50024300D01*
X54256500Y-49999000D02*
X53818800Y-50021600D01*
X80258800Y-49999000D02*
X54256500Y-49999000D01*
X80356000Y-49994200D02*
X80258800Y-49999000D01*
X80452100Y-49980000D02*
X80356000Y-49994200D01*
X80546400Y-49956400D02*
X80452100Y-49980000D01*
X80637900Y-49923600D02*
X80546400Y-49956400D01*
X80725700Y-49882100D02*
X80637900Y-49923600D01*
X80809000Y-49832100D02*
X80725700Y-49882100D01*
X80887100Y-49774300D02*
X80809000Y-49832100D01*
X80959000Y-49709000D02*
X80887100Y-49774300D01*
X81024300Y-49637000D02*
X80959000Y-49709000D01*
X81082200Y-49559000D02*
X81024300Y-49637000D01*
X81132100Y-49475700D02*
X81082200Y-49559000D01*
X81173600Y-49387900D02*
X81132100Y-49475700D01*
X81206400Y-49296400D02*
X81173600Y-49387900D01*
X81230000Y-49202100D02*
X81206400Y-49296400D01*
X81244200Y-49106000D02*
X81230000Y-49202100D01*
X81249000Y-49008800D02*
X81244200Y-49106000D01*
X81249000Y-48490200D02*
X81249000Y-49008800D01*
X81244200Y-48393000D02*
X81249000Y-48490200D01*
X81230000Y-48296900D02*
X81244200Y-48393000D01*
X81206400Y-48202600D02*
X81230000Y-48296900D01*
X81173600Y-48111100D02*
X81206400Y-48202600D01*
X81132100Y-48023300D02*
X81173600Y-48111100D01*
X81082200Y-47940000D02*
X81132100Y-48023300D01*
X81024300Y-47862000D02*
X81082200Y-47940000D01*
X80959000Y-47790000D02*
X81024300Y-47862000D01*
X80887100Y-47724700D02*
X80959000Y-47790000D01*
X80809000Y-47666900D02*
X80887100Y-47724700D01*
X80725700Y-47616900D02*
X80809000Y-47666900D01*
X80637900Y-47575400D02*
X80725700Y-47616900D01*
X80546400Y-47542600D02*
X80637900Y-47575400D01*
X80452100Y-47519000D02*
X80546400Y-47542600D01*
X80356000Y-47504800D02*
X80452100Y-47519000D01*
X80258800Y-47500000D02*
X80356000Y-47504800D01*
X50008200Y-47499200D02*
X80258800Y-47500000D01*
X50003700Y-47497400D02*
X50008200Y-47499200D01*
X50000300Y-47492700D02*
X50003700Y-47497400D01*
X49999000Y-47475500D02*
X50000300Y-47492700D01*
X49999000Y-43523500D02*
X49999000Y-47475500D01*
X50000600Y-43505400D02*
X49999000Y-43523500D01*
X50003700Y-43501600D02*
X50000600Y-43505400D01*
X50009200Y-43499700D02*
X50003700Y-43501600D01*
D11*
G04 #@! TO.C,REF\002A\002A*
X59999000Y-130001068D03*
G04 #@! TD*
G04 #@! TO.C,REF\002A\002A*
X122501001Y-45499000D03*
G04 #@! TD*
G04 #@! TO.C,REF\002A\002A*
X59999000Y-45499000D03*
G04 #@! TD*
D12*
G04 #@! TO.C,IC1*
X71750001Y-117000052D03*
G04 #@! TD*
G04 #@! TO.C,IC2*
X110750001Y-117000052D03*
G04 #@! TD*
G04 #@! TO.C,OC1*
X79750001Y-117000052D03*
G04 #@! TD*
G04 #@! TO.C,OC2*
X102750001Y-117000052D03*
G04 #@! TD*
D13*
G04 #@! TO.C,GND*
X54750001Y-117000052D03*
G04 #@! TD*
G04 #@! TO.C,GND*
X127750001Y-117000052D03*
G04 #@! TD*
D12*
G04 #@! TO.C,IC1*
X71750001Y-97500035D03*
G04 #@! TD*
G04 #@! TO.C,IC2*
X110750001Y-97500035D03*
G04 #@! TD*
G04 #@! TO.C,OC1*
X79750001Y-97500035D03*
G04 #@! TD*
G04 #@! TO.C,OC2*
X102750001Y-97500035D03*
G04 #@! TD*
D13*
G04 #@! TO.C,GND*
X54750001Y-97500035D03*
G04 #@! TD*
G04 #@! TO.C,GND*
X127750001Y-97500035D03*
G04 #@! TD*
D12*
G04 #@! TO.C,IC1*
X71750001Y-78000018D03*
G04 #@! TD*
G04 #@! TO.C,IC2*
X110750001Y-78000018D03*
G04 #@! TD*
G04 #@! TO.C,OC1*
X79750001Y-78000018D03*
G04 #@! TD*
G04 #@! TO.C,OC2*
X102750001Y-78000018D03*
G04 #@! TD*
D13*
G04 #@! TO.C,GND*
X54750001Y-78000018D03*
G04 #@! TD*
G04 #@! TO.C,GND*
X127750001Y-78000018D03*
G04 #@! TD*
D12*
G04 #@! TO.C,IC1*
X71750001Y-58500001D03*
G04 #@! TD*
G04 #@! TO.C,IC2*
X110750001Y-58500001D03*
G04 #@! TD*
G04 #@! TO.C,OC1*
X79750001Y-58500001D03*
G04 #@! TD*
G04 #@! TO.C,OC2*
X102750001Y-58500001D03*
G04 #@! TD*
D13*
G04 #@! TO.C,GND*
X54750001Y-58500001D03*
G04 #@! TD*
G04 #@! TO.C,GND*
X127750001Y-58500001D03*
G04 #@! TD*
M02*
