G04 #@! TF.GenerationSoftware,KiCad,Pcbnew,5.1.5+dfsg1-2build2*
G04 #@! TF.CreationDate,2021-10-10T04:01:31+00:00*
G04 #@! TF.ProjectId,base_3.5,62617365-5f33-42e3-952e-6b696361645f,rev?*
G04 #@! TF.SameCoordinates,Original*
G04 #@! TF.FileFunction,Legend,Bot*
G04 #@! TF.FilePolarity,Positive*
%FSLAX46Y46*%
G04 Gerber Fmt 4.6, Leading zero omitted, Abs format (unit mm)*
G04 Created by KiCad (PCBNEW 5.1.5+dfsg1-2build2) date 2021-10-10 04:01:31*
%MOMM*%
%LPD*%
G04 APERTURE LIST*
G04 #@! TA.AperFunction,Profile*
%ADD10C,0.100000*%
G04 #@! TD*
%ADD11C,0.150000*%
%ADD12C,0.010000*%
G04 APERTURE END LIST*
D10*
X126499900Y-102715900D02*
X126401100Y-102736200D01*
X126596400Y-102685700D02*
X126499900Y-102715900D01*
X126689300Y-102645900D02*
X126596400Y-102685700D01*
X126777600Y-102596800D02*
X126689300Y-102645900D01*
X126860800Y-102538900D02*
X126777600Y-102596800D01*
X126937500Y-102473100D02*
X126860800Y-102538900D01*
X127007100Y-102399800D02*
X126937500Y-102473100D01*
X127069000Y-102319900D02*
X127007100Y-102399800D01*
X127122400Y-102234100D02*
X127069000Y-102319900D01*
X127166900Y-102143400D02*
X127122400Y-102234100D01*
X127202000Y-102048600D02*
X127166900Y-102143400D01*
X127227300Y-101950700D02*
X127202000Y-102048600D01*
X127242600Y-101850800D02*
X127227300Y-101950700D01*
X127247700Y-101749900D02*
X127242600Y-101850800D01*
X127242600Y-101649200D02*
X127247700Y-101749900D01*
X127227300Y-101549300D02*
X127242600Y-101649200D01*
X127202000Y-101451500D02*
X127227300Y-101549300D01*
X127166900Y-101356700D02*
X127202000Y-101451500D01*
X127122400Y-101266000D02*
X127166900Y-101356700D01*
X127069000Y-101180200D02*
X127122400Y-101266000D01*
X127007100Y-101100300D02*
X127069000Y-101180200D01*
X126937300Y-101026800D02*
X127007100Y-101100300D01*
X126860600Y-100961000D02*
X126937300Y-101026800D01*
X126777600Y-100903300D02*
X126860600Y-100961000D01*
X126689300Y-100854200D02*
X126777600Y-100903300D01*
X126596600Y-100814500D02*
X126689300Y-100854200D01*
X126500200Y-100784200D02*
X126596600Y-100814500D01*
X126401200Y-100763800D02*
X126500200Y-100784200D01*
X126300700Y-100753600D02*
X126401200Y-100763800D01*
X126224800Y-100751000D02*
X126300700Y-100753600D01*
X56275400Y-100751000D02*
X126224800Y-100751000D01*
X56199200Y-100753600D02*
X56275400Y-100751000D01*
X56098800Y-100763800D02*
X56199200Y-100753600D01*
X55999800Y-100784200D02*
X56098800Y-100763800D01*
X55903400Y-100814500D02*
X55999800Y-100784200D01*
X55810500Y-100854300D02*
X55903400Y-100814500D01*
X55722100Y-100903400D02*
X55810500Y-100854300D01*
X55639200Y-100961100D02*
X55722100Y-100903400D01*
X55562500Y-101027000D02*
X55639200Y-100961100D01*
X55492900Y-101100300D02*
X55562500Y-101027000D01*
X55431000Y-101180200D02*
X55492900Y-101100300D01*
X55377600Y-101266000D02*
X55431000Y-101180200D01*
X55333100Y-101356700D02*
X55377600Y-101266000D01*
X55298100Y-101451200D02*
X55333100Y-101356700D01*
X55272700Y-101549100D02*
X55298100Y-101451200D01*
X55257400Y-101649000D02*
X55272700Y-101549100D01*
X55252300Y-101749900D02*
X55257400Y-101649000D01*
X55257400Y-101850800D02*
X55252300Y-101749900D01*
X55272700Y-101950700D02*
X55257400Y-101850800D01*
X55298000Y-102048600D02*
X55272700Y-101950700D01*
X55333100Y-102143400D02*
X55298000Y-102048600D01*
X55377600Y-102234100D02*
X55333100Y-102143400D01*
X55431000Y-102319900D02*
X55377600Y-102234100D01*
X55492900Y-102399800D02*
X55431000Y-102319900D01*
X55562500Y-102473100D02*
X55492900Y-102399800D01*
X55639200Y-102538900D02*
X55562500Y-102473100D01*
X55722100Y-102596700D02*
X55639200Y-102538900D01*
X55810500Y-102645700D02*
X55722100Y-102596700D01*
X55903400Y-102685600D02*
X55810500Y-102645700D01*
X55999800Y-102715900D02*
X55903400Y-102685600D01*
X56098800Y-102736200D02*
X55999800Y-102715900D01*
X56199300Y-102746500D02*
X56098800Y-102736200D01*
X56275200Y-102749000D02*
X56199300Y-102746500D01*
X126224900Y-102749000D02*
X56275200Y-102749000D01*
X126300500Y-102746500D02*
X126224900Y-102749000D01*
X126401100Y-102736200D02*
X126300500Y-102746500D01*
X126499900Y-94215900D02*
X126401100Y-94236200D01*
X126596400Y-94185700D02*
X126499900Y-94215900D01*
X126689300Y-94145900D02*
X126596400Y-94185700D01*
X126777600Y-94096800D02*
X126689300Y-94145900D01*
X126860800Y-94038900D02*
X126777600Y-94096800D01*
X126937500Y-93973100D02*
X126860800Y-94038900D01*
X127007100Y-93899800D02*
X126937500Y-93973100D01*
X127069000Y-93819900D02*
X127007100Y-93899800D01*
X127122400Y-93734100D02*
X127069000Y-93819900D01*
X127166900Y-93643400D02*
X127122400Y-93734100D01*
X127202000Y-93548600D02*
X127166900Y-93643400D01*
X127227300Y-93450700D02*
X127202000Y-93548600D01*
X127242600Y-93350800D02*
X127227300Y-93450700D01*
X127247700Y-93249900D02*
X127242600Y-93350800D01*
X127242600Y-93149200D02*
X127247700Y-93249900D01*
X127227300Y-93049300D02*
X127242600Y-93149200D01*
X127202000Y-92951500D02*
X127227300Y-93049300D01*
X127166900Y-92856700D02*
X127202000Y-92951500D01*
X127122400Y-92766000D02*
X127166900Y-92856700D01*
X127069000Y-92680200D02*
X127122400Y-92766000D01*
X127007100Y-92600300D02*
X127069000Y-92680200D01*
X126937300Y-92526800D02*
X127007100Y-92600300D01*
X126860600Y-92461000D02*
X126937300Y-92526800D01*
X126777600Y-92403300D02*
X126860600Y-92461000D01*
X126689300Y-92354200D02*
X126777600Y-92403300D01*
X126596600Y-92314500D02*
X126689300Y-92354200D01*
X126500200Y-92284200D02*
X126596600Y-92314500D01*
X126401200Y-92263800D02*
X126500200Y-92284200D01*
X126300700Y-92253600D02*
X126401200Y-92263800D01*
X126224800Y-92251000D02*
X126300700Y-92253600D01*
X56275400Y-92251000D02*
X126224800Y-92251000D01*
X56199200Y-92253600D02*
X56275400Y-92251000D01*
X56098800Y-92263800D02*
X56199200Y-92253600D01*
X55999800Y-92284200D02*
X56098800Y-92263800D01*
X55903400Y-92314500D02*
X55999800Y-92284200D01*
X55810500Y-92354300D02*
X55903400Y-92314500D01*
X55722100Y-92403400D02*
X55810500Y-92354300D01*
X55639200Y-92461100D02*
X55722100Y-92403400D01*
X55562500Y-92527000D02*
X55639200Y-92461100D01*
X55492900Y-92600300D02*
X55562500Y-92527000D01*
X55431000Y-92680200D02*
X55492900Y-92600300D01*
X55377600Y-92766000D02*
X55431000Y-92680200D01*
X55333100Y-92856700D02*
X55377600Y-92766000D01*
X55298100Y-92951200D02*
X55333100Y-92856700D01*
X55272700Y-93049100D02*
X55298100Y-92951200D01*
X55257400Y-93149000D02*
X55272700Y-93049100D01*
X55252300Y-93249900D02*
X55257400Y-93149000D01*
X55257400Y-93350800D02*
X55252300Y-93249900D01*
X55272700Y-93450700D02*
X55257400Y-93350800D01*
X55298000Y-93548600D02*
X55272700Y-93450700D01*
X55333100Y-93643400D02*
X55298000Y-93548600D01*
X55377600Y-93734100D02*
X55333100Y-93643400D01*
X55431000Y-93819900D02*
X55377600Y-93734100D01*
X55492900Y-93899800D02*
X55431000Y-93819900D01*
X55562500Y-93973100D02*
X55492900Y-93899800D01*
X55639200Y-94038900D02*
X55562500Y-93973100D01*
X55722100Y-94096700D02*
X55639200Y-94038900D01*
X55810500Y-94145700D02*
X55722100Y-94096700D01*
X55903400Y-94185600D02*
X55810500Y-94145700D01*
X55999800Y-94215900D02*
X55903400Y-94185600D01*
X56098800Y-94236200D02*
X55999800Y-94215900D01*
X56199300Y-94246500D02*
X56098800Y-94236200D01*
X56275200Y-94249000D02*
X56199300Y-94246500D01*
X126224900Y-94249000D02*
X56275200Y-94249000D01*
X126300500Y-94246500D02*
X126224900Y-94249000D01*
X126401100Y-94236200D02*
X126300500Y-94246500D01*
X126499900Y-83215900D02*
X126401000Y-83236200D01*
X126596400Y-83185700D02*
X126499900Y-83215900D01*
X126689300Y-83145800D02*
X126596400Y-83185700D01*
X126777600Y-83096800D02*
X126689300Y-83145800D01*
X126860800Y-83038900D02*
X126777600Y-83096800D01*
X126937500Y-82973100D02*
X126860800Y-83038900D01*
X127007100Y-82899800D02*
X126937500Y-82973100D01*
X127069000Y-82819900D02*
X127007100Y-82899800D01*
X127122400Y-82734100D02*
X127069000Y-82819900D01*
X127166900Y-82643300D02*
X127122400Y-82734100D01*
X127202000Y-82548600D02*
X127166900Y-82643300D01*
X127227300Y-82450700D02*
X127202000Y-82548600D01*
X127242600Y-82350800D02*
X127227300Y-82450700D01*
X127247700Y-82249900D02*
X127242600Y-82350800D01*
X127242600Y-82149200D02*
X127247700Y-82249900D01*
X127227300Y-82049300D02*
X127242600Y-82149200D01*
X127202000Y-81951500D02*
X127227300Y-82049300D01*
X127166900Y-81856700D02*
X127202000Y-81951500D01*
X127122400Y-81765900D02*
X127166900Y-81856700D01*
X127069000Y-81680200D02*
X127122400Y-81765900D01*
X127007100Y-81600200D02*
X127069000Y-81680200D01*
X126937300Y-81526800D02*
X127007100Y-81600200D01*
X126860600Y-81461000D02*
X126937300Y-81526800D01*
X126777600Y-81403200D02*
X126860600Y-81461000D01*
X126689300Y-81354200D02*
X126777600Y-81403200D01*
X126596600Y-81314500D02*
X126689300Y-81354200D01*
X126500200Y-81284200D02*
X126596600Y-81314500D01*
X126401200Y-81263800D02*
X126500200Y-81284200D01*
X126300700Y-81253600D02*
X126401200Y-81263800D01*
X126224800Y-81251000D02*
X126300700Y-81253600D01*
X56275300Y-81251000D02*
X126224800Y-81251000D01*
X56199200Y-81253600D02*
X56275300Y-81251000D01*
X56098800Y-81263800D02*
X56199200Y-81253600D01*
X55999800Y-81284200D02*
X56098800Y-81263800D01*
X55903400Y-81314500D02*
X55999800Y-81284200D01*
X55810500Y-81354300D02*
X55903400Y-81314500D01*
X55722100Y-81403400D02*
X55810500Y-81354300D01*
X55639200Y-81461100D02*
X55722100Y-81403400D01*
X55562500Y-81527000D02*
X55639200Y-81461100D01*
X55492900Y-81600200D02*
X55562500Y-81527000D01*
X55431000Y-81680200D02*
X55492900Y-81600200D01*
X55377600Y-81765900D02*
X55431000Y-81680200D01*
X55333100Y-81856700D02*
X55377600Y-81765900D01*
X55298100Y-81951200D02*
X55333100Y-81856700D01*
X55272700Y-82049000D02*
X55298100Y-81951200D01*
X55257400Y-82148900D02*
X55272700Y-82049000D01*
X55252300Y-82249900D02*
X55257400Y-82148900D01*
X55257400Y-82350800D02*
X55252300Y-82249900D01*
X55272700Y-82450700D02*
X55257400Y-82350800D01*
X55298000Y-82548600D02*
X55272700Y-82450700D01*
X55333100Y-82643300D02*
X55298000Y-82548600D01*
X55377600Y-82734100D02*
X55333100Y-82643300D01*
X55431000Y-82819900D02*
X55377600Y-82734100D01*
X55492900Y-82899800D02*
X55431000Y-82819900D01*
X55562500Y-82973100D02*
X55492900Y-82899800D01*
X55639200Y-83038900D02*
X55562500Y-82973100D01*
X55722100Y-83096700D02*
X55639200Y-83038900D01*
X55810500Y-83145700D02*
X55722100Y-83096700D01*
X55903400Y-83185600D02*
X55810500Y-83145700D01*
X55999800Y-83215800D02*
X55903400Y-83185600D01*
X56098800Y-83236200D02*
X55999800Y-83215800D01*
X56199300Y-83246400D02*
X56098800Y-83236200D01*
X56275200Y-83249000D02*
X56199300Y-83246400D01*
X126224800Y-83249000D02*
X56275200Y-83249000D01*
X126300600Y-83246400D02*
X126224800Y-83249000D01*
X126401000Y-83236200D02*
X126300600Y-83246400D01*
X126499900Y-74715900D02*
X126401000Y-74736200D01*
X126596400Y-74685700D02*
X126499900Y-74715900D01*
X126689300Y-74645800D02*
X126596400Y-74685700D01*
X126777600Y-74596800D02*
X126689300Y-74645800D01*
X126860800Y-74538900D02*
X126777600Y-74596800D01*
X126937500Y-74473100D02*
X126860800Y-74538900D01*
X127007100Y-74399800D02*
X126937500Y-74473100D01*
X127069000Y-74319900D02*
X127007100Y-74399800D01*
X127122400Y-74234100D02*
X127069000Y-74319900D01*
X127166900Y-74143300D02*
X127122400Y-74234100D01*
X127202000Y-74048600D02*
X127166900Y-74143300D01*
X127227300Y-73950700D02*
X127202000Y-74048600D01*
X127242600Y-73850800D02*
X127227300Y-73950700D01*
X127247700Y-73749900D02*
X127242600Y-73850800D01*
X127242600Y-73649200D02*
X127247700Y-73749900D01*
X127227300Y-73549300D02*
X127242600Y-73649200D01*
X127202000Y-73451500D02*
X127227300Y-73549300D01*
X127166900Y-73356700D02*
X127202000Y-73451500D01*
X127122400Y-73265900D02*
X127166900Y-73356700D01*
X127069000Y-73180200D02*
X127122400Y-73265900D01*
X127007100Y-73100200D02*
X127069000Y-73180200D01*
X126937300Y-73026800D02*
X127007100Y-73100200D01*
X126860600Y-72961000D02*
X126937300Y-73026800D01*
X126777600Y-72903200D02*
X126860600Y-72961000D01*
X126689300Y-72854200D02*
X126777600Y-72903200D01*
X126596600Y-72814500D02*
X126689300Y-72854200D01*
X126500200Y-72784200D02*
X126596600Y-72814500D01*
X126401200Y-72763800D02*
X126500200Y-72784200D01*
X126300700Y-72753600D02*
X126401200Y-72763800D01*
X126224800Y-72751000D02*
X126300700Y-72753600D01*
X56275300Y-72751000D02*
X126224800Y-72751000D01*
X56199200Y-72753600D02*
X56275300Y-72751000D01*
X56098800Y-72763800D02*
X56199200Y-72753600D01*
X55999800Y-72784200D02*
X56098800Y-72763800D01*
X55903400Y-72814500D02*
X55999800Y-72784200D01*
X55810500Y-72854300D02*
X55903400Y-72814500D01*
X55722100Y-72903400D02*
X55810500Y-72854300D01*
X55639200Y-72961100D02*
X55722100Y-72903400D01*
X55562500Y-73027000D02*
X55639200Y-72961100D01*
X55492900Y-73100200D02*
X55562500Y-73027000D01*
X55431000Y-73180200D02*
X55492900Y-73100200D01*
X55377600Y-73265900D02*
X55431000Y-73180200D01*
X55333100Y-73356700D02*
X55377600Y-73265900D01*
X55298100Y-73451200D02*
X55333100Y-73356700D01*
X55272700Y-73549000D02*
X55298100Y-73451200D01*
X55257400Y-73648900D02*
X55272700Y-73549000D01*
X55252300Y-73749900D02*
X55257400Y-73648900D01*
X55257400Y-73850800D02*
X55252300Y-73749900D01*
X55272700Y-73950700D02*
X55257400Y-73850800D01*
X55298000Y-74048600D02*
X55272700Y-73950700D01*
X55333100Y-74143300D02*
X55298000Y-74048600D01*
X55377600Y-74234100D02*
X55333100Y-74143300D01*
X55431000Y-74319900D02*
X55377600Y-74234100D01*
X55492900Y-74399800D02*
X55431000Y-74319900D01*
X55562500Y-74473100D02*
X55492900Y-74399800D01*
X55639200Y-74538900D02*
X55562500Y-74473100D01*
X55722100Y-74596700D02*
X55639200Y-74538900D01*
X55810500Y-74645700D02*
X55722100Y-74596700D01*
X55903400Y-74685600D02*
X55810500Y-74645700D01*
X55999800Y-74715800D02*
X55903400Y-74685600D01*
X56098800Y-74736200D02*
X55999800Y-74715800D01*
X56199300Y-74746400D02*
X56098800Y-74736200D01*
X56275200Y-74749000D02*
X56199300Y-74746400D01*
X126224800Y-74749000D02*
X56275200Y-74749000D01*
X126300600Y-74746400D02*
X126224800Y-74749000D01*
X126401000Y-74736200D02*
X126300600Y-74746400D01*
X126499900Y-63715900D02*
X126401000Y-63736200D01*
X126596400Y-63685700D02*
X126499900Y-63715900D01*
X126689300Y-63645800D02*
X126596400Y-63685700D01*
X126777600Y-63596800D02*
X126689300Y-63645800D01*
X126860600Y-63539100D02*
X126777600Y-63596800D01*
X126937300Y-63473200D02*
X126860600Y-63539100D01*
X127007100Y-63399800D02*
X126937300Y-63473200D01*
X127069000Y-63319900D02*
X127007100Y-63399800D01*
X127122300Y-63234300D02*
X127069000Y-63319900D01*
X127166800Y-63143600D02*
X127122300Y-63234300D01*
X127201900Y-63048800D02*
X127166800Y-63143600D01*
X127227300Y-62951000D02*
X127201900Y-63048800D01*
X127242600Y-62851100D02*
X127227300Y-62951000D01*
X127247700Y-62750100D02*
X127242600Y-62851100D01*
X127242600Y-62649200D02*
X127247700Y-62750100D01*
X127227300Y-62549300D02*
X127242600Y-62649200D01*
X127202000Y-62451500D02*
X127227300Y-62549300D01*
X127166900Y-62356700D02*
X127202000Y-62451500D01*
X127122400Y-62265900D02*
X127166900Y-62356700D01*
X127069000Y-62180200D02*
X127122400Y-62265900D01*
X127007100Y-62100200D02*
X127069000Y-62180200D01*
X126937300Y-62026800D02*
X127007100Y-62100200D01*
X126860600Y-61960900D02*
X126937300Y-62026800D01*
X126777900Y-61903400D02*
X126860600Y-61960900D01*
X126689500Y-61854300D02*
X126777900Y-61903400D01*
X126596600Y-61814400D02*
X126689500Y-61854300D01*
X126500200Y-61784200D02*
X126596600Y-61814400D01*
X126401200Y-61763800D02*
X126500200Y-61784200D01*
X126300700Y-61753600D02*
X126401200Y-61763800D01*
X126224800Y-61751000D02*
X126300700Y-61753600D01*
X56275200Y-61751000D02*
X126224800Y-61751000D01*
X56199300Y-61753600D02*
X56275200Y-61751000D01*
X56098800Y-61763800D02*
X56199300Y-61753600D01*
X55999800Y-61784200D02*
X56098800Y-61763800D01*
X55903400Y-61814400D02*
X55999800Y-61784200D01*
X55810500Y-61854300D02*
X55903400Y-61814400D01*
X55722100Y-61903400D02*
X55810500Y-61854300D01*
X55639200Y-61961100D02*
X55722100Y-61903400D01*
X55562500Y-62027000D02*
X55639200Y-61961100D01*
X55492900Y-62100200D02*
X55562500Y-62027000D01*
X55431000Y-62180200D02*
X55492900Y-62100200D01*
X55377600Y-62265900D02*
X55431000Y-62180200D01*
X55333100Y-62356700D02*
X55377600Y-62265900D01*
X55298000Y-62451500D02*
X55333100Y-62356700D01*
X55272700Y-62549000D02*
X55298000Y-62451500D01*
X55257400Y-62648900D02*
X55272700Y-62549000D01*
X55252300Y-62749900D02*
X55257400Y-62648900D01*
X55257400Y-62850800D02*
X55252300Y-62749900D01*
X55272700Y-62950700D02*
X55257400Y-62850800D01*
X55298000Y-63048500D02*
X55272700Y-62950700D01*
X55333100Y-63143300D02*
X55298000Y-63048500D01*
X55377600Y-63234100D02*
X55333100Y-63143300D01*
X55431000Y-63319900D02*
X55377600Y-63234100D01*
X55492900Y-63399800D02*
X55431000Y-63319900D01*
X55562500Y-63473000D02*
X55492900Y-63399800D01*
X55639200Y-63538900D02*
X55562500Y-63473000D01*
X55722100Y-63596600D02*
X55639200Y-63538900D01*
X55810500Y-63645700D02*
X55722100Y-63596600D01*
X55903400Y-63685600D02*
X55810500Y-63645700D01*
X55999800Y-63715800D02*
X55903400Y-63685600D01*
X56098800Y-63736200D02*
X55999800Y-63715800D01*
X56199300Y-63746400D02*
X56098800Y-63736200D01*
X56275200Y-63749000D02*
X56199300Y-63746400D01*
X126224800Y-63749000D02*
X56275200Y-63749000D01*
X126300700Y-63746400D02*
X126224800Y-63749000D01*
X126401000Y-63736200D02*
X126300700Y-63746400D01*
X126499900Y-55215900D02*
X126401000Y-55236200D01*
X126596400Y-55185700D02*
X126499900Y-55215900D01*
X126689300Y-55145800D02*
X126596400Y-55185700D01*
X126777600Y-55096800D02*
X126689300Y-55145800D01*
X126860600Y-55039100D02*
X126777600Y-55096800D01*
X126937300Y-54973200D02*
X126860600Y-55039100D01*
X127007100Y-54899800D02*
X126937300Y-54973200D01*
X127069000Y-54819900D02*
X127007100Y-54899800D01*
X127122300Y-54734300D02*
X127069000Y-54819900D01*
X127166800Y-54643600D02*
X127122300Y-54734300D01*
X127201900Y-54548800D02*
X127166800Y-54643600D01*
X127227300Y-54451000D02*
X127201900Y-54548800D01*
X127242600Y-54351100D02*
X127227300Y-54451000D01*
X127247700Y-54250100D02*
X127242600Y-54351100D01*
X127242600Y-54149200D02*
X127247700Y-54250100D01*
X127227300Y-54049300D02*
X127242600Y-54149200D01*
X127202000Y-53951500D02*
X127227300Y-54049300D01*
X127166900Y-53856700D02*
X127202000Y-53951500D01*
X127122400Y-53765900D02*
X127166900Y-53856700D01*
X127069000Y-53680200D02*
X127122400Y-53765900D01*
X127007100Y-53600200D02*
X127069000Y-53680200D01*
X126937300Y-53526800D02*
X127007100Y-53600200D01*
X126860600Y-53460900D02*
X126937300Y-53526800D01*
X126777900Y-53403400D02*
X126860600Y-53460900D01*
X126689500Y-53354300D02*
X126777900Y-53403400D01*
X126596600Y-53314400D02*
X126689500Y-53354300D01*
X126500200Y-53284200D02*
X126596600Y-53314400D01*
X126401200Y-53263800D02*
X126500200Y-53284200D01*
X126300700Y-53253600D02*
X126401200Y-53263800D01*
X126224800Y-53251000D02*
X126300700Y-53253600D01*
X56275200Y-53251000D02*
X126224800Y-53251000D01*
X56199300Y-53253600D02*
X56275200Y-53251000D01*
X56098800Y-53263800D02*
X56199300Y-53253600D01*
X55999800Y-53284200D02*
X56098800Y-53263800D01*
X55903400Y-53314400D02*
X55999800Y-53284200D01*
X55810500Y-53354300D02*
X55903400Y-53314400D01*
X55722100Y-53403400D02*
X55810500Y-53354300D01*
X55639200Y-53461100D02*
X55722100Y-53403400D01*
X55562500Y-53527000D02*
X55639200Y-53461100D01*
X55492900Y-53600200D02*
X55562500Y-53527000D01*
X55431000Y-53680200D02*
X55492900Y-53600200D01*
X55377600Y-53765900D02*
X55431000Y-53680200D01*
X55333100Y-53856700D02*
X55377600Y-53765900D01*
X55298000Y-53951500D02*
X55333100Y-53856700D01*
X55272700Y-54049000D02*
X55298000Y-53951500D01*
X55257400Y-54148900D02*
X55272700Y-54049000D01*
X55252300Y-54249900D02*
X55257400Y-54148900D01*
X55257400Y-54350800D02*
X55252300Y-54249900D01*
X55272700Y-54450700D02*
X55257400Y-54350800D01*
X55298000Y-54548500D02*
X55272700Y-54450700D01*
X55333100Y-54643300D02*
X55298000Y-54548500D01*
X55377600Y-54734100D02*
X55333100Y-54643300D01*
X55431000Y-54819900D02*
X55377600Y-54734100D01*
X55492900Y-54899800D02*
X55431000Y-54819900D01*
X55562500Y-54973000D02*
X55492900Y-54899800D01*
X55639200Y-55038900D02*
X55562500Y-54973000D01*
X55722100Y-55096600D02*
X55639200Y-55038900D01*
X55810500Y-55145700D02*
X55722100Y-55096600D01*
X55903400Y-55185600D02*
X55810500Y-55145700D01*
X55999800Y-55215800D02*
X55903400Y-55185600D01*
X56098800Y-55236200D02*
X55999800Y-55215800D01*
X56199300Y-55246400D02*
X56098800Y-55236200D01*
X56275200Y-55249000D02*
X56199300Y-55246400D01*
X126224800Y-55249000D02*
X56275200Y-55249000D01*
X126300700Y-55246400D02*
X126224800Y-55249000D01*
X126401000Y-55236200D02*
X126300700Y-55246400D01*
X126500200Y-122215900D02*
X126400700Y-122236300D01*
X126596600Y-122185600D02*
X126500200Y-122215900D01*
X126689500Y-122145700D02*
X126596600Y-122185600D01*
X126777900Y-122096700D02*
X126689500Y-122145700D01*
X126860800Y-122038900D02*
X126777900Y-122096700D01*
X126937500Y-121973100D02*
X126860800Y-122038900D01*
X127007100Y-121899800D02*
X126937500Y-121973100D01*
X127069000Y-121819900D02*
X127007100Y-121899800D01*
X127122400Y-121734100D02*
X127069000Y-121819900D01*
X127166900Y-121643400D02*
X127122400Y-121734100D01*
X127202000Y-121548600D02*
X127166900Y-121643400D01*
X127227300Y-121450800D02*
X127202000Y-121548600D01*
X127242600Y-121350900D02*
X127227300Y-121450800D01*
X127247700Y-121249900D02*
X127242600Y-121350900D01*
X127242600Y-121149300D02*
X127247700Y-121249900D01*
X127227300Y-121049300D02*
X127242600Y-121149300D01*
X127202000Y-120951500D02*
X127227300Y-121049300D01*
X127166900Y-120856700D02*
X127202000Y-120951500D01*
X127122400Y-120766000D02*
X127166900Y-120856700D01*
X127069000Y-120680200D02*
X127122400Y-120766000D01*
X127007100Y-120600300D02*
X127069000Y-120680200D01*
X126937300Y-120526800D02*
X127007100Y-120600300D01*
X126860600Y-120461000D02*
X126937300Y-120526800D01*
X126777600Y-120403300D02*
X126860600Y-120461000D01*
X126689300Y-120354200D02*
X126777600Y-120403300D01*
X126596600Y-120314500D02*
X126689300Y-120354200D01*
X126500200Y-120284200D02*
X126596600Y-120314500D01*
X126401200Y-120263900D02*
X126500200Y-120284200D01*
X126300700Y-120253600D02*
X126401200Y-120263900D01*
X126224800Y-120251100D02*
X126300700Y-120253600D01*
X56275000Y-120251100D02*
X126224800Y-120251100D01*
X56199600Y-120253600D02*
X56275000Y-120251100D01*
X56098800Y-120263900D02*
X56199600Y-120253600D01*
X55999800Y-120284200D02*
X56098800Y-120263900D01*
X55903400Y-120314500D02*
X55999800Y-120284200D01*
X55810500Y-120354400D02*
X55903400Y-120314500D01*
X55722100Y-120403400D02*
X55810500Y-120354400D01*
X55639200Y-120461200D02*
X55722100Y-120403400D01*
X55562500Y-120527000D02*
X55639200Y-120461200D01*
X55492900Y-120600300D02*
X55562500Y-120527000D01*
X55431000Y-120680200D02*
X55492900Y-120600300D01*
X55377600Y-120766000D02*
X55431000Y-120680200D01*
X55333100Y-120856700D02*
X55377600Y-120766000D01*
X55298100Y-120951200D02*
X55333100Y-120856700D01*
X55272700Y-121049100D02*
X55298100Y-120951200D01*
X55257400Y-121149000D02*
X55272700Y-121049100D01*
X55252300Y-121249900D02*
X55257400Y-121149000D01*
X55257400Y-121350900D02*
X55252300Y-121249900D01*
X55272700Y-121450800D02*
X55257400Y-121350900D01*
X55298000Y-121548600D02*
X55272700Y-121450800D01*
X55333100Y-121643400D02*
X55298000Y-121548600D01*
X55377600Y-121734100D02*
X55333100Y-121643400D01*
X55431000Y-121819900D02*
X55377600Y-121734100D01*
X55492900Y-121899800D02*
X55431000Y-121819900D01*
X55562500Y-121973100D02*
X55492900Y-121899800D01*
X55639200Y-122038900D02*
X55562500Y-121973100D01*
X55722100Y-122096700D02*
X55639200Y-122038900D01*
X55810500Y-122145700D02*
X55722100Y-122096700D01*
X55903400Y-122185600D02*
X55810500Y-122145700D01*
X55999800Y-122215900D02*
X55903400Y-122185600D01*
X56098800Y-122236200D02*
X55999800Y-122215900D01*
X56199300Y-122246500D02*
X56098800Y-122236200D01*
X56275200Y-122249100D02*
X56199300Y-122246500D01*
X126224500Y-122249100D02*
X56275200Y-122249100D01*
X126300900Y-122246500D02*
X126224500Y-122249100D01*
X126400700Y-122236300D02*
X126300900Y-122246500D01*
X126500200Y-113715900D02*
X126400700Y-113736300D01*
X126596600Y-113685600D02*
X126500200Y-113715900D01*
X126689500Y-113645700D02*
X126596600Y-113685600D01*
X126777900Y-113596700D02*
X126689500Y-113645700D01*
X126860800Y-113538900D02*
X126777900Y-113596700D01*
X126937500Y-113473100D02*
X126860800Y-113538900D01*
X127007100Y-113399800D02*
X126937500Y-113473100D01*
X127069000Y-113319900D02*
X127007100Y-113399800D01*
X127122400Y-113234100D02*
X127069000Y-113319900D01*
X127166900Y-113143400D02*
X127122400Y-113234100D01*
X127202000Y-113048600D02*
X127166900Y-113143400D01*
X127227300Y-112950800D02*
X127202000Y-113048600D01*
X127242600Y-112850900D02*
X127227300Y-112950800D01*
X127247700Y-112749900D02*
X127242600Y-112850900D01*
X127242600Y-112649300D02*
X127247700Y-112749900D01*
X127227300Y-112549300D02*
X127242600Y-112649300D01*
X127202000Y-112451500D02*
X127227300Y-112549300D01*
X127166900Y-112356700D02*
X127202000Y-112451500D01*
X127122400Y-112266000D02*
X127166900Y-112356700D01*
X127069000Y-112180200D02*
X127122400Y-112266000D01*
X127007100Y-112100300D02*
X127069000Y-112180200D01*
X126937300Y-112026800D02*
X127007100Y-112100300D01*
X126860600Y-111961000D02*
X126937300Y-112026800D01*
X126777600Y-111903300D02*
X126860600Y-111961000D01*
X126689300Y-111854200D02*
X126777600Y-111903300D01*
X126596600Y-111814500D02*
X126689300Y-111854200D01*
X126500200Y-111784200D02*
X126596600Y-111814500D01*
X126401200Y-111763900D02*
X126500200Y-111784200D01*
X126300700Y-111753600D02*
X126401200Y-111763900D01*
X126224800Y-111751100D02*
X126300700Y-111753600D01*
X56275000Y-111751100D02*
X126224800Y-111751100D01*
X56199600Y-111753600D02*
X56275000Y-111751100D01*
X56098800Y-111763900D02*
X56199600Y-111753600D01*
X55999800Y-111784200D02*
X56098800Y-111763900D01*
X55903400Y-111814500D02*
X55999800Y-111784200D01*
X55810500Y-111854400D02*
X55903400Y-111814500D01*
X55722100Y-111903400D02*
X55810500Y-111854400D01*
X55639200Y-111961200D02*
X55722100Y-111903400D01*
X55562500Y-112027000D02*
X55639200Y-111961200D01*
X55492900Y-112100300D02*
X55562500Y-112027000D01*
X55431000Y-112180200D02*
X55492900Y-112100300D01*
X55377600Y-112266000D02*
X55431000Y-112180200D01*
X55333100Y-112356700D02*
X55377600Y-112266000D01*
X55298100Y-112451200D02*
X55333100Y-112356700D01*
X55272700Y-112549100D02*
X55298100Y-112451200D01*
X55257400Y-112649000D02*
X55272700Y-112549100D01*
X55252300Y-112749900D02*
X55257400Y-112649000D01*
X55257400Y-112850900D02*
X55252300Y-112749900D01*
X55272700Y-112950800D02*
X55257400Y-112850900D01*
X55298000Y-113048600D02*
X55272700Y-112950800D01*
X55333100Y-113143400D02*
X55298000Y-113048600D01*
X55377600Y-113234100D02*
X55333100Y-113143400D01*
X55431000Y-113319900D02*
X55377600Y-113234100D01*
X55492900Y-113399800D02*
X55431000Y-113319900D01*
X55562500Y-113473100D02*
X55492900Y-113399800D01*
X55639200Y-113538900D02*
X55562500Y-113473100D01*
X55722100Y-113596700D02*
X55639200Y-113538900D01*
X55810500Y-113645700D02*
X55722100Y-113596700D01*
X55903400Y-113685600D02*
X55810500Y-113645700D01*
X55999800Y-113715900D02*
X55903400Y-113685600D01*
X56098800Y-113736200D02*
X55999800Y-113715900D01*
X56199300Y-113746500D02*
X56098800Y-113736200D01*
X56275200Y-113749100D02*
X56199300Y-113746500D01*
X126224500Y-113749100D02*
X56275200Y-113749100D01*
X126300900Y-113746500D02*
X126224500Y-113749100D01*
X126400700Y-113736300D02*
X126300900Y-113746500D01*
X132476500Y-43499000D02*
X50009200Y-43499700D01*
X132491800Y-43499800D02*
X132476500Y-43499000D01*
X132497700Y-43503000D02*
X132491800Y-43499800D01*
X132500200Y-43508200D02*
X132497700Y-43503000D01*
X132501000Y-43523500D02*
X132500200Y-43508200D01*
X132501000Y-47475500D02*
X132501000Y-43523500D01*
X132499700Y-47492700D02*
X132501000Y-47475500D01*
X132496300Y-47497400D02*
X132499700Y-47492700D01*
X132491800Y-47499200D02*
X132496300Y-47497400D01*
X102241300Y-47500000D02*
X132491800Y-47499200D01*
X102144000Y-47504800D02*
X102241300Y-47500000D01*
X102047900Y-47519000D02*
X102144000Y-47504800D01*
X101953600Y-47542600D02*
X102047900Y-47519000D01*
X101862200Y-47575400D02*
X101953600Y-47542600D01*
X101774300Y-47616900D02*
X101862200Y-47575400D01*
X101691000Y-47666900D02*
X101774300Y-47616900D01*
X101613000Y-47724700D02*
X101691000Y-47666900D01*
X101541000Y-47790000D02*
X101613000Y-47724700D01*
X101475700Y-47862000D02*
X101541000Y-47790000D01*
X101417900Y-47940000D02*
X101475700Y-47862000D01*
X101367900Y-48023300D02*
X101417900Y-47940000D01*
X101326400Y-48111100D02*
X101367900Y-48023300D01*
X101293700Y-48202600D02*
X101326400Y-48111100D01*
X101270000Y-48296900D02*
X101293700Y-48202600D01*
X101255800Y-48393000D02*
X101270000Y-48296900D01*
X101251000Y-48490200D02*
X101255800Y-48393000D01*
X101251000Y-49008800D02*
X101251000Y-48490200D01*
X101255800Y-49106000D02*
X101251000Y-49008800D01*
X101270000Y-49202100D02*
X101255800Y-49106000D01*
X101293700Y-49296400D02*
X101270000Y-49202100D01*
X101326400Y-49387900D02*
X101293700Y-49296400D01*
X101367900Y-49475700D02*
X101326400Y-49387900D01*
X101417900Y-49559000D02*
X101367900Y-49475700D01*
X101475700Y-49637000D02*
X101417900Y-49559000D01*
X101541000Y-49709000D02*
X101475700Y-49637000D01*
X101613000Y-49774300D02*
X101541000Y-49709000D01*
X101691000Y-49832100D02*
X101613000Y-49774300D01*
X101774300Y-49882100D02*
X101691000Y-49832100D01*
X101862200Y-49923600D02*
X101774300Y-49882100D01*
X101953600Y-49956400D02*
X101862200Y-49923600D01*
X102047900Y-49980000D02*
X101953600Y-49956400D01*
X102144000Y-49994200D02*
X102047900Y-49980000D01*
X102241300Y-49999000D02*
X102144000Y-49994200D01*
X128243400Y-49999000D02*
X102241300Y-49999000D01*
X128694100Y-50022600D02*
X128243400Y-49999000D01*
X129121100Y-50089900D02*
X128694100Y-50022600D01*
X129146500Y-50095300D02*
X129121100Y-50089900D01*
X129550900Y-50203600D02*
X129146500Y-50095300D01*
X129575900Y-50211800D02*
X129550900Y-50203600D01*
X129979200Y-50367000D02*
X129575900Y-50211800D01*
X130375600Y-50569000D02*
X129979200Y-50367000D01*
X130748300Y-50811000D02*
X130375600Y-50569000D01*
X131084200Y-51082600D02*
X130748300Y-50811000D01*
X131103800Y-51100200D02*
X131084200Y-51082600D01*
X131399800Y-51396200D02*
X131103800Y-51100200D01*
X131417400Y-51415700D02*
X131399800Y-51396200D01*
X131689000Y-51751800D02*
X131417400Y-51415700D01*
X131931100Y-52124500D02*
X131689000Y-51751800D01*
X132133100Y-52520900D02*
X131931100Y-52124500D01*
X132288200Y-52924100D02*
X132133100Y-52520900D01*
X132296300Y-52949100D02*
X132288200Y-52924100D01*
X132404700Y-53353400D02*
X132296300Y-52949100D01*
X132410200Y-53379100D02*
X132404700Y-53353400D01*
X132477400Y-53806000D02*
X132410200Y-53379100D01*
X132501000Y-54256500D02*
X132477400Y-53806000D01*
X132501000Y-55139700D02*
X132501000Y-54256500D01*
X132495900Y-55244100D02*
X132501000Y-55139700D01*
X132481400Y-55341600D02*
X132495900Y-55244100D01*
X132457200Y-55437700D02*
X132481400Y-55341600D01*
X132423900Y-55530500D02*
X132457200Y-55437700D01*
X132387300Y-55608200D02*
X132423900Y-55530500D01*
X132375600Y-55630000D02*
X132387300Y-55608200D01*
X132323700Y-55713800D02*
X132375600Y-55630000D01*
X132272100Y-55782500D02*
X132323700Y-55713800D01*
X132214100Y-55846600D02*
X132272100Y-55782500D01*
X132196500Y-55864100D02*
X132214100Y-55846600D01*
X132132400Y-55921400D02*
X132196500Y-55864100D01*
X132062800Y-55973000D02*
X132132400Y-55921400D01*
X131968400Y-56030200D02*
X132062800Y-55973000D01*
X131879100Y-56072000D02*
X131968400Y-56030200D01*
X131600100Y-56170700D02*
X131879100Y-56072000D01*
X131509400Y-56207800D02*
X131600100Y-56170700D01*
X131375300Y-56270600D02*
X131509400Y-56207800D01*
X131288700Y-56316400D02*
X131375300Y-56270600D01*
X131161400Y-56392000D02*
X131288700Y-56316400D01*
X131079800Y-56446200D02*
X131161400Y-56392000D01*
X130960600Y-56533900D02*
X131079800Y-56446200D01*
X130884600Y-56595900D02*
X130960600Y-56533900D01*
X130774600Y-56694900D02*
X130884600Y-56595900D01*
X130705100Y-56764000D02*
X130774600Y-56694900D01*
X130605400Y-56873400D02*
X130705100Y-56764000D01*
X130543000Y-56949000D02*
X130605400Y-56873400D01*
X130454500Y-57067700D02*
X130543000Y-56949000D01*
X130399900Y-57149100D02*
X130454500Y-57067700D01*
X130323600Y-57275900D02*
X130399900Y-57149100D01*
X130277200Y-57362300D02*
X130323600Y-57275900D01*
X130213700Y-57496000D02*
X130277200Y-57362300D01*
X130176000Y-57586500D02*
X130213700Y-57496000D01*
X130126000Y-57725800D02*
X130176000Y-57586500D01*
X130097400Y-57819500D02*
X130126000Y-57725800D01*
X130061300Y-57963100D02*
X130097400Y-57819500D01*
X130042200Y-58059200D02*
X130061300Y-57963100D01*
X130020400Y-58205600D02*
X130042200Y-58059200D01*
X130010700Y-58303100D02*
X130020400Y-58205600D01*
X130003400Y-58451000D02*
X130010700Y-58303100D01*
X130003400Y-58549000D02*
X130003400Y-58451000D01*
X130010700Y-58696900D02*
X130003400Y-58549000D01*
X130020400Y-58794400D02*
X130010700Y-58696900D01*
X130042200Y-58940800D02*
X130020400Y-58794400D01*
X130061300Y-59036900D02*
X130042200Y-58940800D01*
X130097400Y-59180500D02*
X130061300Y-59036900D01*
X130126000Y-59274200D02*
X130097400Y-59180500D01*
X130176000Y-59413500D02*
X130126000Y-59274200D01*
X130213700Y-59504000D02*
X130176000Y-59413500D01*
X130277200Y-59637700D02*
X130213700Y-59504000D01*
X130323600Y-59724100D02*
X130277200Y-59637700D01*
X130399900Y-59850900D02*
X130323600Y-59724100D01*
X130454500Y-59932300D02*
X130399900Y-59850900D01*
X130543000Y-60051000D02*
X130454500Y-59932300D01*
X130605400Y-60126600D02*
X130543000Y-60051000D01*
X130705100Y-60236000D02*
X130605400Y-60126600D01*
X130774600Y-60305100D02*
X130705100Y-60236000D01*
X130884600Y-60404100D02*
X130774600Y-60305100D01*
X130960600Y-60466100D02*
X130884600Y-60404100D01*
X131079800Y-60553800D02*
X130960600Y-60466100D01*
X131161500Y-60608000D02*
X131079800Y-60553800D01*
X131288700Y-60683600D02*
X131161500Y-60608000D01*
X131375300Y-60729500D02*
X131288700Y-60683600D01*
X131509400Y-60792200D02*
X131375300Y-60729500D01*
X131600100Y-60829300D02*
X131509400Y-60792200D01*
X131878700Y-60927800D02*
X131600100Y-60829300D01*
X131957100Y-60964100D02*
X131878700Y-60927800D01*
X131978900Y-60975700D02*
X131957100Y-60964100D01*
X132052700Y-61019900D02*
X131978900Y-60975700D01*
X132122500Y-61070900D02*
X132052700Y-61019900D01*
X132141700Y-61086500D02*
X132122500Y-61070900D01*
X132205400Y-61144300D02*
X132141700Y-61086500D01*
X132263800Y-61207900D02*
X132205400Y-61144300D01*
X132279400Y-61226800D02*
X132263800Y-61207900D01*
X132337500Y-61306700D02*
X132279400Y-61226800D01*
X132381600Y-61380600D02*
X132337500Y-61306700D01*
X132418900Y-61458500D02*
X132381600Y-61380600D01*
X132428400Y-61481300D02*
X132418900Y-61458500D01*
X132460600Y-61574500D02*
X132428400Y-61481300D01*
X132481400Y-61658400D02*
X132460600Y-61574500D01*
X132496700Y-61767700D02*
X132481400Y-61658400D01*
X132501000Y-61860300D02*
X132496700Y-61767700D01*
X132501000Y-62743400D02*
X132501000Y-61860300D01*
X132477400Y-63194100D02*
X132501000Y-62743400D01*
X132407800Y-63633500D02*
X132477400Y-63194100D01*
X132292500Y-64063800D02*
X132407800Y-63633500D01*
X132138200Y-64466700D02*
X132292500Y-64063800D01*
X132127500Y-64490700D02*
X132138200Y-64466700D01*
X131937500Y-64863800D02*
X132127500Y-64490700D01*
X131924300Y-64886500D02*
X131937500Y-64863800D01*
X131689000Y-65248300D02*
X131924300Y-64886500D01*
X131417400Y-65584200D02*
X131689000Y-65248300D01*
X131399800Y-65603800D02*
X131417400Y-65584200D01*
X131094400Y-65908700D02*
X131399800Y-65603800D01*
X130748700Y-66188700D02*
X131094400Y-65908700D01*
X130375500Y-66431100D02*
X130748700Y-66188700D01*
X129978600Y-66633300D02*
X130375500Y-66431100D01*
X129563700Y-66792500D02*
X129978600Y-66633300D01*
X129134000Y-66907700D02*
X129563700Y-66792500D01*
X128694500Y-66977300D02*
X129134000Y-66907700D01*
X128249900Y-67000900D02*
X128694500Y-66977300D01*
X102241300Y-67001000D02*
X128249900Y-67000900D01*
X102144000Y-67005800D02*
X102241300Y-67001000D01*
X102047900Y-67020000D02*
X102144000Y-67005800D01*
X101953600Y-67043600D02*
X102047900Y-67020000D01*
X101862200Y-67076400D02*
X101953600Y-67043600D01*
X101774300Y-67117900D02*
X101862200Y-67076400D01*
X101691000Y-67167900D02*
X101774300Y-67117900D01*
X101613000Y-67225700D02*
X101691000Y-67167900D01*
X101541000Y-67291000D02*
X101613000Y-67225700D01*
X101475700Y-67363000D02*
X101541000Y-67291000D01*
X101417900Y-67441000D02*
X101475700Y-67363000D01*
X101367900Y-67524300D02*
X101417900Y-67441000D01*
X101326400Y-67612100D02*
X101367900Y-67524300D01*
X101293700Y-67703600D02*
X101326400Y-67612100D01*
X101270000Y-67797900D02*
X101293700Y-67703600D01*
X101255800Y-67894000D02*
X101270000Y-67797900D01*
X101251000Y-67991200D02*
X101255800Y-67894000D01*
X101251000Y-68508800D02*
X101251000Y-67991200D01*
X101255800Y-68606000D02*
X101251000Y-68508800D01*
X101270000Y-68702100D02*
X101255800Y-68606000D01*
X101293700Y-68796400D02*
X101270000Y-68702100D01*
X101326400Y-68887900D02*
X101293700Y-68796400D01*
X101367900Y-68975700D02*
X101326400Y-68887900D01*
X101417900Y-69059000D02*
X101367900Y-68975700D01*
X101475700Y-69137000D02*
X101417900Y-69059000D01*
X101541000Y-69209000D02*
X101475700Y-69137000D01*
X101613000Y-69274300D02*
X101541000Y-69209000D01*
X101691000Y-69332200D02*
X101613000Y-69274300D01*
X101774300Y-69382100D02*
X101691000Y-69332200D01*
X101862200Y-69423600D02*
X101774300Y-69382100D01*
X101953600Y-69456400D02*
X101862200Y-69423600D01*
X102047900Y-69480000D02*
X101953600Y-69456400D01*
X102144000Y-69494200D02*
X102047900Y-69480000D01*
X102241300Y-69499000D02*
X102144000Y-69494200D01*
X128243400Y-69499000D02*
X102241300Y-69499000D01*
X128694600Y-69522700D02*
X128243400Y-69499000D01*
X129134000Y-69592300D02*
X128694600Y-69522700D01*
X129550900Y-69703700D02*
X129134000Y-69592300D01*
X129575900Y-69711800D02*
X129550900Y-69703700D01*
X129966700Y-69861800D02*
X129575900Y-69711800D01*
X129990700Y-69872500D02*
X129966700Y-69861800D01*
X130375100Y-70068700D02*
X129990700Y-69872500D01*
X130737600Y-70303700D02*
X130375100Y-70068700D01*
X130758900Y-70319200D02*
X130737600Y-70303700D01*
X131094100Y-70591000D02*
X130758900Y-70319200D01*
X131408700Y-70905600D02*
X131094100Y-70591000D01*
X131688700Y-71251400D02*
X131408700Y-70905600D01*
X131931300Y-71624900D02*
X131688700Y-71251400D01*
X132133100Y-72020900D02*
X131931300Y-71624900D01*
X132288200Y-72424100D02*
X132133100Y-72020900D01*
X132296300Y-72449100D02*
X132288200Y-72424100D01*
X132404700Y-72853500D02*
X132296300Y-72449100D01*
X132410200Y-72879200D02*
X132404700Y-72853500D01*
X132477400Y-73306000D02*
X132410200Y-72879200D01*
X132500900Y-73750100D02*
X132477400Y-73306000D01*
X132500900Y-74646100D02*
X132500900Y-73750100D01*
X132495900Y-74744100D02*
X132500900Y-74646100D01*
X132483400Y-74829700D02*
X132495900Y-74744100D01*
X132478600Y-74853900D02*
X132483400Y-74829700D01*
X132457300Y-74937200D02*
X132478600Y-74853900D01*
X132428400Y-75018700D02*
X132457300Y-74937200D01*
X132418900Y-75041500D02*
X132428400Y-75018700D01*
X132381500Y-75119500D02*
X132418900Y-75041500D01*
X132330900Y-75203500D02*
X132381500Y-75119500D01*
X132272100Y-75282600D02*
X132330900Y-75203500D01*
X132214100Y-75346600D02*
X132272100Y-75282600D01*
X132196500Y-75364100D02*
X132214100Y-75346600D01*
X132132100Y-75421700D02*
X132196500Y-75364100D01*
X132052700Y-75480100D02*
X132132100Y-75421700D01*
X131957300Y-75535800D02*
X132052700Y-75480100D01*
X131878600Y-75572200D02*
X131957300Y-75535800D01*
X131600100Y-75670700D02*
X131878600Y-75572200D01*
X131509400Y-75707800D02*
X131600100Y-75670700D01*
X131375300Y-75770600D02*
X131509400Y-75707800D01*
X131288700Y-75816400D02*
X131375300Y-75770600D01*
X131161400Y-75892000D02*
X131288700Y-75816400D01*
X131079800Y-75946200D02*
X131161400Y-75892000D01*
X130960600Y-76033900D02*
X131079800Y-75946200D01*
X130884600Y-76095900D02*
X130960600Y-76033900D01*
X130774600Y-76194900D02*
X130884600Y-76095900D01*
X130705100Y-76264000D02*
X130774600Y-76194900D01*
X130605400Y-76373400D02*
X130705100Y-76264000D01*
X130543000Y-76449000D02*
X130605400Y-76373400D01*
X130454500Y-76567700D02*
X130543000Y-76449000D01*
X130399900Y-76649100D02*
X130454500Y-76567700D01*
X130323600Y-76775900D02*
X130399900Y-76649100D01*
X130277200Y-76862300D02*
X130323600Y-76775900D01*
X130213700Y-76996000D02*
X130277200Y-76862300D01*
X130176000Y-77086500D02*
X130213700Y-76996000D01*
X130126000Y-77225800D02*
X130176000Y-77086500D01*
X130097400Y-77319500D02*
X130126000Y-77225800D01*
X130061300Y-77463100D02*
X130097400Y-77319500D01*
X130042200Y-77559200D02*
X130061300Y-77463100D01*
X130020400Y-77705600D02*
X130042200Y-77559200D01*
X130010700Y-77803200D02*
X130020400Y-77705600D01*
X130003400Y-77951000D02*
X130010700Y-77803200D01*
X130003400Y-78049000D02*
X130003400Y-77951000D01*
X130010700Y-78196900D02*
X130003400Y-78049000D01*
X130020400Y-78294400D02*
X130010700Y-78196900D01*
X130042200Y-78440800D02*
X130020400Y-78294400D01*
X130061300Y-78536900D02*
X130042200Y-78440800D01*
X130097400Y-78680500D02*
X130061300Y-78536900D01*
X130126000Y-78774200D02*
X130097400Y-78680500D01*
X130176000Y-78913600D02*
X130126000Y-78774200D01*
X130213700Y-79004100D02*
X130176000Y-78913600D01*
X130277200Y-79137800D02*
X130213700Y-79004100D01*
X130323600Y-79224100D02*
X130277200Y-79137800D01*
X130399900Y-79350900D02*
X130323600Y-79224100D01*
X130454500Y-79432300D02*
X130399900Y-79350900D01*
X130543000Y-79551000D02*
X130454500Y-79432300D01*
X130605400Y-79626600D02*
X130543000Y-79551000D01*
X130705100Y-79736000D02*
X130605400Y-79626600D01*
X130774600Y-79805100D02*
X130705100Y-79736000D01*
X130884600Y-79904200D02*
X130774600Y-79805100D01*
X130960600Y-79966100D02*
X130884600Y-79904200D01*
X131079800Y-80053900D02*
X130960600Y-79966100D01*
X131161500Y-80108000D02*
X131079800Y-80053900D01*
X131288700Y-80183600D02*
X131161500Y-80108000D01*
X131375300Y-80229500D02*
X131288700Y-80183600D01*
X131509400Y-80292200D02*
X131375300Y-80229500D01*
X131600100Y-80329300D02*
X131509400Y-80292200D01*
X131879100Y-80428000D02*
X131600100Y-80329300D01*
X131968400Y-80469800D02*
X131879100Y-80428000D01*
X132062800Y-80527000D02*
X131968400Y-80469800D01*
X132141700Y-80586500D02*
X132062800Y-80527000D01*
X132205400Y-80644300D02*
X132141700Y-80586500D01*
X132263800Y-80707900D02*
X132205400Y-80644300D01*
X132279500Y-80727000D02*
X132263800Y-80707900D01*
X132330700Y-80796100D02*
X132279500Y-80727000D01*
X132381600Y-80880600D02*
X132330700Y-80796100D01*
X132423900Y-80969600D02*
X132381600Y-80880600D01*
X132457400Y-81062800D02*
X132423900Y-80969600D01*
X132481400Y-81158400D02*
X132457400Y-81062800D01*
X132494300Y-81243400D02*
X132481400Y-81158400D01*
X132496800Y-81268000D02*
X132494300Y-81243400D01*
X132501000Y-81360300D02*
X132496800Y-81268000D01*
X132500900Y-82249900D02*
X132501000Y-81360300D01*
X132477300Y-82694600D02*
X132500900Y-82249900D01*
X132407700Y-83134100D02*
X132477300Y-82694600D01*
X132296400Y-83550900D02*
X132407700Y-83134100D01*
X132288200Y-83575900D02*
X132296400Y-83550900D01*
X132138200Y-83966800D02*
X132288200Y-83575900D01*
X132127500Y-83990800D02*
X132138200Y-83966800D01*
X131931300Y-84375100D02*
X132127500Y-83990800D01*
X131696300Y-84737600D02*
X131931300Y-84375100D01*
X131680900Y-84758900D02*
X131696300Y-84737600D01*
X131409000Y-85094100D02*
X131680900Y-84758900D01*
X131094400Y-85408700D02*
X131409000Y-85094100D01*
X130748200Y-85689000D02*
X131094400Y-85408700D01*
X130386500Y-85924300D02*
X130748200Y-85689000D01*
X130363800Y-85937500D02*
X130386500Y-85924300D01*
X129990800Y-86127500D02*
X130363800Y-85937500D01*
X129966800Y-86138200D02*
X129990800Y-86127500D01*
X129563700Y-86292600D02*
X129966800Y-86138200D01*
X129146600Y-86404700D02*
X129563700Y-86292600D01*
X129120900Y-86410200D02*
X129146600Y-86404700D01*
X128694500Y-86477400D02*
X129120900Y-86410200D01*
X128249900Y-86500900D02*
X128694500Y-86477400D01*
X102241300Y-86501000D02*
X128249900Y-86500900D01*
X102144000Y-86505800D02*
X102241300Y-86501000D01*
X102047900Y-86520000D02*
X102144000Y-86505800D01*
X101953600Y-86543700D02*
X102047900Y-86520000D01*
X101862200Y-86576400D02*
X101953600Y-86543700D01*
X101774300Y-86617900D02*
X101862200Y-86576400D01*
X101691000Y-86667900D02*
X101774300Y-86617900D01*
X101613000Y-86725700D02*
X101691000Y-86667900D01*
X101541000Y-86791000D02*
X101613000Y-86725700D01*
X101475700Y-86863000D02*
X101541000Y-86791000D01*
X101417900Y-86941000D02*
X101475700Y-86863000D01*
X101367900Y-87024300D02*
X101417900Y-86941000D01*
X101326400Y-87112200D02*
X101367900Y-87024300D01*
X101293700Y-87203600D02*
X101326400Y-87112200D01*
X101270000Y-87297900D02*
X101293700Y-87203600D01*
X101255800Y-87394000D02*
X101270000Y-87297900D01*
X101251000Y-87491300D02*
X101255800Y-87394000D01*
X101251000Y-88008800D02*
X101251000Y-87491300D01*
X101255800Y-88106000D02*
X101251000Y-88008800D01*
X101270000Y-88202100D02*
X101255800Y-88106000D01*
X101293700Y-88296400D02*
X101270000Y-88202100D01*
X101326400Y-88387900D02*
X101293700Y-88296400D01*
X101367900Y-88475700D02*
X101326400Y-88387900D01*
X101417900Y-88559000D02*
X101367900Y-88475700D01*
X101475700Y-88637100D02*
X101417900Y-88559000D01*
X101541000Y-88709000D02*
X101475700Y-88637100D01*
X101613000Y-88774300D02*
X101541000Y-88709000D01*
X101691000Y-88832200D02*
X101613000Y-88774300D01*
X101774300Y-88882100D02*
X101691000Y-88832200D01*
X101862200Y-88923600D02*
X101774300Y-88882100D01*
X101953600Y-88956400D02*
X101862200Y-88923600D01*
X102047900Y-88980000D02*
X101953600Y-88956400D01*
X102144000Y-88994200D02*
X102047900Y-88980000D01*
X102241300Y-88999000D02*
X102144000Y-88994200D01*
X128249900Y-88999100D02*
X102241300Y-88999000D01*
X128681200Y-89021600D02*
X128249900Y-88999100D01*
X128707300Y-89024400D02*
X128681200Y-89021600D01*
X129133500Y-89092200D02*
X128707300Y-89024400D01*
X129550900Y-89203700D02*
X129133500Y-89092200D01*
X129575900Y-89211800D02*
X129550900Y-89203700D01*
X129978700Y-89366800D02*
X129575900Y-89211800D01*
X130375100Y-89568700D02*
X129978700Y-89366800D01*
X130748700Y-89811400D02*
X130375100Y-89568700D01*
X131084200Y-90082600D02*
X130748700Y-89811400D01*
X131103800Y-90100200D02*
X131084200Y-90082600D01*
X131399800Y-90396200D02*
X131103800Y-90100200D01*
X131417400Y-90415800D02*
X131399800Y-90396200D01*
X131688700Y-90751400D02*
X131417400Y-90415800D01*
X131924300Y-91113500D02*
X131688700Y-90751400D01*
X131937400Y-91136200D02*
X131924300Y-91113500D01*
X132133100Y-91520900D02*
X131937400Y-91136200D01*
X132292500Y-91936300D02*
X132133100Y-91520900D01*
X132407800Y-92366600D02*
X132292500Y-91936300D01*
X132475700Y-92792700D02*
X132407800Y-92366600D01*
X132478400Y-92818500D02*
X132475700Y-92792700D01*
X132501000Y-93256400D02*
X132478400Y-92818500D01*
X132501000Y-94139700D02*
X132501000Y-93256400D01*
X132496800Y-94232000D02*
X132501000Y-94139700D01*
X132494300Y-94256700D02*
X132496800Y-94232000D01*
X132481400Y-94341700D02*
X132494300Y-94256700D01*
X132457300Y-94437300D02*
X132481400Y-94341700D01*
X132424000Y-94530000D02*
X132457300Y-94437300D01*
X132381500Y-94619500D02*
X132424000Y-94530000D01*
X132330700Y-94703900D02*
X132381500Y-94619500D01*
X132279600Y-94773000D02*
X132330700Y-94703900D01*
X132263800Y-94792100D02*
X132279600Y-94773000D01*
X132205700Y-94855400D02*
X132263800Y-94792100D01*
X132141700Y-94913500D02*
X132205700Y-94855400D01*
X132062800Y-94973100D02*
X132141700Y-94913500D01*
X131968400Y-95030300D02*
X132062800Y-94973100D01*
X131879100Y-95072000D02*
X131968400Y-95030300D01*
X131600100Y-95170800D02*
X131879100Y-95072000D01*
X131509400Y-95207900D02*
X131600100Y-95170800D01*
X131375300Y-95270600D02*
X131509400Y-95207900D01*
X131288700Y-95316400D02*
X131375300Y-95270600D01*
X131161400Y-95392000D02*
X131288700Y-95316400D01*
X131079800Y-95446200D02*
X131161400Y-95392000D01*
X130960600Y-95534000D02*
X131079800Y-95446200D01*
X130884600Y-95595900D02*
X130960600Y-95534000D01*
X130774600Y-95695000D02*
X130884600Y-95595900D01*
X130705100Y-95764100D02*
X130774600Y-95695000D01*
X130605400Y-95873500D02*
X130705100Y-95764100D01*
X130543000Y-95949100D02*
X130605400Y-95873500D01*
X130454500Y-96067800D02*
X130543000Y-95949100D01*
X130399900Y-96149100D02*
X130454500Y-96067800D01*
X130323600Y-96275900D02*
X130399900Y-96149100D01*
X130277200Y-96362300D02*
X130323600Y-96275900D01*
X130213700Y-96496000D02*
X130277200Y-96362300D01*
X130176000Y-96586500D02*
X130213700Y-96496000D01*
X130126000Y-96725800D02*
X130176000Y-96586500D01*
X130097400Y-96819600D02*
X130126000Y-96725800D01*
X130061300Y-96963100D02*
X130097400Y-96819600D01*
X130042200Y-97059200D02*
X130061300Y-96963100D01*
X130020400Y-97205600D02*
X130042200Y-97059200D01*
X130010700Y-97303200D02*
X130020400Y-97205600D01*
X130003400Y-97451000D02*
X130010700Y-97303200D01*
X130003400Y-97549000D02*
X130003400Y-97451000D01*
X130010700Y-97696900D02*
X130003400Y-97549000D01*
X130020400Y-97794400D02*
X130010700Y-97696900D01*
X130042200Y-97940800D02*
X130020400Y-97794400D01*
X130061300Y-98036900D02*
X130042200Y-97940800D01*
X130097400Y-98180500D02*
X130061300Y-98036900D01*
X130126000Y-98274300D02*
X130097400Y-98180500D01*
X130176000Y-98413600D02*
X130126000Y-98274300D01*
X130213700Y-98504100D02*
X130176000Y-98413600D01*
X130277200Y-98637800D02*
X130213700Y-98504100D01*
X130323600Y-98724100D02*
X130277200Y-98637800D01*
X130399900Y-98850900D02*
X130323600Y-98724100D01*
X130454500Y-98932300D02*
X130399900Y-98850900D01*
X130543000Y-99051000D02*
X130454500Y-98932300D01*
X130605400Y-99126600D02*
X130543000Y-99051000D01*
X130705100Y-99236000D02*
X130605400Y-99126600D01*
X130774600Y-99305100D02*
X130705100Y-99236000D01*
X130884600Y-99404200D02*
X130774600Y-99305100D01*
X130960600Y-99466100D02*
X130884600Y-99404200D01*
X131079800Y-99553900D02*
X130960600Y-99466100D01*
X131161500Y-99608000D02*
X131079800Y-99553900D01*
X131288700Y-99683600D02*
X131161500Y-99608000D01*
X131375300Y-99729500D02*
X131288700Y-99683600D01*
X131509400Y-99792200D02*
X131375300Y-99729500D01*
X131600100Y-99829300D02*
X131509400Y-99792200D01*
X131867300Y-99923500D02*
X131600100Y-99829300D01*
X131890200Y-99932900D02*
X131867300Y-99923500D01*
X131968000Y-99969600D02*
X131890200Y-99932900D01*
X132042400Y-100013500D02*
X131968000Y-99969600D01*
X132063000Y-100027100D02*
X132042400Y-100013500D01*
X132132500Y-100078700D02*
X132063000Y-100027100D01*
X132205400Y-100144300D02*
X132132500Y-100078700D01*
X132271800Y-100217100D02*
X132205400Y-100144300D01*
X132330700Y-100296200D02*
X132271800Y-100217100D01*
X132375500Y-100370000D02*
X132330700Y-100296200D01*
X132387200Y-100391800D02*
X132375500Y-100370000D01*
X132428400Y-100481400D02*
X132387200Y-100391800D01*
X132457400Y-100562900D02*
X132428400Y-100481400D01*
X132481400Y-100658500D02*
X132457400Y-100562900D01*
X132495800Y-100755500D02*
X132481400Y-100658500D01*
X132500900Y-100854200D02*
X132495800Y-100755500D01*
X132501000Y-101743400D02*
X132500900Y-100854200D01*
X132478400Y-102181500D02*
X132501000Y-101743400D01*
X132475700Y-102207400D02*
X132478400Y-102181500D01*
X132407800Y-102633600D02*
X132475700Y-102207400D01*
X132296400Y-103050900D02*
X132407800Y-102633600D01*
X132288200Y-103075900D02*
X132296400Y-103050900D01*
X132133300Y-103478700D02*
X132288200Y-103075900D01*
X131931300Y-103875200D02*
X132133300Y-103478700D01*
X131689000Y-104248300D02*
X131931300Y-103875200D01*
X131409000Y-104594100D02*
X131689000Y-104248300D01*
X131094400Y-104908700D02*
X131409000Y-104594100D01*
X130748700Y-105188700D02*
X131094400Y-104908700D01*
X130375500Y-105431100D02*
X130748700Y-105188700D01*
X129979100Y-105633100D02*
X130375500Y-105431100D01*
X129563700Y-105792600D02*
X129979100Y-105633100D01*
X129134000Y-105907800D02*
X129563700Y-105792600D01*
X128694500Y-105977400D02*
X129134000Y-105907800D01*
X128256600Y-106000700D02*
X128694500Y-105977400D01*
X102241300Y-106001000D02*
X128256600Y-106000700D01*
X102144000Y-106005800D02*
X102241300Y-106001000D01*
X102047900Y-106020100D02*
X102144000Y-106005800D01*
X101953600Y-106043700D02*
X102047900Y-106020100D01*
X101862200Y-106076400D02*
X101953600Y-106043700D01*
X101774300Y-106117900D02*
X101862200Y-106076400D01*
X101691000Y-106167900D02*
X101774300Y-106117900D01*
X101613000Y-106225800D02*
X101691000Y-106167900D01*
X101541000Y-106291000D02*
X101613000Y-106225800D01*
X101475700Y-106363000D02*
X101541000Y-106291000D01*
X101417900Y-106441000D02*
X101475700Y-106363000D01*
X101367900Y-106524300D02*
X101417900Y-106441000D01*
X101326400Y-106612200D02*
X101367900Y-106524300D01*
X101293700Y-106703600D02*
X101326400Y-106612200D01*
X101270000Y-106797900D02*
X101293700Y-106703600D01*
X101255800Y-106894000D02*
X101270000Y-106797900D01*
X101251000Y-106991300D02*
X101255800Y-106894000D01*
X101251000Y-107508800D02*
X101251000Y-106991300D01*
X101255800Y-107606100D02*
X101251000Y-107508800D01*
X101270000Y-107702200D02*
X101255800Y-107606100D01*
X101293700Y-107796500D02*
X101270000Y-107702200D01*
X101326400Y-107887900D02*
X101293700Y-107796500D01*
X101367900Y-107975800D02*
X101326400Y-107887900D01*
X101417900Y-108059100D02*
X101367900Y-107975800D01*
X101475700Y-108137100D02*
X101417900Y-108059100D01*
X101541000Y-108209100D02*
X101475700Y-108137100D01*
X101613000Y-108274400D02*
X101541000Y-108209100D01*
X101691000Y-108332200D02*
X101613000Y-108274400D01*
X101774300Y-108382200D02*
X101691000Y-108332200D01*
X101862200Y-108423700D02*
X101774300Y-108382200D01*
X101953600Y-108456400D02*
X101862200Y-108423700D01*
X102047900Y-108480000D02*
X101953600Y-108456400D01*
X102144000Y-108494300D02*
X102047900Y-108480000D01*
X102241300Y-108499100D02*
X102144000Y-108494300D01*
X128249900Y-108499200D02*
X102241300Y-108499100D01*
X128694600Y-108522700D02*
X128249900Y-108499200D01*
X129134000Y-108592300D02*
X128694600Y-108522700D01*
X129563800Y-108707500D02*
X129134000Y-108592300D01*
X129966700Y-108861800D02*
X129563800Y-108707500D01*
X129990700Y-108872500D02*
X129966700Y-108861800D01*
X130363800Y-109062600D02*
X129990700Y-108872500D01*
X130386500Y-109075700D02*
X130363800Y-109062600D01*
X130748300Y-109311100D02*
X130386500Y-109075700D01*
X131084200Y-109582700D02*
X130748300Y-109311100D01*
X131103800Y-109600200D02*
X131084200Y-109582700D01*
X131408700Y-109905600D02*
X131103800Y-109600200D01*
X131688700Y-110251400D02*
X131408700Y-109905600D01*
X131931300Y-110625000D02*
X131688700Y-110251400D01*
X132127500Y-111009300D02*
X131931300Y-110625000D01*
X132138200Y-111033300D02*
X132127500Y-111009300D01*
X132288200Y-111424100D02*
X132138200Y-111033300D01*
X132296300Y-111449100D02*
X132288200Y-111424100D01*
X132407700Y-111866100D02*
X132296300Y-111449100D01*
X132475700Y-112292700D02*
X132407700Y-111866100D01*
X132478400Y-112318800D02*
X132475700Y-112292700D01*
X132500900Y-112750200D02*
X132478400Y-112318800D01*
X132501000Y-113639800D02*
X132500900Y-112750200D01*
X132496800Y-113732100D02*
X132501000Y-113639800D01*
X132494300Y-113756700D02*
X132496800Y-113732100D01*
X132481400Y-113841700D02*
X132494300Y-113756700D01*
X132457300Y-113937300D02*
X132481400Y-113841700D01*
X132424000Y-114030100D02*
X132457300Y-113937300D01*
X132381800Y-114119100D02*
X132424000Y-114030100D01*
X132330700Y-114204000D02*
X132381800Y-114119100D01*
X132279600Y-114273000D02*
X132330700Y-114204000D01*
X132263800Y-114292100D02*
X132279600Y-114273000D01*
X132205700Y-114355500D02*
X132263800Y-114292100D01*
X132141700Y-114413500D02*
X132205700Y-114355500D01*
X132062800Y-114473100D02*
X132141700Y-114413500D01*
X131968400Y-114530300D02*
X132062800Y-114473100D01*
X131879100Y-114572100D02*
X131968400Y-114530300D01*
X131600100Y-114670800D02*
X131879100Y-114572100D01*
X131509400Y-114707900D02*
X131600100Y-114670800D01*
X131375300Y-114770600D02*
X131509400Y-114707900D01*
X131288700Y-114816500D02*
X131375300Y-114770600D01*
X131161400Y-114892100D02*
X131288700Y-114816500D01*
X131079800Y-114946200D02*
X131161400Y-114892100D01*
X130960600Y-115034000D02*
X131079800Y-114946200D01*
X130884600Y-115095900D02*
X130960600Y-115034000D01*
X130774600Y-115195000D02*
X130884600Y-115095900D01*
X130705100Y-115264100D02*
X130774600Y-115195000D01*
X130605400Y-115373500D02*
X130705100Y-115264100D01*
X130543000Y-115449100D02*
X130605400Y-115373500D01*
X130454500Y-115567800D02*
X130543000Y-115449100D01*
X130399900Y-115649100D02*
X130454500Y-115567800D01*
X130323600Y-115776000D02*
X130399900Y-115649100D01*
X130277200Y-115862300D02*
X130323600Y-115776000D01*
X130213700Y-115996000D02*
X130277200Y-115862300D01*
X130176000Y-116086500D02*
X130213700Y-115996000D01*
X130126000Y-116225800D02*
X130176000Y-116086500D01*
X130097400Y-116319600D02*
X130126000Y-116225800D01*
X130061300Y-116463100D02*
X130097400Y-116319600D01*
X130042200Y-116559300D02*
X130061300Y-116463100D01*
X130020400Y-116705700D02*
X130042200Y-116559300D01*
X130010700Y-116803200D02*
X130020400Y-116705700D01*
X130003400Y-116951000D02*
X130010700Y-116803200D01*
X130003400Y-117049100D02*
X130003400Y-116951000D01*
X130010700Y-117196900D02*
X130003400Y-117049100D01*
X130020400Y-117294400D02*
X130010700Y-117196900D01*
X130042200Y-117440900D02*
X130020400Y-117294400D01*
X130061300Y-117537000D02*
X130042200Y-117440900D01*
X130097400Y-117680500D02*
X130061300Y-117537000D01*
X130126000Y-117774300D02*
X130097400Y-117680500D01*
X130176000Y-117913600D02*
X130126000Y-117774300D01*
X130213700Y-118004100D02*
X130176000Y-117913600D01*
X130277200Y-118137800D02*
X130213700Y-118004100D01*
X130323600Y-118224100D02*
X130277200Y-118137800D01*
X130399900Y-118351000D02*
X130323600Y-118224100D01*
X130454500Y-118432300D02*
X130399900Y-118351000D01*
X130543000Y-118551000D02*
X130454500Y-118432300D01*
X130605400Y-118626600D02*
X130543000Y-118551000D01*
X130705100Y-118736000D02*
X130605400Y-118626600D01*
X130774600Y-118805100D02*
X130705100Y-118736000D01*
X130884600Y-118904200D02*
X130774600Y-118805100D01*
X130960600Y-118966100D02*
X130884600Y-118904200D01*
X131079800Y-119053900D02*
X130960600Y-118966100D01*
X131161500Y-119108000D02*
X131079800Y-119053900D01*
X131288700Y-119183600D02*
X131161500Y-119108000D01*
X131375300Y-119229500D02*
X131288700Y-119183600D01*
X131509400Y-119292200D02*
X131375300Y-119229500D01*
X131600100Y-119329300D02*
X131509400Y-119292200D01*
X131878700Y-119427900D02*
X131600100Y-119329300D01*
X131957300Y-119464300D02*
X131878700Y-119427900D01*
X132052700Y-119520000D02*
X131957300Y-119464300D01*
X132132100Y-119578400D02*
X132052700Y-119520000D01*
X132196500Y-119636000D02*
X132132100Y-119578400D01*
X132214100Y-119653400D02*
X132196500Y-119636000D01*
X132272100Y-119717500D02*
X132214100Y-119653400D01*
X132330700Y-119796200D02*
X132272100Y-119717500D01*
X132375500Y-119870000D02*
X132330700Y-119796200D01*
X132387200Y-119891800D02*
X132375500Y-119870000D01*
X132423900Y-119969600D02*
X132387200Y-119891800D01*
X132453400Y-120050900D02*
X132423900Y-119969600D01*
X132460600Y-120074500D02*
X132453400Y-120050900D01*
X132483400Y-120170400D02*
X132460600Y-120074500D01*
X132495900Y-120256000D02*
X132483400Y-120170400D01*
X132500900Y-120354300D02*
X132495900Y-120256000D01*
X132500900Y-121250000D02*
X132500900Y-120354300D01*
X132477300Y-121694700D02*
X132500900Y-121250000D01*
X132407800Y-122133600D02*
X132477300Y-121694700D01*
X132296400Y-122551000D02*
X132407800Y-122133600D01*
X132288200Y-122576000D02*
X132296400Y-122551000D01*
X132133300Y-122978700D02*
X132288200Y-122576000D01*
X131931000Y-123375600D02*
X132133300Y-122978700D01*
X131696300Y-123737700D02*
X131931000Y-123375600D01*
X131680900Y-123758900D02*
X131696300Y-123737700D01*
X131409000Y-124094100D02*
X131680900Y-123758900D01*
X131103800Y-124399800D02*
X131409000Y-124094100D01*
X131084300Y-124417400D02*
X131103800Y-124399800D01*
X130748700Y-124688800D02*
X131084300Y-124417400D01*
X130375100Y-124931400D02*
X130748700Y-124688800D01*
X129990800Y-125127600D02*
X130375100Y-124931400D01*
X129966800Y-125138200D02*
X129990800Y-125127600D01*
X129563700Y-125292600D02*
X129966800Y-125138200D01*
X129146600Y-125404800D02*
X129563700Y-125292600D01*
X129120900Y-125410200D02*
X129146600Y-125404800D01*
X128707100Y-125475700D02*
X129120900Y-125410200D01*
X128681200Y-125478500D02*
X128707100Y-125475700D01*
X128243500Y-125501100D02*
X128681200Y-125478500D01*
X102241300Y-125501100D02*
X128243500Y-125501100D01*
X102144000Y-125505800D02*
X102241300Y-125501100D01*
X102047900Y-125520100D02*
X102144000Y-125505800D01*
X101953600Y-125543700D02*
X102047900Y-125520100D01*
X101862200Y-125576400D02*
X101953600Y-125543700D01*
X101774300Y-125618000D02*
X101862200Y-125576400D01*
X101691000Y-125667900D02*
X101774300Y-125618000D01*
X101613000Y-125725800D02*
X101691000Y-125667900D01*
X101541000Y-125791000D02*
X101613000Y-125725800D01*
X101475700Y-125863000D02*
X101541000Y-125791000D01*
X101417900Y-125941100D02*
X101475700Y-125863000D01*
X101367900Y-126024400D02*
X101417900Y-125941100D01*
X101326400Y-126112200D02*
X101367900Y-126024400D01*
X101293700Y-126203700D02*
X101326400Y-126112200D01*
X101270000Y-126297900D02*
X101293700Y-126203700D01*
X101255800Y-126394000D02*
X101270000Y-126297900D01*
X101251000Y-126491300D02*
X101255800Y-126394000D01*
X101251000Y-127009800D02*
X101251000Y-126491300D01*
X101255800Y-127107100D02*
X101251000Y-127009800D01*
X101270000Y-127203200D02*
X101255800Y-127107100D01*
X101293700Y-127297400D02*
X101270000Y-127203200D01*
X101326400Y-127388900D02*
X101293700Y-127297400D01*
X101367900Y-127476700D02*
X101326400Y-127388900D01*
X101417900Y-127560100D02*
X101367900Y-127476700D01*
X101475700Y-127638100D02*
X101417900Y-127560100D01*
X101541000Y-127710100D02*
X101475700Y-127638100D01*
X101613000Y-127775300D02*
X101541000Y-127710100D01*
X101691000Y-127833200D02*
X101613000Y-127775300D01*
X101774300Y-127883200D02*
X101691000Y-127833200D01*
X101862200Y-127924700D02*
X101774300Y-127883200D01*
X101953600Y-127957400D02*
X101862200Y-127924700D01*
X102047900Y-127981000D02*
X101953600Y-127957400D01*
X102144000Y-127995300D02*
X102047900Y-127981000D01*
X102241300Y-128000100D02*
X102144000Y-127995300D01*
X132491800Y-128000900D02*
X102241300Y-128000100D01*
X132496300Y-128002700D02*
X132491800Y-128000900D01*
X132499700Y-128007400D02*
X132496300Y-128002700D01*
X132501000Y-128024600D02*
X132499700Y-128007400D01*
X132501000Y-131976500D02*
X132501000Y-128024600D01*
X132500200Y-131991900D02*
X132501000Y-131976500D01*
X132497000Y-131997800D02*
X132500200Y-131991900D01*
X132491800Y-132000300D02*
X132497000Y-131997800D01*
X132476500Y-132001100D02*
X132491800Y-132000300D01*
X50023500Y-132001100D02*
X132476500Y-132001100D01*
X50008200Y-132000300D02*
X50023500Y-132001100D01*
X50002300Y-131997100D02*
X50008200Y-132000300D01*
X49999800Y-131991900D02*
X50002300Y-131997100D01*
X49999000Y-131976500D02*
X49999800Y-131991900D01*
X49999000Y-128024600D02*
X49999000Y-131976500D01*
X50000300Y-128007400D02*
X49999000Y-128024600D01*
X50003000Y-128003300D02*
X50000300Y-128007400D01*
X50008200Y-128000900D02*
X50003000Y-128003300D01*
X80258800Y-128000100D02*
X50008200Y-128000900D01*
X80356000Y-127995300D02*
X80258800Y-128000100D01*
X80452100Y-127981000D02*
X80356000Y-127995300D01*
X80546400Y-127957400D02*
X80452100Y-127981000D01*
X80637900Y-127924700D02*
X80546400Y-127957400D01*
X80725700Y-127883200D02*
X80637900Y-127924700D01*
X80809000Y-127833200D02*
X80725700Y-127883200D01*
X80887100Y-127775300D02*
X80809000Y-127833200D01*
X80959000Y-127710100D02*
X80887100Y-127775300D01*
X81024300Y-127638100D02*
X80959000Y-127710100D01*
X81082200Y-127560100D02*
X81024300Y-127638100D01*
X81132100Y-127476700D02*
X81082200Y-127560100D01*
X81173600Y-127388900D02*
X81132100Y-127476700D01*
X81206400Y-127297400D02*
X81173600Y-127388900D01*
X81230000Y-127203200D02*
X81206400Y-127297400D01*
X81244200Y-127107100D02*
X81230000Y-127203200D01*
X81249000Y-127009800D02*
X81244200Y-127107100D01*
X81249000Y-126491300D02*
X81249000Y-127009800D01*
X81244200Y-126394000D02*
X81249000Y-126491300D01*
X81230000Y-126297900D02*
X81244200Y-126394000D01*
X81206400Y-126203700D02*
X81230000Y-126297900D01*
X81173600Y-126112200D02*
X81206400Y-126203700D01*
X81132100Y-126024400D02*
X81173600Y-126112200D01*
X81082200Y-125941100D02*
X81132100Y-126024400D01*
X81024300Y-125863000D02*
X81082200Y-125941100D01*
X80959000Y-125791100D02*
X81024300Y-125863000D01*
X80887100Y-125725800D02*
X80959000Y-125791100D01*
X80809000Y-125667900D02*
X80887100Y-125725800D01*
X80725700Y-125618000D02*
X80809000Y-125667900D01*
X80637900Y-125576500D02*
X80725700Y-125618000D01*
X80546400Y-125543700D02*
X80637900Y-125576500D01*
X80452100Y-125520100D02*
X80546400Y-125543700D01*
X80356000Y-125505900D02*
X80452100Y-125520100D01*
X80258800Y-125501100D02*
X80356000Y-125505900D01*
X54256600Y-125501100D02*
X80258800Y-125501100D01*
X53805900Y-125477400D02*
X54256600Y-125501100D01*
X53378900Y-125410200D02*
X53805900Y-125477400D01*
X53353500Y-125404800D02*
X53378900Y-125410200D01*
X52949100Y-125296400D02*
X53353500Y-125404800D01*
X52924100Y-125288300D02*
X52949100Y-125296400D01*
X52520800Y-125133100D02*
X52924100Y-125288300D01*
X52124400Y-124931100D02*
X52520800Y-125133100D01*
X51751700Y-124689000D02*
X52124400Y-124931100D01*
X51415800Y-124417400D02*
X51751700Y-124689000D01*
X51396200Y-124399900D02*
X51415800Y-124417400D01*
X51100200Y-124103800D02*
X51396200Y-124399900D01*
X51082600Y-124084300D02*
X51100200Y-124103800D01*
X50811000Y-123748300D02*
X51082600Y-124084300D01*
X50568900Y-123375600D02*
X50811000Y-123748300D01*
X50366900Y-122979200D02*
X50568900Y-123375600D01*
X50211800Y-122576000D02*
X50366900Y-122979200D01*
X50203700Y-122551000D02*
X50211800Y-122576000D01*
X50095300Y-122146600D02*
X50203700Y-122551000D01*
X50089800Y-122120900D02*
X50095300Y-122146600D01*
X50022600Y-121694100D02*
X50089800Y-122120900D01*
X49999000Y-121243500D02*
X50022600Y-121694100D01*
X49999000Y-120360400D02*
X49999000Y-121243500D01*
X50004100Y-120255900D02*
X49999000Y-120360400D01*
X50018600Y-120158400D02*
X50004100Y-120255900D01*
X50042800Y-120062400D02*
X50018600Y-120158400D01*
X50076100Y-119969600D02*
X50042800Y-120062400D01*
X50112700Y-119891900D02*
X50076100Y-119969600D01*
X50124400Y-119870100D02*
X50112700Y-119891900D01*
X50176300Y-119786300D02*
X50124400Y-119870100D01*
X50227900Y-119717500D02*
X50176300Y-119786300D01*
X50285900Y-119653400D02*
X50227900Y-119717500D01*
X50303500Y-119636000D02*
X50285900Y-119653400D01*
X50367600Y-119578700D02*
X50303500Y-119636000D01*
X50437200Y-119527000D02*
X50367600Y-119578700D01*
X50531700Y-119469800D02*
X50437200Y-119527000D01*
X50620900Y-119428000D02*
X50531700Y-119469800D01*
X50899900Y-119329300D02*
X50620900Y-119428000D01*
X50990600Y-119292200D02*
X50899900Y-119329300D01*
X51124700Y-119229500D02*
X50990600Y-119292200D01*
X51211300Y-119183600D02*
X51124700Y-119229500D01*
X51338600Y-119108000D02*
X51211300Y-119183600D01*
X51420200Y-119053900D02*
X51338600Y-119108000D01*
X51539400Y-118966100D02*
X51420200Y-119053900D01*
X51615400Y-118904200D02*
X51539400Y-118966100D01*
X51725400Y-118805100D02*
X51615400Y-118904200D01*
X51794900Y-118736000D02*
X51725400Y-118805100D01*
X51894600Y-118626600D02*
X51794900Y-118736000D01*
X51957000Y-118551000D02*
X51894600Y-118626600D01*
X52045500Y-118432300D02*
X51957000Y-118551000D01*
X52100100Y-118351000D02*
X52045500Y-118432300D01*
X52176400Y-118224100D02*
X52100100Y-118351000D01*
X52222800Y-118137800D02*
X52176400Y-118224100D01*
X52286300Y-118004100D02*
X52222800Y-118137800D01*
X52324000Y-117913600D02*
X52286300Y-118004100D01*
X52374000Y-117774300D02*
X52324000Y-117913600D01*
X52402600Y-117680500D02*
X52374000Y-117774300D01*
X52438700Y-117537000D02*
X52402600Y-117680500D01*
X52457800Y-117440900D02*
X52438700Y-117537000D01*
X52479700Y-117294400D02*
X52457800Y-117440900D01*
X52489300Y-117196900D02*
X52479700Y-117294400D01*
X52496600Y-117049100D02*
X52489300Y-117196900D01*
X52496600Y-116951000D02*
X52496600Y-117049100D01*
X52489300Y-116803200D02*
X52496600Y-116951000D01*
X52479700Y-116705700D02*
X52489300Y-116803200D01*
X52457800Y-116559300D02*
X52479700Y-116705700D01*
X52438700Y-116463100D02*
X52457800Y-116559300D01*
X52402600Y-116319600D02*
X52438700Y-116463100D01*
X52374000Y-116225800D02*
X52402600Y-116319600D01*
X52324000Y-116086500D02*
X52374000Y-116225800D01*
X52286300Y-115996000D02*
X52324000Y-116086500D01*
X52222800Y-115862300D02*
X52286300Y-115996000D01*
X52176400Y-115776000D02*
X52222800Y-115862300D01*
X52100100Y-115649100D02*
X52176400Y-115776000D01*
X52045500Y-115567800D02*
X52100100Y-115649100D01*
X51957000Y-115449100D02*
X52045500Y-115567800D01*
X51894600Y-115373500D02*
X51957000Y-115449100D01*
X51794900Y-115264100D02*
X51894600Y-115373500D01*
X51725400Y-115195000D02*
X51794900Y-115264100D01*
X51615400Y-115095900D02*
X51725400Y-115195000D01*
X51539400Y-115034000D02*
X51615400Y-115095900D01*
X51420200Y-114946200D02*
X51539400Y-115034000D01*
X51338600Y-114892100D02*
X51420200Y-114946200D01*
X51211300Y-114816500D02*
X51338600Y-114892100D01*
X51124700Y-114770600D02*
X51211300Y-114816500D01*
X50990600Y-114707900D02*
X51124700Y-114770600D01*
X50899900Y-114670800D02*
X50990600Y-114707900D01*
X50621300Y-114572200D02*
X50899900Y-114670800D01*
X50542900Y-114535900D02*
X50621300Y-114572200D01*
X50521100Y-114524300D02*
X50542900Y-114535900D01*
X50447300Y-114480200D02*
X50521100Y-114524300D01*
X50377500Y-114429200D02*
X50447300Y-114480200D01*
X50358300Y-114413600D02*
X50377500Y-114429200D01*
X50294600Y-114355800D02*
X50358300Y-114413600D01*
X50236200Y-114292100D02*
X50294600Y-114355800D01*
X50220600Y-114273200D02*
X50236200Y-114292100D01*
X50162500Y-114193300D02*
X50220600Y-114273200D01*
X50118400Y-114119500D02*
X50162500Y-114193300D01*
X50081100Y-114041600D02*
X50118400Y-114119500D01*
X50071600Y-114018700D02*
X50081100Y-114041600D01*
X50039400Y-113925600D02*
X50071600Y-114018700D01*
X50018600Y-113841600D02*
X50039400Y-113925600D01*
X50003300Y-113732300D02*
X50018600Y-113841600D01*
X49999000Y-113639800D02*
X50003300Y-113732300D01*
X49999000Y-112756700D02*
X49999000Y-113639800D01*
X50022600Y-112306000D02*
X49999000Y-112756700D01*
X50092200Y-111866500D02*
X50022600Y-112306000D01*
X50207500Y-111436300D02*
X50092200Y-111866500D01*
X50361800Y-111033300D02*
X50207500Y-111436300D01*
X50372500Y-111009300D02*
X50361800Y-111033300D01*
X50562500Y-110636300D02*
X50372500Y-111009300D01*
X50575700Y-110613500D02*
X50562500Y-110636300D01*
X50811000Y-110251800D02*
X50575700Y-110613500D01*
X51082600Y-109915800D02*
X50811000Y-110251800D01*
X51100200Y-109896300D02*
X51082600Y-109915800D01*
X51405600Y-109591400D02*
X51100200Y-109896300D01*
X51751300Y-109311300D02*
X51405600Y-109591400D01*
X52124500Y-109069000D02*
X51751300Y-109311300D01*
X52521400Y-108866800D02*
X52124500Y-109069000D01*
X52936300Y-108707500D02*
X52521400Y-108866800D01*
X53366000Y-108592300D02*
X52936300Y-108707500D01*
X53805500Y-108522700D02*
X53366000Y-108592300D01*
X54250100Y-108499100D02*
X53805500Y-108522700D01*
X80258800Y-108499100D02*
X54250100Y-108499100D01*
X80356000Y-108494300D02*
X80258800Y-108499100D01*
X80452100Y-108480000D02*
X80356000Y-108494300D01*
X80546400Y-108456400D02*
X80452100Y-108480000D01*
X80637900Y-108423700D02*
X80546400Y-108456400D01*
X80725700Y-108382200D02*
X80637900Y-108423700D01*
X80809000Y-108332200D02*
X80725700Y-108382200D01*
X80887100Y-108274300D02*
X80809000Y-108332200D01*
X80959000Y-108209100D02*
X80887100Y-108274300D01*
X81024300Y-108137100D02*
X80959000Y-108209100D01*
X81082200Y-108059100D02*
X81024300Y-108137100D01*
X81132100Y-107975700D02*
X81082200Y-108059100D01*
X81173600Y-107887900D02*
X81132100Y-107975700D01*
X81206400Y-107796400D02*
X81173600Y-107887900D01*
X81230000Y-107702200D02*
X81206400Y-107796400D01*
X81244200Y-107606100D02*
X81230000Y-107702200D01*
X81249000Y-107508800D02*
X81244200Y-107606100D01*
X81249000Y-106991300D02*
X81249000Y-107508800D01*
X81244200Y-106894000D02*
X81249000Y-106991300D01*
X81230000Y-106797900D02*
X81244200Y-106894000D01*
X81206400Y-106703600D02*
X81230000Y-106797900D01*
X81173600Y-106612200D02*
X81206400Y-106703600D01*
X81132100Y-106524300D02*
X81173600Y-106612200D01*
X81082200Y-106441000D02*
X81132100Y-106524300D01*
X81024300Y-106363000D02*
X81082200Y-106441000D01*
X80959000Y-106291000D02*
X81024300Y-106363000D01*
X80887100Y-106225700D02*
X80959000Y-106291000D01*
X80809000Y-106167900D02*
X80887100Y-106225700D01*
X80725700Y-106117900D02*
X80809000Y-106167900D01*
X80637900Y-106076400D02*
X80725700Y-106117900D01*
X80546400Y-106043700D02*
X80637900Y-106076400D01*
X80452100Y-106020000D02*
X80546400Y-106043700D01*
X80356000Y-106005800D02*
X80452100Y-106020000D01*
X80258800Y-106001000D02*
X80356000Y-106005800D01*
X54256500Y-106001000D02*
X80258800Y-106001000D01*
X53805400Y-105977400D02*
X54256500Y-106001000D01*
X53366000Y-105907700D02*
X53805400Y-105977400D01*
X52949100Y-105796400D02*
X53366000Y-105907700D01*
X52924100Y-105788300D02*
X52949100Y-105796400D01*
X52533300Y-105638200D02*
X52924100Y-105788300D01*
X52509300Y-105627600D02*
X52533300Y-105638200D01*
X52124900Y-105431300D02*
X52509300Y-105627600D01*
X51762400Y-105196300D02*
X52124900Y-105431300D01*
X51741100Y-105180900D02*
X51762400Y-105196300D01*
X51405900Y-104909000D02*
X51741100Y-105180900D01*
X51091300Y-104594500D02*
X51405900Y-104909000D01*
X50811300Y-104248700D02*
X51091300Y-104594500D01*
X50568700Y-103875100D02*
X50811300Y-104248700D01*
X50366900Y-103479100D02*
X50568700Y-103875100D01*
X50211800Y-103076000D02*
X50366900Y-103479100D01*
X50203700Y-103051000D02*
X50211800Y-103076000D01*
X50095300Y-102646600D02*
X50203700Y-103051000D01*
X50089800Y-102620900D02*
X50095300Y-102646600D01*
X50022600Y-102194100D02*
X50089800Y-102620900D01*
X49999100Y-101749900D02*
X50022600Y-102194100D01*
X49999100Y-100853900D02*
X49999100Y-101749900D01*
X50004100Y-100755900D02*
X49999100Y-100853900D01*
X50016600Y-100670400D02*
X50004100Y-100755900D01*
X50021400Y-100646100D02*
X50016600Y-100670400D01*
X50042700Y-100562800D02*
X50021400Y-100646100D01*
X50071600Y-100481400D02*
X50042700Y-100562800D01*
X50081100Y-100458500D02*
X50071600Y-100481400D01*
X50118500Y-100380600D02*
X50081100Y-100458500D01*
X50169100Y-100296500D02*
X50118500Y-100380600D01*
X50227900Y-100217500D02*
X50169100Y-100296500D01*
X50285900Y-100153400D02*
X50227900Y-100217500D01*
X50303500Y-100136000D02*
X50285900Y-100153400D01*
X50367900Y-100078300D02*
X50303500Y-100136000D01*
X50447300Y-100019900D02*
X50367900Y-100078300D01*
X50542700Y-99964300D02*
X50447300Y-100019900D01*
X50621400Y-99927800D02*
X50542700Y-99964300D01*
X50899900Y-99829300D02*
X50621400Y-99927800D01*
X50990600Y-99792200D02*
X50899900Y-99829300D01*
X51124700Y-99729500D02*
X50990600Y-99792200D01*
X51211300Y-99683600D02*
X51124700Y-99729500D01*
X51338600Y-99608000D02*
X51211300Y-99683600D01*
X51420200Y-99553900D02*
X51338600Y-99608000D01*
X51539400Y-99466100D02*
X51420200Y-99553900D01*
X51615400Y-99404200D02*
X51539400Y-99466100D01*
X51725400Y-99305100D02*
X51615400Y-99404200D01*
X51794900Y-99236000D02*
X51725400Y-99305100D01*
X51894600Y-99126600D02*
X51794900Y-99236000D01*
X51957000Y-99051000D02*
X51894600Y-99126600D01*
X52045500Y-98932300D02*
X51957000Y-99051000D01*
X52100100Y-98850900D02*
X52045500Y-98932300D01*
X52176400Y-98724100D02*
X52100100Y-98850900D01*
X52222800Y-98637800D02*
X52176400Y-98724100D01*
X52286300Y-98504100D02*
X52222800Y-98637800D01*
X52324000Y-98413600D02*
X52286300Y-98504100D01*
X52374000Y-98274300D02*
X52324000Y-98413600D01*
X52402600Y-98180500D02*
X52374000Y-98274300D01*
X52438700Y-98036900D02*
X52402600Y-98180500D01*
X52457800Y-97940800D02*
X52438700Y-98036900D01*
X52479700Y-97794400D02*
X52457800Y-97940800D01*
X52489300Y-97696900D02*
X52479700Y-97794400D01*
X52496600Y-97549000D02*
X52489300Y-97696900D01*
X52496600Y-97451000D02*
X52496600Y-97549000D01*
X52489300Y-97303200D02*
X52496600Y-97451000D01*
X52479700Y-97205600D02*
X52489300Y-97303200D01*
X52457800Y-97059200D02*
X52479700Y-97205600D01*
X52438700Y-96963100D02*
X52457800Y-97059200D01*
X52402600Y-96819600D02*
X52438700Y-96963100D01*
X52374000Y-96725800D02*
X52402600Y-96819600D01*
X52324000Y-96586500D02*
X52374000Y-96725800D01*
X52286300Y-96496000D02*
X52324000Y-96586500D01*
X52222800Y-96362300D02*
X52286300Y-96496000D01*
X52176400Y-96275900D02*
X52222800Y-96362300D01*
X52100100Y-96149100D02*
X52176400Y-96275900D01*
X52045500Y-96067800D02*
X52100100Y-96149100D01*
X51957000Y-95949100D02*
X52045500Y-96067800D01*
X51894600Y-95873500D02*
X51957000Y-95949100D01*
X51794900Y-95764100D02*
X51894600Y-95873500D01*
X51725400Y-95695000D02*
X51794900Y-95764100D01*
X51615400Y-95595900D02*
X51725400Y-95695000D01*
X51539400Y-95534000D02*
X51615400Y-95595900D01*
X51420200Y-95446200D02*
X51539400Y-95534000D01*
X51338600Y-95392000D02*
X51420200Y-95446200D01*
X51211300Y-95316400D02*
X51338600Y-95392000D01*
X51124700Y-95270600D02*
X51211300Y-95316400D01*
X50990600Y-95207900D02*
X51124700Y-95270600D01*
X50899900Y-95170800D02*
X50990600Y-95207900D01*
X50620900Y-95072000D02*
X50899900Y-95170800D01*
X50531600Y-95030200D02*
X50620900Y-95072000D01*
X50437200Y-94973100D02*
X50531600Y-95030200D01*
X50358300Y-94913500D02*
X50437200Y-94973100D01*
X50294600Y-94855800D02*
X50358300Y-94913500D01*
X50236200Y-94792100D02*
X50294600Y-94855800D01*
X50220500Y-94773000D02*
X50236200Y-94792100D01*
X50169300Y-94703900D02*
X50220500Y-94773000D01*
X50118400Y-94619500D02*
X50169300Y-94703900D01*
X50076100Y-94530400D02*
X50118400Y-94619500D01*
X50042600Y-94437200D02*
X50076100Y-94530400D01*
X50018600Y-94341600D02*
X50042600Y-94437200D01*
X50005700Y-94256700D02*
X50018600Y-94341600D01*
X50003200Y-94232100D02*
X50005700Y-94256700D01*
X49999000Y-94139800D02*
X50003200Y-94232100D01*
X49999100Y-93250100D02*
X49999000Y-94139800D01*
X50022700Y-92805400D02*
X49999100Y-93250100D01*
X50092300Y-92366000D02*
X50022700Y-92805400D01*
X50203600Y-91949100D02*
X50092300Y-92366000D01*
X50211800Y-91924100D02*
X50203600Y-91949100D01*
X50361800Y-91533300D02*
X50211800Y-91924100D01*
X50372500Y-91509300D02*
X50361800Y-91533300D01*
X50568700Y-91124900D02*
X50372500Y-91509300D01*
X50803700Y-90762400D02*
X50568700Y-91124900D01*
X50819100Y-90741100D02*
X50803700Y-90762400D01*
X51091000Y-90406000D02*
X50819100Y-90741100D01*
X51405600Y-90091300D02*
X51091000Y-90406000D01*
X51751800Y-89811000D02*
X51405600Y-90091300D01*
X52113500Y-89575700D02*
X51751800Y-89811000D01*
X52136200Y-89562600D02*
X52113500Y-89575700D01*
X52509200Y-89372500D02*
X52136200Y-89562600D01*
X52533200Y-89361800D02*
X52509200Y-89372500D01*
X52936300Y-89207500D02*
X52533200Y-89361800D01*
X53353400Y-89095300D02*
X52936300Y-89207500D01*
X53379100Y-89089900D02*
X53353400Y-89095300D01*
X53805500Y-89022700D02*
X53379100Y-89089900D01*
X54250100Y-88999100D02*
X53805500Y-89022700D01*
X80258800Y-88999000D02*
X54250100Y-88999100D01*
X80356000Y-88994200D02*
X80258800Y-88999000D01*
X80452100Y-88980000D02*
X80356000Y-88994200D01*
X80546400Y-88956400D02*
X80452100Y-88980000D01*
X80637900Y-88923700D02*
X80546400Y-88956400D01*
X80725700Y-88882100D02*
X80637900Y-88923700D01*
X80809000Y-88832200D02*
X80725700Y-88882100D01*
X80887100Y-88774300D02*
X80809000Y-88832200D01*
X80959000Y-88709000D02*
X80887100Y-88774300D01*
X81024300Y-88637100D02*
X80959000Y-88709000D01*
X81082200Y-88559000D02*
X81024300Y-88637100D01*
X81132100Y-88475700D02*
X81082200Y-88559000D01*
X81173600Y-88387900D02*
X81132100Y-88475700D01*
X81206400Y-88296400D02*
X81173600Y-88387900D01*
X81230000Y-88202200D02*
X81206400Y-88296400D01*
X81244200Y-88106100D02*
X81230000Y-88202200D01*
X81249000Y-88008800D02*
X81244200Y-88106100D01*
X81249000Y-87491300D02*
X81249000Y-88008800D01*
X81244200Y-87394000D02*
X81249000Y-87491300D01*
X81230000Y-87297900D02*
X81244200Y-87394000D01*
X81206400Y-87203600D02*
X81230000Y-87297900D01*
X81173600Y-87112200D02*
X81206400Y-87203600D01*
X81132100Y-87024300D02*
X81173600Y-87112200D01*
X81082200Y-86941000D02*
X81132100Y-87024300D01*
X81024300Y-86863000D02*
X81082200Y-86941000D01*
X80959000Y-86791000D02*
X81024300Y-86863000D01*
X80887100Y-86725700D02*
X80959000Y-86791000D01*
X80809000Y-86667900D02*
X80887100Y-86725700D01*
X80725700Y-86617900D02*
X80809000Y-86667900D01*
X80637900Y-86576400D02*
X80725700Y-86617900D01*
X80546400Y-86543600D02*
X80637900Y-86576400D01*
X80452100Y-86520000D02*
X80546400Y-86543600D01*
X80356000Y-86505800D02*
X80452100Y-86520000D01*
X80258800Y-86501000D02*
X80356000Y-86505800D01*
X54250100Y-86500900D02*
X80258800Y-86501000D01*
X53818800Y-86478400D02*
X54250100Y-86500900D01*
X53792700Y-86475700D02*
X53818800Y-86478400D01*
X53366500Y-86407800D02*
X53792700Y-86475700D01*
X52949100Y-86296400D02*
X53366500Y-86407800D01*
X52924100Y-86288300D02*
X52949100Y-86296400D01*
X52521300Y-86133300D02*
X52924100Y-86288300D01*
X52124900Y-85931300D02*
X52521300Y-86133300D01*
X51751300Y-85688700D02*
X52124900Y-85931300D01*
X51415800Y-85417400D02*
X51751300Y-85688700D01*
X51396200Y-85399800D02*
X51415800Y-85417400D01*
X51100200Y-85103800D02*
X51396200Y-85399800D01*
X51082600Y-85084300D02*
X51100200Y-85103800D01*
X50811300Y-84748700D02*
X51082600Y-85084300D01*
X50575700Y-84386600D02*
X50811300Y-84748700D01*
X50562600Y-84363800D02*
X50575700Y-84386600D01*
X50366900Y-83979100D02*
X50562600Y-84363800D01*
X50207500Y-83563800D02*
X50366900Y-83979100D01*
X50092200Y-83133500D02*
X50207500Y-83563800D01*
X50024300Y-82707400D02*
X50092200Y-83133500D01*
X50021600Y-82681500D02*
X50024300Y-82707400D01*
X49999000Y-82243600D02*
X50021600Y-82681500D01*
X49999000Y-81360300D02*
X49999000Y-82243600D01*
X50003200Y-81268000D02*
X49999000Y-81360300D01*
X50005700Y-81243400D02*
X50003200Y-81268000D01*
X50018600Y-81158400D02*
X50005700Y-81243400D01*
X50042700Y-81062800D02*
X50018600Y-81158400D01*
X50076000Y-80970000D02*
X50042700Y-81062800D01*
X50118500Y-80880500D02*
X50076000Y-80970000D01*
X50169300Y-80796100D02*
X50118500Y-80880500D01*
X50220400Y-80727000D02*
X50169300Y-80796100D01*
X50236200Y-80708000D02*
X50220400Y-80727000D01*
X50294300Y-80644600D02*
X50236200Y-80708000D01*
X50358300Y-80586500D02*
X50294300Y-80644600D01*
X50437200Y-80527000D02*
X50358300Y-80586500D01*
X50531700Y-80469800D02*
X50437200Y-80527000D01*
X50620900Y-80428000D02*
X50531700Y-80469800D01*
X50899900Y-80329300D02*
X50620900Y-80428000D01*
X50990600Y-80292200D02*
X50899900Y-80329300D01*
X51124700Y-80229500D02*
X50990600Y-80292200D01*
X51211300Y-80183600D02*
X51124700Y-80229500D01*
X51338600Y-80108000D02*
X51211300Y-80183600D01*
X51420200Y-80053900D02*
X51338600Y-80108000D01*
X51539400Y-79966100D02*
X51420200Y-80053900D01*
X51615400Y-79904200D02*
X51539400Y-79966100D01*
X51725400Y-79805100D02*
X51615400Y-79904200D01*
X51794900Y-79736000D02*
X51725400Y-79805100D01*
X51894600Y-79626600D02*
X51794900Y-79736000D01*
X51957000Y-79551000D02*
X51894600Y-79626600D01*
X52045500Y-79432300D02*
X51957000Y-79551000D01*
X52100100Y-79350900D02*
X52045500Y-79432300D01*
X52176400Y-79224100D02*
X52100100Y-79350900D01*
X52222800Y-79137800D02*
X52176400Y-79224100D01*
X52286300Y-79004100D02*
X52222800Y-79137800D01*
X52324000Y-78913600D02*
X52286300Y-79004100D01*
X52374000Y-78774200D02*
X52324000Y-78913600D01*
X52402600Y-78680500D02*
X52374000Y-78774200D01*
X52438700Y-78536900D02*
X52402600Y-78680500D01*
X52457800Y-78440800D02*
X52438700Y-78536900D01*
X52479700Y-78294400D02*
X52457800Y-78440800D01*
X52489300Y-78196900D02*
X52479700Y-78294400D01*
X52496600Y-78049000D02*
X52489300Y-78196900D01*
X52496600Y-77951000D02*
X52496600Y-78049000D01*
X52489300Y-77803200D02*
X52496600Y-77951000D01*
X52479700Y-77705600D02*
X52489300Y-77803200D01*
X52457800Y-77559200D02*
X52479700Y-77705600D01*
X52438700Y-77463100D02*
X52457800Y-77559200D01*
X52402600Y-77319500D02*
X52438700Y-77463100D01*
X52374000Y-77225800D02*
X52402600Y-77319500D01*
X52324000Y-77086500D02*
X52374000Y-77225800D01*
X52286300Y-76996000D02*
X52324000Y-77086500D01*
X52222800Y-76862300D02*
X52286300Y-76996000D01*
X52176400Y-76775900D02*
X52222800Y-76862300D01*
X52100100Y-76649100D02*
X52176400Y-76775900D01*
X52045500Y-76567700D02*
X52100100Y-76649100D01*
X51957000Y-76449000D02*
X52045500Y-76567700D01*
X51894600Y-76373400D02*
X51957000Y-76449000D01*
X51794900Y-76264000D02*
X51894600Y-76373400D01*
X51725400Y-76194900D02*
X51794900Y-76264000D01*
X51615400Y-76095900D02*
X51725400Y-76194900D01*
X51539400Y-76033900D02*
X51615400Y-76095900D01*
X51420200Y-75946200D02*
X51539400Y-76033900D01*
X51338600Y-75892000D02*
X51420200Y-75946200D01*
X51211300Y-75816400D02*
X51338600Y-75892000D01*
X51124700Y-75770600D02*
X51211300Y-75816400D01*
X50990600Y-75707800D02*
X51124700Y-75770600D01*
X50899900Y-75670700D02*
X50990600Y-75707800D01*
X50632700Y-75576500D02*
X50899900Y-75670700D01*
X50609800Y-75567200D02*
X50632700Y-75576500D01*
X50532000Y-75530400D02*
X50609800Y-75567200D01*
X50457600Y-75486600D02*
X50532000Y-75530400D01*
X50437000Y-75472900D02*
X50457600Y-75486600D01*
X50367500Y-75421400D02*
X50437000Y-75472900D01*
X50294600Y-75355700D02*
X50367500Y-75421400D01*
X50228200Y-75282900D02*
X50294600Y-75355700D01*
X50169300Y-75203900D02*
X50228200Y-75282900D01*
X50124500Y-75130000D02*
X50169300Y-75203900D01*
X50112800Y-75108200D02*
X50124500Y-75130000D01*
X50071600Y-75018700D02*
X50112800Y-75108200D01*
X50042600Y-74937200D02*
X50071600Y-75018700D01*
X50018600Y-74841600D02*
X50042600Y-74937200D01*
X50004200Y-74744600D02*
X50018600Y-74841600D01*
X49999100Y-74645800D02*
X50004200Y-74744600D01*
X49999000Y-73756600D02*
X49999100Y-74645800D01*
X50021600Y-73318600D02*
X49999000Y-73756600D01*
X50024300Y-73292700D02*
X50021600Y-73318600D01*
X50092200Y-72866500D02*
X50024300Y-73292700D01*
X50203600Y-72449100D02*
X50092200Y-72866500D01*
X50211800Y-72424100D02*
X50203600Y-72449100D01*
X50366700Y-72021300D02*
X50211800Y-72424100D01*
X50568700Y-71624900D02*
X50366700Y-72021300D01*
X50811000Y-71251700D02*
X50568700Y-71624900D01*
X51091000Y-70906000D02*
X50811000Y-71251700D01*
X51405600Y-70591300D02*
X51091000Y-70906000D01*
X51751300Y-70311300D02*
X51405600Y-70591300D01*
X52124500Y-70069000D02*
X51751300Y-70311300D01*
X52520900Y-69866900D02*
X52124500Y-70069000D01*
X52936300Y-69707500D02*
X52520900Y-69866900D01*
X53366000Y-69592300D02*
X52936300Y-69707500D01*
X53805500Y-69522700D02*
X53366000Y-69592300D01*
X54243400Y-69499400D02*
X53805500Y-69522700D01*
X80258800Y-69499000D02*
X54243400Y-69499400D01*
X80356000Y-69494200D02*
X80258800Y-69499000D01*
X80452100Y-69480000D02*
X80356000Y-69494200D01*
X80546400Y-69456400D02*
X80452100Y-69480000D01*
X80637900Y-69423600D02*
X80546400Y-69456400D01*
X80725700Y-69382100D02*
X80637900Y-69423600D01*
X80809000Y-69332200D02*
X80725700Y-69382100D01*
X80887100Y-69274300D02*
X80809000Y-69332200D01*
X80959000Y-69209000D02*
X80887100Y-69274300D01*
X81024300Y-69137100D02*
X80959000Y-69209000D01*
X81082200Y-69059000D02*
X81024300Y-69137100D01*
X81132100Y-68975700D02*
X81082200Y-69059000D01*
X81173600Y-68887900D02*
X81132100Y-68975700D01*
X81206400Y-68796400D02*
X81173600Y-68887900D01*
X81230000Y-68702100D02*
X81206400Y-68796400D01*
X81244200Y-68606000D02*
X81230000Y-68702100D01*
X81249000Y-68508800D02*
X81244200Y-68606000D01*
X81249000Y-67991200D02*
X81249000Y-68508800D01*
X81244200Y-67894000D02*
X81249000Y-67991200D01*
X81230000Y-67797900D02*
X81244200Y-67894000D01*
X81206400Y-67703600D02*
X81230000Y-67797900D01*
X81173600Y-67612100D02*
X81206400Y-67703600D01*
X81132100Y-67524300D02*
X81173600Y-67612100D01*
X81082200Y-67441000D02*
X81132100Y-67524300D01*
X81024300Y-67363000D02*
X81082200Y-67441000D01*
X80959000Y-67291000D02*
X81024300Y-67363000D01*
X80887100Y-67225700D02*
X80959000Y-67291000D01*
X80809000Y-67167900D02*
X80887100Y-67225700D01*
X80725700Y-67117900D02*
X80809000Y-67167900D01*
X80637900Y-67076400D02*
X80725700Y-67117900D01*
X80546400Y-67043600D02*
X80637900Y-67076400D01*
X80452100Y-67020000D02*
X80546400Y-67043600D01*
X80356000Y-67005800D02*
X80452100Y-67020000D01*
X80258800Y-67001000D02*
X80356000Y-67005800D01*
X54250100Y-67000900D02*
X80258800Y-67001000D01*
X53805400Y-66977300D02*
X54250100Y-67000900D01*
X53366000Y-66907700D02*
X53805400Y-66977300D01*
X52936200Y-66792500D02*
X53366000Y-66907700D01*
X52533300Y-66638200D02*
X52936200Y-66792500D01*
X52509300Y-66627500D02*
X52533300Y-66638200D01*
X52136200Y-66437500D02*
X52509300Y-66627500D01*
X52113500Y-66424300D02*
X52136200Y-66437500D01*
X51751700Y-66189000D02*
X52113500Y-66424300D01*
X51415800Y-65917400D02*
X51751700Y-66189000D01*
X51396200Y-65899800D02*
X51415800Y-65917400D01*
X51091300Y-65594400D02*
X51396200Y-65899800D01*
X50811300Y-65248700D02*
X51091300Y-65594400D01*
X50568700Y-64875100D02*
X50811300Y-65248700D01*
X50372500Y-64490800D02*
X50568700Y-64875100D01*
X50361800Y-64466800D02*
X50372500Y-64490800D01*
X50211800Y-64075900D02*
X50361800Y-64466800D01*
X50203700Y-64050900D02*
X50211800Y-64075900D01*
X50092300Y-63634000D02*
X50203700Y-64050900D01*
X50024300Y-63207400D02*
X50092300Y-63634000D01*
X50021600Y-63181200D02*
X50024300Y-63207400D01*
X49999100Y-62749900D02*
X50021600Y-63181200D01*
X49999000Y-61860300D02*
X49999100Y-62749900D01*
X50003200Y-61768000D02*
X49999000Y-61860300D01*
X50005700Y-61743400D02*
X50003200Y-61768000D01*
X50018600Y-61658400D02*
X50005700Y-61743400D01*
X50042700Y-61562800D02*
X50018600Y-61658400D01*
X50076000Y-61470000D02*
X50042700Y-61562800D01*
X50118200Y-61381000D02*
X50076000Y-61470000D01*
X50169300Y-61296100D02*
X50118200Y-61381000D01*
X50220400Y-61227000D02*
X50169300Y-61296100D01*
X50236200Y-61207900D02*
X50220400Y-61227000D01*
X50294300Y-61144600D02*
X50236200Y-61207900D01*
X50358300Y-61086500D02*
X50294300Y-61144600D01*
X50437200Y-61027000D02*
X50358300Y-61086500D01*
X50531700Y-60969800D02*
X50437200Y-61027000D01*
X50620900Y-60928000D02*
X50531700Y-60969800D01*
X50899900Y-60829300D02*
X50620900Y-60928000D01*
X50990600Y-60792200D02*
X50899900Y-60829300D01*
X51124700Y-60729500D02*
X50990600Y-60792200D01*
X51211300Y-60683600D02*
X51124700Y-60729500D01*
X51338600Y-60608000D02*
X51211300Y-60683600D01*
X51420200Y-60553800D02*
X51338600Y-60608000D01*
X51539400Y-60466100D02*
X51420200Y-60553800D01*
X51615400Y-60404100D02*
X51539400Y-60466100D01*
X51725400Y-60305100D02*
X51615400Y-60404100D01*
X51794900Y-60236000D02*
X51725400Y-60305100D01*
X51894600Y-60126600D02*
X51794900Y-60236000D01*
X51957000Y-60051000D02*
X51894600Y-60126600D01*
X52045500Y-59932300D02*
X51957000Y-60051000D01*
X52100100Y-59850900D02*
X52045500Y-59932300D01*
X52176400Y-59724100D02*
X52100100Y-59850900D01*
X52222800Y-59637700D02*
X52176400Y-59724100D01*
X52286300Y-59504000D02*
X52222800Y-59637700D01*
X52324000Y-59413500D02*
X52286300Y-59504000D01*
X52374000Y-59274200D02*
X52324000Y-59413500D01*
X52402600Y-59180500D02*
X52374000Y-59274200D01*
X52438700Y-59036900D02*
X52402600Y-59180500D01*
X52457800Y-58940800D02*
X52438700Y-59036900D01*
X52479700Y-58794400D02*
X52457800Y-58940800D01*
X52489300Y-58696900D02*
X52479700Y-58794400D01*
X52496600Y-58549000D02*
X52489300Y-58696900D01*
X52496600Y-58451000D02*
X52496600Y-58549000D01*
X52489300Y-58303100D02*
X52496600Y-58451000D01*
X52479700Y-58205600D02*
X52489300Y-58303100D01*
X52457800Y-58059200D02*
X52479700Y-58205600D01*
X52438700Y-57963100D02*
X52457800Y-58059200D01*
X52402600Y-57819500D02*
X52438700Y-57963100D01*
X52374000Y-57725800D02*
X52402600Y-57819500D01*
X52324000Y-57586500D02*
X52374000Y-57725800D01*
X52286300Y-57496000D02*
X52324000Y-57586500D01*
X52222800Y-57362300D02*
X52286300Y-57496000D01*
X52176400Y-57275900D02*
X52222800Y-57362300D01*
X52100100Y-57149100D02*
X52176400Y-57275900D01*
X52045500Y-57067700D02*
X52100100Y-57149100D01*
X51957000Y-56949000D02*
X52045500Y-57067700D01*
X51894600Y-56873400D02*
X51957000Y-56949000D01*
X51794900Y-56764000D02*
X51894600Y-56873400D01*
X51725400Y-56694900D02*
X51794900Y-56764000D01*
X51615400Y-56595900D02*
X51725400Y-56694900D01*
X51539400Y-56533900D02*
X51615400Y-56595900D01*
X51420200Y-56446200D02*
X51539400Y-56533900D01*
X51338600Y-56392000D02*
X51420200Y-56446200D01*
X51211300Y-56316400D02*
X51338600Y-56392000D01*
X51124700Y-56270600D02*
X51211300Y-56316400D01*
X50990600Y-56207800D02*
X51124700Y-56270600D01*
X50899900Y-56170700D02*
X50990600Y-56207800D01*
X50621300Y-56072200D02*
X50899900Y-56170700D01*
X50542700Y-56035700D02*
X50621300Y-56072200D01*
X50447300Y-55980100D02*
X50542700Y-56035700D01*
X50367900Y-55921700D02*
X50447300Y-55980100D01*
X50303500Y-55864100D02*
X50367900Y-55921700D01*
X50285900Y-55846600D02*
X50303500Y-55864100D01*
X50227900Y-55782500D02*
X50285900Y-55846600D01*
X50169300Y-55703900D02*
X50227900Y-55782500D01*
X50124500Y-55630000D02*
X50169300Y-55703900D01*
X50112800Y-55608200D02*
X50124500Y-55630000D01*
X50076100Y-55530400D02*
X50112800Y-55608200D01*
X50046600Y-55449200D02*
X50076100Y-55530400D01*
X50039400Y-55425500D02*
X50046600Y-55449200D01*
X50016600Y-55329700D02*
X50039400Y-55425500D01*
X50004100Y-55244100D02*
X50016600Y-55329700D01*
X49999100Y-55145800D02*
X50004100Y-55244100D01*
X49999100Y-54250100D02*
X49999100Y-55145800D01*
X50022700Y-53805400D02*
X49999100Y-54250100D01*
X50092200Y-53366500D02*
X50022700Y-53805400D01*
X50203600Y-52949100D02*
X50092200Y-53366500D01*
X50211800Y-52924100D02*
X50203600Y-52949100D01*
X50366700Y-52521300D02*
X50211800Y-52924100D01*
X50569000Y-52124400D02*
X50366700Y-52521300D01*
X50803700Y-51762400D02*
X50569000Y-52124400D01*
X50819100Y-51741100D02*
X50803700Y-51762400D01*
X51091000Y-51405900D02*
X50819100Y-51741100D01*
X51396200Y-51100200D02*
X51091000Y-51405900D01*
X51415700Y-51082600D02*
X51396200Y-51100200D01*
X51751300Y-50811300D02*
X51415700Y-51082600D01*
X52124900Y-50568700D02*
X51751300Y-50811300D01*
X52509200Y-50372500D02*
X52124900Y-50568700D01*
X52533200Y-50361800D02*
X52509200Y-50372500D01*
X52936300Y-50207500D02*
X52533200Y-50361800D01*
X53353400Y-50095300D02*
X52936300Y-50207500D01*
X53379100Y-50089800D02*
X53353400Y-50095300D01*
X53792900Y-50024300D02*
X53379100Y-50089800D01*
X53818800Y-50021600D02*
X53792900Y-50024300D01*
X54256500Y-49999000D02*
X53818800Y-50021600D01*
X80258800Y-49999000D02*
X54256500Y-49999000D01*
X80356000Y-49994200D02*
X80258800Y-49999000D01*
X80452100Y-49980000D02*
X80356000Y-49994200D01*
X80546400Y-49956400D02*
X80452100Y-49980000D01*
X80637900Y-49923600D02*
X80546400Y-49956400D01*
X80725700Y-49882100D02*
X80637900Y-49923600D01*
X80809000Y-49832100D02*
X80725700Y-49882100D01*
X80887100Y-49774300D02*
X80809000Y-49832100D01*
X80959000Y-49709000D02*
X80887100Y-49774300D01*
X81024300Y-49637000D02*
X80959000Y-49709000D01*
X81082200Y-49559000D02*
X81024300Y-49637000D01*
X81132100Y-49475700D02*
X81082200Y-49559000D01*
X81173600Y-49387900D02*
X81132100Y-49475700D01*
X81206400Y-49296400D02*
X81173600Y-49387900D01*
X81230000Y-49202100D02*
X81206400Y-49296400D01*
X81244200Y-49106000D02*
X81230000Y-49202100D01*
X81249000Y-49008800D02*
X81244200Y-49106000D01*
X81249000Y-48490200D02*
X81249000Y-49008800D01*
X81244200Y-48393000D02*
X81249000Y-48490200D01*
X81230000Y-48296900D02*
X81244200Y-48393000D01*
X81206400Y-48202600D02*
X81230000Y-48296900D01*
X81173600Y-48111100D02*
X81206400Y-48202600D01*
X81132100Y-48023300D02*
X81173600Y-48111100D01*
X81082200Y-47940000D02*
X81132100Y-48023300D01*
X81024300Y-47862000D02*
X81082200Y-47940000D01*
X80959000Y-47790000D02*
X81024300Y-47862000D01*
X80887100Y-47724700D02*
X80959000Y-47790000D01*
X80809000Y-47666900D02*
X80887100Y-47724700D01*
X80725700Y-47616900D02*
X80809000Y-47666900D01*
X80637900Y-47575400D02*
X80725700Y-47616900D01*
X80546400Y-47542600D02*
X80637900Y-47575400D01*
X80452100Y-47519000D02*
X80546400Y-47542600D01*
X80356000Y-47504800D02*
X80452100Y-47519000D01*
X80258800Y-47500000D02*
X80356000Y-47504800D01*
X50008200Y-47499200D02*
X80258800Y-47500000D01*
X50003700Y-47497400D02*
X50008200Y-47499200D01*
X50000300Y-47492700D02*
X50003700Y-47497400D01*
X49999000Y-47475500D02*
X50000300Y-47492700D01*
X49999000Y-43523500D02*
X49999000Y-47475500D01*
X50000600Y-43505400D02*
X49999000Y-43523500D01*
X50003700Y-43501600D02*
X50000600Y-43505400D01*
X50009200Y-43499700D02*
X50003700Y-43501600D01*
D11*
X72726191Y-119452432D02*
X72726191Y-118452432D01*
X71678572Y-119357194D02*
X71726191Y-119404813D01*
X71869048Y-119452432D01*
X71964286Y-119452432D01*
X72107143Y-119404813D01*
X72202381Y-119309575D01*
X72250001Y-119214337D01*
X72297620Y-119023861D01*
X72297620Y-118881004D01*
X72250001Y-118690528D01*
X72202381Y-118595290D01*
X72107143Y-118500052D01*
X71964286Y-118452432D01*
X71869048Y-118452432D01*
X71726191Y-118500052D01*
X71678572Y-118547671D01*
X70726191Y-119452432D02*
X71297620Y-119452432D01*
X71011905Y-119452432D02*
X71011905Y-118452432D01*
X71107143Y-118595290D01*
X71202381Y-118690528D01*
X71297620Y-118738147D01*
X80821429Y-118452432D02*
X80630953Y-118452432D01*
X80535715Y-118500052D01*
X80440477Y-118595290D01*
X80392858Y-118785766D01*
X80392858Y-119119099D01*
X80440477Y-119309575D01*
X80535715Y-119404813D01*
X80630953Y-119452432D01*
X80821429Y-119452432D01*
X80916667Y-119404813D01*
X81011905Y-119309575D01*
X81059524Y-119119099D01*
X81059524Y-118785766D01*
X81011905Y-118595290D01*
X80916667Y-118500052D01*
X80821429Y-118452432D01*
X79392858Y-119357194D02*
X79440477Y-119404813D01*
X79583334Y-119452432D01*
X79678572Y-119452432D01*
X79821429Y-119404813D01*
X79916667Y-119309575D01*
X79964286Y-119214337D01*
X80011905Y-119023861D01*
X80011905Y-118881004D01*
X79964286Y-118690528D01*
X79916667Y-118595290D01*
X79821429Y-118500052D01*
X79678572Y-118452432D01*
X79583334Y-118452432D01*
X79440477Y-118500052D01*
X79392858Y-118547671D01*
X78440477Y-119452432D02*
X79011905Y-119452432D01*
X78726191Y-119452432D02*
X78726191Y-118452432D01*
X78821429Y-118595290D01*
X78916667Y-118690528D01*
X79011905Y-118738147D01*
X103821429Y-118452432D02*
X103630953Y-118452432D01*
X103535715Y-118500052D01*
X103440477Y-118595290D01*
X103392858Y-118785766D01*
X103392858Y-119119099D01*
X103440477Y-119309575D01*
X103535715Y-119404813D01*
X103630953Y-119452432D01*
X103821429Y-119452432D01*
X103916667Y-119404813D01*
X104011905Y-119309575D01*
X104059524Y-119119099D01*
X104059524Y-118785766D01*
X104011905Y-118595290D01*
X103916667Y-118500052D01*
X103821429Y-118452432D01*
X102392858Y-119357194D02*
X102440477Y-119404813D01*
X102583334Y-119452432D01*
X102678572Y-119452432D01*
X102821429Y-119404813D01*
X102916667Y-119309575D01*
X102964286Y-119214337D01*
X103011905Y-119023861D01*
X103011905Y-118881004D01*
X102964286Y-118690528D01*
X102916667Y-118595290D01*
X102821429Y-118500052D01*
X102678572Y-118452432D01*
X102583334Y-118452432D01*
X102440477Y-118500052D01*
X102392858Y-118547671D01*
X102011905Y-118547671D02*
X101964286Y-118500052D01*
X101869048Y-118452432D01*
X101630953Y-118452432D01*
X101535715Y-118500052D01*
X101488096Y-118547671D01*
X101440477Y-118642909D01*
X101440477Y-118738147D01*
X101488096Y-118881004D01*
X102059524Y-119452432D01*
X101440477Y-119452432D01*
X111726191Y-119452432D02*
X111726191Y-118452432D01*
X110678572Y-119357194D02*
X110726191Y-119404813D01*
X110869048Y-119452432D01*
X110964286Y-119452432D01*
X111107143Y-119404813D01*
X111202381Y-119309575D01*
X111250001Y-119214337D01*
X111297620Y-119023861D01*
X111297620Y-118881004D01*
X111250001Y-118690528D01*
X111202381Y-118595290D01*
X111107143Y-118500052D01*
X110964286Y-118452432D01*
X110869048Y-118452432D01*
X110726191Y-118500052D01*
X110678572Y-118547671D01*
X110297620Y-118547671D02*
X110250001Y-118500052D01*
X110154762Y-118452432D01*
X109916667Y-118452432D01*
X109821429Y-118500052D01*
X109773810Y-118547671D01*
X109726191Y-118642909D01*
X109726191Y-118738147D01*
X109773810Y-118881004D01*
X110345239Y-119452432D01*
X109726191Y-119452432D01*
X72726191Y-99952415D02*
X72726191Y-98952415D01*
X71678572Y-99857177D02*
X71726191Y-99904796D01*
X71869048Y-99952415D01*
X71964286Y-99952415D01*
X72107143Y-99904796D01*
X72202381Y-99809558D01*
X72250001Y-99714320D01*
X72297620Y-99523844D01*
X72297620Y-99380987D01*
X72250001Y-99190511D01*
X72202381Y-99095273D01*
X72107143Y-99000035D01*
X71964286Y-98952415D01*
X71869048Y-98952415D01*
X71726191Y-99000035D01*
X71678572Y-99047654D01*
X70726191Y-99952415D02*
X71297620Y-99952415D01*
X71011905Y-99952415D02*
X71011905Y-98952415D01*
X71107143Y-99095273D01*
X71202381Y-99190511D01*
X71297620Y-99238130D01*
X80821429Y-98952415D02*
X80630953Y-98952415D01*
X80535715Y-99000035D01*
X80440477Y-99095273D01*
X80392858Y-99285749D01*
X80392858Y-99619082D01*
X80440477Y-99809558D01*
X80535715Y-99904796D01*
X80630953Y-99952415D01*
X80821429Y-99952415D01*
X80916667Y-99904796D01*
X81011905Y-99809558D01*
X81059524Y-99619082D01*
X81059524Y-99285749D01*
X81011905Y-99095273D01*
X80916667Y-99000035D01*
X80821429Y-98952415D01*
X79392858Y-99857177D02*
X79440477Y-99904796D01*
X79583334Y-99952415D01*
X79678572Y-99952415D01*
X79821429Y-99904796D01*
X79916667Y-99809558D01*
X79964286Y-99714320D01*
X80011905Y-99523844D01*
X80011905Y-99380987D01*
X79964286Y-99190511D01*
X79916667Y-99095273D01*
X79821429Y-99000035D01*
X79678572Y-98952415D01*
X79583334Y-98952415D01*
X79440477Y-99000035D01*
X79392858Y-99047654D01*
X78440477Y-99952415D02*
X79011905Y-99952415D01*
X78726191Y-99952415D02*
X78726191Y-98952415D01*
X78821429Y-99095273D01*
X78916667Y-99190511D01*
X79011905Y-99238130D01*
X103821429Y-98952415D02*
X103630953Y-98952415D01*
X103535715Y-99000035D01*
X103440477Y-99095273D01*
X103392858Y-99285749D01*
X103392858Y-99619082D01*
X103440477Y-99809558D01*
X103535715Y-99904796D01*
X103630953Y-99952415D01*
X103821429Y-99952415D01*
X103916667Y-99904796D01*
X104011905Y-99809558D01*
X104059524Y-99619082D01*
X104059524Y-99285749D01*
X104011905Y-99095273D01*
X103916667Y-99000035D01*
X103821429Y-98952415D01*
X102392858Y-99857177D02*
X102440477Y-99904796D01*
X102583334Y-99952415D01*
X102678572Y-99952415D01*
X102821429Y-99904796D01*
X102916667Y-99809558D01*
X102964286Y-99714320D01*
X103011905Y-99523844D01*
X103011905Y-99380987D01*
X102964286Y-99190511D01*
X102916667Y-99095273D01*
X102821429Y-99000035D01*
X102678572Y-98952415D01*
X102583334Y-98952415D01*
X102440477Y-99000035D01*
X102392858Y-99047654D01*
X102011905Y-99047654D02*
X101964286Y-99000035D01*
X101869048Y-98952415D01*
X101630953Y-98952415D01*
X101535715Y-99000035D01*
X101488096Y-99047654D01*
X101440477Y-99142892D01*
X101440477Y-99238130D01*
X101488096Y-99380987D01*
X102059524Y-99952415D01*
X101440477Y-99952415D01*
X111726191Y-99952415D02*
X111726191Y-98952415D01*
X110678572Y-99857177D02*
X110726191Y-99904796D01*
X110869048Y-99952415D01*
X110964286Y-99952415D01*
X111107143Y-99904796D01*
X111202381Y-99809558D01*
X111250001Y-99714320D01*
X111297620Y-99523844D01*
X111297620Y-99380987D01*
X111250001Y-99190511D01*
X111202381Y-99095273D01*
X111107143Y-99000035D01*
X110964286Y-98952415D01*
X110869048Y-98952415D01*
X110726191Y-99000035D01*
X110678572Y-99047654D01*
X110297620Y-99047654D02*
X110250001Y-99000035D01*
X110154762Y-98952415D01*
X109916667Y-98952415D01*
X109821429Y-99000035D01*
X109773810Y-99047654D01*
X109726191Y-99142892D01*
X109726191Y-99238130D01*
X109773810Y-99380987D01*
X110345239Y-99952415D01*
X109726191Y-99952415D01*
X72726191Y-80452398D02*
X72726191Y-79452398D01*
X71678572Y-80357160D02*
X71726191Y-80404779D01*
X71869048Y-80452398D01*
X71964286Y-80452398D01*
X72107143Y-80404779D01*
X72202381Y-80309541D01*
X72250001Y-80214303D01*
X72297620Y-80023827D01*
X72297620Y-79880970D01*
X72250001Y-79690494D01*
X72202381Y-79595256D01*
X72107143Y-79500018D01*
X71964286Y-79452398D01*
X71869048Y-79452398D01*
X71726191Y-79500018D01*
X71678572Y-79547637D01*
X70726191Y-80452398D02*
X71297620Y-80452398D01*
X71011905Y-80452398D02*
X71011905Y-79452398D01*
X71107143Y-79595256D01*
X71202381Y-79690494D01*
X71297620Y-79738113D01*
X80821429Y-79452398D02*
X80630953Y-79452398D01*
X80535715Y-79500018D01*
X80440477Y-79595256D01*
X80392858Y-79785732D01*
X80392858Y-80119065D01*
X80440477Y-80309541D01*
X80535715Y-80404779D01*
X80630953Y-80452398D01*
X80821429Y-80452398D01*
X80916667Y-80404779D01*
X81011905Y-80309541D01*
X81059524Y-80119065D01*
X81059524Y-79785732D01*
X81011905Y-79595256D01*
X80916667Y-79500018D01*
X80821429Y-79452398D01*
X79392858Y-80357160D02*
X79440477Y-80404779D01*
X79583334Y-80452398D01*
X79678572Y-80452398D01*
X79821429Y-80404779D01*
X79916667Y-80309541D01*
X79964286Y-80214303D01*
X80011905Y-80023827D01*
X80011905Y-79880970D01*
X79964286Y-79690494D01*
X79916667Y-79595256D01*
X79821429Y-79500018D01*
X79678572Y-79452398D01*
X79583334Y-79452398D01*
X79440477Y-79500018D01*
X79392858Y-79547637D01*
X78440477Y-80452398D02*
X79011905Y-80452398D01*
X78726191Y-80452398D02*
X78726191Y-79452398D01*
X78821429Y-79595256D01*
X78916667Y-79690494D01*
X79011905Y-79738113D01*
X103821429Y-79452398D02*
X103630953Y-79452398D01*
X103535715Y-79500018D01*
X103440477Y-79595256D01*
X103392858Y-79785732D01*
X103392858Y-80119065D01*
X103440477Y-80309541D01*
X103535715Y-80404779D01*
X103630953Y-80452398D01*
X103821429Y-80452398D01*
X103916667Y-80404779D01*
X104011905Y-80309541D01*
X104059524Y-80119065D01*
X104059524Y-79785732D01*
X104011905Y-79595256D01*
X103916667Y-79500018D01*
X103821429Y-79452398D01*
X102392858Y-80357160D02*
X102440477Y-80404779D01*
X102583334Y-80452398D01*
X102678572Y-80452398D01*
X102821429Y-80404779D01*
X102916667Y-80309541D01*
X102964286Y-80214303D01*
X103011905Y-80023827D01*
X103011905Y-79880970D01*
X102964286Y-79690494D01*
X102916667Y-79595256D01*
X102821429Y-79500018D01*
X102678572Y-79452398D01*
X102583334Y-79452398D01*
X102440477Y-79500018D01*
X102392858Y-79547637D01*
X102011905Y-79547637D02*
X101964286Y-79500018D01*
X101869048Y-79452398D01*
X101630953Y-79452398D01*
X101535715Y-79500018D01*
X101488096Y-79547637D01*
X101440477Y-79642875D01*
X101440477Y-79738113D01*
X101488096Y-79880970D01*
X102059524Y-80452398D01*
X101440477Y-80452398D01*
X111726191Y-80452398D02*
X111726191Y-79452398D01*
X110678572Y-80357160D02*
X110726191Y-80404779D01*
X110869048Y-80452398D01*
X110964286Y-80452398D01*
X111107143Y-80404779D01*
X111202381Y-80309541D01*
X111250001Y-80214303D01*
X111297620Y-80023827D01*
X111297620Y-79880970D01*
X111250001Y-79690494D01*
X111202381Y-79595256D01*
X111107143Y-79500018D01*
X110964286Y-79452398D01*
X110869048Y-79452398D01*
X110726191Y-79500018D01*
X110678572Y-79547637D01*
X110297620Y-79547637D02*
X110250001Y-79500018D01*
X110154762Y-79452398D01*
X109916667Y-79452398D01*
X109821429Y-79500018D01*
X109773810Y-79547637D01*
X109726191Y-79642875D01*
X109726191Y-79738113D01*
X109773810Y-79880970D01*
X110345239Y-80452398D01*
X109726191Y-80452398D01*
X72726191Y-60952381D02*
X72726191Y-59952381D01*
X71678572Y-60857143D02*
X71726191Y-60904762D01*
X71869048Y-60952381D01*
X71964286Y-60952381D01*
X72107143Y-60904762D01*
X72202381Y-60809524D01*
X72250001Y-60714286D01*
X72297620Y-60523810D01*
X72297620Y-60380953D01*
X72250001Y-60190477D01*
X72202381Y-60095239D01*
X72107143Y-60000001D01*
X71964286Y-59952381D01*
X71869048Y-59952381D01*
X71726191Y-60000001D01*
X71678572Y-60047620D01*
X70726191Y-60952381D02*
X71297620Y-60952381D01*
X71011905Y-60952381D02*
X71011905Y-59952381D01*
X71107143Y-60095239D01*
X71202381Y-60190477D01*
X71297620Y-60238096D01*
X80821429Y-59952381D02*
X80630953Y-59952381D01*
X80535715Y-60000001D01*
X80440477Y-60095239D01*
X80392858Y-60285715D01*
X80392858Y-60619048D01*
X80440477Y-60809524D01*
X80535715Y-60904762D01*
X80630953Y-60952381D01*
X80821429Y-60952381D01*
X80916667Y-60904762D01*
X81011905Y-60809524D01*
X81059524Y-60619048D01*
X81059524Y-60285715D01*
X81011905Y-60095239D01*
X80916667Y-60000001D01*
X80821429Y-59952381D01*
X79392858Y-60857143D02*
X79440477Y-60904762D01*
X79583334Y-60952381D01*
X79678572Y-60952381D01*
X79821429Y-60904762D01*
X79916667Y-60809524D01*
X79964286Y-60714286D01*
X80011905Y-60523810D01*
X80011905Y-60380953D01*
X79964286Y-60190477D01*
X79916667Y-60095239D01*
X79821429Y-60000001D01*
X79678572Y-59952381D01*
X79583334Y-59952381D01*
X79440477Y-60000001D01*
X79392858Y-60047620D01*
X78440477Y-60952381D02*
X79011905Y-60952381D01*
X78726191Y-60952381D02*
X78726191Y-59952381D01*
X78821429Y-60095239D01*
X78916667Y-60190477D01*
X79011905Y-60238096D01*
X103821429Y-59952381D02*
X103630953Y-59952381D01*
X103535715Y-60000001D01*
X103440477Y-60095239D01*
X103392858Y-60285715D01*
X103392858Y-60619048D01*
X103440477Y-60809524D01*
X103535715Y-60904762D01*
X103630953Y-60952381D01*
X103821429Y-60952381D01*
X103916667Y-60904762D01*
X104011905Y-60809524D01*
X104059524Y-60619048D01*
X104059524Y-60285715D01*
X104011905Y-60095239D01*
X103916667Y-60000001D01*
X103821429Y-59952381D01*
X102392858Y-60857143D02*
X102440477Y-60904762D01*
X102583334Y-60952381D01*
X102678572Y-60952381D01*
X102821429Y-60904762D01*
X102916667Y-60809524D01*
X102964286Y-60714286D01*
X103011905Y-60523810D01*
X103011905Y-60380953D01*
X102964286Y-60190477D01*
X102916667Y-60095239D01*
X102821429Y-60000001D01*
X102678572Y-59952381D01*
X102583334Y-59952381D01*
X102440477Y-60000001D01*
X102392858Y-60047620D01*
X102011905Y-60047620D02*
X101964286Y-60000001D01*
X101869048Y-59952381D01*
X101630953Y-59952381D01*
X101535715Y-60000001D01*
X101488096Y-60047620D01*
X101440477Y-60142858D01*
X101440477Y-60238096D01*
X101488096Y-60380953D01*
X102059524Y-60952381D01*
X101440477Y-60952381D01*
X111726191Y-60952381D02*
X111726191Y-59952381D01*
X110678572Y-60857143D02*
X110726191Y-60904762D01*
X110869048Y-60952381D01*
X110964286Y-60952381D01*
X111107143Y-60904762D01*
X111202381Y-60809524D01*
X111250001Y-60714286D01*
X111297620Y-60523810D01*
X111297620Y-60380953D01*
X111250001Y-60190477D01*
X111202381Y-60095239D01*
X111107143Y-60000001D01*
X110964286Y-59952381D01*
X110869048Y-59952381D01*
X110726191Y-60000001D01*
X110678572Y-60047620D01*
X110297620Y-60047620D02*
X110250001Y-60000001D01*
X110154762Y-59952381D01*
X109916667Y-59952381D01*
X109821429Y-60000001D01*
X109773810Y-60047620D01*
X109726191Y-60142858D01*
X109726191Y-60238096D01*
X109773810Y-60380953D01*
X110345239Y-60952381D01*
X109726191Y-60952381D01*
D12*
G04 #@! TO.C,G\002A\002A\002A*
G36*
X84028776Y-116647368D02*
G01*
X84033760Y-116805879D01*
X84039246Y-116973360D01*
X84044847Y-117138472D01*
X84050178Y-117289875D01*
X84054850Y-117416231D01*
X84056026Y-117446536D01*
X84068517Y-117764036D01*
X84798047Y-117774874D01*
X84782961Y-117273361D01*
X84778038Y-117114593D01*
X84772654Y-116949263D01*
X84767165Y-116787775D01*
X84761929Y-116640534D01*
X84757303Y-116517947D01*
X84755539Y-116474193D01*
X84743204Y-116176536D01*
X84378611Y-116171118D01*
X84014017Y-116165701D01*
X84028776Y-116647368D01*
G37*
X84028776Y-116647368D02*
X84033760Y-116805879D01*
X84039246Y-116973360D01*
X84044847Y-117138472D01*
X84050178Y-117289875D01*
X84054850Y-117416231D01*
X84056026Y-117446536D01*
X84068517Y-117764036D01*
X84798047Y-117774874D01*
X84782961Y-117273361D01*
X84778038Y-117114593D01*
X84772654Y-116949263D01*
X84767165Y-116787775D01*
X84761929Y-116640534D01*
X84757303Y-116517947D01*
X84755539Y-116474193D01*
X84743204Y-116176536D01*
X84378611Y-116171118D01*
X84014017Y-116165701D01*
X84028776Y-116647368D01*
G36*
X85511772Y-116165236D02*
G01*
X85350364Y-116165681D01*
X85208046Y-116166542D01*
X85088865Y-116167837D01*
X84996870Y-116169589D01*
X84936111Y-116171817D01*
X84910636Y-116174542D01*
X84910222Y-116174803D01*
X84907426Y-116196744D01*
X84906166Y-116249974D01*
X84906518Y-116326124D01*
X84908153Y-116403006D01*
X84914352Y-116623021D01*
X86009481Y-116624204D01*
X86270767Y-116624704D01*
X86495139Y-116625672D01*
X86685368Y-116627213D01*
X86844227Y-116629435D01*
X86974487Y-116632445D01*
X87078920Y-116636350D01*
X87160298Y-116641258D01*
X87221392Y-116647276D01*
X87264974Y-116654511D01*
X87293816Y-116663070D01*
X87310690Y-116673061D01*
X87312268Y-116674592D01*
X87325674Y-116705144D01*
X87335466Y-116755867D01*
X87336102Y-116761927D01*
X87342735Y-116831380D01*
X86514259Y-116836559D01*
X85685782Y-116841737D01*
X85685901Y-116906012D01*
X85687507Y-116956538D01*
X85691650Y-117031917D01*
X85697501Y-117117458D01*
X85698764Y-117133997D01*
X85711508Y-117297708D01*
X87368115Y-117297708D01*
X87382423Y-117535833D01*
X87396730Y-117773958D01*
X88112347Y-117773958D01*
X88098245Y-117253060D01*
X88092044Y-117056286D01*
X88084638Y-116894669D01*
X88075292Y-116763682D01*
X88063270Y-116658799D01*
X88047836Y-116575491D01*
X88028255Y-116509231D01*
X88003790Y-116455493D01*
X87973708Y-116409749D01*
X87958088Y-116390503D01*
X87868113Y-116312793D01*
X87746534Y-116250003D01*
X87599525Y-116204893D01*
X87505010Y-116187914D01*
X87463879Y-116184824D01*
X87389203Y-116181884D01*
X87285031Y-116179113D01*
X87155412Y-116176532D01*
X87004395Y-116174162D01*
X86836029Y-116172023D01*
X86654362Y-116170135D01*
X86463443Y-116168520D01*
X86267320Y-116167196D01*
X86070043Y-116166186D01*
X85875660Y-116165509D01*
X85688220Y-116165186D01*
X85511772Y-116165236D01*
G37*
X85511772Y-116165236D02*
X85350364Y-116165681D01*
X85208046Y-116166542D01*
X85088865Y-116167837D01*
X84996870Y-116169589D01*
X84936111Y-116171817D01*
X84910636Y-116174542D01*
X84910222Y-116174803D01*
X84907426Y-116196744D01*
X84906166Y-116249974D01*
X84906518Y-116326124D01*
X84908153Y-116403006D01*
X84914352Y-116623021D01*
X86009481Y-116624204D01*
X86270767Y-116624704D01*
X86495139Y-116625672D01*
X86685368Y-116627213D01*
X86844227Y-116629435D01*
X86974487Y-116632445D01*
X87078920Y-116636350D01*
X87160298Y-116641258D01*
X87221392Y-116647276D01*
X87264974Y-116654511D01*
X87293816Y-116663070D01*
X87310690Y-116673061D01*
X87312268Y-116674592D01*
X87325674Y-116705144D01*
X87335466Y-116755867D01*
X87336102Y-116761927D01*
X87342735Y-116831380D01*
X86514259Y-116836559D01*
X85685782Y-116841737D01*
X85685901Y-116906012D01*
X85687507Y-116956538D01*
X85691650Y-117031917D01*
X85697501Y-117117458D01*
X85698764Y-117133997D01*
X85711508Y-117297708D01*
X87368115Y-117297708D01*
X87382423Y-117535833D01*
X87396730Y-117773958D01*
X88112347Y-117773958D01*
X88098245Y-117253060D01*
X88092044Y-117056286D01*
X88084638Y-116894669D01*
X88075292Y-116763682D01*
X88063270Y-116658799D01*
X88047836Y-116575491D01*
X88028255Y-116509231D01*
X88003790Y-116455493D01*
X87973708Y-116409749D01*
X87958088Y-116390503D01*
X87868113Y-116312793D01*
X87746534Y-116250003D01*
X87599525Y-116204893D01*
X87505010Y-116187914D01*
X87463879Y-116184824D01*
X87389203Y-116181884D01*
X87285031Y-116179113D01*
X87155412Y-116176532D01*
X87004395Y-116174162D01*
X86836029Y-116172023D01*
X86654362Y-116170135D01*
X86463443Y-116168520D01*
X86267320Y-116167196D01*
X86070043Y-116166186D01*
X85875660Y-116165509D01*
X85688220Y-116165186D01*
X85511772Y-116165236D01*
G36*
X88245626Y-116331834D02*
G01*
X88247102Y-116418049D01*
X88251013Y-116496423D01*
X88256588Y-116552681D01*
X88258028Y-116561009D01*
X88270431Y-116623021D01*
X89483380Y-116623494D01*
X89749721Y-116623769D01*
X89979208Y-116624451D01*
X90174674Y-116625659D01*
X90338949Y-116627511D01*
X90474867Y-116630128D01*
X90585259Y-116633629D01*
X90672958Y-116638132D01*
X90740797Y-116643757D01*
X90791606Y-116650623D01*
X90828220Y-116658849D01*
X90853469Y-116668554D01*
X90870186Y-116679859D01*
X90872388Y-116681953D01*
X90882659Y-116713063D01*
X90889901Y-116781453D01*
X90893940Y-116884822D01*
X90894767Y-116975532D01*
X90894552Y-117083935D01*
X90893153Y-117159430D01*
X90889434Y-117208795D01*
X90882262Y-117238809D01*
X90870500Y-117256251D01*
X90853016Y-117267899D01*
X90845157Y-117271951D01*
X90825992Y-117277329D01*
X90789611Y-117281949D01*
X90733560Y-117285860D01*
X90655383Y-117289109D01*
X90552626Y-117291746D01*
X90422834Y-117293816D01*
X90263553Y-117295369D01*
X90072327Y-117296452D01*
X89846702Y-117297114D01*
X89584223Y-117297402D01*
X89540431Y-117297416D01*
X88285313Y-117297708D01*
X88285486Y-117431654D01*
X88287609Y-117521441D01*
X88292912Y-117613722D01*
X88298172Y-117669779D01*
X88310685Y-117773958D01*
X89612648Y-117771384D01*
X89841018Y-117770676D01*
X90061183Y-117769499D01*
X90269347Y-117767907D01*
X90461712Y-117765951D01*
X90634482Y-117763682D01*
X90783860Y-117761152D01*
X90906047Y-117758413D01*
X90997248Y-117755517D01*
X91053666Y-117752515D01*
X91063016Y-117751627D01*
X91239534Y-117720383D01*
X91382075Y-117670967D01*
X91492413Y-117602435D01*
X91572324Y-117513846D01*
X91598915Y-117467010D01*
X91614403Y-117433020D01*
X91625648Y-117400116D01*
X91633155Y-117361708D01*
X91637436Y-117311204D01*
X91638997Y-117242014D01*
X91638348Y-117147547D01*
X91635997Y-117021213D01*
X91635419Y-116993938D01*
X91632286Y-116860420D01*
X91628834Y-116759658D01*
X91624221Y-116684722D01*
X91617601Y-116628684D01*
X91608131Y-116584615D01*
X91594966Y-116545586D01*
X91577263Y-116504670D01*
X91575287Y-116500373D01*
X91514644Y-116401077D01*
X91431025Y-116321864D01*
X91318429Y-116257968D01*
X91223878Y-116221384D01*
X91198273Y-116212975D01*
X91172955Y-116205696D01*
X91144967Y-116199453D01*
X91111351Y-116194148D01*
X91069151Y-116189687D01*
X91015409Y-116185972D01*
X90947169Y-116182910D01*
X90861474Y-116180403D01*
X90755367Y-116178357D01*
X90625890Y-116176674D01*
X90470087Y-116175260D01*
X90285001Y-116174018D01*
X90067674Y-116172853D01*
X89815151Y-116171669D01*
X89669415Y-116171016D01*
X88245626Y-116164672D01*
X88245626Y-116331834D01*
G37*
X88245626Y-116331834D02*
X88247102Y-116418049D01*
X88251013Y-116496423D01*
X88256588Y-116552681D01*
X88258028Y-116561009D01*
X88270431Y-116623021D01*
X89483380Y-116623494D01*
X89749721Y-116623769D01*
X89979208Y-116624451D01*
X90174674Y-116625659D01*
X90338949Y-116627511D01*
X90474867Y-116630128D01*
X90585259Y-116633629D01*
X90672958Y-116638132D01*
X90740797Y-116643757D01*
X90791606Y-116650623D01*
X90828220Y-116658849D01*
X90853469Y-116668554D01*
X90870186Y-116679859D01*
X90872388Y-116681953D01*
X90882659Y-116713063D01*
X90889901Y-116781453D01*
X90893940Y-116884822D01*
X90894767Y-116975532D01*
X90894552Y-117083935D01*
X90893153Y-117159430D01*
X90889434Y-117208795D01*
X90882262Y-117238809D01*
X90870500Y-117256251D01*
X90853016Y-117267899D01*
X90845157Y-117271951D01*
X90825992Y-117277329D01*
X90789611Y-117281949D01*
X90733560Y-117285860D01*
X90655383Y-117289109D01*
X90552626Y-117291746D01*
X90422834Y-117293816D01*
X90263553Y-117295369D01*
X90072327Y-117296452D01*
X89846702Y-117297114D01*
X89584223Y-117297402D01*
X89540431Y-117297416D01*
X88285313Y-117297708D01*
X88285486Y-117431654D01*
X88287609Y-117521441D01*
X88292912Y-117613722D01*
X88298172Y-117669779D01*
X88310685Y-117773958D01*
X89612648Y-117771384D01*
X89841018Y-117770676D01*
X90061183Y-117769499D01*
X90269347Y-117767907D01*
X90461712Y-117765951D01*
X90634482Y-117763682D01*
X90783860Y-117761152D01*
X90906047Y-117758413D01*
X90997248Y-117755517D01*
X91053666Y-117752515D01*
X91063016Y-117751627D01*
X91239534Y-117720383D01*
X91382075Y-117670967D01*
X91492413Y-117602435D01*
X91572324Y-117513846D01*
X91598915Y-117467010D01*
X91614403Y-117433020D01*
X91625648Y-117400116D01*
X91633155Y-117361708D01*
X91637436Y-117311204D01*
X91638997Y-117242014D01*
X91638348Y-117147547D01*
X91635997Y-117021213D01*
X91635419Y-116993938D01*
X91632286Y-116860420D01*
X91628834Y-116759658D01*
X91624221Y-116684722D01*
X91617601Y-116628684D01*
X91608131Y-116584615D01*
X91594966Y-116545586D01*
X91577263Y-116504670D01*
X91575287Y-116500373D01*
X91514644Y-116401077D01*
X91431025Y-116321864D01*
X91318429Y-116257968D01*
X91223878Y-116221384D01*
X91198273Y-116212975D01*
X91172955Y-116205696D01*
X91144967Y-116199453D01*
X91111351Y-116194148D01*
X91069151Y-116189687D01*
X91015409Y-116185972D01*
X90947169Y-116182910D01*
X90861474Y-116180403D01*
X90755367Y-116178357D01*
X90625890Y-116176674D01*
X90470087Y-116175260D01*
X90285001Y-116174018D01*
X90067674Y-116172853D01*
X89815151Y-116171669D01*
X89669415Y-116171016D01*
X88245626Y-116164672D01*
X88245626Y-116331834D01*
G36*
X94456720Y-116352055D02*
G01*
X94457739Y-116410962D01*
X94458660Y-116460313D01*
X94456280Y-116500968D01*
X94447394Y-116533785D01*
X94428798Y-116559622D01*
X94397289Y-116579340D01*
X94349662Y-116593798D01*
X94282714Y-116603853D01*
X94193241Y-116610366D01*
X94078038Y-116614196D01*
X93933902Y-116616201D01*
X93757630Y-116617240D01*
X93546016Y-116618173D01*
X93462465Y-116618637D01*
X92551720Y-116624174D01*
X92551720Y-116457406D01*
X92550241Y-116371268D01*
X92546320Y-116292963D01*
X92540734Y-116236796D01*
X92539317Y-116228626D01*
X92526915Y-116166615D01*
X91817501Y-116166615D01*
X91818077Y-116270794D01*
X91819041Y-116321044D01*
X91821420Y-116403600D01*
X91824965Y-116511115D01*
X91829431Y-116636241D01*
X91834570Y-116771632D01*
X91836933Y-116831380D01*
X91844768Y-117007115D01*
X91853439Y-117148280D01*
X91864093Y-117259990D01*
X91877879Y-117347360D01*
X91895944Y-117415507D01*
X91919435Y-117469546D01*
X91949500Y-117514594D01*
X91987287Y-117555765D01*
X92002692Y-117570337D01*
X92056497Y-117615117D01*
X92115311Y-117653030D01*
X92182723Y-117684614D01*
X92262325Y-117710405D01*
X92357708Y-117730941D01*
X92472461Y-117746759D01*
X92610176Y-117758394D01*
X92774445Y-117766385D01*
X92968856Y-117771268D01*
X93197002Y-117773580D01*
X93364531Y-117773958D01*
X94040001Y-117773958D01*
X94039730Y-117580482D01*
X94038414Y-117491856D01*
X94035106Y-117414204D01*
X94030388Y-117358856D01*
X94027494Y-117342357D01*
X94015528Y-117297708D01*
X93358038Y-117297416D01*
X93165544Y-117297176D01*
X93008965Y-117296238D01*
X92884531Y-117293985D01*
X92788469Y-117289805D01*
X92717008Y-117283084D01*
X92666376Y-117273207D01*
X92632803Y-117259560D01*
X92612515Y-117241531D01*
X92601742Y-117218503D01*
X92596712Y-117189865D01*
X92595170Y-117173229D01*
X92589012Y-117099271D01*
X93511508Y-117099271D01*
X93724993Y-117098800D01*
X93924636Y-117097440D01*
X94106375Y-117095269D01*
X94266153Y-117092368D01*
X94399908Y-117088815D01*
X94503583Y-117084689D01*
X94573116Y-117080069D01*
X94589229Y-117078271D01*
X94759653Y-117040991D01*
X94906876Y-116979580D01*
X95027113Y-116896316D01*
X95116576Y-116793477D01*
X95144442Y-116744218D01*
X95160444Y-116691481D01*
X95174066Y-116610822D01*
X95184452Y-116513977D01*
X95190748Y-116412681D01*
X95192099Y-116318672D01*
X95187649Y-116243685D01*
X95182876Y-116216569D01*
X95170339Y-116166615D01*
X94456720Y-116166615D01*
X94456720Y-116352055D01*
G37*
X94456720Y-116352055D02*
X94457739Y-116410962D01*
X94458660Y-116460313D01*
X94456280Y-116500968D01*
X94447394Y-116533785D01*
X94428798Y-116559622D01*
X94397289Y-116579340D01*
X94349662Y-116593798D01*
X94282714Y-116603853D01*
X94193241Y-116610366D01*
X94078038Y-116614196D01*
X93933902Y-116616201D01*
X93757630Y-116617240D01*
X93546016Y-116618173D01*
X93462465Y-116618637D01*
X92551720Y-116624174D01*
X92551720Y-116457406D01*
X92550241Y-116371268D01*
X92546320Y-116292963D01*
X92540734Y-116236796D01*
X92539317Y-116228626D01*
X92526915Y-116166615D01*
X91817501Y-116166615D01*
X91818077Y-116270794D01*
X91819041Y-116321044D01*
X91821420Y-116403600D01*
X91824965Y-116511115D01*
X91829431Y-116636241D01*
X91834570Y-116771632D01*
X91836933Y-116831380D01*
X91844768Y-117007115D01*
X91853439Y-117148280D01*
X91864093Y-117259990D01*
X91877879Y-117347360D01*
X91895944Y-117415507D01*
X91919435Y-117469546D01*
X91949500Y-117514594D01*
X91987287Y-117555765D01*
X92002692Y-117570337D01*
X92056497Y-117615117D01*
X92115311Y-117653030D01*
X92182723Y-117684614D01*
X92262325Y-117710405D01*
X92357708Y-117730941D01*
X92472461Y-117746759D01*
X92610176Y-117758394D01*
X92774445Y-117766385D01*
X92968856Y-117771268D01*
X93197002Y-117773580D01*
X93364531Y-117773958D01*
X94040001Y-117773958D01*
X94039730Y-117580482D01*
X94038414Y-117491856D01*
X94035106Y-117414204D01*
X94030388Y-117358856D01*
X94027494Y-117342357D01*
X94015528Y-117297708D01*
X93358038Y-117297416D01*
X93165544Y-117297176D01*
X93008965Y-117296238D01*
X92884531Y-117293985D01*
X92788469Y-117289805D01*
X92717008Y-117283084D01*
X92666376Y-117273207D01*
X92632803Y-117259560D01*
X92612515Y-117241531D01*
X92601742Y-117218503D01*
X92596712Y-117189865D01*
X92595170Y-117173229D01*
X92589012Y-117099271D01*
X93511508Y-117099271D01*
X93724993Y-117098800D01*
X93924636Y-117097440D01*
X94106375Y-117095269D01*
X94266153Y-117092368D01*
X94399908Y-117088815D01*
X94503583Y-117084689D01*
X94573116Y-117080069D01*
X94589229Y-117078271D01*
X94759653Y-117040991D01*
X94906876Y-116979580D01*
X95027113Y-116896316D01*
X95116576Y-116793477D01*
X95144442Y-116744218D01*
X95160444Y-116691481D01*
X95174066Y-116610822D01*
X95184452Y-116513977D01*
X95190748Y-116412681D01*
X95192099Y-116318672D01*
X95187649Y-116243685D01*
X95182876Y-116216569D01*
X95170339Y-116166615D01*
X94456720Y-116166615D01*
X94456720Y-116352055D01*
G36*
X95399298Y-116613099D02*
G01*
X96699063Y-116623021D01*
X96974007Y-116625296D01*
X97211557Y-116627665D01*
X97414007Y-116630190D01*
X97583652Y-116632928D01*
X97722786Y-116635941D01*
X97833703Y-116639287D01*
X97918697Y-116643027D01*
X97980061Y-116647220D01*
X98020091Y-116651925D01*
X98041079Y-116657204D01*
X98042624Y-116657988D01*
X98068903Y-116680257D01*
X98087966Y-116716366D01*
X98101001Y-116772229D01*
X98109197Y-116853760D01*
X98113741Y-116966874D01*
X98114716Y-117016713D01*
X98115142Y-117111651D01*
X98112048Y-117175371D01*
X98104284Y-117216275D01*
X98090699Y-117242762D01*
X98082464Y-117252131D01*
X98073562Y-117259237D01*
X98060090Y-117265359D01*
X98039160Y-117270586D01*
X98007888Y-117275005D01*
X97963388Y-117278704D01*
X97902775Y-117281773D01*
X97823163Y-117284298D01*
X97721665Y-117286367D01*
X97595398Y-117288070D01*
X97441474Y-117289493D01*
X97257008Y-117290726D01*
X97039115Y-117291855D01*
X96784909Y-117292970D01*
X96738050Y-117293163D01*
X95429063Y-117298540D01*
X95429334Y-117491601D01*
X95430654Y-117580141D01*
X95433968Y-117657711D01*
X95438694Y-117712960D01*
X95441571Y-117729310D01*
X95453536Y-117773958D01*
X96746026Y-117771319D01*
X96973907Y-117770604D01*
X97193845Y-117769435D01*
X97401991Y-117767863D01*
X97594497Y-117765939D01*
X97767516Y-117763714D01*
X97917199Y-117761239D01*
X98039698Y-117758565D01*
X98131165Y-117755744D01*
X98187753Y-117752825D01*
X98195979Y-117752089D01*
X98359543Y-117726879D01*
X98490380Y-117687544D01*
X98593860Y-117631087D01*
X98675350Y-117554511D01*
X98740220Y-117454820D01*
X98744870Y-117445721D01*
X98807960Y-117320169D01*
X98795070Y-117075775D01*
X98785360Y-116910737D01*
X98775020Y-116779678D01*
X98763137Y-116676890D01*
X98748794Y-116596664D01*
X98731076Y-116533292D01*
X98709067Y-116481067D01*
X98695777Y-116456683D01*
X98630346Y-116370084D01*
X98542824Y-116300617D01*
X98426073Y-116243184D01*
X98365938Y-116221201D01*
X98340591Y-116212875D01*
X98315354Y-116205667D01*
X98287272Y-116199482D01*
X98253392Y-116194224D01*
X98210760Y-116189798D01*
X98156423Y-116186108D01*
X98087425Y-116183059D01*
X98000814Y-116180555D01*
X97893635Y-116178502D01*
X97762934Y-116176804D01*
X97605758Y-116175365D01*
X97419152Y-116174090D01*
X97200163Y-116172884D01*
X96945837Y-116171651D01*
X96812505Y-116171031D01*
X95388056Y-116164449D01*
X95399298Y-116613099D01*
G37*
X95399298Y-116613099D02*
X96699063Y-116623021D01*
X96974007Y-116625296D01*
X97211557Y-116627665D01*
X97414007Y-116630190D01*
X97583652Y-116632928D01*
X97722786Y-116635941D01*
X97833703Y-116639287D01*
X97918697Y-116643027D01*
X97980061Y-116647220D01*
X98020091Y-116651925D01*
X98041079Y-116657204D01*
X98042624Y-116657988D01*
X98068903Y-116680257D01*
X98087966Y-116716366D01*
X98101001Y-116772229D01*
X98109197Y-116853760D01*
X98113741Y-116966874D01*
X98114716Y-117016713D01*
X98115142Y-117111651D01*
X98112048Y-117175371D01*
X98104284Y-117216275D01*
X98090699Y-117242762D01*
X98082464Y-117252131D01*
X98073562Y-117259237D01*
X98060090Y-117265359D01*
X98039160Y-117270586D01*
X98007888Y-117275005D01*
X97963388Y-117278704D01*
X97902775Y-117281773D01*
X97823163Y-117284298D01*
X97721665Y-117286367D01*
X97595398Y-117288070D01*
X97441474Y-117289493D01*
X97257008Y-117290726D01*
X97039115Y-117291855D01*
X96784909Y-117292970D01*
X96738050Y-117293163D01*
X95429063Y-117298540D01*
X95429334Y-117491601D01*
X95430654Y-117580141D01*
X95433968Y-117657711D01*
X95438694Y-117712960D01*
X95441571Y-117729310D01*
X95453536Y-117773958D01*
X96746026Y-117771319D01*
X96973907Y-117770604D01*
X97193845Y-117769435D01*
X97401991Y-117767863D01*
X97594497Y-117765939D01*
X97767516Y-117763714D01*
X97917199Y-117761239D01*
X98039698Y-117758565D01*
X98131165Y-117755744D01*
X98187753Y-117752825D01*
X98195979Y-117752089D01*
X98359543Y-117726879D01*
X98490380Y-117687544D01*
X98593860Y-117631087D01*
X98675350Y-117554511D01*
X98740220Y-117454820D01*
X98744870Y-117445721D01*
X98807960Y-117320169D01*
X98795070Y-117075775D01*
X98785360Y-116910737D01*
X98775020Y-116779678D01*
X98763137Y-116676890D01*
X98748794Y-116596664D01*
X98731076Y-116533292D01*
X98709067Y-116481067D01*
X98695777Y-116456683D01*
X98630346Y-116370084D01*
X98542824Y-116300617D01*
X98426073Y-116243184D01*
X98365938Y-116221201D01*
X98340591Y-116212875D01*
X98315354Y-116205667D01*
X98287272Y-116199482D01*
X98253392Y-116194224D01*
X98210760Y-116189798D01*
X98156423Y-116186108D01*
X98087425Y-116183059D01*
X98000814Y-116180555D01*
X97893635Y-116178502D01*
X97762934Y-116176804D01*
X97605758Y-116175365D01*
X97419152Y-116174090D01*
X97200163Y-116172884D01*
X96945837Y-116171651D01*
X96812505Y-116171031D01*
X95388056Y-116164449D01*
X95399298Y-116613099D01*
G36*
X84028776Y-97147351D02*
G01*
X84033760Y-97305862D01*
X84039246Y-97473343D01*
X84044847Y-97638455D01*
X84050178Y-97789858D01*
X84054850Y-97916214D01*
X84056026Y-97946519D01*
X84068517Y-98264019D01*
X84798047Y-98274857D01*
X84782961Y-97773344D01*
X84778038Y-97614576D01*
X84772654Y-97449246D01*
X84767165Y-97287758D01*
X84761929Y-97140517D01*
X84757303Y-97017930D01*
X84755539Y-96974176D01*
X84743204Y-96676519D01*
X84378611Y-96671101D01*
X84014017Y-96665684D01*
X84028776Y-97147351D01*
G37*
X84028776Y-97147351D02*
X84033760Y-97305862D01*
X84039246Y-97473343D01*
X84044847Y-97638455D01*
X84050178Y-97789858D01*
X84054850Y-97916214D01*
X84056026Y-97946519D01*
X84068517Y-98264019D01*
X84798047Y-98274857D01*
X84782961Y-97773344D01*
X84778038Y-97614576D01*
X84772654Y-97449246D01*
X84767165Y-97287758D01*
X84761929Y-97140517D01*
X84757303Y-97017930D01*
X84755539Y-96974176D01*
X84743204Y-96676519D01*
X84378611Y-96671101D01*
X84014017Y-96665684D01*
X84028776Y-97147351D01*
G36*
X85511772Y-96665219D02*
G01*
X85350364Y-96665664D01*
X85208046Y-96666525D01*
X85088865Y-96667820D01*
X84996870Y-96669572D01*
X84936111Y-96671800D01*
X84910636Y-96674525D01*
X84910222Y-96674786D01*
X84907426Y-96696727D01*
X84906166Y-96749957D01*
X84906518Y-96826107D01*
X84908153Y-96902989D01*
X84914352Y-97123004D01*
X86009481Y-97124187D01*
X86270767Y-97124687D01*
X86495139Y-97125655D01*
X86685368Y-97127196D01*
X86844227Y-97129418D01*
X86974487Y-97132428D01*
X87078920Y-97136333D01*
X87160298Y-97141241D01*
X87221392Y-97147259D01*
X87264974Y-97154494D01*
X87293816Y-97163053D01*
X87310690Y-97173044D01*
X87312268Y-97174575D01*
X87325674Y-97205127D01*
X87335466Y-97255850D01*
X87336102Y-97261910D01*
X87342735Y-97331363D01*
X86514259Y-97336542D01*
X85685782Y-97341720D01*
X85685901Y-97405995D01*
X85687507Y-97456521D01*
X85691650Y-97531900D01*
X85697501Y-97617441D01*
X85698764Y-97633980D01*
X85711508Y-97797691D01*
X87368115Y-97797691D01*
X87382423Y-98035816D01*
X87396730Y-98273941D01*
X88112347Y-98273941D01*
X88098245Y-97753043D01*
X88092044Y-97556269D01*
X88084638Y-97394652D01*
X88075292Y-97263665D01*
X88063270Y-97158782D01*
X88047836Y-97075474D01*
X88028255Y-97009214D01*
X88003790Y-96955476D01*
X87973708Y-96909732D01*
X87958088Y-96890486D01*
X87868113Y-96812776D01*
X87746534Y-96749986D01*
X87599525Y-96704876D01*
X87505010Y-96687897D01*
X87463879Y-96684807D01*
X87389203Y-96681867D01*
X87285031Y-96679096D01*
X87155412Y-96676515D01*
X87004395Y-96674145D01*
X86836029Y-96672006D01*
X86654362Y-96670118D01*
X86463443Y-96668503D01*
X86267320Y-96667179D01*
X86070043Y-96666169D01*
X85875660Y-96665492D01*
X85688220Y-96665169D01*
X85511772Y-96665219D01*
G37*
X85511772Y-96665219D02*
X85350364Y-96665664D01*
X85208046Y-96666525D01*
X85088865Y-96667820D01*
X84996870Y-96669572D01*
X84936111Y-96671800D01*
X84910636Y-96674525D01*
X84910222Y-96674786D01*
X84907426Y-96696727D01*
X84906166Y-96749957D01*
X84906518Y-96826107D01*
X84908153Y-96902989D01*
X84914352Y-97123004D01*
X86009481Y-97124187D01*
X86270767Y-97124687D01*
X86495139Y-97125655D01*
X86685368Y-97127196D01*
X86844227Y-97129418D01*
X86974487Y-97132428D01*
X87078920Y-97136333D01*
X87160298Y-97141241D01*
X87221392Y-97147259D01*
X87264974Y-97154494D01*
X87293816Y-97163053D01*
X87310690Y-97173044D01*
X87312268Y-97174575D01*
X87325674Y-97205127D01*
X87335466Y-97255850D01*
X87336102Y-97261910D01*
X87342735Y-97331363D01*
X86514259Y-97336542D01*
X85685782Y-97341720D01*
X85685901Y-97405995D01*
X85687507Y-97456521D01*
X85691650Y-97531900D01*
X85697501Y-97617441D01*
X85698764Y-97633980D01*
X85711508Y-97797691D01*
X87368115Y-97797691D01*
X87382423Y-98035816D01*
X87396730Y-98273941D01*
X88112347Y-98273941D01*
X88098245Y-97753043D01*
X88092044Y-97556269D01*
X88084638Y-97394652D01*
X88075292Y-97263665D01*
X88063270Y-97158782D01*
X88047836Y-97075474D01*
X88028255Y-97009214D01*
X88003790Y-96955476D01*
X87973708Y-96909732D01*
X87958088Y-96890486D01*
X87868113Y-96812776D01*
X87746534Y-96749986D01*
X87599525Y-96704876D01*
X87505010Y-96687897D01*
X87463879Y-96684807D01*
X87389203Y-96681867D01*
X87285031Y-96679096D01*
X87155412Y-96676515D01*
X87004395Y-96674145D01*
X86836029Y-96672006D01*
X86654362Y-96670118D01*
X86463443Y-96668503D01*
X86267320Y-96667179D01*
X86070043Y-96666169D01*
X85875660Y-96665492D01*
X85688220Y-96665169D01*
X85511772Y-96665219D01*
G36*
X88245626Y-96831817D02*
G01*
X88247102Y-96918032D01*
X88251013Y-96996406D01*
X88256588Y-97052664D01*
X88258028Y-97060992D01*
X88270431Y-97123004D01*
X89483380Y-97123477D01*
X89749721Y-97123752D01*
X89979208Y-97124434D01*
X90174674Y-97125642D01*
X90338949Y-97127494D01*
X90474867Y-97130111D01*
X90585259Y-97133612D01*
X90672958Y-97138115D01*
X90740797Y-97143740D01*
X90791606Y-97150606D01*
X90828220Y-97158832D01*
X90853469Y-97168537D01*
X90870186Y-97179842D01*
X90872388Y-97181936D01*
X90882659Y-97213046D01*
X90889901Y-97281436D01*
X90893940Y-97384805D01*
X90894767Y-97475515D01*
X90894552Y-97583918D01*
X90893153Y-97659413D01*
X90889434Y-97708778D01*
X90882262Y-97738792D01*
X90870500Y-97756234D01*
X90853016Y-97767882D01*
X90845157Y-97771934D01*
X90825992Y-97777312D01*
X90789611Y-97781932D01*
X90733560Y-97785843D01*
X90655383Y-97789092D01*
X90552626Y-97791729D01*
X90422834Y-97793799D01*
X90263553Y-97795352D01*
X90072327Y-97796435D01*
X89846702Y-97797097D01*
X89584223Y-97797385D01*
X89540431Y-97797399D01*
X88285313Y-97797691D01*
X88285486Y-97931637D01*
X88287609Y-98021424D01*
X88292912Y-98113705D01*
X88298172Y-98169762D01*
X88310685Y-98273941D01*
X89612648Y-98271367D01*
X89841018Y-98270659D01*
X90061183Y-98269482D01*
X90269347Y-98267890D01*
X90461712Y-98265934D01*
X90634482Y-98263665D01*
X90783860Y-98261135D01*
X90906047Y-98258396D01*
X90997248Y-98255500D01*
X91053666Y-98252498D01*
X91063016Y-98251610D01*
X91239534Y-98220366D01*
X91382075Y-98170950D01*
X91492413Y-98102418D01*
X91572324Y-98013829D01*
X91598915Y-97966993D01*
X91614403Y-97933003D01*
X91625648Y-97900099D01*
X91633155Y-97861691D01*
X91637436Y-97811187D01*
X91638997Y-97741997D01*
X91638348Y-97647530D01*
X91635997Y-97521196D01*
X91635419Y-97493921D01*
X91632286Y-97360403D01*
X91628834Y-97259641D01*
X91624221Y-97184705D01*
X91617601Y-97128667D01*
X91608131Y-97084598D01*
X91594966Y-97045569D01*
X91577263Y-97004653D01*
X91575287Y-97000356D01*
X91514644Y-96901060D01*
X91431025Y-96821847D01*
X91318429Y-96757951D01*
X91223878Y-96721367D01*
X91198273Y-96712958D01*
X91172955Y-96705679D01*
X91144967Y-96699436D01*
X91111351Y-96694131D01*
X91069151Y-96689670D01*
X91015409Y-96685955D01*
X90947169Y-96682893D01*
X90861474Y-96680386D01*
X90755367Y-96678340D01*
X90625890Y-96676657D01*
X90470087Y-96675243D01*
X90285001Y-96674001D01*
X90067674Y-96672836D01*
X89815151Y-96671652D01*
X89669415Y-96670999D01*
X88245626Y-96664655D01*
X88245626Y-96831817D01*
G37*
X88245626Y-96831817D02*
X88247102Y-96918032D01*
X88251013Y-96996406D01*
X88256588Y-97052664D01*
X88258028Y-97060992D01*
X88270431Y-97123004D01*
X89483380Y-97123477D01*
X89749721Y-97123752D01*
X89979208Y-97124434D01*
X90174674Y-97125642D01*
X90338949Y-97127494D01*
X90474867Y-97130111D01*
X90585259Y-97133612D01*
X90672958Y-97138115D01*
X90740797Y-97143740D01*
X90791606Y-97150606D01*
X90828220Y-97158832D01*
X90853469Y-97168537D01*
X90870186Y-97179842D01*
X90872388Y-97181936D01*
X90882659Y-97213046D01*
X90889901Y-97281436D01*
X90893940Y-97384805D01*
X90894767Y-97475515D01*
X90894552Y-97583918D01*
X90893153Y-97659413D01*
X90889434Y-97708778D01*
X90882262Y-97738792D01*
X90870500Y-97756234D01*
X90853016Y-97767882D01*
X90845157Y-97771934D01*
X90825992Y-97777312D01*
X90789611Y-97781932D01*
X90733560Y-97785843D01*
X90655383Y-97789092D01*
X90552626Y-97791729D01*
X90422834Y-97793799D01*
X90263553Y-97795352D01*
X90072327Y-97796435D01*
X89846702Y-97797097D01*
X89584223Y-97797385D01*
X89540431Y-97797399D01*
X88285313Y-97797691D01*
X88285486Y-97931637D01*
X88287609Y-98021424D01*
X88292912Y-98113705D01*
X88298172Y-98169762D01*
X88310685Y-98273941D01*
X89612648Y-98271367D01*
X89841018Y-98270659D01*
X90061183Y-98269482D01*
X90269347Y-98267890D01*
X90461712Y-98265934D01*
X90634482Y-98263665D01*
X90783860Y-98261135D01*
X90906047Y-98258396D01*
X90997248Y-98255500D01*
X91053666Y-98252498D01*
X91063016Y-98251610D01*
X91239534Y-98220366D01*
X91382075Y-98170950D01*
X91492413Y-98102418D01*
X91572324Y-98013829D01*
X91598915Y-97966993D01*
X91614403Y-97933003D01*
X91625648Y-97900099D01*
X91633155Y-97861691D01*
X91637436Y-97811187D01*
X91638997Y-97741997D01*
X91638348Y-97647530D01*
X91635997Y-97521196D01*
X91635419Y-97493921D01*
X91632286Y-97360403D01*
X91628834Y-97259641D01*
X91624221Y-97184705D01*
X91617601Y-97128667D01*
X91608131Y-97084598D01*
X91594966Y-97045569D01*
X91577263Y-97004653D01*
X91575287Y-97000356D01*
X91514644Y-96901060D01*
X91431025Y-96821847D01*
X91318429Y-96757951D01*
X91223878Y-96721367D01*
X91198273Y-96712958D01*
X91172955Y-96705679D01*
X91144967Y-96699436D01*
X91111351Y-96694131D01*
X91069151Y-96689670D01*
X91015409Y-96685955D01*
X90947169Y-96682893D01*
X90861474Y-96680386D01*
X90755367Y-96678340D01*
X90625890Y-96676657D01*
X90470087Y-96675243D01*
X90285001Y-96674001D01*
X90067674Y-96672836D01*
X89815151Y-96671652D01*
X89669415Y-96670999D01*
X88245626Y-96664655D01*
X88245626Y-96831817D01*
G36*
X94456720Y-96852038D02*
G01*
X94457739Y-96910945D01*
X94458660Y-96960296D01*
X94456280Y-97000951D01*
X94447394Y-97033768D01*
X94428798Y-97059605D01*
X94397289Y-97079323D01*
X94349662Y-97093781D01*
X94282714Y-97103836D01*
X94193241Y-97110349D01*
X94078038Y-97114179D01*
X93933902Y-97116184D01*
X93757630Y-97117223D01*
X93546016Y-97118156D01*
X93462465Y-97118620D01*
X92551720Y-97124157D01*
X92551720Y-96957389D01*
X92550241Y-96871251D01*
X92546320Y-96792946D01*
X92540734Y-96736779D01*
X92539317Y-96728609D01*
X92526915Y-96666598D01*
X91817501Y-96666598D01*
X91818077Y-96770777D01*
X91819041Y-96821027D01*
X91821420Y-96903583D01*
X91824965Y-97011098D01*
X91829431Y-97136224D01*
X91834570Y-97271615D01*
X91836933Y-97331363D01*
X91844768Y-97507098D01*
X91853439Y-97648263D01*
X91864093Y-97759973D01*
X91877879Y-97847343D01*
X91895944Y-97915490D01*
X91919435Y-97969529D01*
X91949500Y-98014577D01*
X91987287Y-98055748D01*
X92002692Y-98070320D01*
X92056497Y-98115100D01*
X92115311Y-98153013D01*
X92182723Y-98184597D01*
X92262325Y-98210388D01*
X92357708Y-98230924D01*
X92472461Y-98246742D01*
X92610176Y-98258377D01*
X92774445Y-98266368D01*
X92968856Y-98271251D01*
X93197002Y-98273563D01*
X93364531Y-98273941D01*
X94040001Y-98273941D01*
X94039730Y-98080465D01*
X94038414Y-97991839D01*
X94035106Y-97914187D01*
X94030388Y-97858839D01*
X94027494Y-97842340D01*
X94015528Y-97797691D01*
X93358038Y-97797399D01*
X93165544Y-97797159D01*
X93008965Y-97796221D01*
X92884531Y-97793968D01*
X92788469Y-97789788D01*
X92717008Y-97783067D01*
X92666376Y-97773190D01*
X92632803Y-97759543D01*
X92612515Y-97741514D01*
X92601742Y-97718486D01*
X92596712Y-97689848D01*
X92595170Y-97673212D01*
X92589012Y-97599254D01*
X93511508Y-97599254D01*
X93724993Y-97598783D01*
X93924636Y-97597423D01*
X94106375Y-97595252D01*
X94266153Y-97592351D01*
X94399908Y-97588798D01*
X94503583Y-97584672D01*
X94573116Y-97580052D01*
X94589229Y-97578254D01*
X94759653Y-97540974D01*
X94906876Y-97479563D01*
X95027113Y-97396299D01*
X95116576Y-97293460D01*
X95144442Y-97244201D01*
X95160444Y-97191464D01*
X95174066Y-97110805D01*
X95184452Y-97013960D01*
X95190748Y-96912664D01*
X95192099Y-96818655D01*
X95187649Y-96743668D01*
X95182876Y-96716552D01*
X95170339Y-96666598D01*
X94456720Y-96666598D01*
X94456720Y-96852038D01*
G37*
X94456720Y-96852038D02*
X94457739Y-96910945D01*
X94458660Y-96960296D01*
X94456280Y-97000951D01*
X94447394Y-97033768D01*
X94428798Y-97059605D01*
X94397289Y-97079323D01*
X94349662Y-97093781D01*
X94282714Y-97103836D01*
X94193241Y-97110349D01*
X94078038Y-97114179D01*
X93933902Y-97116184D01*
X93757630Y-97117223D01*
X93546016Y-97118156D01*
X93462465Y-97118620D01*
X92551720Y-97124157D01*
X92551720Y-96957389D01*
X92550241Y-96871251D01*
X92546320Y-96792946D01*
X92540734Y-96736779D01*
X92539317Y-96728609D01*
X92526915Y-96666598D01*
X91817501Y-96666598D01*
X91818077Y-96770777D01*
X91819041Y-96821027D01*
X91821420Y-96903583D01*
X91824965Y-97011098D01*
X91829431Y-97136224D01*
X91834570Y-97271615D01*
X91836933Y-97331363D01*
X91844768Y-97507098D01*
X91853439Y-97648263D01*
X91864093Y-97759973D01*
X91877879Y-97847343D01*
X91895944Y-97915490D01*
X91919435Y-97969529D01*
X91949500Y-98014577D01*
X91987287Y-98055748D01*
X92002692Y-98070320D01*
X92056497Y-98115100D01*
X92115311Y-98153013D01*
X92182723Y-98184597D01*
X92262325Y-98210388D01*
X92357708Y-98230924D01*
X92472461Y-98246742D01*
X92610176Y-98258377D01*
X92774445Y-98266368D01*
X92968856Y-98271251D01*
X93197002Y-98273563D01*
X93364531Y-98273941D01*
X94040001Y-98273941D01*
X94039730Y-98080465D01*
X94038414Y-97991839D01*
X94035106Y-97914187D01*
X94030388Y-97858839D01*
X94027494Y-97842340D01*
X94015528Y-97797691D01*
X93358038Y-97797399D01*
X93165544Y-97797159D01*
X93008965Y-97796221D01*
X92884531Y-97793968D01*
X92788469Y-97789788D01*
X92717008Y-97783067D01*
X92666376Y-97773190D01*
X92632803Y-97759543D01*
X92612515Y-97741514D01*
X92601742Y-97718486D01*
X92596712Y-97689848D01*
X92595170Y-97673212D01*
X92589012Y-97599254D01*
X93511508Y-97599254D01*
X93724993Y-97598783D01*
X93924636Y-97597423D01*
X94106375Y-97595252D01*
X94266153Y-97592351D01*
X94399908Y-97588798D01*
X94503583Y-97584672D01*
X94573116Y-97580052D01*
X94589229Y-97578254D01*
X94759653Y-97540974D01*
X94906876Y-97479563D01*
X95027113Y-97396299D01*
X95116576Y-97293460D01*
X95144442Y-97244201D01*
X95160444Y-97191464D01*
X95174066Y-97110805D01*
X95184452Y-97013960D01*
X95190748Y-96912664D01*
X95192099Y-96818655D01*
X95187649Y-96743668D01*
X95182876Y-96716552D01*
X95170339Y-96666598D01*
X94456720Y-96666598D01*
X94456720Y-96852038D01*
G36*
X95399298Y-97113082D02*
G01*
X96699063Y-97123004D01*
X96974007Y-97125279D01*
X97211557Y-97127648D01*
X97414007Y-97130173D01*
X97583652Y-97132911D01*
X97722786Y-97135924D01*
X97833703Y-97139270D01*
X97918697Y-97143010D01*
X97980061Y-97147203D01*
X98020091Y-97151908D01*
X98041079Y-97157187D01*
X98042624Y-97157971D01*
X98068903Y-97180240D01*
X98087966Y-97216349D01*
X98101001Y-97272212D01*
X98109197Y-97353743D01*
X98113741Y-97466857D01*
X98114716Y-97516696D01*
X98115142Y-97611634D01*
X98112048Y-97675354D01*
X98104284Y-97716258D01*
X98090699Y-97742745D01*
X98082464Y-97752114D01*
X98073562Y-97759220D01*
X98060090Y-97765342D01*
X98039160Y-97770569D01*
X98007888Y-97774988D01*
X97963388Y-97778687D01*
X97902775Y-97781756D01*
X97823163Y-97784281D01*
X97721665Y-97786350D01*
X97595398Y-97788053D01*
X97441474Y-97789476D01*
X97257008Y-97790709D01*
X97039115Y-97791838D01*
X96784909Y-97792953D01*
X96738050Y-97793146D01*
X95429063Y-97798523D01*
X95429334Y-97991584D01*
X95430654Y-98080124D01*
X95433968Y-98157694D01*
X95438694Y-98212943D01*
X95441571Y-98229293D01*
X95453536Y-98273941D01*
X96746026Y-98271302D01*
X96973907Y-98270587D01*
X97193845Y-98269418D01*
X97401991Y-98267846D01*
X97594497Y-98265922D01*
X97767516Y-98263697D01*
X97917199Y-98261222D01*
X98039698Y-98258548D01*
X98131165Y-98255727D01*
X98187753Y-98252808D01*
X98195979Y-98252072D01*
X98359543Y-98226862D01*
X98490380Y-98187527D01*
X98593860Y-98131070D01*
X98675350Y-98054494D01*
X98740220Y-97954803D01*
X98744870Y-97945704D01*
X98807960Y-97820152D01*
X98795070Y-97575758D01*
X98785360Y-97410720D01*
X98775020Y-97279661D01*
X98763137Y-97176873D01*
X98748794Y-97096647D01*
X98731076Y-97033275D01*
X98709067Y-96981050D01*
X98695777Y-96956666D01*
X98630346Y-96870067D01*
X98542824Y-96800600D01*
X98426073Y-96743167D01*
X98365938Y-96721184D01*
X98340591Y-96712858D01*
X98315354Y-96705650D01*
X98287272Y-96699465D01*
X98253392Y-96694207D01*
X98210760Y-96689781D01*
X98156423Y-96686091D01*
X98087425Y-96683042D01*
X98000814Y-96680538D01*
X97893635Y-96678485D01*
X97762934Y-96676787D01*
X97605758Y-96675348D01*
X97419152Y-96674073D01*
X97200163Y-96672867D01*
X96945837Y-96671634D01*
X96812505Y-96671014D01*
X95388056Y-96664432D01*
X95399298Y-97113082D01*
G37*
X95399298Y-97113082D02*
X96699063Y-97123004D01*
X96974007Y-97125279D01*
X97211557Y-97127648D01*
X97414007Y-97130173D01*
X97583652Y-97132911D01*
X97722786Y-97135924D01*
X97833703Y-97139270D01*
X97918697Y-97143010D01*
X97980061Y-97147203D01*
X98020091Y-97151908D01*
X98041079Y-97157187D01*
X98042624Y-97157971D01*
X98068903Y-97180240D01*
X98087966Y-97216349D01*
X98101001Y-97272212D01*
X98109197Y-97353743D01*
X98113741Y-97466857D01*
X98114716Y-97516696D01*
X98115142Y-97611634D01*
X98112048Y-97675354D01*
X98104284Y-97716258D01*
X98090699Y-97742745D01*
X98082464Y-97752114D01*
X98073562Y-97759220D01*
X98060090Y-97765342D01*
X98039160Y-97770569D01*
X98007888Y-97774988D01*
X97963388Y-97778687D01*
X97902775Y-97781756D01*
X97823163Y-97784281D01*
X97721665Y-97786350D01*
X97595398Y-97788053D01*
X97441474Y-97789476D01*
X97257008Y-97790709D01*
X97039115Y-97791838D01*
X96784909Y-97792953D01*
X96738050Y-97793146D01*
X95429063Y-97798523D01*
X95429334Y-97991584D01*
X95430654Y-98080124D01*
X95433968Y-98157694D01*
X95438694Y-98212943D01*
X95441571Y-98229293D01*
X95453536Y-98273941D01*
X96746026Y-98271302D01*
X96973907Y-98270587D01*
X97193845Y-98269418D01*
X97401991Y-98267846D01*
X97594497Y-98265922D01*
X97767516Y-98263697D01*
X97917199Y-98261222D01*
X98039698Y-98258548D01*
X98131165Y-98255727D01*
X98187753Y-98252808D01*
X98195979Y-98252072D01*
X98359543Y-98226862D01*
X98490380Y-98187527D01*
X98593860Y-98131070D01*
X98675350Y-98054494D01*
X98740220Y-97954803D01*
X98744870Y-97945704D01*
X98807960Y-97820152D01*
X98795070Y-97575758D01*
X98785360Y-97410720D01*
X98775020Y-97279661D01*
X98763137Y-97176873D01*
X98748794Y-97096647D01*
X98731076Y-97033275D01*
X98709067Y-96981050D01*
X98695777Y-96956666D01*
X98630346Y-96870067D01*
X98542824Y-96800600D01*
X98426073Y-96743167D01*
X98365938Y-96721184D01*
X98340591Y-96712858D01*
X98315354Y-96705650D01*
X98287272Y-96699465D01*
X98253392Y-96694207D01*
X98210760Y-96689781D01*
X98156423Y-96686091D01*
X98087425Y-96683042D01*
X98000814Y-96680538D01*
X97893635Y-96678485D01*
X97762934Y-96676787D01*
X97605758Y-96675348D01*
X97419152Y-96674073D01*
X97200163Y-96672867D01*
X96945837Y-96671634D01*
X96812505Y-96671014D01*
X95388056Y-96664432D01*
X95399298Y-97113082D01*
G36*
X84028776Y-77647334D02*
G01*
X84033760Y-77805845D01*
X84039246Y-77973326D01*
X84044847Y-78138438D01*
X84050178Y-78289841D01*
X84054850Y-78416197D01*
X84056026Y-78446502D01*
X84068517Y-78764002D01*
X84798047Y-78774840D01*
X84782961Y-78273327D01*
X84778038Y-78114559D01*
X84772654Y-77949229D01*
X84767165Y-77787741D01*
X84761929Y-77640500D01*
X84757303Y-77517913D01*
X84755539Y-77474159D01*
X84743204Y-77176502D01*
X84378611Y-77171084D01*
X84014017Y-77165667D01*
X84028776Y-77647334D01*
G37*
X84028776Y-77647334D02*
X84033760Y-77805845D01*
X84039246Y-77973326D01*
X84044847Y-78138438D01*
X84050178Y-78289841D01*
X84054850Y-78416197D01*
X84056026Y-78446502D01*
X84068517Y-78764002D01*
X84798047Y-78774840D01*
X84782961Y-78273327D01*
X84778038Y-78114559D01*
X84772654Y-77949229D01*
X84767165Y-77787741D01*
X84761929Y-77640500D01*
X84757303Y-77517913D01*
X84755539Y-77474159D01*
X84743204Y-77176502D01*
X84378611Y-77171084D01*
X84014017Y-77165667D01*
X84028776Y-77647334D01*
G36*
X85511772Y-77165202D02*
G01*
X85350364Y-77165647D01*
X85208046Y-77166508D01*
X85088865Y-77167803D01*
X84996870Y-77169555D01*
X84936111Y-77171783D01*
X84910636Y-77174508D01*
X84910222Y-77174769D01*
X84907426Y-77196710D01*
X84906166Y-77249940D01*
X84906518Y-77326090D01*
X84908153Y-77402972D01*
X84914352Y-77622987D01*
X86009481Y-77624170D01*
X86270767Y-77624670D01*
X86495139Y-77625638D01*
X86685368Y-77627179D01*
X86844227Y-77629401D01*
X86974487Y-77632411D01*
X87078920Y-77636316D01*
X87160298Y-77641224D01*
X87221392Y-77647242D01*
X87264974Y-77654477D01*
X87293816Y-77663036D01*
X87310690Y-77673027D01*
X87312268Y-77674558D01*
X87325674Y-77705110D01*
X87335466Y-77755833D01*
X87336102Y-77761893D01*
X87342735Y-77831346D01*
X86514259Y-77836525D01*
X85685782Y-77841703D01*
X85685901Y-77905978D01*
X85687507Y-77956504D01*
X85691650Y-78031883D01*
X85697501Y-78117424D01*
X85698764Y-78133963D01*
X85711508Y-78297674D01*
X87368115Y-78297674D01*
X87382423Y-78535799D01*
X87396730Y-78773924D01*
X88112347Y-78773924D01*
X88098245Y-78253026D01*
X88092044Y-78056252D01*
X88084638Y-77894635D01*
X88075292Y-77763648D01*
X88063270Y-77658765D01*
X88047836Y-77575457D01*
X88028255Y-77509197D01*
X88003790Y-77455459D01*
X87973708Y-77409715D01*
X87958088Y-77390469D01*
X87868113Y-77312759D01*
X87746534Y-77249969D01*
X87599525Y-77204859D01*
X87505010Y-77187880D01*
X87463879Y-77184790D01*
X87389203Y-77181850D01*
X87285031Y-77179079D01*
X87155412Y-77176498D01*
X87004395Y-77174128D01*
X86836029Y-77171989D01*
X86654362Y-77170101D01*
X86463443Y-77168486D01*
X86267320Y-77167162D01*
X86070043Y-77166152D01*
X85875660Y-77165475D01*
X85688220Y-77165152D01*
X85511772Y-77165202D01*
G37*
X85511772Y-77165202D02*
X85350364Y-77165647D01*
X85208046Y-77166508D01*
X85088865Y-77167803D01*
X84996870Y-77169555D01*
X84936111Y-77171783D01*
X84910636Y-77174508D01*
X84910222Y-77174769D01*
X84907426Y-77196710D01*
X84906166Y-77249940D01*
X84906518Y-77326090D01*
X84908153Y-77402972D01*
X84914352Y-77622987D01*
X86009481Y-77624170D01*
X86270767Y-77624670D01*
X86495139Y-77625638D01*
X86685368Y-77627179D01*
X86844227Y-77629401D01*
X86974487Y-77632411D01*
X87078920Y-77636316D01*
X87160298Y-77641224D01*
X87221392Y-77647242D01*
X87264974Y-77654477D01*
X87293816Y-77663036D01*
X87310690Y-77673027D01*
X87312268Y-77674558D01*
X87325674Y-77705110D01*
X87335466Y-77755833D01*
X87336102Y-77761893D01*
X87342735Y-77831346D01*
X86514259Y-77836525D01*
X85685782Y-77841703D01*
X85685901Y-77905978D01*
X85687507Y-77956504D01*
X85691650Y-78031883D01*
X85697501Y-78117424D01*
X85698764Y-78133963D01*
X85711508Y-78297674D01*
X87368115Y-78297674D01*
X87382423Y-78535799D01*
X87396730Y-78773924D01*
X88112347Y-78773924D01*
X88098245Y-78253026D01*
X88092044Y-78056252D01*
X88084638Y-77894635D01*
X88075292Y-77763648D01*
X88063270Y-77658765D01*
X88047836Y-77575457D01*
X88028255Y-77509197D01*
X88003790Y-77455459D01*
X87973708Y-77409715D01*
X87958088Y-77390469D01*
X87868113Y-77312759D01*
X87746534Y-77249969D01*
X87599525Y-77204859D01*
X87505010Y-77187880D01*
X87463879Y-77184790D01*
X87389203Y-77181850D01*
X87285031Y-77179079D01*
X87155412Y-77176498D01*
X87004395Y-77174128D01*
X86836029Y-77171989D01*
X86654362Y-77170101D01*
X86463443Y-77168486D01*
X86267320Y-77167162D01*
X86070043Y-77166152D01*
X85875660Y-77165475D01*
X85688220Y-77165152D01*
X85511772Y-77165202D01*
G36*
X88245626Y-77331800D02*
G01*
X88247102Y-77418015D01*
X88251013Y-77496389D01*
X88256588Y-77552647D01*
X88258028Y-77560975D01*
X88270431Y-77622987D01*
X89483380Y-77623460D01*
X89749721Y-77623735D01*
X89979208Y-77624417D01*
X90174674Y-77625625D01*
X90338949Y-77627477D01*
X90474867Y-77630094D01*
X90585259Y-77633595D01*
X90672958Y-77638098D01*
X90740797Y-77643723D01*
X90791606Y-77650589D01*
X90828220Y-77658815D01*
X90853469Y-77668520D01*
X90870186Y-77679825D01*
X90872388Y-77681919D01*
X90882659Y-77713029D01*
X90889901Y-77781419D01*
X90893940Y-77884788D01*
X90894767Y-77975498D01*
X90894552Y-78083901D01*
X90893153Y-78159396D01*
X90889434Y-78208761D01*
X90882262Y-78238775D01*
X90870500Y-78256217D01*
X90853016Y-78267865D01*
X90845157Y-78271917D01*
X90825992Y-78277295D01*
X90789611Y-78281915D01*
X90733560Y-78285826D01*
X90655383Y-78289075D01*
X90552626Y-78291712D01*
X90422834Y-78293782D01*
X90263553Y-78295335D01*
X90072327Y-78296418D01*
X89846702Y-78297080D01*
X89584223Y-78297368D01*
X89540431Y-78297382D01*
X88285313Y-78297674D01*
X88285486Y-78431620D01*
X88287609Y-78521407D01*
X88292912Y-78613688D01*
X88298172Y-78669745D01*
X88310685Y-78773924D01*
X89612648Y-78771350D01*
X89841018Y-78770642D01*
X90061183Y-78769465D01*
X90269347Y-78767873D01*
X90461712Y-78765917D01*
X90634482Y-78763648D01*
X90783860Y-78761118D01*
X90906047Y-78758379D01*
X90997248Y-78755483D01*
X91053666Y-78752481D01*
X91063016Y-78751593D01*
X91239534Y-78720349D01*
X91382075Y-78670933D01*
X91492413Y-78602401D01*
X91572324Y-78513812D01*
X91598915Y-78466976D01*
X91614403Y-78432986D01*
X91625648Y-78400082D01*
X91633155Y-78361674D01*
X91637436Y-78311170D01*
X91638997Y-78241980D01*
X91638348Y-78147513D01*
X91635997Y-78021179D01*
X91635419Y-77993904D01*
X91632286Y-77860386D01*
X91628834Y-77759624D01*
X91624221Y-77684688D01*
X91617601Y-77628650D01*
X91608131Y-77584581D01*
X91594966Y-77545552D01*
X91577263Y-77504636D01*
X91575287Y-77500339D01*
X91514644Y-77401043D01*
X91431025Y-77321830D01*
X91318429Y-77257934D01*
X91223878Y-77221350D01*
X91198273Y-77212941D01*
X91172955Y-77205662D01*
X91144967Y-77199419D01*
X91111351Y-77194114D01*
X91069151Y-77189653D01*
X91015409Y-77185938D01*
X90947169Y-77182876D01*
X90861474Y-77180369D01*
X90755367Y-77178323D01*
X90625890Y-77176640D01*
X90470087Y-77175226D01*
X90285001Y-77173984D01*
X90067674Y-77172819D01*
X89815151Y-77171635D01*
X89669415Y-77170982D01*
X88245626Y-77164638D01*
X88245626Y-77331800D01*
G37*
X88245626Y-77331800D02*
X88247102Y-77418015D01*
X88251013Y-77496389D01*
X88256588Y-77552647D01*
X88258028Y-77560975D01*
X88270431Y-77622987D01*
X89483380Y-77623460D01*
X89749721Y-77623735D01*
X89979208Y-77624417D01*
X90174674Y-77625625D01*
X90338949Y-77627477D01*
X90474867Y-77630094D01*
X90585259Y-77633595D01*
X90672958Y-77638098D01*
X90740797Y-77643723D01*
X90791606Y-77650589D01*
X90828220Y-77658815D01*
X90853469Y-77668520D01*
X90870186Y-77679825D01*
X90872388Y-77681919D01*
X90882659Y-77713029D01*
X90889901Y-77781419D01*
X90893940Y-77884788D01*
X90894767Y-77975498D01*
X90894552Y-78083901D01*
X90893153Y-78159396D01*
X90889434Y-78208761D01*
X90882262Y-78238775D01*
X90870500Y-78256217D01*
X90853016Y-78267865D01*
X90845157Y-78271917D01*
X90825992Y-78277295D01*
X90789611Y-78281915D01*
X90733560Y-78285826D01*
X90655383Y-78289075D01*
X90552626Y-78291712D01*
X90422834Y-78293782D01*
X90263553Y-78295335D01*
X90072327Y-78296418D01*
X89846702Y-78297080D01*
X89584223Y-78297368D01*
X89540431Y-78297382D01*
X88285313Y-78297674D01*
X88285486Y-78431620D01*
X88287609Y-78521407D01*
X88292912Y-78613688D01*
X88298172Y-78669745D01*
X88310685Y-78773924D01*
X89612648Y-78771350D01*
X89841018Y-78770642D01*
X90061183Y-78769465D01*
X90269347Y-78767873D01*
X90461712Y-78765917D01*
X90634482Y-78763648D01*
X90783860Y-78761118D01*
X90906047Y-78758379D01*
X90997248Y-78755483D01*
X91053666Y-78752481D01*
X91063016Y-78751593D01*
X91239534Y-78720349D01*
X91382075Y-78670933D01*
X91492413Y-78602401D01*
X91572324Y-78513812D01*
X91598915Y-78466976D01*
X91614403Y-78432986D01*
X91625648Y-78400082D01*
X91633155Y-78361674D01*
X91637436Y-78311170D01*
X91638997Y-78241980D01*
X91638348Y-78147513D01*
X91635997Y-78021179D01*
X91635419Y-77993904D01*
X91632286Y-77860386D01*
X91628834Y-77759624D01*
X91624221Y-77684688D01*
X91617601Y-77628650D01*
X91608131Y-77584581D01*
X91594966Y-77545552D01*
X91577263Y-77504636D01*
X91575287Y-77500339D01*
X91514644Y-77401043D01*
X91431025Y-77321830D01*
X91318429Y-77257934D01*
X91223878Y-77221350D01*
X91198273Y-77212941D01*
X91172955Y-77205662D01*
X91144967Y-77199419D01*
X91111351Y-77194114D01*
X91069151Y-77189653D01*
X91015409Y-77185938D01*
X90947169Y-77182876D01*
X90861474Y-77180369D01*
X90755367Y-77178323D01*
X90625890Y-77176640D01*
X90470087Y-77175226D01*
X90285001Y-77173984D01*
X90067674Y-77172819D01*
X89815151Y-77171635D01*
X89669415Y-77170982D01*
X88245626Y-77164638D01*
X88245626Y-77331800D01*
G36*
X94456720Y-77352021D02*
G01*
X94457739Y-77410928D01*
X94458660Y-77460279D01*
X94456280Y-77500934D01*
X94447394Y-77533751D01*
X94428798Y-77559588D01*
X94397289Y-77579306D01*
X94349662Y-77593764D01*
X94282714Y-77603819D01*
X94193241Y-77610332D01*
X94078038Y-77614162D01*
X93933902Y-77616167D01*
X93757630Y-77617206D01*
X93546016Y-77618139D01*
X93462465Y-77618603D01*
X92551720Y-77624140D01*
X92551720Y-77457372D01*
X92550241Y-77371234D01*
X92546320Y-77292929D01*
X92540734Y-77236762D01*
X92539317Y-77228592D01*
X92526915Y-77166581D01*
X91817501Y-77166581D01*
X91818077Y-77270760D01*
X91819041Y-77321010D01*
X91821420Y-77403566D01*
X91824965Y-77511081D01*
X91829431Y-77636207D01*
X91834570Y-77771598D01*
X91836933Y-77831346D01*
X91844768Y-78007081D01*
X91853439Y-78148246D01*
X91864093Y-78259956D01*
X91877879Y-78347326D01*
X91895944Y-78415473D01*
X91919435Y-78469512D01*
X91949500Y-78514560D01*
X91987287Y-78555731D01*
X92002692Y-78570303D01*
X92056497Y-78615083D01*
X92115311Y-78652996D01*
X92182723Y-78684580D01*
X92262325Y-78710371D01*
X92357708Y-78730907D01*
X92472461Y-78746725D01*
X92610176Y-78758360D01*
X92774445Y-78766351D01*
X92968856Y-78771234D01*
X93197002Y-78773546D01*
X93364531Y-78773924D01*
X94040001Y-78773924D01*
X94039730Y-78580448D01*
X94038414Y-78491822D01*
X94035106Y-78414170D01*
X94030388Y-78358822D01*
X94027494Y-78342323D01*
X94015528Y-78297674D01*
X93358038Y-78297382D01*
X93165544Y-78297142D01*
X93008965Y-78296204D01*
X92884531Y-78293951D01*
X92788469Y-78289771D01*
X92717008Y-78283050D01*
X92666376Y-78273173D01*
X92632803Y-78259526D01*
X92612515Y-78241497D01*
X92601742Y-78218469D01*
X92596712Y-78189831D01*
X92595170Y-78173195D01*
X92589012Y-78099237D01*
X93511508Y-78099237D01*
X93724993Y-78098766D01*
X93924636Y-78097406D01*
X94106375Y-78095235D01*
X94266153Y-78092334D01*
X94399908Y-78088781D01*
X94503583Y-78084655D01*
X94573116Y-78080035D01*
X94589229Y-78078237D01*
X94759653Y-78040957D01*
X94906876Y-77979546D01*
X95027113Y-77896282D01*
X95116576Y-77793443D01*
X95144442Y-77744184D01*
X95160444Y-77691447D01*
X95174066Y-77610788D01*
X95184452Y-77513943D01*
X95190748Y-77412647D01*
X95192099Y-77318638D01*
X95187649Y-77243651D01*
X95182876Y-77216535D01*
X95170339Y-77166581D01*
X94456720Y-77166581D01*
X94456720Y-77352021D01*
G37*
X94456720Y-77352021D02*
X94457739Y-77410928D01*
X94458660Y-77460279D01*
X94456280Y-77500934D01*
X94447394Y-77533751D01*
X94428798Y-77559588D01*
X94397289Y-77579306D01*
X94349662Y-77593764D01*
X94282714Y-77603819D01*
X94193241Y-77610332D01*
X94078038Y-77614162D01*
X93933902Y-77616167D01*
X93757630Y-77617206D01*
X93546016Y-77618139D01*
X93462465Y-77618603D01*
X92551720Y-77624140D01*
X92551720Y-77457372D01*
X92550241Y-77371234D01*
X92546320Y-77292929D01*
X92540734Y-77236762D01*
X92539317Y-77228592D01*
X92526915Y-77166581D01*
X91817501Y-77166581D01*
X91818077Y-77270760D01*
X91819041Y-77321010D01*
X91821420Y-77403566D01*
X91824965Y-77511081D01*
X91829431Y-77636207D01*
X91834570Y-77771598D01*
X91836933Y-77831346D01*
X91844768Y-78007081D01*
X91853439Y-78148246D01*
X91864093Y-78259956D01*
X91877879Y-78347326D01*
X91895944Y-78415473D01*
X91919435Y-78469512D01*
X91949500Y-78514560D01*
X91987287Y-78555731D01*
X92002692Y-78570303D01*
X92056497Y-78615083D01*
X92115311Y-78652996D01*
X92182723Y-78684580D01*
X92262325Y-78710371D01*
X92357708Y-78730907D01*
X92472461Y-78746725D01*
X92610176Y-78758360D01*
X92774445Y-78766351D01*
X92968856Y-78771234D01*
X93197002Y-78773546D01*
X93364531Y-78773924D01*
X94040001Y-78773924D01*
X94039730Y-78580448D01*
X94038414Y-78491822D01*
X94035106Y-78414170D01*
X94030388Y-78358822D01*
X94027494Y-78342323D01*
X94015528Y-78297674D01*
X93358038Y-78297382D01*
X93165544Y-78297142D01*
X93008965Y-78296204D01*
X92884531Y-78293951D01*
X92788469Y-78289771D01*
X92717008Y-78283050D01*
X92666376Y-78273173D01*
X92632803Y-78259526D01*
X92612515Y-78241497D01*
X92601742Y-78218469D01*
X92596712Y-78189831D01*
X92595170Y-78173195D01*
X92589012Y-78099237D01*
X93511508Y-78099237D01*
X93724993Y-78098766D01*
X93924636Y-78097406D01*
X94106375Y-78095235D01*
X94266153Y-78092334D01*
X94399908Y-78088781D01*
X94503583Y-78084655D01*
X94573116Y-78080035D01*
X94589229Y-78078237D01*
X94759653Y-78040957D01*
X94906876Y-77979546D01*
X95027113Y-77896282D01*
X95116576Y-77793443D01*
X95144442Y-77744184D01*
X95160444Y-77691447D01*
X95174066Y-77610788D01*
X95184452Y-77513943D01*
X95190748Y-77412647D01*
X95192099Y-77318638D01*
X95187649Y-77243651D01*
X95182876Y-77216535D01*
X95170339Y-77166581D01*
X94456720Y-77166581D01*
X94456720Y-77352021D01*
G36*
X95399298Y-77613065D02*
G01*
X96699063Y-77622987D01*
X96974007Y-77625262D01*
X97211557Y-77627631D01*
X97414007Y-77630156D01*
X97583652Y-77632894D01*
X97722786Y-77635907D01*
X97833703Y-77639253D01*
X97918697Y-77642993D01*
X97980061Y-77647186D01*
X98020091Y-77651891D01*
X98041079Y-77657170D01*
X98042624Y-77657954D01*
X98068903Y-77680223D01*
X98087966Y-77716332D01*
X98101001Y-77772195D01*
X98109197Y-77853726D01*
X98113741Y-77966840D01*
X98114716Y-78016679D01*
X98115142Y-78111617D01*
X98112048Y-78175337D01*
X98104284Y-78216241D01*
X98090699Y-78242728D01*
X98082464Y-78252097D01*
X98073562Y-78259203D01*
X98060090Y-78265325D01*
X98039160Y-78270552D01*
X98007888Y-78274971D01*
X97963388Y-78278670D01*
X97902775Y-78281739D01*
X97823163Y-78284264D01*
X97721665Y-78286333D01*
X97595398Y-78288036D01*
X97441474Y-78289459D01*
X97257008Y-78290692D01*
X97039115Y-78291821D01*
X96784909Y-78292936D01*
X96738050Y-78293129D01*
X95429063Y-78298506D01*
X95429334Y-78491567D01*
X95430654Y-78580107D01*
X95433968Y-78657677D01*
X95438694Y-78712926D01*
X95441571Y-78729276D01*
X95453536Y-78773924D01*
X96746026Y-78771285D01*
X96973907Y-78770570D01*
X97193845Y-78769401D01*
X97401991Y-78767829D01*
X97594497Y-78765905D01*
X97767516Y-78763680D01*
X97917199Y-78761205D01*
X98039698Y-78758531D01*
X98131165Y-78755710D01*
X98187753Y-78752791D01*
X98195979Y-78752055D01*
X98359543Y-78726845D01*
X98490380Y-78687510D01*
X98593860Y-78631053D01*
X98675350Y-78554477D01*
X98740220Y-78454786D01*
X98744870Y-78445687D01*
X98807960Y-78320135D01*
X98795070Y-78075741D01*
X98785360Y-77910703D01*
X98775020Y-77779644D01*
X98763137Y-77676856D01*
X98748794Y-77596630D01*
X98731076Y-77533258D01*
X98709067Y-77481033D01*
X98695777Y-77456649D01*
X98630346Y-77370050D01*
X98542824Y-77300583D01*
X98426073Y-77243150D01*
X98365938Y-77221167D01*
X98340591Y-77212841D01*
X98315354Y-77205633D01*
X98287272Y-77199448D01*
X98253392Y-77194190D01*
X98210760Y-77189764D01*
X98156423Y-77186074D01*
X98087425Y-77183025D01*
X98000814Y-77180521D01*
X97893635Y-77178468D01*
X97762934Y-77176770D01*
X97605758Y-77175331D01*
X97419152Y-77174056D01*
X97200163Y-77172850D01*
X96945837Y-77171617D01*
X96812505Y-77170997D01*
X95388056Y-77164415D01*
X95399298Y-77613065D01*
G37*
X95399298Y-77613065D02*
X96699063Y-77622987D01*
X96974007Y-77625262D01*
X97211557Y-77627631D01*
X97414007Y-77630156D01*
X97583652Y-77632894D01*
X97722786Y-77635907D01*
X97833703Y-77639253D01*
X97918697Y-77642993D01*
X97980061Y-77647186D01*
X98020091Y-77651891D01*
X98041079Y-77657170D01*
X98042624Y-77657954D01*
X98068903Y-77680223D01*
X98087966Y-77716332D01*
X98101001Y-77772195D01*
X98109197Y-77853726D01*
X98113741Y-77966840D01*
X98114716Y-78016679D01*
X98115142Y-78111617D01*
X98112048Y-78175337D01*
X98104284Y-78216241D01*
X98090699Y-78242728D01*
X98082464Y-78252097D01*
X98073562Y-78259203D01*
X98060090Y-78265325D01*
X98039160Y-78270552D01*
X98007888Y-78274971D01*
X97963388Y-78278670D01*
X97902775Y-78281739D01*
X97823163Y-78284264D01*
X97721665Y-78286333D01*
X97595398Y-78288036D01*
X97441474Y-78289459D01*
X97257008Y-78290692D01*
X97039115Y-78291821D01*
X96784909Y-78292936D01*
X96738050Y-78293129D01*
X95429063Y-78298506D01*
X95429334Y-78491567D01*
X95430654Y-78580107D01*
X95433968Y-78657677D01*
X95438694Y-78712926D01*
X95441571Y-78729276D01*
X95453536Y-78773924D01*
X96746026Y-78771285D01*
X96973907Y-78770570D01*
X97193845Y-78769401D01*
X97401991Y-78767829D01*
X97594497Y-78765905D01*
X97767516Y-78763680D01*
X97917199Y-78761205D01*
X98039698Y-78758531D01*
X98131165Y-78755710D01*
X98187753Y-78752791D01*
X98195979Y-78752055D01*
X98359543Y-78726845D01*
X98490380Y-78687510D01*
X98593860Y-78631053D01*
X98675350Y-78554477D01*
X98740220Y-78454786D01*
X98744870Y-78445687D01*
X98807960Y-78320135D01*
X98795070Y-78075741D01*
X98785360Y-77910703D01*
X98775020Y-77779644D01*
X98763137Y-77676856D01*
X98748794Y-77596630D01*
X98731076Y-77533258D01*
X98709067Y-77481033D01*
X98695777Y-77456649D01*
X98630346Y-77370050D01*
X98542824Y-77300583D01*
X98426073Y-77243150D01*
X98365938Y-77221167D01*
X98340591Y-77212841D01*
X98315354Y-77205633D01*
X98287272Y-77199448D01*
X98253392Y-77194190D01*
X98210760Y-77189764D01*
X98156423Y-77186074D01*
X98087425Y-77183025D01*
X98000814Y-77180521D01*
X97893635Y-77178468D01*
X97762934Y-77176770D01*
X97605758Y-77175331D01*
X97419152Y-77174056D01*
X97200163Y-77172850D01*
X96945837Y-77171617D01*
X96812505Y-77170997D01*
X95388056Y-77164415D01*
X95399298Y-77613065D01*
G36*
X84028776Y-58147317D02*
G01*
X84033760Y-58305828D01*
X84039246Y-58473309D01*
X84044847Y-58638421D01*
X84050178Y-58789824D01*
X84054850Y-58916180D01*
X84056026Y-58946485D01*
X84068517Y-59263985D01*
X84798047Y-59274823D01*
X84782961Y-58773310D01*
X84778038Y-58614542D01*
X84772654Y-58449212D01*
X84767165Y-58287724D01*
X84761929Y-58140483D01*
X84757303Y-58017896D01*
X84755539Y-57974142D01*
X84743204Y-57676485D01*
X84378611Y-57671067D01*
X84014017Y-57665650D01*
X84028776Y-58147317D01*
G37*
X84028776Y-58147317D02*
X84033760Y-58305828D01*
X84039246Y-58473309D01*
X84044847Y-58638421D01*
X84050178Y-58789824D01*
X84054850Y-58916180D01*
X84056026Y-58946485D01*
X84068517Y-59263985D01*
X84798047Y-59274823D01*
X84782961Y-58773310D01*
X84778038Y-58614542D01*
X84772654Y-58449212D01*
X84767165Y-58287724D01*
X84761929Y-58140483D01*
X84757303Y-58017896D01*
X84755539Y-57974142D01*
X84743204Y-57676485D01*
X84378611Y-57671067D01*
X84014017Y-57665650D01*
X84028776Y-58147317D01*
G36*
X85511772Y-57665185D02*
G01*
X85350364Y-57665630D01*
X85208046Y-57666491D01*
X85088865Y-57667786D01*
X84996870Y-57669538D01*
X84936111Y-57671766D01*
X84910636Y-57674491D01*
X84910222Y-57674752D01*
X84907426Y-57696693D01*
X84906166Y-57749923D01*
X84906518Y-57826073D01*
X84908153Y-57902955D01*
X84914352Y-58122970D01*
X86009481Y-58124153D01*
X86270767Y-58124653D01*
X86495139Y-58125621D01*
X86685368Y-58127162D01*
X86844227Y-58129384D01*
X86974487Y-58132394D01*
X87078920Y-58136299D01*
X87160298Y-58141207D01*
X87221392Y-58147225D01*
X87264974Y-58154460D01*
X87293816Y-58163019D01*
X87310690Y-58173010D01*
X87312268Y-58174541D01*
X87325674Y-58205093D01*
X87335466Y-58255816D01*
X87336102Y-58261876D01*
X87342735Y-58331329D01*
X86514259Y-58336508D01*
X85685782Y-58341686D01*
X85685901Y-58405961D01*
X85687507Y-58456487D01*
X85691650Y-58531866D01*
X85697501Y-58617407D01*
X85698764Y-58633946D01*
X85711508Y-58797657D01*
X87368115Y-58797657D01*
X87382423Y-59035782D01*
X87396730Y-59273907D01*
X88112347Y-59273907D01*
X88098245Y-58753009D01*
X88092044Y-58556235D01*
X88084638Y-58394618D01*
X88075292Y-58263631D01*
X88063270Y-58158748D01*
X88047836Y-58075440D01*
X88028255Y-58009180D01*
X88003790Y-57955442D01*
X87973708Y-57909698D01*
X87958088Y-57890452D01*
X87868113Y-57812742D01*
X87746534Y-57749952D01*
X87599525Y-57704842D01*
X87505010Y-57687863D01*
X87463879Y-57684773D01*
X87389203Y-57681833D01*
X87285031Y-57679062D01*
X87155412Y-57676481D01*
X87004395Y-57674111D01*
X86836029Y-57671972D01*
X86654362Y-57670084D01*
X86463443Y-57668469D01*
X86267320Y-57667145D01*
X86070043Y-57666135D01*
X85875660Y-57665458D01*
X85688220Y-57665135D01*
X85511772Y-57665185D01*
G37*
X85511772Y-57665185D02*
X85350364Y-57665630D01*
X85208046Y-57666491D01*
X85088865Y-57667786D01*
X84996870Y-57669538D01*
X84936111Y-57671766D01*
X84910636Y-57674491D01*
X84910222Y-57674752D01*
X84907426Y-57696693D01*
X84906166Y-57749923D01*
X84906518Y-57826073D01*
X84908153Y-57902955D01*
X84914352Y-58122970D01*
X86009481Y-58124153D01*
X86270767Y-58124653D01*
X86495139Y-58125621D01*
X86685368Y-58127162D01*
X86844227Y-58129384D01*
X86974487Y-58132394D01*
X87078920Y-58136299D01*
X87160298Y-58141207D01*
X87221392Y-58147225D01*
X87264974Y-58154460D01*
X87293816Y-58163019D01*
X87310690Y-58173010D01*
X87312268Y-58174541D01*
X87325674Y-58205093D01*
X87335466Y-58255816D01*
X87336102Y-58261876D01*
X87342735Y-58331329D01*
X86514259Y-58336508D01*
X85685782Y-58341686D01*
X85685901Y-58405961D01*
X85687507Y-58456487D01*
X85691650Y-58531866D01*
X85697501Y-58617407D01*
X85698764Y-58633946D01*
X85711508Y-58797657D01*
X87368115Y-58797657D01*
X87382423Y-59035782D01*
X87396730Y-59273907D01*
X88112347Y-59273907D01*
X88098245Y-58753009D01*
X88092044Y-58556235D01*
X88084638Y-58394618D01*
X88075292Y-58263631D01*
X88063270Y-58158748D01*
X88047836Y-58075440D01*
X88028255Y-58009180D01*
X88003790Y-57955442D01*
X87973708Y-57909698D01*
X87958088Y-57890452D01*
X87868113Y-57812742D01*
X87746534Y-57749952D01*
X87599525Y-57704842D01*
X87505010Y-57687863D01*
X87463879Y-57684773D01*
X87389203Y-57681833D01*
X87285031Y-57679062D01*
X87155412Y-57676481D01*
X87004395Y-57674111D01*
X86836029Y-57671972D01*
X86654362Y-57670084D01*
X86463443Y-57668469D01*
X86267320Y-57667145D01*
X86070043Y-57666135D01*
X85875660Y-57665458D01*
X85688220Y-57665135D01*
X85511772Y-57665185D01*
G36*
X88245626Y-57831783D02*
G01*
X88247102Y-57917998D01*
X88251013Y-57996372D01*
X88256588Y-58052630D01*
X88258028Y-58060958D01*
X88270431Y-58122970D01*
X89483380Y-58123443D01*
X89749721Y-58123718D01*
X89979208Y-58124400D01*
X90174674Y-58125608D01*
X90338949Y-58127460D01*
X90474867Y-58130077D01*
X90585259Y-58133578D01*
X90672958Y-58138081D01*
X90740797Y-58143706D01*
X90791606Y-58150572D01*
X90828220Y-58158798D01*
X90853469Y-58168503D01*
X90870186Y-58179808D01*
X90872388Y-58181902D01*
X90882659Y-58213012D01*
X90889901Y-58281402D01*
X90893940Y-58384771D01*
X90894767Y-58475481D01*
X90894552Y-58583884D01*
X90893153Y-58659379D01*
X90889434Y-58708744D01*
X90882262Y-58738758D01*
X90870500Y-58756200D01*
X90853016Y-58767848D01*
X90845157Y-58771900D01*
X90825992Y-58777278D01*
X90789611Y-58781898D01*
X90733560Y-58785809D01*
X90655383Y-58789058D01*
X90552626Y-58791695D01*
X90422834Y-58793765D01*
X90263553Y-58795318D01*
X90072327Y-58796401D01*
X89846702Y-58797063D01*
X89584223Y-58797351D01*
X89540431Y-58797365D01*
X88285313Y-58797657D01*
X88285486Y-58931603D01*
X88287609Y-59021390D01*
X88292912Y-59113671D01*
X88298172Y-59169728D01*
X88310685Y-59273907D01*
X89612648Y-59271333D01*
X89841018Y-59270625D01*
X90061183Y-59269448D01*
X90269347Y-59267856D01*
X90461712Y-59265900D01*
X90634482Y-59263631D01*
X90783860Y-59261101D01*
X90906047Y-59258362D01*
X90997248Y-59255466D01*
X91053666Y-59252464D01*
X91063016Y-59251576D01*
X91239534Y-59220332D01*
X91382075Y-59170916D01*
X91492413Y-59102384D01*
X91572324Y-59013795D01*
X91598915Y-58966959D01*
X91614403Y-58932969D01*
X91625648Y-58900065D01*
X91633155Y-58861657D01*
X91637436Y-58811153D01*
X91638997Y-58741963D01*
X91638348Y-58647496D01*
X91635997Y-58521162D01*
X91635419Y-58493887D01*
X91632286Y-58360369D01*
X91628834Y-58259607D01*
X91624221Y-58184671D01*
X91617601Y-58128633D01*
X91608131Y-58084564D01*
X91594966Y-58045535D01*
X91577263Y-58004619D01*
X91575287Y-58000322D01*
X91514644Y-57901026D01*
X91431025Y-57821813D01*
X91318429Y-57757917D01*
X91223878Y-57721333D01*
X91198273Y-57712924D01*
X91172955Y-57705645D01*
X91144967Y-57699402D01*
X91111351Y-57694097D01*
X91069151Y-57689636D01*
X91015409Y-57685921D01*
X90947169Y-57682859D01*
X90861474Y-57680352D01*
X90755367Y-57678306D01*
X90625890Y-57676623D01*
X90470087Y-57675209D01*
X90285001Y-57673967D01*
X90067674Y-57672802D01*
X89815151Y-57671618D01*
X89669415Y-57670965D01*
X88245626Y-57664621D01*
X88245626Y-57831783D01*
G37*
X88245626Y-57831783D02*
X88247102Y-57917998D01*
X88251013Y-57996372D01*
X88256588Y-58052630D01*
X88258028Y-58060958D01*
X88270431Y-58122970D01*
X89483380Y-58123443D01*
X89749721Y-58123718D01*
X89979208Y-58124400D01*
X90174674Y-58125608D01*
X90338949Y-58127460D01*
X90474867Y-58130077D01*
X90585259Y-58133578D01*
X90672958Y-58138081D01*
X90740797Y-58143706D01*
X90791606Y-58150572D01*
X90828220Y-58158798D01*
X90853469Y-58168503D01*
X90870186Y-58179808D01*
X90872388Y-58181902D01*
X90882659Y-58213012D01*
X90889901Y-58281402D01*
X90893940Y-58384771D01*
X90894767Y-58475481D01*
X90894552Y-58583884D01*
X90893153Y-58659379D01*
X90889434Y-58708744D01*
X90882262Y-58738758D01*
X90870500Y-58756200D01*
X90853016Y-58767848D01*
X90845157Y-58771900D01*
X90825992Y-58777278D01*
X90789611Y-58781898D01*
X90733560Y-58785809D01*
X90655383Y-58789058D01*
X90552626Y-58791695D01*
X90422834Y-58793765D01*
X90263553Y-58795318D01*
X90072327Y-58796401D01*
X89846702Y-58797063D01*
X89584223Y-58797351D01*
X89540431Y-58797365D01*
X88285313Y-58797657D01*
X88285486Y-58931603D01*
X88287609Y-59021390D01*
X88292912Y-59113671D01*
X88298172Y-59169728D01*
X88310685Y-59273907D01*
X89612648Y-59271333D01*
X89841018Y-59270625D01*
X90061183Y-59269448D01*
X90269347Y-59267856D01*
X90461712Y-59265900D01*
X90634482Y-59263631D01*
X90783860Y-59261101D01*
X90906047Y-59258362D01*
X90997248Y-59255466D01*
X91053666Y-59252464D01*
X91063016Y-59251576D01*
X91239534Y-59220332D01*
X91382075Y-59170916D01*
X91492413Y-59102384D01*
X91572324Y-59013795D01*
X91598915Y-58966959D01*
X91614403Y-58932969D01*
X91625648Y-58900065D01*
X91633155Y-58861657D01*
X91637436Y-58811153D01*
X91638997Y-58741963D01*
X91638348Y-58647496D01*
X91635997Y-58521162D01*
X91635419Y-58493887D01*
X91632286Y-58360369D01*
X91628834Y-58259607D01*
X91624221Y-58184671D01*
X91617601Y-58128633D01*
X91608131Y-58084564D01*
X91594966Y-58045535D01*
X91577263Y-58004619D01*
X91575287Y-58000322D01*
X91514644Y-57901026D01*
X91431025Y-57821813D01*
X91318429Y-57757917D01*
X91223878Y-57721333D01*
X91198273Y-57712924D01*
X91172955Y-57705645D01*
X91144967Y-57699402D01*
X91111351Y-57694097D01*
X91069151Y-57689636D01*
X91015409Y-57685921D01*
X90947169Y-57682859D01*
X90861474Y-57680352D01*
X90755367Y-57678306D01*
X90625890Y-57676623D01*
X90470087Y-57675209D01*
X90285001Y-57673967D01*
X90067674Y-57672802D01*
X89815151Y-57671618D01*
X89669415Y-57670965D01*
X88245626Y-57664621D01*
X88245626Y-57831783D01*
G36*
X94456720Y-57852004D02*
G01*
X94457739Y-57910911D01*
X94458660Y-57960262D01*
X94456280Y-58000917D01*
X94447394Y-58033734D01*
X94428798Y-58059571D01*
X94397289Y-58079289D01*
X94349662Y-58093747D01*
X94282714Y-58103802D01*
X94193241Y-58110315D01*
X94078038Y-58114145D01*
X93933902Y-58116150D01*
X93757630Y-58117189D01*
X93546016Y-58118122D01*
X93462465Y-58118586D01*
X92551720Y-58124123D01*
X92551720Y-57957355D01*
X92550241Y-57871217D01*
X92546320Y-57792912D01*
X92540734Y-57736745D01*
X92539317Y-57728575D01*
X92526915Y-57666564D01*
X91817501Y-57666564D01*
X91818077Y-57770743D01*
X91819041Y-57820993D01*
X91821420Y-57903549D01*
X91824965Y-58011064D01*
X91829431Y-58136190D01*
X91834570Y-58271581D01*
X91836933Y-58331329D01*
X91844768Y-58507064D01*
X91853439Y-58648229D01*
X91864093Y-58759939D01*
X91877879Y-58847309D01*
X91895944Y-58915456D01*
X91919435Y-58969495D01*
X91949500Y-59014543D01*
X91987287Y-59055714D01*
X92002692Y-59070286D01*
X92056497Y-59115066D01*
X92115311Y-59152979D01*
X92182723Y-59184563D01*
X92262325Y-59210354D01*
X92357708Y-59230890D01*
X92472461Y-59246708D01*
X92610176Y-59258343D01*
X92774445Y-59266334D01*
X92968856Y-59271217D01*
X93197002Y-59273529D01*
X93364531Y-59273907D01*
X94040001Y-59273907D01*
X94039730Y-59080431D01*
X94038414Y-58991805D01*
X94035106Y-58914153D01*
X94030388Y-58858805D01*
X94027494Y-58842306D01*
X94015528Y-58797657D01*
X93358038Y-58797365D01*
X93165544Y-58797125D01*
X93008965Y-58796187D01*
X92884531Y-58793934D01*
X92788469Y-58789754D01*
X92717008Y-58783033D01*
X92666376Y-58773156D01*
X92632803Y-58759509D01*
X92612515Y-58741480D01*
X92601742Y-58718452D01*
X92596712Y-58689814D01*
X92595170Y-58673178D01*
X92589012Y-58599220D01*
X93511508Y-58599220D01*
X93724993Y-58598749D01*
X93924636Y-58597389D01*
X94106375Y-58595218D01*
X94266153Y-58592317D01*
X94399908Y-58588764D01*
X94503583Y-58584638D01*
X94573116Y-58580018D01*
X94589229Y-58578220D01*
X94759653Y-58540940D01*
X94906876Y-58479529D01*
X95027113Y-58396265D01*
X95116576Y-58293426D01*
X95144442Y-58244167D01*
X95160444Y-58191430D01*
X95174066Y-58110771D01*
X95184452Y-58013926D01*
X95190748Y-57912630D01*
X95192099Y-57818621D01*
X95187649Y-57743634D01*
X95182876Y-57716518D01*
X95170339Y-57666564D01*
X94456720Y-57666564D01*
X94456720Y-57852004D01*
G37*
X94456720Y-57852004D02*
X94457739Y-57910911D01*
X94458660Y-57960262D01*
X94456280Y-58000917D01*
X94447394Y-58033734D01*
X94428798Y-58059571D01*
X94397289Y-58079289D01*
X94349662Y-58093747D01*
X94282714Y-58103802D01*
X94193241Y-58110315D01*
X94078038Y-58114145D01*
X93933902Y-58116150D01*
X93757630Y-58117189D01*
X93546016Y-58118122D01*
X93462465Y-58118586D01*
X92551720Y-58124123D01*
X92551720Y-57957355D01*
X92550241Y-57871217D01*
X92546320Y-57792912D01*
X92540734Y-57736745D01*
X92539317Y-57728575D01*
X92526915Y-57666564D01*
X91817501Y-57666564D01*
X91818077Y-57770743D01*
X91819041Y-57820993D01*
X91821420Y-57903549D01*
X91824965Y-58011064D01*
X91829431Y-58136190D01*
X91834570Y-58271581D01*
X91836933Y-58331329D01*
X91844768Y-58507064D01*
X91853439Y-58648229D01*
X91864093Y-58759939D01*
X91877879Y-58847309D01*
X91895944Y-58915456D01*
X91919435Y-58969495D01*
X91949500Y-59014543D01*
X91987287Y-59055714D01*
X92002692Y-59070286D01*
X92056497Y-59115066D01*
X92115311Y-59152979D01*
X92182723Y-59184563D01*
X92262325Y-59210354D01*
X92357708Y-59230890D01*
X92472461Y-59246708D01*
X92610176Y-59258343D01*
X92774445Y-59266334D01*
X92968856Y-59271217D01*
X93197002Y-59273529D01*
X93364531Y-59273907D01*
X94040001Y-59273907D01*
X94039730Y-59080431D01*
X94038414Y-58991805D01*
X94035106Y-58914153D01*
X94030388Y-58858805D01*
X94027494Y-58842306D01*
X94015528Y-58797657D01*
X93358038Y-58797365D01*
X93165544Y-58797125D01*
X93008965Y-58796187D01*
X92884531Y-58793934D01*
X92788469Y-58789754D01*
X92717008Y-58783033D01*
X92666376Y-58773156D01*
X92632803Y-58759509D01*
X92612515Y-58741480D01*
X92601742Y-58718452D01*
X92596712Y-58689814D01*
X92595170Y-58673178D01*
X92589012Y-58599220D01*
X93511508Y-58599220D01*
X93724993Y-58598749D01*
X93924636Y-58597389D01*
X94106375Y-58595218D01*
X94266153Y-58592317D01*
X94399908Y-58588764D01*
X94503583Y-58584638D01*
X94573116Y-58580018D01*
X94589229Y-58578220D01*
X94759653Y-58540940D01*
X94906876Y-58479529D01*
X95027113Y-58396265D01*
X95116576Y-58293426D01*
X95144442Y-58244167D01*
X95160444Y-58191430D01*
X95174066Y-58110771D01*
X95184452Y-58013926D01*
X95190748Y-57912630D01*
X95192099Y-57818621D01*
X95187649Y-57743634D01*
X95182876Y-57716518D01*
X95170339Y-57666564D01*
X94456720Y-57666564D01*
X94456720Y-57852004D01*
G36*
X95399298Y-58113048D02*
G01*
X96699063Y-58122970D01*
X96974007Y-58125245D01*
X97211557Y-58127614D01*
X97414007Y-58130139D01*
X97583652Y-58132877D01*
X97722786Y-58135890D01*
X97833703Y-58139236D01*
X97918697Y-58142976D01*
X97980061Y-58147169D01*
X98020091Y-58151874D01*
X98041079Y-58157153D01*
X98042624Y-58157937D01*
X98068903Y-58180206D01*
X98087966Y-58216315D01*
X98101001Y-58272178D01*
X98109197Y-58353709D01*
X98113741Y-58466823D01*
X98114716Y-58516662D01*
X98115142Y-58611600D01*
X98112048Y-58675320D01*
X98104284Y-58716224D01*
X98090699Y-58742711D01*
X98082464Y-58752080D01*
X98073562Y-58759186D01*
X98060090Y-58765308D01*
X98039160Y-58770535D01*
X98007888Y-58774954D01*
X97963388Y-58778653D01*
X97902775Y-58781722D01*
X97823163Y-58784247D01*
X97721665Y-58786316D01*
X97595398Y-58788019D01*
X97441474Y-58789442D01*
X97257008Y-58790675D01*
X97039115Y-58791804D01*
X96784909Y-58792919D01*
X96738050Y-58793112D01*
X95429063Y-58798489D01*
X95429334Y-58991550D01*
X95430654Y-59080090D01*
X95433968Y-59157660D01*
X95438694Y-59212909D01*
X95441571Y-59229259D01*
X95453536Y-59273907D01*
X96746026Y-59271268D01*
X96973907Y-59270553D01*
X97193845Y-59269384D01*
X97401991Y-59267812D01*
X97594497Y-59265888D01*
X97767516Y-59263663D01*
X97917199Y-59261188D01*
X98039698Y-59258514D01*
X98131165Y-59255693D01*
X98187753Y-59252774D01*
X98195979Y-59252038D01*
X98359543Y-59226828D01*
X98490380Y-59187493D01*
X98593860Y-59131036D01*
X98675350Y-59054460D01*
X98740220Y-58954769D01*
X98744870Y-58945670D01*
X98807960Y-58820118D01*
X98795070Y-58575724D01*
X98785360Y-58410686D01*
X98775020Y-58279627D01*
X98763137Y-58176839D01*
X98748794Y-58096613D01*
X98731076Y-58033241D01*
X98709067Y-57981016D01*
X98695777Y-57956632D01*
X98630346Y-57870033D01*
X98542824Y-57800566D01*
X98426073Y-57743133D01*
X98365938Y-57721150D01*
X98340591Y-57712824D01*
X98315354Y-57705616D01*
X98287272Y-57699431D01*
X98253392Y-57694173D01*
X98210760Y-57689747D01*
X98156423Y-57686057D01*
X98087425Y-57683008D01*
X98000814Y-57680504D01*
X97893635Y-57678451D01*
X97762934Y-57676753D01*
X97605758Y-57675314D01*
X97419152Y-57674039D01*
X97200163Y-57672833D01*
X96945837Y-57671600D01*
X96812505Y-57670980D01*
X95388056Y-57664398D01*
X95399298Y-58113048D01*
G37*
X95399298Y-58113048D02*
X96699063Y-58122970D01*
X96974007Y-58125245D01*
X97211557Y-58127614D01*
X97414007Y-58130139D01*
X97583652Y-58132877D01*
X97722786Y-58135890D01*
X97833703Y-58139236D01*
X97918697Y-58142976D01*
X97980061Y-58147169D01*
X98020091Y-58151874D01*
X98041079Y-58157153D01*
X98042624Y-58157937D01*
X98068903Y-58180206D01*
X98087966Y-58216315D01*
X98101001Y-58272178D01*
X98109197Y-58353709D01*
X98113741Y-58466823D01*
X98114716Y-58516662D01*
X98115142Y-58611600D01*
X98112048Y-58675320D01*
X98104284Y-58716224D01*
X98090699Y-58742711D01*
X98082464Y-58752080D01*
X98073562Y-58759186D01*
X98060090Y-58765308D01*
X98039160Y-58770535D01*
X98007888Y-58774954D01*
X97963388Y-58778653D01*
X97902775Y-58781722D01*
X97823163Y-58784247D01*
X97721665Y-58786316D01*
X97595398Y-58788019D01*
X97441474Y-58789442D01*
X97257008Y-58790675D01*
X97039115Y-58791804D01*
X96784909Y-58792919D01*
X96738050Y-58793112D01*
X95429063Y-58798489D01*
X95429334Y-58991550D01*
X95430654Y-59080090D01*
X95433968Y-59157660D01*
X95438694Y-59212909D01*
X95441571Y-59229259D01*
X95453536Y-59273907D01*
X96746026Y-59271268D01*
X96973907Y-59270553D01*
X97193845Y-59269384D01*
X97401991Y-59267812D01*
X97594497Y-59265888D01*
X97767516Y-59263663D01*
X97917199Y-59261188D01*
X98039698Y-59258514D01*
X98131165Y-59255693D01*
X98187753Y-59252774D01*
X98195979Y-59252038D01*
X98359543Y-59226828D01*
X98490380Y-59187493D01*
X98593860Y-59131036D01*
X98675350Y-59054460D01*
X98740220Y-58954769D01*
X98744870Y-58945670D01*
X98807960Y-58820118D01*
X98795070Y-58575724D01*
X98785360Y-58410686D01*
X98775020Y-58279627D01*
X98763137Y-58176839D01*
X98748794Y-58096613D01*
X98731076Y-58033241D01*
X98709067Y-57981016D01*
X98695777Y-57956632D01*
X98630346Y-57870033D01*
X98542824Y-57800566D01*
X98426073Y-57743133D01*
X98365938Y-57721150D01*
X98340591Y-57712824D01*
X98315354Y-57705616D01*
X98287272Y-57699431D01*
X98253392Y-57694173D01*
X98210760Y-57689747D01*
X98156423Y-57686057D01*
X98087425Y-57683008D01*
X98000814Y-57680504D01*
X97893635Y-57678451D01*
X97762934Y-57676753D01*
X97605758Y-57675314D01*
X97419152Y-57674039D01*
X97200163Y-57672833D01*
X96945837Y-57671600D01*
X96812505Y-57670980D01*
X95388056Y-57664398D01*
X95399298Y-58113048D01*
G04 #@! TD*
G04 #@! TO.C,GND*
D11*
X55511905Y-118500052D02*
X55607143Y-118452432D01*
X55750001Y-118452432D01*
X55892858Y-118500052D01*
X55988096Y-118595290D01*
X56035715Y-118690528D01*
X56083334Y-118881004D01*
X56083334Y-119023861D01*
X56035715Y-119214337D01*
X55988096Y-119309575D01*
X55892858Y-119404813D01*
X55750001Y-119452432D01*
X55654762Y-119452432D01*
X55511905Y-119404813D01*
X55464286Y-119357194D01*
X55464286Y-119023861D01*
X55654762Y-119023861D01*
X55035715Y-119452432D02*
X55035715Y-118452432D01*
X54464286Y-119452432D01*
X54464286Y-118452432D01*
X53988096Y-119452432D02*
X53988096Y-118452432D01*
X53750001Y-118452432D01*
X53607143Y-118500052D01*
X53511905Y-118595290D01*
X53464286Y-118690528D01*
X53416667Y-118881004D01*
X53416667Y-119023861D01*
X53464286Y-119214337D01*
X53511905Y-119309575D01*
X53607143Y-119404813D01*
X53750001Y-119452432D01*
X53988096Y-119452432D01*
X128761905Y-118500052D02*
X128857143Y-118452432D01*
X129000001Y-118452432D01*
X129142858Y-118500052D01*
X129238096Y-118595290D01*
X129285715Y-118690528D01*
X129333334Y-118881004D01*
X129333334Y-119023861D01*
X129285715Y-119214337D01*
X129238096Y-119309575D01*
X129142858Y-119404813D01*
X129000001Y-119452432D01*
X128904762Y-119452432D01*
X128761905Y-119404813D01*
X128714286Y-119357194D01*
X128714286Y-119023861D01*
X128904762Y-119023861D01*
X128285715Y-119452432D02*
X128285715Y-118452432D01*
X127714286Y-119452432D01*
X127714286Y-118452432D01*
X127238096Y-119452432D02*
X127238096Y-118452432D01*
X127000001Y-118452432D01*
X126857143Y-118500052D01*
X126761905Y-118595290D01*
X126714286Y-118690528D01*
X126666667Y-118881004D01*
X126666667Y-119023861D01*
X126714286Y-119214337D01*
X126761905Y-119309575D01*
X126857143Y-119404813D01*
X127000001Y-119452432D01*
X127238096Y-119452432D01*
X55511905Y-99000035D02*
X55607143Y-98952415D01*
X55750001Y-98952415D01*
X55892858Y-99000035D01*
X55988096Y-99095273D01*
X56035715Y-99190511D01*
X56083334Y-99380987D01*
X56083334Y-99523844D01*
X56035715Y-99714320D01*
X55988096Y-99809558D01*
X55892858Y-99904796D01*
X55750001Y-99952415D01*
X55654762Y-99952415D01*
X55511905Y-99904796D01*
X55464286Y-99857177D01*
X55464286Y-99523844D01*
X55654762Y-99523844D01*
X55035715Y-99952415D02*
X55035715Y-98952415D01*
X54464286Y-99952415D01*
X54464286Y-98952415D01*
X53988096Y-99952415D02*
X53988096Y-98952415D01*
X53750001Y-98952415D01*
X53607143Y-99000035D01*
X53511905Y-99095273D01*
X53464286Y-99190511D01*
X53416667Y-99380987D01*
X53416667Y-99523844D01*
X53464286Y-99714320D01*
X53511905Y-99809558D01*
X53607143Y-99904796D01*
X53750001Y-99952415D01*
X53988096Y-99952415D01*
X128761905Y-99000035D02*
X128857143Y-98952415D01*
X129000001Y-98952415D01*
X129142858Y-99000035D01*
X129238096Y-99095273D01*
X129285715Y-99190511D01*
X129333334Y-99380987D01*
X129333334Y-99523844D01*
X129285715Y-99714320D01*
X129238096Y-99809558D01*
X129142858Y-99904796D01*
X129000001Y-99952415D01*
X128904762Y-99952415D01*
X128761905Y-99904796D01*
X128714286Y-99857177D01*
X128714286Y-99523844D01*
X128904762Y-99523844D01*
X128285715Y-99952415D02*
X128285715Y-98952415D01*
X127714286Y-99952415D01*
X127714286Y-98952415D01*
X127238096Y-99952415D02*
X127238096Y-98952415D01*
X127000001Y-98952415D01*
X126857143Y-99000035D01*
X126761905Y-99095273D01*
X126714286Y-99190511D01*
X126666667Y-99380987D01*
X126666667Y-99523844D01*
X126714286Y-99714320D01*
X126761905Y-99809558D01*
X126857143Y-99904796D01*
X127000001Y-99952415D01*
X127238096Y-99952415D01*
X55511905Y-79500018D02*
X55607143Y-79452398D01*
X55750001Y-79452398D01*
X55892858Y-79500018D01*
X55988096Y-79595256D01*
X56035715Y-79690494D01*
X56083334Y-79880970D01*
X56083334Y-80023827D01*
X56035715Y-80214303D01*
X55988096Y-80309541D01*
X55892858Y-80404779D01*
X55750001Y-80452398D01*
X55654762Y-80452398D01*
X55511905Y-80404779D01*
X55464286Y-80357160D01*
X55464286Y-80023827D01*
X55654762Y-80023827D01*
X55035715Y-80452398D02*
X55035715Y-79452398D01*
X54464286Y-80452398D01*
X54464286Y-79452398D01*
X53988096Y-80452398D02*
X53988096Y-79452398D01*
X53750001Y-79452398D01*
X53607143Y-79500018D01*
X53511905Y-79595256D01*
X53464286Y-79690494D01*
X53416667Y-79880970D01*
X53416667Y-80023827D01*
X53464286Y-80214303D01*
X53511905Y-80309541D01*
X53607143Y-80404779D01*
X53750001Y-80452398D01*
X53988096Y-80452398D01*
X128761905Y-79500018D02*
X128857143Y-79452398D01*
X129000001Y-79452398D01*
X129142858Y-79500018D01*
X129238096Y-79595256D01*
X129285715Y-79690494D01*
X129333334Y-79880970D01*
X129333334Y-80023827D01*
X129285715Y-80214303D01*
X129238096Y-80309541D01*
X129142858Y-80404779D01*
X129000001Y-80452398D01*
X128904762Y-80452398D01*
X128761905Y-80404779D01*
X128714286Y-80357160D01*
X128714286Y-80023827D01*
X128904762Y-80023827D01*
X128285715Y-80452398D02*
X128285715Y-79452398D01*
X127714286Y-80452398D01*
X127714286Y-79452398D01*
X127238096Y-80452398D02*
X127238096Y-79452398D01*
X127000001Y-79452398D01*
X126857143Y-79500018D01*
X126761905Y-79595256D01*
X126714286Y-79690494D01*
X126666667Y-79880970D01*
X126666667Y-80023827D01*
X126714286Y-80214303D01*
X126761905Y-80309541D01*
X126857143Y-80404779D01*
X127000001Y-80452398D01*
X127238096Y-80452398D01*
X55511905Y-60000001D02*
X55607143Y-59952381D01*
X55750001Y-59952381D01*
X55892858Y-60000001D01*
X55988096Y-60095239D01*
X56035715Y-60190477D01*
X56083334Y-60380953D01*
X56083334Y-60523810D01*
X56035715Y-60714286D01*
X55988096Y-60809524D01*
X55892858Y-60904762D01*
X55750001Y-60952381D01*
X55654762Y-60952381D01*
X55511905Y-60904762D01*
X55464286Y-60857143D01*
X55464286Y-60523810D01*
X55654762Y-60523810D01*
X55035715Y-60952381D02*
X55035715Y-59952381D01*
X54464286Y-60952381D01*
X54464286Y-59952381D01*
X53988096Y-60952381D02*
X53988096Y-59952381D01*
X53750001Y-59952381D01*
X53607143Y-60000001D01*
X53511905Y-60095239D01*
X53464286Y-60190477D01*
X53416667Y-60380953D01*
X53416667Y-60523810D01*
X53464286Y-60714286D01*
X53511905Y-60809524D01*
X53607143Y-60904762D01*
X53750001Y-60952381D01*
X53988096Y-60952381D01*
X128761905Y-60000001D02*
X128857143Y-59952381D01*
X129000001Y-59952381D01*
X129142858Y-60000001D01*
X129238096Y-60095239D01*
X129285715Y-60190477D01*
X129333334Y-60380953D01*
X129333334Y-60523810D01*
X129285715Y-60714286D01*
X129238096Y-60809524D01*
X129142858Y-60904762D01*
X129000001Y-60952381D01*
X128904762Y-60952381D01*
X128761905Y-60904762D01*
X128714286Y-60857143D01*
X128714286Y-60523810D01*
X128904762Y-60523810D01*
X128285715Y-60952381D02*
X128285715Y-59952381D01*
X127714286Y-60952381D01*
X127714286Y-59952381D01*
X127238096Y-60952381D02*
X127238096Y-59952381D01*
X127000001Y-59952381D01*
X126857143Y-60000001D01*
X126761905Y-60095239D01*
X126714286Y-60190477D01*
X126666667Y-60380953D01*
X126666667Y-60523810D01*
X126714286Y-60714286D01*
X126761905Y-60809524D01*
X126857143Y-60904762D01*
X127000001Y-60952381D01*
X127238096Y-60952381D01*
G04 #@! TD*
M02*
