M48
; DRILL file {KiCad 5.1.5+dfsg1-2build2} date Sun Oct 10 04:01:33 2021
; FORMAT={-:-/ absolute / metric / decimal}
; #@! TF.CreationDate,2021-10-10T04:01:33+00:00
; #@! TF.GenerationSoftware,Kicad,Pcbnew,5.1.5+dfsg1-2build2
FMAT,2
METRIC
T1C0.400
T2C1.000
T3C1.500
%
G90
G05
T1
X57.3Y-57.25
X57.3Y-58.5
X57.3Y-59.75
X57.3Y-76.75
X57.3Y-78.0
X57.3Y-79.25
X57.3Y-96.25
X57.3Y-97.5
X57.3Y-98.75
X57.3Y-115.75
X57.3Y-117.0
X57.3Y-118.25
X137.3Y-56.75
X137.3Y-59.75
X137.3Y-76.25
X137.3Y-79.25
X137.3Y-95.75
X137.3Y-98.75
X137.3Y-115.25
X137.3Y-118.25
X139.8Y-56.5
X139.8Y-60.5
X139.8Y-76.0
X139.8Y-80.0
X139.8Y-95.5
X139.8Y-99.5
X139.8Y-115.0
X139.8Y-119.0
T2
X85.8Y-117.0
X77.8Y-78.0
X116.8Y-117.0
X77.8Y-97.5
X77.8Y-117.0
X108.8Y-58.5
X85.8Y-58.5
X108.8Y-78.0
X116.8Y-58.5
X85.8Y-78.0
X108.8Y-97.5
X116.8Y-78.0
X85.8Y-97.5
X108.8Y-117.0
X77.8Y-58.5
X116.8Y-97.5
T3
X53.999Y-45.499
X140.601Y-45.499
X53.999Y-130.001
T0
M30
