G04 #@! TF.GenerationSoftware,KiCad,Pcbnew,5.1.5+dfsg1-2build2*
G04 #@! TF.CreationDate,2021-10-10T04:01:33+00:00*
G04 #@! TF.ProjectId,base_4.0,62617365-5f34-42e3-902e-6b696361645f,rev?*
G04 #@! TF.SameCoordinates,Original*
G04 #@! TF.FileFunction,Profile,NP*
%FSLAX46Y46*%
G04 Gerber Fmt 4.6, Leading zero omitted, Abs format (unit mm)*
G04 Created by KiCad (PCBNEW 5.1.5+dfsg1-2build2) date 2021-10-10 04:01:33*
%MOMM*%
%LPD*%
G04 APERTURE LIST*
G04 #@! TA.AperFunction,Profile*
%ADD10C,0.100000*%
G04 #@! TD*
G04 APERTURE END LIST*
D10*
X138549900Y-102715900D02*
X138451100Y-102736200D01*
X138646400Y-102685700D02*
X138549900Y-102715900D01*
X138739300Y-102645900D02*
X138646400Y-102685700D01*
X138827600Y-102596800D02*
X138739300Y-102645900D01*
X138910600Y-102539100D02*
X138827600Y-102596800D01*
X138987300Y-102473300D02*
X138910600Y-102539100D01*
X139057100Y-102399800D02*
X138987300Y-102473300D01*
X139119000Y-102319900D02*
X139057100Y-102399800D01*
X139172400Y-102234100D02*
X139119000Y-102319900D01*
X139216900Y-102143400D02*
X139172400Y-102234100D01*
X139252000Y-102048600D02*
X139216900Y-102143400D01*
X139277300Y-101950700D02*
X139252000Y-102048600D01*
X139292600Y-101850800D02*
X139277300Y-101950700D01*
X139297700Y-101749900D02*
X139292600Y-101850800D01*
X139292600Y-101649200D02*
X139297700Y-101749900D01*
X139277300Y-101549300D02*
X139292600Y-101649200D01*
X139252000Y-101451500D02*
X139277300Y-101549300D01*
X139216900Y-101356700D02*
X139252000Y-101451500D01*
X139172400Y-101266000D02*
X139216900Y-101356700D01*
X139119000Y-101180200D02*
X139172400Y-101266000D01*
X139057100Y-101100300D02*
X139119000Y-101180200D01*
X138987300Y-101026800D02*
X139057100Y-101100300D01*
X138910600Y-100961000D02*
X138987300Y-101026800D01*
X138827600Y-100903300D02*
X138910600Y-100961000D01*
X138739300Y-100854200D02*
X138827600Y-100903300D01*
X138646600Y-100814500D02*
X138739300Y-100854200D01*
X138550200Y-100784200D02*
X138646600Y-100814500D01*
X138451200Y-100763800D02*
X138550200Y-100784200D01*
X138350700Y-100753600D02*
X138451200Y-100763800D01*
X138274800Y-100751000D02*
X138350700Y-100753600D01*
X56325400Y-100751000D02*
X138274800Y-100751000D01*
X56249200Y-100753600D02*
X56325400Y-100751000D01*
X56148800Y-100763800D02*
X56249200Y-100753600D01*
X56049800Y-100784200D02*
X56148800Y-100763800D01*
X55953400Y-100814500D02*
X56049800Y-100784200D01*
X55860500Y-100854300D02*
X55953400Y-100814500D01*
X55772100Y-100903400D02*
X55860500Y-100854300D01*
X55689200Y-100961100D02*
X55772100Y-100903400D01*
X55612500Y-101027000D02*
X55689200Y-100961100D01*
X55542900Y-101100300D02*
X55612500Y-101027000D01*
X55481000Y-101180200D02*
X55542900Y-101100300D01*
X55427600Y-101266000D02*
X55481000Y-101180200D01*
X55383100Y-101356700D02*
X55427600Y-101266000D01*
X55348100Y-101451200D02*
X55383100Y-101356700D01*
X55322700Y-101549100D02*
X55348100Y-101451200D01*
X55307400Y-101649000D02*
X55322700Y-101549100D01*
X55302300Y-101749900D02*
X55307400Y-101649000D01*
X55307400Y-101850800D02*
X55302300Y-101749900D01*
X55322700Y-101950700D02*
X55307400Y-101850800D01*
X55348000Y-102048600D02*
X55322700Y-101950700D01*
X55383100Y-102143400D02*
X55348000Y-102048600D01*
X55427600Y-102234100D02*
X55383100Y-102143400D01*
X55481000Y-102319900D02*
X55427600Y-102234100D01*
X55542900Y-102399800D02*
X55481000Y-102319900D01*
X55612500Y-102473100D02*
X55542900Y-102399800D01*
X55689200Y-102538900D02*
X55612500Y-102473100D01*
X55772100Y-102596700D02*
X55689200Y-102538900D01*
X55860500Y-102645700D02*
X55772100Y-102596700D01*
X55953400Y-102685600D02*
X55860500Y-102645700D01*
X56049800Y-102715900D02*
X55953400Y-102685600D01*
X56148800Y-102736200D02*
X56049800Y-102715900D01*
X56249300Y-102746500D02*
X56148800Y-102736200D01*
X56325200Y-102749000D02*
X56249300Y-102746500D01*
X138274900Y-102749000D02*
X56325200Y-102749000D01*
X138350500Y-102746500D02*
X138274900Y-102749000D01*
X138451100Y-102736200D02*
X138350500Y-102746500D01*
X138549900Y-94215900D02*
X138451100Y-94236200D01*
X138646400Y-94185700D02*
X138549900Y-94215900D01*
X138739300Y-94145900D02*
X138646400Y-94185700D01*
X138827600Y-94096800D02*
X138739300Y-94145900D01*
X138910600Y-94039100D02*
X138827600Y-94096800D01*
X138987300Y-93973300D02*
X138910600Y-94039100D01*
X139057100Y-93899800D02*
X138987300Y-93973300D01*
X139119000Y-93819900D02*
X139057100Y-93899800D01*
X139172400Y-93734100D02*
X139119000Y-93819900D01*
X139216900Y-93643400D02*
X139172400Y-93734100D01*
X139252000Y-93548600D02*
X139216900Y-93643400D01*
X139277300Y-93450700D02*
X139252000Y-93548600D01*
X139292600Y-93350800D02*
X139277300Y-93450700D01*
X139297700Y-93249900D02*
X139292600Y-93350800D01*
X139292600Y-93149200D02*
X139297700Y-93249900D01*
X139277300Y-93049300D02*
X139292600Y-93149200D01*
X139252000Y-92951500D02*
X139277300Y-93049300D01*
X139216900Y-92856700D02*
X139252000Y-92951500D01*
X139172400Y-92766000D02*
X139216900Y-92856700D01*
X139119000Y-92680200D02*
X139172400Y-92766000D01*
X139057100Y-92600300D02*
X139119000Y-92680200D01*
X138987300Y-92526800D02*
X139057100Y-92600300D01*
X138910600Y-92461000D02*
X138987300Y-92526800D01*
X138827600Y-92403300D02*
X138910600Y-92461000D01*
X138739300Y-92354200D02*
X138827600Y-92403300D01*
X138646600Y-92314500D02*
X138739300Y-92354200D01*
X138550200Y-92284200D02*
X138646600Y-92314500D01*
X138451200Y-92263800D02*
X138550200Y-92284200D01*
X138350700Y-92253600D02*
X138451200Y-92263800D01*
X138274800Y-92251000D02*
X138350700Y-92253600D01*
X56325400Y-92251000D02*
X138274800Y-92251000D01*
X56249200Y-92253600D02*
X56325400Y-92251000D01*
X56148800Y-92263800D02*
X56249200Y-92253600D01*
X56049800Y-92284200D02*
X56148800Y-92263800D01*
X55953400Y-92314500D02*
X56049800Y-92284200D01*
X55860500Y-92354300D02*
X55953400Y-92314500D01*
X55772100Y-92403400D02*
X55860500Y-92354300D01*
X55689200Y-92461100D02*
X55772100Y-92403400D01*
X55612500Y-92527000D02*
X55689200Y-92461100D01*
X55542900Y-92600300D02*
X55612500Y-92527000D01*
X55481000Y-92680200D02*
X55542900Y-92600300D01*
X55427600Y-92766000D02*
X55481000Y-92680200D01*
X55383100Y-92856700D02*
X55427600Y-92766000D01*
X55348100Y-92951200D02*
X55383100Y-92856700D01*
X55322700Y-93049100D02*
X55348100Y-92951200D01*
X55307400Y-93149000D02*
X55322700Y-93049100D01*
X55302300Y-93249900D02*
X55307400Y-93149000D01*
X55307400Y-93350800D02*
X55302300Y-93249900D01*
X55322700Y-93450700D02*
X55307400Y-93350800D01*
X55348000Y-93548600D02*
X55322700Y-93450700D01*
X55383100Y-93643400D02*
X55348000Y-93548600D01*
X55427600Y-93734100D02*
X55383100Y-93643400D01*
X55481000Y-93819900D02*
X55427600Y-93734100D01*
X55542900Y-93899800D02*
X55481000Y-93819900D01*
X55612500Y-93973100D02*
X55542900Y-93899800D01*
X55689200Y-94038900D02*
X55612500Y-93973100D01*
X55772100Y-94096700D02*
X55689200Y-94038900D01*
X55860500Y-94145700D02*
X55772100Y-94096700D01*
X55953400Y-94185600D02*
X55860500Y-94145700D01*
X56049800Y-94215900D02*
X55953400Y-94185600D01*
X56148800Y-94236200D02*
X56049800Y-94215900D01*
X56249300Y-94246500D02*
X56148800Y-94236200D01*
X56325200Y-94249000D02*
X56249300Y-94246500D01*
X138274900Y-94249000D02*
X56325200Y-94249000D01*
X138350500Y-94246500D02*
X138274900Y-94249000D01*
X138451100Y-94236200D02*
X138350500Y-94246500D01*
X138549900Y-83215900D02*
X138451000Y-83236200D01*
X138646400Y-83185700D02*
X138549900Y-83215900D01*
X138739300Y-83145800D02*
X138646400Y-83185700D01*
X138827600Y-83096800D02*
X138739300Y-83145800D01*
X138910600Y-83039100D02*
X138827600Y-83096800D01*
X138987300Y-82973300D02*
X138910600Y-83039100D01*
X139057100Y-82899800D02*
X138987300Y-82973300D01*
X139119000Y-82819900D02*
X139057100Y-82899800D01*
X139172400Y-82734100D02*
X139119000Y-82819900D01*
X139216900Y-82643300D02*
X139172400Y-82734100D01*
X139252000Y-82548600D02*
X139216900Y-82643300D01*
X139277300Y-82450700D02*
X139252000Y-82548600D01*
X139292600Y-82350800D02*
X139277300Y-82450700D01*
X139297700Y-82249900D02*
X139292600Y-82350800D01*
X139292600Y-82149200D02*
X139297700Y-82249900D01*
X139277300Y-82049300D02*
X139292600Y-82149200D01*
X139252000Y-81951500D02*
X139277300Y-82049300D01*
X139216900Y-81856700D02*
X139252000Y-81951500D01*
X139172400Y-81765900D02*
X139216900Y-81856700D01*
X139119000Y-81680200D02*
X139172400Y-81765900D01*
X139057100Y-81600200D02*
X139119000Y-81680200D01*
X138987300Y-81526800D02*
X139057100Y-81600200D01*
X138910600Y-81461000D02*
X138987300Y-81526800D01*
X138827600Y-81403200D02*
X138910600Y-81461000D01*
X138739300Y-81354200D02*
X138827600Y-81403200D01*
X138646600Y-81314500D02*
X138739300Y-81354200D01*
X138550200Y-81284200D02*
X138646600Y-81314500D01*
X138451200Y-81263800D02*
X138550200Y-81284200D01*
X138350700Y-81253600D02*
X138451200Y-81263800D01*
X138274800Y-81251000D02*
X138350700Y-81253600D01*
X56325300Y-81251000D02*
X138274800Y-81251000D01*
X56249200Y-81253600D02*
X56325300Y-81251000D01*
X56148800Y-81263800D02*
X56249200Y-81253600D01*
X56049800Y-81284200D02*
X56148800Y-81263800D01*
X55953400Y-81314500D02*
X56049800Y-81284200D01*
X55860500Y-81354300D02*
X55953400Y-81314500D01*
X55772100Y-81403400D02*
X55860500Y-81354300D01*
X55689200Y-81461100D02*
X55772100Y-81403400D01*
X55612500Y-81527000D02*
X55689200Y-81461100D01*
X55542900Y-81600200D02*
X55612500Y-81527000D01*
X55481000Y-81680200D02*
X55542900Y-81600200D01*
X55427600Y-81765900D02*
X55481000Y-81680200D01*
X55383100Y-81856700D02*
X55427600Y-81765900D01*
X55348100Y-81951200D02*
X55383100Y-81856700D01*
X55322700Y-82049000D02*
X55348100Y-81951200D01*
X55307400Y-82148900D02*
X55322700Y-82049000D01*
X55302300Y-82249900D02*
X55307400Y-82148900D01*
X55307400Y-82350800D02*
X55302300Y-82249900D01*
X55322700Y-82450700D02*
X55307400Y-82350800D01*
X55348000Y-82548600D02*
X55322700Y-82450700D01*
X55383100Y-82643300D02*
X55348000Y-82548600D01*
X55427600Y-82734100D02*
X55383100Y-82643300D01*
X55481000Y-82819900D02*
X55427600Y-82734100D01*
X55542900Y-82899800D02*
X55481000Y-82819900D01*
X55612500Y-82973100D02*
X55542900Y-82899800D01*
X55689200Y-83038900D02*
X55612500Y-82973100D01*
X55772100Y-83096700D02*
X55689200Y-83038900D01*
X55860500Y-83145700D02*
X55772100Y-83096700D01*
X55953400Y-83185600D02*
X55860500Y-83145700D01*
X56049800Y-83215800D02*
X55953400Y-83185600D01*
X56148800Y-83236200D02*
X56049800Y-83215800D01*
X56249300Y-83246400D02*
X56148800Y-83236200D01*
X56325200Y-83249000D02*
X56249300Y-83246400D01*
X138274800Y-83249000D02*
X56325200Y-83249000D01*
X138350600Y-83246400D02*
X138274800Y-83249000D01*
X138451000Y-83236200D02*
X138350600Y-83246400D01*
X138549900Y-74715900D02*
X138451000Y-74736200D01*
X138646400Y-74685700D02*
X138549900Y-74715900D01*
X138739300Y-74645800D02*
X138646400Y-74685700D01*
X138827600Y-74596800D02*
X138739300Y-74645800D01*
X138910600Y-74539100D02*
X138827600Y-74596800D01*
X138987300Y-74473300D02*
X138910600Y-74539100D01*
X139057100Y-74399800D02*
X138987300Y-74473300D01*
X139119000Y-74319900D02*
X139057100Y-74399800D01*
X139172400Y-74234100D02*
X139119000Y-74319900D01*
X139216900Y-74143300D02*
X139172400Y-74234100D01*
X139252000Y-74048600D02*
X139216900Y-74143300D01*
X139277300Y-73950700D02*
X139252000Y-74048600D01*
X139292600Y-73850800D02*
X139277300Y-73950700D01*
X139297700Y-73749900D02*
X139292600Y-73850800D01*
X139292600Y-73649200D02*
X139297700Y-73749900D01*
X139277300Y-73549300D02*
X139292600Y-73649200D01*
X139252000Y-73451500D02*
X139277300Y-73549300D01*
X139216900Y-73356700D02*
X139252000Y-73451500D01*
X139172400Y-73265900D02*
X139216900Y-73356700D01*
X139119000Y-73180200D02*
X139172400Y-73265900D01*
X139057100Y-73100200D02*
X139119000Y-73180200D01*
X138987300Y-73026800D02*
X139057100Y-73100200D01*
X138910600Y-72961000D02*
X138987300Y-73026800D01*
X138827600Y-72903200D02*
X138910600Y-72961000D01*
X138739300Y-72854200D02*
X138827600Y-72903200D01*
X138646600Y-72814500D02*
X138739300Y-72854200D01*
X138550200Y-72784200D02*
X138646600Y-72814500D01*
X138451200Y-72763800D02*
X138550200Y-72784200D01*
X138350700Y-72753600D02*
X138451200Y-72763800D01*
X138274800Y-72751000D02*
X138350700Y-72753600D01*
X56325300Y-72751000D02*
X138274800Y-72751000D01*
X56249200Y-72753600D02*
X56325300Y-72751000D01*
X56148800Y-72763800D02*
X56249200Y-72753600D01*
X56049800Y-72784200D02*
X56148800Y-72763800D01*
X55953400Y-72814500D02*
X56049800Y-72784200D01*
X55860500Y-72854300D02*
X55953400Y-72814500D01*
X55772100Y-72903400D02*
X55860500Y-72854300D01*
X55689200Y-72961100D02*
X55772100Y-72903400D01*
X55612500Y-73027000D02*
X55689200Y-72961100D01*
X55542900Y-73100200D02*
X55612500Y-73027000D01*
X55481000Y-73180200D02*
X55542900Y-73100200D01*
X55427600Y-73265900D02*
X55481000Y-73180200D01*
X55383100Y-73356700D02*
X55427600Y-73265900D01*
X55348100Y-73451200D02*
X55383100Y-73356700D01*
X55322700Y-73549000D02*
X55348100Y-73451200D01*
X55307400Y-73648900D02*
X55322700Y-73549000D01*
X55302300Y-73749900D02*
X55307400Y-73648900D01*
X55307400Y-73850800D02*
X55302300Y-73749900D01*
X55322700Y-73950700D02*
X55307400Y-73850800D01*
X55348000Y-74048600D02*
X55322700Y-73950700D01*
X55383100Y-74143300D02*
X55348000Y-74048600D01*
X55427600Y-74234100D02*
X55383100Y-74143300D01*
X55481000Y-74319900D02*
X55427600Y-74234100D01*
X55542900Y-74399800D02*
X55481000Y-74319900D01*
X55612500Y-74473100D02*
X55542900Y-74399800D01*
X55689200Y-74538900D02*
X55612500Y-74473100D01*
X55772100Y-74596700D02*
X55689200Y-74538900D01*
X55860500Y-74645700D02*
X55772100Y-74596700D01*
X55953400Y-74685600D02*
X55860500Y-74645700D01*
X56049800Y-74715800D02*
X55953400Y-74685600D01*
X56148800Y-74736200D02*
X56049800Y-74715800D01*
X56249300Y-74746400D02*
X56148800Y-74736200D01*
X56325200Y-74749000D02*
X56249300Y-74746400D01*
X138274800Y-74749000D02*
X56325200Y-74749000D01*
X138350600Y-74746400D02*
X138274800Y-74749000D01*
X138451000Y-74736200D02*
X138350600Y-74746400D01*
X138549900Y-63715900D02*
X138451000Y-63736200D01*
X138646400Y-63685700D02*
X138549900Y-63715900D01*
X138739300Y-63645800D02*
X138646400Y-63685700D01*
X138827600Y-63596800D02*
X138739300Y-63645800D01*
X138910600Y-63539100D02*
X138827600Y-63596800D01*
X138987300Y-63473200D02*
X138910600Y-63539100D01*
X139057100Y-63399800D02*
X138987300Y-63473200D01*
X139118800Y-63320100D02*
X139057100Y-63399800D01*
X139172300Y-63234300D02*
X139118800Y-63320100D01*
X139216800Y-63143600D02*
X139172300Y-63234300D01*
X139251900Y-63048800D02*
X139216800Y-63143600D01*
X139277300Y-62951000D02*
X139251900Y-63048800D01*
X139292600Y-62851100D02*
X139277300Y-62951000D01*
X139297700Y-62750100D02*
X139292600Y-62851100D01*
X139292600Y-62649200D02*
X139297700Y-62750100D01*
X139277300Y-62549300D02*
X139292600Y-62649200D01*
X139252000Y-62451500D02*
X139277300Y-62549300D01*
X139216800Y-62356400D02*
X139252000Y-62451500D01*
X139172300Y-62265700D02*
X139216800Y-62356400D01*
X139118800Y-62179900D02*
X139172300Y-62265700D01*
X139056900Y-62100000D02*
X139118800Y-62179900D01*
X138987300Y-62026800D02*
X139056900Y-62100000D01*
X138910600Y-61960900D02*
X138987300Y-62026800D01*
X138827600Y-61903200D02*
X138910600Y-61960900D01*
X138739500Y-61854300D02*
X138827600Y-61903200D01*
X138646600Y-61814400D02*
X138739500Y-61854300D01*
X138550200Y-61784200D02*
X138646600Y-61814400D01*
X138451200Y-61763800D02*
X138550200Y-61784200D01*
X138350700Y-61753600D02*
X138451200Y-61763800D01*
X138274800Y-61751000D02*
X138350700Y-61753600D01*
X56325200Y-61751000D02*
X138274800Y-61751000D01*
X56249300Y-61753600D02*
X56325200Y-61751000D01*
X56148800Y-61763800D02*
X56249300Y-61753600D01*
X56049800Y-61784200D02*
X56148800Y-61763800D01*
X55953400Y-61814400D02*
X56049800Y-61784200D01*
X55860500Y-61854300D02*
X55953400Y-61814400D01*
X55772100Y-61903400D02*
X55860500Y-61854300D01*
X55689200Y-61961100D02*
X55772100Y-61903400D01*
X55612500Y-62027000D02*
X55689200Y-61961100D01*
X55542900Y-62100200D02*
X55612500Y-62027000D01*
X55481000Y-62180200D02*
X55542900Y-62100200D01*
X55427600Y-62265900D02*
X55481000Y-62180200D01*
X55383100Y-62356700D02*
X55427600Y-62265900D01*
X55348000Y-62451500D02*
X55383100Y-62356700D01*
X55322700Y-62549000D02*
X55348000Y-62451500D01*
X55307400Y-62648900D02*
X55322700Y-62549000D01*
X55302300Y-62749900D02*
X55307400Y-62648900D01*
X55307400Y-62850800D02*
X55302300Y-62749900D01*
X55322700Y-62950700D02*
X55307400Y-62850800D01*
X55348000Y-63048500D02*
X55322700Y-62950700D01*
X55383100Y-63143300D02*
X55348000Y-63048500D01*
X55427600Y-63234100D02*
X55383100Y-63143300D01*
X55481000Y-63319900D02*
X55427600Y-63234100D01*
X55542900Y-63399800D02*
X55481000Y-63319900D01*
X55612500Y-63473000D02*
X55542900Y-63399800D01*
X55689200Y-63538900D02*
X55612500Y-63473000D01*
X55772100Y-63596600D02*
X55689200Y-63538900D01*
X55860500Y-63645700D02*
X55772100Y-63596600D01*
X55953400Y-63685600D02*
X55860500Y-63645700D01*
X56049800Y-63715800D02*
X55953400Y-63685600D01*
X56148800Y-63736200D02*
X56049800Y-63715800D01*
X56249300Y-63746400D02*
X56148800Y-63736200D01*
X56325200Y-63749000D02*
X56249300Y-63746400D01*
X138274800Y-63749000D02*
X56325200Y-63749000D01*
X138350700Y-63746400D02*
X138274800Y-63749000D01*
X138451000Y-63736200D02*
X138350700Y-63746400D01*
X138549900Y-55215900D02*
X138451000Y-55236200D01*
X138646400Y-55185700D02*
X138549900Y-55215900D01*
X138739300Y-55145800D02*
X138646400Y-55185700D01*
X138827600Y-55096800D02*
X138739300Y-55145800D01*
X138910600Y-55039100D02*
X138827600Y-55096800D01*
X138987300Y-54973200D02*
X138910600Y-55039100D01*
X139057100Y-54899800D02*
X138987300Y-54973200D01*
X139118800Y-54820100D02*
X139057100Y-54899800D01*
X139172300Y-54734300D02*
X139118800Y-54820100D01*
X139216800Y-54643600D02*
X139172300Y-54734300D01*
X139251900Y-54548800D02*
X139216800Y-54643600D01*
X139277300Y-54451000D02*
X139251900Y-54548800D01*
X139292600Y-54351100D02*
X139277300Y-54451000D01*
X139297700Y-54250100D02*
X139292600Y-54351100D01*
X139292600Y-54149200D02*
X139297700Y-54250100D01*
X139277300Y-54049300D02*
X139292600Y-54149200D01*
X139252000Y-53951500D02*
X139277300Y-54049300D01*
X139216800Y-53856400D02*
X139252000Y-53951500D01*
X139172300Y-53765700D02*
X139216800Y-53856400D01*
X139118800Y-53679900D02*
X139172300Y-53765700D01*
X139056900Y-53600000D02*
X139118800Y-53679900D01*
X138987300Y-53526800D02*
X139056900Y-53600000D01*
X138910600Y-53460900D02*
X138987300Y-53526800D01*
X138827600Y-53403200D02*
X138910600Y-53460900D01*
X138739500Y-53354300D02*
X138827600Y-53403200D01*
X138646600Y-53314400D02*
X138739500Y-53354300D01*
X138550200Y-53284200D02*
X138646600Y-53314400D01*
X138451200Y-53263800D02*
X138550200Y-53284200D01*
X138350700Y-53253600D02*
X138451200Y-53263800D01*
X138274800Y-53251000D02*
X138350700Y-53253600D01*
X56325200Y-53251000D02*
X138274800Y-53251000D01*
X56249300Y-53253600D02*
X56325200Y-53251000D01*
X56148800Y-53263800D02*
X56249300Y-53253600D01*
X56049800Y-53284200D02*
X56148800Y-53263800D01*
X55953400Y-53314400D02*
X56049800Y-53284200D01*
X55860500Y-53354300D02*
X55953400Y-53314400D01*
X55772100Y-53403400D02*
X55860500Y-53354300D01*
X55689200Y-53461100D02*
X55772100Y-53403400D01*
X55612500Y-53527000D02*
X55689200Y-53461100D01*
X55542900Y-53600200D02*
X55612500Y-53527000D01*
X55481000Y-53680200D02*
X55542900Y-53600200D01*
X55427600Y-53765900D02*
X55481000Y-53680200D01*
X55383100Y-53856700D02*
X55427600Y-53765900D01*
X55348000Y-53951500D02*
X55383100Y-53856700D01*
X55322700Y-54049000D02*
X55348000Y-53951500D01*
X55307400Y-54148900D02*
X55322700Y-54049000D01*
X55302300Y-54249900D02*
X55307400Y-54148900D01*
X55307400Y-54350800D02*
X55302300Y-54249900D01*
X55322700Y-54450700D02*
X55307400Y-54350800D01*
X55348000Y-54548500D02*
X55322700Y-54450700D01*
X55383100Y-54643300D02*
X55348000Y-54548500D01*
X55427600Y-54734100D02*
X55383100Y-54643300D01*
X55481000Y-54819900D02*
X55427600Y-54734100D01*
X55542900Y-54899800D02*
X55481000Y-54819900D01*
X55612500Y-54973000D02*
X55542900Y-54899800D01*
X55689200Y-55038900D02*
X55612500Y-54973000D01*
X55772100Y-55096600D02*
X55689200Y-55038900D01*
X55860500Y-55145700D02*
X55772100Y-55096600D01*
X55953400Y-55185600D02*
X55860500Y-55145700D01*
X56049800Y-55215800D02*
X55953400Y-55185600D01*
X56148800Y-55236200D02*
X56049800Y-55215800D01*
X56249300Y-55246400D02*
X56148800Y-55236200D01*
X56325200Y-55249000D02*
X56249300Y-55246400D01*
X138274800Y-55249000D02*
X56325200Y-55249000D01*
X138350700Y-55246400D02*
X138274800Y-55249000D01*
X138451000Y-55236200D02*
X138350700Y-55246400D01*
X138550200Y-122215900D02*
X138450700Y-122236300D01*
X138646600Y-122185600D02*
X138550200Y-122215900D01*
X138739500Y-122145700D02*
X138646600Y-122185600D01*
X138827900Y-122096700D02*
X138739500Y-122145700D01*
X138910800Y-122038900D02*
X138827900Y-122096700D01*
X138987500Y-121973100D02*
X138910800Y-122038900D01*
X139057100Y-121899800D02*
X138987500Y-121973100D01*
X139119000Y-121819900D02*
X139057100Y-121899800D01*
X139172400Y-121734100D02*
X139119000Y-121819900D01*
X139216900Y-121643400D02*
X139172400Y-121734100D01*
X139252000Y-121548600D02*
X139216900Y-121643400D01*
X139277300Y-121450800D02*
X139252000Y-121548600D01*
X139292600Y-121350900D02*
X139277300Y-121450800D01*
X139297700Y-121249900D02*
X139292600Y-121350900D01*
X139292600Y-121149300D02*
X139297700Y-121249900D01*
X139277300Y-121049300D02*
X139292600Y-121149300D01*
X139252000Y-120951500D02*
X139277300Y-121049300D01*
X139216900Y-120856700D02*
X139252000Y-120951500D01*
X139172400Y-120766000D02*
X139216900Y-120856700D01*
X139119000Y-120680200D02*
X139172400Y-120766000D01*
X139057100Y-120600300D02*
X139119000Y-120680200D01*
X138987300Y-120526800D02*
X139057100Y-120600300D01*
X138910600Y-120461000D02*
X138987300Y-120526800D01*
X138827600Y-120403300D02*
X138910600Y-120461000D01*
X138739300Y-120354200D02*
X138827600Y-120403300D01*
X138646600Y-120314500D02*
X138739300Y-120354200D01*
X138550200Y-120284200D02*
X138646600Y-120314500D01*
X138451200Y-120263900D02*
X138550200Y-120284200D01*
X138350700Y-120253600D02*
X138451200Y-120263900D01*
X138274800Y-120251100D02*
X138350700Y-120253600D01*
X56325000Y-120251100D02*
X138274800Y-120251100D01*
X56249600Y-120253600D02*
X56325000Y-120251100D01*
X56148800Y-120263900D02*
X56249600Y-120253600D01*
X56049800Y-120284200D02*
X56148800Y-120263900D01*
X55953400Y-120314500D02*
X56049800Y-120284200D01*
X55860500Y-120354400D02*
X55953400Y-120314500D01*
X55772100Y-120403400D02*
X55860500Y-120354400D01*
X55689200Y-120461200D02*
X55772100Y-120403400D01*
X55612500Y-120527000D02*
X55689200Y-120461200D01*
X55542900Y-120600300D02*
X55612500Y-120527000D01*
X55481000Y-120680200D02*
X55542900Y-120600300D01*
X55427600Y-120766000D02*
X55481000Y-120680200D01*
X55383100Y-120856700D02*
X55427600Y-120766000D01*
X55348100Y-120951200D02*
X55383100Y-120856700D01*
X55322700Y-121049100D02*
X55348100Y-120951200D01*
X55307400Y-121149000D02*
X55322700Y-121049100D01*
X55302300Y-121249900D02*
X55307400Y-121149000D01*
X55307400Y-121350900D02*
X55302300Y-121249900D01*
X55322700Y-121450800D02*
X55307400Y-121350900D01*
X55348000Y-121548600D02*
X55322700Y-121450800D01*
X55383100Y-121643400D02*
X55348000Y-121548600D01*
X55427600Y-121734100D02*
X55383100Y-121643400D01*
X55481000Y-121819900D02*
X55427600Y-121734100D01*
X55542900Y-121899800D02*
X55481000Y-121819900D01*
X55612500Y-121973100D02*
X55542900Y-121899800D01*
X55689200Y-122038900D02*
X55612500Y-121973100D01*
X55772100Y-122096700D02*
X55689200Y-122038900D01*
X55860500Y-122145700D02*
X55772100Y-122096700D01*
X55953400Y-122185600D02*
X55860500Y-122145700D01*
X56049800Y-122215900D02*
X55953400Y-122185600D01*
X56148800Y-122236200D02*
X56049800Y-122215900D01*
X56249300Y-122246500D02*
X56148800Y-122236200D01*
X56325200Y-122249100D02*
X56249300Y-122246500D01*
X138274500Y-122249100D02*
X56325200Y-122249100D01*
X138350900Y-122246500D02*
X138274500Y-122249100D01*
X138450700Y-122236300D02*
X138350900Y-122246500D01*
X138550200Y-113715900D02*
X138450700Y-113736300D01*
X138646600Y-113685600D02*
X138550200Y-113715900D01*
X138739500Y-113645700D02*
X138646600Y-113685600D01*
X138827900Y-113596700D02*
X138739500Y-113645700D01*
X138910800Y-113538900D02*
X138827900Y-113596700D01*
X138987500Y-113473100D02*
X138910800Y-113538900D01*
X139057100Y-113399800D02*
X138987500Y-113473100D01*
X139119000Y-113319900D02*
X139057100Y-113399800D01*
X139172400Y-113234100D02*
X139119000Y-113319900D01*
X139216900Y-113143400D02*
X139172400Y-113234100D01*
X139252000Y-113048600D02*
X139216900Y-113143400D01*
X139277300Y-112950800D02*
X139252000Y-113048600D01*
X139292600Y-112850900D02*
X139277300Y-112950800D01*
X139297700Y-112749900D02*
X139292600Y-112850900D01*
X139292600Y-112649300D02*
X139297700Y-112749900D01*
X139277300Y-112549300D02*
X139292600Y-112649300D01*
X139252000Y-112451500D02*
X139277300Y-112549300D01*
X139216900Y-112356700D02*
X139252000Y-112451500D01*
X139172400Y-112266000D02*
X139216900Y-112356700D01*
X139119000Y-112180200D02*
X139172400Y-112266000D01*
X139057100Y-112100300D02*
X139119000Y-112180200D01*
X138987300Y-112026800D02*
X139057100Y-112100300D01*
X138910600Y-111961000D02*
X138987300Y-112026800D01*
X138827600Y-111903300D02*
X138910600Y-111961000D01*
X138739300Y-111854200D02*
X138827600Y-111903300D01*
X138646600Y-111814500D02*
X138739300Y-111854200D01*
X138550200Y-111784200D02*
X138646600Y-111814500D01*
X138451200Y-111763900D02*
X138550200Y-111784200D01*
X138350700Y-111753600D02*
X138451200Y-111763900D01*
X138274800Y-111751100D02*
X138350700Y-111753600D01*
X56325000Y-111751100D02*
X138274800Y-111751100D01*
X56249600Y-111753600D02*
X56325000Y-111751100D01*
X56148800Y-111763900D02*
X56249600Y-111753600D01*
X56049800Y-111784200D02*
X56148800Y-111763900D01*
X55953400Y-111814500D02*
X56049800Y-111784200D01*
X55860500Y-111854400D02*
X55953400Y-111814500D01*
X55772100Y-111903400D02*
X55860500Y-111854400D01*
X55689200Y-111961200D02*
X55772100Y-111903400D01*
X55612500Y-112027000D02*
X55689200Y-111961200D01*
X55542900Y-112100300D02*
X55612500Y-112027000D01*
X55481000Y-112180200D02*
X55542900Y-112100300D01*
X55427600Y-112266000D02*
X55481000Y-112180200D01*
X55383100Y-112356700D02*
X55427600Y-112266000D01*
X55348100Y-112451200D02*
X55383100Y-112356700D01*
X55322700Y-112549100D02*
X55348100Y-112451200D01*
X55307400Y-112649000D02*
X55322700Y-112549100D01*
X55302300Y-112749900D02*
X55307400Y-112649000D01*
X55307400Y-112850900D02*
X55302300Y-112749900D01*
X55322700Y-112950800D02*
X55307400Y-112850900D01*
X55348000Y-113048600D02*
X55322700Y-112950800D01*
X55383100Y-113143400D02*
X55348000Y-113048600D01*
X55427600Y-113234100D02*
X55383100Y-113143400D01*
X55481000Y-113319900D02*
X55427600Y-113234100D01*
X55542900Y-113399800D02*
X55481000Y-113319900D01*
X55612500Y-113473100D02*
X55542900Y-113399800D01*
X55689200Y-113538900D02*
X55612500Y-113473100D01*
X55772100Y-113596700D02*
X55689200Y-113538900D01*
X55860500Y-113645700D02*
X55772100Y-113596700D01*
X55953400Y-113685600D02*
X55860500Y-113645700D01*
X56049800Y-113715900D02*
X55953400Y-113685600D01*
X56148800Y-113736200D02*
X56049800Y-113715900D01*
X56249300Y-113746500D02*
X56148800Y-113736200D01*
X56325200Y-113749100D02*
X56249300Y-113746500D01*
X138274500Y-113749100D02*
X56325200Y-113749100D01*
X138350900Y-113746500D02*
X138274500Y-113749100D01*
X138450700Y-113736300D02*
X138350900Y-113746500D01*
X144576500Y-43499000D02*
X50009200Y-43499700D01*
X144591800Y-43499800D02*
X144576500Y-43499000D01*
X144597000Y-43502300D02*
X144591800Y-43499800D01*
X144600200Y-43508200D02*
X144597000Y-43502300D01*
X144601000Y-43523500D02*
X144600200Y-43508200D01*
X144601000Y-47475500D02*
X144601000Y-43523500D01*
X144599700Y-47492700D02*
X144601000Y-47475500D01*
X144597000Y-47496700D02*
X144599700Y-47492700D01*
X144591800Y-47499200D02*
X144597000Y-47496700D01*
X108291300Y-47500000D02*
X144591800Y-47499200D01*
X108194000Y-47504800D02*
X108291300Y-47500000D01*
X108097900Y-47519000D02*
X108194000Y-47504800D01*
X108003600Y-47542600D02*
X108097900Y-47519000D01*
X107912200Y-47575400D02*
X108003600Y-47542600D01*
X107824300Y-47616900D02*
X107912200Y-47575400D01*
X107741000Y-47666900D02*
X107824300Y-47616900D01*
X107663000Y-47724700D02*
X107741000Y-47666900D01*
X107591000Y-47790000D02*
X107663000Y-47724700D01*
X107525700Y-47862000D02*
X107591000Y-47790000D01*
X107467900Y-47940000D02*
X107525700Y-47862000D01*
X107417900Y-48023300D02*
X107467900Y-47940000D01*
X107376400Y-48111100D02*
X107417900Y-48023300D01*
X107343700Y-48202600D02*
X107376400Y-48111100D01*
X107320000Y-48296900D02*
X107343700Y-48202600D01*
X107305800Y-48393000D02*
X107320000Y-48296900D01*
X107301000Y-48490200D02*
X107305800Y-48393000D01*
X107301000Y-49008800D02*
X107301000Y-48490200D01*
X107305800Y-49106000D02*
X107301000Y-49008800D01*
X107320000Y-49202100D02*
X107305800Y-49106000D01*
X107343700Y-49296400D02*
X107320000Y-49202100D01*
X107376400Y-49387900D02*
X107343700Y-49296400D01*
X107417900Y-49475700D02*
X107376400Y-49387900D01*
X107467900Y-49559000D02*
X107417900Y-49475700D01*
X107525700Y-49637000D02*
X107467900Y-49559000D01*
X107591000Y-49709000D02*
X107525700Y-49637000D01*
X107663000Y-49774300D02*
X107591000Y-49709000D01*
X107741000Y-49832100D02*
X107663000Y-49774300D01*
X107824300Y-49882100D02*
X107741000Y-49832100D01*
X107912200Y-49923600D02*
X107824300Y-49882100D01*
X108003600Y-49956400D02*
X107912200Y-49923600D01*
X108097900Y-49980000D02*
X108003600Y-49956400D01*
X108194000Y-49994200D02*
X108097900Y-49980000D01*
X108291300Y-49999000D02*
X108194000Y-49994200D01*
X140343400Y-49999000D02*
X108291300Y-49999000D01*
X140794600Y-50022700D02*
X140343400Y-49999000D01*
X141220800Y-50089800D02*
X140794600Y-50022700D01*
X141246500Y-50095300D02*
X141220800Y-50089800D01*
X141663300Y-50207300D02*
X141246500Y-50095300D01*
X142066700Y-50361800D02*
X141663300Y-50207300D01*
X142090700Y-50372500D02*
X142066700Y-50361800D01*
X142475100Y-50568700D02*
X142090700Y-50372500D01*
X142848300Y-50811000D02*
X142475100Y-50568700D01*
X143194500Y-51091300D02*
X142848300Y-50811000D01*
X143499800Y-51396200D02*
X143194500Y-51091300D01*
X143517400Y-51415700D02*
X143499800Y-51396200D01*
X143780800Y-51741100D02*
X143517400Y-51415700D01*
X143796300Y-51762300D02*
X143780800Y-51741100D01*
X144031100Y-52124500D02*
X143796300Y-51762300D01*
X144227500Y-52509200D02*
X144031100Y-52124500D01*
X144238200Y-52533200D02*
X144227500Y-52509200D01*
X144388200Y-52924100D02*
X144238200Y-52533200D01*
X144396300Y-52949100D02*
X144388200Y-52924100D01*
X144507800Y-53366500D02*
X144396300Y-52949100D01*
X144577300Y-53805500D02*
X144507800Y-53366500D01*
X144600900Y-54250100D02*
X144577300Y-53805500D01*
X144600900Y-55145800D02*
X144600900Y-54250100D01*
X144595900Y-55244100D02*
X144600900Y-55145800D01*
X144583400Y-55329600D02*
X144595900Y-55244100D01*
X144578600Y-55353900D02*
X144583400Y-55329600D01*
X144553400Y-55449200D02*
X144578600Y-55353900D01*
X144524000Y-55530000D02*
X144553400Y-55449200D01*
X144487300Y-55608200D02*
X144524000Y-55530000D01*
X144475600Y-55630000D02*
X144487300Y-55608200D01*
X144430700Y-55703900D02*
X144475600Y-55630000D01*
X144372100Y-55782500D02*
X144430700Y-55703900D01*
X144314100Y-55846600D02*
X144372100Y-55782500D01*
X144296500Y-55864100D02*
X144314100Y-55846600D01*
X144232100Y-55921700D02*
X144296500Y-55864100D01*
X144152700Y-55980100D02*
X144232100Y-55921700D01*
X144057300Y-56035700D02*
X144152700Y-55980100D01*
X143978600Y-56072200D02*
X144057300Y-56035700D01*
X143700100Y-56170700D02*
X143978600Y-56072200D01*
X143609400Y-56207800D02*
X143700100Y-56170700D01*
X143475300Y-56270600D02*
X143609400Y-56207800D01*
X143388700Y-56316400D02*
X143475300Y-56270600D01*
X143261400Y-56392000D02*
X143388700Y-56316400D01*
X143179800Y-56446200D02*
X143261400Y-56392000D01*
X143060600Y-56533900D02*
X143179800Y-56446200D01*
X142984600Y-56595900D02*
X143060600Y-56533900D01*
X142874600Y-56694900D02*
X142984600Y-56595900D01*
X142805100Y-56764000D02*
X142874600Y-56694900D01*
X142705400Y-56873400D02*
X142805100Y-56764000D01*
X142643000Y-56949000D02*
X142705400Y-56873400D01*
X142554500Y-57067700D02*
X142643000Y-56949000D01*
X142499900Y-57149100D02*
X142554500Y-57067700D01*
X142423600Y-57275900D02*
X142499900Y-57149100D01*
X142377200Y-57362300D02*
X142423600Y-57275900D01*
X142313700Y-57496000D02*
X142377200Y-57362300D01*
X142276000Y-57586500D02*
X142313700Y-57496000D01*
X142226000Y-57725800D02*
X142276000Y-57586500D01*
X142197400Y-57819500D02*
X142226000Y-57725800D01*
X142161300Y-57963100D02*
X142197400Y-57819500D01*
X142142200Y-58059200D02*
X142161300Y-57963100D01*
X142120400Y-58205600D02*
X142142200Y-58059200D01*
X142110700Y-58303100D02*
X142120400Y-58205600D01*
X142103400Y-58451000D02*
X142110700Y-58303100D01*
X142103400Y-58549000D02*
X142103400Y-58451000D01*
X142110700Y-58696900D02*
X142103400Y-58549000D01*
X142120400Y-58794400D02*
X142110700Y-58696900D01*
X142142200Y-58940800D02*
X142120400Y-58794400D01*
X142161300Y-59036900D02*
X142142200Y-58940800D01*
X142197400Y-59180500D02*
X142161300Y-59036900D01*
X142226000Y-59274200D02*
X142197400Y-59180500D01*
X142276000Y-59413500D02*
X142226000Y-59274200D01*
X142313700Y-59504000D02*
X142276000Y-59413500D01*
X142377200Y-59637700D02*
X142313700Y-59504000D01*
X142423600Y-59724100D02*
X142377200Y-59637700D01*
X142499900Y-59850900D02*
X142423600Y-59724100D01*
X142554500Y-59932300D02*
X142499900Y-59850900D01*
X142643000Y-60051000D02*
X142554500Y-59932300D01*
X142705400Y-60126600D02*
X142643000Y-60051000D01*
X142805100Y-60236000D02*
X142705400Y-60126600D01*
X142874600Y-60305100D02*
X142805100Y-60236000D01*
X142984600Y-60404100D02*
X142874600Y-60305100D01*
X143060600Y-60466100D02*
X142984600Y-60404100D01*
X143179800Y-60553800D02*
X143060600Y-60466100D01*
X143261500Y-60608000D02*
X143179800Y-60553800D01*
X143388700Y-60683600D02*
X143261500Y-60608000D01*
X143475300Y-60729500D02*
X143388700Y-60683600D01*
X143609400Y-60792200D02*
X143475300Y-60729500D01*
X143700100Y-60829300D02*
X143609400Y-60792200D01*
X143979100Y-60928000D02*
X143700100Y-60829300D01*
X144068400Y-60969800D02*
X143979100Y-60928000D01*
X144162800Y-61027000D02*
X144068400Y-60969800D01*
X144241700Y-61086500D02*
X144162800Y-61027000D01*
X144305400Y-61144300D02*
X144241700Y-61086500D01*
X144363800Y-61207900D02*
X144305400Y-61144300D01*
X144379500Y-61227000D02*
X144363800Y-61207900D01*
X144430700Y-61296100D02*
X144379500Y-61227000D01*
X144481800Y-61381000D02*
X144430700Y-61296100D01*
X144524100Y-61470000D02*
X144481800Y-61381000D01*
X144557400Y-61562800D02*
X144524100Y-61470000D01*
X144581400Y-61658400D02*
X144557400Y-61562800D01*
X144594300Y-61743400D02*
X144581400Y-61658400D01*
X144596800Y-61768000D02*
X144594300Y-61743400D01*
X144601000Y-61860300D02*
X144596800Y-61768000D01*
X144600900Y-62749900D02*
X144601000Y-61860300D01*
X144578400Y-63181200D02*
X144600900Y-62749900D01*
X144575700Y-63207300D02*
X144578400Y-63181200D01*
X144510200Y-63620800D02*
X144575700Y-63207300D01*
X144504700Y-63646500D02*
X144510200Y-63620800D01*
X144392700Y-64063300D02*
X144504700Y-63646500D01*
X144238200Y-64466700D02*
X144392700Y-64063300D01*
X144227500Y-64490700D02*
X144238200Y-64466700D01*
X144031300Y-64875100D02*
X144227500Y-64490700D01*
X143788700Y-65248700D02*
X144031300Y-64875100D01*
X143517400Y-65584200D02*
X143788700Y-65248700D01*
X143499800Y-65603800D02*
X143517400Y-65584200D01*
X143194400Y-65908700D02*
X143499800Y-65603800D01*
X142858900Y-66180800D02*
X143194400Y-65908700D01*
X142837700Y-66196300D02*
X142858900Y-66180800D01*
X142475500Y-66431100D02*
X142837700Y-66196300D01*
X142078600Y-66633300D02*
X142475500Y-66431100D01*
X141663300Y-66792700D02*
X142078600Y-66633300D01*
X141233500Y-66907800D02*
X141663300Y-66792700D01*
X140794000Y-66977400D02*
X141233500Y-66907800D01*
X140343600Y-67001000D02*
X140794000Y-66977400D01*
X108291300Y-67001000D02*
X140343600Y-67001000D01*
X108194000Y-67005800D02*
X108291300Y-67001000D01*
X108097900Y-67020000D02*
X108194000Y-67005800D01*
X108003600Y-67043600D02*
X108097900Y-67020000D01*
X107912200Y-67076400D02*
X108003600Y-67043600D01*
X107824300Y-67117900D02*
X107912200Y-67076400D01*
X107741000Y-67167900D02*
X107824300Y-67117900D01*
X107663000Y-67225700D02*
X107741000Y-67167900D01*
X107591000Y-67291000D02*
X107663000Y-67225700D01*
X107525700Y-67363000D02*
X107591000Y-67291000D01*
X107467900Y-67441000D02*
X107525700Y-67363000D01*
X107417900Y-67524300D02*
X107467900Y-67441000D01*
X107376400Y-67612100D02*
X107417900Y-67524300D01*
X107343700Y-67703600D02*
X107376400Y-67612100D01*
X107320000Y-67797900D02*
X107343700Y-67703600D01*
X107305800Y-67894000D02*
X107320000Y-67797900D01*
X107301000Y-67991200D02*
X107305800Y-67894000D01*
X107301000Y-68508800D02*
X107301000Y-67991200D01*
X107305800Y-68606000D02*
X107301000Y-68508800D01*
X107320000Y-68702100D02*
X107305800Y-68606000D01*
X107343700Y-68796400D02*
X107320000Y-68702100D01*
X107376400Y-68887900D02*
X107343700Y-68796400D01*
X107417900Y-68975700D02*
X107376400Y-68887900D01*
X107467900Y-69059000D02*
X107417900Y-68975700D01*
X107525700Y-69137000D02*
X107467900Y-69059000D01*
X107591000Y-69209000D02*
X107525700Y-69137000D01*
X107663000Y-69274300D02*
X107591000Y-69209000D01*
X107741000Y-69332200D02*
X107663000Y-69274300D01*
X107824300Y-69382100D02*
X107741000Y-69332200D01*
X107912200Y-69423600D02*
X107824300Y-69382100D01*
X108003600Y-69456400D02*
X107912200Y-69423600D01*
X108097900Y-69480000D02*
X108003600Y-69456400D01*
X108194000Y-69494200D02*
X108097900Y-69480000D01*
X108291300Y-69499000D02*
X108194000Y-69494200D01*
X140350200Y-69499100D02*
X108291300Y-69499000D01*
X140794600Y-69522700D02*
X140350200Y-69499100D01*
X141233500Y-69592200D02*
X140794600Y-69522700D01*
X141663300Y-69707300D02*
X141233500Y-69592200D01*
X142066700Y-69861800D02*
X141663300Y-69707300D01*
X142090700Y-69872500D02*
X142066700Y-69861800D01*
X142463800Y-70062600D02*
X142090700Y-69872500D01*
X142486500Y-70075700D02*
X142463800Y-70062600D01*
X142848700Y-70311300D02*
X142486500Y-70075700D01*
X143184200Y-70582600D02*
X142848700Y-70311300D01*
X143203800Y-70600200D02*
X143184200Y-70582600D01*
X143499800Y-70896200D02*
X143203800Y-70600200D01*
X143517400Y-70915800D02*
X143499800Y-70896200D01*
X143788700Y-71251400D02*
X143517400Y-70915800D01*
X144024300Y-71613500D02*
X143788700Y-71251400D01*
X144037400Y-71636200D02*
X144024300Y-71613500D01*
X144233100Y-72020900D02*
X144037400Y-71636200D01*
X144392500Y-72436300D02*
X144233100Y-72020900D01*
X144507700Y-72866000D02*
X144392500Y-72436300D01*
X144577400Y-73306000D02*
X144507700Y-72866000D01*
X144601000Y-73756400D02*
X144577400Y-73306000D01*
X144601000Y-74639900D02*
X144601000Y-73756400D01*
X144596800Y-74732000D02*
X144601000Y-74639900D01*
X144594300Y-74756600D02*
X144596800Y-74732000D01*
X144581300Y-74842100D02*
X144594300Y-74756600D01*
X144557200Y-74937700D02*
X144581300Y-74842100D01*
X144524000Y-75030000D02*
X144557200Y-74937700D01*
X144481800Y-75119100D02*
X144524000Y-75030000D01*
X144430900Y-75203500D02*
X144481800Y-75119100D01*
X144372100Y-75282600D02*
X144430900Y-75203500D01*
X144305700Y-75355400D02*
X144372100Y-75282600D01*
X144241700Y-75413500D02*
X144305700Y-75355400D01*
X144222500Y-75429100D02*
X144241700Y-75413500D01*
X144153100Y-75479900D02*
X144222500Y-75429100D01*
X144067900Y-75530500D02*
X144153100Y-75479900D01*
X143978600Y-75572200D02*
X144067900Y-75530500D01*
X143700100Y-75670700D02*
X143978600Y-75572200D01*
X143609400Y-75707800D02*
X143700100Y-75670700D01*
X143475300Y-75770600D02*
X143609400Y-75707800D01*
X143388700Y-75816400D02*
X143475300Y-75770600D01*
X143261400Y-75892000D02*
X143388700Y-75816400D01*
X143179800Y-75946200D02*
X143261400Y-75892000D01*
X143060600Y-76033900D02*
X143179800Y-75946200D01*
X142984600Y-76095900D02*
X143060600Y-76033900D01*
X142874600Y-76194900D02*
X142984600Y-76095900D01*
X142805100Y-76264000D02*
X142874600Y-76194900D01*
X142705400Y-76373400D02*
X142805100Y-76264000D01*
X142643000Y-76449000D02*
X142705400Y-76373400D01*
X142554500Y-76567700D02*
X142643000Y-76449000D01*
X142499900Y-76649100D02*
X142554500Y-76567700D01*
X142423600Y-76775900D02*
X142499900Y-76649100D01*
X142377200Y-76862300D02*
X142423600Y-76775900D01*
X142313700Y-76996000D02*
X142377200Y-76862300D01*
X142276000Y-77086500D02*
X142313700Y-76996000D01*
X142226000Y-77225800D02*
X142276000Y-77086500D01*
X142197400Y-77319500D02*
X142226000Y-77225800D01*
X142161300Y-77463100D02*
X142197400Y-77319500D01*
X142142200Y-77559200D02*
X142161300Y-77463100D01*
X142120400Y-77705600D02*
X142142200Y-77559200D01*
X142110700Y-77803200D02*
X142120400Y-77705600D01*
X142103400Y-77951000D02*
X142110700Y-77803200D01*
X142103400Y-78049000D02*
X142103400Y-77951000D01*
X142110700Y-78196900D02*
X142103400Y-78049000D01*
X142120400Y-78294400D02*
X142110700Y-78196900D01*
X142142200Y-78440800D02*
X142120400Y-78294400D01*
X142161300Y-78536900D02*
X142142200Y-78440800D01*
X142197400Y-78680500D02*
X142161300Y-78536900D01*
X142226000Y-78774200D02*
X142197400Y-78680500D01*
X142276000Y-78913600D02*
X142226000Y-78774200D01*
X142313700Y-79004100D02*
X142276000Y-78913600D01*
X142377200Y-79137800D02*
X142313700Y-79004100D01*
X142423600Y-79224100D02*
X142377200Y-79137800D01*
X142499900Y-79350900D02*
X142423600Y-79224100D01*
X142554500Y-79432300D02*
X142499900Y-79350900D01*
X142643000Y-79551000D02*
X142554500Y-79432300D01*
X142705400Y-79626600D02*
X142643000Y-79551000D01*
X142805100Y-79736000D02*
X142705400Y-79626600D01*
X142874600Y-79805100D02*
X142805100Y-79736000D01*
X142984600Y-79904200D02*
X142874600Y-79805100D01*
X143060600Y-79966100D02*
X142984600Y-79904200D01*
X143179800Y-80053900D02*
X143060600Y-79966100D01*
X143261500Y-80108000D02*
X143179800Y-80053900D01*
X143388700Y-80183600D02*
X143261500Y-80108000D01*
X143475300Y-80229500D02*
X143388700Y-80183600D01*
X143609400Y-80292200D02*
X143475300Y-80229500D01*
X143700100Y-80329300D02*
X143609400Y-80292200D01*
X143967300Y-80423500D02*
X143700100Y-80329300D01*
X143990000Y-80432800D02*
X143967300Y-80423500D01*
X144068400Y-80469800D02*
X143990000Y-80432800D01*
X144153100Y-80520200D02*
X144068400Y-80469800D01*
X144222500Y-80570900D02*
X144153100Y-80520200D01*
X144241700Y-80586500D02*
X144222500Y-80570900D01*
X144305400Y-80644300D02*
X144241700Y-80586500D01*
X144363800Y-80707900D02*
X144305400Y-80644300D01*
X144379500Y-80727000D02*
X144363800Y-80707900D01*
X144430700Y-80796100D02*
X144379500Y-80727000D01*
X144481600Y-80880600D02*
X144430700Y-80796100D01*
X144523900Y-80969600D02*
X144481600Y-80880600D01*
X144557400Y-81062800D02*
X144523900Y-80969600D01*
X144581400Y-81158400D02*
X144557400Y-81062800D01*
X144594300Y-81243400D02*
X144581400Y-81158400D01*
X144596800Y-81268000D02*
X144594300Y-81243400D01*
X144601000Y-81360300D02*
X144596800Y-81268000D01*
X144601000Y-82243600D02*
X144601000Y-81360300D01*
X144578400Y-82681500D02*
X144601000Y-82243600D01*
X144575700Y-82707400D02*
X144578400Y-82681500D01*
X144507700Y-83134100D02*
X144575700Y-82707400D01*
X144396400Y-83550900D02*
X144507700Y-83134100D01*
X144388200Y-83575900D02*
X144396400Y-83550900D01*
X144233300Y-83978700D02*
X144388200Y-83575900D01*
X144037500Y-84363800D02*
X144233300Y-83978700D01*
X144024300Y-84386500D02*
X144037500Y-84363800D01*
X143789000Y-84748300D02*
X144024300Y-84386500D01*
X143508700Y-85094500D02*
X143789000Y-84748300D01*
X143203800Y-85399800D02*
X143508700Y-85094500D01*
X143184300Y-85417400D02*
X143203800Y-85399800D01*
X142848700Y-85688700D02*
X143184300Y-85417400D01*
X142486500Y-85924300D02*
X142848700Y-85688700D01*
X142463800Y-85937500D02*
X142486500Y-85924300D01*
X142090500Y-86127600D02*
X142463800Y-85937500D01*
X142066800Y-86138200D02*
X142090500Y-86127600D01*
X141663700Y-86292600D02*
X142066800Y-86138200D01*
X141234000Y-86407700D02*
X141663700Y-86292600D01*
X140794000Y-86477400D02*
X141234000Y-86407700D01*
X140343600Y-86501000D02*
X140794000Y-86477400D01*
X108291300Y-86501000D02*
X140343600Y-86501000D01*
X108194000Y-86505800D02*
X108291300Y-86501000D01*
X108097900Y-86520000D02*
X108194000Y-86505800D01*
X108003600Y-86543700D02*
X108097900Y-86520000D01*
X107912200Y-86576400D02*
X108003600Y-86543700D01*
X107824300Y-86617900D02*
X107912200Y-86576400D01*
X107741000Y-86667900D02*
X107824300Y-86617900D01*
X107663000Y-86725700D02*
X107741000Y-86667900D01*
X107591000Y-86791000D02*
X107663000Y-86725700D01*
X107525700Y-86863000D02*
X107591000Y-86791000D01*
X107467900Y-86941000D02*
X107525700Y-86863000D01*
X107417900Y-87024300D02*
X107467900Y-86941000D01*
X107376400Y-87112200D02*
X107417900Y-87024300D01*
X107343700Y-87203600D02*
X107376400Y-87112200D01*
X107320000Y-87297900D02*
X107343700Y-87203600D01*
X107305800Y-87394000D02*
X107320000Y-87297900D01*
X107301000Y-87491300D02*
X107305800Y-87394000D01*
X107301000Y-88008800D02*
X107301000Y-87491300D01*
X107305800Y-88106000D02*
X107301000Y-88008800D01*
X107320000Y-88202200D02*
X107305800Y-88106000D01*
X107343700Y-88296400D02*
X107320000Y-88202200D01*
X107376400Y-88387900D02*
X107343700Y-88296400D01*
X107417900Y-88475700D02*
X107376400Y-88387900D01*
X107467900Y-88559000D02*
X107417900Y-88475700D01*
X107525700Y-88637100D02*
X107467900Y-88559000D01*
X107591000Y-88709000D02*
X107525700Y-88637100D01*
X107663000Y-88774300D02*
X107591000Y-88709000D01*
X107741000Y-88832200D02*
X107663000Y-88774300D01*
X107824300Y-88882100D02*
X107741000Y-88832200D01*
X107912200Y-88923600D02*
X107824300Y-88882100D01*
X108003600Y-88956400D02*
X107912200Y-88923600D01*
X108097900Y-88980000D02*
X108003600Y-88956400D01*
X108194000Y-88994200D02*
X108097900Y-88980000D01*
X108291300Y-88999000D02*
X108194000Y-88994200D01*
X140343600Y-88999000D02*
X108291300Y-88999000D01*
X140794100Y-89022600D02*
X140343600Y-88999000D01*
X141233500Y-89092200D02*
X140794100Y-89022600D01*
X141663300Y-89207400D02*
X141233500Y-89092200D01*
X142078700Y-89366800D02*
X141663300Y-89207400D01*
X142475600Y-89569000D02*
X142078700Y-89366800D01*
X142837600Y-89803700D02*
X142475600Y-89569000D01*
X142858900Y-89819200D02*
X142837600Y-89803700D01*
X143194100Y-90091000D02*
X142858900Y-89819200D01*
X143499800Y-90396200D02*
X143194100Y-90091000D01*
X143517400Y-90415800D02*
X143499800Y-90396200D01*
X143788700Y-90751400D02*
X143517400Y-90415800D01*
X144031300Y-91125000D02*
X143788700Y-90751400D01*
X144227500Y-91509300D02*
X144031300Y-91125000D01*
X144238200Y-91533300D02*
X144227500Y-91509300D01*
X144392500Y-91936300D02*
X144238200Y-91533300D01*
X144504700Y-92353500D02*
X144392500Y-91936300D01*
X144510200Y-92379200D02*
X144504700Y-92353500D01*
X144577300Y-92805500D02*
X144510200Y-92379200D01*
X144600900Y-93250200D02*
X144577300Y-92805500D01*
X144601000Y-94139700D02*
X144600900Y-93250200D01*
X144596800Y-94232000D02*
X144601000Y-94139700D01*
X144594300Y-94256700D02*
X144596800Y-94232000D01*
X144581400Y-94341700D02*
X144594300Y-94256700D01*
X144557300Y-94437300D02*
X144581400Y-94341700D01*
X144524000Y-94530000D02*
X144557300Y-94437300D01*
X144481500Y-94619500D02*
X144524000Y-94530000D01*
X144430700Y-94703900D02*
X144481500Y-94619500D01*
X144379600Y-94773000D02*
X144430700Y-94703900D01*
X144363800Y-94792100D02*
X144379600Y-94773000D01*
X144305700Y-94855400D02*
X144363800Y-94792100D01*
X144241700Y-94913500D02*
X144305700Y-94855400D01*
X144162800Y-94973100D02*
X144241700Y-94913500D01*
X144068400Y-95030300D02*
X144162800Y-94973100D01*
X143979100Y-95072000D02*
X144068400Y-95030300D01*
X143700100Y-95170800D02*
X143979100Y-95072000D01*
X143609400Y-95207900D02*
X143700100Y-95170800D01*
X143475300Y-95270600D02*
X143609400Y-95207900D01*
X143388700Y-95316400D02*
X143475300Y-95270600D01*
X143261400Y-95392000D02*
X143388700Y-95316400D01*
X143179800Y-95446200D02*
X143261400Y-95392000D01*
X143060600Y-95534000D02*
X143179800Y-95446200D01*
X142984600Y-95595900D02*
X143060600Y-95534000D01*
X142874600Y-95695000D02*
X142984600Y-95595900D01*
X142805100Y-95764100D02*
X142874600Y-95695000D01*
X142705400Y-95873500D02*
X142805100Y-95764100D01*
X142643000Y-95949100D02*
X142705400Y-95873500D01*
X142554500Y-96067800D02*
X142643000Y-95949100D01*
X142499900Y-96149100D02*
X142554500Y-96067800D01*
X142423600Y-96275900D02*
X142499900Y-96149100D01*
X142377200Y-96362300D02*
X142423600Y-96275900D01*
X142313700Y-96496000D02*
X142377200Y-96362300D01*
X142276000Y-96586500D02*
X142313700Y-96496000D01*
X142226000Y-96725800D02*
X142276000Y-96586500D01*
X142197400Y-96819600D02*
X142226000Y-96725800D01*
X142161300Y-96963100D02*
X142197400Y-96819600D01*
X142142200Y-97059200D02*
X142161300Y-96963100D01*
X142120400Y-97205600D02*
X142142200Y-97059200D01*
X142110700Y-97303200D02*
X142120400Y-97205600D01*
X142103400Y-97451000D02*
X142110700Y-97303200D01*
X142103400Y-97549000D02*
X142103400Y-97451000D01*
X142110700Y-97696900D02*
X142103400Y-97549000D01*
X142120400Y-97794400D02*
X142110700Y-97696900D01*
X142142200Y-97940800D02*
X142120400Y-97794400D01*
X142161300Y-98036900D02*
X142142200Y-97940800D01*
X142197400Y-98180500D02*
X142161300Y-98036900D01*
X142226000Y-98274300D02*
X142197400Y-98180500D01*
X142276000Y-98413600D02*
X142226000Y-98274300D01*
X142313700Y-98504100D02*
X142276000Y-98413600D01*
X142377200Y-98637800D02*
X142313700Y-98504100D01*
X142423600Y-98724100D02*
X142377200Y-98637800D01*
X142499900Y-98850900D02*
X142423600Y-98724100D01*
X142554500Y-98932300D02*
X142499900Y-98850900D01*
X142643000Y-99051000D02*
X142554500Y-98932300D01*
X142705400Y-99126600D02*
X142643000Y-99051000D01*
X142805100Y-99236000D02*
X142705400Y-99126600D01*
X142874600Y-99305100D02*
X142805100Y-99236000D01*
X142984600Y-99404200D02*
X142874600Y-99305100D01*
X143060600Y-99466100D02*
X142984600Y-99404200D01*
X143179800Y-99553900D02*
X143060600Y-99466100D01*
X143261500Y-99608000D02*
X143179800Y-99553900D01*
X143388700Y-99683600D02*
X143261500Y-99608000D01*
X143475300Y-99729500D02*
X143388700Y-99683600D01*
X143609400Y-99792200D02*
X143475300Y-99729500D01*
X143700100Y-99829300D02*
X143609400Y-99792200D01*
X143967300Y-99923500D02*
X143700100Y-99829300D01*
X143990200Y-99932900D02*
X143967300Y-99923500D01*
X144068000Y-99969600D02*
X143990200Y-99932900D01*
X144142400Y-100013500D02*
X144068000Y-99969600D01*
X144163000Y-100027100D02*
X144142400Y-100013500D01*
X144232500Y-100078700D02*
X144163000Y-100027100D01*
X144305400Y-100144300D02*
X144232500Y-100078700D01*
X144363800Y-100208000D02*
X144305400Y-100144300D01*
X144379500Y-100227000D02*
X144363800Y-100208000D01*
X144437500Y-100306800D02*
X144379500Y-100227000D01*
X144481800Y-100381000D02*
X144437500Y-100306800D01*
X144523900Y-100469600D02*
X144481800Y-100381000D01*
X144557200Y-100562400D02*
X144523900Y-100469600D01*
X144578600Y-100646100D02*
X144557200Y-100562400D01*
X144583400Y-100670400D02*
X144578600Y-100646100D01*
X144595800Y-100755500D02*
X144583400Y-100670400D01*
X144600900Y-100854200D02*
X144595800Y-100755500D01*
X144600900Y-101750200D02*
X144600900Y-100854200D01*
X144577300Y-102194600D02*
X144600900Y-101750200D01*
X144507700Y-102634100D02*
X144577300Y-102194600D01*
X144392700Y-103063300D02*
X144507700Y-102634100D01*
X144233300Y-103478700D02*
X144392700Y-103063300D01*
X144031300Y-103875200D02*
X144233300Y-103478700D01*
X143796200Y-104237900D02*
X144031300Y-103875200D01*
X143780900Y-104258900D02*
X143796200Y-104237900D01*
X143509000Y-104594100D02*
X143780900Y-104258900D01*
X143194400Y-104908700D02*
X143509000Y-104594100D01*
X142848700Y-105188700D02*
X143194400Y-104908700D01*
X142475500Y-105431100D02*
X142848700Y-105188700D01*
X142079100Y-105633100D02*
X142475500Y-105431100D01*
X141663700Y-105792600D02*
X142079100Y-105633100D01*
X141234000Y-105907800D02*
X141663700Y-105792600D01*
X140794000Y-105977400D02*
X141234000Y-105907800D01*
X140343500Y-106001000D02*
X140794000Y-105977400D01*
X108291300Y-106001000D02*
X140343500Y-106001000D01*
X108194000Y-106005800D02*
X108291300Y-106001000D01*
X108097900Y-106020100D02*
X108194000Y-106005800D01*
X108003600Y-106043700D02*
X108097900Y-106020100D01*
X107912200Y-106076400D02*
X108003600Y-106043700D01*
X107824300Y-106117900D02*
X107912200Y-106076400D01*
X107741000Y-106167900D02*
X107824300Y-106117900D01*
X107663000Y-106225800D02*
X107741000Y-106167900D01*
X107591000Y-106291000D02*
X107663000Y-106225800D01*
X107525700Y-106363000D02*
X107591000Y-106291000D01*
X107467900Y-106441000D02*
X107525700Y-106363000D01*
X107417900Y-106524300D02*
X107467900Y-106441000D01*
X107376400Y-106612200D02*
X107417900Y-106524300D01*
X107343700Y-106703600D02*
X107376400Y-106612200D01*
X107320000Y-106797900D02*
X107343700Y-106703600D01*
X107305800Y-106894000D02*
X107320000Y-106797900D01*
X107301000Y-106991300D02*
X107305800Y-106894000D01*
X107301000Y-107508800D02*
X107301000Y-106991300D01*
X107305800Y-107606100D02*
X107301000Y-107508800D01*
X107320000Y-107702200D02*
X107305800Y-107606100D01*
X107343700Y-107796500D02*
X107320000Y-107702200D01*
X107376400Y-107887900D02*
X107343700Y-107796500D01*
X107417900Y-107975800D02*
X107376400Y-107887900D01*
X107467900Y-108059100D02*
X107417900Y-107975800D01*
X107525700Y-108137100D02*
X107467900Y-108059100D01*
X107591000Y-108209100D02*
X107525700Y-108137100D01*
X107663000Y-108274400D02*
X107591000Y-108209100D01*
X107741000Y-108332200D02*
X107663000Y-108274400D01*
X107824300Y-108382200D02*
X107741000Y-108332200D01*
X107912200Y-108423700D02*
X107824300Y-108382200D01*
X108003600Y-108456400D02*
X107912200Y-108423700D01*
X108097900Y-108480000D02*
X108003600Y-108456400D01*
X108194000Y-108494300D02*
X108097900Y-108480000D01*
X108291300Y-108499100D02*
X108194000Y-108494300D01*
X140343500Y-108499100D02*
X108291300Y-108499100D01*
X140794100Y-108522700D02*
X140343500Y-108499100D01*
X141220800Y-108589900D02*
X140794100Y-108522700D01*
X141246500Y-108595300D02*
X141220800Y-108589900D01*
X141650900Y-108703700D02*
X141246500Y-108595300D01*
X141675700Y-108711700D02*
X141650900Y-108703700D01*
X142066700Y-108861800D02*
X141675700Y-108711700D01*
X142090700Y-108872500D02*
X142066700Y-108861800D01*
X142475100Y-109068800D02*
X142090700Y-108872500D01*
X142837600Y-109303700D02*
X142475100Y-109068800D01*
X142858900Y-109319200D02*
X142837600Y-109303700D01*
X143194100Y-109591000D02*
X142858900Y-109319200D01*
X143509000Y-109906000D02*
X143194100Y-109591000D01*
X143780800Y-110241100D02*
X143509000Y-109906000D01*
X143796300Y-110262400D02*
X143780800Y-110241100D01*
X144031100Y-110624500D02*
X143796300Y-110262400D01*
X144227500Y-111009300D02*
X144031100Y-110624500D01*
X144238200Y-111033300D02*
X144227500Y-111009300D01*
X144392500Y-111436300D02*
X144238200Y-111033300D01*
X144507700Y-111866100D02*
X144392500Y-111436300D01*
X144577400Y-112306000D02*
X144507700Y-111866100D01*
X144601000Y-112756600D02*
X144577400Y-112306000D01*
X144601000Y-113639800D02*
X144601000Y-112756600D01*
X144596700Y-113732300D02*
X144601000Y-113639800D01*
X144581400Y-113841700D02*
X144596700Y-113732300D01*
X144560600Y-113925600D02*
X144581400Y-113841700D01*
X144553400Y-113949200D02*
X144560600Y-113925600D01*
X144518900Y-114041500D02*
X144553400Y-113949200D01*
X144481800Y-114119100D02*
X144518900Y-114041500D01*
X144437500Y-114193300D02*
X144481800Y-114119100D01*
X144379400Y-114273200D02*
X144437500Y-114193300D01*
X144363800Y-114292100D02*
X144379400Y-114273200D01*
X144305300Y-114355800D02*
X144363800Y-114292100D01*
X144241700Y-114413500D02*
X144305300Y-114355800D01*
X144222500Y-114429200D02*
X144241700Y-114413500D01*
X144152700Y-114480200D02*
X144222500Y-114429200D01*
X144079000Y-114524300D02*
X144152700Y-114480200D01*
X144057100Y-114535900D02*
X144079000Y-114524300D01*
X143978600Y-114572300D02*
X144057100Y-114535900D01*
X143700100Y-114670800D02*
X143978600Y-114572300D01*
X143609400Y-114707900D02*
X143700100Y-114670800D01*
X143475300Y-114770600D02*
X143609400Y-114707900D01*
X143388700Y-114816500D02*
X143475300Y-114770600D01*
X143261400Y-114892100D02*
X143388700Y-114816500D01*
X143179800Y-114946200D02*
X143261400Y-114892100D01*
X143060600Y-115034000D02*
X143179800Y-114946200D01*
X142984600Y-115095900D02*
X143060600Y-115034000D01*
X142874600Y-115195000D02*
X142984600Y-115095900D01*
X142805100Y-115264100D02*
X142874600Y-115195000D01*
X142705400Y-115373500D02*
X142805100Y-115264100D01*
X142643000Y-115449100D02*
X142705400Y-115373500D01*
X142554500Y-115567800D02*
X142643000Y-115449100D01*
X142499900Y-115649100D02*
X142554500Y-115567800D01*
X142423600Y-115776000D02*
X142499900Y-115649100D01*
X142377200Y-115862300D02*
X142423600Y-115776000D01*
X142313700Y-115996000D02*
X142377200Y-115862300D01*
X142276000Y-116086500D02*
X142313700Y-115996000D01*
X142226000Y-116225800D02*
X142276000Y-116086500D01*
X142197400Y-116319600D02*
X142226000Y-116225800D01*
X142161300Y-116463100D02*
X142197400Y-116319600D01*
X142142200Y-116559300D02*
X142161300Y-116463100D01*
X142120400Y-116705700D02*
X142142200Y-116559300D01*
X142110700Y-116803200D02*
X142120400Y-116705700D01*
X142103400Y-116951000D02*
X142110700Y-116803200D01*
X142103400Y-117049100D02*
X142103400Y-116951000D01*
X142110700Y-117196900D02*
X142103400Y-117049100D01*
X142120400Y-117294400D02*
X142110700Y-117196900D01*
X142142200Y-117440900D02*
X142120400Y-117294400D01*
X142161300Y-117537000D02*
X142142200Y-117440900D01*
X142197400Y-117680500D02*
X142161300Y-117537000D01*
X142226000Y-117774300D02*
X142197400Y-117680500D01*
X142276000Y-117913600D02*
X142226000Y-117774300D01*
X142313700Y-118004100D02*
X142276000Y-117913600D01*
X142377200Y-118137800D02*
X142313700Y-118004100D01*
X142423600Y-118224100D02*
X142377200Y-118137800D01*
X142499900Y-118351000D02*
X142423600Y-118224100D01*
X142554500Y-118432300D02*
X142499900Y-118351000D01*
X142643000Y-118551000D02*
X142554500Y-118432300D01*
X142705400Y-118626600D02*
X142643000Y-118551000D01*
X142805100Y-118736000D02*
X142705400Y-118626600D01*
X142874600Y-118805100D02*
X142805100Y-118736000D01*
X142984600Y-118904200D02*
X142874600Y-118805100D01*
X143060600Y-118966100D02*
X142984600Y-118904200D01*
X143179800Y-119053900D02*
X143060600Y-118966100D01*
X143261500Y-119108000D02*
X143179800Y-119053900D01*
X143388700Y-119183600D02*
X143261500Y-119108000D01*
X143475300Y-119229500D02*
X143388700Y-119183600D01*
X143609400Y-119292200D02*
X143475300Y-119229500D01*
X143700100Y-119329300D02*
X143609400Y-119292200D01*
X143979100Y-119428100D02*
X143700100Y-119329300D01*
X144068400Y-119469900D02*
X143979100Y-119428100D01*
X144162800Y-119527000D02*
X144068400Y-119469900D01*
X144232500Y-119578700D02*
X144162800Y-119527000D01*
X144296500Y-119636000D02*
X144232500Y-119578700D01*
X144314100Y-119653400D02*
X144296500Y-119636000D01*
X144379500Y-119727100D02*
X144314100Y-119653400D01*
X144430700Y-119796200D02*
X144379500Y-119727100D01*
X144475500Y-119870000D02*
X144430700Y-119796200D01*
X144487200Y-119891800D02*
X144475500Y-119870000D01*
X144523900Y-119969600D02*
X144487200Y-119891800D01*
X144557200Y-120062400D02*
X144523900Y-119969600D01*
X144581300Y-120158000D02*
X144557200Y-120062400D01*
X144595900Y-120256000D02*
X144581300Y-120158000D01*
X144601000Y-120360300D02*
X144595900Y-120256000D01*
X144601000Y-121243500D02*
X144601000Y-120360300D01*
X144577400Y-121694100D02*
X144601000Y-121243500D01*
X144510200Y-122120900D02*
X144577400Y-121694100D01*
X144504700Y-122146600D02*
X144510200Y-122120900D01*
X144396400Y-122551000D02*
X144504700Y-122146600D01*
X144388200Y-122576000D02*
X144396400Y-122551000D01*
X144233000Y-122979200D02*
X144388200Y-122576000D01*
X144031000Y-123375600D02*
X144233000Y-122979200D01*
X143789000Y-123748300D02*
X144031000Y-123375600D01*
X143509000Y-124094100D02*
X143789000Y-123748300D01*
X143194400Y-124408700D02*
X143509000Y-124094100D01*
X142858900Y-124680900D02*
X143194400Y-124408700D01*
X142837700Y-124696300D02*
X142858900Y-124680900D01*
X142486500Y-124924400D02*
X142837700Y-124696300D01*
X142463800Y-124937500D02*
X142486500Y-124924400D01*
X142078600Y-125133300D02*
X142463800Y-124937500D01*
X141663700Y-125292600D02*
X142078600Y-125133300D01*
X141234000Y-125407800D02*
X141663700Y-125292600D01*
X140807400Y-125475700D02*
X141234000Y-125407800D01*
X140781200Y-125478500D02*
X140807400Y-125475700D01*
X140343500Y-125501100D02*
X140781200Y-125478500D01*
X108291300Y-125501100D02*
X140343500Y-125501100D01*
X108194000Y-125505800D02*
X108291300Y-125501100D01*
X108097900Y-125520100D02*
X108194000Y-125505800D01*
X108003600Y-125543700D02*
X108097900Y-125520100D01*
X107912200Y-125576400D02*
X108003600Y-125543700D01*
X107824300Y-125618000D02*
X107912200Y-125576400D01*
X107741000Y-125667900D02*
X107824300Y-125618000D01*
X107663000Y-125725800D02*
X107741000Y-125667900D01*
X107591000Y-125791000D02*
X107663000Y-125725800D01*
X107525700Y-125863000D02*
X107591000Y-125791000D01*
X107467900Y-125941100D02*
X107525700Y-125863000D01*
X107417900Y-126024400D02*
X107467900Y-125941100D01*
X107376400Y-126112200D02*
X107417900Y-126024400D01*
X107343700Y-126203700D02*
X107376400Y-126112200D01*
X107320000Y-126297900D02*
X107343700Y-126203700D01*
X107305800Y-126394000D02*
X107320000Y-126297900D01*
X107301000Y-126491300D02*
X107305800Y-126394000D01*
X107301000Y-127009800D02*
X107301000Y-126491300D01*
X107305800Y-127107100D02*
X107301000Y-127009800D01*
X107320000Y-127203200D02*
X107305800Y-127107100D01*
X107343700Y-127297400D02*
X107320000Y-127203200D01*
X107376400Y-127388900D02*
X107343700Y-127297400D01*
X107417900Y-127476700D02*
X107376400Y-127388900D01*
X107467900Y-127560100D02*
X107417900Y-127476700D01*
X107525700Y-127638100D02*
X107467900Y-127560100D01*
X107591000Y-127710100D02*
X107525700Y-127638100D01*
X107663000Y-127775300D02*
X107591000Y-127710100D01*
X107741000Y-127833200D02*
X107663000Y-127775300D01*
X107824300Y-127883200D02*
X107741000Y-127833200D01*
X107912200Y-127924700D02*
X107824300Y-127883200D01*
X108003600Y-127957400D02*
X107912200Y-127924700D01*
X108097900Y-127981000D02*
X108003600Y-127957400D01*
X108194000Y-127995300D02*
X108097900Y-127981000D01*
X108291300Y-128000100D02*
X108194000Y-127995300D01*
X144591800Y-128000900D02*
X108291300Y-128000100D01*
X144597000Y-128003300D02*
X144591800Y-128000900D01*
X144599700Y-128007400D02*
X144597000Y-128003300D01*
X144601000Y-128024600D02*
X144599700Y-128007400D01*
X144601000Y-131976500D02*
X144601000Y-128024600D01*
X144600200Y-131991900D02*
X144601000Y-131976500D01*
X144597700Y-131997100D02*
X144600200Y-131991900D01*
X144591800Y-132000300D02*
X144597700Y-131997100D01*
X144576500Y-132001100D02*
X144591800Y-132000300D01*
X50023500Y-132001100D02*
X144576500Y-132001100D01*
X50008200Y-132000300D02*
X50023500Y-132001100D01*
X50003000Y-131997800D02*
X50008200Y-132000300D01*
X49999800Y-131991900D02*
X50003000Y-131997800D01*
X49999000Y-131976500D02*
X49999800Y-131991900D01*
X49999000Y-128024600D02*
X49999000Y-131976500D01*
X50000300Y-128007400D02*
X49999000Y-128024600D01*
X50003000Y-128003300D02*
X50000300Y-128007400D01*
X50008200Y-128000900D02*
X50003000Y-128003300D01*
X86308800Y-128000100D02*
X50008200Y-128000900D01*
X86406000Y-127995300D02*
X86308800Y-128000100D01*
X86502100Y-127981000D02*
X86406000Y-127995300D01*
X86596400Y-127957400D02*
X86502100Y-127981000D01*
X86687900Y-127924700D02*
X86596400Y-127957400D01*
X86775700Y-127883200D02*
X86687900Y-127924700D01*
X86859000Y-127833200D02*
X86775700Y-127883200D01*
X86937100Y-127775300D02*
X86859000Y-127833200D01*
X87009000Y-127710100D02*
X86937100Y-127775300D01*
X87074300Y-127638100D02*
X87009000Y-127710100D01*
X87132200Y-127560100D02*
X87074300Y-127638100D01*
X87182100Y-127476700D02*
X87132200Y-127560100D01*
X87223600Y-127388900D02*
X87182100Y-127476700D01*
X87256400Y-127297400D02*
X87223600Y-127388900D01*
X87280000Y-127203200D02*
X87256400Y-127297400D01*
X87294200Y-127107100D02*
X87280000Y-127203200D01*
X87299000Y-127009800D02*
X87294200Y-127107100D01*
X87299000Y-126491300D02*
X87299000Y-127009800D01*
X87294200Y-126394000D02*
X87299000Y-126491300D01*
X87280000Y-126297900D02*
X87294200Y-126394000D01*
X87256400Y-126203700D02*
X87280000Y-126297900D01*
X87223600Y-126112200D02*
X87256400Y-126203700D01*
X87182100Y-126024400D02*
X87223600Y-126112200D01*
X87132200Y-125941100D02*
X87182100Y-126024400D01*
X87074300Y-125863000D02*
X87132200Y-125941100D01*
X87009000Y-125791100D02*
X87074300Y-125863000D01*
X86937100Y-125725800D02*
X87009000Y-125791100D01*
X86859000Y-125667900D02*
X86937100Y-125725800D01*
X86775700Y-125618000D02*
X86859000Y-125667900D01*
X86687900Y-125576500D02*
X86775700Y-125618000D01*
X86596400Y-125543700D02*
X86687900Y-125576500D01*
X86502100Y-125520100D02*
X86596400Y-125543700D01*
X86406000Y-125505900D02*
X86502100Y-125520100D01*
X86308800Y-125501100D02*
X86406000Y-125505900D01*
X54256600Y-125501100D02*
X86308800Y-125501100D01*
X53818800Y-125478500D02*
X54256600Y-125501100D01*
X53792700Y-125475700D02*
X53818800Y-125478500D01*
X53366000Y-125407800D02*
X53792700Y-125475700D01*
X52936700Y-125292700D02*
X53366000Y-125407800D01*
X52521300Y-125133300D02*
X52936700Y-125292700D01*
X52136200Y-124937500D02*
X52521300Y-125133300D01*
X52113500Y-124924400D02*
X52136200Y-124937500D01*
X51762400Y-124696400D02*
X52113500Y-124924400D01*
X51741100Y-124680900D02*
X51762400Y-124696400D01*
X51405500Y-124408700D02*
X51741100Y-124680900D01*
X51091000Y-124094100D02*
X51405500Y-124408700D01*
X50811300Y-123748700D02*
X51091000Y-124094100D01*
X50568900Y-123375600D02*
X50811300Y-123748700D01*
X50366900Y-122979200D02*
X50568900Y-123375600D01*
X50211800Y-122576000D02*
X50366900Y-122979200D01*
X50203700Y-122551000D02*
X50211800Y-122576000D01*
X50095300Y-122146600D02*
X50203700Y-122551000D01*
X50089800Y-122120900D02*
X50095300Y-122146600D01*
X50022600Y-121694100D02*
X50089800Y-122120900D01*
X49999000Y-121243500D02*
X50022600Y-121694100D01*
X49999000Y-120360400D02*
X49999000Y-121243500D01*
X50004100Y-120255900D02*
X49999000Y-120360400D01*
X50018600Y-120158400D02*
X50004100Y-120255900D01*
X50042800Y-120062400D02*
X50018600Y-120158400D01*
X50076100Y-119969600D02*
X50042800Y-120062400D01*
X50112700Y-119891900D02*
X50076100Y-119969600D01*
X50124400Y-119870100D02*
X50112700Y-119891900D01*
X50176300Y-119786300D02*
X50124400Y-119870100D01*
X50227900Y-119717500D02*
X50176300Y-119786300D01*
X50285900Y-119653400D02*
X50227900Y-119717500D01*
X50303500Y-119636000D02*
X50285900Y-119653400D01*
X50367600Y-119578700D02*
X50303500Y-119636000D01*
X50437200Y-119527000D02*
X50367600Y-119578700D01*
X50531700Y-119469800D02*
X50437200Y-119527000D01*
X50620900Y-119428000D02*
X50531700Y-119469800D01*
X50899900Y-119329300D02*
X50620900Y-119428000D01*
X50990600Y-119292200D02*
X50899900Y-119329300D01*
X51124700Y-119229500D02*
X50990600Y-119292200D01*
X51211300Y-119183600D02*
X51124700Y-119229500D01*
X51338600Y-119108000D02*
X51211300Y-119183600D01*
X51420200Y-119053900D02*
X51338600Y-119108000D01*
X51539400Y-118966100D02*
X51420200Y-119053900D01*
X51615400Y-118904200D02*
X51539400Y-118966100D01*
X51725400Y-118805100D02*
X51615400Y-118904200D01*
X51794900Y-118736000D02*
X51725400Y-118805100D01*
X51894600Y-118626600D02*
X51794900Y-118736000D01*
X51957000Y-118551000D02*
X51894600Y-118626600D01*
X52045500Y-118432300D02*
X51957000Y-118551000D01*
X52100100Y-118351000D02*
X52045500Y-118432300D01*
X52176400Y-118224100D02*
X52100100Y-118351000D01*
X52222800Y-118137800D02*
X52176400Y-118224100D01*
X52286300Y-118004100D02*
X52222800Y-118137800D01*
X52324000Y-117913600D02*
X52286300Y-118004100D01*
X52374000Y-117774300D02*
X52324000Y-117913600D01*
X52402600Y-117680500D02*
X52374000Y-117774300D01*
X52438700Y-117537000D02*
X52402600Y-117680500D01*
X52457800Y-117440900D02*
X52438700Y-117537000D01*
X52479700Y-117294400D02*
X52457800Y-117440900D01*
X52489300Y-117196900D02*
X52479700Y-117294400D01*
X52496600Y-117049100D02*
X52489300Y-117196900D01*
X52496600Y-116951000D02*
X52496600Y-117049100D01*
X52489300Y-116803200D02*
X52496600Y-116951000D01*
X52479700Y-116705700D02*
X52489300Y-116803200D01*
X52457800Y-116559300D02*
X52479700Y-116705700D01*
X52438700Y-116463100D02*
X52457800Y-116559300D01*
X52402600Y-116319600D02*
X52438700Y-116463100D01*
X52374000Y-116225800D02*
X52402600Y-116319600D01*
X52324000Y-116086500D02*
X52374000Y-116225800D01*
X52286300Y-115996000D02*
X52324000Y-116086500D01*
X52222800Y-115862300D02*
X52286300Y-115996000D01*
X52176400Y-115776000D02*
X52222800Y-115862300D01*
X52100100Y-115649100D02*
X52176400Y-115776000D01*
X52045500Y-115567800D02*
X52100100Y-115649100D01*
X51957000Y-115449100D02*
X52045500Y-115567800D01*
X51894600Y-115373500D02*
X51957000Y-115449100D01*
X51794900Y-115264100D02*
X51894600Y-115373500D01*
X51725400Y-115195000D02*
X51794900Y-115264100D01*
X51615400Y-115095900D02*
X51725400Y-115195000D01*
X51539400Y-115034000D02*
X51615400Y-115095900D01*
X51420200Y-114946200D02*
X51539400Y-115034000D01*
X51338600Y-114892100D02*
X51420200Y-114946200D01*
X51211300Y-114816500D02*
X51338600Y-114892100D01*
X51124700Y-114770600D02*
X51211300Y-114816500D01*
X50990600Y-114707900D02*
X51124700Y-114770600D01*
X50899900Y-114670800D02*
X50990600Y-114707900D01*
X50621300Y-114572200D02*
X50899900Y-114670800D01*
X50542900Y-114535900D02*
X50621300Y-114572200D01*
X50521100Y-114524300D02*
X50542900Y-114535900D01*
X50447300Y-114480200D02*
X50521100Y-114524300D01*
X50377500Y-114429200D02*
X50447300Y-114480200D01*
X50358300Y-114413600D02*
X50377500Y-114429200D01*
X50294600Y-114355800D02*
X50358300Y-114413600D01*
X50236200Y-114292100D02*
X50294600Y-114355800D01*
X50220600Y-114273200D02*
X50236200Y-114292100D01*
X50162500Y-114193300D02*
X50220600Y-114273200D01*
X50118400Y-114119500D02*
X50162500Y-114193300D01*
X50081100Y-114041600D02*
X50118400Y-114119500D01*
X50071600Y-114018700D02*
X50081100Y-114041600D01*
X50039400Y-113925600D02*
X50071600Y-114018700D01*
X50018600Y-113841600D02*
X50039400Y-113925600D01*
X50003300Y-113732300D02*
X50018600Y-113841600D01*
X49999000Y-113639800D02*
X50003300Y-113732300D01*
X49999000Y-112756700D02*
X49999000Y-113639800D01*
X50022600Y-112306000D02*
X49999000Y-112756700D01*
X50092300Y-111866000D02*
X50022600Y-112306000D01*
X50203600Y-111449100D02*
X50092300Y-111866000D01*
X50211800Y-111424200D02*
X50203600Y-111449100D01*
X50366700Y-111021400D02*
X50211800Y-111424200D01*
X50562500Y-110636300D02*
X50366700Y-111021400D01*
X50575700Y-110613500D02*
X50562500Y-110636300D01*
X50811000Y-110251800D02*
X50575700Y-110613500D01*
X51091000Y-109906000D02*
X50811000Y-110251800D01*
X51406000Y-109591000D02*
X51091000Y-109906000D01*
X51741100Y-109319200D02*
X51406000Y-109591000D01*
X51762300Y-109303800D02*
X51741100Y-109319200D01*
X52124500Y-109069000D02*
X51762300Y-109303800D01*
X52509200Y-108872500D02*
X52124500Y-109069000D01*
X52533200Y-108861900D02*
X52509200Y-108872500D01*
X52924300Y-108711700D02*
X52533200Y-108861900D01*
X52949100Y-108703700D02*
X52924300Y-108711700D01*
X53353400Y-108595400D02*
X52949100Y-108703700D01*
X53379100Y-108589900D02*
X53353400Y-108595400D01*
X53806000Y-108522700D02*
X53379100Y-108589900D01*
X54256500Y-108499100D02*
X53806000Y-108522700D01*
X86308800Y-108499100D02*
X54256500Y-108499100D01*
X86406000Y-108494300D02*
X86308800Y-108499100D01*
X86502100Y-108480000D02*
X86406000Y-108494300D01*
X86596400Y-108456400D02*
X86502100Y-108480000D01*
X86687900Y-108423700D02*
X86596400Y-108456400D01*
X86775700Y-108382200D02*
X86687900Y-108423700D01*
X86859000Y-108332200D02*
X86775700Y-108382200D01*
X86937100Y-108274300D02*
X86859000Y-108332200D01*
X87009000Y-108209100D02*
X86937100Y-108274300D01*
X87074300Y-108137100D02*
X87009000Y-108209100D01*
X87132200Y-108059100D02*
X87074300Y-108137100D01*
X87182100Y-107975700D02*
X87132200Y-108059100D01*
X87223600Y-107887900D02*
X87182100Y-107975700D01*
X87256400Y-107796400D02*
X87223600Y-107887900D01*
X87280000Y-107702200D02*
X87256400Y-107796400D01*
X87294200Y-107606100D02*
X87280000Y-107702200D01*
X87299000Y-107508800D02*
X87294200Y-107606100D01*
X87299000Y-106991300D02*
X87299000Y-107508800D01*
X87294200Y-106894000D02*
X87299000Y-106991300D01*
X87280000Y-106797900D02*
X87294200Y-106894000D01*
X87256400Y-106703600D02*
X87280000Y-106797900D01*
X87223600Y-106612200D02*
X87256400Y-106703600D01*
X87182100Y-106524300D02*
X87223600Y-106612200D01*
X87132200Y-106441000D02*
X87182100Y-106524300D01*
X87074300Y-106363000D02*
X87132200Y-106441000D01*
X87009000Y-106291000D02*
X87074300Y-106363000D01*
X86937100Y-106225700D02*
X87009000Y-106291000D01*
X86859000Y-106167900D02*
X86937100Y-106225700D01*
X86775700Y-106117900D02*
X86859000Y-106167900D01*
X86687900Y-106076400D02*
X86775700Y-106117900D01*
X86596400Y-106043700D02*
X86687900Y-106076400D01*
X86502100Y-106020000D02*
X86596400Y-106043700D01*
X86406000Y-106005800D02*
X86502100Y-106020000D01*
X86308800Y-106001000D02*
X86406000Y-106005800D01*
X54256500Y-106001000D02*
X86308800Y-106001000D01*
X53805900Y-105977400D02*
X54256500Y-106001000D01*
X53366500Y-105907900D02*
X53805900Y-105977400D01*
X52936700Y-105792700D02*
X53366500Y-105907900D01*
X52521300Y-105633300D02*
X52936700Y-105792700D01*
X52124400Y-105431100D02*
X52521300Y-105633300D01*
X51751300Y-105188700D02*
X52124400Y-105431100D01*
X51405500Y-104908700D02*
X51751300Y-105188700D01*
X51091000Y-104594100D02*
X51405500Y-104908700D01*
X50819200Y-104258900D02*
X51091000Y-104594100D01*
X50803900Y-104237900D02*
X50819200Y-104258900D01*
X50568700Y-103875100D02*
X50803900Y-104237900D01*
X50366700Y-103478700D02*
X50568700Y-103875100D01*
X50207500Y-103063800D02*
X50366700Y-103478700D01*
X50092300Y-102634000D02*
X50207500Y-103063800D01*
X50022700Y-102194600D02*
X50092300Y-102634000D01*
X49999100Y-101750200D02*
X50022700Y-102194600D01*
X49999100Y-100854200D02*
X49999100Y-101750200D01*
X50004200Y-100755400D02*
X49999100Y-100854200D01*
X50016600Y-100670400D02*
X50004200Y-100755400D01*
X50021400Y-100646100D02*
X50016600Y-100670400D01*
X50042800Y-100562300D02*
X50021400Y-100646100D01*
X50076000Y-100470000D02*
X50042800Y-100562300D01*
X50118200Y-100381000D02*
X50076000Y-100470000D01*
X50162500Y-100306800D02*
X50118200Y-100381000D01*
X50176300Y-100286300D02*
X50162500Y-100306800D01*
X50236200Y-100208000D02*
X50176300Y-100286300D01*
X50294700Y-100144300D02*
X50236200Y-100208000D01*
X50367600Y-100078600D02*
X50294700Y-100144300D01*
X50437000Y-100027100D02*
X50367600Y-100078600D01*
X50457600Y-100013500D02*
X50437000Y-100027100D01*
X50531700Y-99969800D02*
X50457600Y-100013500D01*
X50609800Y-99932900D02*
X50531700Y-99969800D01*
X50632700Y-99923500D02*
X50609800Y-99932900D01*
X50899900Y-99829300D02*
X50632700Y-99923500D01*
X50990600Y-99792200D02*
X50899900Y-99829300D01*
X51124700Y-99729500D02*
X50990600Y-99792200D01*
X51211300Y-99683600D02*
X51124700Y-99729500D01*
X51338600Y-99608000D02*
X51211300Y-99683600D01*
X51420200Y-99553900D02*
X51338600Y-99608000D01*
X51539400Y-99466100D02*
X51420200Y-99553900D01*
X51615400Y-99404200D02*
X51539400Y-99466100D01*
X51725400Y-99305100D02*
X51615400Y-99404200D01*
X51794900Y-99236000D02*
X51725400Y-99305100D01*
X51894600Y-99126600D02*
X51794900Y-99236000D01*
X51957000Y-99051000D02*
X51894600Y-99126600D01*
X52045500Y-98932300D02*
X51957000Y-99051000D01*
X52100100Y-98850900D02*
X52045500Y-98932300D01*
X52176400Y-98724100D02*
X52100100Y-98850900D01*
X52222800Y-98637800D02*
X52176400Y-98724100D01*
X52286300Y-98504100D02*
X52222800Y-98637800D01*
X52324000Y-98413600D02*
X52286300Y-98504100D01*
X52374000Y-98274300D02*
X52324000Y-98413600D01*
X52402600Y-98180500D02*
X52374000Y-98274300D01*
X52438700Y-98036900D02*
X52402600Y-98180500D01*
X52457800Y-97940800D02*
X52438700Y-98036900D01*
X52479700Y-97794400D02*
X52457800Y-97940800D01*
X52489300Y-97696900D02*
X52479700Y-97794400D01*
X52496600Y-97549000D02*
X52489300Y-97696900D01*
X52496600Y-97451000D02*
X52496600Y-97549000D01*
X52489300Y-97303200D02*
X52496600Y-97451000D01*
X52479700Y-97205600D02*
X52489300Y-97303200D01*
X52457800Y-97059200D02*
X52479700Y-97205600D01*
X52438700Y-96963100D02*
X52457800Y-97059200D01*
X52402600Y-96819600D02*
X52438700Y-96963100D01*
X52374000Y-96725800D02*
X52402600Y-96819600D01*
X52324000Y-96586500D02*
X52374000Y-96725800D01*
X52286300Y-96496000D02*
X52324000Y-96586500D01*
X52222800Y-96362300D02*
X52286300Y-96496000D01*
X52176400Y-96275900D02*
X52222800Y-96362300D01*
X52100100Y-96149100D02*
X52176400Y-96275900D01*
X52045500Y-96067800D02*
X52100100Y-96149100D01*
X51957000Y-95949100D02*
X52045500Y-96067800D01*
X51894600Y-95873500D02*
X51957000Y-95949100D01*
X51794900Y-95764100D02*
X51894600Y-95873500D01*
X51725400Y-95695000D02*
X51794900Y-95764100D01*
X51615400Y-95595900D02*
X51725400Y-95695000D01*
X51539400Y-95534000D02*
X51615400Y-95595900D01*
X51420200Y-95446200D02*
X51539400Y-95534000D01*
X51338600Y-95392000D02*
X51420200Y-95446200D01*
X51211300Y-95316400D02*
X51338600Y-95392000D01*
X51124700Y-95270600D02*
X51211300Y-95316400D01*
X50990600Y-95207900D02*
X51124700Y-95270600D01*
X50899900Y-95170800D02*
X50990600Y-95207900D01*
X50620900Y-95072000D02*
X50899900Y-95170800D01*
X50531600Y-95030200D02*
X50620900Y-95072000D01*
X50437200Y-94973100D02*
X50531600Y-95030200D01*
X50358300Y-94913500D02*
X50437200Y-94973100D01*
X50294600Y-94855800D02*
X50358300Y-94913500D01*
X50236200Y-94792100D02*
X50294600Y-94855800D01*
X50220500Y-94773000D02*
X50236200Y-94792100D01*
X50169300Y-94703900D02*
X50220500Y-94773000D01*
X50118400Y-94619500D02*
X50169300Y-94703900D01*
X50076100Y-94530400D02*
X50118400Y-94619500D01*
X50042600Y-94437200D02*
X50076100Y-94530400D01*
X50018600Y-94341600D02*
X50042600Y-94437200D01*
X50005700Y-94256700D02*
X50018600Y-94341600D01*
X50003200Y-94232100D02*
X50005700Y-94256700D01*
X49999000Y-94139800D02*
X50003200Y-94232100D01*
X49999100Y-93250100D02*
X49999000Y-94139800D01*
X50022700Y-92805400D02*
X49999100Y-93250100D01*
X50089800Y-92379200D02*
X50022700Y-92805400D01*
X50095300Y-92353500D02*
X50089800Y-92379200D01*
X50207300Y-91936700D02*
X50095300Y-92353500D01*
X50361800Y-91533300D02*
X50207300Y-91936700D01*
X50372500Y-91509300D02*
X50361800Y-91533300D01*
X50568700Y-91124900D02*
X50372500Y-91509300D01*
X50811300Y-90751300D02*
X50568700Y-91124900D01*
X51082600Y-90415800D02*
X50811300Y-90751300D01*
X51100200Y-90396300D02*
X51082600Y-90415800D01*
X51405600Y-90091300D02*
X51100200Y-90396300D01*
X51741100Y-89819200D02*
X51405600Y-90091300D01*
X51762300Y-89803700D02*
X51741100Y-89819200D01*
X52124500Y-89569000D02*
X51762300Y-89803700D01*
X52521400Y-89366800D02*
X52124500Y-89569000D01*
X52936800Y-89207300D02*
X52521400Y-89366800D01*
X53366500Y-89092200D02*
X52936800Y-89207300D01*
X53806000Y-89022600D02*
X53366500Y-89092200D01*
X54256400Y-88999000D02*
X53806000Y-89022600D01*
X86308800Y-88999000D02*
X54256400Y-88999000D01*
X86406000Y-88994200D02*
X86308800Y-88999000D01*
X86502100Y-88980000D02*
X86406000Y-88994200D01*
X86596400Y-88956400D02*
X86502100Y-88980000D01*
X86687900Y-88923700D02*
X86596400Y-88956400D01*
X86775700Y-88882100D02*
X86687900Y-88923700D01*
X86859000Y-88832200D02*
X86775700Y-88882100D01*
X86937100Y-88774300D02*
X86859000Y-88832200D01*
X87009000Y-88709000D02*
X86937100Y-88774300D01*
X87074300Y-88637100D02*
X87009000Y-88709000D01*
X87132200Y-88559000D02*
X87074300Y-88637100D01*
X87182100Y-88475700D02*
X87132200Y-88559000D01*
X87223600Y-88387900D02*
X87182100Y-88475700D01*
X87256400Y-88296400D02*
X87223600Y-88387900D01*
X87280000Y-88202200D02*
X87256400Y-88296400D01*
X87294200Y-88106100D02*
X87280000Y-88202200D01*
X87299000Y-88008800D02*
X87294200Y-88106100D01*
X87299000Y-87491300D02*
X87299000Y-88008800D01*
X87294200Y-87394000D02*
X87299000Y-87491300D01*
X87280000Y-87297900D02*
X87294200Y-87394000D01*
X87256400Y-87203600D02*
X87280000Y-87297900D01*
X87223600Y-87112200D02*
X87256400Y-87203600D01*
X87182100Y-87024300D02*
X87223600Y-87112200D01*
X87132200Y-86941000D02*
X87182100Y-87024300D01*
X87074300Y-86863000D02*
X87132200Y-86941000D01*
X87009000Y-86791000D02*
X87074300Y-86863000D01*
X86937100Y-86725700D02*
X87009000Y-86791000D01*
X86859000Y-86667900D02*
X86937100Y-86725700D01*
X86775700Y-86617900D02*
X86859000Y-86667900D01*
X86687900Y-86576400D02*
X86775700Y-86617900D01*
X86596400Y-86543600D02*
X86687900Y-86576400D01*
X86502100Y-86520000D02*
X86596400Y-86543600D01*
X86406000Y-86505800D02*
X86502100Y-86520000D01*
X86308800Y-86501000D02*
X86406000Y-86505800D01*
X54256400Y-86501000D02*
X86308800Y-86501000D01*
X53805900Y-86477400D02*
X54256400Y-86501000D01*
X53366000Y-86407700D02*
X53805900Y-86477400D01*
X52936200Y-86292500D02*
X53366000Y-86407700D01*
X52533300Y-86138200D02*
X52936200Y-86292500D01*
X52509500Y-86127600D02*
X52533300Y-86138200D01*
X52136200Y-85937500D02*
X52509500Y-86127600D01*
X52113500Y-85924300D02*
X52136200Y-85937500D01*
X51751700Y-85689000D02*
X52113500Y-85924300D01*
X51415800Y-85417400D02*
X51751700Y-85689000D01*
X51396200Y-85399800D02*
X51415800Y-85417400D01*
X51091300Y-85094400D02*
X51396200Y-85399800D01*
X50811000Y-84748300D02*
X51091300Y-85094400D01*
X50575700Y-84386600D02*
X50811000Y-84748300D01*
X50562600Y-84363800D02*
X50575700Y-84386600D01*
X50366900Y-83979100D02*
X50562600Y-84363800D01*
X50211800Y-83575900D02*
X50366900Y-83979100D01*
X50203700Y-83551000D02*
X50211800Y-83575900D01*
X50092300Y-83134000D02*
X50203700Y-83551000D01*
X50024300Y-82707400D02*
X50092300Y-83134000D01*
X50021600Y-82681500D02*
X50024300Y-82707400D01*
X49999000Y-82243600D02*
X50021600Y-82681500D01*
X49999000Y-81360300D02*
X49999000Y-82243600D01*
X50003200Y-81268000D02*
X49999000Y-81360300D01*
X50005700Y-81243400D02*
X50003200Y-81268000D01*
X50018600Y-81158400D02*
X50005700Y-81243400D01*
X50042700Y-81062800D02*
X50018600Y-81158400D01*
X50076000Y-80970000D02*
X50042700Y-81062800D01*
X50118500Y-80880500D02*
X50076000Y-80970000D01*
X50162500Y-80806800D02*
X50118500Y-80880500D01*
X50176300Y-80786200D02*
X50162500Y-80806800D01*
X50227900Y-80717500D02*
X50176300Y-80786200D01*
X50285900Y-80653400D02*
X50227900Y-80717500D01*
X50303500Y-80636000D02*
X50285900Y-80653400D01*
X50367600Y-80578600D02*
X50303500Y-80636000D01*
X50446900Y-80520200D02*
X50367600Y-80578600D01*
X50531700Y-80469800D02*
X50446900Y-80520200D01*
X50610000Y-80432800D02*
X50531700Y-80469800D01*
X50632700Y-80423500D02*
X50610000Y-80432800D01*
X50899900Y-80329300D02*
X50632700Y-80423500D01*
X50990600Y-80292200D02*
X50899900Y-80329300D01*
X51124700Y-80229500D02*
X50990600Y-80292200D01*
X51211300Y-80183600D02*
X51124700Y-80229500D01*
X51338600Y-80108000D02*
X51211300Y-80183600D01*
X51420200Y-80053900D02*
X51338600Y-80108000D01*
X51539400Y-79966100D02*
X51420200Y-80053900D01*
X51615400Y-79904200D02*
X51539400Y-79966100D01*
X51725400Y-79805100D02*
X51615400Y-79904200D01*
X51794900Y-79736000D02*
X51725400Y-79805100D01*
X51894600Y-79626600D02*
X51794900Y-79736000D01*
X51957000Y-79551000D02*
X51894600Y-79626600D01*
X52045500Y-79432300D02*
X51957000Y-79551000D01*
X52100100Y-79350900D02*
X52045500Y-79432300D01*
X52176400Y-79224100D02*
X52100100Y-79350900D01*
X52222800Y-79137800D02*
X52176400Y-79224100D01*
X52286300Y-79004100D02*
X52222800Y-79137800D01*
X52324000Y-78913600D02*
X52286300Y-79004100D01*
X52374000Y-78774200D02*
X52324000Y-78913600D01*
X52402600Y-78680500D02*
X52374000Y-78774200D01*
X52438700Y-78536900D02*
X52402600Y-78680500D01*
X52457800Y-78440800D02*
X52438700Y-78536900D01*
X52479700Y-78294400D02*
X52457800Y-78440800D01*
X52489300Y-78196900D02*
X52479700Y-78294400D01*
X52496600Y-78049000D02*
X52489300Y-78196900D01*
X52496600Y-77951000D02*
X52496600Y-78049000D01*
X52489300Y-77803200D02*
X52496600Y-77951000D01*
X52479700Y-77705600D02*
X52489300Y-77803200D01*
X52457800Y-77559200D02*
X52479700Y-77705600D01*
X52438700Y-77463100D02*
X52457800Y-77559200D01*
X52402600Y-77319500D02*
X52438700Y-77463100D01*
X52374000Y-77225800D02*
X52402600Y-77319500D01*
X52324000Y-77086500D02*
X52374000Y-77225800D01*
X52286300Y-76996000D02*
X52324000Y-77086500D01*
X52222800Y-76862300D02*
X52286300Y-76996000D01*
X52176400Y-76775900D02*
X52222800Y-76862300D01*
X52100100Y-76649100D02*
X52176400Y-76775900D01*
X52045500Y-76567700D02*
X52100100Y-76649100D01*
X51957000Y-76449000D02*
X52045500Y-76567700D01*
X51894600Y-76373400D02*
X51957000Y-76449000D01*
X51794900Y-76264000D02*
X51894600Y-76373400D01*
X51725400Y-76194900D02*
X51794900Y-76264000D01*
X51615400Y-76095900D02*
X51725400Y-76194900D01*
X51539400Y-76033900D02*
X51615400Y-76095900D01*
X51420200Y-75946200D02*
X51539400Y-76033900D01*
X51338600Y-75892000D02*
X51420200Y-75946200D01*
X51211300Y-75816400D02*
X51338600Y-75892000D01*
X51124700Y-75770600D02*
X51211300Y-75816400D01*
X50990600Y-75707800D02*
X51124700Y-75770600D01*
X50899900Y-75670700D02*
X50990600Y-75707800D01*
X50621300Y-75572200D02*
X50899900Y-75670700D01*
X50532000Y-75530400D02*
X50621300Y-75572200D01*
X50446900Y-75479800D02*
X50532000Y-75530400D01*
X50377500Y-75429100D02*
X50446900Y-75479800D01*
X50358300Y-75413500D02*
X50377500Y-75429100D01*
X50294300Y-75355400D02*
X50358300Y-75413500D01*
X50227900Y-75282500D02*
X50294300Y-75355400D01*
X50169300Y-75203900D02*
X50227900Y-75282500D01*
X50118400Y-75119500D02*
X50169300Y-75203900D01*
X50076100Y-75030400D02*
X50118400Y-75119500D01*
X50042800Y-74937700D02*
X50076100Y-75030400D01*
X50018700Y-74842100D02*
X50042800Y-74937700D01*
X50005700Y-74756700D02*
X50018700Y-74842100D01*
X50003200Y-74732000D02*
X50005700Y-74756700D01*
X49999000Y-74639900D02*
X50003200Y-74732000D01*
X49999000Y-73756400D02*
X49999000Y-74639900D01*
X50022600Y-73305900D02*
X49999000Y-73756400D01*
X50092200Y-72866500D02*
X50022600Y-73305900D01*
X50207500Y-72436200D02*
X50092200Y-72866500D01*
X50367000Y-72020900D02*
X50207500Y-72436200D01*
X50562500Y-71636300D02*
X50367000Y-72020900D01*
X50575700Y-71613500D02*
X50562500Y-71636300D01*
X50803700Y-71262400D02*
X50575700Y-71613500D01*
X50819100Y-71241100D02*
X50803700Y-71262400D01*
X51091000Y-70906000D02*
X50819100Y-71241100D01*
X51396200Y-70600200D02*
X51091000Y-70906000D01*
X51415700Y-70582600D02*
X51396200Y-70600200D01*
X51741100Y-70319200D02*
X51415700Y-70582600D01*
X51762300Y-70303700D02*
X51741100Y-70319200D01*
X52124900Y-70068700D02*
X51762300Y-70303700D01*
X52509200Y-69872500D02*
X52124900Y-70068700D01*
X52533200Y-69861800D02*
X52509200Y-69872500D01*
X52936800Y-69707300D02*
X52533200Y-69861800D01*
X53366500Y-69592200D02*
X52936800Y-69707300D01*
X53805500Y-69522700D02*
X53366500Y-69592200D01*
X54249900Y-69499100D02*
X53805500Y-69522700D01*
X86308800Y-69499000D02*
X54249900Y-69499100D01*
X86406000Y-69494200D02*
X86308800Y-69499000D01*
X86502100Y-69480000D02*
X86406000Y-69494200D01*
X86596400Y-69456400D02*
X86502100Y-69480000D01*
X86687900Y-69423600D02*
X86596400Y-69456400D01*
X86775700Y-69382100D02*
X86687900Y-69423600D01*
X86859000Y-69332200D02*
X86775700Y-69382100D01*
X86937100Y-69274300D02*
X86859000Y-69332200D01*
X87009000Y-69209000D02*
X86937100Y-69274300D01*
X87074300Y-69137100D02*
X87009000Y-69209000D01*
X87132200Y-69059000D02*
X87074300Y-69137100D01*
X87182100Y-68975700D02*
X87132200Y-69059000D01*
X87223600Y-68887900D02*
X87182100Y-68975700D01*
X87256400Y-68796400D02*
X87223600Y-68887900D01*
X87280000Y-68702100D02*
X87256400Y-68796400D01*
X87294200Y-68606000D02*
X87280000Y-68702100D01*
X87299000Y-68508800D02*
X87294200Y-68606000D01*
X87299000Y-67991200D02*
X87299000Y-68508800D01*
X87294200Y-67894000D02*
X87299000Y-67991200D01*
X87280000Y-67797900D02*
X87294200Y-67894000D01*
X87256400Y-67703600D02*
X87280000Y-67797900D01*
X87223600Y-67612100D02*
X87256400Y-67703600D01*
X87182100Y-67524300D02*
X87223600Y-67612100D01*
X87132200Y-67441000D02*
X87182100Y-67524300D01*
X87074300Y-67363000D02*
X87132200Y-67441000D01*
X87009000Y-67291000D02*
X87074300Y-67363000D01*
X86937100Y-67225700D02*
X87009000Y-67291000D01*
X86859000Y-67167900D02*
X86937100Y-67225700D01*
X86775700Y-67117900D02*
X86859000Y-67167900D01*
X86687900Y-67076400D02*
X86775700Y-67117900D01*
X86596400Y-67043600D02*
X86687900Y-67076400D01*
X86502100Y-67020000D02*
X86596400Y-67043600D01*
X86406000Y-67005800D02*
X86502100Y-67020000D01*
X86308800Y-67001000D02*
X86406000Y-67005800D01*
X54256400Y-67001000D02*
X86308800Y-67001000D01*
X53805900Y-66977400D02*
X54256400Y-67001000D01*
X53366500Y-66907800D02*
X53805900Y-66977400D01*
X52936700Y-66792700D02*
X53366500Y-66907800D01*
X52521300Y-66633300D02*
X52936700Y-66792700D01*
X52124400Y-66431000D02*
X52521300Y-66633300D01*
X51762400Y-66196300D02*
X52124400Y-66431000D01*
X51741100Y-66180900D02*
X51762400Y-66196300D01*
X51405900Y-65909000D02*
X51741100Y-66180900D01*
X51100200Y-65603800D02*
X51405900Y-65909000D01*
X51082600Y-65584300D02*
X51100200Y-65603800D01*
X50811300Y-65248700D02*
X51082600Y-65584300D01*
X50568700Y-64875100D02*
X50811300Y-65248700D01*
X50372500Y-64490800D02*
X50568700Y-64875100D01*
X50361800Y-64466800D02*
X50372500Y-64490800D01*
X50211800Y-64075900D02*
X50361800Y-64466800D01*
X50203700Y-64050900D02*
X50211800Y-64075900D01*
X50092300Y-63634000D02*
X50203700Y-64050900D01*
X50024300Y-63207400D02*
X50092300Y-63634000D01*
X50021600Y-63181200D02*
X50024300Y-63207400D01*
X49999100Y-62749900D02*
X50021600Y-63181200D01*
X49999000Y-61860300D02*
X49999100Y-62749900D01*
X50003200Y-61768000D02*
X49999000Y-61860300D01*
X50005700Y-61743400D02*
X50003200Y-61768000D01*
X50018600Y-61658400D02*
X50005700Y-61743400D01*
X50042700Y-61562800D02*
X50018600Y-61658400D01*
X50076000Y-61470000D02*
X50042700Y-61562800D01*
X50118200Y-61381000D02*
X50076000Y-61470000D01*
X50169300Y-61296100D02*
X50118200Y-61381000D01*
X50220400Y-61227000D02*
X50169300Y-61296100D01*
X50236200Y-61207900D02*
X50220400Y-61227000D01*
X50294300Y-61144600D02*
X50236200Y-61207900D01*
X50358300Y-61086500D02*
X50294300Y-61144600D01*
X50437200Y-61027000D02*
X50358300Y-61086500D01*
X50531700Y-60969800D02*
X50437200Y-61027000D01*
X50620900Y-60928000D02*
X50531700Y-60969800D01*
X50899900Y-60829300D02*
X50620900Y-60928000D01*
X50990600Y-60792200D02*
X50899900Y-60829300D01*
X51124700Y-60729500D02*
X50990600Y-60792200D01*
X51211300Y-60683600D02*
X51124700Y-60729500D01*
X51338600Y-60608000D02*
X51211300Y-60683600D01*
X51420200Y-60553800D02*
X51338600Y-60608000D01*
X51539400Y-60466100D02*
X51420200Y-60553800D01*
X51615400Y-60404100D02*
X51539400Y-60466100D01*
X51725400Y-60305100D02*
X51615400Y-60404100D01*
X51794900Y-60236000D02*
X51725400Y-60305100D01*
X51894600Y-60126600D02*
X51794900Y-60236000D01*
X51957000Y-60051000D02*
X51894600Y-60126600D01*
X52045500Y-59932300D02*
X51957000Y-60051000D01*
X52100100Y-59850900D02*
X52045500Y-59932300D01*
X52176400Y-59724100D02*
X52100100Y-59850900D01*
X52222800Y-59637700D02*
X52176400Y-59724100D01*
X52286300Y-59504000D02*
X52222800Y-59637700D01*
X52324000Y-59413500D02*
X52286300Y-59504000D01*
X52374000Y-59274200D02*
X52324000Y-59413500D01*
X52402600Y-59180500D02*
X52374000Y-59274200D01*
X52438700Y-59036900D02*
X52402600Y-59180500D01*
X52457800Y-58940800D02*
X52438700Y-59036900D01*
X52479700Y-58794400D02*
X52457800Y-58940800D01*
X52489300Y-58696900D02*
X52479700Y-58794400D01*
X52496600Y-58549000D02*
X52489300Y-58696900D01*
X52496600Y-58451000D02*
X52496600Y-58549000D01*
X52489300Y-58303100D02*
X52496600Y-58451000D01*
X52479700Y-58205600D02*
X52489300Y-58303100D01*
X52457800Y-58059200D02*
X52479700Y-58205600D01*
X52438700Y-57963100D02*
X52457800Y-58059200D01*
X52402600Y-57819500D02*
X52438700Y-57963100D01*
X52374000Y-57725800D02*
X52402600Y-57819500D01*
X52324000Y-57586500D02*
X52374000Y-57725800D01*
X52286300Y-57496000D02*
X52324000Y-57586500D01*
X52222800Y-57362300D02*
X52286300Y-57496000D01*
X52176400Y-57275900D02*
X52222800Y-57362300D01*
X52100100Y-57149100D02*
X52176400Y-57275900D01*
X52045500Y-57067700D02*
X52100100Y-57149100D01*
X51957000Y-56949000D02*
X52045500Y-57067700D01*
X51894600Y-56873400D02*
X51957000Y-56949000D01*
X51794900Y-56764000D02*
X51894600Y-56873400D01*
X51725400Y-56694900D02*
X51794900Y-56764000D01*
X51615400Y-56595900D02*
X51725400Y-56694900D01*
X51539400Y-56533900D02*
X51615400Y-56595900D01*
X51420200Y-56446200D02*
X51539400Y-56533900D01*
X51338600Y-56392000D02*
X51420200Y-56446200D01*
X51211300Y-56316400D02*
X51338600Y-56392000D01*
X51124700Y-56270600D02*
X51211300Y-56316400D01*
X50990600Y-56207800D02*
X51124700Y-56270600D01*
X50899900Y-56170700D02*
X50990600Y-56207800D01*
X50621300Y-56072200D02*
X50899900Y-56170700D01*
X50542700Y-56035700D02*
X50621300Y-56072200D01*
X50447300Y-55980100D02*
X50542700Y-56035700D01*
X50367900Y-55921700D02*
X50447300Y-55980100D01*
X50303500Y-55864100D02*
X50367900Y-55921700D01*
X50285900Y-55846600D02*
X50303500Y-55864100D01*
X50227900Y-55782500D02*
X50285900Y-55846600D01*
X50169300Y-55703900D02*
X50227900Y-55782500D01*
X50124500Y-55630000D02*
X50169300Y-55703900D01*
X50112800Y-55608200D02*
X50124500Y-55630000D01*
X50076100Y-55530400D02*
X50112800Y-55608200D01*
X50046600Y-55449200D02*
X50076100Y-55530400D01*
X50039400Y-55425500D02*
X50046600Y-55449200D01*
X50016600Y-55329700D02*
X50039400Y-55425500D01*
X50004100Y-55244100D02*
X50016600Y-55329700D01*
X49999100Y-55145800D02*
X50004100Y-55244100D01*
X49999100Y-54250100D02*
X49999100Y-55145800D01*
X50022700Y-53805400D02*
X49999100Y-54250100D01*
X50092200Y-53366500D02*
X50022700Y-53805400D01*
X50203600Y-52949100D02*
X50092200Y-53366500D01*
X50211800Y-52924100D02*
X50203600Y-52949100D01*
X50361800Y-52533300D02*
X50211800Y-52924100D01*
X50372500Y-52509300D02*
X50361800Y-52533300D01*
X50562500Y-52136200D02*
X50372500Y-52509300D01*
X50575700Y-52113500D02*
X50562500Y-52136200D01*
X50811000Y-51751700D02*
X50575700Y-52113500D01*
X51082600Y-51415800D02*
X50811000Y-51751700D01*
X51100200Y-51396200D02*
X51082600Y-51415800D01*
X51405600Y-51091300D02*
X51100200Y-51396200D01*
X51751800Y-50811000D02*
X51405600Y-51091300D01*
X52113500Y-50575700D02*
X51751800Y-50811000D01*
X52136200Y-50562600D02*
X52113500Y-50575700D01*
X52520900Y-50366900D02*
X52136200Y-50562600D01*
X52924100Y-50211800D02*
X52520900Y-50366900D01*
X52949100Y-50203700D02*
X52924100Y-50211800D01*
X53366000Y-50092300D02*
X52949100Y-50203700D01*
X53805500Y-50022700D02*
X53366000Y-50092300D01*
X54256500Y-49999000D02*
X53805500Y-50022700D01*
X86308800Y-49999000D02*
X54256500Y-49999000D01*
X86406000Y-49994200D02*
X86308800Y-49999000D01*
X86502100Y-49980000D02*
X86406000Y-49994200D01*
X86596400Y-49956400D02*
X86502100Y-49980000D01*
X86687900Y-49923600D02*
X86596400Y-49956400D01*
X86775700Y-49882100D02*
X86687900Y-49923600D01*
X86859000Y-49832100D02*
X86775700Y-49882100D01*
X86937100Y-49774300D02*
X86859000Y-49832100D01*
X87009000Y-49709000D02*
X86937100Y-49774300D01*
X87074300Y-49637000D02*
X87009000Y-49709000D01*
X87132200Y-49559000D02*
X87074300Y-49637000D01*
X87182100Y-49475700D02*
X87132200Y-49559000D01*
X87223600Y-49387900D02*
X87182100Y-49475700D01*
X87256400Y-49296400D02*
X87223600Y-49387900D01*
X87280000Y-49202100D02*
X87256400Y-49296400D01*
X87294200Y-49106000D02*
X87280000Y-49202100D01*
X87299000Y-49008800D02*
X87294200Y-49106000D01*
X87299000Y-48490200D02*
X87299000Y-49008800D01*
X87294200Y-48393000D02*
X87299000Y-48490200D01*
X87280000Y-48296900D02*
X87294200Y-48393000D01*
X87256400Y-48202600D02*
X87280000Y-48296900D01*
X87223600Y-48111100D02*
X87256400Y-48202600D01*
X87182100Y-48023300D02*
X87223600Y-48111100D01*
X87132200Y-47940000D02*
X87182100Y-48023300D01*
X87074300Y-47862000D02*
X87132200Y-47940000D01*
X87009000Y-47790000D02*
X87074300Y-47862000D01*
X86937100Y-47724700D02*
X87009000Y-47790000D01*
X86859000Y-47666900D02*
X86937100Y-47724700D01*
X86775700Y-47616900D02*
X86859000Y-47666900D01*
X86687900Y-47575400D02*
X86775700Y-47616900D01*
X86596400Y-47542600D02*
X86687900Y-47575400D01*
X86502100Y-47519000D02*
X86596400Y-47542600D01*
X86406000Y-47504800D02*
X86502100Y-47519000D01*
X86308800Y-47500000D02*
X86406000Y-47504800D01*
X50008200Y-47499200D02*
X86308800Y-47500000D01*
X50003700Y-47497400D02*
X50008200Y-47499200D01*
X50000300Y-47492700D02*
X50003700Y-47497400D01*
X49999000Y-47475500D02*
X50000300Y-47492700D01*
X49999000Y-43523500D02*
X49999000Y-47475500D01*
X50000600Y-43505400D02*
X49999000Y-43523500D01*
X50003700Y-43501600D02*
X50000600Y-43505400D01*
X50009200Y-43499700D02*
X50003700Y-43501600D01*
M02*
