G04 #@! TF.GenerationSoftware,KiCad,Pcbnew,5.1.5+dfsg1-2build2*
G04 #@! TF.CreationDate,2021-10-10T04:01:18+00:00*
G04 #@! TF.ProjectId,bobbin_top_3.3,626f6262-696e-45f7-946f-705f332e332e,rev?*
G04 #@! TF.SameCoordinates,Original*
G04 #@! TF.FileFunction,Legend,Top*
G04 #@! TF.FilePolarity,Positive*
%FSLAX46Y46*%
G04 Gerber Fmt 4.6, Leading zero omitted, Abs format (unit mm)*
G04 Created by KiCad (PCBNEW 5.1.5+dfsg1-2build2) date 2021-10-10 04:01:18*
%MOMM*%
%LPD*%
G04 APERTURE LIST*
G04 #@! TA.AperFunction,Profile*
%ADD10C,0.100000*%
G04 #@! TD*
G04 APERTURE END LIST*
D10*
X114499900Y-121216000D02*
X114401200Y-121236200D01*
X114596400Y-121185700D02*
X114499900Y-121216000D01*
X114689300Y-121145900D02*
X114596400Y-121185700D01*
X114777600Y-121096800D02*
X114689300Y-121145900D01*
X114860800Y-121038900D02*
X114777600Y-121096800D01*
X114937500Y-120973100D02*
X114860800Y-121038900D01*
X115007100Y-120899800D02*
X114937500Y-120973100D01*
X115069000Y-120819900D02*
X115007100Y-120899800D01*
X115122400Y-120734100D02*
X115069000Y-120819900D01*
X115166900Y-120643400D02*
X115122400Y-120734100D01*
X115202000Y-120548600D02*
X115166900Y-120643400D01*
X115227300Y-120450800D02*
X115202000Y-120548600D01*
X115242600Y-120350800D02*
X115227300Y-120450800D01*
X115247700Y-120249900D02*
X115242600Y-120350800D01*
X115242600Y-120149200D02*
X115247700Y-120249900D01*
X115227300Y-120049300D02*
X115242600Y-120149200D01*
X115202000Y-119951500D02*
X115227300Y-120049300D01*
X115166900Y-119856700D02*
X115202000Y-119951500D01*
X115122400Y-119766000D02*
X115166900Y-119856700D01*
X115069000Y-119680200D02*
X115122400Y-119766000D01*
X115007100Y-119600300D02*
X115069000Y-119680200D01*
X114937300Y-119526800D02*
X115007100Y-119600300D01*
X114860600Y-119461000D02*
X114937300Y-119526800D01*
X114777600Y-119403300D02*
X114860600Y-119461000D01*
X114689300Y-119354200D02*
X114777600Y-119403300D01*
X114596600Y-119314500D02*
X114689300Y-119354200D01*
X114500200Y-119284200D02*
X114596600Y-119314500D01*
X114401200Y-119263900D02*
X114500200Y-119284200D01*
X114300700Y-119253600D02*
X114401200Y-119263900D01*
X114224800Y-119251000D02*
X114300700Y-119253600D01*
X54275500Y-119251000D02*
X114224800Y-119251000D01*
X54199100Y-119253600D02*
X54275500Y-119251000D01*
X54098800Y-119263900D02*
X54199100Y-119253600D01*
X53999800Y-119284200D02*
X54098800Y-119263900D01*
X53903400Y-119314500D02*
X53999800Y-119284200D01*
X53810500Y-119354400D02*
X53903400Y-119314500D01*
X53722100Y-119403400D02*
X53810500Y-119354400D01*
X53639200Y-119461200D02*
X53722100Y-119403400D01*
X53562500Y-119527000D02*
X53639200Y-119461200D01*
X53492900Y-119600300D02*
X53562500Y-119527000D01*
X53431000Y-119680200D02*
X53492900Y-119600300D01*
X53377600Y-119766000D02*
X53431000Y-119680200D01*
X53333100Y-119856700D02*
X53377600Y-119766000D01*
X53298100Y-119951200D02*
X53333100Y-119856700D01*
X53272700Y-120049100D02*
X53298100Y-119951200D01*
X53257400Y-120149000D02*
X53272700Y-120049100D01*
X53252300Y-120249900D02*
X53257400Y-120149000D01*
X53257400Y-120350800D02*
X53252300Y-120249900D01*
X53272700Y-120450800D02*
X53257400Y-120350800D01*
X53298000Y-120548600D02*
X53272700Y-120450800D01*
X53333100Y-120643400D02*
X53298000Y-120548600D01*
X53377600Y-120734100D02*
X53333100Y-120643400D01*
X53431000Y-120819900D02*
X53377600Y-120734100D01*
X53492900Y-120899800D02*
X53431000Y-120819900D01*
X53562500Y-120973100D02*
X53492900Y-120899800D01*
X53639200Y-121038900D02*
X53562500Y-120973100D01*
X53722100Y-121096700D02*
X53639200Y-121038900D01*
X53810500Y-121145700D02*
X53722100Y-121096700D01*
X53903400Y-121185600D02*
X53810500Y-121145700D01*
X53999800Y-121215900D02*
X53903400Y-121185600D01*
X54098800Y-121236200D02*
X53999800Y-121215900D01*
X54199300Y-121246500D02*
X54098800Y-121236200D01*
X54275200Y-121249000D02*
X54199300Y-121246500D01*
X114225000Y-121249000D02*
X54275200Y-121249000D01*
X114300400Y-121246500D02*
X114225000Y-121249000D01*
X114401200Y-121236200D02*
X114300400Y-121246500D01*
X114499900Y-110215900D02*
X114401100Y-110236200D01*
X114596400Y-110185700D02*
X114499900Y-110215900D01*
X114689300Y-110145900D02*
X114596400Y-110185700D01*
X114777600Y-110096800D02*
X114689300Y-110145900D01*
X114860800Y-110038900D02*
X114777600Y-110096800D01*
X114937500Y-109973100D02*
X114860800Y-110038900D01*
X115007100Y-109899800D02*
X114937500Y-109973100D01*
X115069000Y-109819900D02*
X115007100Y-109899800D01*
X115122400Y-109734100D02*
X115069000Y-109819900D01*
X115166900Y-109643400D02*
X115122400Y-109734100D01*
X115202000Y-109548600D02*
X115166900Y-109643400D01*
X115227300Y-109450700D02*
X115202000Y-109548600D01*
X115242600Y-109350800D02*
X115227300Y-109450700D01*
X115247700Y-109249900D02*
X115242600Y-109350800D01*
X115242600Y-109149200D02*
X115247700Y-109249900D01*
X115227300Y-109049300D02*
X115242600Y-109149200D01*
X115202000Y-108951500D02*
X115227300Y-109049300D01*
X115166900Y-108856700D02*
X115202000Y-108951500D01*
X115122400Y-108766000D02*
X115166900Y-108856700D01*
X115069000Y-108680200D02*
X115122400Y-108766000D01*
X115007100Y-108600300D02*
X115069000Y-108680200D01*
X114937300Y-108526800D02*
X115007100Y-108600300D01*
X114860600Y-108461000D02*
X114937300Y-108526800D01*
X114777600Y-108403300D02*
X114860600Y-108461000D01*
X114689300Y-108354200D02*
X114777600Y-108403300D01*
X114596600Y-108314500D02*
X114689300Y-108354200D01*
X114500200Y-108284200D02*
X114596600Y-108314500D01*
X114401200Y-108263900D02*
X114500200Y-108284200D01*
X114300700Y-108253600D02*
X114401200Y-108263900D01*
X114224800Y-108251000D02*
X114300700Y-108253600D01*
X54275400Y-108251000D02*
X114224800Y-108251000D01*
X54199100Y-108253600D02*
X54275400Y-108251000D01*
X54098800Y-108263900D02*
X54199100Y-108253600D01*
X53999800Y-108284200D02*
X54098800Y-108263900D01*
X53903400Y-108314500D02*
X53999800Y-108284200D01*
X53810500Y-108354300D02*
X53903400Y-108314500D01*
X53722100Y-108403400D02*
X53810500Y-108354300D01*
X53639200Y-108461200D02*
X53722100Y-108403400D01*
X53562500Y-108527000D02*
X53639200Y-108461200D01*
X53492900Y-108600300D02*
X53562500Y-108527000D01*
X53431000Y-108680200D02*
X53492900Y-108600300D01*
X53377600Y-108766000D02*
X53431000Y-108680200D01*
X53333100Y-108856700D02*
X53377600Y-108766000D01*
X53298100Y-108951200D02*
X53333100Y-108856700D01*
X53272700Y-109049100D02*
X53298100Y-108951200D01*
X53257400Y-109149000D02*
X53272700Y-109049100D01*
X53252300Y-109249900D02*
X53257400Y-109149000D01*
X53257400Y-109350800D02*
X53252300Y-109249900D01*
X53272700Y-109450700D02*
X53257400Y-109350800D01*
X53298000Y-109548600D02*
X53272700Y-109450700D01*
X53333100Y-109643400D02*
X53298000Y-109548600D01*
X53377600Y-109734100D02*
X53333100Y-109643400D01*
X53431000Y-109819900D02*
X53377600Y-109734100D01*
X53492900Y-109899800D02*
X53431000Y-109819900D01*
X53562500Y-109973100D02*
X53492900Y-109899800D01*
X53639200Y-110038900D02*
X53562500Y-109973100D01*
X53722100Y-110096700D02*
X53639200Y-110038900D01*
X53810500Y-110145700D02*
X53722100Y-110096700D01*
X53903400Y-110185600D02*
X53810500Y-110145700D01*
X53999800Y-110215900D02*
X53903400Y-110185600D01*
X54098800Y-110236200D02*
X53999800Y-110215900D01*
X54199300Y-110246500D02*
X54098800Y-110236200D01*
X54275200Y-110249000D02*
X54199300Y-110246500D01*
X114225000Y-110249000D02*
X54275200Y-110249000D01*
X114300500Y-110246500D02*
X114225000Y-110249000D01*
X114401100Y-110236200D02*
X114300500Y-110246500D01*
X114499900Y-99215900D02*
X114401100Y-99236200D01*
X114596400Y-99185700D02*
X114499900Y-99215900D01*
X114689300Y-99145800D02*
X114596400Y-99185700D01*
X114777600Y-99096800D02*
X114689300Y-99145800D01*
X114860800Y-99038900D02*
X114777600Y-99096800D01*
X114937500Y-98973100D02*
X114860800Y-99038900D01*
X115007100Y-98899800D02*
X114937500Y-98973100D01*
X115069000Y-98819900D02*
X115007100Y-98899800D01*
X115122400Y-98734100D02*
X115069000Y-98819900D01*
X115166900Y-98643400D02*
X115122400Y-98734100D01*
X115202000Y-98548600D02*
X115166900Y-98643400D01*
X115227300Y-98450700D02*
X115202000Y-98548600D01*
X115242600Y-98350800D02*
X115227300Y-98450700D01*
X115247700Y-98249900D02*
X115242600Y-98350800D01*
X115242600Y-98149200D02*
X115247700Y-98249900D01*
X115227300Y-98049300D02*
X115242600Y-98149200D01*
X115202000Y-97951500D02*
X115227300Y-98049300D01*
X115166900Y-97856700D02*
X115202000Y-97951500D01*
X115122400Y-97766000D02*
X115166900Y-97856700D01*
X115069000Y-97680200D02*
X115122400Y-97766000D01*
X115007100Y-97600300D02*
X115069000Y-97680200D01*
X114937300Y-97526800D02*
X115007100Y-97600300D01*
X114860600Y-97461000D02*
X114937300Y-97526800D01*
X114777600Y-97403300D02*
X114860600Y-97461000D01*
X114689300Y-97354200D02*
X114777600Y-97403300D01*
X114596600Y-97314500D02*
X114689300Y-97354200D01*
X114500200Y-97284200D02*
X114596600Y-97314500D01*
X114401200Y-97263800D02*
X114500200Y-97284200D01*
X114300700Y-97253600D02*
X114401200Y-97263800D01*
X114224800Y-97251000D02*
X114300700Y-97253600D01*
X54275400Y-97251000D02*
X114224800Y-97251000D01*
X54199200Y-97253600D02*
X54275400Y-97251000D01*
X54098800Y-97263800D02*
X54199200Y-97253600D01*
X53999800Y-97284200D02*
X54098800Y-97263800D01*
X53903400Y-97314500D02*
X53999800Y-97284200D01*
X53810500Y-97354300D02*
X53903400Y-97314500D01*
X53722100Y-97403400D02*
X53810500Y-97354300D01*
X53639200Y-97461100D02*
X53722100Y-97403400D01*
X53562500Y-97527000D02*
X53639200Y-97461100D01*
X53492900Y-97600300D02*
X53562500Y-97527000D01*
X53431000Y-97680200D02*
X53492900Y-97600300D01*
X53377600Y-97766000D02*
X53431000Y-97680200D01*
X53333100Y-97856700D02*
X53377600Y-97766000D01*
X53298100Y-97951200D02*
X53333100Y-97856700D01*
X53272700Y-98049100D02*
X53298100Y-97951200D01*
X53257400Y-98149000D02*
X53272700Y-98049100D01*
X53252300Y-98249900D02*
X53257400Y-98149000D01*
X53257400Y-98350800D02*
X53252300Y-98249900D01*
X53272700Y-98450700D02*
X53257400Y-98350800D01*
X53298000Y-98548600D02*
X53272700Y-98450700D01*
X53333100Y-98643400D02*
X53298000Y-98548600D01*
X53377600Y-98734100D02*
X53333100Y-98643400D01*
X53431000Y-98819900D02*
X53377600Y-98734100D01*
X53492900Y-98899800D02*
X53431000Y-98819900D01*
X53562500Y-98973100D02*
X53492900Y-98899800D01*
X53639200Y-99038900D02*
X53562500Y-98973100D01*
X53722100Y-99096700D02*
X53639200Y-99038900D01*
X53810500Y-99145700D02*
X53722100Y-99096700D01*
X53903400Y-99185600D02*
X53810500Y-99145700D01*
X53999800Y-99215900D02*
X53903400Y-99185600D01*
X54098800Y-99236200D02*
X53999800Y-99215900D01*
X54199300Y-99246500D02*
X54098800Y-99236200D01*
X54275200Y-99249000D02*
X54199300Y-99246500D01*
X114224900Y-99249000D02*
X54275200Y-99249000D01*
X114300500Y-99246500D02*
X114224900Y-99249000D01*
X114401100Y-99236200D02*
X114300500Y-99246500D01*
X114499900Y-88215900D02*
X114401100Y-88236200D01*
X114596400Y-88185700D02*
X114499900Y-88215900D01*
X114689300Y-88145800D02*
X114596400Y-88185700D01*
X114777600Y-88096800D02*
X114689300Y-88145800D01*
X114860800Y-88038900D02*
X114777600Y-88096800D01*
X114937500Y-87973100D02*
X114860800Y-88038900D01*
X115007100Y-87899800D02*
X114937500Y-87973100D01*
X115069000Y-87819900D02*
X115007100Y-87899800D01*
X115122400Y-87734100D02*
X115069000Y-87819900D01*
X115166900Y-87643400D02*
X115122400Y-87734100D01*
X115202000Y-87548600D02*
X115166900Y-87643400D01*
X115227300Y-87450700D02*
X115202000Y-87548600D01*
X115242600Y-87350800D02*
X115227300Y-87450700D01*
X115247700Y-87249900D02*
X115242600Y-87350800D01*
X115242600Y-87149200D02*
X115247700Y-87249900D01*
X115227300Y-87049300D02*
X115242600Y-87149200D01*
X115202000Y-86951500D02*
X115227300Y-87049300D01*
X115166900Y-86856700D02*
X115202000Y-86951500D01*
X115122400Y-86766000D02*
X115166900Y-86856700D01*
X115069000Y-86680200D02*
X115122400Y-86766000D01*
X115007100Y-86600200D02*
X115069000Y-86680200D01*
X114937300Y-86526800D02*
X115007100Y-86600200D01*
X114860600Y-86461000D02*
X114937300Y-86526800D01*
X114777600Y-86403200D02*
X114860600Y-86461000D01*
X114689300Y-86354200D02*
X114777600Y-86403200D01*
X114596600Y-86314500D02*
X114689300Y-86354200D01*
X114500200Y-86284200D02*
X114596600Y-86314500D01*
X114401200Y-86263800D02*
X114500200Y-86284200D01*
X114300700Y-86253600D02*
X114401200Y-86263800D01*
X114224800Y-86251000D02*
X114300700Y-86253600D01*
X54275400Y-86251000D02*
X114224800Y-86251000D01*
X54199200Y-86253600D02*
X54275400Y-86251000D01*
X54098800Y-86263800D02*
X54199200Y-86253600D01*
X53999800Y-86284200D02*
X54098800Y-86263800D01*
X53903400Y-86314500D02*
X53999800Y-86284200D01*
X53810500Y-86354300D02*
X53903400Y-86314500D01*
X53722100Y-86403400D02*
X53810500Y-86354300D01*
X53639200Y-86461100D02*
X53722100Y-86403400D01*
X53562500Y-86527000D02*
X53639200Y-86461100D01*
X53492900Y-86600200D02*
X53562500Y-86527000D01*
X53431000Y-86680200D02*
X53492900Y-86600200D01*
X53377600Y-86766000D02*
X53431000Y-86680200D01*
X53333100Y-86856700D02*
X53377600Y-86766000D01*
X53298100Y-86951200D02*
X53333100Y-86856700D01*
X53272700Y-87049100D02*
X53298100Y-86951200D01*
X53257400Y-87149000D02*
X53272700Y-87049100D01*
X53252300Y-87249900D02*
X53257400Y-87149000D01*
X53257400Y-87350800D02*
X53252300Y-87249900D01*
X53272700Y-87450700D02*
X53257400Y-87350800D01*
X53298000Y-87548600D02*
X53272700Y-87450700D01*
X53333100Y-87643400D02*
X53298000Y-87548600D01*
X53377600Y-87734100D02*
X53333100Y-87643400D01*
X53431000Y-87819900D02*
X53377600Y-87734100D01*
X53492900Y-87899800D02*
X53431000Y-87819900D01*
X53562500Y-87973100D02*
X53492900Y-87899800D01*
X53639200Y-88038900D02*
X53562500Y-87973100D01*
X53722100Y-88096700D02*
X53639200Y-88038900D01*
X53810500Y-88145700D02*
X53722100Y-88096700D01*
X53903400Y-88185600D02*
X53810500Y-88145700D01*
X53999800Y-88215900D02*
X53903400Y-88185600D01*
X54098800Y-88236200D02*
X53999800Y-88215900D01*
X54199300Y-88246500D02*
X54098800Y-88236200D01*
X54275200Y-88249000D02*
X54199300Y-88246500D01*
X114224900Y-88249000D02*
X54275200Y-88249000D01*
X114300500Y-88246400D02*
X114224900Y-88249000D01*
X114401100Y-88236200D02*
X114300500Y-88246400D01*
X114499900Y-77215900D02*
X114401000Y-77236200D01*
X114596400Y-77185700D02*
X114499900Y-77215900D01*
X114689300Y-77145800D02*
X114596400Y-77185700D01*
X114777600Y-77096800D02*
X114689300Y-77145800D01*
X114860800Y-77038900D02*
X114777600Y-77096800D01*
X114937500Y-76973100D02*
X114860800Y-77038900D01*
X115007100Y-76899800D02*
X114937500Y-76973100D01*
X115069000Y-76819900D02*
X115007100Y-76899800D01*
X115122400Y-76734100D02*
X115069000Y-76819900D01*
X115166900Y-76643300D02*
X115122400Y-76734100D01*
X115202000Y-76548600D02*
X115166900Y-76643300D01*
X115227300Y-76450700D02*
X115202000Y-76548600D01*
X115242600Y-76350800D02*
X115227300Y-76450700D01*
X115247700Y-76249900D02*
X115242600Y-76350800D01*
X115242600Y-76149200D02*
X115247700Y-76249900D01*
X115227300Y-76049300D02*
X115242600Y-76149200D01*
X115202000Y-75951500D02*
X115227300Y-76049300D01*
X115166900Y-75856700D02*
X115202000Y-75951500D01*
X115122400Y-75765900D02*
X115166900Y-75856700D01*
X115069000Y-75680200D02*
X115122400Y-75765900D01*
X115007100Y-75600200D02*
X115069000Y-75680200D01*
X114937300Y-75526800D02*
X115007100Y-75600200D01*
X114860600Y-75461000D02*
X114937300Y-75526800D01*
X114777600Y-75403200D02*
X114860600Y-75461000D01*
X114689300Y-75354200D02*
X114777600Y-75403200D01*
X114596600Y-75314500D02*
X114689300Y-75354200D01*
X114500200Y-75284200D02*
X114596600Y-75314500D01*
X114401200Y-75263800D02*
X114500200Y-75284200D01*
X114300700Y-75253600D02*
X114401200Y-75263800D01*
X114224800Y-75251000D02*
X114300700Y-75253600D01*
X54275300Y-75251000D02*
X114224800Y-75251000D01*
X54199200Y-75253600D02*
X54275300Y-75251000D01*
X54098800Y-75263800D02*
X54199200Y-75253600D01*
X53999800Y-75284200D02*
X54098800Y-75263800D01*
X53903400Y-75314500D02*
X53999800Y-75284200D01*
X53810500Y-75354300D02*
X53903400Y-75314500D01*
X53722100Y-75403400D02*
X53810500Y-75354300D01*
X53639200Y-75461100D02*
X53722100Y-75403400D01*
X53562500Y-75527000D02*
X53639200Y-75461100D01*
X53492900Y-75600200D02*
X53562500Y-75527000D01*
X53431000Y-75680200D02*
X53492900Y-75600200D01*
X53377600Y-75765900D02*
X53431000Y-75680200D01*
X53333100Y-75856700D02*
X53377600Y-75765900D01*
X53298100Y-75951200D02*
X53333100Y-75856700D01*
X53272700Y-76049000D02*
X53298100Y-75951200D01*
X53257400Y-76148900D02*
X53272700Y-76049000D01*
X53252300Y-76249900D02*
X53257400Y-76148900D01*
X53257400Y-76350800D02*
X53252300Y-76249900D01*
X53272700Y-76450700D02*
X53257400Y-76350800D01*
X53298000Y-76548600D02*
X53272700Y-76450700D01*
X53333100Y-76643300D02*
X53298000Y-76548600D01*
X53377600Y-76734100D02*
X53333100Y-76643300D01*
X53431000Y-76819900D02*
X53377600Y-76734100D01*
X53492900Y-76899800D02*
X53431000Y-76819900D01*
X53562500Y-76973100D02*
X53492900Y-76899800D01*
X53639200Y-77038900D02*
X53562500Y-76973100D01*
X53722100Y-77096700D02*
X53639200Y-77038900D01*
X53810500Y-77145700D02*
X53722100Y-77096700D01*
X53903400Y-77185600D02*
X53810500Y-77145700D01*
X53999800Y-77215800D02*
X53903400Y-77185600D01*
X54098800Y-77236200D02*
X53999800Y-77215800D01*
X54199300Y-77246400D02*
X54098800Y-77236200D01*
X54275200Y-77249000D02*
X54199300Y-77246400D01*
X114224800Y-77249000D02*
X54275200Y-77249000D01*
X114300600Y-77246400D02*
X114224800Y-77249000D01*
X114401000Y-77236200D02*
X114300600Y-77246400D01*
X114499900Y-66215900D02*
X114401000Y-66236200D01*
X114596400Y-66185700D02*
X114499900Y-66215900D01*
X114689300Y-66145800D02*
X114596400Y-66185700D01*
X114777600Y-66096800D02*
X114689300Y-66145800D01*
X114860600Y-66039100D02*
X114777600Y-66096800D01*
X114937300Y-65973200D02*
X114860600Y-66039100D01*
X115007100Y-65899800D02*
X114937300Y-65973200D01*
X115069000Y-65819900D02*
X115007100Y-65899800D01*
X115122300Y-65734300D02*
X115069000Y-65819900D01*
X115166800Y-65643600D02*
X115122300Y-65734300D01*
X115201900Y-65548800D02*
X115166800Y-65643600D01*
X115227300Y-65451000D02*
X115201900Y-65548800D01*
X115242600Y-65351100D02*
X115227300Y-65451000D01*
X115247700Y-65250100D02*
X115242600Y-65351100D01*
X115242600Y-65149200D02*
X115247700Y-65250100D01*
X115227300Y-65049300D02*
X115242600Y-65149200D01*
X115202000Y-64951500D02*
X115227300Y-65049300D01*
X115166900Y-64856700D02*
X115202000Y-64951500D01*
X115122400Y-64765900D02*
X115166900Y-64856700D01*
X115069000Y-64680200D02*
X115122400Y-64765900D01*
X115007100Y-64600200D02*
X115069000Y-64680200D01*
X114937300Y-64526800D02*
X115007100Y-64600200D01*
X114860600Y-64461000D02*
X114937300Y-64526800D01*
X114777900Y-64403400D02*
X114860600Y-64461000D01*
X114689500Y-64354300D02*
X114777900Y-64403400D01*
X114596600Y-64314400D02*
X114689500Y-64354300D01*
X114500200Y-64284200D02*
X114596600Y-64314400D01*
X114401200Y-64263800D02*
X114500200Y-64284200D01*
X114300700Y-64253600D02*
X114401200Y-64263800D01*
X114224800Y-64251000D02*
X114300700Y-64253600D01*
X54275300Y-64251000D02*
X114224800Y-64251000D01*
X54199300Y-64253600D02*
X54275300Y-64251000D01*
X54098800Y-64263800D02*
X54199300Y-64253600D01*
X53999800Y-64284200D02*
X54098800Y-64263800D01*
X53903400Y-64314400D02*
X53999800Y-64284200D01*
X53810500Y-64354300D02*
X53903400Y-64314400D01*
X53722100Y-64403400D02*
X53810500Y-64354300D01*
X53639200Y-64461100D02*
X53722100Y-64403400D01*
X53562500Y-64527000D02*
X53639200Y-64461100D01*
X53492900Y-64600200D02*
X53562500Y-64527000D01*
X53431000Y-64680200D02*
X53492900Y-64600200D01*
X53377600Y-64765900D02*
X53431000Y-64680200D01*
X53333100Y-64856700D02*
X53377600Y-64765900D01*
X53298000Y-64951500D02*
X53333100Y-64856700D01*
X53272700Y-65049000D02*
X53298000Y-64951500D01*
X53257400Y-65148900D02*
X53272700Y-65049000D01*
X53252300Y-65249900D02*
X53257400Y-65148900D01*
X53257400Y-65350800D02*
X53252300Y-65249900D01*
X53272700Y-65450700D02*
X53257400Y-65350800D01*
X53298000Y-65548600D02*
X53272700Y-65450700D01*
X53333100Y-65643300D02*
X53298000Y-65548600D01*
X53377600Y-65734100D02*
X53333100Y-65643300D01*
X53431000Y-65819900D02*
X53377600Y-65734100D01*
X53492900Y-65899800D02*
X53431000Y-65819900D01*
X53562500Y-65973100D02*
X53492900Y-65899800D01*
X53639200Y-66038900D02*
X53562500Y-65973100D01*
X53722100Y-66096600D02*
X53639200Y-66038900D01*
X53810500Y-66145700D02*
X53722100Y-66096600D01*
X53903400Y-66185600D02*
X53810500Y-66145700D01*
X53999800Y-66215800D02*
X53903400Y-66185600D01*
X54098800Y-66236200D02*
X53999800Y-66215800D01*
X54199300Y-66246400D02*
X54098800Y-66236200D01*
X54275200Y-66249000D02*
X54199300Y-66246400D01*
X114224800Y-66249000D02*
X54275200Y-66249000D01*
X114300600Y-66246400D02*
X114224800Y-66249000D01*
X114401000Y-66236200D02*
X114300600Y-66246400D01*
X114499900Y-55215900D02*
X114401000Y-55236200D01*
X114596400Y-55185700D02*
X114499900Y-55215900D01*
X114689300Y-55145800D02*
X114596400Y-55185700D01*
X114777600Y-55096800D02*
X114689300Y-55145800D01*
X114860600Y-55039100D02*
X114777600Y-55096800D01*
X114937300Y-54973200D02*
X114860600Y-55039100D01*
X115007100Y-54899800D02*
X114937300Y-54973200D01*
X115069000Y-54819900D02*
X115007100Y-54899800D01*
X115122300Y-54734300D02*
X115069000Y-54819900D01*
X115166800Y-54643600D02*
X115122300Y-54734300D01*
X115201900Y-54548800D02*
X115166800Y-54643600D01*
X115227300Y-54451000D02*
X115201900Y-54548800D01*
X115242600Y-54351100D02*
X115227300Y-54451000D01*
X115247700Y-54250100D02*
X115242600Y-54351100D01*
X115242600Y-54149200D02*
X115247700Y-54250100D01*
X115227300Y-54049300D02*
X115242600Y-54149200D01*
X115202000Y-53951500D02*
X115227300Y-54049300D01*
X115166900Y-53856700D02*
X115202000Y-53951500D01*
X115122400Y-53765900D02*
X115166900Y-53856700D01*
X115069000Y-53680200D02*
X115122400Y-53765900D01*
X115007100Y-53600200D02*
X115069000Y-53680200D01*
X114937300Y-53526800D02*
X115007100Y-53600200D01*
X114860600Y-53460900D02*
X114937300Y-53526800D01*
X114777900Y-53403400D02*
X114860600Y-53460900D01*
X114689500Y-53354300D02*
X114777900Y-53403400D01*
X114596600Y-53314400D02*
X114689500Y-53354300D01*
X114500200Y-53284200D02*
X114596600Y-53314400D01*
X114401200Y-53263800D02*
X114500200Y-53284200D01*
X114300700Y-53253600D02*
X114401200Y-53263800D01*
X114224800Y-53251000D02*
X114300700Y-53253600D01*
X54275200Y-53251000D02*
X114224800Y-53251000D01*
X54199300Y-53253600D02*
X54275200Y-53251000D01*
X54098800Y-53263800D02*
X54199300Y-53253600D01*
X53999800Y-53284200D02*
X54098800Y-53263800D01*
X53903400Y-53314400D02*
X53999800Y-53284200D01*
X53810500Y-53354300D02*
X53903400Y-53314400D01*
X53722100Y-53403400D02*
X53810500Y-53354300D01*
X53639200Y-53461100D02*
X53722100Y-53403400D01*
X53562500Y-53527000D02*
X53639200Y-53461100D01*
X53492900Y-53600200D02*
X53562500Y-53527000D01*
X53431000Y-53680200D02*
X53492900Y-53600200D01*
X53377600Y-53765900D02*
X53431000Y-53680200D01*
X53333100Y-53856700D02*
X53377600Y-53765900D01*
X53298000Y-53951500D02*
X53333100Y-53856700D01*
X53272700Y-54049000D02*
X53298000Y-53951500D01*
X53257400Y-54148900D02*
X53272700Y-54049000D01*
X53252300Y-54249900D02*
X53257400Y-54148900D01*
X53257400Y-54350800D02*
X53252300Y-54249900D01*
X53272700Y-54450700D02*
X53257400Y-54350800D01*
X53298000Y-54548500D02*
X53272700Y-54450700D01*
X53333100Y-54643300D02*
X53298000Y-54548500D01*
X53377600Y-54734100D02*
X53333100Y-54643300D01*
X53431000Y-54819900D02*
X53377600Y-54734100D01*
X53492900Y-54899800D02*
X53431000Y-54819900D01*
X53562500Y-54973000D02*
X53492900Y-54899800D01*
X53639200Y-55038900D02*
X53562500Y-54973000D01*
X53722100Y-55096600D02*
X53639200Y-55038900D01*
X53810500Y-55145700D02*
X53722100Y-55096600D01*
X53903400Y-55185600D02*
X53810500Y-55145700D01*
X53999800Y-55215800D02*
X53903400Y-55185600D01*
X54098800Y-55236200D02*
X53999800Y-55215800D01*
X54199300Y-55246400D02*
X54098800Y-55236200D01*
X54275200Y-55249000D02*
X54199300Y-55246400D01*
X114224800Y-55249000D02*
X54275200Y-55249000D01*
X114300700Y-55246400D02*
X114224800Y-55249000D01*
X114401000Y-55236200D02*
X114300700Y-55246400D01*
X114500200Y-132215900D02*
X114400700Y-132236300D01*
X114596600Y-132185600D02*
X114500200Y-132215900D01*
X114689500Y-132145800D02*
X114596600Y-132185600D01*
X114777900Y-132096700D02*
X114689500Y-132145800D01*
X114860800Y-132038900D02*
X114777900Y-132096700D01*
X114937500Y-131973100D02*
X114860800Y-132038900D01*
X115007100Y-131899800D02*
X114937500Y-131973100D01*
X115069000Y-131819900D02*
X115007100Y-131899800D01*
X115122400Y-131734100D02*
X115069000Y-131819900D01*
X115166900Y-131643400D02*
X115122400Y-131734100D01*
X115202000Y-131548600D02*
X115166900Y-131643400D01*
X115227300Y-131450800D02*
X115202000Y-131548600D01*
X115242600Y-131350900D02*
X115227300Y-131450800D01*
X115247700Y-131249900D02*
X115242600Y-131350900D01*
X115242600Y-131149300D02*
X115247700Y-131249900D01*
X115227300Y-131049400D02*
X115242600Y-131149300D01*
X115202000Y-130951500D02*
X115227300Y-131049400D01*
X115166900Y-130856700D02*
X115202000Y-130951500D01*
X115122400Y-130766000D02*
X115166900Y-130856700D01*
X115069000Y-130680200D02*
X115122400Y-130766000D01*
X115007100Y-130600300D02*
X115069000Y-130680200D01*
X114937300Y-130526800D02*
X115007100Y-130600300D01*
X114860600Y-130461000D02*
X114937300Y-130526800D01*
X114777600Y-130403300D02*
X114860600Y-130461000D01*
X114689300Y-130354200D02*
X114777600Y-130403300D01*
X114596600Y-130314500D02*
X114689300Y-130354200D01*
X114500200Y-130284200D02*
X114596600Y-130314500D01*
X114401200Y-130263900D02*
X114500200Y-130284200D01*
X114300700Y-130253600D02*
X114401200Y-130263900D01*
X114224800Y-130251100D02*
X114300700Y-130253600D01*
X54275000Y-130251100D02*
X114224800Y-130251100D01*
X54199500Y-130253600D02*
X54275000Y-130251100D01*
X54098800Y-130263900D02*
X54199500Y-130253600D01*
X53999800Y-130284200D02*
X54098800Y-130263900D01*
X53903400Y-130314500D02*
X53999800Y-130284200D01*
X53810500Y-130354400D02*
X53903400Y-130314500D01*
X53722100Y-130403400D02*
X53810500Y-130354400D01*
X53639200Y-130461200D02*
X53722100Y-130403400D01*
X53562500Y-130527000D02*
X53639200Y-130461200D01*
X53492900Y-130600300D02*
X53562500Y-130527000D01*
X53431000Y-130680200D02*
X53492900Y-130600300D01*
X53377600Y-130766000D02*
X53431000Y-130680200D01*
X53333100Y-130856700D02*
X53377600Y-130766000D01*
X53298100Y-130951200D02*
X53333100Y-130856700D01*
X53272700Y-131049100D02*
X53298100Y-130951200D01*
X53257400Y-131149000D02*
X53272700Y-131049100D01*
X53252300Y-131249900D02*
X53257400Y-131149000D01*
X53257400Y-131350900D02*
X53252300Y-131249900D01*
X53272700Y-131450800D02*
X53257400Y-131350900D01*
X53298000Y-131548600D02*
X53272700Y-131450800D01*
X53333100Y-131643400D02*
X53298000Y-131548600D01*
X53377600Y-131734100D02*
X53333100Y-131643400D01*
X53431000Y-131819900D02*
X53377600Y-131734100D01*
X53492900Y-131899800D02*
X53431000Y-131819900D01*
X53562500Y-131973100D02*
X53492900Y-131899800D01*
X53639200Y-132038900D02*
X53562500Y-131973100D01*
X53722100Y-132096700D02*
X53639200Y-132038900D01*
X53810500Y-132145800D02*
X53722100Y-132096700D01*
X53903400Y-132185600D02*
X53810500Y-132145800D01*
X53999800Y-132215900D02*
X53903400Y-132185600D01*
X54098800Y-132236200D02*
X53999800Y-132215900D01*
X54199300Y-132246500D02*
X54098800Y-132236200D01*
X54275200Y-132249100D02*
X54199300Y-132246500D01*
X114224500Y-132249100D02*
X54275200Y-132249100D01*
X114300900Y-132246500D02*
X114224500Y-132249100D01*
X114400700Y-132236300D02*
X114300900Y-132246500D01*
X118471000Y-43499000D02*
X50014600Y-43499700D01*
X118487300Y-43500000D02*
X118471000Y-43499000D01*
X118492900Y-43503700D02*
X118487300Y-43500000D01*
X118494800Y-43508200D02*
X118492900Y-43503700D01*
X118495500Y-43523500D02*
X118494800Y-43508200D01*
X118495500Y-47475500D02*
X118495500Y-43523500D01*
X118494300Y-47492700D02*
X118495500Y-47475500D01*
X118491600Y-47496700D02*
X118494300Y-47492700D01*
X118487300Y-47499000D02*
X118491600Y-47496700D01*
X95241200Y-47500000D02*
X118487300Y-47499000D01*
X95144000Y-47504800D02*
X95241200Y-47500000D01*
X95047900Y-47519000D02*
X95144000Y-47504800D01*
X94953600Y-47542600D02*
X95047900Y-47519000D01*
X94862200Y-47575400D02*
X94953600Y-47542600D01*
X94774300Y-47616900D02*
X94862200Y-47575400D01*
X94691000Y-47666900D02*
X94774300Y-47616900D01*
X94613000Y-47724700D02*
X94691000Y-47666900D01*
X94541000Y-47790000D02*
X94613000Y-47724700D01*
X94475700Y-47862000D02*
X94541000Y-47790000D01*
X94417900Y-47940000D02*
X94475700Y-47862000D01*
X94367900Y-48023300D02*
X94417900Y-47940000D01*
X94326400Y-48111100D02*
X94367900Y-48023300D01*
X94293600Y-48202600D02*
X94326400Y-48111100D01*
X94270000Y-48296900D02*
X94293600Y-48202600D01*
X94255800Y-48393000D02*
X94270000Y-48296900D01*
X94251000Y-48490200D02*
X94255800Y-48393000D01*
X94251000Y-49008800D02*
X94251000Y-48490200D01*
X94255800Y-49106000D02*
X94251000Y-49008800D01*
X94270000Y-49202100D02*
X94255800Y-49106000D01*
X94293600Y-49296400D02*
X94270000Y-49202100D01*
X94326400Y-49387900D02*
X94293600Y-49296400D01*
X94367900Y-49475700D02*
X94326400Y-49387900D01*
X94417900Y-49559000D02*
X94367900Y-49475700D01*
X94475700Y-49637000D02*
X94417900Y-49559000D01*
X94541000Y-49709000D02*
X94475700Y-49637000D01*
X94613000Y-49774300D02*
X94541000Y-49709000D01*
X94691000Y-49832100D02*
X94613000Y-49774300D01*
X94774300Y-49882100D02*
X94691000Y-49832100D01*
X94862200Y-49923600D02*
X94774300Y-49882100D01*
X94953600Y-49956400D02*
X94862200Y-49923600D01*
X95047900Y-49980000D02*
X94953600Y-49956400D01*
X95144000Y-49994200D02*
X95047900Y-49980000D01*
X95241200Y-49999000D02*
X95144000Y-49994200D01*
X114243700Y-49999000D02*
X95241200Y-49999000D01*
X114679800Y-50021100D02*
X114243700Y-49999000D01*
X115105900Y-50086400D02*
X114679800Y-50021100D01*
X115522300Y-50194200D02*
X115105900Y-50086400D01*
X115914500Y-50339100D02*
X115522300Y-50194200D01*
X115937800Y-50349100D02*
X115914500Y-50339100D01*
X116301600Y-50527500D02*
X115937800Y-50349100D01*
X116323800Y-50539900D02*
X116301600Y-50527500D01*
X116678500Y-50761400D02*
X116323800Y-50539900D01*
X117018600Y-51024600D02*
X116678500Y-50761400D01*
X117330700Y-51321300D02*
X117018600Y-51024600D01*
X117603300Y-51638300D02*
X117330700Y-51321300D01*
X117618900Y-51658400D02*
X117603300Y-51638300D01*
X117850300Y-51990900D02*
X117618900Y-51658400D01*
X117863800Y-52012500D02*
X117850300Y-51990900D01*
X118066400Y-52378300D02*
X117863800Y-52012500D01*
X118236000Y-52773500D02*
X118066400Y-52378300D01*
X118364900Y-53184300D02*
X118236000Y-52773500D01*
X118449400Y-53593800D02*
X118364900Y-53184300D01*
X118453300Y-53618900D02*
X118449400Y-53593800D01*
X118494300Y-54022000D02*
X118453300Y-53618900D01*
X118495500Y-54047400D02*
X118494300Y-54022000D01*
X118495200Y-54465600D02*
X118495500Y-54047400D01*
X118451700Y-54893400D02*
X118495200Y-54465600D01*
X118365000Y-55315200D02*
X118451700Y-54893400D01*
X118240200Y-55714200D02*
X118365000Y-55315200D01*
X118231400Y-55738100D02*
X118240200Y-55714200D01*
X118071600Y-56110400D02*
X118231400Y-55738100D01*
X118060400Y-56133200D02*
X118071600Y-56110400D01*
X117857200Y-56498700D02*
X118060400Y-56133200D01*
X117611200Y-56852100D02*
X117857200Y-56498700D01*
X117331000Y-57178400D02*
X117611200Y-56852100D01*
X117018900Y-57475100D02*
X117331000Y-57178400D01*
X116678500Y-57738700D02*
X117018900Y-57475100D01*
X116323800Y-57960100D02*
X116678500Y-57738700D01*
X116301600Y-57972500D02*
X116323800Y-57960100D01*
X115937900Y-58150900D02*
X116301600Y-57972500D01*
X115914500Y-58160900D02*
X115937900Y-58150900D01*
X115522200Y-58305800D02*
X115914500Y-58160900D01*
X115105900Y-58413600D02*
X115522200Y-58305800D01*
X114679800Y-58478900D02*
X115105900Y-58413600D01*
X114243700Y-58501000D02*
X114679800Y-58478900D01*
X95241200Y-58501000D02*
X114243700Y-58501000D01*
X95144000Y-58505800D02*
X95241200Y-58501000D01*
X95047900Y-58520000D02*
X95144000Y-58505800D01*
X94953600Y-58543600D02*
X95047900Y-58520000D01*
X94862200Y-58576400D02*
X94953600Y-58543600D01*
X94774300Y-58617900D02*
X94862200Y-58576400D01*
X94691000Y-58667900D02*
X94774300Y-58617900D01*
X94613000Y-58725700D02*
X94691000Y-58667900D01*
X94541000Y-58791000D02*
X94613000Y-58725700D01*
X94475700Y-58863000D02*
X94541000Y-58791000D01*
X94417900Y-58941000D02*
X94475700Y-58863000D01*
X94367900Y-59024300D02*
X94417900Y-58941000D01*
X94326400Y-59112100D02*
X94367900Y-59024300D01*
X94293600Y-59203600D02*
X94326400Y-59112100D01*
X94270000Y-59297900D02*
X94293600Y-59203600D01*
X94255800Y-59394000D02*
X94270000Y-59297900D01*
X94251000Y-59491200D02*
X94255800Y-59394000D01*
X94251000Y-60008800D02*
X94251000Y-59491200D01*
X94255800Y-60106000D02*
X94251000Y-60008800D01*
X94270000Y-60202100D02*
X94255800Y-60106000D01*
X94293600Y-60296400D02*
X94270000Y-60202100D01*
X94326400Y-60387900D02*
X94293600Y-60296400D01*
X94367900Y-60475700D02*
X94326400Y-60387900D01*
X94417900Y-60559000D02*
X94367900Y-60475700D01*
X94475700Y-60637000D02*
X94417900Y-60559000D01*
X94541000Y-60709000D02*
X94475700Y-60637000D01*
X94613000Y-60774300D02*
X94541000Y-60709000D01*
X94691000Y-60832200D02*
X94613000Y-60774300D01*
X94774300Y-60882100D02*
X94691000Y-60832200D01*
X94862200Y-60923600D02*
X94774300Y-60882100D01*
X94953600Y-60956400D02*
X94862200Y-60923600D01*
X95047900Y-60980000D02*
X94953600Y-60956400D01*
X95144000Y-60994200D02*
X95047900Y-60980000D01*
X95241200Y-60999000D02*
X95144000Y-60994200D01*
X114243700Y-60999000D02*
X95241200Y-60999000D01*
X114680300Y-61021200D02*
X114243700Y-60999000D01*
X115093100Y-61084100D02*
X114680300Y-61021200D01*
X115117800Y-61089200D02*
X115093100Y-61084100D01*
X115522300Y-61194200D02*
X115117800Y-61089200D01*
X115914500Y-61339100D02*
X115522300Y-61194200D01*
X115937800Y-61349100D02*
X115914500Y-61339100D01*
X116301600Y-61527500D02*
X115937800Y-61349100D01*
X116323800Y-61539900D02*
X116301600Y-61527500D01*
X116678500Y-61761400D02*
X116323800Y-61539900D01*
X117018600Y-62024600D02*
X116678500Y-61761400D01*
X117330700Y-62321300D02*
X117018600Y-62024600D01*
X117603300Y-62638300D02*
X117330700Y-62321300D01*
X117618900Y-62658400D02*
X117603300Y-62638300D01*
X117850300Y-62990900D02*
X117618900Y-62658400D01*
X117863800Y-63012500D02*
X117850300Y-62990900D01*
X118066400Y-63378300D02*
X117863800Y-63012500D01*
X118236000Y-63773500D02*
X118066400Y-63378300D01*
X118364900Y-64184300D02*
X118236000Y-63773500D01*
X118449400Y-64593800D02*
X118364900Y-64184300D01*
X118453300Y-64618900D02*
X118449400Y-64593800D01*
X118494300Y-65022000D02*
X118453300Y-64618900D01*
X118495500Y-65047400D02*
X118494300Y-65022000D01*
X118495200Y-65465600D02*
X118495500Y-65047400D01*
X118451700Y-65893500D02*
X118495200Y-65465600D01*
X118365000Y-66315200D02*
X118451700Y-65893500D01*
X118240200Y-66714200D02*
X118365000Y-66315200D01*
X118231400Y-66738100D02*
X118240200Y-66714200D01*
X118071600Y-67110400D02*
X118231400Y-66738100D01*
X118060400Y-67133200D02*
X118071600Y-67110400D01*
X117857200Y-67498700D02*
X118060400Y-67133200D01*
X117611200Y-67852100D02*
X117857200Y-67498700D01*
X117331000Y-68178400D02*
X117611200Y-67852100D01*
X117018900Y-68475100D02*
X117331000Y-68178400D01*
X116678500Y-68738700D02*
X117018900Y-68475100D01*
X116323800Y-68960100D02*
X116678500Y-68738700D01*
X116301600Y-68972500D02*
X116323800Y-68960100D01*
X115937900Y-69150900D02*
X116301600Y-68972500D01*
X115914500Y-69160900D02*
X115937900Y-69150900D01*
X115522200Y-69305800D02*
X115914500Y-69160900D01*
X115105900Y-69413600D02*
X115522200Y-69305800D01*
X114679800Y-69478900D02*
X115105900Y-69413600D01*
X114243700Y-69501000D02*
X114679800Y-69478900D01*
X95241200Y-69501000D02*
X114243700Y-69501000D01*
X95144000Y-69505800D02*
X95241200Y-69501000D01*
X95047900Y-69520000D02*
X95144000Y-69505800D01*
X94953600Y-69543600D02*
X95047900Y-69520000D01*
X94862200Y-69576400D02*
X94953600Y-69543600D01*
X94774300Y-69617900D02*
X94862200Y-69576400D01*
X94691000Y-69667900D02*
X94774300Y-69617900D01*
X94613000Y-69725700D02*
X94691000Y-69667900D01*
X94541000Y-69791000D02*
X94613000Y-69725700D01*
X94475700Y-69863000D02*
X94541000Y-69791000D01*
X94417900Y-69941000D02*
X94475700Y-69863000D01*
X94367900Y-70024300D02*
X94417900Y-69941000D01*
X94326400Y-70112200D02*
X94367900Y-70024300D01*
X94293600Y-70203600D02*
X94326400Y-70112200D01*
X94270000Y-70297900D02*
X94293600Y-70203600D01*
X94255800Y-70394000D02*
X94270000Y-70297900D01*
X94251000Y-70491200D02*
X94255800Y-70394000D01*
X94251000Y-71008800D02*
X94251000Y-70491200D01*
X94255800Y-71106000D02*
X94251000Y-71008800D01*
X94270000Y-71202100D02*
X94255800Y-71106000D01*
X94293600Y-71296400D02*
X94270000Y-71202100D01*
X94326400Y-71387900D02*
X94293600Y-71296400D01*
X94367900Y-71475700D02*
X94326400Y-71387900D01*
X94417900Y-71559000D02*
X94367900Y-71475700D01*
X94475700Y-71637100D02*
X94417900Y-71559000D01*
X94541000Y-71709000D02*
X94475700Y-71637100D01*
X94613000Y-71774300D02*
X94541000Y-71709000D01*
X94691000Y-71832200D02*
X94613000Y-71774300D01*
X94774300Y-71882100D02*
X94691000Y-71832200D01*
X94862200Y-71923600D02*
X94774300Y-71882100D01*
X94953600Y-71956400D02*
X94862200Y-71923600D01*
X95047900Y-71980000D02*
X94953600Y-71956400D01*
X95144000Y-71994200D02*
X95047900Y-71980000D01*
X95241200Y-71999000D02*
X95144000Y-71994200D01*
X114243700Y-71999000D02*
X95241200Y-71999000D01*
X114680300Y-72021200D02*
X114243700Y-71999000D01*
X115093100Y-72084100D02*
X114680300Y-72021200D01*
X115117800Y-72089200D02*
X115093100Y-72084100D01*
X115522300Y-72194200D02*
X115117800Y-72089200D01*
X115914500Y-72339100D02*
X115522300Y-72194200D01*
X115937800Y-72349100D02*
X115914500Y-72339100D01*
X116301600Y-72527600D02*
X115937800Y-72349100D01*
X116323800Y-72539900D02*
X116301600Y-72527600D01*
X116678500Y-72761400D02*
X116323800Y-72539900D01*
X117018600Y-73024600D02*
X116678500Y-72761400D01*
X117330700Y-73321300D02*
X117018600Y-73024600D01*
X117603300Y-73638300D02*
X117330700Y-73321300D01*
X117618900Y-73658400D02*
X117603300Y-73638300D01*
X117850300Y-73990900D02*
X117618900Y-73658400D01*
X117863800Y-74012500D02*
X117850300Y-73990900D01*
X118066400Y-74378300D02*
X117863800Y-74012500D01*
X118236000Y-74773500D02*
X118066400Y-74378300D01*
X118364900Y-75184400D02*
X118236000Y-74773500D01*
X118449400Y-75593800D02*
X118364900Y-75184400D01*
X118453300Y-75619000D02*
X118449400Y-75593800D01*
X118494300Y-76022000D02*
X118453300Y-75619000D01*
X118495500Y-76047400D02*
X118494300Y-76022000D01*
X118495200Y-76465600D02*
X118495500Y-76047400D01*
X118451700Y-76893500D02*
X118495200Y-76465600D01*
X118365000Y-77315200D02*
X118451700Y-76893500D01*
X118240200Y-77714300D02*
X118365000Y-77315200D01*
X118231400Y-77738100D02*
X118240200Y-77714300D01*
X118071600Y-78110400D02*
X118231400Y-77738100D01*
X118060400Y-78133300D02*
X118071600Y-78110400D01*
X117857200Y-78498700D02*
X118060400Y-78133300D01*
X117611200Y-78852100D02*
X117857200Y-78498700D01*
X117331000Y-79178400D02*
X117611200Y-78852100D01*
X117018900Y-79475100D02*
X117331000Y-79178400D01*
X116678500Y-79738700D02*
X117018900Y-79475100D01*
X116323800Y-79960100D02*
X116678500Y-79738700D01*
X116301600Y-79972500D02*
X116323800Y-79960100D01*
X115937900Y-80150900D02*
X116301600Y-79972500D01*
X115914500Y-80160900D02*
X115937900Y-80150900D01*
X115522200Y-80305800D02*
X115914500Y-80160900D01*
X115105900Y-80413600D02*
X115522200Y-80305800D01*
X114679800Y-80478900D02*
X115105900Y-80413600D01*
X114243700Y-80501000D02*
X114679800Y-80478900D01*
X95241200Y-80501000D02*
X114243700Y-80501000D01*
X95144000Y-80505800D02*
X95241200Y-80501000D01*
X95047900Y-80520000D02*
X95144000Y-80505800D01*
X94953600Y-80543600D02*
X95047900Y-80520000D01*
X94862200Y-80576400D02*
X94953600Y-80543600D01*
X94774300Y-80617900D02*
X94862200Y-80576400D01*
X94691000Y-80667900D02*
X94774300Y-80617900D01*
X94613000Y-80725700D02*
X94691000Y-80667900D01*
X94541000Y-80791000D02*
X94613000Y-80725700D01*
X94475700Y-80863000D02*
X94541000Y-80791000D01*
X94417900Y-80941000D02*
X94475700Y-80863000D01*
X94367900Y-81024300D02*
X94417900Y-80941000D01*
X94326400Y-81112200D02*
X94367900Y-81024300D01*
X94293600Y-81203600D02*
X94326400Y-81112200D01*
X94270000Y-81297900D02*
X94293600Y-81203600D01*
X94255800Y-81394000D02*
X94270000Y-81297900D01*
X94251000Y-81491300D02*
X94255800Y-81394000D01*
X94251000Y-82008800D02*
X94251000Y-81491300D01*
X94255800Y-82106100D02*
X94251000Y-82008800D01*
X94270000Y-82202200D02*
X94255800Y-82106100D01*
X94293600Y-82296400D02*
X94270000Y-82202200D01*
X94326400Y-82387900D02*
X94293600Y-82296400D01*
X94367900Y-82475700D02*
X94326400Y-82387900D01*
X94417900Y-82559000D02*
X94367900Y-82475700D01*
X94475700Y-82637100D02*
X94417900Y-82559000D01*
X94541000Y-82709000D02*
X94475700Y-82637100D01*
X94613000Y-82774300D02*
X94541000Y-82709000D01*
X94691000Y-82832200D02*
X94613000Y-82774300D01*
X94774300Y-82882100D02*
X94691000Y-82832200D01*
X94862200Y-82923600D02*
X94774300Y-82882100D01*
X94953600Y-82956400D02*
X94862200Y-82923600D01*
X95047900Y-82980000D02*
X94953600Y-82956400D01*
X95144000Y-82994200D02*
X95047900Y-82980000D01*
X95241200Y-82999000D02*
X95144000Y-82994200D01*
X114243700Y-82999000D02*
X95241200Y-82999000D01*
X114680300Y-83021200D02*
X114243700Y-82999000D01*
X115093100Y-83084100D02*
X114680300Y-83021200D01*
X115118000Y-83089200D02*
X115093100Y-83084100D01*
X115522300Y-83194200D02*
X115118000Y-83089200D01*
X115914500Y-83339100D02*
X115522300Y-83194200D01*
X115937800Y-83349100D02*
X115914500Y-83339100D01*
X116301600Y-83527600D02*
X115937800Y-83349100D01*
X116323800Y-83539900D02*
X116301600Y-83527600D01*
X116678500Y-83761400D02*
X116323800Y-83539900D01*
X117018600Y-84024600D02*
X116678500Y-83761400D01*
X117330700Y-84321300D02*
X117018600Y-84024600D01*
X117603300Y-84638300D02*
X117330700Y-84321300D01*
X117618900Y-84658400D02*
X117603300Y-84638300D01*
X117850300Y-84990900D02*
X117618900Y-84658400D01*
X117863800Y-85012500D02*
X117850300Y-84990900D01*
X118066400Y-85378300D02*
X117863800Y-85012500D01*
X118236000Y-85773500D02*
X118066400Y-85378300D01*
X118364900Y-86184400D02*
X118236000Y-85773500D01*
X118449400Y-86593800D02*
X118364900Y-86184400D01*
X118453300Y-86619000D02*
X118449400Y-86593800D01*
X118494300Y-87022000D02*
X118453300Y-86619000D01*
X118495500Y-87047400D02*
X118494300Y-87022000D01*
X118495200Y-87465600D02*
X118495500Y-87047400D01*
X118451700Y-87893500D02*
X118495200Y-87465600D01*
X118365000Y-88315200D02*
X118451700Y-87893500D01*
X118240200Y-88714300D02*
X118365000Y-88315200D01*
X118231400Y-88738100D02*
X118240200Y-88714300D01*
X118071600Y-89110400D02*
X118231400Y-88738100D01*
X118060400Y-89133300D02*
X118071600Y-89110400D01*
X117857200Y-89498700D02*
X118060400Y-89133300D01*
X117611200Y-89852100D02*
X117857200Y-89498700D01*
X117331000Y-90178400D02*
X117611200Y-89852100D01*
X117018900Y-90475100D02*
X117331000Y-90178400D01*
X116678500Y-90738700D02*
X117018900Y-90475100D01*
X116323800Y-90960100D02*
X116678500Y-90738700D01*
X116301600Y-90972500D02*
X116323800Y-90960100D01*
X115937900Y-91150900D02*
X116301600Y-90972500D01*
X115914500Y-91160900D02*
X115937900Y-91150900D01*
X115522200Y-91305800D02*
X115914500Y-91160900D01*
X115105400Y-91413700D02*
X115522200Y-91305800D01*
X114679800Y-91478900D02*
X115105400Y-91413700D01*
X114243700Y-91501000D02*
X114679800Y-91478900D01*
X95241200Y-91501000D02*
X114243700Y-91501000D01*
X95144000Y-91505800D02*
X95241200Y-91501000D01*
X95047900Y-91520000D02*
X95144000Y-91505800D01*
X94953600Y-91543600D02*
X95047900Y-91520000D01*
X94862200Y-91576400D02*
X94953600Y-91543600D01*
X94774300Y-91617900D02*
X94862200Y-91576400D01*
X94691000Y-91667900D02*
X94774300Y-91617900D01*
X94613000Y-91725700D02*
X94691000Y-91667900D01*
X94541000Y-91791000D02*
X94613000Y-91725700D01*
X94475700Y-91863000D02*
X94541000Y-91791000D01*
X94417900Y-91941000D02*
X94475700Y-91863000D01*
X94367900Y-92024300D02*
X94417900Y-91941000D01*
X94326400Y-92112200D02*
X94367900Y-92024300D01*
X94293600Y-92203600D02*
X94326400Y-92112200D01*
X94270000Y-92297900D02*
X94293600Y-92203600D01*
X94255800Y-92394000D02*
X94270000Y-92297900D01*
X94251000Y-92491300D02*
X94255800Y-92394000D01*
X94251000Y-93008800D02*
X94251000Y-92491300D01*
X94255800Y-93106100D02*
X94251000Y-93008800D01*
X94270000Y-93202200D02*
X94255800Y-93106100D01*
X94293600Y-93296400D02*
X94270000Y-93202200D01*
X94326400Y-93387900D02*
X94293600Y-93296400D01*
X94367900Y-93475700D02*
X94326400Y-93387900D01*
X94417900Y-93559000D02*
X94367900Y-93475700D01*
X94475700Y-93637100D02*
X94417900Y-93559000D01*
X94541000Y-93709000D02*
X94475700Y-93637100D01*
X94613000Y-93774300D02*
X94541000Y-93709000D01*
X94691000Y-93832200D02*
X94613000Y-93774300D01*
X94774300Y-93882100D02*
X94691000Y-93832200D01*
X94862200Y-93923700D02*
X94774300Y-93882100D01*
X94953600Y-93956400D02*
X94862200Y-93923700D01*
X95047900Y-93980000D02*
X94953600Y-93956400D01*
X95144000Y-93994200D02*
X95047900Y-93980000D01*
X95241200Y-93999000D02*
X95144000Y-93994200D01*
X114243700Y-93999000D02*
X95241200Y-93999000D01*
X114667600Y-94020200D02*
X114243700Y-93999000D01*
X114692600Y-94022800D02*
X114667600Y-94020200D01*
X115105400Y-94086300D02*
X114692600Y-94022800D01*
X115522300Y-94194200D02*
X115105400Y-94086300D01*
X115926100Y-94343800D02*
X115522300Y-94194200D01*
X116312700Y-94533400D02*
X115926100Y-94343800D01*
X116678100Y-94761100D02*
X116312700Y-94533400D01*
X117018600Y-95024700D02*
X116678100Y-94761100D01*
X117330700Y-95321300D02*
X117018600Y-95024700D01*
X117603300Y-95638300D02*
X117330700Y-95321300D01*
X117618900Y-95658400D02*
X117603300Y-95638300D01*
X117857200Y-96001400D02*
X117618900Y-95658400D01*
X118066200Y-96377900D02*
X117857200Y-96001400D01*
X118236200Y-96774000D02*
X118066200Y-96377900D01*
X118361500Y-97172300D02*
X118236200Y-96774000D01*
X118367900Y-97197000D02*
X118361500Y-97172300D01*
X118449400Y-97593800D02*
X118367900Y-97197000D01*
X118453300Y-97619000D02*
X118449400Y-97593800D01*
X118495200Y-98034500D02*
X118453300Y-97619000D01*
X118495500Y-98452600D02*
X118495200Y-98034500D01*
X118494300Y-98478000D02*
X118495500Y-98452600D01*
X118451700Y-98893500D02*
X118494300Y-98478000D01*
X118367900Y-99303100D02*
X118451700Y-98893500D01*
X118361500Y-99327700D02*
X118367900Y-99303100D01*
X118240200Y-99714300D02*
X118361500Y-99327700D01*
X118231400Y-99738100D02*
X118240200Y-99714300D01*
X118066400Y-100121800D02*
X118231400Y-99738100D01*
X117863800Y-100487500D02*
X118066400Y-100121800D01*
X117850300Y-100509100D02*
X117863800Y-100487500D01*
X117611500Y-100851700D02*
X117850300Y-100509100D01*
X117330700Y-101178800D02*
X117611500Y-100851700D01*
X117028200Y-101466700D02*
X117330700Y-101178800D01*
X117008900Y-101483300D02*
X117028200Y-101466700D01*
X116678500Y-101738700D02*
X117008900Y-101483300D01*
X116323800Y-101960100D02*
X116678500Y-101738700D01*
X116301600Y-101972500D02*
X116323800Y-101960100D01*
X115926500Y-102156100D02*
X116301600Y-101972500D01*
X115522700Y-102305700D02*
X115926500Y-102156100D01*
X115105900Y-102413700D02*
X115522700Y-102305700D01*
X114692700Y-102477300D02*
X115105900Y-102413700D01*
X114667400Y-102479900D02*
X114692700Y-102477300D01*
X114243800Y-102501000D02*
X114667400Y-102479900D01*
X95241200Y-102501000D02*
X114243800Y-102501000D01*
X95144000Y-102505800D02*
X95241200Y-102501000D01*
X95047900Y-102520000D02*
X95144000Y-102505800D01*
X94953600Y-102543700D02*
X95047900Y-102520000D01*
X94862200Y-102576400D02*
X94953600Y-102543700D01*
X94774300Y-102617900D02*
X94862200Y-102576400D01*
X94691000Y-102667900D02*
X94774300Y-102617900D01*
X94613000Y-102725700D02*
X94691000Y-102667900D01*
X94541000Y-102791000D02*
X94613000Y-102725700D01*
X94475700Y-102863000D02*
X94541000Y-102791000D01*
X94417900Y-102941000D02*
X94475700Y-102863000D01*
X94367900Y-103024300D02*
X94417900Y-102941000D01*
X94326400Y-103112200D02*
X94367900Y-103024300D01*
X94293600Y-103203600D02*
X94326400Y-103112200D01*
X94270000Y-103297900D02*
X94293600Y-103203600D01*
X94255800Y-103394000D02*
X94270000Y-103297900D01*
X94251000Y-103491300D02*
X94255800Y-103394000D01*
X94251000Y-104008800D02*
X94251000Y-103491300D01*
X94255800Y-104106100D02*
X94251000Y-104008800D01*
X94270000Y-104202200D02*
X94255800Y-104106100D01*
X94293600Y-104296400D02*
X94270000Y-104202200D01*
X94326400Y-104387900D02*
X94293600Y-104296400D01*
X94367900Y-104475700D02*
X94326400Y-104387900D01*
X94417900Y-104559000D02*
X94367900Y-104475700D01*
X94475700Y-104637100D02*
X94417900Y-104559000D01*
X94541000Y-104709100D02*
X94475700Y-104637100D01*
X94613000Y-104774300D02*
X94541000Y-104709100D01*
X94691000Y-104832200D02*
X94613000Y-104774300D01*
X94774300Y-104882100D02*
X94691000Y-104832200D01*
X94862200Y-104923700D02*
X94774300Y-104882100D01*
X94953600Y-104956400D02*
X94862200Y-104923700D01*
X95047900Y-104980000D02*
X94953600Y-104956400D01*
X95144000Y-104994200D02*
X95047900Y-104980000D01*
X95241200Y-104999000D02*
X95144000Y-104994200D01*
X114249900Y-104999100D02*
X95241200Y-104999000D01*
X114680300Y-105021200D02*
X114249900Y-104999100D01*
X115105400Y-105086300D02*
X114680300Y-105021200D01*
X115522300Y-105194200D02*
X115105400Y-105086300D01*
X115914700Y-105339200D02*
X115522300Y-105194200D01*
X115937800Y-105349200D02*
X115914700Y-105339200D01*
X116313100Y-105533600D02*
X115937800Y-105349200D01*
X116667600Y-105754200D02*
X116313100Y-105533600D01*
X116688500Y-105768800D02*
X116667600Y-105754200D01*
X117018600Y-106024700D02*
X116688500Y-105768800D01*
X117321900Y-106312500D02*
X117018600Y-106024700D01*
X117339400Y-106330900D02*
X117321900Y-106312500D01*
X117611200Y-106648000D02*
X117339400Y-106330900D01*
X117857500Y-107001800D02*
X117611200Y-106648000D01*
X118060400Y-107366800D02*
X117857500Y-107001800D01*
X118071600Y-107389600D02*
X118060400Y-107366800D01*
X118236000Y-107773500D02*
X118071600Y-107389600D01*
X118361500Y-108172400D02*
X118236000Y-107773500D01*
X118367900Y-108197000D02*
X118361500Y-108172400D01*
X118451600Y-108606100D02*
X118367900Y-108197000D01*
X118495200Y-109035000D02*
X118451600Y-108606100D01*
X118495500Y-109452600D02*
X118495200Y-109035000D01*
X118494300Y-109478000D02*
X118495500Y-109452600D01*
X118451700Y-109893500D02*
X118494300Y-109478000D01*
X118367900Y-110303100D02*
X118451700Y-109893500D01*
X118361500Y-110327700D02*
X118367900Y-110303100D01*
X118236200Y-110726100D02*
X118361500Y-110327700D01*
X118071600Y-111110400D02*
X118236200Y-110726100D01*
X118060400Y-111133300D02*
X118071600Y-111110400D01*
X117857400Y-111498300D02*
X118060400Y-111133300D01*
X117618900Y-111841600D02*
X117857400Y-111498300D01*
X117603300Y-111861800D02*
X117618900Y-111841600D01*
X117331000Y-112178500D02*
X117603300Y-111861800D01*
X117018600Y-112475500D02*
X117331000Y-112178500D01*
X116678500Y-112738700D02*
X117018600Y-112475500D01*
X116323800Y-112960100D02*
X116678500Y-112738700D01*
X116301600Y-112972500D02*
X116323800Y-112960100D01*
X115937900Y-113150900D02*
X116301600Y-112972500D01*
X115914500Y-113160900D02*
X115937900Y-113150900D01*
X115522200Y-113305900D02*
X115914500Y-113160900D01*
X115105400Y-113413800D02*
X115522200Y-113305900D01*
X114680300Y-113478900D02*
X115105400Y-113413800D01*
X114256400Y-113500700D02*
X114680300Y-113478900D01*
X95241200Y-113501000D02*
X114256400Y-113500700D01*
X95144000Y-113505800D02*
X95241200Y-113501000D01*
X95047900Y-113520000D02*
X95144000Y-113505800D01*
X94953600Y-113543700D02*
X95047900Y-113520000D01*
X94862200Y-113576400D02*
X94953600Y-113543700D01*
X94774300Y-113617900D02*
X94862200Y-113576400D01*
X94691000Y-113667900D02*
X94774300Y-113617900D01*
X94613000Y-113725700D02*
X94691000Y-113667900D01*
X94541000Y-113791000D02*
X94613000Y-113725700D01*
X94475700Y-113863000D02*
X94541000Y-113791000D01*
X94417900Y-113941000D02*
X94475700Y-113863000D01*
X94367900Y-114024300D02*
X94417900Y-113941000D01*
X94326400Y-114112200D02*
X94367900Y-114024300D01*
X94293600Y-114203600D02*
X94326400Y-114112200D01*
X94270000Y-114297900D02*
X94293600Y-114203600D01*
X94255800Y-114394000D02*
X94270000Y-114297900D01*
X94251000Y-114491300D02*
X94255800Y-114394000D01*
X94251000Y-115008800D02*
X94251000Y-114491300D01*
X94255800Y-115106100D02*
X94251000Y-115008800D01*
X94270000Y-115202200D02*
X94255800Y-115106100D01*
X94293600Y-115296400D02*
X94270000Y-115202200D01*
X94326400Y-115387900D02*
X94293600Y-115296400D01*
X94367900Y-115475700D02*
X94326400Y-115387900D01*
X94417900Y-115559000D02*
X94367900Y-115475700D01*
X94475700Y-115637100D02*
X94417900Y-115559000D01*
X94541000Y-115709100D02*
X94475700Y-115637100D01*
X94613000Y-115774300D02*
X94541000Y-115709100D01*
X94691000Y-115832200D02*
X94613000Y-115774300D01*
X94774300Y-115882100D02*
X94691000Y-115832200D01*
X94862200Y-115923700D02*
X94774300Y-115882100D01*
X94953600Y-115956400D02*
X94862200Y-115923700D01*
X95047900Y-115980000D02*
X94953600Y-115956400D01*
X95144000Y-115994300D02*
X95047900Y-115980000D01*
X95241200Y-115999000D02*
X95144000Y-115994300D01*
X114243700Y-115999000D02*
X95241200Y-115999000D01*
X114679800Y-116021200D02*
X114243700Y-115999000D01*
X115105900Y-116086400D02*
X114679800Y-116021200D01*
X115522300Y-116194200D02*
X115105900Y-116086400D01*
X115926100Y-116343800D02*
X115522300Y-116194200D01*
X116312700Y-116533400D02*
X115926100Y-116343800D01*
X116667600Y-116754200D02*
X116312700Y-116533400D01*
X116688500Y-116768800D02*
X116667600Y-116754200D01*
X117008900Y-117016800D02*
X116688500Y-116768800D01*
X117028200Y-117033300D02*
X117008900Y-117016800D01*
X117331100Y-117321700D02*
X117028200Y-117033300D01*
X117611200Y-117648000D02*
X117331100Y-117321700D01*
X117857200Y-118001400D02*
X117611200Y-117648000D01*
X118060400Y-118366800D02*
X117857200Y-118001400D01*
X118071600Y-118389600D02*
X118060400Y-118366800D01*
X118231400Y-118761900D02*
X118071600Y-118389600D01*
X118240200Y-118785800D02*
X118231400Y-118761900D01*
X118365100Y-119184900D02*
X118240200Y-118785800D01*
X118451600Y-119606200D02*
X118365100Y-119184900D01*
X118495200Y-120034500D02*
X118451600Y-119606200D01*
X118495500Y-120452600D02*
X118495200Y-120034500D01*
X118494300Y-120478000D02*
X118495500Y-120452600D01*
X118453300Y-120881100D02*
X118494300Y-120478000D01*
X118449400Y-120906200D02*
X118453300Y-120881100D01*
X118364900Y-121315800D02*
X118449400Y-120906200D01*
X118236200Y-121726100D02*
X118364900Y-121315800D01*
X118066400Y-122121800D02*
X118236200Y-121726100D01*
X117863800Y-122487500D02*
X118066400Y-122121800D01*
X117850300Y-122509100D02*
X117863800Y-122487500D01*
X117618900Y-122841700D02*
X117850300Y-122509100D01*
X117603300Y-122861800D02*
X117618900Y-122841700D01*
X117331000Y-123178500D02*
X117603300Y-122861800D01*
X117028200Y-123466800D02*
X117331000Y-123178500D01*
X117008900Y-123483300D02*
X117028200Y-123466800D01*
X116688500Y-123731300D02*
X117008900Y-123483300D01*
X116667700Y-123745800D02*
X116688500Y-123731300D01*
X116312600Y-123966700D02*
X116667700Y-123745800D01*
X115926500Y-124156200D02*
X116312600Y-123966700D01*
X115522700Y-124305700D02*
X115926500Y-124156200D01*
X115118100Y-124410800D02*
X115522700Y-124305700D01*
X115093100Y-124416000D02*
X115118100Y-124410800D01*
X114680300Y-124478900D02*
X115093100Y-124416000D01*
X114243700Y-124501000D02*
X114680300Y-124478900D01*
X95241200Y-124501000D02*
X114243700Y-124501000D01*
X95144000Y-124505800D02*
X95241200Y-124501000D01*
X95047900Y-124520100D02*
X95144000Y-124505800D01*
X94953600Y-124543700D02*
X95047900Y-124520100D01*
X94862200Y-124576400D02*
X94953600Y-124543700D01*
X94774300Y-124617900D02*
X94862200Y-124576400D01*
X94691000Y-124667900D02*
X94774300Y-124617900D01*
X94613000Y-124725700D02*
X94691000Y-124667900D01*
X94541000Y-124791000D02*
X94613000Y-124725700D01*
X94475700Y-124863000D02*
X94541000Y-124791000D01*
X94417900Y-124941000D02*
X94475700Y-124863000D01*
X94367900Y-125024300D02*
X94417900Y-124941000D01*
X94326400Y-125112200D02*
X94367900Y-125024300D01*
X94293600Y-125203600D02*
X94326400Y-125112200D01*
X94270000Y-125297900D02*
X94293600Y-125203600D01*
X94255800Y-125394000D02*
X94270000Y-125297900D01*
X94251000Y-125491300D02*
X94255800Y-125394000D01*
X94251000Y-126008800D02*
X94251000Y-125491300D01*
X94255800Y-126106100D02*
X94251000Y-126008800D01*
X94270000Y-126202200D02*
X94255800Y-126106100D01*
X94293600Y-126296400D02*
X94270000Y-126202200D01*
X94326400Y-126387900D02*
X94293600Y-126296400D01*
X94367900Y-126475700D02*
X94326400Y-126387900D01*
X94417900Y-126559100D02*
X94367900Y-126475700D01*
X94475700Y-126637100D02*
X94417900Y-126559100D01*
X94541000Y-126709100D02*
X94475700Y-126637100D01*
X94613000Y-126774300D02*
X94541000Y-126709100D01*
X94691000Y-126832200D02*
X94613000Y-126774300D01*
X94774300Y-126882200D02*
X94691000Y-126832200D01*
X94862200Y-126923700D02*
X94774300Y-126882200D01*
X94953600Y-126956400D02*
X94862200Y-126923700D01*
X95047900Y-126980000D02*
X94953600Y-126956400D01*
X95144000Y-126994300D02*
X95047900Y-126980000D01*
X95241300Y-126999100D02*
X95144000Y-126994300D01*
X114243700Y-126999100D02*
X95241300Y-126999100D01*
X114679800Y-127021200D02*
X114243700Y-126999100D01*
X115105900Y-127086400D02*
X114679800Y-127021200D01*
X115522300Y-127194300D02*
X115105900Y-127086400D01*
X115926100Y-127343800D02*
X115522300Y-127194300D01*
X116312700Y-127533400D02*
X115926100Y-127343800D01*
X116667600Y-127754200D02*
X116312700Y-127533400D01*
X116688500Y-127768800D02*
X116667600Y-127754200D01*
X117008900Y-128016800D02*
X116688500Y-127768800D01*
X117028200Y-128033300D02*
X117008900Y-128016800D01*
X117331100Y-128321700D02*
X117028200Y-128033300D01*
X117611200Y-128648000D02*
X117331100Y-128321700D01*
X117857200Y-129001400D02*
X117611200Y-128648000D01*
X118060400Y-129366800D02*
X117857200Y-129001400D01*
X118071600Y-129389600D02*
X118060400Y-129366800D01*
X118231400Y-129762000D02*
X118071600Y-129389600D01*
X118240200Y-129785800D02*
X118231400Y-129762000D01*
X118365100Y-130184900D02*
X118240200Y-129785800D01*
X118451600Y-130606200D02*
X118365100Y-130184900D01*
X118495200Y-131034500D02*
X118451600Y-130606200D01*
X118495500Y-131452600D02*
X118495200Y-131034500D01*
X118494300Y-131478000D02*
X118495500Y-131452600D01*
X118453300Y-131881100D02*
X118494300Y-131478000D01*
X118449400Y-131906200D02*
X118453300Y-131881100D01*
X118364900Y-132315800D02*
X118449400Y-131906200D01*
X118236200Y-132726100D02*
X118364900Y-132315800D01*
X118066400Y-133121800D02*
X118236200Y-132726100D01*
X117863800Y-133487500D02*
X118066400Y-133121800D01*
X117850300Y-133509100D02*
X117863800Y-133487500D01*
X117618900Y-133841700D02*
X117850300Y-133509100D01*
X117603300Y-133861800D02*
X117618900Y-133841700D01*
X117330700Y-134178800D02*
X117603300Y-133861800D01*
X117018900Y-134475100D02*
X117330700Y-134178800D01*
X116678500Y-134738700D02*
X117018900Y-134475100D01*
X116323800Y-134960200D02*
X116678500Y-134738700D01*
X116301600Y-134972500D02*
X116323800Y-134960200D01*
X115937900Y-135150900D02*
X116301600Y-134972500D01*
X115914500Y-135161000D02*
X115937900Y-135150900D01*
X115522700Y-135305700D02*
X115914500Y-135161000D01*
X115117800Y-135410900D02*
X115522700Y-135305700D01*
X115093100Y-135416000D02*
X115117800Y-135410900D01*
X114680300Y-135478900D02*
X115093100Y-135416000D01*
X114243700Y-135501100D02*
X114680300Y-135478900D01*
X95241300Y-135501100D02*
X114243700Y-135501100D01*
X95144000Y-135505900D02*
X95241300Y-135501100D01*
X95047900Y-135520100D02*
X95144000Y-135505900D01*
X94953600Y-135543700D02*
X95047900Y-135520100D01*
X94862200Y-135576500D02*
X94953600Y-135543700D01*
X94774300Y-135618000D02*
X94862200Y-135576500D01*
X94691000Y-135667900D02*
X94774300Y-135618000D01*
X94613000Y-135725800D02*
X94691000Y-135667900D01*
X94541000Y-135791100D02*
X94613000Y-135725800D01*
X94475700Y-135863000D02*
X94541000Y-135791100D01*
X94417900Y-135941100D02*
X94475700Y-135863000D01*
X94367900Y-136024400D02*
X94417900Y-135941100D01*
X94326400Y-136112200D02*
X94367900Y-136024400D01*
X94293600Y-136203700D02*
X94326400Y-136112200D01*
X94270000Y-136297900D02*
X94293600Y-136203700D01*
X94255800Y-136394100D02*
X94270000Y-136297900D01*
X94251000Y-136491300D02*
X94255800Y-136394100D01*
X94251000Y-137009800D02*
X94251000Y-136491300D01*
X94255800Y-137107100D02*
X94251000Y-137009800D01*
X94270000Y-137203200D02*
X94255800Y-137107100D01*
X94293600Y-137297400D02*
X94270000Y-137203200D01*
X94326400Y-137388900D02*
X94293600Y-137297400D01*
X94367900Y-137476700D02*
X94326400Y-137388900D01*
X94417900Y-137560100D02*
X94367900Y-137476700D01*
X94475700Y-137638100D02*
X94417900Y-137560100D01*
X94541000Y-137710100D02*
X94475700Y-137638100D01*
X94613000Y-137775300D02*
X94541000Y-137710100D01*
X94691000Y-137833200D02*
X94613000Y-137775300D01*
X94774300Y-137883200D02*
X94691000Y-137833200D01*
X94862200Y-137924700D02*
X94774300Y-137883200D01*
X94953600Y-137957400D02*
X94862200Y-137924700D01*
X95047900Y-137981000D02*
X94953600Y-137957400D01*
X95144000Y-137995300D02*
X95047900Y-137981000D01*
X95241200Y-138000100D02*
X95144000Y-137995300D01*
X118486300Y-138000900D02*
X95241200Y-138000100D01*
X118490800Y-138002700D02*
X118486300Y-138000900D01*
X118494300Y-138007400D02*
X118490800Y-138002700D01*
X118495500Y-138024600D02*
X118494300Y-138007400D01*
X118495500Y-141976500D02*
X118495500Y-138024600D01*
X118494600Y-141992800D02*
X118495500Y-141976500D01*
X118490800Y-141998400D02*
X118494600Y-141992800D01*
X118486300Y-142000300D02*
X118490800Y-141998400D01*
X118471000Y-142001100D02*
X118486300Y-142000300D01*
X50029000Y-142001100D02*
X118471000Y-142001100D01*
X50012700Y-142000100D02*
X50029000Y-142001100D01*
X50007100Y-141996300D02*
X50012700Y-142000100D01*
X50005200Y-141991900D02*
X50007100Y-141996300D01*
X50004500Y-141976500D02*
X50005200Y-141991900D01*
X50004500Y-138024600D02*
X50004500Y-141976500D01*
X50005700Y-138007400D02*
X50004500Y-138024600D01*
X50008400Y-138003300D02*
X50005700Y-138007400D01*
X50012700Y-138001000D02*
X50008400Y-138003300D01*
X73258800Y-138000100D02*
X50012700Y-138001000D01*
X73356000Y-137995300D02*
X73258800Y-138000100D01*
X73452100Y-137981000D02*
X73356000Y-137995300D01*
X73546400Y-137957400D02*
X73452100Y-137981000D01*
X73637900Y-137924700D02*
X73546400Y-137957400D01*
X73725700Y-137883200D02*
X73637900Y-137924700D01*
X73809000Y-137833200D02*
X73725700Y-137883200D01*
X73887000Y-137775300D02*
X73809000Y-137833200D01*
X73959000Y-137710100D02*
X73887000Y-137775300D01*
X74024300Y-137638100D02*
X73959000Y-137710100D01*
X74082100Y-137560100D02*
X74024300Y-137638100D01*
X74132100Y-137476700D02*
X74082100Y-137560100D01*
X74173600Y-137388900D02*
X74132100Y-137476700D01*
X74206400Y-137297400D02*
X74173600Y-137388900D01*
X74230000Y-137203200D02*
X74206400Y-137297400D01*
X74244200Y-137107100D02*
X74230000Y-137203200D01*
X74249000Y-137009800D02*
X74244200Y-137107100D01*
X74249000Y-136491300D02*
X74249000Y-137009800D01*
X74244200Y-136394000D02*
X74249000Y-136491300D01*
X74230000Y-136297900D02*
X74244200Y-136394000D01*
X74206400Y-136203700D02*
X74230000Y-136297900D01*
X74173600Y-136112200D02*
X74206400Y-136203700D01*
X74132100Y-136024400D02*
X74173600Y-136112200D01*
X74082100Y-135941100D02*
X74132100Y-136024400D01*
X74024300Y-135863000D02*
X74082100Y-135941100D01*
X73959000Y-135791000D02*
X74024300Y-135863000D01*
X73887000Y-135725800D02*
X73959000Y-135791000D01*
X73809000Y-135667900D02*
X73887000Y-135725800D01*
X73725700Y-135618000D02*
X73809000Y-135667900D01*
X73637900Y-135576400D02*
X73725700Y-135618000D01*
X73546400Y-135543700D02*
X73637900Y-135576400D01*
X73452100Y-135520100D02*
X73546400Y-135543700D01*
X73356000Y-135505800D02*
X73452100Y-135520100D01*
X73258800Y-135501100D02*
X73356000Y-135505800D01*
X54256300Y-135501100D02*
X73258800Y-135501100D01*
X53820200Y-135478900D02*
X54256300Y-135501100D01*
X53394100Y-135413700D02*
X53820200Y-135478900D01*
X52977700Y-135305900D02*
X53394100Y-135413700D01*
X52585500Y-135161000D02*
X52977700Y-135305900D01*
X52562200Y-135150900D02*
X52585500Y-135161000D01*
X52198400Y-134972500D02*
X52562200Y-135150900D01*
X52176200Y-134960200D02*
X52198400Y-134972500D01*
X51821500Y-134738700D02*
X52176200Y-134960200D01*
X51481400Y-134475400D02*
X51821500Y-134738700D01*
X51169300Y-134178800D02*
X51481400Y-134475400D01*
X50896700Y-133861800D02*
X51169300Y-134178800D01*
X50881100Y-133841700D02*
X50896700Y-133861800D01*
X50649700Y-133509100D02*
X50881100Y-133841700D01*
X50636200Y-133487600D02*
X50649700Y-133509100D01*
X50433600Y-133121800D02*
X50636200Y-133487600D01*
X50264000Y-132726600D02*
X50433600Y-133121800D01*
X50135100Y-132315700D02*
X50264000Y-132726600D01*
X50050600Y-131906300D02*
X50135100Y-132315700D01*
X50046700Y-131881100D02*
X50050600Y-131906300D01*
X50005700Y-131478000D02*
X50046700Y-131881100D01*
X50004500Y-131452600D02*
X50005700Y-131478000D01*
X50004800Y-131034500D02*
X50004500Y-131452600D01*
X50048300Y-130606600D02*
X50004800Y-131034500D01*
X50135000Y-130184800D02*
X50048300Y-130606600D01*
X50259800Y-129785800D02*
X50135000Y-130184800D01*
X50268600Y-129762000D02*
X50259800Y-129785800D01*
X50428400Y-129389700D02*
X50268600Y-129762000D01*
X50439600Y-129366800D02*
X50428400Y-129389700D01*
X50642800Y-129001400D02*
X50439600Y-129366800D01*
X50888800Y-128648000D02*
X50642800Y-129001400D01*
X51169000Y-128321600D02*
X50888800Y-128648000D01*
X51481100Y-128025000D02*
X51169000Y-128321600D01*
X51821500Y-127761400D02*
X51481100Y-128025000D01*
X52176200Y-127539900D02*
X51821500Y-127761400D01*
X52198400Y-127527600D02*
X52176200Y-127539900D01*
X52562200Y-127349200D02*
X52198400Y-127527600D01*
X52585500Y-127339100D02*
X52562200Y-127349200D01*
X52977800Y-127194200D02*
X52585500Y-127339100D01*
X53394100Y-127086400D02*
X52977800Y-127194200D01*
X53820200Y-127021200D02*
X53394100Y-127086400D01*
X54256300Y-126999100D02*
X53820200Y-127021200D01*
X73258800Y-126999100D02*
X54256300Y-126999100D01*
X73356000Y-126994300D02*
X73258800Y-126999100D01*
X73452100Y-126980100D02*
X73356000Y-126994300D01*
X73546400Y-126956400D02*
X73452100Y-126980100D01*
X73637900Y-126923700D02*
X73546400Y-126956400D01*
X73725700Y-126882200D02*
X73637900Y-126923700D01*
X73809000Y-126832200D02*
X73725700Y-126882200D01*
X73887000Y-126774400D02*
X73809000Y-126832200D01*
X73959000Y-126709100D02*
X73887000Y-126774400D01*
X74024300Y-126637100D02*
X73959000Y-126709100D01*
X74082100Y-126559100D02*
X74024300Y-126637100D01*
X74132100Y-126475800D02*
X74082100Y-126559100D01*
X74173600Y-126387900D02*
X74132100Y-126475800D01*
X74206400Y-126296500D02*
X74173600Y-126387900D01*
X74230000Y-126202200D02*
X74206400Y-126296500D01*
X74244200Y-126106100D02*
X74230000Y-126202200D01*
X74249000Y-126008800D02*
X74244200Y-126106100D01*
X74249000Y-125491300D02*
X74249000Y-126008800D01*
X74244200Y-125394000D02*
X74249000Y-125491300D01*
X74230000Y-125297900D02*
X74244200Y-125394000D01*
X74206400Y-125203700D02*
X74230000Y-125297900D01*
X74173600Y-125112200D02*
X74206400Y-125203700D01*
X74132100Y-125024400D02*
X74173600Y-125112200D01*
X74082100Y-124941000D02*
X74132100Y-125024400D01*
X74024300Y-124863000D02*
X74082100Y-124941000D01*
X73959000Y-124791000D02*
X74024300Y-124863000D01*
X73887000Y-124725800D02*
X73959000Y-124791000D01*
X73809000Y-124667900D02*
X73887000Y-124725800D01*
X73725700Y-124617900D02*
X73809000Y-124667900D01*
X73637900Y-124576400D02*
X73725700Y-124617900D01*
X73546400Y-124543700D02*
X73637900Y-124576400D01*
X73452100Y-124520100D02*
X73546400Y-124543700D01*
X73356000Y-124505800D02*
X73452100Y-124520100D01*
X73258800Y-124501000D02*
X73356000Y-124505800D01*
X54256300Y-124501000D02*
X73258800Y-124501000D01*
X53819700Y-124478900D02*
X54256300Y-124501000D01*
X53406900Y-124416000D02*
X53819700Y-124478900D01*
X53382200Y-124410900D02*
X53406900Y-124416000D01*
X52977700Y-124305900D02*
X53382200Y-124410900D01*
X52585500Y-124161000D02*
X52977700Y-124305900D01*
X52562200Y-124150900D02*
X52585500Y-124161000D01*
X52198400Y-123972500D02*
X52562200Y-124150900D01*
X52176200Y-123960200D02*
X52198400Y-123972500D01*
X51821500Y-123738700D02*
X52176200Y-123960200D01*
X51481400Y-123475400D02*
X51821500Y-123738700D01*
X51169300Y-123178800D02*
X51481400Y-123475400D01*
X50896700Y-122861800D02*
X51169300Y-123178800D01*
X50881100Y-122841700D02*
X50896700Y-122861800D01*
X50649700Y-122509100D02*
X50881100Y-122841700D01*
X50636200Y-122487600D02*
X50649700Y-122509100D01*
X50433600Y-122121800D02*
X50636200Y-122487600D01*
X50264000Y-121726500D02*
X50433600Y-122121800D01*
X50135100Y-121315700D02*
X50264000Y-121726500D01*
X50050600Y-120906300D02*
X50135100Y-121315700D01*
X50046700Y-120881100D02*
X50050600Y-120906300D01*
X50005700Y-120478000D02*
X50046700Y-120881100D01*
X50004500Y-120452600D02*
X50005700Y-120478000D01*
X50004800Y-120034500D02*
X50004500Y-120452600D01*
X50048300Y-119606600D02*
X50004800Y-120034500D01*
X50135000Y-119184800D02*
X50048300Y-119606600D01*
X50259800Y-118785800D02*
X50135000Y-119184800D01*
X50268600Y-118762000D02*
X50259800Y-118785800D01*
X50428400Y-118389600D02*
X50268600Y-118762000D01*
X50439600Y-118366800D02*
X50428400Y-118389600D01*
X50642800Y-118001400D02*
X50439600Y-118366800D01*
X50888800Y-117648000D02*
X50642800Y-118001400D01*
X51169000Y-117321600D02*
X50888800Y-117648000D01*
X51481100Y-117025000D02*
X51169000Y-117321600D01*
X51821500Y-116761400D02*
X51481100Y-117025000D01*
X52176200Y-116539900D02*
X51821500Y-116761400D01*
X52198400Y-116527600D02*
X52176200Y-116539900D01*
X52562200Y-116349200D02*
X52198400Y-116527600D01*
X52585500Y-116339100D02*
X52562200Y-116349200D01*
X52977800Y-116194200D02*
X52585500Y-116339100D01*
X53394100Y-116086400D02*
X52977800Y-116194200D01*
X53820200Y-116021200D02*
X53394100Y-116086400D01*
X54256300Y-115999000D02*
X53820200Y-116021200D01*
X73258800Y-115999000D02*
X54256300Y-115999000D01*
X73356000Y-115994200D02*
X73258800Y-115999000D01*
X73452100Y-115980000D02*
X73356000Y-115994200D01*
X73546400Y-115956400D02*
X73452100Y-115980000D01*
X73637900Y-115923600D02*
X73546400Y-115956400D01*
X73725700Y-115882100D02*
X73637900Y-115923600D01*
X73809000Y-115832200D02*
X73725700Y-115882100D01*
X73887000Y-115774300D02*
X73809000Y-115832200D01*
X73959000Y-115709000D02*
X73887000Y-115774300D01*
X74024300Y-115637100D02*
X73959000Y-115709000D01*
X74082100Y-115559000D02*
X74024300Y-115637100D01*
X74132100Y-115475700D02*
X74082100Y-115559000D01*
X74173600Y-115387900D02*
X74132100Y-115475700D01*
X74206400Y-115296400D02*
X74173600Y-115387900D01*
X74230000Y-115202200D02*
X74206400Y-115296400D01*
X74244200Y-115106100D02*
X74230000Y-115202200D01*
X74249000Y-115008800D02*
X74244200Y-115106100D01*
X74249000Y-114491300D02*
X74249000Y-115008800D01*
X74244200Y-114394000D02*
X74249000Y-114491300D01*
X74230000Y-114297900D02*
X74244200Y-114394000D01*
X74206400Y-114203600D02*
X74230000Y-114297900D01*
X74173600Y-114112200D02*
X74206400Y-114203600D01*
X74132100Y-114024400D02*
X74173600Y-114112200D01*
X74082100Y-113941000D02*
X74132100Y-114024400D01*
X74024300Y-113863000D02*
X74082100Y-113941000D01*
X73959000Y-113791000D02*
X74024300Y-113863000D01*
X73887000Y-113725800D02*
X73959000Y-113791000D01*
X73809000Y-113667900D02*
X73887000Y-113725800D01*
X73725700Y-113617900D02*
X73809000Y-113667900D01*
X73637900Y-113576400D02*
X73725700Y-113617900D01*
X73546400Y-113543700D02*
X73637900Y-113576400D01*
X73452100Y-113520100D02*
X73546400Y-113543700D01*
X73356000Y-113505800D02*
X73452100Y-113520100D01*
X73258800Y-113501000D02*
X73356000Y-113505800D01*
X54256300Y-113501000D02*
X73258800Y-113501000D01*
X53819700Y-113478900D02*
X54256300Y-113501000D01*
X53406900Y-113416000D02*
X53819700Y-113478900D01*
X53382200Y-113410900D02*
X53406900Y-113416000D01*
X52977700Y-113305800D02*
X53382200Y-113410900D01*
X52585500Y-113161000D02*
X52977700Y-113305800D01*
X52562200Y-113150900D02*
X52585500Y-113161000D01*
X52198400Y-112972500D02*
X52562200Y-113150900D01*
X52176200Y-112960200D02*
X52198400Y-112972500D01*
X51821500Y-112738700D02*
X52176200Y-112960200D01*
X51481400Y-112475400D02*
X51821500Y-112738700D01*
X51169300Y-112178800D02*
X51481400Y-112475400D01*
X50896700Y-111861800D02*
X51169300Y-112178800D01*
X50881100Y-111841700D02*
X50896700Y-111861800D01*
X50649700Y-111509100D02*
X50881100Y-111841700D01*
X50636200Y-111487500D02*
X50649700Y-111509100D01*
X50433600Y-111121800D02*
X50636200Y-111487500D01*
X50264000Y-110726500D02*
X50433600Y-111121800D01*
X50135100Y-110315700D02*
X50264000Y-110726500D01*
X50050600Y-109906200D02*
X50135100Y-110315700D01*
X50046700Y-109881100D02*
X50050600Y-109906200D01*
X50005700Y-109478000D02*
X50046700Y-109881100D01*
X50004500Y-109452600D02*
X50005700Y-109478000D01*
X50004800Y-109034500D02*
X50004500Y-109452600D01*
X50048300Y-108606600D02*
X50004800Y-109034500D01*
X50135000Y-108184800D02*
X50048300Y-108606600D01*
X50259800Y-107785800D02*
X50135000Y-108184800D01*
X50268600Y-107762000D02*
X50259800Y-107785800D01*
X50428400Y-107389600D02*
X50268600Y-107762000D01*
X50439600Y-107366800D02*
X50428400Y-107389600D01*
X50642800Y-107001400D02*
X50439600Y-107366800D01*
X50888800Y-106648000D02*
X50642800Y-107001400D01*
X51169000Y-106321600D02*
X50888800Y-106648000D01*
X51481100Y-106025000D02*
X51169000Y-106321600D01*
X51821500Y-105761400D02*
X51481100Y-106025000D01*
X52176200Y-105539900D02*
X51821500Y-105761400D01*
X52198400Y-105527600D02*
X52176200Y-105539900D01*
X52562200Y-105349200D02*
X52198400Y-105527600D01*
X52585500Y-105339100D02*
X52562200Y-105349200D01*
X52977800Y-105194200D02*
X52585500Y-105339100D01*
X53394100Y-105086400D02*
X52977800Y-105194200D01*
X53820200Y-105021100D02*
X53394100Y-105086400D01*
X54256300Y-104999000D02*
X53820200Y-105021100D01*
X73258800Y-104999000D02*
X54256300Y-104999000D01*
X73356000Y-104994200D02*
X73258800Y-104999000D01*
X73452100Y-104980000D02*
X73356000Y-104994200D01*
X73546400Y-104956400D02*
X73452100Y-104980000D01*
X73637900Y-104923600D02*
X73546400Y-104956400D01*
X73725700Y-104882100D02*
X73637900Y-104923600D01*
X73809000Y-104832200D02*
X73725700Y-104882100D01*
X73887000Y-104774300D02*
X73809000Y-104832200D01*
X73959000Y-104709000D02*
X73887000Y-104774300D01*
X74024300Y-104637100D02*
X73959000Y-104709000D01*
X74082100Y-104559000D02*
X74024300Y-104637100D01*
X74132100Y-104475700D02*
X74082100Y-104559000D01*
X74173600Y-104387900D02*
X74132100Y-104475700D01*
X74206400Y-104296400D02*
X74173600Y-104387900D01*
X74230000Y-104202200D02*
X74206400Y-104296400D01*
X74244200Y-104106000D02*
X74230000Y-104202200D01*
X74249000Y-104008800D02*
X74244200Y-104106000D01*
X74249000Y-103491300D02*
X74249000Y-104008800D01*
X74244200Y-103394000D02*
X74249000Y-103491300D01*
X74230000Y-103297900D02*
X74244200Y-103394000D01*
X74206400Y-103203600D02*
X74230000Y-103297900D01*
X74173600Y-103112200D02*
X74206400Y-103203600D01*
X74132100Y-103024300D02*
X74173600Y-103112200D01*
X74082100Y-102941000D02*
X74132100Y-103024300D01*
X74024300Y-102863000D02*
X74082100Y-102941000D01*
X73959000Y-102791000D02*
X74024300Y-102863000D01*
X73887000Y-102725800D02*
X73959000Y-102791000D01*
X73809000Y-102667900D02*
X73887000Y-102725800D01*
X73725700Y-102617900D02*
X73809000Y-102667900D01*
X73637900Y-102576400D02*
X73725700Y-102617900D01*
X73546400Y-102543700D02*
X73637900Y-102576400D01*
X73452100Y-102520100D02*
X73546400Y-102543700D01*
X73356000Y-102505800D02*
X73452100Y-102520100D01*
X73258800Y-102501000D02*
X73356000Y-102505800D01*
X54256300Y-102501000D02*
X73258800Y-102501000D01*
X53819700Y-102478900D02*
X54256300Y-102501000D01*
X53406900Y-102415900D02*
X53819700Y-102478900D01*
X53382000Y-102410800D02*
X53406900Y-102415900D01*
X52977700Y-102305800D02*
X53382000Y-102410800D01*
X52585500Y-102161000D02*
X52977700Y-102305800D01*
X52562200Y-102150900D02*
X52585500Y-102161000D01*
X52198400Y-101972500D02*
X52562200Y-102150900D01*
X52176200Y-101960200D02*
X52198400Y-101972500D01*
X51821500Y-101738700D02*
X52176200Y-101960200D01*
X51481400Y-101475400D02*
X51821500Y-101738700D01*
X51169300Y-101178800D02*
X51481400Y-101475400D01*
X50896700Y-100861800D02*
X51169300Y-101178800D01*
X50881100Y-100841700D02*
X50896700Y-100861800D01*
X50649700Y-100509100D02*
X50881100Y-100841700D01*
X50636200Y-100487500D02*
X50649700Y-100509100D01*
X50433600Y-100121800D02*
X50636200Y-100487500D01*
X50264000Y-99726500D02*
X50433600Y-100121800D01*
X50135100Y-99315700D02*
X50264000Y-99726500D01*
X50050600Y-98906200D02*
X50135100Y-99315700D01*
X50046700Y-98881100D02*
X50050600Y-98906200D01*
X50005700Y-98478000D02*
X50046700Y-98881100D01*
X50004500Y-98452600D02*
X50005700Y-98478000D01*
X50004800Y-98034500D02*
X50004500Y-98452600D01*
X50048300Y-97606600D02*
X50004800Y-98034500D01*
X50135000Y-97184800D02*
X50048300Y-97606600D01*
X50259800Y-96785800D02*
X50135000Y-97184800D01*
X50268600Y-96761900D02*
X50259800Y-96785800D01*
X50428400Y-96389600D02*
X50268600Y-96761900D01*
X50439600Y-96366800D02*
X50428400Y-96389600D01*
X50642800Y-96001300D02*
X50439600Y-96366800D01*
X50888800Y-95647900D02*
X50642800Y-96001300D01*
X51169000Y-95321600D02*
X50888800Y-95647900D01*
X51481100Y-95024900D02*
X51169000Y-95321600D01*
X51821500Y-94761400D02*
X51481100Y-95024900D01*
X52176200Y-94539900D02*
X51821500Y-94761400D01*
X52198400Y-94527600D02*
X52176200Y-94539900D01*
X52562200Y-94349200D02*
X52198400Y-94527600D01*
X52585500Y-94339100D02*
X52562200Y-94349200D01*
X52977800Y-94194200D02*
X52585500Y-94339100D01*
X53394100Y-94086400D02*
X52977800Y-94194200D01*
X53820200Y-94021100D02*
X53394100Y-94086400D01*
X54256300Y-93999000D02*
X53820200Y-94021100D01*
X73258800Y-93999000D02*
X54256300Y-93999000D01*
X73356000Y-93994200D02*
X73258800Y-93999000D01*
X73452100Y-93980000D02*
X73356000Y-93994200D01*
X73546400Y-93956400D02*
X73452100Y-93980000D01*
X73637900Y-93923600D02*
X73546400Y-93956400D01*
X73725700Y-93882100D02*
X73637900Y-93923600D01*
X73809000Y-93832200D02*
X73725700Y-93882100D01*
X73887000Y-93774300D02*
X73809000Y-93832200D01*
X73959000Y-93709000D02*
X73887000Y-93774300D01*
X74024300Y-93637100D02*
X73959000Y-93709000D01*
X74082100Y-93559000D02*
X74024300Y-93637100D01*
X74132100Y-93475700D02*
X74082100Y-93559000D01*
X74173600Y-93387900D02*
X74132100Y-93475700D01*
X74206400Y-93296400D02*
X74173600Y-93387900D01*
X74230000Y-93202100D02*
X74206400Y-93296400D01*
X74244200Y-93106000D02*
X74230000Y-93202100D01*
X74249000Y-93008800D02*
X74244200Y-93106000D01*
X74249000Y-92491300D02*
X74249000Y-93008800D01*
X74244200Y-92394000D02*
X74249000Y-92491300D01*
X74230000Y-92297900D02*
X74244200Y-92394000D01*
X74206400Y-92203600D02*
X74230000Y-92297900D01*
X74173600Y-92112200D02*
X74206400Y-92203600D01*
X74132100Y-92024300D02*
X74173600Y-92112200D01*
X74082100Y-91941000D02*
X74132100Y-92024300D01*
X74024300Y-91863000D02*
X74082100Y-91941000D01*
X73959000Y-91791000D02*
X74024300Y-91863000D01*
X73887000Y-91725700D02*
X73959000Y-91791000D01*
X73809000Y-91667900D02*
X73887000Y-91725700D01*
X73725700Y-91617900D02*
X73809000Y-91667900D01*
X73637900Y-91576400D02*
X73725700Y-91617900D01*
X73546400Y-91543700D02*
X73637900Y-91576400D01*
X73452100Y-91520100D02*
X73546400Y-91543700D01*
X73356000Y-91505800D02*
X73452100Y-91520100D01*
X73258800Y-91501000D02*
X73356000Y-91505800D01*
X54243600Y-91500700D02*
X73258800Y-91501000D01*
X53819700Y-91478900D02*
X54243600Y-91500700D01*
X53394600Y-91413700D02*
X53819700Y-91478900D01*
X52977700Y-91305800D02*
X53394600Y-91413700D01*
X52585500Y-91160900D02*
X52977700Y-91305800D01*
X52562200Y-91150900D02*
X52585500Y-91160900D01*
X52198400Y-90972500D02*
X52562200Y-91150900D01*
X52176200Y-90960100D02*
X52198400Y-90972500D01*
X51821500Y-90738700D02*
X52176200Y-90960100D01*
X51481400Y-90475400D02*
X51821500Y-90738700D01*
X51169000Y-90178400D02*
X51481400Y-90475400D01*
X50896700Y-89861800D02*
X51169000Y-90178400D01*
X50881100Y-89841600D02*
X50896700Y-89861800D01*
X50642800Y-89498700D02*
X50881100Y-89841600D01*
X50439600Y-89133300D02*
X50642800Y-89498700D01*
X50428400Y-89110500D02*
X50439600Y-89133300D01*
X50264000Y-88726500D02*
X50428400Y-89110500D01*
X50138500Y-88327700D02*
X50264000Y-88726500D01*
X50132100Y-88303100D02*
X50138500Y-88327700D01*
X50048400Y-87893900D02*
X50132100Y-88303100D01*
X50005700Y-87478000D02*
X50048400Y-87893900D01*
X50004500Y-87452600D02*
X50005700Y-87478000D01*
X50004800Y-87035000D02*
X50004500Y-87452600D01*
X50048400Y-86606100D02*
X50004800Y-87035000D01*
X50132100Y-86197000D02*
X50048400Y-86606100D01*
X50138500Y-86172400D02*
X50132100Y-86197000D01*
X50263800Y-85774000D02*
X50138500Y-86172400D01*
X50428400Y-85389600D02*
X50263800Y-85774000D01*
X50439600Y-85366800D02*
X50428400Y-85389600D01*
X50642600Y-85001800D02*
X50439600Y-85366800D01*
X50888800Y-84647900D02*
X50642600Y-85001800D01*
X51160600Y-84330900D02*
X50888800Y-84647900D01*
X51178100Y-84312500D02*
X51160600Y-84330900D01*
X51481100Y-84024900D02*
X51178100Y-84312500D01*
X51811500Y-83768800D02*
X51481100Y-84024900D01*
X51832300Y-83754200D02*
X51811500Y-83768800D01*
X52186900Y-83533600D02*
X51832300Y-83754200D01*
X52562200Y-83349100D02*
X52186900Y-83533600D01*
X52585300Y-83339200D02*
X52562200Y-83349100D01*
X52977800Y-83194200D02*
X52585300Y-83339200D01*
X53394600Y-83086300D02*
X52977800Y-83194200D01*
X53819700Y-83021200D02*
X53394600Y-83086300D01*
X54250100Y-82999100D02*
X53819700Y-83021200D01*
X73258800Y-82999000D02*
X54250100Y-82999100D01*
X73356000Y-82994200D02*
X73258800Y-82999000D01*
X73452100Y-82980000D02*
X73356000Y-82994200D01*
X73546400Y-82956400D02*
X73452100Y-82980000D01*
X73637900Y-82923600D02*
X73546400Y-82956400D01*
X73725700Y-82882100D02*
X73637900Y-82923600D01*
X73809000Y-82832200D02*
X73725700Y-82882100D01*
X73887000Y-82774300D02*
X73809000Y-82832200D01*
X73959000Y-82709000D02*
X73887000Y-82774300D01*
X74024300Y-82637000D02*
X73959000Y-82709000D01*
X74082100Y-82559000D02*
X74024300Y-82637000D01*
X74132100Y-82475700D02*
X74082100Y-82559000D01*
X74173600Y-82387900D02*
X74132100Y-82475700D01*
X74206400Y-82296400D02*
X74173600Y-82387900D01*
X74230000Y-82202100D02*
X74206400Y-82296400D01*
X74244200Y-82106000D02*
X74230000Y-82202100D01*
X74249000Y-82008800D02*
X74244200Y-82106000D01*
X74249000Y-81491300D02*
X74249000Y-82008800D01*
X74244200Y-81394000D02*
X74249000Y-81491300D01*
X74230000Y-81297900D02*
X74244200Y-81394000D01*
X74206400Y-81203600D02*
X74230000Y-81297900D01*
X74173600Y-81112200D02*
X74206400Y-81203600D01*
X74132100Y-81024300D02*
X74173600Y-81112200D01*
X74082100Y-80941000D02*
X74132100Y-81024300D01*
X74024300Y-80863000D02*
X74082100Y-80941000D01*
X73959000Y-80791000D02*
X74024300Y-80863000D01*
X73887000Y-80725700D02*
X73959000Y-80791000D01*
X73809000Y-80667900D02*
X73887000Y-80725700D01*
X73725700Y-80617900D02*
X73809000Y-80667900D01*
X73637900Y-80576400D02*
X73725700Y-80617900D01*
X73546400Y-80543700D02*
X73637900Y-80576400D01*
X73452100Y-80520000D02*
X73546400Y-80543700D01*
X73356000Y-80505800D02*
X73452100Y-80520000D01*
X73258800Y-80501000D02*
X73356000Y-80505800D01*
X54256200Y-80501000D02*
X73258800Y-80501000D01*
X53832700Y-80479900D02*
X54256200Y-80501000D01*
X53807400Y-80477300D02*
X53832700Y-80479900D01*
X53394100Y-80413600D02*
X53807400Y-80477300D01*
X52977200Y-80305700D02*
X53394100Y-80413600D01*
X52585500Y-80160900D02*
X52977200Y-80305700D01*
X52562200Y-80150900D02*
X52585500Y-80160900D01*
X52187300Y-79966700D02*
X52562200Y-80150900D01*
X51832400Y-79745800D02*
X52187300Y-79966700D01*
X51811500Y-79731300D02*
X51832400Y-79745800D01*
X51481400Y-79475400D02*
X51811500Y-79731300D01*
X51169300Y-79178800D02*
X51481400Y-79475400D01*
X50888500Y-78851700D02*
X51169300Y-79178800D01*
X50649700Y-78509100D02*
X50888500Y-78851700D01*
X50636200Y-78487500D02*
X50649700Y-78509100D01*
X50439600Y-78133300D02*
X50636200Y-78487500D01*
X50428400Y-78110400D02*
X50439600Y-78133300D01*
X50264000Y-77726500D02*
X50428400Y-78110400D01*
X50138500Y-77327700D02*
X50264000Y-77726500D01*
X50132100Y-77303100D02*
X50138500Y-77327700D01*
X50048400Y-76893900D02*
X50132100Y-77303100D01*
X50004800Y-76465500D02*
X50048400Y-76893900D01*
X50004800Y-76034400D02*
X50004800Y-76465500D01*
X50046700Y-75619000D02*
X50004800Y-76034400D01*
X50050600Y-75593800D02*
X50046700Y-75619000D01*
X50132100Y-75197000D02*
X50050600Y-75593800D01*
X50138500Y-75172400D02*
X50132100Y-75197000D01*
X50263800Y-74773900D02*
X50138500Y-75172400D01*
X50428400Y-74389600D02*
X50263800Y-74773900D01*
X50439600Y-74366800D02*
X50428400Y-74389600D01*
X50642600Y-74001800D02*
X50439600Y-74366800D01*
X50881100Y-73658400D02*
X50642600Y-74001800D01*
X50896700Y-73638300D02*
X50881100Y-73658400D01*
X51169300Y-73321200D02*
X50896700Y-73638300D01*
X51481400Y-73024600D02*
X51169300Y-73321200D01*
X51822000Y-72761100D02*
X51481400Y-73024600D01*
X52187400Y-72533300D02*
X51822000Y-72761100D01*
X52574000Y-72343700D02*
X52187400Y-72533300D01*
X52977800Y-72194200D02*
X52574000Y-72343700D01*
X53394600Y-72086300D02*
X52977800Y-72194200D01*
X53807300Y-72022800D02*
X53394600Y-72086300D01*
X53832400Y-72020200D02*
X53807300Y-72022800D01*
X54256300Y-71999000D02*
X53832400Y-72020200D01*
X73258800Y-71999000D02*
X54256300Y-71999000D01*
X73356000Y-71994200D02*
X73258800Y-71999000D01*
X73452100Y-71980000D02*
X73356000Y-71994200D01*
X73546400Y-71956400D02*
X73452100Y-71980000D01*
X73637900Y-71923600D02*
X73546400Y-71956400D01*
X73725700Y-71882100D02*
X73637900Y-71923600D01*
X73809000Y-71832200D02*
X73725700Y-71882100D01*
X73887000Y-71774300D02*
X73809000Y-71832200D01*
X73959000Y-71709000D02*
X73887000Y-71774300D01*
X74024300Y-71637000D02*
X73959000Y-71709000D01*
X74082100Y-71559000D02*
X74024300Y-71637000D01*
X74132100Y-71475700D02*
X74082100Y-71559000D01*
X74173600Y-71387900D02*
X74132100Y-71475700D01*
X74206400Y-71296400D02*
X74173600Y-71387900D01*
X74230000Y-71202100D02*
X74206400Y-71296400D01*
X74244200Y-71106000D02*
X74230000Y-71202100D01*
X74249000Y-71008800D02*
X74244200Y-71106000D01*
X74249000Y-70491300D02*
X74249000Y-71008800D01*
X74244200Y-70394000D02*
X74249000Y-70491300D01*
X74230000Y-70297900D02*
X74244200Y-70394000D01*
X74206400Y-70203600D02*
X74230000Y-70297900D01*
X74173600Y-70112200D02*
X74206400Y-70203600D01*
X74132100Y-70024300D02*
X74173600Y-70112200D01*
X74082100Y-69941000D02*
X74132100Y-70024300D01*
X74024300Y-69863000D02*
X74082100Y-69941000D01*
X73959000Y-69791000D02*
X74024300Y-69863000D01*
X73887000Y-69725700D02*
X73959000Y-69791000D01*
X73809000Y-69667900D02*
X73887000Y-69725700D01*
X73725700Y-69617900D02*
X73809000Y-69667900D01*
X73637900Y-69576400D02*
X73725700Y-69617900D01*
X73546400Y-69543600D02*
X73637900Y-69576400D01*
X73452100Y-69520000D02*
X73546400Y-69543600D01*
X73356000Y-69505800D02*
X73452100Y-69520000D01*
X73258800Y-69501000D02*
X73356000Y-69505800D01*
X54256300Y-69501000D02*
X73258800Y-69501000D01*
X53820200Y-69478900D02*
X54256300Y-69501000D01*
X53394600Y-69413700D02*
X53820200Y-69478900D01*
X52977700Y-69305800D02*
X53394600Y-69413700D01*
X52585500Y-69160900D02*
X52977700Y-69305800D01*
X52562200Y-69150900D02*
X52585500Y-69160900D01*
X52198400Y-68972500D02*
X52562200Y-69150900D01*
X52176200Y-68960100D02*
X52198400Y-68972500D01*
X51821500Y-68738600D02*
X52176200Y-68960100D01*
X51481000Y-68475100D02*
X51821500Y-68738600D01*
X51169300Y-68178700D02*
X51481000Y-68475100D01*
X50888800Y-67852100D02*
X51169300Y-68178700D01*
X50642800Y-67498700D02*
X50888800Y-67852100D01*
X50439600Y-67133300D02*
X50642800Y-67498700D01*
X50428400Y-67110400D02*
X50439600Y-67133300D01*
X50268600Y-66738100D02*
X50428400Y-67110400D01*
X50259800Y-66714300D02*
X50268600Y-66738100D01*
X50134900Y-66315200D02*
X50259800Y-66714300D01*
X50048400Y-65893900D02*
X50134900Y-66315200D01*
X50004800Y-65465500D02*
X50048400Y-65893900D01*
X50004500Y-65047400D02*
X50004800Y-65465500D01*
X50005700Y-65022000D02*
X50004500Y-65047400D01*
X50046700Y-64619000D02*
X50005700Y-65022000D01*
X50050600Y-64593800D02*
X50046700Y-64619000D01*
X50135100Y-64184300D02*
X50050600Y-64593800D01*
X50263800Y-63773900D02*
X50135100Y-64184300D01*
X50433600Y-63378200D02*
X50263800Y-63773900D01*
X50636200Y-63012500D02*
X50433600Y-63378200D01*
X50649700Y-62990900D02*
X50636200Y-63012500D01*
X50881100Y-62658400D02*
X50649700Y-62990900D01*
X50896700Y-62638300D02*
X50881100Y-62658400D01*
X51169000Y-62321600D02*
X50896700Y-62638300D01*
X51471800Y-62033300D02*
X51169000Y-62321600D01*
X51491100Y-62016700D02*
X51471800Y-62033300D01*
X51811500Y-61768700D02*
X51491100Y-62016700D01*
X51832300Y-61754200D02*
X51811500Y-61768700D01*
X52187400Y-61533300D02*
X51832300Y-61754200D01*
X52573500Y-61343900D02*
X52187400Y-61533300D01*
X52977300Y-61194300D02*
X52573500Y-61343900D01*
X53381900Y-61089200D02*
X52977300Y-61194300D01*
X53406900Y-61084100D02*
X53381900Y-61089200D01*
X53819700Y-61021200D02*
X53406900Y-61084100D01*
X54256300Y-60999000D02*
X53819700Y-61021200D01*
X73258800Y-60999000D02*
X54256300Y-60999000D01*
X73356000Y-60994200D02*
X73258800Y-60999000D01*
X73452100Y-60980000D02*
X73356000Y-60994200D01*
X73546400Y-60956400D02*
X73452100Y-60980000D01*
X73637900Y-60923600D02*
X73546400Y-60956400D01*
X73725700Y-60882100D02*
X73637900Y-60923600D01*
X73809000Y-60832100D02*
X73725700Y-60882100D01*
X73887000Y-60774300D02*
X73809000Y-60832100D01*
X73959000Y-60709000D02*
X73887000Y-60774300D01*
X74024300Y-60637000D02*
X73959000Y-60709000D01*
X74082100Y-60559000D02*
X74024300Y-60637000D01*
X74132100Y-60475700D02*
X74082100Y-60559000D01*
X74173600Y-60387900D02*
X74132100Y-60475700D01*
X74206400Y-60296400D02*
X74173600Y-60387900D01*
X74230000Y-60202100D02*
X74206400Y-60296400D01*
X74244200Y-60106000D02*
X74230000Y-60202100D01*
X74249000Y-60008800D02*
X74244200Y-60106000D01*
X74249000Y-59491200D02*
X74249000Y-60008800D01*
X74244200Y-59394000D02*
X74249000Y-59491200D01*
X74230000Y-59297900D02*
X74244200Y-59394000D01*
X74206400Y-59203600D02*
X74230000Y-59297900D01*
X74173600Y-59112100D02*
X74206400Y-59203600D01*
X74132100Y-59024300D02*
X74173600Y-59112100D01*
X74082100Y-58941000D02*
X74132100Y-59024300D01*
X74024300Y-58863000D02*
X74082100Y-58941000D01*
X73959000Y-58791000D02*
X74024300Y-58863000D01*
X73887000Y-58725700D02*
X73959000Y-58791000D01*
X73809000Y-58667900D02*
X73887000Y-58725700D01*
X73725700Y-58617900D02*
X73809000Y-58667900D01*
X73637900Y-58576400D02*
X73725700Y-58617900D01*
X73546400Y-58543600D02*
X73637900Y-58576400D01*
X73452100Y-58520000D02*
X73546400Y-58543600D01*
X73356000Y-58505800D02*
X73452100Y-58520000D01*
X73258800Y-58501000D02*
X73356000Y-58505800D01*
X54256300Y-58501000D02*
X73258800Y-58501000D01*
X53820200Y-58478900D02*
X54256300Y-58501000D01*
X53394100Y-58413600D02*
X53820200Y-58478900D01*
X52977700Y-58305800D02*
X53394100Y-58413600D01*
X52573900Y-58156300D02*
X52977700Y-58305800D01*
X52187300Y-57966700D02*
X52573900Y-58156300D01*
X51832400Y-57745800D02*
X52187300Y-57966700D01*
X51811500Y-57731300D02*
X51832400Y-57745800D01*
X51491100Y-57483300D02*
X51811500Y-57731300D01*
X51471800Y-57466700D02*
X51491100Y-57483300D01*
X51169000Y-57178400D02*
X51471800Y-57466700D01*
X50888800Y-56852000D02*
X51169000Y-57178400D01*
X50642800Y-56498600D02*
X50888800Y-56852000D01*
X50439600Y-56133300D02*
X50642800Y-56498600D01*
X50428400Y-56110400D02*
X50439600Y-56133300D01*
X50268600Y-55738100D02*
X50428400Y-56110400D01*
X50259800Y-55714300D02*
X50268600Y-55738100D01*
X50134900Y-55315200D02*
X50259800Y-55714300D01*
X50048400Y-54893900D02*
X50134900Y-55315200D01*
X50004800Y-54465500D02*
X50048400Y-54893900D01*
X50004500Y-54047400D02*
X50004800Y-54465500D01*
X50005700Y-54022000D02*
X50004500Y-54047400D01*
X50046700Y-53619000D02*
X50005700Y-54022000D01*
X50050600Y-53593800D02*
X50046700Y-53619000D01*
X50135100Y-53184300D02*
X50050600Y-53593800D01*
X50263800Y-52773900D02*
X50135100Y-53184300D01*
X50433600Y-52378200D02*
X50263800Y-52773900D01*
X50636200Y-52012500D02*
X50433600Y-52378200D01*
X50649700Y-51990900D02*
X50636200Y-52012500D01*
X50881100Y-51658400D02*
X50649700Y-51990900D01*
X50896700Y-51638300D02*
X50881100Y-51658400D01*
X51169300Y-51321200D02*
X50896700Y-51638300D01*
X51481100Y-51024900D02*
X51169300Y-51321200D01*
X51821500Y-50761300D02*
X51481100Y-51024900D01*
X52176200Y-50539900D02*
X51821500Y-50761300D01*
X52198400Y-50527600D02*
X52176200Y-50539900D01*
X52562200Y-50349100D02*
X52198400Y-50527600D01*
X52585500Y-50339100D02*
X52562200Y-50349100D01*
X52977300Y-50194300D02*
X52585500Y-50339100D01*
X53382200Y-50089200D02*
X52977300Y-50194300D01*
X53406900Y-50084100D02*
X53382200Y-50089200D01*
X53819700Y-50021200D02*
X53406900Y-50084100D01*
X54256300Y-49999000D02*
X53819700Y-50021200D01*
X73258800Y-49999000D02*
X54256300Y-49999000D01*
X73356000Y-49994200D02*
X73258800Y-49999000D01*
X73452100Y-49980000D02*
X73356000Y-49994200D01*
X73546400Y-49956400D02*
X73452100Y-49980000D01*
X73637900Y-49923600D02*
X73546400Y-49956400D01*
X73725700Y-49882100D02*
X73637900Y-49923600D01*
X73809000Y-49832100D02*
X73725700Y-49882100D01*
X73887000Y-49774300D02*
X73809000Y-49832100D01*
X73959000Y-49709000D02*
X73887000Y-49774300D01*
X74024300Y-49637000D02*
X73959000Y-49709000D01*
X74082100Y-49559000D02*
X74024300Y-49637000D01*
X74132100Y-49475700D02*
X74082100Y-49559000D01*
X74173600Y-49387900D02*
X74132100Y-49475700D01*
X74206400Y-49296400D02*
X74173600Y-49387900D01*
X74230000Y-49202100D02*
X74206400Y-49296400D01*
X74244200Y-49106000D02*
X74230000Y-49202100D01*
X74249000Y-49008800D02*
X74244200Y-49106000D01*
X74249000Y-48490200D02*
X74249000Y-49008800D01*
X74244200Y-48393000D02*
X74249000Y-48490200D01*
X74230000Y-48296900D02*
X74244200Y-48393000D01*
X74206400Y-48202600D02*
X74230000Y-48296900D01*
X74173600Y-48111100D02*
X74206400Y-48202600D01*
X74132100Y-48023300D02*
X74173600Y-48111100D01*
X74082100Y-47940000D02*
X74132100Y-48023300D01*
X74024300Y-47862000D02*
X74082100Y-47940000D01*
X73959000Y-47790000D02*
X74024300Y-47862000D01*
X73887000Y-47724700D02*
X73959000Y-47790000D01*
X73809000Y-47666900D02*
X73887000Y-47724700D01*
X73725700Y-47616900D02*
X73809000Y-47666900D01*
X73637900Y-47575400D02*
X73725700Y-47616900D01*
X73546400Y-47542600D02*
X73637900Y-47575400D01*
X73452100Y-47519000D02*
X73546400Y-47542600D01*
X73356000Y-47504800D02*
X73452100Y-47519000D01*
X73258800Y-47500000D02*
X73356000Y-47504800D01*
X50013700Y-47499200D02*
X73258800Y-47500000D01*
X50009200Y-47497400D02*
X50013700Y-47499200D01*
X50005700Y-47492700D02*
X50009200Y-47497400D01*
X50004500Y-47475500D02*
X50005700Y-47492700D01*
X50004500Y-43523500D02*
X50004500Y-47475500D01*
X50006100Y-43505400D02*
X50004500Y-43523500D01*
X50009200Y-43501600D02*
X50006100Y-43505400D01*
X50014600Y-43499700D02*
X50009200Y-43501600D01*
M02*
