M48
; DRILL file {KiCad 5.1.5+dfsg1-2build2} date Sun Oct 10 04:01:29 2021
; FORMAT={-:-/ absolute / metric / decimal}
; #@! TF.CreationDate,2021-10-10T04:01:29+00:00
; #@! TF.GenerationSoftware,Kicad,Pcbnew,5.1.5+dfsg1-2build2
FMAT,2
METRIC
T1C0.400
T2C1.000
T3C1.500
%
G90
G05
T1
X59.5Y-57.25
X59.5Y-58.5
X59.5Y-59.75
X59.5Y-76.75
X59.5Y-78.0
X59.5Y-79.25
X59.5Y-96.25
X59.5Y-97.5
X59.5Y-98.75
X59.5Y-115.75
X59.5Y-117.0
X59.5Y-118.25
X117.5Y-56.75
X117.5Y-59.75
X117.5Y-76.25
X117.5Y-79.25
X117.5Y-95.75
X117.5Y-98.75
X117.5Y-115.25
X117.5Y-118.25
X120.0Y-56.5
X120.0Y-60.5
X120.0Y-76.0
X120.0Y-80.0
X120.0Y-95.5
X120.0Y-99.5
X120.0Y-115.0
X120.0Y-119.0
T2
X69.0Y-97.5
X69.0Y-117.0
X100.0Y-58.5
X100.0Y-78.0
X77.0Y-58.5
X77.0Y-78.0
X100.0Y-97.5
X100.0Y-117.0
X108.0Y-58.5
X108.0Y-78.0
X77.0Y-97.5
X77.0Y-117.0
X108.0Y-97.5
X108.0Y-117.0
X69.0Y-58.5
X69.0Y-78.0
T3
X53.999Y-45.499
X123.001Y-45.499
X53.999Y-130.001
T0
M30
