G04 #@! TF.GenerationSoftware,KiCad,Pcbnew,5.1.5+dfsg1-2build2*
G04 #@! TF.CreationDate,2021-10-10T04:01:29+00:00*
G04 #@! TF.ProjectId,base_3.3,62617365-5f33-42e3-932e-6b696361645f,rev?*
G04 #@! TF.SameCoordinates,Original*
G04 #@! TF.FileFunction,Legend,Bot*
G04 #@! TF.FilePolarity,Positive*
%FSLAX46Y46*%
G04 Gerber Fmt 4.6, Leading zero omitted, Abs format (unit mm)*
G04 Created by KiCad (PCBNEW 5.1.5+dfsg1-2build2) date 2021-10-10 04:01:29*
%MOMM*%
%LPD*%
G04 APERTURE LIST*
G04 #@! TA.AperFunction,Profile*
%ADD10C,0.100000*%
G04 #@! TD*
%ADD11C,0.150000*%
%ADD12C,0.010000*%
G04 APERTURE END LIST*
D10*
X118749900Y-102715900D02*
X118651100Y-102736200D01*
X118846400Y-102685700D02*
X118749900Y-102715900D01*
X118939300Y-102645900D02*
X118846400Y-102685700D01*
X119027600Y-102596800D02*
X118939300Y-102645900D01*
X119110800Y-102538900D02*
X119027600Y-102596800D01*
X119187500Y-102473100D02*
X119110800Y-102538900D01*
X119257100Y-102399800D02*
X119187500Y-102473100D01*
X119319000Y-102319900D02*
X119257100Y-102399800D01*
X119372400Y-102234100D02*
X119319000Y-102319900D01*
X119416900Y-102143400D02*
X119372400Y-102234100D01*
X119452000Y-102048600D02*
X119416900Y-102143400D01*
X119477300Y-101950700D02*
X119452000Y-102048600D01*
X119492600Y-101850800D02*
X119477300Y-101950700D01*
X119497700Y-101749900D02*
X119492600Y-101850800D01*
X119492600Y-101649200D02*
X119497700Y-101749900D01*
X119477300Y-101549300D02*
X119492600Y-101649200D01*
X119452000Y-101451500D02*
X119477300Y-101549300D01*
X119416900Y-101356700D02*
X119452000Y-101451500D01*
X119372400Y-101266000D02*
X119416900Y-101356700D01*
X119319000Y-101180200D02*
X119372400Y-101266000D01*
X119257100Y-101100300D02*
X119319000Y-101180200D01*
X119187300Y-101026800D02*
X119257100Y-101100300D01*
X119110600Y-100961000D02*
X119187300Y-101026800D01*
X119027600Y-100903300D02*
X119110600Y-100961000D01*
X118939300Y-100854200D02*
X119027600Y-100903300D01*
X118846600Y-100814500D02*
X118939300Y-100854200D01*
X118750200Y-100784200D02*
X118846600Y-100814500D01*
X118651200Y-100763800D02*
X118750200Y-100784200D01*
X118550700Y-100753600D02*
X118651200Y-100763800D01*
X118474800Y-100751000D02*
X118550700Y-100753600D01*
X58525400Y-100751000D02*
X118474800Y-100751000D01*
X58449200Y-100753600D02*
X58525400Y-100751000D01*
X58348800Y-100763800D02*
X58449200Y-100753600D01*
X58249800Y-100784200D02*
X58348800Y-100763800D01*
X58153400Y-100814500D02*
X58249800Y-100784200D01*
X58060500Y-100854300D02*
X58153400Y-100814500D01*
X57972100Y-100903400D02*
X58060500Y-100854300D01*
X57889200Y-100961100D02*
X57972100Y-100903400D01*
X57812500Y-101027000D02*
X57889200Y-100961100D01*
X57742900Y-101100300D02*
X57812500Y-101027000D01*
X57681000Y-101180200D02*
X57742900Y-101100300D01*
X57627600Y-101266000D02*
X57681000Y-101180200D01*
X57583100Y-101356700D02*
X57627600Y-101266000D01*
X57548100Y-101451200D02*
X57583100Y-101356700D01*
X57522700Y-101549100D02*
X57548100Y-101451200D01*
X57507400Y-101649000D02*
X57522700Y-101549100D01*
X57502300Y-101749900D02*
X57507400Y-101649000D01*
X57507400Y-101850800D02*
X57502300Y-101749900D01*
X57522700Y-101950700D02*
X57507400Y-101850800D01*
X57548000Y-102048600D02*
X57522700Y-101950700D01*
X57583100Y-102143400D02*
X57548000Y-102048600D01*
X57627600Y-102234100D02*
X57583100Y-102143400D01*
X57681000Y-102319900D02*
X57627600Y-102234100D01*
X57742900Y-102399800D02*
X57681000Y-102319900D01*
X57812500Y-102473100D02*
X57742900Y-102399800D01*
X57889200Y-102538900D02*
X57812500Y-102473100D01*
X57972100Y-102596700D02*
X57889200Y-102538900D01*
X58060500Y-102645700D02*
X57972100Y-102596700D01*
X58153400Y-102685600D02*
X58060500Y-102645700D01*
X58249800Y-102715900D02*
X58153400Y-102685600D01*
X58348800Y-102736200D02*
X58249800Y-102715900D01*
X58449300Y-102746500D02*
X58348800Y-102736200D01*
X58525200Y-102749000D02*
X58449300Y-102746500D01*
X118474900Y-102749000D02*
X58525200Y-102749000D01*
X118550500Y-102746500D02*
X118474900Y-102749000D01*
X118651100Y-102736200D02*
X118550500Y-102746500D01*
X118749900Y-94215900D02*
X118651100Y-94236200D01*
X118846400Y-94185700D02*
X118749900Y-94215900D01*
X118939300Y-94145900D02*
X118846400Y-94185700D01*
X119027600Y-94096800D02*
X118939300Y-94145900D01*
X119110800Y-94038900D02*
X119027600Y-94096800D01*
X119187500Y-93973100D02*
X119110800Y-94038900D01*
X119257100Y-93899800D02*
X119187500Y-93973100D01*
X119319000Y-93819900D02*
X119257100Y-93899800D01*
X119372400Y-93734100D02*
X119319000Y-93819900D01*
X119416900Y-93643400D02*
X119372400Y-93734100D01*
X119452000Y-93548600D02*
X119416900Y-93643400D01*
X119477300Y-93450700D02*
X119452000Y-93548600D01*
X119492600Y-93350800D02*
X119477300Y-93450700D01*
X119497700Y-93249900D02*
X119492600Y-93350800D01*
X119492600Y-93149200D02*
X119497700Y-93249900D01*
X119477300Y-93049300D02*
X119492600Y-93149200D01*
X119452000Y-92951500D02*
X119477300Y-93049300D01*
X119416900Y-92856700D02*
X119452000Y-92951500D01*
X119372400Y-92766000D02*
X119416900Y-92856700D01*
X119319000Y-92680200D02*
X119372400Y-92766000D01*
X119257100Y-92600300D02*
X119319000Y-92680200D01*
X119187300Y-92526800D02*
X119257100Y-92600300D01*
X119110600Y-92461000D02*
X119187300Y-92526800D01*
X119027600Y-92403300D02*
X119110600Y-92461000D01*
X118939300Y-92354200D02*
X119027600Y-92403300D01*
X118846600Y-92314500D02*
X118939300Y-92354200D01*
X118750200Y-92284200D02*
X118846600Y-92314500D01*
X118651200Y-92263800D02*
X118750200Y-92284200D01*
X118550700Y-92253600D02*
X118651200Y-92263800D01*
X118474800Y-92251000D02*
X118550700Y-92253600D01*
X58525400Y-92251000D02*
X118474800Y-92251000D01*
X58449200Y-92253600D02*
X58525400Y-92251000D01*
X58348800Y-92263800D02*
X58449200Y-92253600D01*
X58249800Y-92284200D02*
X58348800Y-92263800D01*
X58153400Y-92314500D02*
X58249800Y-92284200D01*
X58060500Y-92354300D02*
X58153400Y-92314500D01*
X57972100Y-92403400D02*
X58060500Y-92354300D01*
X57889200Y-92461100D02*
X57972100Y-92403400D01*
X57812500Y-92527000D02*
X57889200Y-92461100D01*
X57742900Y-92600300D02*
X57812500Y-92527000D01*
X57681000Y-92680200D02*
X57742900Y-92600300D01*
X57627600Y-92766000D02*
X57681000Y-92680200D01*
X57583100Y-92856700D02*
X57627600Y-92766000D01*
X57548100Y-92951200D02*
X57583100Y-92856700D01*
X57522700Y-93049100D02*
X57548100Y-92951200D01*
X57507400Y-93149000D02*
X57522700Y-93049100D01*
X57502300Y-93249900D02*
X57507400Y-93149000D01*
X57507400Y-93350800D02*
X57502300Y-93249900D01*
X57522700Y-93450700D02*
X57507400Y-93350800D01*
X57548000Y-93548600D02*
X57522700Y-93450700D01*
X57583100Y-93643400D02*
X57548000Y-93548600D01*
X57627600Y-93734100D02*
X57583100Y-93643400D01*
X57681000Y-93819900D02*
X57627600Y-93734100D01*
X57742900Y-93899800D02*
X57681000Y-93819900D01*
X57812500Y-93973100D02*
X57742900Y-93899800D01*
X57889200Y-94038900D02*
X57812500Y-93973100D01*
X57972100Y-94096700D02*
X57889200Y-94038900D01*
X58060500Y-94145700D02*
X57972100Y-94096700D01*
X58153400Y-94185600D02*
X58060500Y-94145700D01*
X58249800Y-94215900D02*
X58153400Y-94185600D01*
X58348800Y-94236200D02*
X58249800Y-94215900D01*
X58449300Y-94246500D02*
X58348800Y-94236200D01*
X58525200Y-94249000D02*
X58449300Y-94246500D01*
X118474900Y-94249000D02*
X58525200Y-94249000D01*
X118550500Y-94246500D02*
X118474900Y-94249000D01*
X118651100Y-94236200D02*
X118550500Y-94246500D01*
X118749900Y-83215900D02*
X118651000Y-83236200D01*
X118846400Y-83185700D02*
X118749900Y-83215900D01*
X118939300Y-83145800D02*
X118846400Y-83185700D01*
X119027600Y-83096800D02*
X118939300Y-83145800D01*
X119110800Y-83038900D02*
X119027600Y-83096800D01*
X119187500Y-82973100D02*
X119110800Y-83038900D01*
X119257100Y-82899800D02*
X119187500Y-82973100D01*
X119319000Y-82819900D02*
X119257100Y-82899800D01*
X119372400Y-82734100D02*
X119319000Y-82819900D01*
X119416900Y-82643300D02*
X119372400Y-82734100D01*
X119452000Y-82548600D02*
X119416900Y-82643300D01*
X119477300Y-82450700D02*
X119452000Y-82548600D01*
X119492600Y-82350800D02*
X119477300Y-82450700D01*
X119497700Y-82249900D02*
X119492600Y-82350800D01*
X119492600Y-82149200D02*
X119497700Y-82249900D01*
X119477300Y-82049300D02*
X119492600Y-82149200D01*
X119452000Y-81951500D02*
X119477300Y-82049300D01*
X119416900Y-81856700D02*
X119452000Y-81951500D01*
X119372400Y-81765900D02*
X119416900Y-81856700D01*
X119319000Y-81680200D02*
X119372400Y-81765900D01*
X119257100Y-81600200D02*
X119319000Y-81680200D01*
X119187300Y-81526800D02*
X119257100Y-81600200D01*
X119110600Y-81461000D02*
X119187300Y-81526800D01*
X119027600Y-81403200D02*
X119110600Y-81461000D01*
X118939300Y-81354200D02*
X119027600Y-81403200D01*
X118846600Y-81314500D02*
X118939300Y-81354200D01*
X118750200Y-81284200D02*
X118846600Y-81314500D01*
X118651200Y-81263800D02*
X118750200Y-81284200D01*
X118550700Y-81253600D02*
X118651200Y-81263800D01*
X118474800Y-81251000D02*
X118550700Y-81253600D01*
X58525300Y-81251000D02*
X118474800Y-81251000D01*
X58449200Y-81253600D02*
X58525300Y-81251000D01*
X58348800Y-81263800D02*
X58449200Y-81253600D01*
X58249800Y-81284200D02*
X58348800Y-81263800D01*
X58153400Y-81314500D02*
X58249800Y-81284200D01*
X58060500Y-81354300D02*
X58153400Y-81314500D01*
X57972100Y-81403400D02*
X58060500Y-81354300D01*
X57889200Y-81461100D02*
X57972100Y-81403400D01*
X57812500Y-81527000D02*
X57889200Y-81461100D01*
X57742900Y-81600200D02*
X57812500Y-81527000D01*
X57681000Y-81680200D02*
X57742900Y-81600200D01*
X57627600Y-81765900D02*
X57681000Y-81680200D01*
X57583100Y-81856700D02*
X57627600Y-81765900D01*
X57548100Y-81951200D02*
X57583100Y-81856700D01*
X57522700Y-82049000D02*
X57548100Y-81951200D01*
X57507400Y-82148900D02*
X57522700Y-82049000D01*
X57502300Y-82249900D02*
X57507400Y-82148900D01*
X57507400Y-82350800D02*
X57502300Y-82249900D01*
X57522700Y-82450700D02*
X57507400Y-82350800D01*
X57548000Y-82548600D02*
X57522700Y-82450700D01*
X57583100Y-82643300D02*
X57548000Y-82548600D01*
X57627600Y-82734100D02*
X57583100Y-82643300D01*
X57681000Y-82819900D02*
X57627600Y-82734100D01*
X57742900Y-82899800D02*
X57681000Y-82819900D01*
X57812500Y-82973100D02*
X57742900Y-82899800D01*
X57889200Y-83038900D02*
X57812500Y-82973100D01*
X57972100Y-83096700D02*
X57889200Y-83038900D01*
X58060500Y-83145700D02*
X57972100Y-83096700D01*
X58153400Y-83185600D02*
X58060500Y-83145700D01*
X58249800Y-83215800D02*
X58153400Y-83185600D01*
X58348800Y-83236200D02*
X58249800Y-83215800D01*
X58449300Y-83246400D02*
X58348800Y-83236200D01*
X58525200Y-83249000D02*
X58449300Y-83246400D01*
X118474800Y-83249000D02*
X58525200Y-83249000D01*
X118550600Y-83246400D02*
X118474800Y-83249000D01*
X118651000Y-83236200D02*
X118550600Y-83246400D01*
X118749900Y-74715900D02*
X118651000Y-74736200D01*
X118846400Y-74685700D02*
X118749900Y-74715900D01*
X118939300Y-74645800D02*
X118846400Y-74685700D01*
X119027600Y-74596800D02*
X118939300Y-74645800D01*
X119110800Y-74538900D02*
X119027600Y-74596800D01*
X119187500Y-74473100D02*
X119110800Y-74538900D01*
X119257100Y-74399800D02*
X119187500Y-74473100D01*
X119319000Y-74319900D02*
X119257100Y-74399800D01*
X119372400Y-74234100D02*
X119319000Y-74319900D01*
X119416900Y-74143300D02*
X119372400Y-74234100D01*
X119452000Y-74048600D02*
X119416900Y-74143300D01*
X119477300Y-73950700D02*
X119452000Y-74048600D01*
X119492600Y-73850800D02*
X119477300Y-73950700D01*
X119497700Y-73749900D02*
X119492600Y-73850800D01*
X119492600Y-73649200D02*
X119497700Y-73749900D01*
X119477300Y-73549300D02*
X119492600Y-73649200D01*
X119452000Y-73451500D02*
X119477300Y-73549300D01*
X119416900Y-73356700D02*
X119452000Y-73451500D01*
X119372400Y-73265900D02*
X119416900Y-73356700D01*
X119319000Y-73180200D02*
X119372400Y-73265900D01*
X119257100Y-73100200D02*
X119319000Y-73180200D01*
X119187300Y-73026800D02*
X119257100Y-73100200D01*
X119110600Y-72961000D02*
X119187300Y-73026800D01*
X119027600Y-72903200D02*
X119110600Y-72961000D01*
X118939300Y-72854200D02*
X119027600Y-72903200D01*
X118846600Y-72814500D02*
X118939300Y-72854200D01*
X118750200Y-72784200D02*
X118846600Y-72814500D01*
X118651200Y-72763800D02*
X118750200Y-72784200D01*
X118550700Y-72753600D02*
X118651200Y-72763800D01*
X118474800Y-72751000D02*
X118550700Y-72753600D01*
X58525300Y-72751000D02*
X118474800Y-72751000D01*
X58449200Y-72753600D02*
X58525300Y-72751000D01*
X58348800Y-72763800D02*
X58449200Y-72753600D01*
X58249800Y-72784200D02*
X58348800Y-72763800D01*
X58153400Y-72814500D02*
X58249800Y-72784200D01*
X58060500Y-72854300D02*
X58153400Y-72814500D01*
X57972100Y-72903400D02*
X58060500Y-72854300D01*
X57889200Y-72961100D02*
X57972100Y-72903400D01*
X57812500Y-73027000D02*
X57889200Y-72961100D01*
X57742900Y-73100200D02*
X57812500Y-73027000D01*
X57681000Y-73180200D02*
X57742900Y-73100200D01*
X57627600Y-73265900D02*
X57681000Y-73180200D01*
X57583100Y-73356700D02*
X57627600Y-73265900D01*
X57548100Y-73451200D02*
X57583100Y-73356700D01*
X57522700Y-73549000D02*
X57548100Y-73451200D01*
X57507400Y-73648900D02*
X57522700Y-73549000D01*
X57502300Y-73749900D02*
X57507400Y-73648900D01*
X57507400Y-73850800D02*
X57502300Y-73749900D01*
X57522700Y-73950700D02*
X57507400Y-73850800D01*
X57548000Y-74048600D02*
X57522700Y-73950700D01*
X57583100Y-74143300D02*
X57548000Y-74048600D01*
X57627600Y-74234100D02*
X57583100Y-74143300D01*
X57681000Y-74319900D02*
X57627600Y-74234100D01*
X57742900Y-74399800D02*
X57681000Y-74319900D01*
X57812500Y-74473100D02*
X57742900Y-74399800D01*
X57889200Y-74538900D02*
X57812500Y-74473100D01*
X57972100Y-74596700D02*
X57889200Y-74538900D01*
X58060500Y-74645700D02*
X57972100Y-74596700D01*
X58153400Y-74685600D02*
X58060500Y-74645700D01*
X58249800Y-74715800D02*
X58153400Y-74685600D01*
X58348800Y-74736200D02*
X58249800Y-74715800D01*
X58449300Y-74746400D02*
X58348800Y-74736200D01*
X58525200Y-74749000D02*
X58449300Y-74746400D01*
X118474800Y-74749000D02*
X58525200Y-74749000D01*
X118550600Y-74746400D02*
X118474800Y-74749000D01*
X118651000Y-74736200D02*
X118550600Y-74746400D01*
X118749900Y-63715900D02*
X118651000Y-63736200D01*
X118846400Y-63685700D02*
X118749900Y-63715900D01*
X118939300Y-63645800D02*
X118846400Y-63685700D01*
X119027600Y-63596800D02*
X118939300Y-63645800D01*
X119110600Y-63539100D02*
X119027600Y-63596800D01*
X119187300Y-63473200D02*
X119110600Y-63539100D01*
X119257100Y-63399800D02*
X119187300Y-63473200D01*
X119319000Y-63319900D02*
X119257100Y-63399800D01*
X119372300Y-63234300D02*
X119319000Y-63319900D01*
X119416800Y-63143600D02*
X119372300Y-63234300D01*
X119451900Y-63048800D02*
X119416800Y-63143600D01*
X119477300Y-62951000D02*
X119451900Y-63048800D01*
X119492600Y-62851100D02*
X119477300Y-62951000D01*
X119497700Y-62750100D02*
X119492600Y-62851100D01*
X119492600Y-62649200D02*
X119497700Y-62750100D01*
X119477300Y-62549300D02*
X119492600Y-62649200D01*
X119452000Y-62451500D02*
X119477300Y-62549300D01*
X119416900Y-62356700D02*
X119452000Y-62451500D01*
X119372400Y-62265900D02*
X119416900Y-62356700D01*
X119319000Y-62180200D02*
X119372400Y-62265900D01*
X119257100Y-62100200D02*
X119319000Y-62180200D01*
X119187300Y-62026800D02*
X119257100Y-62100200D01*
X119110600Y-61960900D02*
X119187300Y-62026800D01*
X119027900Y-61903400D02*
X119110600Y-61960900D01*
X118939500Y-61854300D02*
X119027900Y-61903400D01*
X118846600Y-61814400D02*
X118939500Y-61854300D01*
X118750200Y-61784200D02*
X118846600Y-61814400D01*
X118651200Y-61763800D02*
X118750200Y-61784200D01*
X118550700Y-61753600D02*
X118651200Y-61763800D01*
X118474800Y-61751000D02*
X118550700Y-61753600D01*
X58525200Y-61751000D02*
X118474800Y-61751000D01*
X58449300Y-61753600D02*
X58525200Y-61751000D01*
X58348800Y-61763800D02*
X58449300Y-61753600D01*
X58249800Y-61784200D02*
X58348800Y-61763800D01*
X58153400Y-61814400D02*
X58249800Y-61784200D01*
X58060500Y-61854300D02*
X58153400Y-61814400D01*
X57972100Y-61903400D02*
X58060500Y-61854300D01*
X57889200Y-61961100D02*
X57972100Y-61903400D01*
X57812500Y-62027000D02*
X57889200Y-61961100D01*
X57742900Y-62100200D02*
X57812500Y-62027000D01*
X57681000Y-62180200D02*
X57742900Y-62100200D01*
X57627600Y-62265900D02*
X57681000Y-62180200D01*
X57583100Y-62356700D02*
X57627600Y-62265900D01*
X57548000Y-62451500D02*
X57583100Y-62356700D01*
X57522700Y-62549000D02*
X57548000Y-62451500D01*
X57507400Y-62648900D02*
X57522700Y-62549000D01*
X57502300Y-62749900D02*
X57507400Y-62648900D01*
X57507400Y-62850800D02*
X57502300Y-62749900D01*
X57522700Y-62950700D02*
X57507400Y-62850800D01*
X57548000Y-63048500D02*
X57522700Y-62950700D01*
X57583100Y-63143300D02*
X57548000Y-63048500D01*
X57627600Y-63234100D02*
X57583100Y-63143300D01*
X57681000Y-63319900D02*
X57627600Y-63234100D01*
X57742900Y-63399800D02*
X57681000Y-63319900D01*
X57812500Y-63473000D02*
X57742900Y-63399800D01*
X57889200Y-63538900D02*
X57812500Y-63473000D01*
X57972100Y-63596600D02*
X57889200Y-63538900D01*
X58060500Y-63645700D02*
X57972100Y-63596600D01*
X58153400Y-63685600D02*
X58060500Y-63645700D01*
X58249800Y-63715800D02*
X58153400Y-63685600D01*
X58348800Y-63736200D02*
X58249800Y-63715800D01*
X58449300Y-63746400D02*
X58348800Y-63736200D01*
X58525200Y-63749000D02*
X58449300Y-63746400D01*
X118474800Y-63749000D02*
X58525200Y-63749000D01*
X118550700Y-63746400D02*
X118474800Y-63749000D01*
X118651000Y-63736200D02*
X118550700Y-63746400D01*
X118749900Y-55215900D02*
X118651000Y-55236200D01*
X118846400Y-55185700D02*
X118749900Y-55215900D01*
X118939300Y-55145800D02*
X118846400Y-55185700D01*
X119027600Y-55096800D02*
X118939300Y-55145800D01*
X119110600Y-55039100D02*
X119027600Y-55096800D01*
X119187300Y-54973200D02*
X119110600Y-55039100D01*
X119257100Y-54899800D02*
X119187300Y-54973200D01*
X119319000Y-54819900D02*
X119257100Y-54899800D01*
X119372300Y-54734300D02*
X119319000Y-54819900D01*
X119416800Y-54643600D02*
X119372300Y-54734300D01*
X119451900Y-54548800D02*
X119416800Y-54643600D01*
X119477300Y-54451000D02*
X119451900Y-54548800D01*
X119492600Y-54351100D02*
X119477300Y-54451000D01*
X119497700Y-54250100D02*
X119492600Y-54351100D01*
X119492600Y-54149200D02*
X119497700Y-54250100D01*
X119477300Y-54049300D02*
X119492600Y-54149200D01*
X119452000Y-53951500D02*
X119477300Y-54049300D01*
X119416900Y-53856700D02*
X119452000Y-53951500D01*
X119372400Y-53765900D02*
X119416900Y-53856700D01*
X119319000Y-53680200D02*
X119372400Y-53765900D01*
X119257100Y-53600200D02*
X119319000Y-53680200D01*
X119187300Y-53526800D02*
X119257100Y-53600200D01*
X119110600Y-53460900D02*
X119187300Y-53526800D01*
X119027900Y-53403400D02*
X119110600Y-53460900D01*
X118939500Y-53354300D02*
X119027900Y-53403400D01*
X118846600Y-53314400D02*
X118939500Y-53354300D01*
X118750200Y-53284200D02*
X118846600Y-53314400D01*
X118651200Y-53263800D02*
X118750200Y-53284200D01*
X118550700Y-53253600D02*
X118651200Y-53263800D01*
X118474800Y-53251000D02*
X118550700Y-53253600D01*
X58525200Y-53251000D02*
X118474800Y-53251000D01*
X58449300Y-53253600D02*
X58525200Y-53251000D01*
X58348800Y-53263800D02*
X58449300Y-53253600D01*
X58249800Y-53284200D02*
X58348800Y-53263800D01*
X58153400Y-53314400D02*
X58249800Y-53284200D01*
X58060500Y-53354300D02*
X58153400Y-53314400D01*
X57972100Y-53403400D02*
X58060500Y-53354300D01*
X57889200Y-53461100D02*
X57972100Y-53403400D01*
X57812500Y-53527000D02*
X57889200Y-53461100D01*
X57742900Y-53600200D02*
X57812500Y-53527000D01*
X57681000Y-53680200D02*
X57742900Y-53600200D01*
X57627600Y-53765900D02*
X57681000Y-53680200D01*
X57583100Y-53856700D02*
X57627600Y-53765900D01*
X57548000Y-53951500D02*
X57583100Y-53856700D01*
X57522700Y-54049000D02*
X57548000Y-53951500D01*
X57507400Y-54148900D02*
X57522700Y-54049000D01*
X57502300Y-54249900D02*
X57507400Y-54148900D01*
X57507400Y-54350800D02*
X57502300Y-54249900D01*
X57522700Y-54450700D02*
X57507400Y-54350800D01*
X57548000Y-54548500D02*
X57522700Y-54450700D01*
X57583100Y-54643300D02*
X57548000Y-54548500D01*
X57627600Y-54734100D02*
X57583100Y-54643300D01*
X57681000Y-54819900D02*
X57627600Y-54734100D01*
X57742900Y-54899800D02*
X57681000Y-54819900D01*
X57812500Y-54973000D02*
X57742900Y-54899800D01*
X57889200Y-55038900D02*
X57812500Y-54973000D01*
X57972100Y-55096600D02*
X57889200Y-55038900D01*
X58060500Y-55145700D02*
X57972100Y-55096600D01*
X58153400Y-55185600D02*
X58060500Y-55145700D01*
X58249800Y-55215800D02*
X58153400Y-55185600D01*
X58348800Y-55236200D02*
X58249800Y-55215800D01*
X58449300Y-55246400D02*
X58348800Y-55236200D01*
X58525200Y-55249000D02*
X58449300Y-55246400D01*
X118474800Y-55249000D02*
X58525200Y-55249000D01*
X118550700Y-55246400D02*
X118474800Y-55249000D01*
X118651000Y-55236200D02*
X118550700Y-55246400D01*
X118750200Y-122215900D02*
X118650700Y-122236300D01*
X118846600Y-122185600D02*
X118750200Y-122215900D01*
X118939500Y-122145700D02*
X118846600Y-122185600D01*
X119027900Y-122096700D02*
X118939500Y-122145700D01*
X119110800Y-122038900D02*
X119027900Y-122096700D01*
X119187500Y-121973100D02*
X119110800Y-122038900D01*
X119257100Y-121899800D02*
X119187500Y-121973100D01*
X119319000Y-121819900D02*
X119257100Y-121899800D01*
X119372400Y-121734100D02*
X119319000Y-121819900D01*
X119416900Y-121643400D02*
X119372400Y-121734100D01*
X119452000Y-121548600D02*
X119416900Y-121643400D01*
X119477300Y-121450800D02*
X119452000Y-121548600D01*
X119492600Y-121350900D02*
X119477300Y-121450800D01*
X119497700Y-121249900D02*
X119492600Y-121350900D01*
X119492600Y-121149300D02*
X119497700Y-121249900D01*
X119477300Y-121049300D02*
X119492600Y-121149300D01*
X119452000Y-120951500D02*
X119477300Y-121049300D01*
X119416900Y-120856700D02*
X119452000Y-120951500D01*
X119372400Y-120766000D02*
X119416900Y-120856700D01*
X119319000Y-120680200D02*
X119372400Y-120766000D01*
X119257100Y-120600300D02*
X119319000Y-120680200D01*
X119187300Y-120526800D02*
X119257100Y-120600300D01*
X119110600Y-120461000D02*
X119187300Y-120526800D01*
X119027600Y-120403300D02*
X119110600Y-120461000D01*
X118939300Y-120354200D02*
X119027600Y-120403300D01*
X118846600Y-120314500D02*
X118939300Y-120354200D01*
X118750200Y-120284200D02*
X118846600Y-120314500D01*
X118651200Y-120263900D02*
X118750200Y-120284200D01*
X118550700Y-120253600D02*
X118651200Y-120263900D01*
X118474800Y-120251100D02*
X118550700Y-120253600D01*
X58525000Y-120251100D02*
X118474800Y-120251100D01*
X58449600Y-120253600D02*
X58525000Y-120251100D01*
X58348800Y-120263900D02*
X58449600Y-120253600D01*
X58249800Y-120284200D02*
X58348800Y-120263900D01*
X58153400Y-120314500D02*
X58249800Y-120284200D01*
X58060500Y-120354400D02*
X58153400Y-120314500D01*
X57972100Y-120403400D02*
X58060500Y-120354400D01*
X57889200Y-120461200D02*
X57972100Y-120403400D01*
X57812500Y-120527000D02*
X57889200Y-120461200D01*
X57742900Y-120600300D02*
X57812500Y-120527000D01*
X57681000Y-120680200D02*
X57742900Y-120600300D01*
X57627600Y-120766000D02*
X57681000Y-120680200D01*
X57583100Y-120856700D02*
X57627600Y-120766000D01*
X57548100Y-120951200D02*
X57583100Y-120856700D01*
X57522700Y-121049100D02*
X57548100Y-120951200D01*
X57507400Y-121149000D02*
X57522700Y-121049100D01*
X57502300Y-121249900D02*
X57507400Y-121149000D01*
X57507400Y-121350900D02*
X57502300Y-121249900D01*
X57522700Y-121450800D02*
X57507400Y-121350900D01*
X57548000Y-121548600D02*
X57522700Y-121450800D01*
X57583100Y-121643400D02*
X57548000Y-121548600D01*
X57627600Y-121734100D02*
X57583100Y-121643400D01*
X57681000Y-121819900D02*
X57627600Y-121734100D01*
X57742900Y-121899800D02*
X57681000Y-121819900D01*
X57812500Y-121973100D02*
X57742900Y-121899800D01*
X57889200Y-122038900D02*
X57812500Y-121973100D01*
X57972100Y-122096700D02*
X57889200Y-122038900D01*
X58060500Y-122145700D02*
X57972100Y-122096700D01*
X58153400Y-122185600D02*
X58060500Y-122145700D01*
X58249800Y-122215900D02*
X58153400Y-122185600D01*
X58348800Y-122236200D02*
X58249800Y-122215900D01*
X58449300Y-122246500D02*
X58348800Y-122236200D01*
X58525200Y-122249100D02*
X58449300Y-122246500D01*
X118474500Y-122249100D02*
X58525200Y-122249100D01*
X118550900Y-122246500D02*
X118474500Y-122249100D01*
X118650700Y-122236300D02*
X118550900Y-122246500D01*
X118750200Y-113715900D02*
X118650700Y-113736300D01*
X118846600Y-113685600D02*
X118750200Y-113715900D01*
X118939500Y-113645700D02*
X118846600Y-113685600D01*
X119027900Y-113596700D02*
X118939500Y-113645700D01*
X119110800Y-113538900D02*
X119027900Y-113596700D01*
X119187500Y-113473100D02*
X119110800Y-113538900D01*
X119257100Y-113399800D02*
X119187500Y-113473100D01*
X119319000Y-113319900D02*
X119257100Y-113399800D01*
X119372400Y-113234100D02*
X119319000Y-113319900D01*
X119416900Y-113143400D02*
X119372400Y-113234100D01*
X119452000Y-113048600D02*
X119416900Y-113143400D01*
X119477300Y-112950800D02*
X119452000Y-113048600D01*
X119492600Y-112850900D02*
X119477300Y-112950800D01*
X119497700Y-112749900D02*
X119492600Y-112850900D01*
X119492600Y-112649300D02*
X119497700Y-112749900D01*
X119477300Y-112549300D02*
X119492600Y-112649300D01*
X119452000Y-112451500D02*
X119477300Y-112549300D01*
X119416900Y-112356700D02*
X119452000Y-112451500D01*
X119372400Y-112266000D02*
X119416900Y-112356700D01*
X119319000Y-112180200D02*
X119372400Y-112266000D01*
X119257100Y-112100300D02*
X119319000Y-112180200D01*
X119187300Y-112026800D02*
X119257100Y-112100300D01*
X119110600Y-111961000D02*
X119187300Y-112026800D01*
X119027600Y-111903300D02*
X119110600Y-111961000D01*
X118939300Y-111854200D02*
X119027600Y-111903300D01*
X118846600Y-111814500D02*
X118939300Y-111854200D01*
X118750200Y-111784200D02*
X118846600Y-111814500D01*
X118651200Y-111763900D02*
X118750200Y-111784200D01*
X118550700Y-111753600D02*
X118651200Y-111763900D01*
X118474800Y-111751100D02*
X118550700Y-111753600D01*
X58525000Y-111751100D02*
X118474800Y-111751100D01*
X58449600Y-111753600D02*
X58525000Y-111751100D01*
X58348800Y-111763900D02*
X58449600Y-111753600D01*
X58249800Y-111784200D02*
X58348800Y-111763900D01*
X58153400Y-111814500D02*
X58249800Y-111784200D01*
X58060500Y-111854400D02*
X58153400Y-111814500D01*
X57972100Y-111903400D02*
X58060500Y-111854400D01*
X57889200Y-111961200D02*
X57972100Y-111903400D01*
X57812500Y-112027000D02*
X57889200Y-111961200D01*
X57742900Y-112100300D02*
X57812500Y-112027000D01*
X57681000Y-112180200D02*
X57742900Y-112100300D01*
X57627600Y-112266000D02*
X57681000Y-112180200D01*
X57583100Y-112356700D02*
X57627600Y-112266000D01*
X57548100Y-112451200D02*
X57583100Y-112356700D01*
X57522700Y-112549100D02*
X57548100Y-112451200D01*
X57507400Y-112649000D02*
X57522700Y-112549100D01*
X57502300Y-112749900D02*
X57507400Y-112649000D01*
X57507400Y-112850900D02*
X57502300Y-112749900D01*
X57522700Y-112950800D02*
X57507400Y-112850900D01*
X57548000Y-113048600D02*
X57522700Y-112950800D01*
X57583100Y-113143400D02*
X57548000Y-113048600D01*
X57627600Y-113234100D02*
X57583100Y-113143400D01*
X57681000Y-113319900D02*
X57627600Y-113234100D01*
X57742900Y-113399800D02*
X57681000Y-113319900D01*
X57812500Y-113473100D02*
X57742900Y-113399800D01*
X57889200Y-113538900D02*
X57812500Y-113473100D01*
X57972100Y-113596700D02*
X57889200Y-113538900D01*
X58060500Y-113645700D02*
X57972100Y-113596700D01*
X58153400Y-113685600D02*
X58060500Y-113645700D01*
X58249800Y-113715900D02*
X58153400Y-113685600D01*
X58348800Y-113736200D02*
X58249800Y-113715900D01*
X58449300Y-113746500D02*
X58348800Y-113736200D01*
X58525200Y-113749100D02*
X58449300Y-113746500D01*
X118474500Y-113749100D02*
X58525200Y-113749100D01*
X118550900Y-113746500D02*
X118474500Y-113749100D01*
X118650700Y-113736300D02*
X118550900Y-113746500D01*
X126976500Y-43499000D02*
X50009200Y-43499700D01*
X126991800Y-43499800D02*
X126976500Y-43499000D01*
X126997700Y-43503000D02*
X126991800Y-43499800D01*
X127000200Y-43508200D02*
X126997700Y-43503000D01*
X127001000Y-43523500D02*
X127000200Y-43508200D01*
X127001000Y-47475500D02*
X127001000Y-43523500D01*
X126999700Y-47492700D02*
X127001000Y-47475500D01*
X126996300Y-47497400D02*
X126999700Y-47492700D01*
X126991800Y-47499200D02*
X126996300Y-47497400D01*
X99491300Y-47500000D02*
X126991800Y-47499200D01*
X99394000Y-47504800D02*
X99491300Y-47500000D01*
X99297900Y-47519000D02*
X99394000Y-47504800D01*
X99203600Y-47542600D02*
X99297900Y-47519000D01*
X99112200Y-47575400D02*
X99203600Y-47542600D01*
X99024300Y-47616900D02*
X99112200Y-47575400D01*
X98941000Y-47666900D02*
X99024300Y-47616900D01*
X98863000Y-47724700D02*
X98941000Y-47666900D01*
X98791000Y-47790000D02*
X98863000Y-47724700D01*
X98725700Y-47862000D02*
X98791000Y-47790000D01*
X98667900Y-47940000D02*
X98725700Y-47862000D01*
X98617900Y-48023300D02*
X98667900Y-47940000D01*
X98576400Y-48111100D02*
X98617900Y-48023300D01*
X98543700Y-48202600D02*
X98576400Y-48111100D01*
X98520000Y-48296900D02*
X98543700Y-48202600D01*
X98505800Y-48393000D02*
X98520000Y-48296900D01*
X98501000Y-48490200D02*
X98505800Y-48393000D01*
X98501000Y-49008800D02*
X98501000Y-48490200D01*
X98505800Y-49106000D02*
X98501000Y-49008800D01*
X98520000Y-49202100D02*
X98505800Y-49106000D01*
X98543700Y-49296400D02*
X98520000Y-49202100D01*
X98576400Y-49387900D02*
X98543700Y-49296400D01*
X98617900Y-49475700D02*
X98576400Y-49387900D01*
X98667900Y-49559000D02*
X98617900Y-49475700D01*
X98725700Y-49637000D02*
X98667900Y-49559000D01*
X98791000Y-49709000D02*
X98725700Y-49637000D01*
X98863000Y-49774300D02*
X98791000Y-49709000D01*
X98941000Y-49832100D02*
X98863000Y-49774300D01*
X99024300Y-49882100D02*
X98941000Y-49832100D01*
X99112200Y-49923600D02*
X99024300Y-49882100D01*
X99203600Y-49956400D02*
X99112200Y-49923600D01*
X99297900Y-49980000D02*
X99203600Y-49956400D01*
X99394000Y-49994200D02*
X99297900Y-49980000D01*
X99491300Y-49999000D02*
X99394000Y-49994200D01*
X122743400Y-49999000D02*
X99491300Y-49999000D01*
X123194100Y-50022600D02*
X122743400Y-49999000D01*
X123633500Y-50092200D02*
X123194100Y-50022600D01*
X124063300Y-50207300D02*
X123633500Y-50092200D01*
X124466700Y-50361800D02*
X124063300Y-50207300D01*
X124490700Y-50372500D02*
X124466700Y-50361800D01*
X124863800Y-50562500D02*
X124490700Y-50372500D01*
X124886500Y-50575700D02*
X124863800Y-50562500D01*
X125248700Y-50811300D02*
X124886500Y-50575700D01*
X125594100Y-51091000D02*
X125248700Y-50811300D01*
X125908700Y-51405600D02*
X125594100Y-51091000D01*
X126180800Y-51741100D02*
X125908700Y-51405600D01*
X126196300Y-51762300D02*
X126180800Y-51741100D01*
X126424300Y-52113500D02*
X126196300Y-51762300D01*
X126437400Y-52136200D02*
X126424300Y-52113500D01*
X126633300Y-52521400D02*
X126437400Y-52136200D01*
X126792500Y-52936300D02*
X126633300Y-52521400D01*
X126907700Y-53366000D02*
X126792500Y-52936300D01*
X126975700Y-53792600D02*
X126907700Y-53366000D01*
X126978400Y-53818800D02*
X126975700Y-53792600D01*
X127001000Y-54256500D02*
X126978400Y-53818800D01*
X127001000Y-55139700D02*
X127001000Y-54256500D01*
X126995900Y-55244100D02*
X127001000Y-55139700D01*
X126981400Y-55341600D02*
X126995900Y-55244100D01*
X126957200Y-55437700D02*
X126981400Y-55341600D01*
X126923900Y-55530500D02*
X126957200Y-55437700D01*
X126887300Y-55608200D02*
X126923900Y-55530500D01*
X126875600Y-55630000D02*
X126887300Y-55608200D01*
X126823700Y-55713800D02*
X126875600Y-55630000D01*
X126772100Y-55782500D02*
X126823700Y-55713800D01*
X126714100Y-55846600D02*
X126772100Y-55782500D01*
X126696500Y-55864100D02*
X126714100Y-55846600D01*
X126632400Y-55921400D02*
X126696500Y-55864100D01*
X126562800Y-55973000D02*
X126632400Y-55921400D01*
X126468400Y-56030200D02*
X126562800Y-55973000D01*
X126379100Y-56072000D02*
X126468400Y-56030200D01*
X126100100Y-56170700D02*
X126379100Y-56072000D01*
X126009400Y-56207800D02*
X126100100Y-56170700D01*
X125875300Y-56270600D02*
X126009400Y-56207800D01*
X125788700Y-56316400D02*
X125875300Y-56270600D01*
X125661400Y-56392000D02*
X125788700Y-56316400D01*
X125579800Y-56446200D02*
X125661400Y-56392000D01*
X125460600Y-56533900D02*
X125579800Y-56446200D01*
X125384600Y-56595900D02*
X125460600Y-56533900D01*
X125274600Y-56694900D02*
X125384600Y-56595900D01*
X125205100Y-56764000D02*
X125274600Y-56694900D01*
X125105400Y-56873400D02*
X125205100Y-56764000D01*
X125043000Y-56949000D02*
X125105400Y-56873400D01*
X124954500Y-57067700D02*
X125043000Y-56949000D01*
X124899900Y-57149100D02*
X124954500Y-57067700D01*
X124823600Y-57275900D02*
X124899900Y-57149100D01*
X124777200Y-57362300D02*
X124823600Y-57275900D01*
X124713700Y-57496000D02*
X124777200Y-57362300D01*
X124676000Y-57586500D02*
X124713700Y-57496000D01*
X124626000Y-57725800D02*
X124676000Y-57586500D01*
X124597400Y-57819500D02*
X124626000Y-57725800D01*
X124561300Y-57963100D02*
X124597400Y-57819500D01*
X124542200Y-58059200D02*
X124561300Y-57963100D01*
X124520400Y-58205600D02*
X124542200Y-58059200D01*
X124510700Y-58303100D02*
X124520400Y-58205600D01*
X124503400Y-58451000D02*
X124510700Y-58303100D01*
X124503400Y-58549000D02*
X124503400Y-58451000D01*
X124510700Y-58696900D02*
X124503400Y-58549000D01*
X124520400Y-58794400D02*
X124510700Y-58696900D01*
X124542200Y-58940800D02*
X124520400Y-58794400D01*
X124561300Y-59036900D02*
X124542200Y-58940800D01*
X124597400Y-59180500D02*
X124561300Y-59036900D01*
X124626000Y-59274200D02*
X124597400Y-59180500D01*
X124676000Y-59413500D02*
X124626000Y-59274200D01*
X124713700Y-59504000D02*
X124676000Y-59413500D01*
X124777200Y-59637700D02*
X124713700Y-59504000D01*
X124823600Y-59724100D02*
X124777200Y-59637700D01*
X124899900Y-59850900D02*
X124823600Y-59724100D01*
X124954500Y-59932300D02*
X124899900Y-59850900D01*
X125043000Y-60051000D02*
X124954500Y-59932300D01*
X125105400Y-60126600D02*
X125043000Y-60051000D01*
X125205100Y-60236000D02*
X125105400Y-60126600D01*
X125274600Y-60305100D02*
X125205100Y-60236000D01*
X125384600Y-60404100D02*
X125274600Y-60305100D01*
X125460600Y-60466100D02*
X125384600Y-60404100D01*
X125579800Y-60553800D02*
X125460600Y-60466100D01*
X125661500Y-60608000D02*
X125579800Y-60553800D01*
X125788700Y-60683600D02*
X125661500Y-60608000D01*
X125875300Y-60729500D02*
X125788700Y-60683600D01*
X126009400Y-60792200D02*
X125875300Y-60729500D01*
X126100100Y-60829300D02*
X126009400Y-60792200D01*
X126378700Y-60927800D02*
X126100100Y-60829300D01*
X126457100Y-60964100D02*
X126378700Y-60927800D01*
X126478900Y-60975700D02*
X126457100Y-60964100D01*
X126552700Y-61019900D02*
X126478900Y-60975700D01*
X126622500Y-61070900D02*
X126552700Y-61019900D01*
X126641700Y-61086500D02*
X126622500Y-61070900D01*
X126705400Y-61144300D02*
X126641700Y-61086500D01*
X126763800Y-61207900D02*
X126705400Y-61144300D01*
X126779400Y-61226800D02*
X126763800Y-61207900D01*
X126837500Y-61306700D02*
X126779400Y-61226800D01*
X126881600Y-61380600D02*
X126837500Y-61306700D01*
X126918900Y-61458500D02*
X126881600Y-61380600D01*
X126928400Y-61481300D02*
X126918900Y-61458500D01*
X126960600Y-61574500D02*
X126928400Y-61481300D01*
X126981400Y-61658400D02*
X126960600Y-61574500D01*
X126996700Y-61767700D02*
X126981400Y-61658400D01*
X127001000Y-61860300D02*
X126996700Y-61767700D01*
X127001000Y-62743400D02*
X127001000Y-61860300D01*
X126977400Y-63194100D02*
X127001000Y-62743400D01*
X126907800Y-63633500D02*
X126977400Y-63194100D01*
X126792700Y-64063300D02*
X126907800Y-63633500D01*
X126633000Y-64479200D02*
X126792700Y-64063300D01*
X126431000Y-64875600D02*
X126633000Y-64479200D01*
X126196300Y-65237600D02*
X126431000Y-64875600D01*
X126180900Y-65258900D02*
X126196300Y-65237600D01*
X125917400Y-65584200D02*
X126180900Y-65258900D01*
X125899800Y-65603800D02*
X125917400Y-65584200D01*
X125594400Y-65908700D02*
X125899800Y-65603800D01*
X125258900Y-66180800D02*
X125594400Y-65908700D01*
X125237700Y-66196300D02*
X125258900Y-66180800D01*
X124875500Y-66431100D02*
X125237700Y-66196300D01*
X124490500Y-66627600D02*
X124875500Y-66431100D01*
X124466800Y-66638200D02*
X124490500Y-66627600D01*
X124063700Y-66792500D02*
X124466800Y-66638200D01*
X123634000Y-66907700D02*
X124063700Y-66792500D01*
X123194500Y-66977300D02*
X123634000Y-66907700D01*
X122749900Y-67000900D02*
X123194500Y-66977300D01*
X99491300Y-67001000D02*
X122749900Y-67000900D01*
X99394000Y-67005800D02*
X99491300Y-67001000D01*
X99297900Y-67020000D02*
X99394000Y-67005800D01*
X99203600Y-67043600D02*
X99297900Y-67020000D01*
X99112200Y-67076400D02*
X99203600Y-67043600D01*
X99024300Y-67117900D02*
X99112200Y-67076400D01*
X98941000Y-67167900D02*
X99024300Y-67117900D01*
X98863000Y-67225700D02*
X98941000Y-67167900D01*
X98791000Y-67291000D02*
X98863000Y-67225700D01*
X98725700Y-67363000D02*
X98791000Y-67291000D01*
X98667900Y-67441000D02*
X98725700Y-67363000D01*
X98617900Y-67524300D02*
X98667900Y-67441000D01*
X98576400Y-67612100D02*
X98617900Y-67524300D01*
X98543700Y-67703600D02*
X98576400Y-67612100D01*
X98520000Y-67797900D02*
X98543700Y-67703600D01*
X98505800Y-67894000D02*
X98520000Y-67797900D01*
X98501000Y-67991200D02*
X98505800Y-67894000D01*
X98501000Y-68508800D02*
X98501000Y-67991200D01*
X98505800Y-68606000D02*
X98501000Y-68508800D01*
X98520000Y-68702100D02*
X98505800Y-68606000D01*
X98543700Y-68796400D02*
X98520000Y-68702100D01*
X98576400Y-68887900D02*
X98543700Y-68796400D01*
X98617900Y-68975700D02*
X98576400Y-68887900D01*
X98667900Y-69059000D02*
X98617900Y-68975700D01*
X98725700Y-69137000D02*
X98667900Y-69059000D01*
X98791000Y-69209000D02*
X98725700Y-69137000D01*
X98863000Y-69274300D02*
X98791000Y-69209000D01*
X98941000Y-69332200D02*
X98863000Y-69274300D01*
X99024300Y-69382100D02*
X98941000Y-69332200D01*
X99112200Y-69423600D02*
X99024300Y-69382100D01*
X99203600Y-69456400D02*
X99112200Y-69423600D01*
X99297900Y-69480000D02*
X99203600Y-69456400D01*
X99394000Y-69494200D02*
X99297900Y-69480000D01*
X99491300Y-69499000D02*
X99394000Y-69494200D01*
X122743400Y-69499000D02*
X99491300Y-69499000D01*
X123194600Y-69522700D02*
X122743400Y-69499000D01*
X123634000Y-69592300D02*
X123194600Y-69522700D01*
X124050900Y-69703700D02*
X123634000Y-69592300D01*
X124075900Y-69711800D02*
X124050900Y-69703700D01*
X124466700Y-69861800D02*
X124075900Y-69711800D01*
X124490700Y-69872500D02*
X124466700Y-69861800D01*
X124875100Y-70068700D02*
X124490700Y-69872500D01*
X125237600Y-70303700D02*
X124875100Y-70068700D01*
X125258900Y-70319200D02*
X125237600Y-70303700D01*
X125594100Y-70591000D02*
X125258900Y-70319200D01*
X125908700Y-70905600D02*
X125594100Y-70591000D01*
X126189000Y-71251800D02*
X125908700Y-70905600D01*
X126424300Y-71613500D02*
X126189000Y-71251800D01*
X126437400Y-71636200D02*
X126424300Y-71613500D01*
X126633300Y-72021400D02*
X126437400Y-71636200D01*
X126792500Y-72436300D02*
X126633300Y-72021400D01*
X126907700Y-72866000D02*
X126792500Y-72436300D01*
X126975700Y-73292700D02*
X126907700Y-72866000D01*
X126978400Y-73318800D02*
X126975700Y-73292700D01*
X127000900Y-73750100D02*
X126978400Y-73318800D01*
X127001000Y-74639900D02*
X127000900Y-73750100D01*
X126996800Y-74732000D02*
X127001000Y-74639900D01*
X126994300Y-74756600D02*
X126996800Y-74732000D01*
X126981300Y-74842100D02*
X126994300Y-74756600D01*
X126957300Y-74937200D02*
X126981300Y-74842100D01*
X126928400Y-75018700D02*
X126957300Y-74937200D01*
X126918900Y-75041500D02*
X126928400Y-75018700D01*
X126881500Y-75119500D02*
X126918900Y-75041500D01*
X126830900Y-75203500D02*
X126881500Y-75119500D01*
X126772100Y-75282600D02*
X126830900Y-75203500D01*
X126714100Y-75346600D02*
X126772100Y-75282600D01*
X126696500Y-75364100D02*
X126714100Y-75346600D01*
X126632100Y-75421700D02*
X126696500Y-75364100D01*
X126552700Y-75480100D02*
X126632100Y-75421700D01*
X126457300Y-75535800D02*
X126552700Y-75480100D01*
X126378600Y-75572200D02*
X126457300Y-75535800D01*
X126100100Y-75670700D02*
X126378600Y-75572200D01*
X126009400Y-75707800D02*
X126100100Y-75670700D01*
X125875300Y-75770600D02*
X126009400Y-75707800D01*
X125788700Y-75816400D02*
X125875300Y-75770600D01*
X125661400Y-75892000D02*
X125788700Y-75816400D01*
X125579800Y-75946200D02*
X125661400Y-75892000D01*
X125460600Y-76033900D02*
X125579800Y-75946200D01*
X125384600Y-76095900D02*
X125460600Y-76033900D01*
X125274600Y-76194900D02*
X125384600Y-76095900D01*
X125205100Y-76264000D02*
X125274600Y-76194900D01*
X125105400Y-76373400D02*
X125205100Y-76264000D01*
X125043000Y-76449000D02*
X125105400Y-76373400D01*
X124954500Y-76567700D02*
X125043000Y-76449000D01*
X124899900Y-76649100D02*
X124954500Y-76567700D01*
X124823600Y-76775900D02*
X124899900Y-76649100D01*
X124777200Y-76862300D02*
X124823600Y-76775900D01*
X124713700Y-76996000D02*
X124777200Y-76862300D01*
X124676000Y-77086500D02*
X124713700Y-76996000D01*
X124626000Y-77225800D02*
X124676000Y-77086500D01*
X124597400Y-77319500D02*
X124626000Y-77225800D01*
X124561300Y-77463100D02*
X124597400Y-77319500D01*
X124542200Y-77559200D02*
X124561300Y-77463100D01*
X124520400Y-77705600D02*
X124542200Y-77559200D01*
X124510700Y-77803200D02*
X124520400Y-77705600D01*
X124503400Y-77951000D02*
X124510700Y-77803200D01*
X124503400Y-78049000D02*
X124503400Y-77951000D01*
X124510700Y-78196900D02*
X124503400Y-78049000D01*
X124520400Y-78294400D02*
X124510700Y-78196900D01*
X124542200Y-78440800D02*
X124520400Y-78294400D01*
X124561300Y-78536900D02*
X124542200Y-78440800D01*
X124597400Y-78680500D02*
X124561300Y-78536900D01*
X124626000Y-78774200D02*
X124597400Y-78680500D01*
X124676000Y-78913600D02*
X124626000Y-78774200D01*
X124713700Y-79004100D02*
X124676000Y-78913600D01*
X124777200Y-79137800D02*
X124713700Y-79004100D01*
X124823600Y-79224100D02*
X124777200Y-79137800D01*
X124899900Y-79350900D02*
X124823600Y-79224100D01*
X124954500Y-79432300D02*
X124899900Y-79350900D01*
X125043000Y-79551000D02*
X124954500Y-79432300D01*
X125105400Y-79626600D02*
X125043000Y-79551000D01*
X125205100Y-79736000D02*
X125105400Y-79626600D01*
X125274600Y-79805100D02*
X125205100Y-79736000D01*
X125384600Y-79904200D02*
X125274600Y-79805100D01*
X125460600Y-79966100D02*
X125384600Y-79904200D01*
X125579800Y-80053900D02*
X125460600Y-79966100D01*
X125661500Y-80108000D02*
X125579800Y-80053900D01*
X125788700Y-80183600D02*
X125661500Y-80108000D01*
X125875300Y-80229500D02*
X125788700Y-80183600D01*
X126009400Y-80292200D02*
X125875300Y-80229500D01*
X126100100Y-80329300D02*
X126009400Y-80292200D01*
X126379100Y-80428000D02*
X126100100Y-80329300D01*
X126468400Y-80469800D02*
X126379100Y-80428000D01*
X126562800Y-80527000D02*
X126468400Y-80469800D01*
X126641700Y-80586500D02*
X126562800Y-80527000D01*
X126705400Y-80644300D02*
X126641700Y-80586500D01*
X126763800Y-80707900D02*
X126705400Y-80644300D01*
X126779500Y-80727000D02*
X126763800Y-80707900D01*
X126830700Y-80796100D02*
X126779500Y-80727000D01*
X126881800Y-80881000D02*
X126830700Y-80796100D01*
X126924100Y-80970100D02*
X126881800Y-80881000D01*
X126957400Y-81062800D02*
X126924100Y-80970100D01*
X126981400Y-81158400D02*
X126957400Y-81062800D01*
X126994300Y-81243400D02*
X126981400Y-81158400D01*
X126996800Y-81268000D02*
X126994300Y-81243400D01*
X127001000Y-81360300D02*
X126996800Y-81268000D01*
X127000900Y-82249900D02*
X127001000Y-81360300D01*
X126977300Y-82694600D02*
X127000900Y-82249900D01*
X126907700Y-83134100D02*
X126977300Y-82694600D01*
X126796400Y-83550900D02*
X126907700Y-83134100D01*
X126788200Y-83575900D02*
X126796400Y-83550900D01*
X126638200Y-83966800D02*
X126788200Y-83575900D01*
X126627500Y-83990800D02*
X126638200Y-83966800D01*
X126431300Y-84375100D02*
X126627500Y-83990800D01*
X126196300Y-84737600D02*
X126431300Y-84375100D01*
X126180900Y-84758900D02*
X126196300Y-84737600D01*
X125909000Y-85094100D02*
X126180900Y-84758900D01*
X125594400Y-85408700D02*
X125909000Y-85094100D01*
X125248700Y-85688700D02*
X125594400Y-85408700D01*
X124875100Y-85931300D02*
X125248700Y-85688700D01*
X124478600Y-86133300D02*
X124875100Y-85931300D01*
X124075900Y-86288200D02*
X124478600Y-86133300D01*
X124050900Y-86296400D02*
X124075900Y-86288200D01*
X123634000Y-86407700D02*
X124050900Y-86296400D01*
X123207400Y-86475700D02*
X123634000Y-86407700D01*
X123181200Y-86478400D02*
X123207400Y-86475700D01*
X122749900Y-86500900D02*
X123181200Y-86478400D01*
X99491300Y-86501000D02*
X122749900Y-86500900D01*
X99394000Y-86505800D02*
X99491300Y-86501000D01*
X99297900Y-86520000D02*
X99394000Y-86505800D01*
X99203600Y-86543700D02*
X99297900Y-86520000D01*
X99112200Y-86576400D02*
X99203600Y-86543700D01*
X99024300Y-86617900D02*
X99112200Y-86576400D01*
X98941000Y-86667900D02*
X99024300Y-86617900D01*
X98863000Y-86725700D02*
X98941000Y-86667900D01*
X98791000Y-86791000D02*
X98863000Y-86725700D01*
X98725700Y-86863000D02*
X98791000Y-86791000D01*
X98667900Y-86941000D02*
X98725700Y-86863000D01*
X98617900Y-87024300D02*
X98667900Y-86941000D01*
X98576400Y-87112200D02*
X98617900Y-87024300D01*
X98543700Y-87203600D02*
X98576400Y-87112200D01*
X98520000Y-87297900D02*
X98543700Y-87203600D01*
X98505800Y-87394000D02*
X98520000Y-87297900D01*
X98501000Y-87491300D02*
X98505800Y-87394000D01*
X98501000Y-88008800D02*
X98501000Y-87491300D01*
X98505800Y-88106000D02*
X98501000Y-88008800D01*
X98520000Y-88202100D02*
X98505800Y-88106000D01*
X98543700Y-88296400D02*
X98520000Y-88202100D01*
X98576400Y-88387900D02*
X98543700Y-88296400D01*
X98617900Y-88475700D02*
X98576400Y-88387900D01*
X98667900Y-88559000D02*
X98617900Y-88475700D01*
X98725700Y-88637100D02*
X98667900Y-88559000D01*
X98791000Y-88709000D02*
X98725700Y-88637100D01*
X98863000Y-88774300D02*
X98791000Y-88709000D01*
X98941000Y-88832200D02*
X98863000Y-88774300D01*
X99024300Y-88882100D02*
X98941000Y-88832200D01*
X99112200Y-88923600D02*
X99024300Y-88882100D01*
X99203600Y-88956400D02*
X99112200Y-88923600D01*
X99297900Y-88980000D02*
X99203600Y-88956400D01*
X99394000Y-88994200D02*
X99297900Y-88980000D01*
X99491300Y-88999000D02*
X99394000Y-88994200D01*
X122749900Y-88999100D02*
X99491300Y-88999000D01*
X123181200Y-89021600D02*
X122749900Y-88999100D01*
X123207300Y-89024400D02*
X123181200Y-89021600D01*
X123633500Y-89092200D02*
X123207300Y-89024400D01*
X124050900Y-89203700D02*
X123633500Y-89092200D01*
X124075900Y-89211800D02*
X124050900Y-89203700D01*
X124478700Y-89366800D02*
X124075900Y-89211800D01*
X124875600Y-89569000D02*
X124478700Y-89366800D01*
X125248700Y-89811400D02*
X124875600Y-89569000D01*
X125584200Y-90082600D02*
X125248700Y-89811400D01*
X125603800Y-90100200D02*
X125584200Y-90082600D01*
X125899800Y-90396200D02*
X125603800Y-90100200D01*
X125917400Y-90415800D02*
X125899800Y-90396200D01*
X126188700Y-90751400D02*
X125917400Y-90415800D01*
X126424300Y-91113500D02*
X126188700Y-90751400D01*
X126437400Y-91136200D02*
X126424300Y-91113500D01*
X126633100Y-91520900D02*
X126437400Y-91136200D01*
X126792500Y-91936300D02*
X126633100Y-91520900D01*
X126907700Y-92366000D02*
X126792500Y-91936300D01*
X126977400Y-92806000D02*
X126907700Y-92366000D01*
X127000900Y-93250200D02*
X126977400Y-92806000D01*
X127001000Y-94139700D02*
X127000900Y-93250200D01*
X126996800Y-94232000D02*
X127001000Y-94139700D01*
X126994300Y-94256700D02*
X126996800Y-94232000D01*
X126981400Y-94341700D02*
X126994300Y-94256700D01*
X126957300Y-94437300D02*
X126981400Y-94341700D01*
X126924000Y-94530000D02*
X126957300Y-94437300D01*
X126881500Y-94619500D02*
X126924000Y-94530000D01*
X126830700Y-94703900D02*
X126881500Y-94619500D01*
X126779600Y-94773000D02*
X126830700Y-94703900D01*
X126763800Y-94792100D02*
X126779600Y-94773000D01*
X126705700Y-94855400D02*
X126763800Y-94792100D01*
X126641700Y-94913500D02*
X126705700Y-94855400D01*
X126562800Y-94973100D02*
X126641700Y-94913500D01*
X126468400Y-95030300D02*
X126562800Y-94973100D01*
X126379100Y-95072000D02*
X126468400Y-95030300D01*
X126100100Y-95170800D02*
X126379100Y-95072000D01*
X126009400Y-95207900D02*
X126100100Y-95170800D01*
X125875300Y-95270600D02*
X126009400Y-95207900D01*
X125788700Y-95316400D02*
X125875300Y-95270600D01*
X125661400Y-95392000D02*
X125788700Y-95316400D01*
X125579800Y-95446200D02*
X125661400Y-95392000D01*
X125460600Y-95534000D02*
X125579800Y-95446200D01*
X125384600Y-95595900D02*
X125460600Y-95534000D01*
X125274600Y-95695000D02*
X125384600Y-95595900D01*
X125205100Y-95764100D02*
X125274600Y-95695000D01*
X125105400Y-95873500D02*
X125205100Y-95764100D01*
X125043000Y-95949100D02*
X125105400Y-95873500D01*
X124954500Y-96067800D02*
X125043000Y-95949100D01*
X124899900Y-96149100D02*
X124954500Y-96067800D01*
X124823600Y-96275900D02*
X124899900Y-96149100D01*
X124777200Y-96362300D02*
X124823600Y-96275900D01*
X124713700Y-96496000D02*
X124777200Y-96362300D01*
X124676000Y-96586500D02*
X124713700Y-96496000D01*
X124626000Y-96725800D02*
X124676000Y-96586500D01*
X124597400Y-96819600D02*
X124626000Y-96725800D01*
X124561300Y-96963100D02*
X124597400Y-96819600D01*
X124542200Y-97059200D02*
X124561300Y-96963100D01*
X124520400Y-97205600D02*
X124542200Y-97059200D01*
X124510700Y-97303200D02*
X124520400Y-97205600D01*
X124503400Y-97451000D02*
X124510700Y-97303200D01*
X124503400Y-97549000D02*
X124503400Y-97451000D01*
X124510700Y-97696900D02*
X124503400Y-97549000D01*
X124520400Y-97794400D02*
X124510700Y-97696900D01*
X124542200Y-97940800D02*
X124520400Y-97794400D01*
X124561300Y-98036900D02*
X124542200Y-97940800D01*
X124597400Y-98180500D02*
X124561300Y-98036900D01*
X124626000Y-98274300D02*
X124597400Y-98180500D01*
X124676000Y-98413600D02*
X124626000Y-98274300D01*
X124713700Y-98504100D02*
X124676000Y-98413600D01*
X124777200Y-98637800D02*
X124713700Y-98504100D01*
X124823600Y-98724100D02*
X124777200Y-98637800D01*
X124899900Y-98850900D02*
X124823600Y-98724100D01*
X124954500Y-98932300D02*
X124899900Y-98850900D01*
X125043000Y-99051000D02*
X124954500Y-98932300D01*
X125105400Y-99126600D02*
X125043000Y-99051000D01*
X125205100Y-99236000D02*
X125105400Y-99126600D01*
X125274600Y-99305100D02*
X125205100Y-99236000D01*
X125384600Y-99404200D02*
X125274600Y-99305100D01*
X125460600Y-99466100D02*
X125384600Y-99404200D01*
X125579800Y-99553900D02*
X125460600Y-99466100D01*
X125661500Y-99608000D02*
X125579800Y-99553900D01*
X125788700Y-99683600D02*
X125661500Y-99608000D01*
X125875300Y-99729500D02*
X125788700Y-99683600D01*
X126009400Y-99792200D02*
X125875300Y-99729500D01*
X126100100Y-99829300D02*
X126009400Y-99792200D01*
X126367300Y-99923500D02*
X126100100Y-99829300D01*
X126390200Y-99932900D02*
X126367300Y-99923500D01*
X126468000Y-99969600D02*
X126390200Y-99932900D01*
X126542400Y-100013500D02*
X126468000Y-99969600D01*
X126563000Y-100027100D02*
X126542400Y-100013500D01*
X126632500Y-100078700D02*
X126563000Y-100027100D01*
X126705400Y-100144300D02*
X126632500Y-100078700D01*
X126763800Y-100208000D02*
X126705400Y-100144300D01*
X126779500Y-100227000D02*
X126763800Y-100208000D01*
X126837500Y-100306800D02*
X126779500Y-100227000D01*
X126881800Y-100381000D02*
X126837500Y-100306800D01*
X126923900Y-100469600D02*
X126881800Y-100381000D01*
X126957200Y-100562400D02*
X126923900Y-100469600D01*
X126978600Y-100646100D02*
X126957200Y-100562400D01*
X126983400Y-100670400D02*
X126978600Y-100646100D01*
X126995800Y-100755500D02*
X126983400Y-100670400D01*
X127000900Y-100854200D02*
X126995800Y-100755500D01*
X127000900Y-101750200D02*
X127000900Y-100854200D01*
X126977300Y-102194600D02*
X127000900Y-101750200D01*
X126907700Y-102634100D02*
X126977300Y-102194600D01*
X126792500Y-103063800D02*
X126907700Y-102634100D01*
X126633000Y-103479200D02*
X126792500Y-103063800D01*
X126431000Y-103875600D02*
X126633000Y-103479200D01*
X126196300Y-104237700D02*
X126431000Y-103875600D01*
X126181000Y-104258700D02*
X126196300Y-104237700D01*
X125908700Y-104594500D02*
X126181000Y-104258700D01*
X125594000Y-104909100D02*
X125908700Y-104594500D01*
X125248200Y-105189100D02*
X125594000Y-104909100D01*
X124875100Y-105431400D02*
X125248200Y-105189100D01*
X124478600Y-105633300D02*
X124875100Y-105431400D01*
X124063300Y-105792700D02*
X124478600Y-105633300D01*
X123633500Y-105907900D02*
X124063300Y-105792700D01*
X123207400Y-105975700D02*
X123633500Y-105907900D01*
X123181200Y-105978400D02*
X123207400Y-105975700D01*
X122743500Y-106001000D02*
X123181200Y-105978400D01*
X99491300Y-106001000D02*
X122743500Y-106001000D01*
X99394000Y-106005800D02*
X99491300Y-106001000D01*
X99297900Y-106020100D02*
X99394000Y-106005800D01*
X99203600Y-106043700D02*
X99297900Y-106020100D01*
X99112200Y-106076400D02*
X99203600Y-106043700D01*
X99024300Y-106117900D02*
X99112200Y-106076400D01*
X98941000Y-106167900D02*
X99024300Y-106117900D01*
X98863000Y-106225800D02*
X98941000Y-106167900D01*
X98791000Y-106291000D02*
X98863000Y-106225800D01*
X98725700Y-106363000D02*
X98791000Y-106291000D01*
X98667900Y-106441000D02*
X98725700Y-106363000D01*
X98617900Y-106524300D02*
X98667900Y-106441000D01*
X98576400Y-106612200D02*
X98617900Y-106524300D01*
X98543700Y-106703600D02*
X98576400Y-106612200D01*
X98520000Y-106797900D02*
X98543700Y-106703600D01*
X98505800Y-106894000D02*
X98520000Y-106797900D01*
X98501000Y-106991300D02*
X98505800Y-106894000D01*
X98501000Y-107508800D02*
X98501000Y-106991300D01*
X98505800Y-107606100D02*
X98501000Y-107508800D01*
X98520000Y-107702200D02*
X98505800Y-107606100D01*
X98543700Y-107796500D02*
X98520000Y-107702200D01*
X98576400Y-107887900D02*
X98543700Y-107796500D01*
X98617900Y-107975800D02*
X98576400Y-107887900D01*
X98667900Y-108059100D02*
X98617900Y-107975800D01*
X98725700Y-108137100D02*
X98667900Y-108059100D01*
X98791000Y-108209100D02*
X98725700Y-108137100D01*
X98863000Y-108274400D02*
X98791000Y-108209100D01*
X98941000Y-108332200D02*
X98863000Y-108274400D01*
X99024300Y-108382200D02*
X98941000Y-108332200D01*
X99112200Y-108423700D02*
X99024300Y-108382200D01*
X99203600Y-108456400D02*
X99112200Y-108423700D01*
X99297900Y-108480000D02*
X99203600Y-108456400D01*
X99394000Y-108494300D02*
X99297900Y-108480000D01*
X99491300Y-108499100D02*
X99394000Y-108494300D01*
X122749900Y-108499200D02*
X99491300Y-108499100D01*
X123181200Y-108521600D02*
X122749900Y-108499200D01*
X123207300Y-108524400D02*
X123181200Y-108521600D01*
X123633500Y-108592200D02*
X123207300Y-108524400D01*
X124050900Y-108703700D02*
X123633500Y-108592200D01*
X124075900Y-108711800D02*
X124050900Y-108703700D01*
X124478700Y-108866800D02*
X124075900Y-108711800D01*
X124875100Y-109068800D02*
X124478700Y-108866800D01*
X125248300Y-109311100D02*
X124875100Y-109068800D01*
X125594500Y-109591400D02*
X125248300Y-109311100D01*
X125909000Y-109906000D02*
X125594500Y-109591400D01*
X126180800Y-110241100D02*
X125909000Y-109906000D01*
X126196300Y-110262400D02*
X126180800Y-110241100D01*
X126424300Y-110613500D02*
X126196300Y-110262400D01*
X126437400Y-110636300D02*
X126424300Y-110613500D01*
X126633100Y-111020900D02*
X126437400Y-110636300D01*
X126788200Y-111424100D02*
X126633100Y-111020900D01*
X126796300Y-111449100D02*
X126788200Y-111424100D01*
X126907700Y-111866100D02*
X126796300Y-111449100D01*
X126977300Y-112305500D02*
X126907700Y-111866100D01*
X127000900Y-112750200D02*
X126977300Y-112305500D01*
X127001000Y-113639800D02*
X127000900Y-112750200D01*
X126996800Y-113732100D02*
X127001000Y-113639800D01*
X126994300Y-113756700D02*
X126996800Y-113732100D01*
X126981400Y-113841700D02*
X126994300Y-113756700D01*
X126957300Y-113937300D02*
X126981400Y-113841700D01*
X126924000Y-114030100D02*
X126957300Y-113937300D01*
X126881800Y-114119100D02*
X126924000Y-114030100D01*
X126830700Y-114204000D02*
X126881800Y-114119100D01*
X126779600Y-114273000D02*
X126830700Y-114204000D01*
X126763800Y-114292100D02*
X126779600Y-114273000D01*
X126705700Y-114355500D02*
X126763800Y-114292100D01*
X126641700Y-114413500D02*
X126705700Y-114355500D01*
X126562800Y-114473100D02*
X126641700Y-114413500D01*
X126468400Y-114530300D02*
X126562800Y-114473100D01*
X126379100Y-114572100D02*
X126468400Y-114530300D01*
X126100100Y-114670800D02*
X126379100Y-114572100D01*
X126009400Y-114707900D02*
X126100100Y-114670800D01*
X125875300Y-114770600D02*
X126009400Y-114707900D01*
X125788700Y-114816500D02*
X125875300Y-114770600D01*
X125661400Y-114892100D02*
X125788700Y-114816500D01*
X125579800Y-114946200D02*
X125661400Y-114892100D01*
X125460600Y-115034000D02*
X125579800Y-114946200D01*
X125384600Y-115095900D02*
X125460600Y-115034000D01*
X125274600Y-115195000D02*
X125384600Y-115095900D01*
X125205100Y-115264100D02*
X125274600Y-115195000D01*
X125105400Y-115373500D02*
X125205100Y-115264100D01*
X125043000Y-115449100D02*
X125105400Y-115373500D01*
X124954500Y-115567800D02*
X125043000Y-115449100D01*
X124899900Y-115649100D02*
X124954500Y-115567800D01*
X124823600Y-115776000D02*
X124899900Y-115649100D01*
X124777200Y-115862300D02*
X124823600Y-115776000D01*
X124713700Y-115996000D02*
X124777200Y-115862300D01*
X124676000Y-116086500D02*
X124713700Y-115996000D01*
X124626000Y-116225800D02*
X124676000Y-116086500D01*
X124597400Y-116319600D02*
X124626000Y-116225800D01*
X124561300Y-116463100D02*
X124597400Y-116319600D01*
X124542200Y-116559300D02*
X124561300Y-116463100D01*
X124520400Y-116705700D02*
X124542200Y-116559300D01*
X124510700Y-116803200D02*
X124520400Y-116705700D01*
X124503400Y-116951000D02*
X124510700Y-116803200D01*
X124503400Y-117049100D02*
X124503400Y-116951000D01*
X124510700Y-117196900D02*
X124503400Y-117049100D01*
X124520400Y-117294400D02*
X124510700Y-117196900D01*
X124542200Y-117440900D02*
X124520400Y-117294400D01*
X124561300Y-117537000D02*
X124542200Y-117440900D01*
X124597400Y-117680500D02*
X124561300Y-117537000D01*
X124626000Y-117774300D02*
X124597400Y-117680500D01*
X124676000Y-117913600D02*
X124626000Y-117774300D01*
X124713700Y-118004100D02*
X124676000Y-117913600D01*
X124777200Y-118137800D02*
X124713700Y-118004100D01*
X124823600Y-118224100D02*
X124777200Y-118137800D01*
X124899900Y-118351000D02*
X124823600Y-118224100D01*
X124954500Y-118432300D02*
X124899900Y-118351000D01*
X125043000Y-118551000D02*
X124954500Y-118432300D01*
X125105400Y-118626600D02*
X125043000Y-118551000D01*
X125205100Y-118736000D02*
X125105400Y-118626600D01*
X125274600Y-118805100D02*
X125205100Y-118736000D01*
X125384600Y-118904200D02*
X125274600Y-118805100D01*
X125460600Y-118966100D02*
X125384600Y-118904200D01*
X125579800Y-119053900D02*
X125460600Y-118966100D01*
X125661500Y-119108000D02*
X125579800Y-119053900D01*
X125788700Y-119183600D02*
X125661500Y-119108000D01*
X125875300Y-119229500D02*
X125788700Y-119183600D01*
X126009400Y-119292200D02*
X125875300Y-119229500D01*
X126100100Y-119329300D02*
X126009400Y-119292200D01*
X126378700Y-119427900D02*
X126100100Y-119329300D01*
X126457300Y-119464300D02*
X126378700Y-119427900D01*
X126552700Y-119520000D02*
X126457300Y-119464300D01*
X126632100Y-119578400D02*
X126552700Y-119520000D01*
X126696500Y-119636000D02*
X126632100Y-119578400D01*
X126714100Y-119653400D02*
X126696500Y-119636000D01*
X126772100Y-119717500D02*
X126714100Y-119653400D01*
X126830700Y-119796200D02*
X126772100Y-119717500D01*
X126875500Y-119870000D02*
X126830700Y-119796200D01*
X126887200Y-119891800D02*
X126875500Y-119870000D01*
X126923900Y-119969600D02*
X126887200Y-119891800D01*
X126953400Y-120050900D02*
X126923900Y-119969600D01*
X126960600Y-120074500D02*
X126953400Y-120050900D01*
X126983400Y-120170400D02*
X126960600Y-120074500D01*
X126995900Y-120256000D02*
X126983400Y-120170400D01*
X127000900Y-120354300D02*
X126995900Y-120256000D01*
X127000900Y-121250000D02*
X127000900Y-120354300D01*
X126977300Y-121694700D02*
X127000900Y-121250000D01*
X126910200Y-122120900D02*
X126977300Y-121694700D01*
X126904700Y-122146600D02*
X126910200Y-122120900D01*
X126792700Y-122563400D02*
X126904700Y-122146600D01*
X126638200Y-122966800D02*
X126792700Y-122563400D01*
X126627500Y-122990800D02*
X126638200Y-122966800D01*
X126431300Y-123375200D02*
X126627500Y-122990800D01*
X126196300Y-123737700D02*
X126431300Y-123375200D01*
X126180900Y-123758900D02*
X126196300Y-123737700D01*
X125909000Y-124094100D02*
X126180900Y-123758900D01*
X125603800Y-124399800D02*
X125909000Y-124094100D01*
X125584300Y-124417400D02*
X125603800Y-124399800D01*
X125248700Y-124688800D02*
X125584300Y-124417400D01*
X124875100Y-124931400D02*
X125248700Y-124688800D01*
X124490800Y-125127600D02*
X124875100Y-124931400D01*
X124466800Y-125138200D02*
X124490800Y-125127600D01*
X124075900Y-125288300D02*
X124466800Y-125138200D01*
X124050900Y-125296400D02*
X124075900Y-125288300D01*
X123634000Y-125407800D02*
X124050900Y-125296400D01*
X123207400Y-125475700D02*
X123634000Y-125407800D01*
X123181200Y-125478500D02*
X123207400Y-125475700D01*
X122743500Y-125501100D02*
X123181200Y-125478500D01*
X99491300Y-125501100D02*
X122743500Y-125501100D01*
X99394000Y-125505800D02*
X99491300Y-125501100D01*
X99297900Y-125520100D02*
X99394000Y-125505800D01*
X99203600Y-125543700D02*
X99297900Y-125520100D01*
X99112200Y-125576400D02*
X99203600Y-125543700D01*
X99024300Y-125618000D02*
X99112200Y-125576400D01*
X98941000Y-125667900D02*
X99024300Y-125618000D01*
X98863000Y-125725800D02*
X98941000Y-125667900D01*
X98791000Y-125791000D02*
X98863000Y-125725800D01*
X98725700Y-125863000D02*
X98791000Y-125791000D01*
X98667900Y-125941100D02*
X98725700Y-125863000D01*
X98617900Y-126024400D02*
X98667900Y-125941100D01*
X98576400Y-126112200D02*
X98617900Y-126024400D01*
X98543700Y-126203700D02*
X98576400Y-126112200D01*
X98520000Y-126297900D02*
X98543700Y-126203700D01*
X98505800Y-126394000D02*
X98520000Y-126297900D01*
X98501000Y-126491300D02*
X98505800Y-126394000D01*
X98501000Y-127009800D02*
X98501000Y-126491300D01*
X98505800Y-127107100D02*
X98501000Y-127009800D01*
X98520000Y-127203200D02*
X98505800Y-127107100D01*
X98543700Y-127297400D02*
X98520000Y-127203200D01*
X98576400Y-127388900D02*
X98543700Y-127297400D01*
X98617900Y-127476700D02*
X98576400Y-127388900D01*
X98667900Y-127560100D02*
X98617900Y-127476700D01*
X98725700Y-127638100D02*
X98667900Y-127560100D01*
X98791000Y-127710100D02*
X98725700Y-127638100D01*
X98863000Y-127775300D02*
X98791000Y-127710100D01*
X98941000Y-127833200D02*
X98863000Y-127775300D01*
X99024300Y-127883200D02*
X98941000Y-127833200D01*
X99112200Y-127924700D02*
X99024300Y-127883200D01*
X99203600Y-127957400D02*
X99112200Y-127924700D01*
X99297900Y-127981000D02*
X99203600Y-127957400D01*
X99394000Y-127995300D02*
X99297900Y-127981000D01*
X99491300Y-128000100D02*
X99394000Y-127995300D01*
X126991800Y-128000900D02*
X99491300Y-128000100D01*
X126996300Y-128002700D02*
X126991800Y-128000900D01*
X126999700Y-128007400D02*
X126996300Y-128002700D01*
X127001000Y-128024600D02*
X126999700Y-128007400D01*
X127001000Y-131976500D02*
X127001000Y-128024600D01*
X127000200Y-131991900D02*
X127001000Y-131976500D01*
X126997000Y-131997800D02*
X127000200Y-131991900D01*
X126991800Y-132000300D02*
X126997000Y-131997800D01*
X126976500Y-132001100D02*
X126991800Y-132000300D01*
X50023500Y-132001100D02*
X126976500Y-132001100D01*
X50008200Y-132000300D02*
X50023500Y-132001100D01*
X50002300Y-131997100D02*
X50008200Y-132000300D01*
X49999800Y-131991900D02*
X50002300Y-131997100D01*
X49999000Y-131976500D02*
X49999800Y-131991900D01*
X49999000Y-128024600D02*
X49999000Y-131976500D01*
X50000300Y-128007400D02*
X49999000Y-128024600D01*
X50003000Y-128003300D02*
X50000300Y-128007400D01*
X50008200Y-128000900D02*
X50003000Y-128003300D01*
X77508800Y-128000100D02*
X50008200Y-128000900D01*
X77606000Y-127995300D02*
X77508800Y-128000100D01*
X77702100Y-127981000D02*
X77606000Y-127995300D01*
X77796400Y-127957400D02*
X77702100Y-127981000D01*
X77887900Y-127924700D02*
X77796400Y-127957400D01*
X77975700Y-127883200D02*
X77887900Y-127924700D01*
X78059000Y-127833200D02*
X77975700Y-127883200D01*
X78137100Y-127775300D02*
X78059000Y-127833200D01*
X78209000Y-127710100D02*
X78137100Y-127775300D01*
X78274300Y-127638100D02*
X78209000Y-127710100D01*
X78332200Y-127560100D02*
X78274300Y-127638100D01*
X78382100Y-127476700D02*
X78332200Y-127560100D01*
X78423600Y-127388900D02*
X78382100Y-127476700D01*
X78456400Y-127297400D02*
X78423600Y-127388900D01*
X78480000Y-127203200D02*
X78456400Y-127297400D01*
X78494200Y-127107100D02*
X78480000Y-127203200D01*
X78499000Y-127009800D02*
X78494200Y-127107100D01*
X78499000Y-126491300D02*
X78499000Y-127009800D01*
X78494200Y-126394000D02*
X78499000Y-126491300D01*
X78480000Y-126297900D02*
X78494200Y-126394000D01*
X78456400Y-126203700D02*
X78480000Y-126297900D01*
X78423600Y-126112200D02*
X78456400Y-126203700D01*
X78382100Y-126024400D02*
X78423600Y-126112200D01*
X78332200Y-125941100D02*
X78382100Y-126024400D01*
X78274300Y-125863000D02*
X78332200Y-125941100D01*
X78209000Y-125791100D02*
X78274300Y-125863000D01*
X78137100Y-125725800D02*
X78209000Y-125791100D01*
X78059000Y-125667900D02*
X78137100Y-125725800D01*
X77975700Y-125618000D02*
X78059000Y-125667900D01*
X77887900Y-125576500D02*
X77975700Y-125618000D01*
X77796400Y-125543700D02*
X77887900Y-125576500D01*
X77702100Y-125520100D02*
X77796400Y-125543700D01*
X77606000Y-125505900D02*
X77702100Y-125520100D01*
X77508800Y-125501100D02*
X77606000Y-125505900D01*
X54256600Y-125501100D02*
X77508800Y-125501100D01*
X53805900Y-125477400D02*
X54256600Y-125501100D01*
X53366500Y-125407900D02*
X53805900Y-125477400D01*
X52936700Y-125292700D02*
X53366500Y-125407900D01*
X52533300Y-125138300D02*
X52936700Y-125292700D01*
X52509300Y-125127600D02*
X52533300Y-125138300D01*
X52136200Y-124937500D02*
X52509300Y-125127600D01*
X52113500Y-124924400D02*
X52136200Y-124937500D01*
X51751300Y-124688700D02*
X52113500Y-124924400D01*
X51405900Y-124409100D02*
X51751300Y-124688700D01*
X51091300Y-124094500D02*
X51405900Y-124409100D01*
X50819200Y-123759000D02*
X51091300Y-124094500D01*
X50803700Y-123737700D02*
X50819200Y-123759000D01*
X50575700Y-123386600D02*
X50803700Y-123737700D01*
X50562600Y-123363800D02*
X50575700Y-123386600D01*
X50366700Y-122978700D02*
X50562600Y-123363800D01*
X50207500Y-122563800D02*
X50366700Y-122978700D01*
X50092300Y-122134000D02*
X50207500Y-122563800D01*
X50024300Y-121707400D02*
X50092300Y-122134000D01*
X50021600Y-121681300D02*
X50024300Y-121707400D01*
X49999000Y-121243500D02*
X50021600Y-121681300D01*
X49999000Y-120360400D02*
X49999000Y-121243500D01*
X50004100Y-120255900D02*
X49999000Y-120360400D01*
X50018600Y-120158400D02*
X50004100Y-120255900D01*
X50042800Y-120062400D02*
X50018600Y-120158400D01*
X50076100Y-119969600D02*
X50042800Y-120062400D01*
X50112700Y-119891900D02*
X50076100Y-119969600D01*
X50124400Y-119870100D02*
X50112700Y-119891900D01*
X50176300Y-119786300D02*
X50124400Y-119870100D01*
X50227900Y-119717500D02*
X50176300Y-119786300D01*
X50285900Y-119653400D02*
X50227900Y-119717500D01*
X50303500Y-119636000D02*
X50285900Y-119653400D01*
X50367600Y-119578700D02*
X50303500Y-119636000D01*
X50437200Y-119527000D02*
X50367600Y-119578700D01*
X50531700Y-119469800D02*
X50437200Y-119527000D01*
X50620900Y-119428000D02*
X50531700Y-119469800D01*
X50899900Y-119329300D02*
X50620900Y-119428000D01*
X50990600Y-119292200D02*
X50899900Y-119329300D01*
X51124700Y-119229500D02*
X50990600Y-119292200D01*
X51211300Y-119183600D02*
X51124700Y-119229500D01*
X51338600Y-119108000D02*
X51211300Y-119183600D01*
X51420200Y-119053900D02*
X51338600Y-119108000D01*
X51539400Y-118966100D02*
X51420200Y-119053900D01*
X51615400Y-118904200D02*
X51539400Y-118966100D01*
X51725400Y-118805100D02*
X51615400Y-118904200D01*
X51794900Y-118736000D02*
X51725400Y-118805100D01*
X51894600Y-118626600D02*
X51794900Y-118736000D01*
X51957000Y-118551000D02*
X51894600Y-118626600D01*
X52045500Y-118432300D02*
X51957000Y-118551000D01*
X52100100Y-118351000D02*
X52045500Y-118432300D01*
X52176400Y-118224100D02*
X52100100Y-118351000D01*
X52222800Y-118137800D02*
X52176400Y-118224100D01*
X52286300Y-118004100D02*
X52222800Y-118137800D01*
X52324000Y-117913600D02*
X52286300Y-118004100D01*
X52374000Y-117774300D02*
X52324000Y-117913600D01*
X52402600Y-117680500D02*
X52374000Y-117774300D01*
X52438700Y-117537000D02*
X52402600Y-117680500D01*
X52457800Y-117440900D02*
X52438700Y-117537000D01*
X52479700Y-117294400D02*
X52457800Y-117440900D01*
X52489300Y-117196900D02*
X52479700Y-117294400D01*
X52496600Y-117049100D02*
X52489300Y-117196900D01*
X52496600Y-116951000D02*
X52496600Y-117049100D01*
X52489300Y-116803200D02*
X52496600Y-116951000D01*
X52479700Y-116705700D02*
X52489300Y-116803200D01*
X52457800Y-116559300D02*
X52479700Y-116705700D01*
X52438700Y-116463100D02*
X52457800Y-116559300D01*
X52402600Y-116319600D02*
X52438700Y-116463100D01*
X52374000Y-116225800D02*
X52402600Y-116319600D01*
X52324000Y-116086500D02*
X52374000Y-116225800D01*
X52286300Y-115996000D02*
X52324000Y-116086500D01*
X52222800Y-115862300D02*
X52286300Y-115996000D01*
X52176400Y-115776000D02*
X52222800Y-115862300D01*
X52100100Y-115649100D02*
X52176400Y-115776000D01*
X52045500Y-115567800D02*
X52100100Y-115649100D01*
X51957000Y-115449100D02*
X52045500Y-115567800D01*
X51894600Y-115373500D02*
X51957000Y-115449100D01*
X51794900Y-115264100D02*
X51894600Y-115373500D01*
X51725400Y-115195000D02*
X51794900Y-115264100D01*
X51615400Y-115095900D02*
X51725400Y-115195000D01*
X51539400Y-115034000D02*
X51615400Y-115095900D01*
X51420200Y-114946200D02*
X51539400Y-115034000D01*
X51338600Y-114892100D02*
X51420200Y-114946200D01*
X51211300Y-114816500D02*
X51338600Y-114892100D01*
X51124700Y-114770600D02*
X51211300Y-114816500D01*
X50990600Y-114707900D02*
X51124700Y-114770600D01*
X50899900Y-114670800D02*
X50990600Y-114707900D01*
X50621300Y-114572200D02*
X50899900Y-114670800D01*
X50542900Y-114535900D02*
X50621300Y-114572200D01*
X50521100Y-114524300D02*
X50542900Y-114535900D01*
X50447300Y-114480200D02*
X50521100Y-114524300D01*
X50377500Y-114429200D02*
X50447300Y-114480200D01*
X50358300Y-114413600D02*
X50377500Y-114429200D01*
X50294600Y-114355800D02*
X50358300Y-114413600D01*
X50236200Y-114292100D02*
X50294600Y-114355800D01*
X50220600Y-114273200D02*
X50236200Y-114292100D01*
X50162500Y-114193300D02*
X50220600Y-114273200D01*
X50118400Y-114119500D02*
X50162500Y-114193300D01*
X50081100Y-114041600D02*
X50118400Y-114119500D01*
X50071600Y-114018700D02*
X50081100Y-114041600D01*
X50039400Y-113925600D02*
X50071600Y-114018700D01*
X50018600Y-113841600D02*
X50039400Y-113925600D01*
X50003300Y-113732300D02*
X50018600Y-113841600D01*
X49999000Y-113639800D02*
X50003300Y-113732300D01*
X49999000Y-112756700D02*
X49999000Y-113639800D01*
X50022600Y-112306000D02*
X49999000Y-112756700D01*
X50092200Y-111866500D02*
X50022600Y-112306000D01*
X50207300Y-111436800D02*
X50092200Y-111866500D01*
X50367000Y-111020900D02*
X50207300Y-111436800D01*
X50569000Y-110624500D02*
X50367000Y-111020900D01*
X50803700Y-110262400D02*
X50569000Y-110624500D01*
X50819100Y-110241200D02*
X50803700Y-110262400D01*
X51082600Y-109915800D02*
X50819100Y-110241200D01*
X51100200Y-109896300D02*
X51082600Y-109915800D01*
X51405600Y-109591400D02*
X51100200Y-109896300D01*
X51741100Y-109319200D02*
X51405600Y-109591400D01*
X51762300Y-109303800D02*
X51741100Y-109319200D01*
X52124500Y-109069000D02*
X51762300Y-109303800D01*
X52509500Y-108872400D02*
X52124500Y-109069000D01*
X52533200Y-108861900D02*
X52509500Y-108872400D01*
X52936300Y-108707500D02*
X52533200Y-108861900D01*
X53366000Y-108592300D02*
X52936300Y-108707500D01*
X53805500Y-108522700D02*
X53366000Y-108592300D01*
X54250100Y-108499100D02*
X53805500Y-108522700D01*
X77508800Y-108499100D02*
X54250100Y-108499100D01*
X77606000Y-108494300D02*
X77508800Y-108499100D01*
X77702100Y-108480000D02*
X77606000Y-108494300D01*
X77796400Y-108456400D02*
X77702100Y-108480000D01*
X77887900Y-108423700D02*
X77796400Y-108456400D01*
X77975700Y-108382200D02*
X77887900Y-108423700D01*
X78059000Y-108332200D02*
X77975700Y-108382200D01*
X78137100Y-108274300D02*
X78059000Y-108332200D01*
X78209000Y-108209100D02*
X78137100Y-108274300D01*
X78274300Y-108137100D02*
X78209000Y-108209100D01*
X78332200Y-108059100D02*
X78274300Y-108137100D01*
X78382100Y-107975700D02*
X78332200Y-108059100D01*
X78423600Y-107887900D02*
X78382100Y-107975700D01*
X78456400Y-107796400D02*
X78423600Y-107887900D01*
X78480000Y-107702200D02*
X78456400Y-107796400D01*
X78494200Y-107606100D02*
X78480000Y-107702200D01*
X78499000Y-107508800D02*
X78494200Y-107606100D01*
X78499000Y-106991300D02*
X78499000Y-107508800D01*
X78494200Y-106894000D02*
X78499000Y-106991300D01*
X78480000Y-106797900D02*
X78494200Y-106894000D01*
X78456400Y-106703600D02*
X78480000Y-106797900D01*
X78423600Y-106612200D02*
X78456400Y-106703600D01*
X78382100Y-106524300D02*
X78423600Y-106612200D01*
X78332200Y-106441000D02*
X78382100Y-106524300D01*
X78274300Y-106363000D02*
X78332200Y-106441000D01*
X78209000Y-106291000D02*
X78274300Y-106363000D01*
X78137100Y-106225700D02*
X78209000Y-106291000D01*
X78059000Y-106167900D02*
X78137100Y-106225700D01*
X77975700Y-106117900D02*
X78059000Y-106167900D01*
X77887900Y-106076400D02*
X77975700Y-106117900D01*
X77796400Y-106043700D02*
X77887900Y-106076400D01*
X77702100Y-106020000D02*
X77796400Y-106043700D01*
X77606000Y-106005800D02*
X77702100Y-106020000D01*
X77508800Y-106001000D02*
X77606000Y-106005800D01*
X54256500Y-106001000D02*
X77508800Y-106001000D01*
X53805400Y-105977400D02*
X54256500Y-106001000D01*
X53366000Y-105907700D02*
X53805400Y-105977400D01*
X52949100Y-105796400D02*
X53366000Y-105907700D01*
X52924100Y-105788300D02*
X52949100Y-105796400D01*
X52533300Y-105638200D02*
X52924100Y-105788300D01*
X52509300Y-105627600D02*
X52533300Y-105638200D01*
X52124900Y-105431300D02*
X52509300Y-105627600D01*
X51762400Y-105196300D02*
X52124900Y-105431300D01*
X51741100Y-105180900D02*
X51762400Y-105196300D01*
X51405900Y-104909000D02*
X51741100Y-105180900D01*
X51091300Y-104594500D02*
X51405900Y-104909000D01*
X50811000Y-104248300D02*
X51091300Y-104594500D01*
X50575700Y-103886600D02*
X50811000Y-104248300D01*
X50562600Y-103863800D02*
X50575700Y-103886600D01*
X50366700Y-103478700D02*
X50562600Y-103863800D01*
X50207500Y-103063800D02*
X50366700Y-103478700D01*
X50092300Y-102634000D02*
X50207500Y-103063800D01*
X50024300Y-102207400D02*
X50092300Y-102634000D01*
X50021600Y-102181300D02*
X50024300Y-102207400D01*
X49999100Y-101749900D02*
X50021600Y-102181300D01*
X49999000Y-100860200D02*
X49999100Y-101749900D01*
X50003200Y-100768000D02*
X49999000Y-100860200D01*
X50005700Y-100743400D02*
X50003200Y-100768000D01*
X50018700Y-100657900D02*
X50005700Y-100743400D01*
X50042700Y-100562800D02*
X50018700Y-100657900D01*
X50071600Y-100481400D02*
X50042700Y-100562800D01*
X50081100Y-100458500D02*
X50071600Y-100481400D01*
X50118500Y-100380600D02*
X50081100Y-100458500D01*
X50169100Y-100296500D02*
X50118500Y-100380600D01*
X50227900Y-100217500D02*
X50169100Y-100296500D01*
X50285900Y-100153400D02*
X50227900Y-100217500D01*
X50303500Y-100136000D02*
X50285900Y-100153400D01*
X50367900Y-100078300D02*
X50303500Y-100136000D01*
X50447300Y-100019900D02*
X50367900Y-100078300D01*
X50542700Y-99964300D02*
X50447300Y-100019900D01*
X50621400Y-99927800D02*
X50542700Y-99964300D01*
X50899900Y-99829300D02*
X50621400Y-99927800D01*
X50990600Y-99792200D02*
X50899900Y-99829300D01*
X51124700Y-99729500D02*
X50990600Y-99792200D01*
X51211300Y-99683600D02*
X51124700Y-99729500D01*
X51338600Y-99608000D02*
X51211300Y-99683600D01*
X51420200Y-99553900D02*
X51338600Y-99608000D01*
X51539400Y-99466100D02*
X51420200Y-99553900D01*
X51615400Y-99404200D02*
X51539400Y-99466100D01*
X51725400Y-99305100D02*
X51615400Y-99404200D01*
X51794900Y-99236000D02*
X51725400Y-99305100D01*
X51894600Y-99126600D02*
X51794900Y-99236000D01*
X51957000Y-99051000D02*
X51894600Y-99126600D01*
X52045500Y-98932300D02*
X51957000Y-99051000D01*
X52100100Y-98850900D02*
X52045500Y-98932300D01*
X52176400Y-98724100D02*
X52100100Y-98850900D01*
X52222800Y-98637800D02*
X52176400Y-98724100D01*
X52286300Y-98504100D02*
X52222800Y-98637800D01*
X52324000Y-98413600D02*
X52286300Y-98504100D01*
X52374000Y-98274300D02*
X52324000Y-98413600D01*
X52402600Y-98180500D02*
X52374000Y-98274300D01*
X52438700Y-98036900D02*
X52402600Y-98180500D01*
X52457800Y-97940800D02*
X52438700Y-98036900D01*
X52479700Y-97794400D02*
X52457800Y-97940800D01*
X52489300Y-97696900D02*
X52479700Y-97794400D01*
X52496600Y-97549000D02*
X52489300Y-97696900D01*
X52496600Y-97451000D02*
X52496600Y-97549000D01*
X52489300Y-97303200D02*
X52496600Y-97451000D01*
X52479700Y-97205600D02*
X52489300Y-97303200D01*
X52457800Y-97059200D02*
X52479700Y-97205600D01*
X52438700Y-96963100D02*
X52457800Y-97059200D01*
X52402600Y-96819600D02*
X52438700Y-96963100D01*
X52374000Y-96725800D02*
X52402600Y-96819600D01*
X52324000Y-96586500D02*
X52374000Y-96725800D01*
X52286300Y-96496000D02*
X52324000Y-96586500D01*
X52222800Y-96362300D02*
X52286300Y-96496000D01*
X52176400Y-96275900D02*
X52222800Y-96362300D01*
X52100100Y-96149100D02*
X52176400Y-96275900D01*
X52045500Y-96067800D02*
X52100100Y-96149100D01*
X51957000Y-95949100D02*
X52045500Y-96067800D01*
X51894600Y-95873500D02*
X51957000Y-95949100D01*
X51794900Y-95764100D02*
X51894600Y-95873500D01*
X51725400Y-95695000D02*
X51794900Y-95764100D01*
X51615400Y-95595900D02*
X51725400Y-95695000D01*
X51539400Y-95534000D02*
X51615400Y-95595900D01*
X51420200Y-95446200D02*
X51539400Y-95534000D01*
X51338600Y-95392000D02*
X51420200Y-95446200D01*
X51211300Y-95316400D02*
X51338600Y-95392000D01*
X51124700Y-95270600D02*
X51211300Y-95316400D01*
X50990600Y-95207900D02*
X51124700Y-95270600D01*
X50899900Y-95170800D02*
X50990600Y-95207900D01*
X50620900Y-95072000D02*
X50899900Y-95170800D01*
X50531600Y-95030200D02*
X50620900Y-95072000D01*
X50437200Y-94973100D02*
X50531600Y-95030200D01*
X50358300Y-94913500D02*
X50437200Y-94973100D01*
X50294600Y-94855800D02*
X50358300Y-94913500D01*
X50236200Y-94792100D02*
X50294600Y-94855800D01*
X50220500Y-94773000D02*
X50236200Y-94792100D01*
X50169300Y-94703900D02*
X50220500Y-94773000D01*
X50118200Y-94619000D02*
X50169300Y-94703900D01*
X50075900Y-94530000D02*
X50118200Y-94619000D01*
X50042600Y-94437200D02*
X50075900Y-94530000D01*
X50018600Y-94341600D02*
X50042600Y-94437200D01*
X50005700Y-94256700D02*
X50018600Y-94341600D01*
X50003200Y-94232100D02*
X50005700Y-94256700D01*
X49999000Y-94139800D02*
X50003200Y-94232100D01*
X49999100Y-93250100D02*
X49999000Y-94139800D01*
X50022700Y-92805400D02*
X49999100Y-93250100D01*
X50092300Y-92366000D02*
X50022700Y-92805400D01*
X50203600Y-91949100D02*
X50092300Y-92366000D01*
X50211800Y-91924100D02*
X50203600Y-91949100D01*
X50361800Y-91533300D02*
X50211800Y-91924100D01*
X50372500Y-91509300D02*
X50361800Y-91533300D01*
X50568700Y-91124900D02*
X50372500Y-91509300D01*
X50803700Y-90762400D02*
X50568700Y-91124900D01*
X50819100Y-90741100D02*
X50803700Y-90762400D01*
X51091000Y-90406000D02*
X50819100Y-90741100D01*
X51405600Y-90091300D02*
X51091000Y-90406000D01*
X51751300Y-89811300D02*
X51405600Y-90091300D01*
X52124900Y-89568700D02*
X51751300Y-89811300D01*
X52521400Y-89366800D02*
X52124900Y-89568700D01*
X52924100Y-89211800D02*
X52521400Y-89366800D01*
X52949100Y-89203700D02*
X52924100Y-89211800D01*
X53366000Y-89092300D02*
X52949100Y-89203700D01*
X53792600Y-89024400D02*
X53366000Y-89092300D01*
X53818800Y-89021600D02*
X53792600Y-89024400D01*
X54250100Y-88999100D02*
X53818800Y-89021600D01*
X77508800Y-88999000D02*
X54250100Y-88999100D01*
X77606000Y-88994200D02*
X77508800Y-88999000D01*
X77702100Y-88980000D02*
X77606000Y-88994200D01*
X77796400Y-88956400D02*
X77702100Y-88980000D01*
X77887900Y-88923700D02*
X77796400Y-88956400D01*
X77975700Y-88882100D02*
X77887900Y-88923700D01*
X78059000Y-88832200D02*
X77975700Y-88882100D01*
X78137100Y-88774300D02*
X78059000Y-88832200D01*
X78209000Y-88709100D02*
X78137100Y-88774300D01*
X78274300Y-88637100D02*
X78209000Y-88709100D01*
X78332200Y-88559000D02*
X78274300Y-88637100D01*
X78382100Y-88475700D02*
X78332200Y-88559000D01*
X78423600Y-88387900D02*
X78382100Y-88475700D01*
X78456400Y-88296400D02*
X78423600Y-88387900D01*
X78480000Y-88202200D02*
X78456400Y-88296400D01*
X78494200Y-88106100D02*
X78480000Y-88202200D01*
X78499000Y-88008800D02*
X78494200Y-88106100D01*
X78499000Y-87491300D02*
X78499000Y-88008800D01*
X78494200Y-87394000D02*
X78499000Y-87491300D01*
X78480000Y-87297900D02*
X78494200Y-87394000D01*
X78456400Y-87203600D02*
X78480000Y-87297900D01*
X78423600Y-87112200D02*
X78456400Y-87203600D01*
X78382100Y-87024300D02*
X78423600Y-87112200D01*
X78332200Y-86941000D02*
X78382100Y-87024300D01*
X78274300Y-86863000D02*
X78332200Y-86941000D01*
X78209000Y-86791000D02*
X78274300Y-86863000D01*
X78137100Y-86725700D02*
X78209000Y-86791000D01*
X78059000Y-86667900D02*
X78137100Y-86725700D01*
X77975700Y-86617900D02*
X78059000Y-86667900D01*
X77887900Y-86576400D02*
X77975700Y-86617900D01*
X77796400Y-86543600D02*
X77887900Y-86576400D01*
X77702100Y-86520000D02*
X77796400Y-86543600D01*
X77606000Y-86505800D02*
X77702100Y-86520000D01*
X77508800Y-86501000D02*
X77606000Y-86505800D01*
X54250100Y-86500900D02*
X77508800Y-86501000D01*
X53818800Y-86478400D02*
X54250100Y-86500900D01*
X53792700Y-86475700D02*
X53818800Y-86478400D01*
X53366500Y-86407800D02*
X53792700Y-86475700D01*
X52949100Y-86296400D02*
X53366500Y-86407800D01*
X52924100Y-86288300D02*
X52949100Y-86296400D01*
X52521300Y-86133300D02*
X52924100Y-86288300D01*
X52124400Y-85931000D02*
X52521300Y-86133300D01*
X51751300Y-85688700D02*
X52124400Y-85931000D01*
X51415800Y-85417400D02*
X51751300Y-85688700D01*
X51396200Y-85399800D02*
X51415800Y-85417400D01*
X51100200Y-85103800D02*
X51396200Y-85399800D01*
X51082600Y-85084300D02*
X51100200Y-85103800D01*
X50811300Y-84748700D02*
X51082600Y-85084300D01*
X50575700Y-84386600D02*
X50811300Y-84748700D01*
X50562600Y-84363800D02*
X50575700Y-84386600D01*
X50366900Y-83979100D02*
X50562600Y-84363800D01*
X50207500Y-83563800D02*
X50366900Y-83979100D01*
X50092300Y-83134000D02*
X50207500Y-83563800D01*
X50022600Y-82694000D02*
X50092300Y-83134000D01*
X49999100Y-82249900D02*
X50022600Y-82694000D01*
X49999000Y-81360300D02*
X49999100Y-82249900D01*
X50003200Y-81268000D02*
X49999000Y-81360300D01*
X50005700Y-81243400D02*
X50003200Y-81268000D01*
X50018600Y-81158400D02*
X50005700Y-81243400D01*
X50042700Y-81062800D02*
X50018600Y-81158400D01*
X50076000Y-80970000D02*
X50042700Y-81062800D01*
X50118500Y-80880500D02*
X50076000Y-80970000D01*
X50169300Y-80796100D02*
X50118500Y-80880500D01*
X50220400Y-80727000D02*
X50169300Y-80796100D01*
X50236200Y-80708000D02*
X50220400Y-80727000D01*
X50294300Y-80644600D02*
X50236200Y-80708000D01*
X50358300Y-80586500D02*
X50294300Y-80644600D01*
X50437200Y-80527000D02*
X50358300Y-80586500D01*
X50531700Y-80469800D02*
X50437200Y-80527000D01*
X50620900Y-80428000D02*
X50531700Y-80469800D01*
X50899900Y-80329300D02*
X50620900Y-80428000D01*
X50990600Y-80292200D02*
X50899900Y-80329300D01*
X51124700Y-80229500D02*
X50990600Y-80292200D01*
X51211300Y-80183600D02*
X51124700Y-80229500D01*
X51338600Y-80108000D02*
X51211300Y-80183600D01*
X51420200Y-80053900D02*
X51338600Y-80108000D01*
X51539400Y-79966100D02*
X51420200Y-80053900D01*
X51615400Y-79904200D02*
X51539400Y-79966100D01*
X51725400Y-79805100D02*
X51615400Y-79904200D01*
X51794900Y-79736000D02*
X51725400Y-79805100D01*
X51894600Y-79626600D02*
X51794900Y-79736000D01*
X51957000Y-79551000D02*
X51894600Y-79626600D01*
X52045500Y-79432300D02*
X51957000Y-79551000D01*
X52100100Y-79350900D02*
X52045500Y-79432300D01*
X52176400Y-79224100D02*
X52100100Y-79350900D01*
X52222800Y-79137800D02*
X52176400Y-79224100D01*
X52286300Y-79004100D02*
X52222800Y-79137800D01*
X52324000Y-78913600D02*
X52286300Y-79004100D01*
X52374000Y-78774200D02*
X52324000Y-78913600D01*
X52402600Y-78680500D02*
X52374000Y-78774200D01*
X52438700Y-78536900D02*
X52402600Y-78680500D01*
X52457800Y-78440800D02*
X52438700Y-78536900D01*
X52479700Y-78294400D02*
X52457800Y-78440800D01*
X52489300Y-78196900D02*
X52479700Y-78294400D01*
X52496600Y-78049000D02*
X52489300Y-78196900D01*
X52496600Y-77951000D02*
X52496600Y-78049000D01*
X52489300Y-77803200D02*
X52496600Y-77951000D01*
X52479700Y-77705600D02*
X52489300Y-77803200D01*
X52457800Y-77559200D02*
X52479700Y-77705600D01*
X52438700Y-77463100D02*
X52457800Y-77559200D01*
X52402600Y-77319500D02*
X52438700Y-77463100D01*
X52374000Y-77225800D02*
X52402600Y-77319500D01*
X52324000Y-77086500D02*
X52374000Y-77225800D01*
X52286300Y-76996000D02*
X52324000Y-77086500D01*
X52222800Y-76862300D02*
X52286300Y-76996000D01*
X52176400Y-76775900D02*
X52222800Y-76862300D01*
X52100100Y-76649100D02*
X52176400Y-76775900D01*
X52045500Y-76567700D02*
X52100100Y-76649100D01*
X51957000Y-76449000D02*
X52045500Y-76567700D01*
X51894600Y-76373400D02*
X51957000Y-76449000D01*
X51794900Y-76264000D02*
X51894600Y-76373400D01*
X51725400Y-76194900D02*
X51794900Y-76264000D01*
X51615400Y-76095900D02*
X51725400Y-76194900D01*
X51539400Y-76033900D02*
X51615400Y-76095900D01*
X51420200Y-75946200D02*
X51539400Y-76033900D01*
X51338600Y-75892000D02*
X51420200Y-75946200D01*
X51211300Y-75816400D02*
X51338600Y-75892000D01*
X51124700Y-75770600D02*
X51211300Y-75816400D01*
X50990600Y-75707800D02*
X51124700Y-75770600D01*
X50899900Y-75670700D02*
X50990600Y-75707800D01*
X50632700Y-75576500D02*
X50899900Y-75670700D01*
X50609800Y-75567200D02*
X50632700Y-75576500D01*
X50532000Y-75530400D02*
X50609800Y-75567200D01*
X50457600Y-75486600D02*
X50532000Y-75530400D01*
X50437000Y-75472900D02*
X50457600Y-75486600D01*
X50367500Y-75421400D02*
X50437000Y-75472900D01*
X50294600Y-75355700D02*
X50367500Y-75421400D01*
X50236200Y-75292100D02*
X50294600Y-75355700D01*
X50220500Y-75273000D02*
X50236200Y-75292100D01*
X50162500Y-75193300D02*
X50220500Y-75273000D01*
X50118200Y-75119000D02*
X50162500Y-75193300D01*
X50076100Y-75030400D02*
X50118200Y-75119000D01*
X50042800Y-74937700D02*
X50076100Y-75030400D01*
X50021400Y-74853900D02*
X50042800Y-74937700D01*
X50016600Y-74829700D02*
X50021400Y-74853900D01*
X50004200Y-74744600D02*
X50016600Y-74829700D01*
X49999100Y-74645800D02*
X50004200Y-74744600D01*
X49999100Y-73749800D02*
X49999100Y-74645800D01*
X50022700Y-73305400D02*
X49999100Y-73749800D01*
X50092300Y-72866000D02*
X50022700Y-73305400D01*
X50207500Y-72436200D02*
X50092300Y-72866000D01*
X50367000Y-72020900D02*
X50207500Y-72436200D01*
X50569000Y-71624400D02*
X50367000Y-72020900D01*
X50803700Y-71262400D02*
X50569000Y-71624400D01*
X50819000Y-71241300D02*
X50803700Y-71262400D01*
X51091300Y-70905600D02*
X50819000Y-71241300D01*
X51406000Y-70591000D02*
X51091300Y-70905600D01*
X51751800Y-70311000D02*
X51406000Y-70591000D01*
X52124900Y-70068700D02*
X51751800Y-70311000D01*
X52521400Y-69866700D02*
X52124900Y-70068700D01*
X52936800Y-69707300D02*
X52521400Y-69866700D01*
X53366500Y-69592200D02*
X52936800Y-69707300D01*
X53792600Y-69524400D02*
X53366500Y-69592200D01*
X53818800Y-69521600D02*
X53792600Y-69524400D01*
X54256500Y-69499000D02*
X53818800Y-69521600D01*
X77508800Y-69499000D02*
X54256500Y-69499000D01*
X77606000Y-69494200D02*
X77508800Y-69499000D01*
X77702100Y-69480000D02*
X77606000Y-69494200D01*
X77796400Y-69456400D02*
X77702100Y-69480000D01*
X77887900Y-69423600D02*
X77796400Y-69456400D01*
X77975700Y-69382100D02*
X77887900Y-69423600D01*
X78059000Y-69332200D02*
X77975700Y-69382100D01*
X78137100Y-69274300D02*
X78059000Y-69332200D01*
X78209000Y-69209000D02*
X78137100Y-69274300D01*
X78274300Y-69137100D02*
X78209000Y-69209000D01*
X78332200Y-69059000D02*
X78274300Y-69137100D01*
X78382100Y-68975700D02*
X78332200Y-69059000D01*
X78423600Y-68887900D02*
X78382100Y-68975700D01*
X78456400Y-68796400D02*
X78423600Y-68887900D01*
X78480000Y-68702100D02*
X78456400Y-68796400D01*
X78494200Y-68606000D02*
X78480000Y-68702100D01*
X78499000Y-68508800D02*
X78494200Y-68606000D01*
X78499000Y-67991200D02*
X78499000Y-68508800D01*
X78494200Y-67894000D02*
X78499000Y-67991200D01*
X78480000Y-67797900D02*
X78494200Y-67894000D01*
X78456400Y-67703600D02*
X78480000Y-67797900D01*
X78423600Y-67612100D02*
X78456400Y-67703600D01*
X78382100Y-67524300D02*
X78423600Y-67612100D01*
X78332200Y-67441000D02*
X78382100Y-67524300D01*
X78274300Y-67363000D02*
X78332200Y-67441000D01*
X78209000Y-67291000D02*
X78274300Y-67363000D01*
X78137100Y-67225700D02*
X78209000Y-67291000D01*
X78059000Y-67167900D02*
X78137100Y-67225700D01*
X77975700Y-67117900D02*
X78059000Y-67167900D01*
X77887900Y-67076400D02*
X77975700Y-67117900D01*
X77796400Y-67043600D02*
X77887900Y-67076400D01*
X77702100Y-67020000D02*
X77796400Y-67043600D01*
X77606000Y-67005800D02*
X77702100Y-67020000D01*
X77508800Y-67001000D02*
X77606000Y-67005800D01*
X54250100Y-67000900D02*
X77508800Y-67001000D01*
X53818800Y-66978400D02*
X54250100Y-67000900D01*
X53792700Y-66975700D02*
X53818800Y-66978400D01*
X53366500Y-66907800D02*
X53792700Y-66975700D01*
X52949100Y-66796400D02*
X53366500Y-66907800D01*
X52924100Y-66788200D02*
X52949100Y-66796400D01*
X52521300Y-66633300D02*
X52924100Y-66788200D01*
X52124900Y-66431300D02*
X52521300Y-66633300D01*
X51751700Y-66189000D02*
X52124900Y-66431300D01*
X51405500Y-65908700D02*
X51751700Y-66189000D01*
X51091000Y-65594000D02*
X51405500Y-65908700D01*
X50819200Y-65258900D02*
X51091000Y-65594000D01*
X50803700Y-65237700D02*
X50819200Y-65258900D01*
X50575700Y-64886500D02*
X50803700Y-65237700D01*
X50562600Y-64863800D02*
X50575700Y-64886500D01*
X50366900Y-64479100D02*
X50562600Y-64863800D01*
X50211800Y-64075900D02*
X50366900Y-64479100D01*
X50203700Y-64050900D02*
X50211800Y-64075900D01*
X50092300Y-63634000D02*
X50203700Y-64050900D01*
X50022700Y-63194500D02*
X50092300Y-63634000D01*
X49999100Y-62749900D02*
X50022700Y-63194500D01*
X49999000Y-61860300D02*
X49999100Y-62749900D01*
X50003200Y-61768000D02*
X49999000Y-61860300D01*
X50005700Y-61743400D02*
X50003200Y-61768000D01*
X50018600Y-61658400D02*
X50005700Y-61743400D01*
X50042700Y-61562800D02*
X50018600Y-61658400D01*
X50076000Y-61470000D02*
X50042700Y-61562800D01*
X50118200Y-61381000D02*
X50076000Y-61470000D01*
X50169300Y-61296100D02*
X50118200Y-61381000D01*
X50220400Y-61227000D02*
X50169300Y-61296100D01*
X50236200Y-61207900D02*
X50220400Y-61227000D01*
X50294300Y-61144600D02*
X50236200Y-61207900D01*
X50358300Y-61086500D02*
X50294300Y-61144600D01*
X50437200Y-61027000D02*
X50358300Y-61086500D01*
X50531700Y-60969800D02*
X50437200Y-61027000D01*
X50620900Y-60928000D02*
X50531700Y-60969800D01*
X50899900Y-60829300D02*
X50620900Y-60928000D01*
X50990600Y-60792200D02*
X50899900Y-60829300D01*
X51124700Y-60729500D02*
X50990600Y-60792200D01*
X51211300Y-60683600D02*
X51124700Y-60729500D01*
X51338600Y-60608000D02*
X51211300Y-60683600D01*
X51420200Y-60553800D02*
X51338600Y-60608000D01*
X51539400Y-60466100D02*
X51420200Y-60553800D01*
X51615400Y-60404100D02*
X51539400Y-60466100D01*
X51725400Y-60305100D02*
X51615400Y-60404100D01*
X51794900Y-60236000D02*
X51725400Y-60305100D01*
X51894600Y-60126600D02*
X51794900Y-60236000D01*
X51957000Y-60051000D02*
X51894600Y-60126600D01*
X52045500Y-59932300D02*
X51957000Y-60051000D01*
X52100100Y-59850900D02*
X52045500Y-59932300D01*
X52176400Y-59724100D02*
X52100100Y-59850900D01*
X52222800Y-59637700D02*
X52176400Y-59724100D01*
X52286300Y-59504000D02*
X52222800Y-59637700D01*
X52324000Y-59413500D02*
X52286300Y-59504000D01*
X52374000Y-59274200D02*
X52324000Y-59413500D01*
X52402600Y-59180500D02*
X52374000Y-59274200D01*
X52438700Y-59036900D02*
X52402600Y-59180500D01*
X52457800Y-58940800D02*
X52438700Y-59036900D01*
X52479700Y-58794400D02*
X52457800Y-58940800D01*
X52489300Y-58696900D02*
X52479700Y-58794400D01*
X52496600Y-58549000D02*
X52489300Y-58696900D01*
X52496600Y-58451000D02*
X52496600Y-58549000D01*
X52489300Y-58303100D02*
X52496600Y-58451000D01*
X52479700Y-58205600D02*
X52489300Y-58303100D01*
X52457800Y-58059200D02*
X52479700Y-58205600D01*
X52438700Y-57963100D02*
X52457800Y-58059200D01*
X52402600Y-57819500D02*
X52438700Y-57963100D01*
X52374000Y-57725800D02*
X52402600Y-57819500D01*
X52324000Y-57586500D02*
X52374000Y-57725800D01*
X52286300Y-57496000D02*
X52324000Y-57586500D01*
X52222800Y-57362300D02*
X52286300Y-57496000D01*
X52176400Y-57275900D02*
X52222800Y-57362300D01*
X52100100Y-57149100D02*
X52176400Y-57275900D01*
X52045500Y-57067700D02*
X52100100Y-57149100D01*
X51957000Y-56949000D02*
X52045500Y-57067700D01*
X51894600Y-56873400D02*
X51957000Y-56949000D01*
X51794900Y-56764000D02*
X51894600Y-56873400D01*
X51725400Y-56694900D02*
X51794900Y-56764000D01*
X51615400Y-56595900D02*
X51725400Y-56694900D01*
X51539400Y-56533900D02*
X51615400Y-56595900D01*
X51420200Y-56446200D02*
X51539400Y-56533900D01*
X51338600Y-56392000D02*
X51420200Y-56446200D01*
X51211300Y-56316400D02*
X51338600Y-56392000D01*
X51124700Y-56270600D02*
X51211300Y-56316400D01*
X50990600Y-56207800D02*
X51124700Y-56270600D01*
X50899900Y-56170700D02*
X50990600Y-56207800D01*
X50621300Y-56072200D02*
X50899900Y-56170700D01*
X50542700Y-56035700D02*
X50621300Y-56072200D01*
X50447300Y-55980100D02*
X50542700Y-56035700D01*
X50367900Y-55921700D02*
X50447300Y-55980100D01*
X50303500Y-55864100D02*
X50367900Y-55921700D01*
X50285900Y-55846600D02*
X50303500Y-55864100D01*
X50227900Y-55782500D02*
X50285900Y-55846600D01*
X50169300Y-55703900D02*
X50227900Y-55782500D01*
X50124500Y-55630000D02*
X50169300Y-55703900D01*
X50112800Y-55608200D02*
X50124500Y-55630000D01*
X50076100Y-55530400D02*
X50112800Y-55608200D01*
X50046600Y-55449200D02*
X50076100Y-55530400D01*
X50039400Y-55425500D02*
X50046600Y-55449200D01*
X50016600Y-55329700D02*
X50039400Y-55425500D01*
X50004100Y-55244100D02*
X50016600Y-55329700D01*
X49999100Y-55145800D02*
X50004100Y-55244100D01*
X49999100Y-54250100D02*
X49999100Y-55145800D01*
X50022700Y-53805400D02*
X49999100Y-54250100D01*
X50089800Y-53379200D02*
X50022700Y-53805400D01*
X50095300Y-53353500D02*
X50089800Y-53379200D01*
X50207300Y-52936700D02*
X50095300Y-53353500D01*
X50361800Y-52533300D02*
X50207300Y-52936700D01*
X50372500Y-52509300D02*
X50361800Y-52533300D01*
X50568700Y-52124900D02*
X50372500Y-52509300D01*
X50803700Y-51762400D02*
X50568700Y-52124900D01*
X50819100Y-51741100D02*
X50803700Y-51762400D01*
X51091000Y-51405900D02*
X50819100Y-51741100D01*
X51396200Y-51100200D02*
X51091000Y-51405900D01*
X51415700Y-51082600D02*
X51396200Y-51100200D01*
X51751300Y-50811300D02*
X51415700Y-51082600D01*
X52124900Y-50568700D02*
X51751300Y-50811300D01*
X52509200Y-50372500D02*
X52124900Y-50568700D01*
X52533200Y-50361800D02*
X52509200Y-50372500D01*
X52924100Y-50211800D02*
X52533200Y-50361800D01*
X52949100Y-50203700D02*
X52924100Y-50211800D01*
X53366000Y-50092300D02*
X52949100Y-50203700D01*
X53792600Y-50024300D02*
X53366000Y-50092300D01*
X53818800Y-50021600D02*
X53792600Y-50024300D01*
X54256500Y-49999000D02*
X53818800Y-50021600D01*
X77508800Y-49999000D02*
X54256500Y-49999000D01*
X77606000Y-49994200D02*
X77508800Y-49999000D01*
X77702100Y-49980000D02*
X77606000Y-49994200D01*
X77796400Y-49956400D02*
X77702100Y-49980000D01*
X77887900Y-49923600D02*
X77796400Y-49956400D01*
X77975700Y-49882100D02*
X77887900Y-49923600D01*
X78059000Y-49832100D02*
X77975700Y-49882100D01*
X78137100Y-49774300D02*
X78059000Y-49832100D01*
X78209000Y-49709000D02*
X78137100Y-49774300D01*
X78274300Y-49637000D02*
X78209000Y-49709000D01*
X78332200Y-49559000D02*
X78274300Y-49637000D01*
X78382100Y-49475700D02*
X78332200Y-49559000D01*
X78423600Y-49387900D02*
X78382100Y-49475700D01*
X78456400Y-49296400D02*
X78423600Y-49387900D01*
X78480000Y-49202100D02*
X78456400Y-49296400D01*
X78494200Y-49106000D02*
X78480000Y-49202100D01*
X78499000Y-49008800D02*
X78494200Y-49106000D01*
X78499000Y-48490200D02*
X78499000Y-49008800D01*
X78494200Y-48393000D02*
X78499000Y-48490200D01*
X78480000Y-48296900D02*
X78494200Y-48393000D01*
X78456400Y-48202600D02*
X78480000Y-48296900D01*
X78423600Y-48111100D02*
X78456400Y-48202600D01*
X78382100Y-48023300D02*
X78423600Y-48111100D01*
X78332200Y-47940000D02*
X78382100Y-48023300D01*
X78274300Y-47862000D02*
X78332200Y-47940000D01*
X78209000Y-47790000D02*
X78274300Y-47862000D01*
X78137100Y-47724700D02*
X78209000Y-47790000D01*
X78059000Y-47666900D02*
X78137100Y-47724700D01*
X77975700Y-47616900D02*
X78059000Y-47666900D01*
X77887900Y-47575400D02*
X77975700Y-47616900D01*
X77796400Y-47542600D02*
X77887900Y-47575400D01*
X77702100Y-47519000D02*
X77796400Y-47542600D01*
X77606000Y-47504800D02*
X77702100Y-47519000D01*
X77508800Y-47500000D02*
X77606000Y-47504800D01*
X50008200Y-47499200D02*
X77508800Y-47500000D01*
X50003700Y-47497400D02*
X50008200Y-47499200D01*
X50000300Y-47492700D02*
X50003700Y-47497400D01*
X49999000Y-47475500D02*
X50000300Y-47492700D01*
X49999000Y-43523500D02*
X49999000Y-47475500D01*
X50000600Y-43505400D02*
X49999000Y-43523500D01*
X50003700Y-43501600D02*
X50000600Y-43505400D01*
X50009200Y-43499700D02*
X50003700Y-43501600D01*
D11*
X69976191Y-119452432D02*
X69976191Y-118452432D01*
X68928572Y-119357194D02*
X68976191Y-119404813D01*
X69119048Y-119452432D01*
X69214286Y-119452432D01*
X69357143Y-119404813D01*
X69452381Y-119309575D01*
X69500001Y-119214337D01*
X69547620Y-119023861D01*
X69547620Y-118881004D01*
X69500001Y-118690528D01*
X69452381Y-118595290D01*
X69357143Y-118500052D01*
X69214286Y-118452432D01*
X69119048Y-118452432D01*
X68976191Y-118500052D01*
X68928572Y-118547671D01*
X67976191Y-119452432D02*
X68547620Y-119452432D01*
X68261905Y-119452432D02*
X68261905Y-118452432D01*
X68357143Y-118595290D01*
X68452381Y-118690528D01*
X68547620Y-118738147D01*
X78071429Y-118452432D02*
X77880953Y-118452432D01*
X77785715Y-118500052D01*
X77690477Y-118595290D01*
X77642858Y-118785766D01*
X77642858Y-119119099D01*
X77690477Y-119309575D01*
X77785715Y-119404813D01*
X77880953Y-119452432D01*
X78071429Y-119452432D01*
X78166667Y-119404813D01*
X78261905Y-119309575D01*
X78309524Y-119119099D01*
X78309524Y-118785766D01*
X78261905Y-118595290D01*
X78166667Y-118500052D01*
X78071429Y-118452432D01*
X76642858Y-119357194D02*
X76690477Y-119404813D01*
X76833334Y-119452432D01*
X76928572Y-119452432D01*
X77071429Y-119404813D01*
X77166667Y-119309575D01*
X77214286Y-119214337D01*
X77261905Y-119023861D01*
X77261905Y-118881004D01*
X77214286Y-118690528D01*
X77166667Y-118595290D01*
X77071429Y-118500052D01*
X76928572Y-118452432D01*
X76833334Y-118452432D01*
X76690477Y-118500052D01*
X76642858Y-118547671D01*
X75690477Y-119452432D02*
X76261905Y-119452432D01*
X75976191Y-119452432D02*
X75976191Y-118452432D01*
X76071429Y-118595290D01*
X76166667Y-118690528D01*
X76261905Y-118738147D01*
X101071429Y-118452432D02*
X100880953Y-118452432D01*
X100785715Y-118500052D01*
X100690477Y-118595290D01*
X100642858Y-118785766D01*
X100642858Y-119119099D01*
X100690477Y-119309575D01*
X100785715Y-119404813D01*
X100880953Y-119452432D01*
X101071429Y-119452432D01*
X101166667Y-119404813D01*
X101261905Y-119309575D01*
X101309524Y-119119099D01*
X101309524Y-118785766D01*
X101261905Y-118595290D01*
X101166667Y-118500052D01*
X101071429Y-118452432D01*
X99642858Y-119357194D02*
X99690477Y-119404813D01*
X99833334Y-119452432D01*
X99928572Y-119452432D01*
X100071429Y-119404813D01*
X100166667Y-119309575D01*
X100214286Y-119214337D01*
X100261905Y-119023861D01*
X100261905Y-118881004D01*
X100214286Y-118690528D01*
X100166667Y-118595290D01*
X100071429Y-118500052D01*
X99928572Y-118452432D01*
X99833334Y-118452432D01*
X99690477Y-118500052D01*
X99642858Y-118547671D01*
X99261905Y-118547671D02*
X99214286Y-118500052D01*
X99119048Y-118452432D01*
X98880953Y-118452432D01*
X98785715Y-118500052D01*
X98738096Y-118547671D01*
X98690477Y-118642909D01*
X98690477Y-118738147D01*
X98738096Y-118881004D01*
X99309524Y-119452432D01*
X98690477Y-119452432D01*
X108976191Y-119452432D02*
X108976191Y-118452432D01*
X107928572Y-119357194D02*
X107976191Y-119404813D01*
X108119048Y-119452432D01*
X108214286Y-119452432D01*
X108357143Y-119404813D01*
X108452381Y-119309575D01*
X108500001Y-119214337D01*
X108547620Y-119023861D01*
X108547620Y-118881004D01*
X108500001Y-118690528D01*
X108452381Y-118595290D01*
X108357143Y-118500052D01*
X108214286Y-118452432D01*
X108119048Y-118452432D01*
X107976191Y-118500052D01*
X107928572Y-118547671D01*
X107547620Y-118547671D02*
X107500001Y-118500052D01*
X107404762Y-118452432D01*
X107166667Y-118452432D01*
X107071429Y-118500052D01*
X107023810Y-118547671D01*
X106976191Y-118642909D01*
X106976191Y-118738147D01*
X107023810Y-118881004D01*
X107595239Y-119452432D01*
X106976191Y-119452432D01*
X69976191Y-99952415D02*
X69976191Y-98952415D01*
X68928572Y-99857177D02*
X68976191Y-99904796D01*
X69119048Y-99952415D01*
X69214286Y-99952415D01*
X69357143Y-99904796D01*
X69452381Y-99809558D01*
X69500001Y-99714320D01*
X69547620Y-99523844D01*
X69547620Y-99380987D01*
X69500001Y-99190511D01*
X69452381Y-99095273D01*
X69357143Y-99000035D01*
X69214286Y-98952415D01*
X69119048Y-98952415D01*
X68976191Y-99000035D01*
X68928572Y-99047654D01*
X67976191Y-99952415D02*
X68547620Y-99952415D01*
X68261905Y-99952415D02*
X68261905Y-98952415D01*
X68357143Y-99095273D01*
X68452381Y-99190511D01*
X68547620Y-99238130D01*
X78071429Y-98952415D02*
X77880953Y-98952415D01*
X77785715Y-99000035D01*
X77690477Y-99095273D01*
X77642858Y-99285749D01*
X77642858Y-99619082D01*
X77690477Y-99809558D01*
X77785715Y-99904796D01*
X77880953Y-99952415D01*
X78071429Y-99952415D01*
X78166667Y-99904796D01*
X78261905Y-99809558D01*
X78309524Y-99619082D01*
X78309524Y-99285749D01*
X78261905Y-99095273D01*
X78166667Y-99000035D01*
X78071429Y-98952415D01*
X76642858Y-99857177D02*
X76690477Y-99904796D01*
X76833334Y-99952415D01*
X76928572Y-99952415D01*
X77071429Y-99904796D01*
X77166667Y-99809558D01*
X77214286Y-99714320D01*
X77261905Y-99523844D01*
X77261905Y-99380987D01*
X77214286Y-99190511D01*
X77166667Y-99095273D01*
X77071429Y-99000035D01*
X76928572Y-98952415D01*
X76833334Y-98952415D01*
X76690477Y-99000035D01*
X76642858Y-99047654D01*
X75690477Y-99952415D02*
X76261905Y-99952415D01*
X75976191Y-99952415D02*
X75976191Y-98952415D01*
X76071429Y-99095273D01*
X76166667Y-99190511D01*
X76261905Y-99238130D01*
X101071429Y-98952415D02*
X100880953Y-98952415D01*
X100785715Y-99000035D01*
X100690477Y-99095273D01*
X100642858Y-99285749D01*
X100642858Y-99619082D01*
X100690477Y-99809558D01*
X100785715Y-99904796D01*
X100880953Y-99952415D01*
X101071429Y-99952415D01*
X101166667Y-99904796D01*
X101261905Y-99809558D01*
X101309524Y-99619082D01*
X101309524Y-99285749D01*
X101261905Y-99095273D01*
X101166667Y-99000035D01*
X101071429Y-98952415D01*
X99642858Y-99857177D02*
X99690477Y-99904796D01*
X99833334Y-99952415D01*
X99928572Y-99952415D01*
X100071429Y-99904796D01*
X100166667Y-99809558D01*
X100214286Y-99714320D01*
X100261905Y-99523844D01*
X100261905Y-99380987D01*
X100214286Y-99190511D01*
X100166667Y-99095273D01*
X100071429Y-99000035D01*
X99928572Y-98952415D01*
X99833334Y-98952415D01*
X99690477Y-99000035D01*
X99642858Y-99047654D01*
X99261905Y-99047654D02*
X99214286Y-99000035D01*
X99119048Y-98952415D01*
X98880953Y-98952415D01*
X98785715Y-99000035D01*
X98738096Y-99047654D01*
X98690477Y-99142892D01*
X98690477Y-99238130D01*
X98738096Y-99380987D01*
X99309524Y-99952415D01*
X98690477Y-99952415D01*
X108976191Y-99952415D02*
X108976191Y-98952415D01*
X107928572Y-99857177D02*
X107976191Y-99904796D01*
X108119048Y-99952415D01*
X108214286Y-99952415D01*
X108357143Y-99904796D01*
X108452381Y-99809558D01*
X108500001Y-99714320D01*
X108547620Y-99523844D01*
X108547620Y-99380987D01*
X108500001Y-99190511D01*
X108452381Y-99095273D01*
X108357143Y-99000035D01*
X108214286Y-98952415D01*
X108119048Y-98952415D01*
X107976191Y-99000035D01*
X107928572Y-99047654D01*
X107547620Y-99047654D02*
X107500001Y-99000035D01*
X107404762Y-98952415D01*
X107166667Y-98952415D01*
X107071429Y-99000035D01*
X107023810Y-99047654D01*
X106976191Y-99142892D01*
X106976191Y-99238130D01*
X107023810Y-99380987D01*
X107595239Y-99952415D01*
X106976191Y-99952415D01*
X69976191Y-80452398D02*
X69976191Y-79452398D01*
X68928572Y-80357160D02*
X68976191Y-80404779D01*
X69119048Y-80452398D01*
X69214286Y-80452398D01*
X69357143Y-80404779D01*
X69452381Y-80309541D01*
X69500001Y-80214303D01*
X69547620Y-80023827D01*
X69547620Y-79880970D01*
X69500001Y-79690494D01*
X69452381Y-79595256D01*
X69357143Y-79500018D01*
X69214286Y-79452398D01*
X69119048Y-79452398D01*
X68976191Y-79500018D01*
X68928572Y-79547637D01*
X67976191Y-80452398D02*
X68547620Y-80452398D01*
X68261905Y-80452398D02*
X68261905Y-79452398D01*
X68357143Y-79595256D01*
X68452381Y-79690494D01*
X68547620Y-79738113D01*
X78071429Y-79452398D02*
X77880953Y-79452398D01*
X77785715Y-79500018D01*
X77690477Y-79595256D01*
X77642858Y-79785732D01*
X77642858Y-80119065D01*
X77690477Y-80309541D01*
X77785715Y-80404779D01*
X77880953Y-80452398D01*
X78071429Y-80452398D01*
X78166667Y-80404779D01*
X78261905Y-80309541D01*
X78309524Y-80119065D01*
X78309524Y-79785732D01*
X78261905Y-79595256D01*
X78166667Y-79500018D01*
X78071429Y-79452398D01*
X76642858Y-80357160D02*
X76690477Y-80404779D01*
X76833334Y-80452398D01*
X76928572Y-80452398D01*
X77071429Y-80404779D01*
X77166667Y-80309541D01*
X77214286Y-80214303D01*
X77261905Y-80023827D01*
X77261905Y-79880970D01*
X77214286Y-79690494D01*
X77166667Y-79595256D01*
X77071429Y-79500018D01*
X76928572Y-79452398D01*
X76833334Y-79452398D01*
X76690477Y-79500018D01*
X76642858Y-79547637D01*
X75690477Y-80452398D02*
X76261905Y-80452398D01*
X75976191Y-80452398D02*
X75976191Y-79452398D01*
X76071429Y-79595256D01*
X76166667Y-79690494D01*
X76261905Y-79738113D01*
X101071429Y-79452398D02*
X100880953Y-79452398D01*
X100785715Y-79500018D01*
X100690477Y-79595256D01*
X100642858Y-79785732D01*
X100642858Y-80119065D01*
X100690477Y-80309541D01*
X100785715Y-80404779D01*
X100880953Y-80452398D01*
X101071429Y-80452398D01*
X101166667Y-80404779D01*
X101261905Y-80309541D01*
X101309524Y-80119065D01*
X101309524Y-79785732D01*
X101261905Y-79595256D01*
X101166667Y-79500018D01*
X101071429Y-79452398D01*
X99642858Y-80357160D02*
X99690477Y-80404779D01*
X99833334Y-80452398D01*
X99928572Y-80452398D01*
X100071429Y-80404779D01*
X100166667Y-80309541D01*
X100214286Y-80214303D01*
X100261905Y-80023827D01*
X100261905Y-79880970D01*
X100214286Y-79690494D01*
X100166667Y-79595256D01*
X100071429Y-79500018D01*
X99928572Y-79452398D01*
X99833334Y-79452398D01*
X99690477Y-79500018D01*
X99642858Y-79547637D01*
X99261905Y-79547637D02*
X99214286Y-79500018D01*
X99119048Y-79452398D01*
X98880953Y-79452398D01*
X98785715Y-79500018D01*
X98738096Y-79547637D01*
X98690477Y-79642875D01*
X98690477Y-79738113D01*
X98738096Y-79880970D01*
X99309524Y-80452398D01*
X98690477Y-80452398D01*
X108976191Y-80452398D02*
X108976191Y-79452398D01*
X107928572Y-80357160D02*
X107976191Y-80404779D01*
X108119048Y-80452398D01*
X108214286Y-80452398D01*
X108357143Y-80404779D01*
X108452381Y-80309541D01*
X108500001Y-80214303D01*
X108547620Y-80023827D01*
X108547620Y-79880970D01*
X108500001Y-79690494D01*
X108452381Y-79595256D01*
X108357143Y-79500018D01*
X108214286Y-79452398D01*
X108119048Y-79452398D01*
X107976191Y-79500018D01*
X107928572Y-79547637D01*
X107547620Y-79547637D02*
X107500001Y-79500018D01*
X107404762Y-79452398D01*
X107166667Y-79452398D01*
X107071429Y-79500018D01*
X107023810Y-79547637D01*
X106976191Y-79642875D01*
X106976191Y-79738113D01*
X107023810Y-79880970D01*
X107595239Y-80452398D01*
X106976191Y-80452398D01*
X69976191Y-60952381D02*
X69976191Y-59952381D01*
X68928572Y-60857143D02*
X68976191Y-60904762D01*
X69119048Y-60952381D01*
X69214286Y-60952381D01*
X69357143Y-60904762D01*
X69452381Y-60809524D01*
X69500001Y-60714286D01*
X69547620Y-60523810D01*
X69547620Y-60380953D01*
X69500001Y-60190477D01*
X69452381Y-60095239D01*
X69357143Y-60000001D01*
X69214286Y-59952381D01*
X69119048Y-59952381D01*
X68976191Y-60000001D01*
X68928572Y-60047620D01*
X67976191Y-60952381D02*
X68547620Y-60952381D01*
X68261905Y-60952381D02*
X68261905Y-59952381D01*
X68357143Y-60095239D01*
X68452381Y-60190477D01*
X68547620Y-60238096D01*
X78071429Y-59952381D02*
X77880953Y-59952381D01*
X77785715Y-60000001D01*
X77690477Y-60095239D01*
X77642858Y-60285715D01*
X77642858Y-60619048D01*
X77690477Y-60809524D01*
X77785715Y-60904762D01*
X77880953Y-60952381D01*
X78071429Y-60952381D01*
X78166667Y-60904762D01*
X78261905Y-60809524D01*
X78309524Y-60619048D01*
X78309524Y-60285715D01*
X78261905Y-60095239D01*
X78166667Y-60000001D01*
X78071429Y-59952381D01*
X76642858Y-60857143D02*
X76690477Y-60904762D01*
X76833334Y-60952381D01*
X76928572Y-60952381D01*
X77071429Y-60904762D01*
X77166667Y-60809524D01*
X77214286Y-60714286D01*
X77261905Y-60523810D01*
X77261905Y-60380953D01*
X77214286Y-60190477D01*
X77166667Y-60095239D01*
X77071429Y-60000001D01*
X76928572Y-59952381D01*
X76833334Y-59952381D01*
X76690477Y-60000001D01*
X76642858Y-60047620D01*
X75690477Y-60952381D02*
X76261905Y-60952381D01*
X75976191Y-60952381D02*
X75976191Y-59952381D01*
X76071429Y-60095239D01*
X76166667Y-60190477D01*
X76261905Y-60238096D01*
X101071429Y-59952381D02*
X100880953Y-59952381D01*
X100785715Y-60000001D01*
X100690477Y-60095239D01*
X100642858Y-60285715D01*
X100642858Y-60619048D01*
X100690477Y-60809524D01*
X100785715Y-60904762D01*
X100880953Y-60952381D01*
X101071429Y-60952381D01*
X101166667Y-60904762D01*
X101261905Y-60809524D01*
X101309524Y-60619048D01*
X101309524Y-60285715D01*
X101261905Y-60095239D01*
X101166667Y-60000001D01*
X101071429Y-59952381D01*
X99642858Y-60857143D02*
X99690477Y-60904762D01*
X99833334Y-60952381D01*
X99928572Y-60952381D01*
X100071429Y-60904762D01*
X100166667Y-60809524D01*
X100214286Y-60714286D01*
X100261905Y-60523810D01*
X100261905Y-60380953D01*
X100214286Y-60190477D01*
X100166667Y-60095239D01*
X100071429Y-60000001D01*
X99928572Y-59952381D01*
X99833334Y-59952381D01*
X99690477Y-60000001D01*
X99642858Y-60047620D01*
X99261905Y-60047620D02*
X99214286Y-60000001D01*
X99119048Y-59952381D01*
X98880953Y-59952381D01*
X98785715Y-60000001D01*
X98738096Y-60047620D01*
X98690477Y-60142858D01*
X98690477Y-60238096D01*
X98738096Y-60380953D01*
X99309524Y-60952381D01*
X98690477Y-60952381D01*
X108976191Y-60952381D02*
X108976191Y-59952381D01*
X107928572Y-60857143D02*
X107976191Y-60904762D01*
X108119048Y-60952381D01*
X108214286Y-60952381D01*
X108357143Y-60904762D01*
X108452381Y-60809524D01*
X108500001Y-60714286D01*
X108547620Y-60523810D01*
X108547620Y-60380953D01*
X108500001Y-60190477D01*
X108452381Y-60095239D01*
X108357143Y-60000001D01*
X108214286Y-59952381D01*
X108119048Y-59952381D01*
X107976191Y-60000001D01*
X107928572Y-60047620D01*
X107547620Y-60047620D02*
X107500001Y-60000001D01*
X107404762Y-59952381D01*
X107166667Y-59952381D01*
X107071429Y-60000001D01*
X107023810Y-60047620D01*
X106976191Y-60142858D01*
X106976191Y-60238096D01*
X107023810Y-60380953D01*
X107595239Y-60952381D01*
X106976191Y-60952381D01*
D12*
G04 #@! TO.C,G\002A\002A\002A*
G36*
X92649298Y-116613099D02*
G01*
X93949063Y-116623021D01*
X94224007Y-116625296D01*
X94461557Y-116627665D01*
X94664007Y-116630190D01*
X94833652Y-116632928D01*
X94972786Y-116635941D01*
X95083703Y-116639287D01*
X95168697Y-116643027D01*
X95230061Y-116647220D01*
X95270091Y-116651925D01*
X95291079Y-116657204D01*
X95292624Y-116657988D01*
X95318903Y-116680257D01*
X95337966Y-116716366D01*
X95351001Y-116772229D01*
X95359197Y-116853760D01*
X95363741Y-116966874D01*
X95364716Y-117016713D01*
X95365142Y-117111651D01*
X95362048Y-117175371D01*
X95354284Y-117216275D01*
X95340699Y-117242762D01*
X95332464Y-117252131D01*
X95323562Y-117259237D01*
X95310090Y-117265359D01*
X95289160Y-117270586D01*
X95257888Y-117275005D01*
X95213388Y-117278704D01*
X95152775Y-117281773D01*
X95073163Y-117284298D01*
X94971665Y-117286367D01*
X94845398Y-117288070D01*
X94691474Y-117289493D01*
X94507008Y-117290726D01*
X94289115Y-117291855D01*
X94034909Y-117292970D01*
X93988050Y-117293163D01*
X92679063Y-117298540D01*
X92679334Y-117491601D01*
X92680654Y-117580141D01*
X92683968Y-117657711D01*
X92688694Y-117712960D01*
X92691571Y-117729310D01*
X92703536Y-117773958D01*
X93996026Y-117771319D01*
X94223907Y-117770604D01*
X94443845Y-117769435D01*
X94651991Y-117767863D01*
X94844497Y-117765939D01*
X95017516Y-117763714D01*
X95167199Y-117761239D01*
X95289698Y-117758565D01*
X95381165Y-117755744D01*
X95437753Y-117752825D01*
X95445979Y-117752089D01*
X95609543Y-117726879D01*
X95740380Y-117687544D01*
X95843860Y-117631087D01*
X95925350Y-117554511D01*
X95990220Y-117454820D01*
X95994870Y-117445721D01*
X96057960Y-117320169D01*
X96045070Y-117075775D01*
X96035360Y-116910737D01*
X96025020Y-116779678D01*
X96013137Y-116676890D01*
X95998794Y-116596664D01*
X95981076Y-116533292D01*
X95959067Y-116481067D01*
X95945777Y-116456683D01*
X95880346Y-116370084D01*
X95792824Y-116300617D01*
X95676073Y-116243184D01*
X95615938Y-116221201D01*
X95590591Y-116212875D01*
X95565354Y-116205667D01*
X95537272Y-116199482D01*
X95503392Y-116194224D01*
X95460760Y-116189798D01*
X95406423Y-116186108D01*
X95337425Y-116183059D01*
X95250814Y-116180555D01*
X95143635Y-116178502D01*
X95012934Y-116176804D01*
X94855758Y-116175365D01*
X94669152Y-116174090D01*
X94450163Y-116172884D01*
X94195837Y-116171651D01*
X94062505Y-116171031D01*
X92638056Y-116164449D01*
X92649298Y-116613099D01*
G37*
X92649298Y-116613099D02*
X93949063Y-116623021D01*
X94224007Y-116625296D01*
X94461557Y-116627665D01*
X94664007Y-116630190D01*
X94833652Y-116632928D01*
X94972786Y-116635941D01*
X95083703Y-116639287D01*
X95168697Y-116643027D01*
X95230061Y-116647220D01*
X95270091Y-116651925D01*
X95291079Y-116657204D01*
X95292624Y-116657988D01*
X95318903Y-116680257D01*
X95337966Y-116716366D01*
X95351001Y-116772229D01*
X95359197Y-116853760D01*
X95363741Y-116966874D01*
X95364716Y-117016713D01*
X95365142Y-117111651D01*
X95362048Y-117175371D01*
X95354284Y-117216275D01*
X95340699Y-117242762D01*
X95332464Y-117252131D01*
X95323562Y-117259237D01*
X95310090Y-117265359D01*
X95289160Y-117270586D01*
X95257888Y-117275005D01*
X95213388Y-117278704D01*
X95152775Y-117281773D01*
X95073163Y-117284298D01*
X94971665Y-117286367D01*
X94845398Y-117288070D01*
X94691474Y-117289493D01*
X94507008Y-117290726D01*
X94289115Y-117291855D01*
X94034909Y-117292970D01*
X93988050Y-117293163D01*
X92679063Y-117298540D01*
X92679334Y-117491601D01*
X92680654Y-117580141D01*
X92683968Y-117657711D01*
X92688694Y-117712960D01*
X92691571Y-117729310D01*
X92703536Y-117773958D01*
X93996026Y-117771319D01*
X94223907Y-117770604D01*
X94443845Y-117769435D01*
X94651991Y-117767863D01*
X94844497Y-117765939D01*
X95017516Y-117763714D01*
X95167199Y-117761239D01*
X95289698Y-117758565D01*
X95381165Y-117755744D01*
X95437753Y-117752825D01*
X95445979Y-117752089D01*
X95609543Y-117726879D01*
X95740380Y-117687544D01*
X95843860Y-117631087D01*
X95925350Y-117554511D01*
X95990220Y-117454820D01*
X95994870Y-117445721D01*
X96057960Y-117320169D01*
X96045070Y-117075775D01*
X96035360Y-116910737D01*
X96025020Y-116779678D01*
X96013137Y-116676890D01*
X95998794Y-116596664D01*
X95981076Y-116533292D01*
X95959067Y-116481067D01*
X95945777Y-116456683D01*
X95880346Y-116370084D01*
X95792824Y-116300617D01*
X95676073Y-116243184D01*
X95615938Y-116221201D01*
X95590591Y-116212875D01*
X95565354Y-116205667D01*
X95537272Y-116199482D01*
X95503392Y-116194224D01*
X95460760Y-116189798D01*
X95406423Y-116186108D01*
X95337425Y-116183059D01*
X95250814Y-116180555D01*
X95143635Y-116178502D01*
X95012934Y-116176804D01*
X94855758Y-116175365D01*
X94669152Y-116174090D01*
X94450163Y-116172884D01*
X94195837Y-116171651D01*
X94062505Y-116171031D01*
X92638056Y-116164449D01*
X92649298Y-116613099D01*
G36*
X91706720Y-116352055D02*
G01*
X91707739Y-116410962D01*
X91708660Y-116460313D01*
X91706280Y-116500968D01*
X91697394Y-116533785D01*
X91678798Y-116559622D01*
X91647289Y-116579340D01*
X91599662Y-116593798D01*
X91532714Y-116603853D01*
X91443241Y-116610366D01*
X91328038Y-116614196D01*
X91183902Y-116616201D01*
X91007630Y-116617240D01*
X90796016Y-116618173D01*
X90712465Y-116618637D01*
X89801720Y-116624174D01*
X89801720Y-116457406D01*
X89800241Y-116371268D01*
X89796320Y-116292963D01*
X89790734Y-116236796D01*
X89789317Y-116228626D01*
X89776915Y-116166615D01*
X89067501Y-116166615D01*
X89068077Y-116270794D01*
X89069041Y-116321044D01*
X89071420Y-116403600D01*
X89074965Y-116511115D01*
X89079431Y-116636241D01*
X89084570Y-116771632D01*
X89086933Y-116831380D01*
X89094768Y-117007115D01*
X89103439Y-117148280D01*
X89114093Y-117259990D01*
X89127879Y-117347360D01*
X89145944Y-117415507D01*
X89169435Y-117469546D01*
X89199500Y-117514594D01*
X89237287Y-117555765D01*
X89252692Y-117570337D01*
X89306497Y-117615117D01*
X89365311Y-117653030D01*
X89432723Y-117684614D01*
X89512325Y-117710405D01*
X89607708Y-117730941D01*
X89722461Y-117746759D01*
X89860176Y-117758394D01*
X90024445Y-117766385D01*
X90218856Y-117771268D01*
X90447002Y-117773580D01*
X90614531Y-117773958D01*
X91290001Y-117773958D01*
X91289730Y-117580482D01*
X91288414Y-117491856D01*
X91285106Y-117414204D01*
X91280388Y-117358856D01*
X91277494Y-117342357D01*
X91265528Y-117297708D01*
X90608038Y-117297416D01*
X90415544Y-117297176D01*
X90258965Y-117296238D01*
X90134531Y-117293985D01*
X90038469Y-117289805D01*
X89967008Y-117283084D01*
X89916376Y-117273207D01*
X89882803Y-117259560D01*
X89862515Y-117241531D01*
X89851742Y-117218503D01*
X89846712Y-117189865D01*
X89845170Y-117173229D01*
X89839012Y-117099271D01*
X90761508Y-117099271D01*
X90974993Y-117098800D01*
X91174636Y-117097440D01*
X91356375Y-117095269D01*
X91516153Y-117092368D01*
X91649908Y-117088815D01*
X91753583Y-117084689D01*
X91823116Y-117080069D01*
X91839229Y-117078271D01*
X92009653Y-117040991D01*
X92156876Y-116979580D01*
X92277113Y-116896316D01*
X92366576Y-116793477D01*
X92394442Y-116744218D01*
X92410444Y-116691481D01*
X92424066Y-116610822D01*
X92434452Y-116513977D01*
X92440748Y-116412681D01*
X92442099Y-116318672D01*
X92437649Y-116243685D01*
X92432876Y-116216569D01*
X92420339Y-116166615D01*
X91706720Y-116166615D01*
X91706720Y-116352055D01*
G37*
X91706720Y-116352055D02*
X91707739Y-116410962D01*
X91708660Y-116460313D01*
X91706280Y-116500968D01*
X91697394Y-116533785D01*
X91678798Y-116559622D01*
X91647289Y-116579340D01*
X91599662Y-116593798D01*
X91532714Y-116603853D01*
X91443241Y-116610366D01*
X91328038Y-116614196D01*
X91183902Y-116616201D01*
X91007630Y-116617240D01*
X90796016Y-116618173D01*
X90712465Y-116618637D01*
X89801720Y-116624174D01*
X89801720Y-116457406D01*
X89800241Y-116371268D01*
X89796320Y-116292963D01*
X89790734Y-116236796D01*
X89789317Y-116228626D01*
X89776915Y-116166615D01*
X89067501Y-116166615D01*
X89068077Y-116270794D01*
X89069041Y-116321044D01*
X89071420Y-116403600D01*
X89074965Y-116511115D01*
X89079431Y-116636241D01*
X89084570Y-116771632D01*
X89086933Y-116831380D01*
X89094768Y-117007115D01*
X89103439Y-117148280D01*
X89114093Y-117259990D01*
X89127879Y-117347360D01*
X89145944Y-117415507D01*
X89169435Y-117469546D01*
X89199500Y-117514594D01*
X89237287Y-117555765D01*
X89252692Y-117570337D01*
X89306497Y-117615117D01*
X89365311Y-117653030D01*
X89432723Y-117684614D01*
X89512325Y-117710405D01*
X89607708Y-117730941D01*
X89722461Y-117746759D01*
X89860176Y-117758394D01*
X90024445Y-117766385D01*
X90218856Y-117771268D01*
X90447002Y-117773580D01*
X90614531Y-117773958D01*
X91290001Y-117773958D01*
X91289730Y-117580482D01*
X91288414Y-117491856D01*
X91285106Y-117414204D01*
X91280388Y-117358856D01*
X91277494Y-117342357D01*
X91265528Y-117297708D01*
X90608038Y-117297416D01*
X90415544Y-117297176D01*
X90258965Y-117296238D01*
X90134531Y-117293985D01*
X90038469Y-117289805D01*
X89967008Y-117283084D01*
X89916376Y-117273207D01*
X89882803Y-117259560D01*
X89862515Y-117241531D01*
X89851742Y-117218503D01*
X89846712Y-117189865D01*
X89845170Y-117173229D01*
X89839012Y-117099271D01*
X90761508Y-117099271D01*
X90974993Y-117098800D01*
X91174636Y-117097440D01*
X91356375Y-117095269D01*
X91516153Y-117092368D01*
X91649908Y-117088815D01*
X91753583Y-117084689D01*
X91823116Y-117080069D01*
X91839229Y-117078271D01*
X92009653Y-117040991D01*
X92156876Y-116979580D01*
X92277113Y-116896316D01*
X92366576Y-116793477D01*
X92394442Y-116744218D01*
X92410444Y-116691481D01*
X92424066Y-116610822D01*
X92434452Y-116513977D01*
X92440748Y-116412681D01*
X92442099Y-116318672D01*
X92437649Y-116243685D01*
X92432876Y-116216569D01*
X92420339Y-116166615D01*
X91706720Y-116166615D01*
X91706720Y-116352055D01*
G36*
X85495626Y-116331834D02*
G01*
X85497102Y-116418049D01*
X85501013Y-116496423D01*
X85506588Y-116552681D01*
X85508028Y-116561009D01*
X85520431Y-116623021D01*
X86733380Y-116623494D01*
X86999721Y-116623769D01*
X87229208Y-116624451D01*
X87424674Y-116625659D01*
X87588949Y-116627511D01*
X87724867Y-116630128D01*
X87835259Y-116633629D01*
X87922958Y-116638132D01*
X87990797Y-116643757D01*
X88041606Y-116650623D01*
X88078220Y-116658849D01*
X88103469Y-116668554D01*
X88120186Y-116679859D01*
X88122388Y-116681953D01*
X88132659Y-116713063D01*
X88139901Y-116781453D01*
X88143940Y-116884822D01*
X88144767Y-116975532D01*
X88144552Y-117083935D01*
X88143153Y-117159430D01*
X88139434Y-117208795D01*
X88132262Y-117238809D01*
X88120500Y-117256251D01*
X88103016Y-117267899D01*
X88095157Y-117271951D01*
X88075992Y-117277329D01*
X88039611Y-117281949D01*
X87983560Y-117285860D01*
X87905383Y-117289109D01*
X87802626Y-117291746D01*
X87672834Y-117293816D01*
X87513553Y-117295369D01*
X87322327Y-117296452D01*
X87096702Y-117297114D01*
X86834223Y-117297402D01*
X86790431Y-117297416D01*
X85535313Y-117297708D01*
X85535486Y-117431654D01*
X85537609Y-117521441D01*
X85542912Y-117613722D01*
X85548172Y-117669779D01*
X85560685Y-117773958D01*
X86862648Y-117771384D01*
X87091018Y-117770676D01*
X87311183Y-117769499D01*
X87519347Y-117767907D01*
X87711712Y-117765951D01*
X87884482Y-117763682D01*
X88033860Y-117761152D01*
X88156047Y-117758413D01*
X88247248Y-117755517D01*
X88303666Y-117752515D01*
X88313016Y-117751627D01*
X88489534Y-117720383D01*
X88632075Y-117670967D01*
X88742413Y-117602435D01*
X88822324Y-117513846D01*
X88848915Y-117467010D01*
X88864403Y-117433020D01*
X88875648Y-117400116D01*
X88883155Y-117361708D01*
X88887436Y-117311204D01*
X88888997Y-117242014D01*
X88888348Y-117147547D01*
X88885997Y-117021213D01*
X88885419Y-116993938D01*
X88882286Y-116860420D01*
X88878834Y-116759658D01*
X88874221Y-116684722D01*
X88867601Y-116628684D01*
X88858131Y-116584615D01*
X88844966Y-116545586D01*
X88827263Y-116504670D01*
X88825287Y-116500373D01*
X88764644Y-116401077D01*
X88681025Y-116321864D01*
X88568429Y-116257968D01*
X88473878Y-116221384D01*
X88448273Y-116212975D01*
X88422955Y-116205696D01*
X88394967Y-116199453D01*
X88361351Y-116194148D01*
X88319151Y-116189687D01*
X88265409Y-116185972D01*
X88197169Y-116182910D01*
X88111474Y-116180403D01*
X88005367Y-116178357D01*
X87875890Y-116176674D01*
X87720087Y-116175260D01*
X87535001Y-116174018D01*
X87317674Y-116172853D01*
X87065151Y-116171669D01*
X86919415Y-116171016D01*
X85495626Y-116164672D01*
X85495626Y-116331834D01*
G37*
X85495626Y-116331834D02*
X85497102Y-116418049D01*
X85501013Y-116496423D01*
X85506588Y-116552681D01*
X85508028Y-116561009D01*
X85520431Y-116623021D01*
X86733380Y-116623494D01*
X86999721Y-116623769D01*
X87229208Y-116624451D01*
X87424674Y-116625659D01*
X87588949Y-116627511D01*
X87724867Y-116630128D01*
X87835259Y-116633629D01*
X87922958Y-116638132D01*
X87990797Y-116643757D01*
X88041606Y-116650623D01*
X88078220Y-116658849D01*
X88103469Y-116668554D01*
X88120186Y-116679859D01*
X88122388Y-116681953D01*
X88132659Y-116713063D01*
X88139901Y-116781453D01*
X88143940Y-116884822D01*
X88144767Y-116975532D01*
X88144552Y-117083935D01*
X88143153Y-117159430D01*
X88139434Y-117208795D01*
X88132262Y-117238809D01*
X88120500Y-117256251D01*
X88103016Y-117267899D01*
X88095157Y-117271951D01*
X88075992Y-117277329D01*
X88039611Y-117281949D01*
X87983560Y-117285860D01*
X87905383Y-117289109D01*
X87802626Y-117291746D01*
X87672834Y-117293816D01*
X87513553Y-117295369D01*
X87322327Y-117296452D01*
X87096702Y-117297114D01*
X86834223Y-117297402D01*
X86790431Y-117297416D01*
X85535313Y-117297708D01*
X85535486Y-117431654D01*
X85537609Y-117521441D01*
X85542912Y-117613722D01*
X85548172Y-117669779D01*
X85560685Y-117773958D01*
X86862648Y-117771384D01*
X87091018Y-117770676D01*
X87311183Y-117769499D01*
X87519347Y-117767907D01*
X87711712Y-117765951D01*
X87884482Y-117763682D01*
X88033860Y-117761152D01*
X88156047Y-117758413D01*
X88247248Y-117755517D01*
X88303666Y-117752515D01*
X88313016Y-117751627D01*
X88489534Y-117720383D01*
X88632075Y-117670967D01*
X88742413Y-117602435D01*
X88822324Y-117513846D01*
X88848915Y-117467010D01*
X88864403Y-117433020D01*
X88875648Y-117400116D01*
X88883155Y-117361708D01*
X88887436Y-117311204D01*
X88888997Y-117242014D01*
X88888348Y-117147547D01*
X88885997Y-117021213D01*
X88885419Y-116993938D01*
X88882286Y-116860420D01*
X88878834Y-116759658D01*
X88874221Y-116684722D01*
X88867601Y-116628684D01*
X88858131Y-116584615D01*
X88844966Y-116545586D01*
X88827263Y-116504670D01*
X88825287Y-116500373D01*
X88764644Y-116401077D01*
X88681025Y-116321864D01*
X88568429Y-116257968D01*
X88473878Y-116221384D01*
X88448273Y-116212975D01*
X88422955Y-116205696D01*
X88394967Y-116199453D01*
X88361351Y-116194148D01*
X88319151Y-116189687D01*
X88265409Y-116185972D01*
X88197169Y-116182910D01*
X88111474Y-116180403D01*
X88005367Y-116178357D01*
X87875890Y-116176674D01*
X87720087Y-116175260D01*
X87535001Y-116174018D01*
X87317674Y-116172853D01*
X87065151Y-116171669D01*
X86919415Y-116171016D01*
X85495626Y-116164672D01*
X85495626Y-116331834D01*
G36*
X82761772Y-116165236D02*
G01*
X82600364Y-116165681D01*
X82458046Y-116166542D01*
X82338865Y-116167837D01*
X82246870Y-116169589D01*
X82186111Y-116171817D01*
X82160636Y-116174542D01*
X82160222Y-116174803D01*
X82157426Y-116196744D01*
X82156166Y-116249974D01*
X82156518Y-116326124D01*
X82158153Y-116403006D01*
X82164352Y-116623021D01*
X83259481Y-116624204D01*
X83520767Y-116624704D01*
X83745139Y-116625672D01*
X83935368Y-116627213D01*
X84094227Y-116629435D01*
X84224487Y-116632445D01*
X84328920Y-116636350D01*
X84410298Y-116641258D01*
X84471392Y-116647276D01*
X84514974Y-116654511D01*
X84543816Y-116663070D01*
X84560690Y-116673061D01*
X84562268Y-116674592D01*
X84575674Y-116705144D01*
X84585466Y-116755867D01*
X84586102Y-116761927D01*
X84592735Y-116831380D01*
X83764259Y-116836559D01*
X82935782Y-116841737D01*
X82935901Y-116906012D01*
X82937507Y-116956538D01*
X82941650Y-117031917D01*
X82947501Y-117117458D01*
X82948764Y-117133997D01*
X82961508Y-117297708D01*
X84618115Y-117297708D01*
X84632423Y-117535833D01*
X84646730Y-117773958D01*
X85362347Y-117773958D01*
X85348245Y-117253060D01*
X85342044Y-117056286D01*
X85334638Y-116894669D01*
X85325292Y-116763682D01*
X85313270Y-116658799D01*
X85297836Y-116575491D01*
X85278255Y-116509231D01*
X85253790Y-116455493D01*
X85223708Y-116409749D01*
X85208088Y-116390503D01*
X85118113Y-116312793D01*
X84996534Y-116250003D01*
X84849525Y-116204893D01*
X84755010Y-116187914D01*
X84713879Y-116184824D01*
X84639203Y-116181884D01*
X84535031Y-116179113D01*
X84405412Y-116176532D01*
X84254395Y-116174162D01*
X84086029Y-116172023D01*
X83904362Y-116170135D01*
X83713443Y-116168520D01*
X83517320Y-116167196D01*
X83320043Y-116166186D01*
X83125660Y-116165509D01*
X82938220Y-116165186D01*
X82761772Y-116165236D01*
G37*
X82761772Y-116165236D02*
X82600364Y-116165681D01*
X82458046Y-116166542D01*
X82338865Y-116167837D01*
X82246870Y-116169589D01*
X82186111Y-116171817D01*
X82160636Y-116174542D01*
X82160222Y-116174803D01*
X82157426Y-116196744D01*
X82156166Y-116249974D01*
X82156518Y-116326124D01*
X82158153Y-116403006D01*
X82164352Y-116623021D01*
X83259481Y-116624204D01*
X83520767Y-116624704D01*
X83745139Y-116625672D01*
X83935368Y-116627213D01*
X84094227Y-116629435D01*
X84224487Y-116632445D01*
X84328920Y-116636350D01*
X84410298Y-116641258D01*
X84471392Y-116647276D01*
X84514974Y-116654511D01*
X84543816Y-116663070D01*
X84560690Y-116673061D01*
X84562268Y-116674592D01*
X84575674Y-116705144D01*
X84585466Y-116755867D01*
X84586102Y-116761927D01*
X84592735Y-116831380D01*
X83764259Y-116836559D01*
X82935782Y-116841737D01*
X82935901Y-116906012D01*
X82937507Y-116956538D01*
X82941650Y-117031917D01*
X82947501Y-117117458D01*
X82948764Y-117133997D01*
X82961508Y-117297708D01*
X84618115Y-117297708D01*
X84632423Y-117535833D01*
X84646730Y-117773958D01*
X85362347Y-117773958D01*
X85348245Y-117253060D01*
X85342044Y-117056286D01*
X85334638Y-116894669D01*
X85325292Y-116763682D01*
X85313270Y-116658799D01*
X85297836Y-116575491D01*
X85278255Y-116509231D01*
X85253790Y-116455493D01*
X85223708Y-116409749D01*
X85208088Y-116390503D01*
X85118113Y-116312793D01*
X84996534Y-116250003D01*
X84849525Y-116204893D01*
X84755010Y-116187914D01*
X84713879Y-116184824D01*
X84639203Y-116181884D01*
X84535031Y-116179113D01*
X84405412Y-116176532D01*
X84254395Y-116174162D01*
X84086029Y-116172023D01*
X83904362Y-116170135D01*
X83713443Y-116168520D01*
X83517320Y-116167196D01*
X83320043Y-116166186D01*
X83125660Y-116165509D01*
X82938220Y-116165186D01*
X82761772Y-116165236D01*
G36*
X81278776Y-116647368D02*
G01*
X81283760Y-116805879D01*
X81289246Y-116973360D01*
X81294847Y-117138472D01*
X81300178Y-117289875D01*
X81304850Y-117416231D01*
X81306026Y-117446536D01*
X81318517Y-117764036D01*
X82048047Y-117774874D01*
X82032961Y-117273361D01*
X82028038Y-117114593D01*
X82022654Y-116949263D01*
X82017165Y-116787775D01*
X82011929Y-116640534D01*
X82007303Y-116517947D01*
X82005539Y-116474193D01*
X81993204Y-116176536D01*
X81628611Y-116171118D01*
X81264017Y-116165701D01*
X81278776Y-116647368D01*
G37*
X81278776Y-116647368D02*
X81283760Y-116805879D01*
X81289246Y-116973360D01*
X81294847Y-117138472D01*
X81300178Y-117289875D01*
X81304850Y-117416231D01*
X81306026Y-117446536D01*
X81318517Y-117764036D01*
X82048047Y-117774874D01*
X82032961Y-117273361D01*
X82028038Y-117114593D01*
X82022654Y-116949263D01*
X82017165Y-116787775D01*
X82011929Y-116640534D01*
X82007303Y-116517947D01*
X82005539Y-116474193D01*
X81993204Y-116176536D01*
X81628611Y-116171118D01*
X81264017Y-116165701D01*
X81278776Y-116647368D01*
G36*
X92649298Y-97113082D02*
G01*
X93949063Y-97123004D01*
X94224007Y-97125279D01*
X94461557Y-97127648D01*
X94664007Y-97130173D01*
X94833652Y-97132911D01*
X94972786Y-97135924D01*
X95083703Y-97139270D01*
X95168697Y-97143010D01*
X95230061Y-97147203D01*
X95270091Y-97151908D01*
X95291079Y-97157187D01*
X95292624Y-97157971D01*
X95318903Y-97180240D01*
X95337966Y-97216349D01*
X95351001Y-97272212D01*
X95359197Y-97353743D01*
X95363741Y-97466857D01*
X95364716Y-97516696D01*
X95365142Y-97611634D01*
X95362048Y-97675354D01*
X95354284Y-97716258D01*
X95340699Y-97742745D01*
X95332464Y-97752114D01*
X95323562Y-97759220D01*
X95310090Y-97765342D01*
X95289160Y-97770569D01*
X95257888Y-97774988D01*
X95213388Y-97778687D01*
X95152775Y-97781756D01*
X95073163Y-97784281D01*
X94971665Y-97786350D01*
X94845398Y-97788053D01*
X94691474Y-97789476D01*
X94507008Y-97790709D01*
X94289115Y-97791838D01*
X94034909Y-97792953D01*
X93988050Y-97793146D01*
X92679063Y-97798523D01*
X92679334Y-97991584D01*
X92680654Y-98080124D01*
X92683968Y-98157694D01*
X92688694Y-98212943D01*
X92691571Y-98229293D01*
X92703536Y-98273941D01*
X93996026Y-98271302D01*
X94223907Y-98270587D01*
X94443845Y-98269418D01*
X94651991Y-98267846D01*
X94844497Y-98265922D01*
X95017516Y-98263697D01*
X95167199Y-98261222D01*
X95289698Y-98258548D01*
X95381165Y-98255727D01*
X95437753Y-98252808D01*
X95445979Y-98252072D01*
X95609543Y-98226862D01*
X95740380Y-98187527D01*
X95843860Y-98131070D01*
X95925350Y-98054494D01*
X95990220Y-97954803D01*
X95994870Y-97945704D01*
X96057960Y-97820152D01*
X96045070Y-97575758D01*
X96035360Y-97410720D01*
X96025020Y-97279661D01*
X96013137Y-97176873D01*
X95998794Y-97096647D01*
X95981076Y-97033275D01*
X95959067Y-96981050D01*
X95945777Y-96956666D01*
X95880346Y-96870067D01*
X95792824Y-96800600D01*
X95676073Y-96743167D01*
X95615938Y-96721184D01*
X95590591Y-96712858D01*
X95565354Y-96705650D01*
X95537272Y-96699465D01*
X95503392Y-96694207D01*
X95460760Y-96689781D01*
X95406423Y-96686091D01*
X95337425Y-96683042D01*
X95250814Y-96680538D01*
X95143635Y-96678485D01*
X95012934Y-96676787D01*
X94855758Y-96675348D01*
X94669152Y-96674073D01*
X94450163Y-96672867D01*
X94195837Y-96671634D01*
X94062505Y-96671014D01*
X92638056Y-96664432D01*
X92649298Y-97113082D01*
G37*
X92649298Y-97113082D02*
X93949063Y-97123004D01*
X94224007Y-97125279D01*
X94461557Y-97127648D01*
X94664007Y-97130173D01*
X94833652Y-97132911D01*
X94972786Y-97135924D01*
X95083703Y-97139270D01*
X95168697Y-97143010D01*
X95230061Y-97147203D01*
X95270091Y-97151908D01*
X95291079Y-97157187D01*
X95292624Y-97157971D01*
X95318903Y-97180240D01*
X95337966Y-97216349D01*
X95351001Y-97272212D01*
X95359197Y-97353743D01*
X95363741Y-97466857D01*
X95364716Y-97516696D01*
X95365142Y-97611634D01*
X95362048Y-97675354D01*
X95354284Y-97716258D01*
X95340699Y-97742745D01*
X95332464Y-97752114D01*
X95323562Y-97759220D01*
X95310090Y-97765342D01*
X95289160Y-97770569D01*
X95257888Y-97774988D01*
X95213388Y-97778687D01*
X95152775Y-97781756D01*
X95073163Y-97784281D01*
X94971665Y-97786350D01*
X94845398Y-97788053D01*
X94691474Y-97789476D01*
X94507008Y-97790709D01*
X94289115Y-97791838D01*
X94034909Y-97792953D01*
X93988050Y-97793146D01*
X92679063Y-97798523D01*
X92679334Y-97991584D01*
X92680654Y-98080124D01*
X92683968Y-98157694D01*
X92688694Y-98212943D01*
X92691571Y-98229293D01*
X92703536Y-98273941D01*
X93996026Y-98271302D01*
X94223907Y-98270587D01*
X94443845Y-98269418D01*
X94651991Y-98267846D01*
X94844497Y-98265922D01*
X95017516Y-98263697D01*
X95167199Y-98261222D01*
X95289698Y-98258548D01*
X95381165Y-98255727D01*
X95437753Y-98252808D01*
X95445979Y-98252072D01*
X95609543Y-98226862D01*
X95740380Y-98187527D01*
X95843860Y-98131070D01*
X95925350Y-98054494D01*
X95990220Y-97954803D01*
X95994870Y-97945704D01*
X96057960Y-97820152D01*
X96045070Y-97575758D01*
X96035360Y-97410720D01*
X96025020Y-97279661D01*
X96013137Y-97176873D01*
X95998794Y-97096647D01*
X95981076Y-97033275D01*
X95959067Y-96981050D01*
X95945777Y-96956666D01*
X95880346Y-96870067D01*
X95792824Y-96800600D01*
X95676073Y-96743167D01*
X95615938Y-96721184D01*
X95590591Y-96712858D01*
X95565354Y-96705650D01*
X95537272Y-96699465D01*
X95503392Y-96694207D01*
X95460760Y-96689781D01*
X95406423Y-96686091D01*
X95337425Y-96683042D01*
X95250814Y-96680538D01*
X95143635Y-96678485D01*
X95012934Y-96676787D01*
X94855758Y-96675348D01*
X94669152Y-96674073D01*
X94450163Y-96672867D01*
X94195837Y-96671634D01*
X94062505Y-96671014D01*
X92638056Y-96664432D01*
X92649298Y-97113082D01*
G36*
X91706720Y-96852038D02*
G01*
X91707739Y-96910945D01*
X91708660Y-96960296D01*
X91706280Y-97000951D01*
X91697394Y-97033768D01*
X91678798Y-97059605D01*
X91647289Y-97079323D01*
X91599662Y-97093781D01*
X91532714Y-97103836D01*
X91443241Y-97110349D01*
X91328038Y-97114179D01*
X91183902Y-97116184D01*
X91007630Y-97117223D01*
X90796016Y-97118156D01*
X90712465Y-97118620D01*
X89801720Y-97124157D01*
X89801720Y-96957389D01*
X89800241Y-96871251D01*
X89796320Y-96792946D01*
X89790734Y-96736779D01*
X89789317Y-96728609D01*
X89776915Y-96666598D01*
X89067501Y-96666598D01*
X89068077Y-96770777D01*
X89069041Y-96821027D01*
X89071420Y-96903583D01*
X89074965Y-97011098D01*
X89079431Y-97136224D01*
X89084570Y-97271615D01*
X89086933Y-97331363D01*
X89094768Y-97507098D01*
X89103439Y-97648263D01*
X89114093Y-97759973D01*
X89127879Y-97847343D01*
X89145944Y-97915490D01*
X89169435Y-97969529D01*
X89199500Y-98014577D01*
X89237287Y-98055748D01*
X89252692Y-98070320D01*
X89306497Y-98115100D01*
X89365311Y-98153013D01*
X89432723Y-98184597D01*
X89512325Y-98210388D01*
X89607708Y-98230924D01*
X89722461Y-98246742D01*
X89860176Y-98258377D01*
X90024445Y-98266368D01*
X90218856Y-98271251D01*
X90447002Y-98273563D01*
X90614531Y-98273941D01*
X91290001Y-98273941D01*
X91289730Y-98080465D01*
X91288414Y-97991839D01*
X91285106Y-97914187D01*
X91280388Y-97858839D01*
X91277494Y-97842340D01*
X91265528Y-97797691D01*
X90608038Y-97797399D01*
X90415544Y-97797159D01*
X90258965Y-97796221D01*
X90134531Y-97793968D01*
X90038469Y-97789788D01*
X89967008Y-97783067D01*
X89916376Y-97773190D01*
X89882803Y-97759543D01*
X89862515Y-97741514D01*
X89851742Y-97718486D01*
X89846712Y-97689848D01*
X89845170Y-97673212D01*
X89839012Y-97599254D01*
X90761508Y-97599254D01*
X90974993Y-97598783D01*
X91174636Y-97597423D01*
X91356375Y-97595252D01*
X91516153Y-97592351D01*
X91649908Y-97588798D01*
X91753583Y-97584672D01*
X91823116Y-97580052D01*
X91839229Y-97578254D01*
X92009653Y-97540974D01*
X92156876Y-97479563D01*
X92277113Y-97396299D01*
X92366576Y-97293460D01*
X92394442Y-97244201D01*
X92410444Y-97191464D01*
X92424066Y-97110805D01*
X92434452Y-97013960D01*
X92440748Y-96912664D01*
X92442099Y-96818655D01*
X92437649Y-96743668D01*
X92432876Y-96716552D01*
X92420339Y-96666598D01*
X91706720Y-96666598D01*
X91706720Y-96852038D01*
G37*
X91706720Y-96852038D02*
X91707739Y-96910945D01*
X91708660Y-96960296D01*
X91706280Y-97000951D01*
X91697394Y-97033768D01*
X91678798Y-97059605D01*
X91647289Y-97079323D01*
X91599662Y-97093781D01*
X91532714Y-97103836D01*
X91443241Y-97110349D01*
X91328038Y-97114179D01*
X91183902Y-97116184D01*
X91007630Y-97117223D01*
X90796016Y-97118156D01*
X90712465Y-97118620D01*
X89801720Y-97124157D01*
X89801720Y-96957389D01*
X89800241Y-96871251D01*
X89796320Y-96792946D01*
X89790734Y-96736779D01*
X89789317Y-96728609D01*
X89776915Y-96666598D01*
X89067501Y-96666598D01*
X89068077Y-96770777D01*
X89069041Y-96821027D01*
X89071420Y-96903583D01*
X89074965Y-97011098D01*
X89079431Y-97136224D01*
X89084570Y-97271615D01*
X89086933Y-97331363D01*
X89094768Y-97507098D01*
X89103439Y-97648263D01*
X89114093Y-97759973D01*
X89127879Y-97847343D01*
X89145944Y-97915490D01*
X89169435Y-97969529D01*
X89199500Y-98014577D01*
X89237287Y-98055748D01*
X89252692Y-98070320D01*
X89306497Y-98115100D01*
X89365311Y-98153013D01*
X89432723Y-98184597D01*
X89512325Y-98210388D01*
X89607708Y-98230924D01*
X89722461Y-98246742D01*
X89860176Y-98258377D01*
X90024445Y-98266368D01*
X90218856Y-98271251D01*
X90447002Y-98273563D01*
X90614531Y-98273941D01*
X91290001Y-98273941D01*
X91289730Y-98080465D01*
X91288414Y-97991839D01*
X91285106Y-97914187D01*
X91280388Y-97858839D01*
X91277494Y-97842340D01*
X91265528Y-97797691D01*
X90608038Y-97797399D01*
X90415544Y-97797159D01*
X90258965Y-97796221D01*
X90134531Y-97793968D01*
X90038469Y-97789788D01*
X89967008Y-97783067D01*
X89916376Y-97773190D01*
X89882803Y-97759543D01*
X89862515Y-97741514D01*
X89851742Y-97718486D01*
X89846712Y-97689848D01*
X89845170Y-97673212D01*
X89839012Y-97599254D01*
X90761508Y-97599254D01*
X90974993Y-97598783D01*
X91174636Y-97597423D01*
X91356375Y-97595252D01*
X91516153Y-97592351D01*
X91649908Y-97588798D01*
X91753583Y-97584672D01*
X91823116Y-97580052D01*
X91839229Y-97578254D01*
X92009653Y-97540974D01*
X92156876Y-97479563D01*
X92277113Y-97396299D01*
X92366576Y-97293460D01*
X92394442Y-97244201D01*
X92410444Y-97191464D01*
X92424066Y-97110805D01*
X92434452Y-97013960D01*
X92440748Y-96912664D01*
X92442099Y-96818655D01*
X92437649Y-96743668D01*
X92432876Y-96716552D01*
X92420339Y-96666598D01*
X91706720Y-96666598D01*
X91706720Y-96852038D01*
G36*
X85495626Y-96831817D02*
G01*
X85497102Y-96918032D01*
X85501013Y-96996406D01*
X85506588Y-97052664D01*
X85508028Y-97060992D01*
X85520431Y-97123004D01*
X86733380Y-97123477D01*
X86999721Y-97123752D01*
X87229208Y-97124434D01*
X87424674Y-97125642D01*
X87588949Y-97127494D01*
X87724867Y-97130111D01*
X87835259Y-97133612D01*
X87922958Y-97138115D01*
X87990797Y-97143740D01*
X88041606Y-97150606D01*
X88078220Y-97158832D01*
X88103469Y-97168537D01*
X88120186Y-97179842D01*
X88122388Y-97181936D01*
X88132659Y-97213046D01*
X88139901Y-97281436D01*
X88143940Y-97384805D01*
X88144767Y-97475515D01*
X88144552Y-97583918D01*
X88143153Y-97659413D01*
X88139434Y-97708778D01*
X88132262Y-97738792D01*
X88120500Y-97756234D01*
X88103016Y-97767882D01*
X88095157Y-97771934D01*
X88075992Y-97777312D01*
X88039611Y-97781932D01*
X87983560Y-97785843D01*
X87905383Y-97789092D01*
X87802626Y-97791729D01*
X87672834Y-97793799D01*
X87513553Y-97795352D01*
X87322327Y-97796435D01*
X87096702Y-97797097D01*
X86834223Y-97797385D01*
X86790431Y-97797399D01*
X85535313Y-97797691D01*
X85535486Y-97931637D01*
X85537609Y-98021424D01*
X85542912Y-98113705D01*
X85548172Y-98169762D01*
X85560685Y-98273941D01*
X86862648Y-98271367D01*
X87091018Y-98270659D01*
X87311183Y-98269482D01*
X87519347Y-98267890D01*
X87711712Y-98265934D01*
X87884482Y-98263665D01*
X88033860Y-98261135D01*
X88156047Y-98258396D01*
X88247248Y-98255500D01*
X88303666Y-98252498D01*
X88313016Y-98251610D01*
X88489534Y-98220366D01*
X88632075Y-98170950D01*
X88742413Y-98102418D01*
X88822324Y-98013829D01*
X88848915Y-97966993D01*
X88864403Y-97933003D01*
X88875648Y-97900099D01*
X88883155Y-97861691D01*
X88887436Y-97811187D01*
X88888997Y-97741997D01*
X88888348Y-97647530D01*
X88885997Y-97521196D01*
X88885419Y-97493921D01*
X88882286Y-97360403D01*
X88878834Y-97259641D01*
X88874221Y-97184705D01*
X88867601Y-97128667D01*
X88858131Y-97084598D01*
X88844966Y-97045569D01*
X88827263Y-97004653D01*
X88825287Y-97000356D01*
X88764644Y-96901060D01*
X88681025Y-96821847D01*
X88568429Y-96757951D01*
X88473878Y-96721367D01*
X88448273Y-96712958D01*
X88422955Y-96705679D01*
X88394967Y-96699436D01*
X88361351Y-96694131D01*
X88319151Y-96689670D01*
X88265409Y-96685955D01*
X88197169Y-96682893D01*
X88111474Y-96680386D01*
X88005367Y-96678340D01*
X87875890Y-96676657D01*
X87720087Y-96675243D01*
X87535001Y-96674001D01*
X87317674Y-96672836D01*
X87065151Y-96671652D01*
X86919415Y-96670999D01*
X85495626Y-96664655D01*
X85495626Y-96831817D01*
G37*
X85495626Y-96831817D02*
X85497102Y-96918032D01*
X85501013Y-96996406D01*
X85506588Y-97052664D01*
X85508028Y-97060992D01*
X85520431Y-97123004D01*
X86733380Y-97123477D01*
X86999721Y-97123752D01*
X87229208Y-97124434D01*
X87424674Y-97125642D01*
X87588949Y-97127494D01*
X87724867Y-97130111D01*
X87835259Y-97133612D01*
X87922958Y-97138115D01*
X87990797Y-97143740D01*
X88041606Y-97150606D01*
X88078220Y-97158832D01*
X88103469Y-97168537D01*
X88120186Y-97179842D01*
X88122388Y-97181936D01*
X88132659Y-97213046D01*
X88139901Y-97281436D01*
X88143940Y-97384805D01*
X88144767Y-97475515D01*
X88144552Y-97583918D01*
X88143153Y-97659413D01*
X88139434Y-97708778D01*
X88132262Y-97738792D01*
X88120500Y-97756234D01*
X88103016Y-97767882D01*
X88095157Y-97771934D01*
X88075992Y-97777312D01*
X88039611Y-97781932D01*
X87983560Y-97785843D01*
X87905383Y-97789092D01*
X87802626Y-97791729D01*
X87672834Y-97793799D01*
X87513553Y-97795352D01*
X87322327Y-97796435D01*
X87096702Y-97797097D01*
X86834223Y-97797385D01*
X86790431Y-97797399D01*
X85535313Y-97797691D01*
X85535486Y-97931637D01*
X85537609Y-98021424D01*
X85542912Y-98113705D01*
X85548172Y-98169762D01*
X85560685Y-98273941D01*
X86862648Y-98271367D01*
X87091018Y-98270659D01*
X87311183Y-98269482D01*
X87519347Y-98267890D01*
X87711712Y-98265934D01*
X87884482Y-98263665D01*
X88033860Y-98261135D01*
X88156047Y-98258396D01*
X88247248Y-98255500D01*
X88303666Y-98252498D01*
X88313016Y-98251610D01*
X88489534Y-98220366D01*
X88632075Y-98170950D01*
X88742413Y-98102418D01*
X88822324Y-98013829D01*
X88848915Y-97966993D01*
X88864403Y-97933003D01*
X88875648Y-97900099D01*
X88883155Y-97861691D01*
X88887436Y-97811187D01*
X88888997Y-97741997D01*
X88888348Y-97647530D01*
X88885997Y-97521196D01*
X88885419Y-97493921D01*
X88882286Y-97360403D01*
X88878834Y-97259641D01*
X88874221Y-97184705D01*
X88867601Y-97128667D01*
X88858131Y-97084598D01*
X88844966Y-97045569D01*
X88827263Y-97004653D01*
X88825287Y-97000356D01*
X88764644Y-96901060D01*
X88681025Y-96821847D01*
X88568429Y-96757951D01*
X88473878Y-96721367D01*
X88448273Y-96712958D01*
X88422955Y-96705679D01*
X88394967Y-96699436D01*
X88361351Y-96694131D01*
X88319151Y-96689670D01*
X88265409Y-96685955D01*
X88197169Y-96682893D01*
X88111474Y-96680386D01*
X88005367Y-96678340D01*
X87875890Y-96676657D01*
X87720087Y-96675243D01*
X87535001Y-96674001D01*
X87317674Y-96672836D01*
X87065151Y-96671652D01*
X86919415Y-96670999D01*
X85495626Y-96664655D01*
X85495626Y-96831817D01*
G36*
X82761772Y-96665219D02*
G01*
X82600364Y-96665664D01*
X82458046Y-96666525D01*
X82338865Y-96667820D01*
X82246870Y-96669572D01*
X82186111Y-96671800D01*
X82160636Y-96674525D01*
X82160222Y-96674786D01*
X82157426Y-96696727D01*
X82156166Y-96749957D01*
X82156518Y-96826107D01*
X82158153Y-96902989D01*
X82164352Y-97123004D01*
X83259481Y-97124187D01*
X83520767Y-97124687D01*
X83745139Y-97125655D01*
X83935368Y-97127196D01*
X84094227Y-97129418D01*
X84224487Y-97132428D01*
X84328920Y-97136333D01*
X84410298Y-97141241D01*
X84471392Y-97147259D01*
X84514974Y-97154494D01*
X84543816Y-97163053D01*
X84560690Y-97173044D01*
X84562268Y-97174575D01*
X84575674Y-97205127D01*
X84585466Y-97255850D01*
X84586102Y-97261910D01*
X84592735Y-97331363D01*
X83764259Y-97336542D01*
X82935782Y-97341720D01*
X82935901Y-97405995D01*
X82937507Y-97456521D01*
X82941650Y-97531900D01*
X82947501Y-97617441D01*
X82948764Y-97633980D01*
X82961508Y-97797691D01*
X84618115Y-97797691D01*
X84632423Y-98035816D01*
X84646730Y-98273941D01*
X85362347Y-98273941D01*
X85348245Y-97753043D01*
X85342044Y-97556269D01*
X85334638Y-97394652D01*
X85325292Y-97263665D01*
X85313270Y-97158782D01*
X85297836Y-97075474D01*
X85278255Y-97009214D01*
X85253790Y-96955476D01*
X85223708Y-96909732D01*
X85208088Y-96890486D01*
X85118113Y-96812776D01*
X84996534Y-96749986D01*
X84849525Y-96704876D01*
X84755010Y-96687897D01*
X84713879Y-96684807D01*
X84639203Y-96681867D01*
X84535031Y-96679096D01*
X84405412Y-96676515D01*
X84254395Y-96674145D01*
X84086029Y-96672006D01*
X83904362Y-96670118D01*
X83713443Y-96668503D01*
X83517320Y-96667179D01*
X83320043Y-96666169D01*
X83125660Y-96665492D01*
X82938220Y-96665169D01*
X82761772Y-96665219D01*
G37*
X82761772Y-96665219D02*
X82600364Y-96665664D01*
X82458046Y-96666525D01*
X82338865Y-96667820D01*
X82246870Y-96669572D01*
X82186111Y-96671800D01*
X82160636Y-96674525D01*
X82160222Y-96674786D01*
X82157426Y-96696727D01*
X82156166Y-96749957D01*
X82156518Y-96826107D01*
X82158153Y-96902989D01*
X82164352Y-97123004D01*
X83259481Y-97124187D01*
X83520767Y-97124687D01*
X83745139Y-97125655D01*
X83935368Y-97127196D01*
X84094227Y-97129418D01*
X84224487Y-97132428D01*
X84328920Y-97136333D01*
X84410298Y-97141241D01*
X84471392Y-97147259D01*
X84514974Y-97154494D01*
X84543816Y-97163053D01*
X84560690Y-97173044D01*
X84562268Y-97174575D01*
X84575674Y-97205127D01*
X84585466Y-97255850D01*
X84586102Y-97261910D01*
X84592735Y-97331363D01*
X83764259Y-97336542D01*
X82935782Y-97341720D01*
X82935901Y-97405995D01*
X82937507Y-97456521D01*
X82941650Y-97531900D01*
X82947501Y-97617441D01*
X82948764Y-97633980D01*
X82961508Y-97797691D01*
X84618115Y-97797691D01*
X84632423Y-98035816D01*
X84646730Y-98273941D01*
X85362347Y-98273941D01*
X85348245Y-97753043D01*
X85342044Y-97556269D01*
X85334638Y-97394652D01*
X85325292Y-97263665D01*
X85313270Y-97158782D01*
X85297836Y-97075474D01*
X85278255Y-97009214D01*
X85253790Y-96955476D01*
X85223708Y-96909732D01*
X85208088Y-96890486D01*
X85118113Y-96812776D01*
X84996534Y-96749986D01*
X84849525Y-96704876D01*
X84755010Y-96687897D01*
X84713879Y-96684807D01*
X84639203Y-96681867D01*
X84535031Y-96679096D01*
X84405412Y-96676515D01*
X84254395Y-96674145D01*
X84086029Y-96672006D01*
X83904362Y-96670118D01*
X83713443Y-96668503D01*
X83517320Y-96667179D01*
X83320043Y-96666169D01*
X83125660Y-96665492D01*
X82938220Y-96665169D01*
X82761772Y-96665219D01*
G36*
X81278776Y-97147351D02*
G01*
X81283760Y-97305862D01*
X81289246Y-97473343D01*
X81294847Y-97638455D01*
X81300178Y-97789858D01*
X81304850Y-97916214D01*
X81306026Y-97946519D01*
X81318517Y-98264019D01*
X82048047Y-98274857D01*
X82032961Y-97773344D01*
X82028038Y-97614576D01*
X82022654Y-97449246D01*
X82017165Y-97287758D01*
X82011929Y-97140517D01*
X82007303Y-97017930D01*
X82005539Y-96974176D01*
X81993204Y-96676519D01*
X81628611Y-96671101D01*
X81264017Y-96665684D01*
X81278776Y-97147351D01*
G37*
X81278776Y-97147351D02*
X81283760Y-97305862D01*
X81289246Y-97473343D01*
X81294847Y-97638455D01*
X81300178Y-97789858D01*
X81304850Y-97916214D01*
X81306026Y-97946519D01*
X81318517Y-98264019D01*
X82048047Y-98274857D01*
X82032961Y-97773344D01*
X82028038Y-97614576D01*
X82022654Y-97449246D01*
X82017165Y-97287758D01*
X82011929Y-97140517D01*
X82007303Y-97017930D01*
X82005539Y-96974176D01*
X81993204Y-96676519D01*
X81628611Y-96671101D01*
X81264017Y-96665684D01*
X81278776Y-97147351D01*
G36*
X92649298Y-77613065D02*
G01*
X93949063Y-77622987D01*
X94224007Y-77625262D01*
X94461557Y-77627631D01*
X94664007Y-77630156D01*
X94833652Y-77632894D01*
X94972786Y-77635907D01*
X95083703Y-77639253D01*
X95168697Y-77642993D01*
X95230061Y-77647186D01*
X95270091Y-77651891D01*
X95291079Y-77657170D01*
X95292624Y-77657954D01*
X95318903Y-77680223D01*
X95337966Y-77716332D01*
X95351001Y-77772195D01*
X95359197Y-77853726D01*
X95363741Y-77966840D01*
X95364716Y-78016679D01*
X95365142Y-78111617D01*
X95362048Y-78175337D01*
X95354284Y-78216241D01*
X95340699Y-78242728D01*
X95332464Y-78252097D01*
X95323562Y-78259203D01*
X95310090Y-78265325D01*
X95289160Y-78270552D01*
X95257888Y-78274971D01*
X95213388Y-78278670D01*
X95152775Y-78281739D01*
X95073163Y-78284264D01*
X94971665Y-78286333D01*
X94845398Y-78288036D01*
X94691474Y-78289459D01*
X94507008Y-78290692D01*
X94289115Y-78291821D01*
X94034909Y-78292936D01*
X93988050Y-78293129D01*
X92679063Y-78298506D01*
X92679334Y-78491567D01*
X92680654Y-78580107D01*
X92683968Y-78657677D01*
X92688694Y-78712926D01*
X92691571Y-78729276D01*
X92703536Y-78773924D01*
X93996026Y-78771285D01*
X94223907Y-78770570D01*
X94443845Y-78769401D01*
X94651991Y-78767829D01*
X94844497Y-78765905D01*
X95017516Y-78763680D01*
X95167199Y-78761205D01*
X95289698Y-78758531D01*
X95381165Y-78755710D01*
X95437753Y-78752791D01*
X95445979Y-78752055D01*
X95609543Y-78726845D01*
X95740380Y-78687510D01*
X95843860Y-78631053D01*
X95925350Y-78554477D01*
X95990220Y-78454786D01*
X95994870Y-78445687D01*
X96057960Y-78320135D01*
X96045070Y-78075741D01*
X96035360Y-77910703D01*
X96025020Y-77779644D01*
X96013137Y-77676856D01*
X95998794Y-77596630D01*
X95981076Y-77533258D01*
X95959067Y-77481033D01*
X95945777Y-77456649D01*
X95880346Y-77370050D01*
X95792824Y-77300583D01*
X95676073Y-77243150D01*
X95615938Y-77221167D01*
X95590591Y-77212841D01*
X95565354Y-77205633D01*
X95537272Y-77199448D01*
X95503392Y-77194190D01*
X95460760Y-77189764D01*
X95406423Y-77186074D01*
X95337425Y-77183025D01*
X95250814Y-77180521D01*
X95143635Y-77178468D01*
X95012934Y-77176770D01*
X94855758Y-77175331D01*
X94669152Y-77174056D01*
X94450163Y-77172850D01*
X94195837Y-77171617D01*
X94062505Y-77170997D01*
X92638056Y-77164415D01*
X92649298Y-77613065D01*
G37*
X92649298Y-77613065D02*
X93949063Y-77622987D01*
X94224007Y-77625262D01*
X94461557Y-77627631D01*
X94664007Y-77630156D01*
X94833652Y-77632894D01*
X94972786Y-77635907D01*
X95083703Y-77639253D01*
X95168697Y-77642993D01*
X95230061Y-77647186D01*
X95270091Y-77651891D01*
X95291079Y-77657170D01*
X95292624Y-77657954D01*
X95318903Y-77680223D01*
X95337966Y-77716332D01*
X95351001Y-77772195D01*
X95359197Y-77853726D01*
X95363741Y-77966840D01*
X95364716Y-78016679D01*
X95365142Y-78111617D01*
X95362048Y-78175337D01*
X95354284Y-78216241D01*
X95340699Y-78242728D01*
X95332464Y-78252097D01*
X95323562Y-78259203D01*
X95310090Y-78265325D01*
X95289160Y-78270552D01*
X95257888Y-78274971D01*
X95213388Y-78278670D01*
X95152775Y-78281739D01*
X95073163Y-78284264D01*
X94971665Y-78286333D01*
X94845398Y-78288036D01*
X94691474Y-78289459D01*
X94507008Y-78290692D01*
X94289115Y-78291821D01*
X94034909Y-78292936D01*
X93988050Y-78293129D01*
X92679063Y-78298506D01*
X92679334Y-78491567D01*
X92680654Y-78580107D01*
X92683968Y-78657677D01*
X92688694Y-78712926D01*
X92691571Y-78729276D01*
X92703536Y-78773924D01*
X93996026Y-78771285D01*
X94223907Y-78770570D01*
X94443845Y-78769401D01*
X94651991Y-78767829D01*
X94844497Y-78765905D01*
X95017516Y-78763680D01*
X95167199Y-78761205D01*
X95289698Y-78758531D01*
X95381165Y-78755710D01*
X95437753Y-78752791D01*
X95445979Y-78752055D01*
X95609543Y-78726845D01*
X95740380Y-78687510D01*
X95843860Y-78631053D01*
X95925350Y-78554477D01*
X95990220Y-78454786D01*
X95994870Y-78445687D01*
X96057960Y-78320135D01*
X96045070Y-78075741D01*
X96035360Y-77910703D01*
X96025020Y-77779644D01*
X96013137Y-77676856D01*
X95998794Y-77596630D01*
X95981076Y-77533258D01*
X95959067Y-77481033D01*
X95945777Y-77456649D01*
X95880346Y-77370050D01*
X95792824Y-77300583D01*
X95676073Y-77243150D01*
X95615938Y-77221167D01*
X95590591Y-77212841D01*
X95565354Y-77205633D01*
X95537272Y-77199448D01*
X95503392Y-77194190D01*
X95460760Y-77189764D01*
X95406423Y-77186074D01*
X95337425Y-77183025D01*
X95250814Y-77180521D01*
X95143635Y-77178468D01*
X95012934Y-77176770D01*
X94855758Y-77175331D01*
X94669152Y-77174056D01*
X94450163Y-77172850D01*
X94195837Y-77171617D01*
X94062505Y-77170997D01*
X92638056Y-77164415D01*
X92649298Y-77613065D01*
G36*
X91706720Y-77352021D02*
G01*
X91707739Y-77410928D01*
X91708660Y-77460279D01*
X91706280Y-77500934D01*
X91697394Y-77533751D01*
X91678798Y-77559588D01*
X91647289Y-77579306D01*
X91599662Y-77593764D01*
X91532714Y-77603819D01*
X91443241Y-77610332D01*
X91328038Y-77614162D01*
X91183902Y-77616167D01*
X91007630Y-77617206D01*
X90796016Y-77618139D01*
X90712465Y-77618603D01*
X89801720Y-77624140D01*
X89801720Y-77457372D01*
X89800241Y-77371234D01*
X89796320Y-77292929D01*
X89790734Y-77236762D01*
X89789317Y-77228592D01*
X89776915Y-77166581D01*
X89067501Y-77166581D01*
X89068077Y-77270760D01*
X89069041Y-77321010D01*
X89071420Y-77403566D01*
X89074965Y-77511081D01*
X89079431Y-77636207D01*
X89084570Y-77771598D01*
X89086933Y-77831346D01*
X89094768Y-78007081D01*
X89103439Y-78148246D01*
X89114093Y-78259956D01*
X89127879Y-78347326D01*
X89145944Y-78415473D01*
X89169435Y-78469512D01*
X89199500Y-78514560D01*
X89237287Y-78555731D01*
X89252692Y-78570303D01*
X89306497Y-78615083D01*
X89365311Y-78652996D01*
X89432723Y-78684580D01*
X89512325Y-78710371D01*
X89607708Y-78730907D01*
X89722461Y-78746725D01*
X89860176Y-78758360D01*
X90024445Y-78766351D01*
X90218856Y-78771234D01*
X90447002Y-78773546D01*
X90614531Y-78773924D01*
X91290001Y-78773924D01*
X91289730Y-78580448D01*
X91288414Y-78491822D01*
X91285106Y-78414170D01*
X91280388Y-78358822D01*
X91277494Y-78342323D01*
X91265528Y-78297674D01*
X90608038Y-78297382D01*
X90415544Y-78297142D01*
X90258965Y-78296204D01*
X90134531Y-78293951D01*
X90038469Y-78289771D01*
X89967008Y-78283050D01*
X89916376Y-78273173D01*
X89882803Y-78259526D01*
X89862515Y-78241497D01*
X89851742Y-78218469D01*
X89846712Y-78189831D01*
X89845170Y-78173195D01*
X89839012Y-78099237D01*
X90761508Y-78099237D01*
X90974993Y-78098766D01*
X91174636Y-78097406D01*
X91356375Y-78095235D01*
X91516153Y-78092334D01*
X91649908Y-78088781D01*
X91753583Y-78084655D01*
X91823116Y-78080035D01*
X91839229Y-78078237D01*
X92009653Y-78040957D01*
X92156876Y-77979546D01*
X92277113Y-77896282D01*
X92366576Y-77793443D01*
X92394442Y-77744184D01*
X92410444Y-77691447D01*
X92424066Y-77610788D01*
X92434452Y-77513943D01*
X92440748Y-77412647D01*
X92442099Y-77318638D01*
X92437649Y-77243651D01*
X92432876Y-77216535D01*
X92420339Y-77166581D01*
X91706720Y-77166581D01*
X91706720Y-77352021D01*
G37*
X91706720Y-77352021D02*
X91707739Y-77410928D01*
X91708660Y-77460279D01*
X91706280Y-77500934D01*
X91697394Y-77533751D01*
X91678798Y-77559588D01*
X91647289Y-77579306D01*
X91599662Y-77593764D01*
X91532714Y-77603819D01*
X91443241Y-77610332D01*
X91328038Y-77614162D01*
X91183902Y-77616167D01*
X91007630Y-77617206D01*
X90796016Y-77618139D01*
X90712465Y-77618603D01*
X89801720Y-77624140D01*
X89801720Y-77457372D01*
X89800241Y-77371234D01*
X89796320Y-77292929D01*
X89790734Y-77236762D01*
X89789317Y-77228592D01*
X89776915Y-77166581D01*
X89067501Y-77166581D01*
X89068077Y-77270760D01*
X89069041Y-77321010D01*
X89071420Y-77403566D01*
X89074965Y-77511081D01*
X89079431Y-77636207D01*
X89084570Y-77771598D01*
X89086933Y-77831346D01*
X89094768Y-78007081D01*
X89103439Y-78148246D01*
X89114093Y-78259956D01*
X89127879Y-78347326D01*
X89145944Y-78415473D01*
X89169435Y-78469512D01*
X89199500Y-78514560D01*
X89237287Y-78555731D01*
X89252692Y-78570303D01*
X89306497Y-78615083D01*
X89365311Y-78652996D01*
X89432723Y-78684580D01*
X89512325Y-78710371D01*
X89607708Y-78730907D01*
X89722461Y-78746725D01*
X89860176Y-78758360D01*
X90024445Y-78766351D01*
X90218856Y-78771234D01*
X90447002Y-78773546D01*
X90614531Y-78773924D01*
X91290001Y-78773924D01*
X91289730Y-78580448D01*
X91288414Y-78491822D01*
X91285106Y-78414170D01*
X91280388Y-78358822D01*
X91277494Y-78342323D01*
X91265528Y-78297674D01*
X90608038Y-78297382D01*
X90415544Y-78297142D01*
X90258965Y-78296204D01*
X90134531Y-78293951D01*
X90038469Y-78289771D01*
X89967008Y-78283050D01*
X89916376Y-78273173D01*
X89882803Y-78259526D01*
X89862515Y-78241497D01*
X89851742Y-78218469D01*
X89846712Y-78189831D01*
X89845170Y-78173195D01*
X89839012Y-78099237D01*
X90761508Y-78099237D01*
X90974993Y-78098766D01*
X91174636Y-78097406D01*
X91356375Y-78095235D01*
X91516153Y-78092334D01*
X91649908Y-78088781D01*
X91753583Y-78084655D01*
X91823116Y-78080035D01*
X91839229Y-78078237D01*
X92009653Y-78040957D01*
X92156876Y-77979546D01*
X92277113Y-77896282D01*
X92366576Y-77793443D01*
X92394442Y-77744184D01*
X92410444Y-77691447D01*
X92424066Y-77610788D01*
X92434452Y-77513943D01*
X92440748Y-77412647D01*
X92442099Y-77318638D01*
X92437649Y-77243651D01*
X92432876Y-77216535D01*
X92420339Y-77166581D01*
X91706720Y-77166581D01*
X91706720Y-77352021D01*
G36*
X85495626Y-77331800D02*
G01*
X85497102Y-77418015D01*
X85501013Y-77496389D01*
X85506588Y-77552647D01*
X85508028Y-77560975D01*
X85520431Y-77622987D01*
X86733380Y-77623460D01*
X86999721Y-77623735D01*
X87229208Y-77624417D01*
X87424674Y-77625625D01*
X87588949Y-77627477D01*
X87724867Y-77630094D01*
X87835259Y-77633595D01*
X87922958Y-77638098D01*
X87990797Y-77643723D01*
X88041606Y-77650589D01*
X88078220Y-77658815D01*
X88103469Y-77668520D01*
X88120186Y-77679825D01*
X88122388Y-77681919D01*
X88132659Y-77713029D01*
X88139901Y-77781419D01*
X88143940Y-77884788D01*
X88144767Y-77975498D01*
X88144552Y-78083901D01*
X88143153Y-78159396D01*
X88139434Y-78208761D01*
X88132262Y-78238775D01*
X88120500Y-78256217D01*
X88103016Y-78267865D01*
X88095157Y-78271917D01*
X88075992Y-78277295D01*
X88039611Y-78281915D01*
X87983560Y-78285826D01*
X87905383Y-78289075D01*
X87802626Y-78291712D01*
X87672834Y-78293782D01*
X87513553Y-78295335D01*
X87322327Y-78296418D01*
X87096702Y-78297080D01*
X86834223Y-78297368D01*
X86790431Y-78297382D01*
X85535313Y-78297674D01*
X85535486Y-78431620D01*
X85537609Y-78521407D01*
X85542912Y-78613688D01*
X85548172Y-78669745D01*
X85560685Y-78773924D01*
X86862648Y-78771350D01*
X87091018Y-78770642D01*
X87311183Y-78769465D01*
X87519347Y-78767873D01*
X87711712Y-78765917D01*
X87884482Y-78763648D01*
X88033860Y-78761118D01*
X88156047Y-78758379D01*
X88247248Y-78755483D01*
X88303666Y-78752481D01*
X88313016Y-78751593D01*
X88489534Y-78720349D01*
X88632075Y-78670933D01*
X88742413Y-78602401D01*
X88822324Y-78513812D01*
X88848915Y-78466976D01*
X88864403Y-78432986D01*
X88875648Y-78400082D01*
X88883155Y-78361674D01*
X88887436Y-78311170D01*
X88888997Y-78241980D01*
X88888348Y-78147513D01*
X88885997Y-78021179D01*
X88885419Y-77993904D01*
X88882286Y-77860386D01*
X88878834Y-77759624D01*
X88874221Y-77684688D01*
X88867601Y-77628650D01*
X88858131Y-77584581D01*
X88844966Y-77545552D01*
X88827263Y-77504636D01*
X88825287Y-77500339D01*
X88764644Y-77401043D01*
X88681025Y-77321830D01*
X88568429Y-77257934D01*
X88473878Y-77221350D01*
X88448273Y-77212941D01*
X88422955Y-77205662D01*
X88394967Y-77199419D01*
X88361351Y-77194114D01*
X88319151Y-77189653D01*
X88265409Y-77185938D01*
X88197169Y-77182876D01*
X88111474Y-77180369D01*
X88005367Y-77178323D01*
X87875890Y-77176640D01*
X87720087Y-77175226D01*
X87535001Y-77173984D01*
X87317674Y-77172819D01*
X87065151Y-77171635D01*
X86919415Y-77170982D01*
X85495626Y-77164638D01*
X85495626Y-77331800D01*
G37*
X85495626Y-77331800D02*
X85497102Y-77418015D01*
X85501013Y-77496389D01*
X85506588Y-77552647D01*
X85508028Y-77560975D01*
X85520431Y-77622987D01*
X86733380Y-77623460D01*
X86999721Y-77623735D01*
X87229208Y-77624417D01*
X87424674Y-77625625D01*
X87588949Y-77627477D01*
X87724867Y-77630094D01*
X87835259Y-77633595D01*
X87922958Y-77638098D01*
X87990797Y-77643723D01*
X88041606Y-77650589D01*
X88078220Y-77658815D01*
X88103469Y-77668520D01*
X88120186Y-77679825D01*
X88122388Y-77681919D01*
X88132659Y-77713029D01*
X88139901Y-77781419D01*
X88143940Y-77884788D01*
X88144767Y-77975498D01*
X88144552Y-78083901D01*
X88143153Y-78159396D01*
X88139434Y-78208761D01*
X88132262Y-78238775D01*
X88120500Y-78256217D01*
X88103016Y-78267865D01*
X88095157Y-78271917D01*
X88075992Y-78277295D01*
X88039611Y-78281915D01*
X87983560Y-78285826D01*
X87905383Y-78289075D01*
X87802626Y-78291712D01*
X87672834Y-78293782D01*
X87513553Y-78295335D01*
X87322327Y-78296418D01*
X87096702Y-78297080D01*
X86834223Y-78297368D01*
X86790431Y-78297382D01*
X85535313Y-78297674D01*
X85535486Y-78431620D01*
X85537609Y-78521407D01*
X85542912Y-78613688D01*
X85548172Y-78669745D01*
X85560685Y-78773924D01*
X86862648Y-78771350D01*
X87091018Y-78770642D01*
X87311183Y-78769465D01*
X87519347Y-78767873D01*
X87711712Y-78765917D01*
X87884482Y-78763648D01*
X88033860Y-78761118D01*
X88156047Y-78758379D01*
X88247248Y-78755483D01*
X88303666Y-78752481D01*
X88313016Y-78751593D01*
X88489534Y-78720349D01*
X88632075Y-78670933D01*
X88742413Y-78602401D01*
X88822324Y-78513812D01*
X88848915Y-78466976D01*
X88864403Y-78432986D01*
X88875648Y-78400082D01*
X88883155Y-78361674D01*
X88887436Y-78311170D01*
X88888997Y-78241980D01*
X88888348Y-78147513D01*
X88885997Y-78021179D01*
X88885419Y-77993904D01*
X88882286Y-77860386D01*
X88878834Y-77759624D01*
X88874221Y-77684688D01*
X88867601Y-77628650D01*
X88858131Y-77584581D01*
X88844966Y-77545552D01*
X88827263Y-77504636D01*
X88825287Y-77500339D01*
X88764644Y-77401043D01*
X88681025Y-77321830D01*
X88568429Y-77257934D01*
X88473878Y-77221350D01*
X88448273Y-77212941D01*
X88422955Y-77205662D01*
X88394967Y-77199419D01*
X88361351Y-77194114D01*
X88319151Y-77189653D01*
X88265409Y-77185938D01*
X88197169Y-77182876D01*
X88111474Y-77180369D01*
X88005367Y-77178323D01*
X87875890Y-77176640D01*
X87720087Y-77175226D01*
X87535001Y-77173984D01*
X87317674Y-77172819D01*
X87065151Y-77171635D01*
X86919415Y-77170982D01*
X85495626Y-77164638D01*
X85495626Y-77331800D01*
G36*
X82761772Y-77165202D02*
G01*
X82600364Y-77165647D01*
X82458046Y-77166508D01*
X82338865Y-77167803D01*
X82246870Y-77169555D01*
X82186111Y-77171783D01*
X82160636Y-77174508D01*
X82160222Y-77174769D01*
X82157426Y-77196710D01*
X82156166Y-77249940D01*
X82156518Y-77326090D01*
X82158153Y-77402972D01*
X82164352Y-77622987D01*
X83259481Y-77624170D01*
X83520767Y-77624670D01*
X83745139Y-77625638D01*
X83935368Y-77627179D01*
X84094227Y-77629401D01*
X84224487Y-77632411D01*
X84328920Y-77636316D01*
X84410298Y-77641224D01*
X84471392Y-77647242D01*
X84514974Y-77654477D01*
X84543816Y-77663036D01*
X84560690Y-77673027D01*
X84562268Y-77674558D01*
X84575674Y-77705110D01*
X84585466Y-77755833D01*
X84586102Y-77761893D01*
X84592735Y-77831346D01*
X83764259Y-77836525D01*
X82935782Y-77841703D01*
X82935901Y-77905978D01*
X82937507Y-77956504D01*
X82941650Y-78031883D01*
X82947501Y-78117424D01*
X82948764Y-78133963D01*
X82961508Y-78297674D01*
X84618115Y-78297674D01*
X84632423Y-78535799D01*
X84646730Y-78773924D01*
X85362347Y-78773924D01*
X85348245Y-78253026D01*
X85342044Y-78056252D01*
X85334638Y-77894635D01*
X85325292Y-77763648D01*
X85313270Y-77658765D01*
X85297836Y-77575457D01*
X85278255Y-77509197D01*
X85253790Y-77455459D01*
X85223708Y-77409715D01*
X85208088Y-77390469D01*
X85118113Y-77312759D01*
X84996534Y-77249969D01*
X84849525Y-77204859D01*
X84755010Y-77187880D01*
X84713879Y-77184790D01*
X84639203Y-77181850D01*
X84535031Y-77179079D01*
X84405412Y-77176498D01*
X84254395Y-77174128D01*
X84086029Y-77171989D01*
X83904362Y-77170101D01*
X83713443Y-77168486D01*
X83517320Y-77167162D01*
X83320043Y-77166152D01*
X83125660Y-77165475D01*
X82938220Y-77165152D01*
X82761772Y-77165202D01*
G37*
X82761772Y-77165202D02*
X82600364Y-77165647D01*
X82458046Y-77166508D01*
X82338865Y-77167803D01*
X82246870Y-77169555D01*
X82186111Y-77171783D01*
X82160636Y-77174508D01*
X82160222Y-77174769D01*
X82157426Y-77196710D01*
X82156166Y-77249940D01*
X82156518Y-77326090D01*
X82158153Y-77402972D01*
X82164352Y-77622987D01*
X83259481Y-77624170D01*
X83520767Y-77624670D01*
X83745139Y-77625638D01*
X83935368Y-77627179D01*
X84094227Y-77629401D01*
X84224487Y-77632411D01*
X84328920Y-77636316D01*
X84410298Y-77641224D01*
X84471392Y-77647242D01*
X84514974Y-77654477D01*
X84543816Y-77663036D01*
X84560690Y-77673027D01*
X84562268Y-77674558D01*
X84575674Y-77705110D01*
X84585466Y-77755833D01*
X84586102Y-77761893D01*
X84592735Y-77831346D01*
X83764259Y-77836525D01*
X82935782Y-77841703D01*
X82935901Y-77905978D01*
X82937507Y-77956504D01*
X82941650Y-78031883D01*
X82947501Y-78117424D01*
X82948764Y-78133963D01*
X82961508Y-78297674D01*
X84618115Y-78297674D01*
X84632423Y-78535799D01*
X84646730Y-78773924D01*
X85362347Y-78773924D01*
X85348245Y-78253026D01*
X85342044Y-78056252D01*
X85334638Y-77894635D01*
X85325292Y-77763648D01*
X85313270Y-77658765D01*
X85297836Y-77575457D01*
X85278255Y-77509197D01*
X85253790Y-77455459D01*
X85223708Y-77409715D01*
X85208088Y-77390469D01*
X85118113Y-77312759D01*
X84996534Y-77249969D01*
X84849525Y-77204859D01*
X84755010Y-77187880D01*
X84713879Y-77184790D01*
X84639203Y-77181850D01*
X84535031Y-77179079D01*
X84405412Y-77176498D01*
X84254395Y-77174128D01*
X84086029Y-77171989D01*
X83904362Y-77170101D01*
X83713443Y-77168486D01*
X83517320Y-77167162D01*
X83320043Y-77166152D01*
X83125660Y-77165475D01*
X82938220Y-77165152D01*
X82761772Y-77165202D01*
G36*
X81278776Y-77647334D02*
G01*
X81283760Y-77805845D01*
X81289246Y-77973326D01*
X81294847Y-78138438D01*
X81300178Y-78289841D01*
X81304850Y-78416197D01*
X81306026Y-78446502D01*
X81318517Y-78764002D01*
X82048047Y-78774840D01*
X82032961Y-78273327D01*
X82028038Y-78114559D01*
X82022654Y-77949229D01*
X82017165Y-77787741D01*
X82011929Y-77640500D01*
X82007303Y-77517913D01*
X82005539Y-77474159D01*
X81993204Y-77176502D01*
X81628611Y-77171084D01*
X81264017Y-77165667D01*
X81278776Y-77647334D01*
G37*
X81278776Y-77647334D02*
X81283760Y-77805845D01*
X81289246Y-77973326D01*
X81294847Y-78138438D01*
X81300178Y-78289841D01*
X81304850Y-78416197D01*
X81306026Y-78446502D01*
X81318517Y-78764002D01*
X82048047Y-78774840D01*
X82032961Y-78273327D01*
X82028038Y-78114559D01*
X82022654Y-77949229D01*
X82017165Y-77787741D01*
X82011929Y-77640500D01*
X82007303Y-77517913D01*
X82005539Y-77474159D01*
X81993204Y-77176502D01*
X81628611Y-77171084D01*
X81264017Y-77165667D01*
X81278776Y-77647334D01*
G36*
X92649298Y-58113048D02*
G01*
X93949063Y-58122970D01*
X94224007Y-58125245D01*
X94461557Y-58127614D01*
X94664007Y-58130139D01*
X94833652Y-58132877D01*
X94972786Y-58135890D01*
X95083703Y-58139236D01*
X95168697Y-58142976D01*
X95230061Y-58147169D01*
X95270091Y-58151874D01*
X95291079Y-58157153D01*
X95292624Y-58157937D01*
X95318903Y-58180206D01*
X95337966Y-58216315D01*
X95351001Y-58272178D01*
X95359197Y-58353709D01*
X95363741Y-58466823D01*
X95364716Y-58516662D01*
X95365142Y-58611600D01*
X95362048Y-58675320D01*
X95354284Y-58716224D01*
X95340699Y-58742711D01*
X95332464Y-58752080D01*
X95323562Y-58759186D01*
X95310090Y-58765308D01*
X95289160Y-58770535D01*
X95257888Y-58774954D01*
X95213388Y-58778653D01*
X95152775Y-58781722D01*
X95073163Y-58784247D01*
X94971665Y-58786316D01*
X94845398Y-58788019D01*
X94691474Y-58789442D01*
X94507008Y-58790675D01*
X94289115Y-58791804D01*
X94034909Y-58792919D01*
X93988050Y-58793112D01*
X92679063Y-58798489D01*
X92679334Y-58991550D01*
X92680654Y-59080090D01*
X92683968Y-59157660D01*
X92688694Y-59212909D01*
X92691571Y-59229259D01*
X92703536Y-59273907D01*
X93996026Y-59271268D01*
X94223907Y-59270553D01*
X94443845Y-59269384D01*
X94651991Y-59267812D01*
X94844497Y-59265888D01*
X95017516Y-59263663D01*
X95167199Y-59261188D01*
X95289698Y-59258514D01*
X95381165Y-59255693D01*
X95437753Y-59252774D01*
X95445979Y-59252038D01*
X95609543Y-59226828D01*
X95740380Y-59187493D01*
X95843860Y-59131036D01*
X95925350Y-59054460D01*
X95990220Y-58954769D01*
X95994870Y-58945670D01*
X96057960Y-58820118D01*
X96045070Y-58575724D01*
X96035360Y-58410686D01*
X96025020Y-58279627D01*
X96013137Y-58176839D01*
X95998794Y-58096613D01*
X95981076Y-58033241D01*
X95959067Y-57981016D01*
X95945777Y-57956632D01*
X95880346Y-57870033D01*
X95792824Y-57800566D01*
X95676073Y-57743133D01*
X95615938Y-57721150D01*
X95590591Y-57712824D01*
X95565354Y-57705616D01*
X95537272Y-57699431D01*
X95503392Y-57694173D01*
X95460760Y-57689747D01*
X95406423Y-57686057D01*
X95337425Y-57683008D01*
X95250814Y-57680504D01*
X95143635Y-57678451D01*
X95012934Y-57676753D01*
X94855758Y-57675314D01*
X94669152Y-57674039D01*
X94450163Y-57672833D01*
X94195837Y-57671600D01*
X94062505Y-57670980D01*
X92638056Y-57664398D01*
X92649298Y-58113048D01*
G37*
X92649298Y-58113048D02*
X93949063Y-58122970D01*
X94224007Y-58125245D01*
X94461557Y-58127614D01*
X94664007Y-58130139D01*
X94833652Y-58132877D01*
X94972786Y-58135890D01*
X95083703Y-58139236D01*
X95168697Y-58142976D01*
X95230061Y-58147169D01*
X95270091Y-58151874D01*
X95291079Y-58157153D01*
X95292624Y-58157937D01*
X95318903Y-58180206D01*
X95337966Y-58216315D01*
X95351001Y-58272178D01*
X95359197Y-58353709D01*
X95363741Y-58466823D01*
X95364716Y-58516662D01*
X95365142Y-58611600D01*
X95362048Y-58675320D01*
X95354284Y-58716224D01*
X95340699Y-58742711D01*
X95332464Y-58752080D01*
X95323562Y-58759186D01*
X95310090Y-58765308D01*
X95289160Y-58770535D01*
X95257888Y-58774954D01*
X95213388Y-58778653D01*
X95152775Y-58781722D01*
X95073163Y-58784247D01*
X94971665Y-58786316D01*
X94845398Y-58788019D01*
X94691474Y-58789442D01*
X94507008Y-58790675D01*
X94289115Y-58791804D01*
X94034909Y-58792919D01*
X93988050Y-58793112D01*
X92679063Y-58798489D01*
X92679334Y-58991550D01*
X92680654Y-59080090D01*
X92683968Y-59157660D01*
X92688694Y-59212909D01*
X92691571Y-59229259D01*
X92703536Y-59273907D01*
X93996026Y-59271268D01*
X94223907Y-59270553D01*
X94443845Y-59269384D01*
X94651991Y-59267812D01*
X94844497Y-59265888D01*
X95017516Y-59263663D01*
X95167199Y-59261188D01*
X95289698Y-59258514D01*
X95381165Y-59255693D01*
X95437753Y-59252774D01*
X95445979Y-59252038D01*
X95609543Y-59226828D01*
X95740380Y-59187493D01*
X95843860Y-59131036D01*
X95925350Y-59054460D01*
X95990220Y-58954769D01*
X95994870Y-58945670D01*
X96057960Y-58820118D01*
X96045070Y-58575724D01*
X96035360Y-58410686D01*
X96025020Y-58279627D01*
X96013137Y-58176839D01*
X95998794Y-58096613D01*
X95981076Y-58033241D01*
X95959067Y-57981016D01*
X95945777Y-57956632D01*
X95880346Y-57870033D01*
X95792824Y-57800566D01*
X95676073Y-57743133D01*
X95615938Y-57721150D01*
X95590591Y-57712824D01*
X95565354Y-57705616D01*
X95537272Y-57699431D01*
X95503392Y-57694173D01*
X95460760Y-57689747D01*
X95406423Y-57686057D01*
X95337425Y-57683008D01*
X95250814Y-57680504D01*
X95143635Y-57678451D01*
X95012934Y-57676753D01*
X94855758Y-57675314D01*
X94669152Y-57674039D01*
X94450163Y-57672833D01*
X94195837Y-57671600D01*
X94062505Y-57670980D01*
X92638056Y-57664398D01*
X92649298Y-58113048D01*
G36*
X91706720Y-57852004D02*
G01*
X91707739Y-57910911D01*
X91708660Y-57960262D01*
X91706280Y-58000917D01*
X91697394Y-58033734D01*
X91678798Y-58059571D01*
X91647289Y-58079289D01*
X91599662Y-58093747D01*
X91532714Y-58103802D01*
X91443241Y-58110315D01*
X91328038Y-58114145D01*
X91183902Y-58116150D01*
X91007630Y-58117189D01*
X90796016Y-58118122D01*
X90712465Y-58118586D01*
X89801720Y-58124123D01*
X89801720Y-57957355D01*
X89800241Y-57871217D01*
X89796320Y-57792912D01*
X89790734Y-57736745D01*
X89789317Y-57728575D01*
X89776915Y-57666564D01*
X89067501Y-57666564D01*
X89068077Y-57770743D01*
X89069041Y-57820993D01*
X89071420Y-57903549D01*
X89074965Y-58011064D01*
X89079431Y-58136190D01*
X89084570Y-58271581D01*
X89086933Y-58331329D01*
X89094768Y-58507064D01*
X89103439Y-58648229D01*
X89114093Y-58759939D01*
X89127879Y-58847309D01*
X89145944Y-58915456D01*
X89169435Y-58969495D01*
X89199500Y-59014543D01*
X89237287Y-59055714D01*
X89252692Y-59070286D01*
X89306497Y-59115066D01*
X89365311Y-59152979D01*
X89432723Y-59184563D01*
X89512325Y-59210354D01*
X89607708Y-59230890D01*
X89722461Y-59246708D01*
X89860176Y-59258343D01*
X90024445Y-59266334D01*
X90218856Y-59271217D01*
X90447002Y-59273529D01*
X90614531Y-59273907D01*
X91290001Y-59273907D01*
X91289730Y-59080431D01*
X91288414Y-58991805D01*
X91285106Y-58914153D01*
X91280388Y-58858805D01*
X91277494Y-58842306D01*
X91265528Y-58797657D01*
X90608038Y-58797365D01*
X90415544Y-58797125D01*
X90258965Y-58796187D01*
X90134531Y-58793934D01*
X90038469Y-58789754D01*
X89967008Y-58783033D01*
X89916376Y-58773156D01*
X89882803Y-58759509D01*
X89862515Y-58741480D01*
X89851742Y-58718452D01*
X89846712Y-58689814D01*
X89845170Y-58673178D01*
X89839012Y-58599220D01*
X90761508Y-58599220D01*
X90974993Y-58598749D01*
X91174636Y-58597389D01*
X91356375Y-58595218D01*
X91516153Y-58592317D01*
X91649908Y-58588764D01*
X91753583Y-58584638D01*
X91823116Y-58580018D01*
X91839229Y-58578220D01*
X92009653Y-58540940D01*
X92156876Y-58479529D01*
X92277113Y-58396265D01*
X92366576Y-58293426D01*
X92394442Y-58244167D01*
X92410444Y-58191430D01*
X92424066Y-58110771D01*
X92434452Y-58013926D01*
X92440748Y-57912630D01*
X92442099Y-57818621D01*
X92437649Y-57743634D01*
X92432876Y-57716518D01*
X92420339Y-57666564D01*
X91706720Y-57666564D01*
X91706720Y-57852004D01*
G37*
X91706720Y-57852004D02*
X91707739Y-57910911D01*
X91708660Y-57960262D01*
X91706280Y-58000917D01*
X91697394Y-58033734D01*
X91678798Y-58059571D01*
X91647289Y-58079289D01*
X91599662Y-58093747D01*
X91532714Y-58103802D01*
X91443241Y-58110315D01*
X91328038Y-58114145D01*
X91183902Y-58116150D01*
X91007630Y-58117189D01*
X90796016Y-58118122D01*
X90712465Y-58118586D01*
X89801720Y-58124123D01*
X89801720Y-57957355D01*
X89800241Y-57871217D01*
X89796320Y-57792912D01*
X89790734Y-57736745D01*
X89789317Y-57728575D01*
X89776915Y-57666564D01*
X89067501Y-57666564D01*
X89068077Y-57770743D01*
X89069041Y-57820993D01*
X89071420Y-57903549D01*
X89074965Y-58011064D01*
X89079431Y-58136190D01*
X89084570Y-58271581D01*
X89086933Y-58331329D01*
X89094768Y-58507064D01*
X89103439Y-58648229D01*
X89114093Y-58759939D01*
X89127879Y-58847309D01*
X89145944Y-58915456D01*
X89169435Y-58969495D01*
X89199500Y-59014543D01*
X89237287Y-59055714D01*
X89252692Y-59070286D01*
X89306497Y-59115066D01*
X89365311Y-59152979D01*
X89432723Y-59184563D01*
X89512325Y-59210354D01*
X89607708Y-59230890D01*
X89722461Y-59246708D01*
X89860176Y-59258343D01*
X90024445Y-59266334D01*
X90218856Y-59271217D01*
X90447002Y-59273529D01*
X90614531Y-59273907D01*
X91290001Y-59273907D01*
X91289730Y-59080431D01*
X91288414Y-58991805D01*
X91285106Y-58914153D01*
X91280388Y-58858805D01*
X91277494Y-58842306D01*
X91265528Y-58797657D01*
X90608038Y-58797365D01*
X90415544Y-58797125D01*
X90258965Y-58796187D01*
X90134531Y-58793934D01*
X90038469Y-58789754D01*
X89967008Y-58783033D01*
X89916376Y-58773156D01*
X89882803Y-58759509D01*
X89862515Y-58741480D01*
X89851742Y-58718452D01*
X89846712Y-58689814D01*
X89845170Y-58673178D01*
X89839012Y-58599220D01*
X90761508Y-58599220D01*
X90974993Y-58598749D01*
X91174636Y-58597389D01*
X91356375Y-58595218D01*
X91516153Y-58592317D01*
X91649908Y-58588764D01*
X91753583Y-58584638D01*
X91823116Y-58580018D01*
X91839229Y-58578220D01*
X92009653Y-58540940D01*
X92156876Y-58479529D01*
X92277113Y-58396265D01*
X92366576Y-58293426D01*
X92394442Y-58244167D01*
X92410444Y-58191430D01*
X92424066Y-58110771D01*
X92434452Y-58013926D01*
X92440748Y-57912630D01*
X92442099Y-57818621D01*
X92437649Y-57743634D01*
X92432876Y-57716518D01*
X92420339Y-57666564D01*
X91706720Y-57666564D01*
X91706720Y-57852004D01*
G36*
X85495626Y-57831783D02*
G01*
X85497102Y-57917998D01*
X85501013Y-57996372D01*
X85506588Y-58052630D01*
X85508028Y-58060958D01*
X85520431Y-58122970D01*
X86733380Y-58123443D01*
X86999721Y-58123718D01*
X87229208Y-58124400D01*
X87424674Y-58125608D01*
X87588949Y-58127460D01*
X87724867Y-58130077D01*
X87835259Y-58133578D01*
X87922958Y-58138081D01*
X87990797Y-58143706D01*
X88041606Y-58150572D01*
X88078220Y-58158798D01*
X88103469Y-58168503D01*
X88120186Y-58179808D01*
X88122388Y-58181902D01*
X88132659Y-58213012D01*
X88139901Y-58281402D01*
X88143940Y-58384771D01*
X88144767Y-58475481D01*
X88144552Y-58583884D01*
X88143153Y-58659379D01*
X88139434Y-58708744D01*
X88132262Y-58738758D01*
X88120500Y-58756200D01*
X88103016Y-58767848D01*
X88095157Y-58771900D01*
X88075992Y-58777278D01*
X88039611Y-58781898D01*
X87983560Y-58785809D01*
X87905383Y-58789058D01*
X87802626Y-58791695D01*
X87672834Y-58793765D01*
X87513553Y-58795318D01*
X87322327Y-58796401D01*
X87096702Y-58797063D01*
X86834223Y-58797351D01*
X86790431Y-58797365D01*
X85535313Y-58797657D01*
X85535486Y-58931603D01*
X85537609Y-59021390D01*
X85542912Y-59113671D01*
X85548172Y-59169728D01*
X85560685Y-59273907D01*
X86862648Y-59271333D01*
X87091018Y-59270625D01*
X87311183Y-59269448D01*
X87519347Y-59267856D01*
X87711712Y-59265900D01*
X87884482Y-59263631D01*
X88033860Y-59261101D01*
X88156047Y-59258362D01*
X88247248Y-59255466D01*
X88303666Y-59252464D01*
X88313016Y-59251576D01*
X88489534Y-59220332D01*
X88632075Y-59170916D01*
X88742413Y-59102384D01*
X88822324Y-59013795D01*
X88848915Y-58966959D01*
X88864403Y-58932969D01*
X88875648Y-58900065D01*
X88883155Y-58861657D01*
X88887436Y-58811153D01*
X88888997Y-58741963D01*
X88888348Y-58647496D01*
X88885997Y-58521162D01*
X88885419Y-58493887D01*
X88882286Y-58360369D01*
X88878834Y-58259607D01*
X88874221Y-58184671D01*
X88867601Y-58128633D01*
X88858131Y-58084564D01*
X88844966Y-58045535D01*
X88827263Y-58004619D01*
X88825287Y-58000322D01*
X88764644Y-57901026D01*
X88681025Y-57821813D01*
X88568429Y-57757917D01*
X88473878Y-57721333D01*
X88448273Y-57712924D01*
X88422955Y-57705645D01*
X88394967Y-57699402D01*
X88361351Y-57694097D01*
X88319151Y-57689636D01*
X88265409Y-57685921D01*
X88197169Y-57682859D01*
X88111474Y-57680352D01*
X88005367Y-57678306D01*
X87875890Y-57676623D01*
X87720087Y-57675209D01*
X87535001Y-57673967D01*
X87317674Y-57672802D01*
X87065151Y-57671618D01*
X86919415Y-57670965D01*
X85495626Y-57664621D01*
X85495626Y-57831783D01*
G37*
X85495626Y-57831783D02*
X85497102Y-57917998D01*
X85501013Y-57996372D01*
X85506588Y-58052630D01*
X85508028Y-58060958D01*
X85520431Y-58122970D01*
X86733380Y-58123443D01*
X86999721Y-58123718D01*
X87229208Y-58124400D01*
X87424674Y-58125608D01*
X87588949Y-58127460D01*
X87724867Y-58130077D01*
X87835259Y-58133578D01*
X87922958Y-58138081D01*
X87990797Y-58143706D01*
X88041606Y-58150572D01*
X88078220Y-58158798D01*
X88103469Y-58168503D01*
X88120186Y-58179808D01*
X88122388Y-58181902D01*
X88132659Y-58213012D01*
X88139901Y-58281402D01*
X88143940Y-58384771D01*
X88144767Y-58475481D01*
X88144552Y-58583884D01*
X88143153Y-58659379D01*
X88139434Y-58708744D01*
X88132262Y-58738758D01*
X88120500Y-58756200D01*
X88103016Y-58767848D01*
X88095157Y-58771900D01*
X88075992Y-58777278D01*
X88039611Y-58781898D01*
X87983560Y-58785809D01*
X87905383Y-58789058D01*
X87802626Y-58791695D01*
X87672834Y-58793765D01*
X87513553Y-58795318D01*
X87322327Y-58796401D01*
X87096702Y-58797063D01*
X86834223Y-58797351D01*
X86790431Y-58797365D01*
X85535313Y-58797657D01*
X85535486Y-58931603D01*
X85537609Y-59021390D01*
X85542912Y-59113671D01*
X85548172Y-59169728D01*
X85560685Y-59273907D01*
X86862648Y-59271333D01*
X87091018Y-59270625D01*
X87311183Y-59269448D01*
X87519347Y-59267856D01*
X87711712Y-59265900D01*
X87884482Y-59263631D01*
X88033860Y-59261101D01*
X88156047Y-59258362D01*
X88247248Y-59255466D01*
X88303666Y-59252464D01*
X88313016Y-59251576D01*
X88489534Y-59220332D01*
X88632075Y-59170916D01*
X88742413Y-59102384D01*
X88822324Y-59013795D01*
X88848915Y-58966959D01*
X88864403Y-58932969D01*
X88875648Y-58900065D01*
X88883155Y-58861657D01*
X88887436Y-58811153D01*
X88888997Y-58741963D01*
X88888348Y-58647496D01*
X88885997Y-58521162D01*
X88885419Y-58493887D01*
X88882286Y-58360369D01*
X88878834Y-58259607D01*
X88874221Y-58184671D01*
X88867601Y-58128633D01*
X88858131Y-58084564D01*
X88844966Y-58045535D01*
X88827263Y-58004619D01*
X88825287Y-58000322D01*
X88764644Y-57901026D01*
X88681025Y-57821813D01*
X88568429Y-57757917D01*
X88473878Y-57721333D01*
X88448273Y-57712924D01*
X88422955Y-57705645D01*
X88394967Y-57699402D01*
X88361351Y-57694097D01*
X88319151Y-57689636D01*
X88265409Y-57685921D01*
X88197169Y-57682859D01*
X88111474Y-57680352D01*
X88005367Y-57678306D01*
X87875890Y-57676623D01*
X87720087Y-57675209D01*
X87535001Y-57673967D01*
X87317674Y-57672802D01*
X87065151Y-57671618D01*
X86919415Y-57670965D01*
X85495626Y-57664621D01*
X85495626Y-57831783D01*
G36*
X82761772Y-57665185D02*
G01*
X82600364Y-57665630D01*
X82458046Y-57666491D01*
X82338865Y-57667786D01*
X82246870Y-57669538D01*
X82186111Y-57671766D01*
X82160636Y-57674491D01*
X82160222Y-57674752D01*
X82157426Y-57696693D01*
X82156166Y-57749923D01*
X82156518Y-57826073D01*
X82158153Y-57902955D01*
X82164352Y-58122970D01*
X83259481Y-58124153D01*
X83520767Y-58124653D01*
X83745139Y-58125621D01*
X83935368Y-58127162D01*
X84094227Y-58129384D01*
X84224487Y-58132394D01*
X84328920Y-58136299D01*
X84410298Y-58141207D01*
X84471392Y-58147225D01*
X84514974Y-58154460D01*
X84543816Y-58163019D01*
X84560690Y-58173010D01*
X84562268Y-58174541D01*
X84575674Y-58205093D01*
X84585466Y-58255816D01*
X84586102Y-58261876D01*
X84592735Y-58331329D01*
X83764259Y-58336508D01*
X82935782Y-58341686D01*
X82935901Y-58405961D01*
X82937507Y-58456487D01*
X82941650Y-58531866D01*
X82947501Y-58617407D01*
X82948764Y-58633946D01*
X82961508Y-58797657D01*
X84618115Y-58797657D01*
X84632423Y-59035782D01*
X84646730Y-59273907D01*
X85362347Y-59273907D01*
X85348245Y-58753009D01*
X85342044Y-58556235D01*
X85334638Y-58394618D01*
X85325292Y-58263631D01*
X85313270Y-58158748D01*
X85297836Y-58075440D01*
X85278255Y-58009180D01*
X85253790Y-57955442D01*
X85223708Y-57909698D01*
X85208088Y-57890452D01*
X85118113Y-57812742D01*
X84996534Y-57749952D01*
X84849525Y-57704842D01*
X84755010Y-57687863D01*
X84713879Y-57684773D01*
X84639203Y-57681833D01*
X84535031Y-57679062D01*
X84405412Y-57676481D01*
X84254395Y-57674111D01*
X84086029Y-57671972D01*
X83904362Y-57670084D01*
X83713443Y-57668469D01*
X83517320Y-57667145D01*
X83320043Y-57666135D01*
X83125660Y-57665458D01*
X82938220Y-57665135D01*
X82761772Y-57665185D01*
G37*
X82761772Y-57665185D02*
X82600364Y-57665630D01*
X82458046Y-57666491D01*
X82338865Y-57667786D01*
X82246870Y-57669538D01*
X82186111Y-57671766D01*
X82160636Y-57674491D01*
X82160222Y-57674752D01*
X82157426Y-57696693D01*
X82156166Y-57749923D01*
X82156518Y-57826073D01*
X82158153Y-57902955D01*
X82164352Y-58122970D01*
X83259481Y-58124153D01*
X83520767Y-58124653D01*
X83745139Y-58125621D01*
X83935368Y-58127162D01*
X84094227Y-58129384D01*
X84224487Y-58132394D01*
X84328920Y-58136299D01*
X84410298Y-58141207D01*
X84471392Y-58147225D01*
X84514974Y-58154460D01*
X84543816Y-58163019D01*
X84560690Y-58173010D01*
X84562268Y-58174541D01*
X84575674Y-58205093D01*
X84585466Y-58255816D01*
X84586102Y-58261876D01*
X84592735Y-58331329D01*
X83764259Y-58336508D01*
X82935782Y-58341686D01*
X82935901Y-58405961D01*
X82937507Y-58456487D01*
X82941650Y-58531866D01*
X82947501Y-58617407D01*
X82948764Y-58633946D01*
X82961508Y-58797657D01*
X84618115Y-58797657D01*
X84632423Y-59035782D01*
X84646730Y-59273907D01*
X85362347Y-59273907D01*
X85348245Y-58753009D01*
X85342044Y-58556235D01*
X85334638Y-58394618D01*
X85325292Y-58263631D01*
X85313270Y-58158748D01*
X85297836Y-58075440D01*
X85278255Y-58009180D01*
X85253790Y-57955442D01*
X85223708Y-57909698D01*
X85208088Y-57890452D01*
X85118113Y-57812742D01*
X84996534Y-57749952D01*
X84849525Y-57704842D01*
X84755010Y-57687863D01*
X84713879Y-57684773D01*
X84639203Y-57681833D01*
X84535031Y-57679062D01*
X84405412Y-57676481D01*
X84254395Y-57674111D01*
X84086029Y-57671972D01*
X83904362Y-57670084D01*
X83713443Y-57668469D01*
X83517320Y-57667145D01*
X83320043Y-57666135D01*
X83125660Y-57665458D01*
X82938220Y-57665135D01*
X82761772Y-57665185D01*
G36*
X81278776Y-58147317D02*
G01*
X81283760Y-58305828D01*
X81289246Y-58473309D01*
X81294847Y-58638421D01*
X81300178Y-58789824D01*
X81304850Y-58916180D01*
X81306026Y-58946485D01*
X81318517Y-59263985D01*
X82048047Y-59274823D01*
X82032961Y-58773310D01*
X82028038Y-58614542D01*
X82022654Y-58449212D01*
X82017165Y-58287724D01*
X82011929Y-58140483D01*
X82007303Y-58017896D01*
X82005539Y-57974142D01*
X81993204Y-57676485D01*
X81628611Y-57671067D01*
X81264017Y-57665650D01*
X81278776Y-58147317D01*
G37*
X81278776Y-58147317D02*
X81283760Y-58305828D01*
X81289246Y-58473309D01*
X81294847Y-58638421D01*
X81300178Y-58789824D01*
X81304850Y-58916180D01*
X81306026Y-58946485D01*
X81318517Y-59263985D01*
X82048047Y-59274823D01*
X82032961Y-58773310D01*
X82028038Y-58614542D01*
X82022654Y-58449212D01*
X82017165Y-58287724D01*
X82011929Y-58140483D01*
X82007303Y-58017896D01*
X82005539Y-57974142D01*
X81993204Y-57676485D01*
X81628611Y-57671067D01*
X81264017Y-57665650D01*
X81278776Y-58147317D01*
G04 #@! TD*
G04 #@! TO.C,GND*
D11*
X54000001Y-116238147D02*
X53952381Y-116142909D01*
X53952381Y-116000052D01*
X54000001Y-115857194D01*
X54095239Y-115761956D01*
X54190477Y-115714337D01*
X54380953Y-115666718D01*
X54523810Y-115666718D01*
X54714286Y-115714337D01*
X54809524Y-115761956D01*
X54904762Y-115857194D01*
X54952381Y-116000052D01*
X54952381Y-116095290D01*
X54904762Y-116238147D01*
X54857143Y-116285766D01*
X54523810Y-116285766D01*
X54523810Y-116095290D01*
X54952381Y-116714337D02*
X53952381Y-116714337D01*
X54952381Y-117285766D01*
X53952381Y-117285766D01*
X54952381Y-117761956D02*
X53952381Y-117761956D01*
X53952381Y-118000052D01*
X54000001Y-118142909D01*
X54095239Y-118238147D01*
X54190477Y-118285766D01*
X54380953Y-118333385D01*
X54523810Y-118333385D01*
X54714286Y-118285766D01*
X54809524Y-118238147D01*
X54904762Y-118142909D01*
X54952381Y-118000052D01*
X54952381Y-117761956D01*
X122000001Y-116238147D02*
X121952381Y-116142909D01*
X121952381Y-116000052D01*
X122000001Y-115857194D01*
X122095239Y-115761956D01*
X122190477Y-115714337D01*
X122380953Y-115666718D01*
X122523810Y-115666718D01*
X122714286Y-115714337D01*
X122809524Y-115761956D01*
X122904762Y-115857194D01*
X122952381Y-116000052D01*
X122952381Y-116095290D01*
X122904762Y-116238147D01*
X122857143Y-116285766D01*
X122523810Y-116285766D01*
X122523810Y-116095290D01*
X122952381Y-116714337D02*
X121952381Y-116714337D01*
X122952381Y-117285766D01*
X121952381Y-117285766D01*
X122952381Y-117761956D02*
X121952381Y-117761956D01*
X121952381Y-118000052D01*
X122000001Y-118142909D01*
X122095239Y-118238147D01*
X122190477Y-118285766D01*
X122380953Y-118333385D01*
X122523810Y-118333385D01*
X122714286Y-118285766D01*
X122809524Y-118238147D01*
X122904762Y-118142909D01*
X122952381Y-118000052D01*
X122952381Y-117761956D01*
X54000001Y-96738130D02*
X53952381Y-96642892D01*
X53952381Y-96500035D01*
X54000001Y-96357177D01*
X54095239Y-96261939D01*
X54190477Y-96214320D01*
X54380953Y-96166701D01*
X54523810Y-96166701D01*
X54714286Y-96214320D01*
X54809524Y-96261939D01*
X54904762Y-96357177D01*
X54952381Y-96500035D01*
X54952381Y-96595273D01*
X54904762Y-96738130D01*
X54857143Y-96785749D01*
X54523810Y-96785749D01*
X54523810Y-96595273D01*
X54952381Y-97214320D02*
X53952381Y-97214320D01*
X54952381Y-97785749D01*
X53952381Y-97785749D01*
X54952381Y-98261939D02*
X53952381Y-98261939D01*
X53952381Y-98500035D01*
X54000001Y-98642892D01*
X54095239Y-98738130D01*
X54190477Y-98785749D01*
X54380953Y-98833368D01*
X54523810Y-98833368D01*
X54714286Y-98785749D01*
X54809524Y-98738130D01*
X54904762Y-98642892D01*
X54952381Y-98500035D01*
X54952381Y-98261939D01*
X122000001Y-96738130D02*
X121952381Y-96642892D01*
X121952381Y-96500035D01*
X122000001Y-96357177D01*
X122095239Y-96261939D01*
X122190477Y-96214320D01*
X122380953Y-96166701D01*
X122523810Y-96166701D01*
X122714286Y-96214320D01*
X122809524Y-96261939D01*
X122904762Y-96357177D01*
X122952381Y-96500035D01*
X122952381Y-96595273D01*
X122904762Y-96738130D01*
X122857143Y-96785749D01*
X122523810Y-96785749D01*
X122523810Y-96595273D01*
X122952381Y-97214320D02*
X121952381Y-97214320D01*
X122952381Y-97785749D01*
X121952381Y-97785749D01*
X122952381Y-98261939D02*
X121952381Y-98261939D01*
X121952381Y-98500035D01*
X122000001Y-98642892D01*
X122095239Y-98738130D01*
X122190477Y-98785749D01*
X122380953Y-98833368D01*
X122523810Y-98833368D01*
X122714286Y-98785749D01*
X122809524Y-98738130D01*
X122904762Y-98642892D01*
X122952381Y-98500035D01*
X122952381Y-98261939D01*
X54000001Y-77238113D02*
X53952381Y-77142875D01*
X53952381Y-77000018D01*
X54000001Y-76857160D01*
X54095239Y-76761922D01*
X54190477Y-76714303D01*
X54380953Y-76666684D01*
X54523810Y-76666684D01*
X54714286Y-76714303D01*
X54809524Y-76761922D01*
X54904762Y-76857160D01*
X54952381Y-77000018D01*
X54952381Y-77095256D01*
X54904762Y-77238113D01*
X54857143Y-77285732D01*
X54523810Y-77285732D01*
X54523810Y-77095256D01*
X54952381Y-77714303D02*
X53952381Y-77714303D01*
X54952381Y-78285732D01*
X53952381Y-78285732D01*
X54952381Y-78761922D02*
X53952381Y-78761922D01*
X53952381Y-79000018D01*
X54000001Y-79142875D01*
X54095239Y-79238113D01*
X54190477Y-79285732D01*
X54380953Y-79333351D01*
X54523810Y-79333351D01*
X54714286Y-79285732D01*
X54809524Y-79238113D01*
X54904762Y-79142875D01*
X54952381Y-79000018D01*
X54952381Y-78761922D01*
X122000001Y-77238113D02*
X121952381Y-77142875D01*
X121952381Y-77000018D01*
X122000001Y-76857160D01*
X122095239Y-76761922D01*
X122190477Y-76714303D01*
X122380953Y-76666684D01*
X122523810Y-76666684D01*
X122714286Y-76714303D01*
X122809524Y-76761922D01*
X122904762Y-76857160D01*
X122952381Y-77000018D01*
X122952381Y-77095256D01*
X122904762Y-77238113D01*
X122857143Y-77285732D01*
X122523810Y-77285732D01*
X122523810Y-77095256D01*
X122952381Y-77714303D02*
X121952381Y-77714303D01*
X122952381Y-78285732D01*
X121952381Y-78285732D01*
X122952381Y-78761922D02*
X121952381Y-78761922D01*
X121952381Y-79000018D01*
X122000001Y-79142875D01*
X122095239Y-79238113D01*
X122190477Y-79285732D01*
X122380953Y-79333351D01*
X122523810Y-79333351D01*
X122714286Y-79285732D01*
X122809524Y-79238113D01*
X122904762Y-79142875D01*
X122952381Y-79000018D01*
X122952381Y-78761922D01*
X54000001Y-57738096D02*
X53952381Y-57642858D01*
X53952381Y-57500001D01*
X54000001Y-57357143D01*
X54095239Y-57261905D01*
X54190477Y-57214286D01*
X54380953Y-57166667D01*
X54523810Y-57166667D01*
X54714286Y-57214286D01*
X54809524Y-57261905D01*
X54904762Y-57357143D01*
X54952381Y-57500001D01*
X54952381Y-57595239D01*
X54904762Y-57738096D01*
X54857143Y-57785715D01*
X54523810Y-57785715D01*
X54523810Y-57595239D01*
X54952381Y-58214286D02*
X53952381Y-58214286D01*
X54952381Y-58785715D01*
X53952381Y-58785715D01*
X54952381Y-59261905D02*
X53952381Y-59261905D01*
X53952381Y-59500001D01*
X54000001Y-59642858D01*
X54095239Y-59738096D01*
X54190477Y-59785715D01*
X54380953Y-59833334D01*
X54523810Y-59833334D01*
X54714286Y-59785715D01*
X54809524Y-59738096D01*
X54904762Y-59642858D01*
X54952381Y-59500001D01*
X54952381Y-59261905D01*
X122000001Y-57738096D02*
X121952381Y-57642858D01*
X121952381Y-57500001D01*
X122000001Y-57357143D01*
X122095239Y-57261905D01*
X122190477Y-57214286D01*
X122380953Y-57166667D01*
X122523810Y-57166667D01*
X122714286Y-57214286D01*
X122809524Y-57261905D01*
X122904762Y-57357143D01*
X122952381Y-57500001D01*
X122952381Y-57595239D01*
X122904762Y-57738096D01*
X122857143Y-57785715D01*
X122523810Y-57785715D01*
X122523810Y-57595239D01*
X122952381Y-58214286D02*
X121952381Y-58214286D01*
X122952381Y-58785715D01*
X121952381Y-58785715D01*
X122952381Y-59261905D02*
X121952381Y-59261905D01*
X121952381Y-59500001D01*
X122000001Y-59642858D01*
X122095239Y-59738096D01*
X122190477Y-59785715D01*
X122380953Y-59833334D01*
X122523810Y-59833334D01*
X122714286Y-59785715D01*
X122809524Y-59738096D01*
X122904762Y-59642858D01*
X122952381Y-59500001D01*
X122952381Y-59261905D01*
G04 #@! TD*
M02*
