M48
; DRILL file {KiCad 5.1.5+dfsg1-2build2} date Sun Oct 10 04:01:25 2021
; FORMAT={-:-/ absolute / metric / decimal}
; #@! TF.CreationDate,2021-10-10T04:01:25+00:00
; #@! TF.GenerationSoftware,Kicad,Pcbnew,5.1.5+dfsg1-2build2
FMAT,2
METRIC
T1C0.400
T2C1.000
T3C1.500
%
G90
G05
T1
X83.25Y-51.65
X83.25Y-62.65
X83.25Y-73.65
X83.25Y-84.65
X83.25Y-95.65
X83.25Y-106.65
X83.25Y-117.65
X83.25Y-128.65
X95.25Y-51.65
X95.25Y-62.65
X95.25Y-73.65
X95.25Y-84.65
X95.25Y-95.65
X95.25Y-106.65
X95.25Y-117.65
X95.25Y-128.65
T2
X52.25Y-124.13
X52.25Y-113.13
X52.25Y-135.13
X52.25Y-102.13
X52.25Y-91.13
X52.25Y-80.13
X52.25Y-69.13
X52.25Y-58.13
T3
X54.004Y-45.499
X124.496Y-45.499
X54.004Y-140.001
T0
M30
