G04 #@! TF.GenerationSoftware,KiCad,Pcbnew,5.1.5+dfsg1-2build2*
G04 #@! TF.CreationDate,2021-10-10T04:01:23+00:00*
G04 #@! TF.ProjectId,bobbin_bottom_3.3,626f6262-696e-45f6-926f-74746f6d5f33,rev?*
G04 #@! TF.SameCoordinates,Original*
G04 #@! TF.FileFunction,Soldermask,Bot*
G04 #@! TF.FilePolarity,Negative*
%FSLAX46Y46*%
G04 Gerber Fmt 4.6, Leading zero omitted, Abs format (unit mm)*
G04 Created by KiCad (PCBNEW 5.1.5+dfsg1-2build2) date 2021-10-10 04:01:23*
%MOMM*%
%LPD*%
G04 APERTURE LIST*
G04 #@! TA.AperFunction,Profile*
%ADD10C,0.100000*%
G04 #@! TD*
%ADD11C,2.000000*%
%ADD12R,10.000000X2.000000*%
%ADD13C,1.800000*%
G04 APERTURE END LIST*
D10*
X114499900Y-77215900D02*
X114401100Y-77236200D01*
X114596400Y-77185700D02*
X114499900Y-77215900D01*
X114689300Y-77145900D02*
X114596400Y-77185700D01*
X114777600Y-77096800D02*
X114689300Y-77145900D01*
X114860800Y-77038900D02*
X114777600Y-77096800D01*
X114937500Y-76973100D02*
X114860800Y-77038900D01*
X115007100Y-76899800D02*
X114937500Y-76973100D01*
X115069000Y-76819900D02*
X115007100Y-76899800D01*
X115122400Y-76734100D02*
X115069000Y-76819900D01*
X115166900Y-76643400D02*
X115122400Y-76734100D01*
X115202000Y-76548600D02*
X115166900Y-76643400D01*
X115227300Y-76450700D02*
X115202000Y-76548600D01*
X115242600Y-76350800D02*
X115227300Y-76450700D01*
X115247700Y-76249900D02*
X115242600Y-76350800D01*
X115242600Y-76149200D02*
X115247700Y-76249900D01*
X115227300Y-76049300D02*
X115242600Y-76149200D01*
X115202000Y-75951500D02*
X115227300Y-76049300D01*
X115166900Y-75856700D02*
X115202000Y-75951500D01*
X115122400Y-75766000D02*
X115166900Y-75856700D01*
X115069000Y-75680200D02*
X115122400Y-75766000D01*
X115007100Y-75600300D02*
X115069000Y-75680200D01*
X114937300Y-75526800D02*
X115007100Y-75600300D01*
X114860600Y-75461000D02*
X114937300Y-75526800D01*
X114777600Y-75403300D02*
X114860600Y-75461000D01*
X114689300Y-75354200D02*
X114777600Y-75403300D01*
X114596600Y-75314500D02*
X114689300Y-75354200D01*
X114500200Y-75284200D02*
X114596600Y-75314500D01*
X114401200Y-75263800D02*
X114500200Y-75284200D01*
X114300700Y-75253600D02*
X114401200Y-75263800D01*
X114224800Y-75251000D02*
X114300700Y-75253600D01*
X54275400Y-75251000D02*
X114224800Y-75251000D01*
X54199100Y-75253600D02*
X54275400Y-75251000D01*
X54098800Y-75263800D02*
X54199100Y-75253600D01*
X53999800Y-75284200D02*
X54098800Y-75263800D01*
X53903400Y-75314500D02*
X53999800Y-75284200D01*
X53810500Y-75354300D02*
X53903400Y-75314500D01*
X53722100Y-75403400D02*
X53810500Y-75354300D01*
X53639200Y-75461200D02*
X53722100Y-75403400D01*
X53562500Y-75527000D02*
X53639200Y-75461200D01*
X53492900Y-75600300D02*
X53562500Y-75527000D01*
X53431000Y-75680200D02*
X53492900Y-75600300D01*
X53377600Y-75766000D02*
X53431000Y-75680200D01*
X53333100Y-75856700D02*
X53377600Y-75766000D01*
X53298100Y-75951200D02*
X53333100Y-75856700D01*
X53272700Y-76049100D02*
X53298100Y-75951200D01*
X53257400Y-76149000D02*
X53272700Y-76049100D01*
X53252300Y-76249900D02*
X53257400Y-76149000D01*
X53257400Y-76350800D02*
X53252300Y-76249900D01*
X53272700Y-76450700D02*
X53257400Y-76350800D01*
X53298000Y-76548600D02*
X53272700Y-76450700D01*
X53333100Y-76643400D02*
X53298000Y-76548600D01*
X53377600Y-76734100D02*
X53333100Y-76643400D01*
X53431000Y-76819900D02*
X53377600Y-76734100D01*
X53492900Y-76899800D02*
X53431000Y-76819900D01*
X53562500Y-76973100D02*
X53492900Y-76899800D01*
X53639200Y-77038900D02*
X53562500Y-76973100D01*
X53722100Y-77096700D02*
X53639200Y-77038900D01*
X53810500Y-77145700D02*
X53722100Y-77096700D01*
X53903400Y-77185600D02*
X53810500Y-77145700D01*
X53999800Y-77215900D02*
X53903400Y-77185600D01*
X54098800Y-77236200D02*
X53999800Y-77215900D01*
X54199300Y-77246500D02*
X54098800Y-77236200D01*
X54275200Y-77249000D02*
X54199300Y-77246500D01*
X114224900Y-77249000D02*
X54275200Y-77249000D01*
X114300500Y-77246500D02*
X114224900Y-77249000D01*
X114401100Y-77236200D02*
X114300500Y-77246500D01*
X114499900Y-132216000D02*
X114401100Y-132236300D01*
X114596400Y-132185800D02*
X114499900Y-132216000D01*
X114689300Y-132145900D02*
X114596400Y-132185800D01*
X114777600Y-132096900D02*
X114689300Y-132145900D01*
X114860800Y-132039000D02*
X114777600Y-132096900D01*
X114937500Y-131973200D02*
X114860800Y-132039000D01*
X115007100Y-131899900D02*
X114937500Y-131973200D01*
X115069000Y-131820000D02*
X115007100Y-131899900D01*
X115122400Y-131734200D02*
X115069000Y-131820000D01*
X115166900Y-131643500D02*
X115122400Y-131734200D01*
X115202000Y-131548700D02*
X115166900Y-131643500D01*
X115227300Y-131450800D02*
X115202000Y-131548700D01*
X115242600Y-131350900D02*
X115227300Y-131450800D01*
X115247700Y-131250000D02*
X115242600Y-131350900D01*
X115242600Y-131149300D02*
X115247700Y-131250000D01*
X115227300Y-131049400D02*
X115242600Y-131149300D01*
X115202000Y-130951600D02*
X115227300Y-131049400D01*
X115166900Y-130856800D02*
X115202000Y-130951600D01*
X115122400Y-130766100D02*
X115166900Y-130856800D01*
X115069000Y-130680300D02*
X115122400Y-130766100D01*
X115007100Y-130600300D02*
X115069000Y-130680300D01*
X114937300Y-130526900D02*
X115007100Y-130600300D01*
X114860600Y-130461100D02*
X114937300Y-130526900D01*
X114777600Y-130403300D02*
X114860600Y-130461100D01*
X114689300Y-130354300D02*
X114777600Y-130403300D01*
X114596600Y-130314600D02*
X114689300Y-130354300D01*
X114500200Y-130284300D02*
X114596600Y-130314600D01*
X114401200Y-130263900D02*
X114500200Y-130284300D01*
X114300700Y-130253700D02*
X114401200Y-130263900D01*
X114224800Y-130251100D02*
X114300700Y-130253700D01*
X54275400Y-130251100D02*
X114224800Y-130251100D01*
X54199200Y-130253700D02*
X54275400Y-130251100D01*
X54098800Y-130263900D02*
X54199200Y-130253700D01*
X53999800Y-130284300D02*
X54098800Y-130263900D01*
X53903400Y-130314600D02*
X53999800Y-130284300D01*
X53810500Y-130354400D02*
X53903400Y-130314600D01*
X53722100Y-130403500D02*
X53810500Y-130354400D01*
X53639200Y-130461200D02*
X53722100Y-130403500D01*
X53562500Y-130527100D02*
X53639200Y-130461200D01*
X53492900Y-130600300D02*
X53562500Y-130527100D01*
X53431000Y-130680300D02*
X53492900Y-130600300D01*
X53377600Y-130766100D02*
X53431000Y-130680300D01*
X53333100Y-130856800D02*
X53377600Y-130766100D01*
X53298100Y-130951300D02*
X53333100Y-130856800D01*
X53272700Y-131049200D02*
X53298100Y-130951300D01*
X53257400Y-131149100D02*
X53272700Y-131049200D01*
X53252300Y-131250000D02*
X53257400Y-131149100D01*
X53257400Y-131350900D02*
X53252300Y-131250000D01*
X53272700Y-131450800D02*
X53257400Y-131350900D01*
X53298000Y-131548700D02*
X53272700Y-131450800D01*
X53333100Y-131643500D02*
X53298000Y-131548700D01*
X53377600Y-131734200D02*
X53333100Y-131643500D01*
X53431000Y-131820000D02*
X53377600Y-131734200D01*
X53492900Y-131899900D02*
X53431000Y-131820000D01*
X53562500Y-131973200D02*
X53492900Y-131899900D01*
X53639200Y-132039000D02*
X53562500Y-131973200D01*
X53722100Y-132096800D02*
X53639200Y-132039000D01*
X53810500Y-132145800D02*
X53722100Y-132096800D01*
X53903400Y-132185700D02*
X53810500Y-132145800D01*
X53999800Y-132216000D02*
X53903400Y-132185700D01*
X54098800Y-132236300D02*
X53999800Y-132216000D01*
X54199300Y-132246600D02*
X54098800Y-132236300D01*
X54275200Y-132249100D02*
X54199300Y-132246600D01*
X114224900Y-132249100D02*
X54275200Y-132249100D01*
X114300500Y-132246500D02*
X114224900Y-132249100D01*
X114401100Y-132236300D02*
X114300500Y-132246500D01*
X114499900Y-66215900D02*
X114401000Y-66236200D01*
X114596400Y-66185700D02*
X114499900Y-66215900D01*
X114689300Y-66145800D02*
X114596400Y-66185700D01*
X114777600Y-66096800D02*
X114689300Y-66145800D01*
X114860600Y-66039100D02*
X114777600Y-66096800D01*
X114937300Y-65973300D02*
X114860600Y-66039100D01*
X115007100Y-65899800D02*
X114937300Y-65973300D01*
X115069000Y-65819900D02*
X115007100Y-65899800D01*
X115122300Y-65734300D02*
X115069000Y-65819900D01*
X115166800Y-65643600D02*
X115122300Y-65734300D01*
X115201900Y-65548800D02*
X115166800Y-65643600D01*
X115227300Y-65451000D02*
X115201900Y-65548800D01*
X115242600Y-65351100D02*
X115227300Y-65451000D01*
X115247700Y-65250200D02*
X115242600Y-65351100D01*
X115242600Y-65149200D02*
X115247700Y-65250200D01*
X115227300Y-65049300D02*
X115242600Y-65149200D01*
X115202000Y-64951500D02*
X115227300Y-65049300D01*
X115166900Y-64856700D02*
X115202000Y-64951500D01*
X115122400Y-64765900D02*
X115166900Y-64856700D01*
X115069000Y-64680200D02*
X115122400Y-64765900D01*
X115007100Y-64600200D02*
X115069000Y-64680200D01*
X114937300Y-64526800D02*
X115007100Y-64600200D01*
X114860600Y-64461000D02*
X114937300Y-64526800D01*
X114777900Y-64403400D02*
X114860600Y-64461000D01*
X114689500Y-64354300D02*
X114777900Y-64403400D01*
X114596600Y-64314500D02*
X114689500Y-64354300D01*
X114500200Y-64284200D02*
X114596600Y-64314500D01*
X114401200Y-64263800D02*
X114500200Y-64284200D01*
X114300700Y-64253600D02*
X114401200Y-64263800D01*
X114224800Y-64251000D02*
X114300700Y-64253600D01*
X54275300Y-64251000D02*
X114224800Y-64251000D01*
X54199200Y-64253600D02*
X54275300Y-64251000D01*
X54098800Y-64263800D02*
X54199200Y-64253600D01*
X53999800Y-64284200D02*
X54098800Y-64263800D01*
X53903400Y-64314500D02*
X53999800Y-64284200D01*
X53810500Y-64354300D02*
X53903400Y-64314500D01*
X53722100Y-64403400D02*
X53810500Y-64354300D01*
X53639200Y-64461100D02*
X53722100Y-64403400D01*
X53562500Y-64527000D02*
X53639200Y-64461100D01*
X53492900Y-64600200D02*
X53562500Y-64527000D01*
X53431000Y-64680200D02*
X53492900Y-64600200D01*
X53377600Y-64765900D02*
X53431000Y-64680200D01*
X53333100Y-64856700D02*
X53377600Y-64765900D01*
X53298000Y-64951500D02*
X53333100Y-64856700D01*
X53272700Y-65049000D02*
X53298000Y-64951500D01*
X53257400Y-65148900D02*
X53272700Y-65049000D01*
X53252300Y-65249900D02*
X53257400Y-65148900D01*
X53257400Y-65350800D02*
X53252300Y-65249900D01*
X53272700Y-65450700D02*
X53257400Y-65350800D01*
X53298000Y-65548600D02*
X53272700Y-65450700D01*
X53333100Y-65643300D02*
X53298000Y-65548600D01*
X53377600Y-65734100D02*
X53333100Y-65643300D01*
X53431000Y-65819900D02*
X53377600Y-65734100D01*
X53492900Y-65899800D02*
X53431000Y-65819900D01*
X53562500Y-65973100D02*
X53492900Y-65899800D01*
X53639200Y-66038900D02*
X53562500Y-65973100D01*
X53722100Y-66096700D02*
X53639200Y-66038900D01*
X53810500Y-66145700D02*
X53722100Y-66096700D01*
X53903400Y-66185600D02*
X53810500Y-66145700D01*
X53999800Y-66215900D02*
X53903400Y-66185600D01*
X54098800Y-66236200D02*
X53999800Y-66215900D01*
X54199300Y-66246400D02*
X54098800Y-66236200D01*
X54275200Y-66249000D02*
X54199300Y-66246400D01*
X114224900Y-66249000D02*
X54275200Y-66249000D01*
X114300600Y-66246400D02*
X114224900Y-66249000D01*
X114401000Y-66236200D02*
X114300600Y-66246400D01*
X114499900Y-121216000D02*
X114401000Y-121236300D01*
X114596400Y-121185800D02*
X114499900Y-121216000D01*
X114689300Y-121145900D02*
X114596400Y-121185800D01*
X114777600Y-121096900D02*
X114689300Y-121145900D01*
X114860800Y-121039000D02*
X114777600Y-121096900D01*
X114937500Y-120973200D02*
X114860800Y-121039000D01*
X115007100Y-120899900D02*
X114937500Y-120973200D01*
X115069000Y-120820000D02*
X115007100Y-120899900D01*
X115122400Y-120734200D02*
X115069000Y-120820000D01*
X115166900Y-120643400D02*
X115122400Y-120734200D01*
X115202000Y-120548700D02*
X115166900Y-120643400D01*
X115227300Y-120450800D02*
X115202000Y-120548700D01*
X115242600Y-120350900D02*
X115227300Y-120450800D01*
X115247700Y-120250000D02*
X115242600Y-120350900D01*
X115242600Y-120149300D02*
X115247700Y-120250000D01*
X115227300Y-120049400D02*
X115242600Y-120149300D01*
X115202000Y-119951600D02*
X115227300Y-120049400D01*
X115166900Y-119856800D02*
X115202000Y-119951600D01*
X115122400Y-119766000D02*
X115166900Y-119856800D01*
X115069000Y-119680300D02*
X115122400Y-119766000D01*
X115007100Y-119600300D02*
X115069000Y-119680300D01*
X114937300Y-119526900D02*
X115007100Y-119600300D01*
X114860600Y-119461100D02*
X114937300Y-119526900D01*
X114777600Y-119403300D02*
X114860600Y-119461100D01*
X114689300Y-119354300D02*
X114777600Y-119403300D01*
X114596600Y-119314500D02*
X114689300Y-119354300D01*
X114500200Y-119284300D02*
X114596600Y-119314500D01*
X114401200Y-119263900D02*
X114500200Y-119284300D01*
X114300700Y-119253700D02*
X114401200Y-119263900D01*
X114224800Y-119251100D02*
X114300700Y-119253700D01*
X54275300Y-119251100D02*
X114224800Y-119251100D01*
X54199300Y-119253700D02*
X54275300Y-119251100D01*
X54098800Y-119263900D02*
X54199300Y-119253700D01*
X53999800Y-119284300D02*
X54098800Y-119263900D01*
X53903400Y-119314500D02*
X53999800Y-119284300D01*
X53810500Y-119354400D02*
X53903400Y-119314500D01*
X53722100Y-119403500D02*
X53810500Y-119354400D01*
X53639200Y-119461200D02*
X53722100Y-119403500D01*
X53562500Y-119527100D02*
X53639200Y-119461200D01*
X53492900Y-119600300D02*
X53562500Y-119527100D01*
X53431000Y-119680300D02*
X53492900Y-119600300D01*
X53377600Y-119766000D02*
X53431000Y-119680300D01*
X53333100Y-119856800D02*
X53377600Y-119766000D01*
X53298100Y-119951300D02*
X53333100Y-119856800D01*
X53272700Y-120049100D02*
X53298100Y-119951300D01*
X53257400Y-120149000D02*
X53272700Y-120049100D01*
X53252300Y-120250000D02*
X53257400Y-120149000D01*
X53257400Y-120350900D02*
X53252300Y-120250000D01*
X53272700Y-120450800D02*
X53257400Y-120350900D01*
X53298000Y-120548700D02*
X53272700Y-120450800D01*
X53333100Y-120643400D02*
X53298000Y-120548700D01*
X53377600Y-120734200D02*
X53333100Y-120643400D01*
X53431000Y-120820000D02*
X53377600Y-120734200D01*
X53492900Y-120899900D02*
X53431000Y-120820000D01*
X53562500Y-120973200D02*
X53492900Y-120899900D01*
X53639200Y-121039000D02*
X53562500Y-120973200D01*
X53722100Y-121096700D02*
X53639200Y-121039000D01*
X53810500Y-121145800D02*
X53722100Y-121096700D01*
X53903400Y-121185700D02*
X53810500Y-121145800D01*
X53999800Y-121215900D02*
X53903400Y-121185700D01*
X54098800Y-121236300D02*
X53999800Y-121215900D01*
X54199300Y-121246500D02*
X54098800Y-121236300D01*
X54275200Y-121249100D02*
X54199300Y-121246500D01*
X114224800Y-121249100D02*
X54275200Y-121249100D01*
X114300600Y-121246500D02*
X114224800Y-121249100D01*
X114401000Y-121236300D02*
X114300600Y-121246500D01*
X114499900Y-55215900D02*
X114401000Y-55236200D01*
X114596400Y-55185700D02*
X114499900Y-55215900D01*
X114689300Y-55145800D02*
X114596400Y-55185700D01*
X114777600Y-55096800D02*
X114689300Y-55145800D01*
X114860600Y-55039100D02*
X114777600Y-55096800D01*
X114937300Y-54973200D02*
X114860600Y-55039100D01*
X115007100Y-54899800D02*
X114937300Y-54973200D01*
X115069000Y-54819900D02*
X115007100Y-54899800D01*
X115122300Y-54734300D02*
X115069000Y-54819900D01*
X115166800Y-54643600D02*
X115122300Y-54734300D01*
X115201900Y-54548800D02*
X115166800Y-54643600D01*
X115227300Y-54451000D02*
X115201900Y-54548800D01*
X115242600Y-54351100D02*
X115227300Y-54451000D01*
X115247700Y-54250100D02*
X115242600Y-54351100D01*
X115242600Y-54149200D02*
X115247700Y-54250100D01*
X115227300Y-54049300D02*
X115242600Y-54149200D01*
X115202000Y-53951500D02*
X115227300Y-54049300D01*
X115166900Y-53856700D02*
X115202000Y-53951500D01*
X115122400Y-53765900D02*
X115166900Y-53856700D01*
X115069000Y-53680200D02*
X115122400Y-53765900D01*
X115007100Y-53600200D02*
X115069000Y-53680200D01*
X114937300Y-53526800D02*
X115007100Y-53600200D01*
X114860600Y-53460900D02*
X114937300Y-53526800D01*
X114777900Y-53403400D02*
X114860600Y-53460900D01*
X114689500Y-53354300D02*
X114777900Y-53403400D01*
X114596600Y-53314400D02*
X114689500Y-53354300D01*
X114500200Y-53284200D02*
X114596600Y-53314400D01*
X114401200Y-53263800D02*
X114500200Y-53284200D01*
X114300700Y-53253600D02*
X114401200Y-53263800D01*
X114224800Y-53251000D02*
X114300700Y-53253600D01*
X54275200Y-53251000D02*
X114224800Y-53251000D01*
X54199300Y-53253600D02*
X54275200Y-53251000D01*
X54098800Y-53263800D02*
X54199300Y-53253600D01*
X53999800Y-53284200D02*
X54098800Y-53263800D01*
X53903400Y-53314400D02*
X53999800Y-53284200D01*
X53810500Y-53354300D02*
X53903400Y-53314400D01*
X53722100Y-53403400D02*
X53810500Y-53354300D01*
X53639200Y-53461100D02*
X53722100Y-53403400D01*
X53562500Y-53527000D02*
X53639200Y-53461100D01*
X53492900Y-53600200D02*
X53562500Y-53527000D01*
X53431000Y-53680200D02*
X53492900Y-53600200D01*
X53377600Y-53765900D02*
X53431000Y-53680200D01*
X53333100Y-53856700D02*
X53377600Y-53765900D01*
X53298000Y-53951500D02*
X53333100Y-53856700D01*
X53272700Y-54049000D02*
X53298000Y-53951500D01*
X53257400Y-54148900D02*
X53272700Y-54049000D01*
X53252300Y-54249900D02*
X53257400Y-54148900D01*
X53257400Y-54350800D02*
X53252300Y-54249900D01*
X53272700Y-54450700D02*
X53257400Y-54350800D01*
X53298000Y-54548500D02*
X53272700Y-54450700D01*
X53333100Y-54643300D02*
X53298000Y-54548500D01*
X53377600Y-54734100D02*
X53333100Y-54643300D01*
X53431000Y-54819900D02*
X53377600Y-54734100D01*
X53492900Y-54899800D02*
X53431000Y-54819900D01*
X53562500Y-54973000D02*
X53492900Y-54899800D01*
X53639200Y-55038900D02*
X53562500Y-54973000D01*
X53722100Y-55096600D02*
X53639200Y-55038900D01*
X53810500Y-55145700D02*
X53722100Y-55096600D01*
X53903400Y-55185600D02*
X53810500Y-55145700D01*
X53999800Y-55215800D02*
X53903400Y-55185600D01*
X54098800Y-55236200D02*
X53999800Y-55215800D01*
X54199300Y-55246400D02*
X54098800Y-55236200D01*
X54275200Y-55249000D02*
X54199300Y-55246400D01*
X114224800Y-55249000D02*
X54275200Y-55249000D01*
X114300700Y-55246400D02*
X114224800Y-55249000D01*
X114401000Y-55236200D02*
X114300700Y-55246400D01*
X114500200Y-110215900D02*
X114400900Y-110236300D01*
X114596600Y-110185700D02*
X114500200Y-110215900D01*
X114689500Y-110145800D02*
X114596600Y-110185700D01*
X114777900Y-110096700D02*
X114689500Y-110145800D01*
X114860800Y-110039000D02*
X114777900Y-110096700D01*
X114937500Y-109973100D02*
X114860800Y-110039000D01*
X115007100Y-109899900D02*
X114937500Y-109973100D01*
X115069000Y-109819900D02*
X115007100Y-109899900D01*
X115122400Y-109734200D02*
X115069000Y-109819900D01*
X115166900Y-109643400D02*
X115122400Y-109734200D01*
X115202000Y-109548600D02*
X115166900Y-109643400D01*
X115227300Y-109450800D02*
X115202000Y-109548600D01*
X115242600Y-109350900D02*
X115227300Y-109450800D01*
X115247700Y-109250000D02*
X115242600Y-109350900D01*
X115242600Y-109149300D02*
X115247700Y-109250000D01*
X115227300Y-109049400D02*
X115242600Y-109149300D01*
X115202000Y-108951500D02*
X115227300Y-109049400D01*
X115166900Y-108856800D02*
X115202000Y-108951500D01*
X115122400Y-108766000D02*
X115166900Y-108856800D01*
X115069000Y-108680200D02*
X115122400Y-108766000D01*
X115007100Y-108600300D02*
X115069000Y-108680200D01*
X114937300Y-108526900D02*
X115007100Y-108600300D01*
X114860600Y-108461000D02*
X114937300Y-108526900D01*
X114777600Y-108403300D02*
X114860600Y-108461000D01*
X114689300Y-108354300D02*
X114777600Y-108403300D01*
X114596600Y-108314500D02*
X114689300Y-108354300D01*
X114500200Y-108284300D02*
X114596600Y-108314500D01*
X114401200Y-108263900D02*
X114500200Y-108284300D01*
X114300700Y-108253700D02*
X114401200Y-108263900D01*
X114224800Y-108251100D02*
X114300700Y-108253700D01*
X54275200Y-108251100D02*
X114224800Y-108251100D01*
X54199400Y-108253700D02*
X54275200Y-108251100D01*
X54098800Y-108263900D02*
X54199400Y-108253700D01*
X53999800Y-108284300D02*
X54098800Y-108263900D01*
X53903400Y-108314500D02*
X53999800Y-108284300D01*
X53810500Y-108354400D02*
X53903400Y-108314500D01*
X53722100Y-108403500D02*
X53810500Y-108354400D01*
X53639200Y-108461200D02*
X53722100Y-108403500D01*
X53562500Y-108527000D02*
X53639200Y-108461200D01*
X53492900Y-108600300D02*
X53562500Y-108527000D01*
X53431000Y-108680200D02*
X53492900Y-108600300D01*
X53377600Y-108766000D02*
X53431000Y-108680200D01*
X53333100Y-108856800D02*
X53377600Y-108766000D01*
X53298100Y-108951300D02*
X53333100Y-108856800D01*
X53272700Y-109049100D02*
X53298100Y-108951300D01*
X53257400Y-109149000D02*
X53272700Y-109049100D01*
X53252300Y-109250000D02*
X53257400Y-109149000D01*
X53257400Y-109350900D02*
X53252300Y-109250000D01*
X53272700Y-109450800D02*
X53257400Y-109350900D01*
X53298000Y-109548600D02*
X53272700Y-109450800D01*
X53333100Y-109643400D02*
X53298000Y-109548600D01*
X53377600Y-109734200D02*
X53333100Y-109643400D01*
X53431000Y-109819900D02*
X53377600Y-109734200D01*
X53492900Y-109899900D02*
X53431000Y-109819900D01*
X53562500Y-109973100D02*
X53492900Y-109899900D01*
X53639200Y-110039000D02*
X53562500Y-109973100D01*
X53722100Y-110096700D02*
X53639200Y-110039000D01*
X53810500Y-110145800D02*
X53722100Y-110096700D01*
X53903400Y-110185700D02*
X53810500Y-110145800D01*
X53999800Y-110215900D02*
X53903400Y-110185700D01*
X54098800Y-110236300D02*
X53999800Y-110215900D01*
X54199300Y-110246500D02*
X54098800Y-110236300D01*
X54275200Y-110249100D02*
X54199300Y-110246500D01*
X114224700Y-110249100D02*
X54275200Y-110249100D01*
X114300700Y-110246500D02*
X114224700Y-110249100D01*
X114400900Y-110236300D02*
X114300700Y-110246500D01*
X114500200Y-99215900D02*
X114400800Y-99236300D01*
X114596600Y-99185600D02*
X114500200Y-99215900D01*
X114689500Y-99145800D02*
X114596600Y-99185600D01*
X114777900Y-99096700D02*
X114689500Y-99145800D01*
X114860800Y-99039000D02*
X114777900Y-99096700D01*
X114937500Y-98973100D02*
X114860800Y-99039000D01*
X115007100Y-98899900D02*
X114937500Y-98973100D01*
X115069000Y-98819900D02*
X115007100Y-98899900D01*
X115122400Y-98734100D02*
X115069000Y-98819900D01*
X115166900Y-98643400D02*
X115122400Y-98734100D01*
X115202000Y-98548600D02*
X115166900Y-98643400D01*
X115227300Y-98450800D02*
X115202000Y-98548600D01*
X115242600Y-98350900D02*
X115227300Y-98450800D01*
X115247700Y-98249900D02*
X115242600Y-98350900D01*
X115242600Y-98149300D02*
X115247700Y-98249900D01*
X115227300Y-98049400D02*
X115242600Y-98149300D01*
X115202000Y-97951500D02*
X115227300Y-98049400D01*
X115166900Y-97856700D02*
X115202000Y-97951500D01*
X115122400Y-97766000D02*
X115166900Y-97856700D01*
X115069000Y-97680200D02*
X115122400Y-97766000D01*
X115007100Y-97600300D02*
X115069000Y-97680200D01*
X114937300Y-97526800D02*
X115007100Y-97600300D01*
X114860600Y-97461000D02*
X114937300Y-97526800D01*
X114777600Y-97403300D02*
X114860600Y-97461000D01*
X114689300Y-97354300D02*
X114777600Y-97403300D01*
X114596600Y-97314500D02*
X114689300Y-97354300D01*
X114500200Y-97284200D02*
X114596600Y-97314500D01*
X114401200Y-97263900D02*
X114500200Y-97284200D01*
X114300700Y-97253600D02*
X114401200Y-97263900D01*
X114224800Y-97251100D02*
X114300700Y-97253600D01*
X54275100Y-97251100D02*
X114224800Y-97251100D01*
X54199500Y-97253700D02*
X54275100Y-97251100D01*
X54098800Y-97263900D02*
X54199500Y-97253700D01*
X53999800Y-97284200D02*
X54098800Y-97263900D01*
X53903400Y-97314500D02*
X53999800Y-97284200D01*
X53810500Y-97354400D02*
X53903400Y-97314500D01*
X53722100Y-97403400D02*
X53810500Y-97354400D01*
X53639200Y-97461200D02*
X53722100Y-97403400D01*
X53562500Y-97527000D02*
X53639200Y-97461200D01*
X53492900Y-97600300D02*
X53562500Y-97527000D01*
X53431000Y-97680200D02*
X53492900Y-97600300D01*
X53377600Y-97766000D02*
X53431000Y-97680200D01*
X53333100Y-97856700D02*
X53377600Y-97766000D01*
X53298100Y-97951300D02*
X53333100Y-97856700D01*
X53272700Y-98049100D02*
X53298100Y-97951300D01*
X53257400Y-98149000D02*
X53272700Y-98049100D01*
X53252300Y-98249900D02*
X53257400Y-98149000D01*
X53257400Y-98350900D02*
X53252300Y-98249900D01*
X53272700Y-98450800D02*
X53257400Y-98350900D01*
X53298000Y-98548600D02*
X53272700Y-98450800D01*
X53333100Y-98643400D02*
X53298000Y-98548600D01*
X53377600Y-98734100D02*
X53333100Y-98643400D01*
X53431000Y-98819900D02*
X53377600Y-98734100D01*
X53492900Y-98899900D02*
X53431000Y-98819900D01*
X53562500Y-98973100D02*
X53492900Y-98899900D01*
X53639200Y-99039000D02*
X53562500Y-98973100D01*
X53722100Y-99096700D02*
X53639200Y-99039000D01*
X53810500Y-99145800D02*
X53722100Y-99096700D01*
X53903400Y-99185600D02*
X53810500Y-99145800D01*
X53999800Y-99215900D02*
X53903400Y-99185600D01*
X54098800Y-99236300D02*
X53999800Y-99215900D01*
X54199300Y-99246500D02*
X54098800Y-99236300D01*
X54275200Y-99249100D02*
X54199300Y-99246500D01*
X114224600Y-99249100D02*
X54275200Y-99249100D01*
X114300800Y-99246500D02*
X114224600Y-99249100D01*
X114400800Y-99236300D02*
X114300800Y-99246500D01*
X114500200Y-88215900D02*
X114400700Y-88236300D01*
X114596600Y-88185600D02*
X114500200Y-88215900D01*
X114689500Y-88145700D02*
X114596600Y-88185600D01*
X114777900Y-88096700D02*
X114689500Y-88145700D01*
X114860800Y-88038900D02*
X114777900Y-88096700D01*
X114937500Y-87973100D02*
X114860800Y-88038900D01*
X115007100Y-87899800D02*
X114937500Y-87973100D01*
X115069000Y-87819900D02*
X115007100Y-87899800D01*
X115122400Y-87734100D02*
X115069000Y-87819900D01*
X115166900Y-87643400D02*
X115122400Y-87734100D01*
X115202000Y-87548600D02*
X115166900Y-87643400D01*
X115227300Y-87450800D02*
X115202000Y-87548600D01*
X115242600Y-87350900D02*
X115227300Y-87450800D01*
X115247700Y-87249900D02*
X115242600Y-87350900D01*
X115242600Y-87149300D02*
X115247700Y-87249900D01*
X115227300Y-87049400D02*
X115242600Y-87149300D01*
X115202000Y-86951500D02*
X115227300Y-87049400D01*
X115166900Y-86856700D02*
X115202000Y-86951500D01*
X115122400Y-86766000D02*
X115166900Y-86856700D01*
X115069000Y-86680200D02*
X115122400Y-86766000D01*
X115007100Y-86600300D02*
X115069000Y-86680200D01*
X114937300Y-86526800D02*
X115007100Y-86600300D01*
X114860600Y-86461000D02*
X114937300Y-86526800D01*
X114777600Y-86403300D02*
X114860600Y-86461000D01*
X114689300Y-86354200D02*
X114777600Y-86403300D01*
X114596600Y-86314500D02*
X114689300Y-86354200D01*
X114500200Y-86284200D02*
X114596600Y-86314500D01*
X114401200Y-86263900D02*
X114500200Y-86284200D01*
X114300700Y-86253600D02*
X114401200Y-86263900D01*
X114224800Y-86251100D02*
X114300700Y-86253600D01*
X54275000Y-86251100D02*
X114224800Y-86251100D01*
X54199600Y-86253600D02*
X54275000Y-86251100D01*
X54098800Y-86263900D02*
X54199600Y-86253600D01*
X53999800Y-86284200D02*
X54098800Y-86263900D01*
X53903400Y-86314500D02*
X53999800Y-86284200D01*
X53810500Y-86354400D02*
X53903400Y-86314500D01*
X53722100Y-86403400D02*
X53810500Y-86354400D01*
X53639200Y-86461200D02*
X53722100Y-86403400D01*
X53562500Y-86527000D02*
X53639200Y-86461200D01*
X53492900Y-86600300D02*
X53562500Y-86527000D01*
X53431000Y-86680200D02*
X53492900Y-86600300D01*
X53377600Y-86766000D02*
X53431000Y-86680200D01*
X53333100Y-86856700D02*
X53377600Y-86766000D01*
X53298100Y-86951200D02*
X53333100Y-86856700D01*
X53272700Y-87049100D02*
X53298100Y-86951200D01*
X53257400Y-87149000D02*
X53272700Y-87049100D01*
X53252300Y-87249900D02*
X53257400Y-87149000D01*
X53257400Y-87350900D02*
X53252300Y-87249900D01*
X53272700Y-87450800D02*
X53257400Y-87350900D01*
X53298000Y-87548600D02*
X53272700Y-87450800D01*
X53333100Y-87643400D02*
X53298000Y-87548600D01*
X53377600Y-87734100D02*
X53333100Y-87643400D01*
X53431000Y-87819900D02*
X53377600Y-87734100D01*
X53492900Y-87899800D02*
X53431000Y-87819900D01*
X53562500Y-87973100D02*
X53492900Y-87899800D01*
X53639200Y-88038900D02*
X53562500Y-87973100D01*
X53722100Y-88096700D02*
X53639200Y-88038900D01*
X53810500Y-88145700D02*
X53722100Y-88096700D01*
X53903400Y-88185600D02*
X53810500Y-88145700D01*
X53999800Y-88215900D02*
X53903400Y-88185600D01*
X54098800Y-88236200D02*
X53999800Y-88215900D01*
X54199300Y-88246500D02*
X54098800Y-88236200D01*
X54275200Y-88249100D02*
X54199300Y-88246500D01*
X114224500Y-88249100D02*
X54275200Y-88249100D01*
X114300900Y-88246500D02*
X114224500Y-88249100D01*
X114400700Y-88236300D02*
X114300900Y-88246500D01*
X118471000Y-43499000D02*
X50014600Y-43499700D01*
X118487300Y-43500000D02*
X118471000Y-43499000D01*
X118492900Y-43503700D02*
X118487300Y-43500000D01*
X118494800Y-43508200D02*
X118492900Y-43503700D01*
X118495500Y-43523500D02*
X118494800Y-43508200D01*
X118495500Y-47475500D02*
X118495500Y-43523500D01*
X118494300Y-47492700D02*
X118495500Y-47475500D01*
X118491600Y-47496700D02*
X118494300Y-47492700D01*
X118487300Y-47499000D02*
X118491600Y-47496700D01*
X95241200Y-47500000D02*
X118487300Y-47499000D01*
X95144000Y-47504800D02*
X95241200Y-47500000D01*
X95047900Y-47519000D02*
X95144000Y-47504800D01*
X94953600Y-47542600D02*
X95047900Y-47519000D01*
X94862200Y-47575400D02*
X94953600Y-47542600D01*
X94774300Y-47616900D02*
X94862200Y-47575400D01*
X94691000Y-47666900D02*
X94774300Y-47616900D01*
X94613000Y-47724700D02*
X94691000Y-47666900D01*
X94541000Y-47790000D02*
X94613000Y-47724700D01*
X94475700Y-47862000D02*
X94541000Y-47790000D01*
X94417900Y-47940000D02*
X94475700Y-47862000D01*
X94367900Y-48023300D02*
X94417900Y-47940000D01*
X94326400Y-48111100D02*
X94367900Y-48023300D01*
X94293600Y-48202600D02*
X94326400Y-48111100D01*
X94270000Y-48296900D02*
X94293600Y-48202600D01*
X94255800Y-48393000D02*
X94270000Y-48296900D01*
X94251000Y-48490200D02*
X94255800Y-48393000D01*
X94251000Y-49008800D02*
X94251000Y-48490200D01*
X94255800Y-49106000D02*
X94251000Y-49008800D01*
X94270000Y-49202100D02*
X94255800Y-49106000D01*
X94293600Y-49296400D02*
X94270000Y-49202100D01*
X94326400Y-49387900D02*
X94293600Y-49296400D01*
X94367900Y-49475700D02*
X94326400Y-49387900D01*
X94417900Y-49559000D02*
X94367900Y-49475700D01*
X94475700Y-49637000D02*
X94417900Y-49559000D01*
X94541000Y-49709000D02*
X94475700Y-49637000D01*
X94613000Y-49774300D02*
X94541000Y-49709000D01*
X94691000Y-49832100D02*
X94613000Y-49774300D01*
X94774300Y-49882100D02*
X94691000Y-49832100D01*
X94862200Y-49923600D02*
X94774300Y-49882100D01*
X94953600Y-49956400D02*
X94862200Y-49923600D01*
X95047900Y-49980000D02*
X94953600Y-49956400D01*
X95144000Y-49994200D02*
X95047900Y-49980000D01*
X95241200Y-49999000D02*
X95144000Y-49994200D01*
X114243700Y-49999000D02*
X95241200Y-49999000D01*
X114679800Y-50021100D02*
X114243700Y-49999000D01*
X115105900Y-50086400D02*
X114679800Y-50021100D01*
X115522300Y-50194200D02*
X115105900Y-50086400D01*
X115914500Y-50339100D02*
X115522300Y-50194200D01*
X115937800Y-50349100D02*
X115914500Y-50339100D01*
X116301600Y-50527500D02*
X115937800Y-50349100D01*
X116323800Y-50539900D02*
X116301600Y-50527500D01*
X116678500Y-50761400D02*
X116323800Y-50539900D01*
X117018600Y-51024600D02*
X116678500Y-50761400D01*
X117330700Y-51321300D02*
X117018600Y-51024600D01*
X117603300Y-51638300D02*
X117330700Y-51321300D01*
X117618900Y-51658400D02*
X117603300Y-51638300D01*
X117850300Y-51990900D02*
X117618900Y-51658400D01*
X117863800Y-52012500D02*
X117850300Y-51990900D01*
X118066400Y-52378300D02*
X117863800Y-52012500D01*
X118236000Y-52773500D02*
X118066400Y-52378300D01*
X118364900Y-53184300D02*
X118236000Y-52773500D01*
X118449400Y-53593800D02*
X118364900Y-53184300D01*
X118453300Y-53618900D02*
X118449400Y-53593800D01*
X118494300Y-54022000D02*
X118453300Y-53618900D01*
X118495500Y-54047400D02*
X118494300Y-54022000D01*
X118495200Y-54465600D02*
X118495500Y-54047400D01*
X118451700Y-54893400D02*
X118495200Y-54465600D01*
X118365000Y-55315200D02*
X118451700Y-54893400D01*
X118240200Y-55714200D02*
X118365000Y-55315200D01*
X118231400Y-55738100D02*
X118240200Y-55714200D01*
X118071600Y-56110400D02*
X118231400Y-55738100D01*
X118060400Y-56133200D02*
X118071600Y-56110400D01*
X117857200Y-56498700D02*
X118060400Y-56133200D01*
X117611200Y-56852100D02*
X117857200Y-56498700D01*
X117331000Y-57178400D02*
X117611200Y-56852100D01*
X117018900Y-57475100D02*
X117331000Y-57178400D01*
X116678500Y-57738700D02*
X117018900Y-57475100D01*
X116323800Y-57960100D02*
X116678500Y-57738700D01*
X116301600Y-57972500D02*
X116323800Y-57960100D01*
X115937900Y-58150900D02*
X116301600Y-57972500D01*
X115914500Y-58160900D02*
X115937900Y-58150900D01*
X115522200Y-58305800D02*
X115914500Y-58160900D01*
X115105400Y-58413700D02*
X115522200Y-58305800D01*
X114679800Y-58478900D02*
X115105400Y-58413700D01*
X114243800Y-58501000D02*
X114679800Y-58478900D01*
X105243400Y-58500700D02*
X114243800Y-58501000D01*
X105197400Y-58497900D02*
X105243400Y-58500700D01*
X105146100Y-58489800D02*
X105197400Y-58497900D01*
X105095500Y-58476200D02*
X105146100Y-58489800D01*
X105058300Y-58462300D02*
X105095500Y-58476200D01*
X104999900Y-58433700D02*
X105058300Y-58462300D01*
X104966600Y-58412500D02*
X104999900Y-58433700D01*
X104945300Y-58397000D02*
X104966600Y-58412500D01*
X104905500Y-58363000D02*
X104945300Y-58397000D01*
X104878100Y-58335200D02*
X104905500Y-58363000D01*
X104853000Y-58304700D02*
X104878100Y-58335200D01*
X104816300Y-58250100D02*
X104853000Y-58304700D01*
X104792500Y-58203400D02*
X104816300Y-58250100D01*
X104740500Y-58073800D02*
X104792500Y-58203400D01*
X104697000Y-57990800D02*
X104740500Y-58073800D01*
X104645900Y-57912300D02*
X104697000Y-57990800D01*
X104587700Y-57839000D02*
X104645900Y-57912300D01*
X104522700Y-57771500D02*
X104587700Y-57839000D01*
X104451700Y-57710500D02*
X104522700Y-57771500D01*
X104375200Y-57656400D02*
X104451700Y-57710500D01*
X104293900Y-57609800D02*
X104375200Y-57656400D01*
X104208600Y-57571100D02*
X104293900Y-57609800D01*
X104120000Y-57540700D02*
X104208600Y-57571100D01*
X104029000Y-57518700D02*
X104120000Y-57540700D01*
X103936300Y-57505400D02*
X104029000Y-57518700D01*
X103842500Y-57501000D02*
X103936300Y-57505400D01*
X95657500Y-57501000D02*
X103842500Y-57501000D01*
X95563700Y-57505400D02*
X95657500Y-57501000D01*
X95471000Y-57518700D02*
X95563700Y-57505400D01*
X95380000Y-57540700D02*
X95471000Y-57518700D01*
X95291400Y-57571100D02*
X95380000Y-57540700D01*
X95206100Y-57609800D02*
X95291400Y-57571100D01*
X95124800Y-57656400D02*
X95206100Y-57609800D01*
X95048300Y-57710500D02*
X95124800Y-57656400D01*
X94977300Y-57771500D02*
X95048300Y-57710500D01*
X94912300Y-57839000D02*
X94977300Y-57771500D01*
X94854100Y-57912300D02*
X94912300Y-57839000D01*
X94803000Y-57990800D02*
X94854100Y-57912300D01*
X94759500Y-58073800D02*
X94803000Y-57990800D01*
X94701800Y-58215300D02*
X94759500Y-58073800D01*
X94683400Y-58250600D02*
X94701800Y-58215300D01*
X94655200Y-58294100D02*
X94683400Y-58250600D01*
X94621900Y-58335200D02*
X94655200Y-58294100D01*
X94565200Y-58390300D02*
X94621900Y-58335200D01*
X94494600Y-58463400D02*
X94565200Y-58390300D01*
X94432000Y-58543100D02*
X94494600Y-58463400D01*
X94378000Y-58628700D02*
X94432000Y-58543100D01*
X94332900Y-58719500D02*
X94378000Y-58628700D01*
X94297400Y-58814400D02*
X94332900Y-58719500D01*
X94271700Y-58912400D02*
X94297400Y-58814400D01*
X94256200Y-59012500D02*
X94271700Y-58912400D01*
X94251000Y-59114000D02*
X94256200Y-59012500D01*
X94251000Y-60008800D02*
X94251000Y-59114000D01*
X94255800Y-60106000D02*
X94251000Y-60008800D01*
X94270000Y-60202200D02*
X94255800Y-60106000D01*
X94293600Y-60296400D02*
X94270000Y-60202200D01*
X94326400Y-60387900D02*
X94293600Y-60296400D01*
X94367900Y-60475700D02*
X94326400Y-60387900D01*
X94417900Y-60559000D02*
X94367900Y-60475700D01*
X94475700Y-60637100D02*
X94417900Y-60559000D01*
X94541000Y-60709000D02*
X94475700Y-60637100D01*
X94613000Y-60774300D02*
X94541000Y-60709000D01*
X94691000Y-60832200D02*
X94613000Y-60774300D01*
X94774300Y-60882100D02*
X94691000Y-60832200D01*
X94862200Y-60923600D02*
X94774300Y-60882100D01*
X94953600Y-60956400D02*
X94862200Y-60923600D01*
X95047900Y-60980000D02*
X94953600Y-60956400D01*
X95144000Y-60994200D02*
X95047900Y-60980000D01*
X95241200Y-60999000D02*
X95144000Y-60994200D01*
X114243700Y-60999000D02*
X95241200Y-60999000D01*
X114680300Y-61021200D02*
X114243700Y-60999000D01*
X115093100Y-61084100D02*
X114680300Y-61021200D01*
X115118000Y-61089200D02*
X115093100Y-61084100D01*
X115522300Y-61194200D02*
X115118000Y-61089200D01*
X115914500Y-61339100D02*
X115522300Y-61194200D01*
X115937800Y-61349100D02*
X115914500Y-61339100D01*
X116301600Y-61527600D02*
X115937800Y-61349100D01*
X116323800Y-61539900D02*
X116301600Y-61527600D01*
X116678500Y-61761400D02*
X116323800Y-61539900D01*
X117018600Y-62024600D02*
X116678500Y-61761400D01*
X117330700Y-62321300D02*
X117018600Y-62024600D01*
X117603300Y-62638300D02*
X117330700Y-62321300D01*
X117618900Y-62658400D02*
X117603300Y-62638300D01*
X117850300Y-62990900D02*
X117618900Y-62658400D01*
X117863800Y-63012500D02*
X117850300Y-62990900D01*
X118066400Y-63378300D02*
X117863800Y-63012500D01*
X118236000Y-63773500D02*
X118066400Y-63378300D01*
X118364900Y-64184400D02*
X118236000Y-63773500D01*
X118449400Y-64593800D02*
X118364900Y-64184400D01*
X118453300Y-64619000D02*
X118449400Y-64593800D01*
X118494300Y-65022000D02*
X118453300Y-64619000D01*
X118495500Y-65047400D02*
X118494300Y-65022000D01*
X118495200Y-65465600D02*
X118495500Y-65047400D01*
X118451700Y-65893500D02*
X118495200Y-65465600D01*
X118365000Y-66315200D02*
X118451700Y-65893500D01*
X118240200Y-66714300D02*
X118365000Y-66315200D01*
X118231400Y-66738100D02*
X118240200Y-66714300D01*
X118071600Y-67110400D02*
X118231400Y-66738100D01*
X118060400Y-67133300D02*
X118071600Y-67110400D01*
X117857200Y-67498700D02*
X118060400Y-67133300D01*
X117611200Y-67852100D02*
X117857200Y-67498700D01*
X117331000Y-68178400D02*
X117611200Y-67852100D01*
X117018900Y-68475100D02*
X117331000Y-68178400D01*
X116678500Y-68738700D02*
X117018900Y-68475100D01*
X116323800Y-68960100D02*
X116678500Y-68738700D01*
X116301600Y-68972500D02*
X116323800Y-68960100D01*
X115937900Y-69150900D02*
X116301600Y-68972500D01*
X115914500Y-69160900D02*
X115937900Y-69150900D01*
X115522200Y-69305800D02*
X115914500Y-69160900D01*
X115105400Y-69413700D02*
X115522200Y-69305800D01*
X114679800Y-69478900D02*
X115105400Y-69413700D01*
X114243800Y-69501000D02*
X114679800Y-69478900D01*
X105243400Y-69500700D02*
X114243800Y-69501000D01*
X105197400Y-69497900D02*
X105243400Y-69500700D01*
X105146100Y-69489800D02*
X105197400Y-69497900D01*
X105095500Y-69476200D02*
X105146100Y-69489800D01*
X105058300Y-69462300D02*
X105095500Y-69476200D01*
X104999900Y-69433700D02*
X105058300Y-69462300D01*
X104966600Y-69412500D02*
X104999900Y-69433700D01*
X104945300Y-69397100D02*
X104966600Y-69412500D01*
X104905500Y-69363000D02*
X104945300Y-69397100D01*
X104878100Y-69335200D02*
X104905500Y-69363000D01*
X104853000Y-69304700D02*
X104878100Y-69335200D01*
X104816300Y-69250100D02*
X104853000Y-69304700D01*
X104792500Y-69203400D02*
X104816300Y-69250100D01*
X104740500Y-69073800D02*
X104792500Y-69203400D01*
X104697000Y-68990800D02*
X104740500Y-69073800D01*
X104645900Y-68912300D02*
X104697000Y-68990800D01*
X104587700Y-68839000D02*
X104645900Y-68912300D01*
X104522700Y-68771500D02*
X104587700Y-68839000D01*
X104451700Y-68710500D02*
X104522700Y-68771500D01*
X104375200Y-68656400D02*
X104451700Y-68710500D01*
X104293900Y-68609800D02*
X104375200Y-68656400D01*
X104208600Y-68571100D02*
X104293900Y-68609800D01*
X104120000Y-68540700D02*
X104208600Y-68571100D01*
X104029000Y-68518700D02*
X104120000Y-68540700D01*
X103936200Y-68505400D02*
X104029000Y-68518700D01*
X103842400Y-68501000D02*
X103936200Y-68505400D01*
X95657500Y-68501000D02*
X103842400Y-68501000D01*
X95563700Y-68505500D02*
X95657500Y-68501000D01*
X95471000Y-68518700D02*
X95563700Y-68505500D01*
X95380000Y-68540700D02*
X95471000Y-68518700D01*
X95291400Y-68571100D02*
X95380000Y-68540700D01*
X95206100Y-68609800D02*
X95291400Y-68571100D01*
X95124800Y-68656400D02*
X95206100Y-68609800D01*
X95048300Y-68710500D02*
X95124800Y-68656400D01*
X94977300Y-68771500D02*
X95048300Y-68710500D01*
X94912300Y-68839000D02*
X94977300Y-68771500D01*
X94854100Y-68912300D02*
X94912300Y-68839000D01*
X94803000Y-68990900D02*
X94854100Y-68912300D01*
X94759500Y-69073800D02*
X94803000Y-68990900D01*
X94701800Y-69215300D02*
X94759500Y-69073800D01*
X94683700Y-69250100D02*
X94701800Y-69215300D01*
X94662300Y-69283700D02*
X94683700Y-69250100D01*
X94621900Y-69335200D02*
X94662300Y-69283700D01*
X94565200Y-69390300D02*
X94621900Y-69335200D01*
X94494600Y-69463400D02*
X94565200Y-69390300D01*
X94432000Y-69543100D02*
X94494600Y-69463400D01*
X94378000Y-69628800D02*
X94432000Y-69543100D01*
X94332900Y-69719500D02*
X94378000Y-69628800D01*
X94297400Y-69814400D02*
X94332900Y-69719500D01*
X94271700Y-69912400D02*
X94297400Y-69814400D01*
X94256200Y-70012600D02*
X94271700Y-69912400D01*
X94251000Y-70114000D02*
X94256200Y-70012600D01*
X94251000Y-71008800D02*
X94251000Y-70114000D01*
X94255800Y-71106100D02*
X94251000Y-71008800D01*
X94270000Y-71202200D02*
X94255800Y-71106100D01*
X94293600Y-71296400D02*
X94270000Y-71202200D01*
X94326400Y-71387900D02*
X94293600Y-71296400D01*
X94367900Y-71475700D02*
X94326400Y-71387900D01*
X94417900Y-71559000D02*
X94367900Y-71475700D01*
X94475700Y-71637100D02*
X94417900Y-71559000D01*
X94541000Y-71709100D02*
X94475700Y-71637100D01*
X94613000Y-71774300D02*
X94541000Y-71709100D01*
X94691000Y-71832200D02*
X94613000Y-71774300D01*
X94774300Y-71882100D02*
X94691000Y-71832200D01*
X94862200Y-71923700D02*
X94774300Y-71882100D01*
X94953600Y-71956400D02*
X94862200Y-71923700D01*
X95047900Y-71980000D02*
X94953600Y-71956400D01*
X95144000Y-71994200D02*
X95047900Y-71980000D01*
X95241200Y-71999000D02*
X95144000Y-71994200D01*
X114243800Y-71999000D02*
X95241200Y-71999000D01*
X114667300Y-72020200D02*
X114243800Y-71999000D01*
X114692600Y-72022800D02*
X114667300Y-72020200D01*
X115105400Y-72086300D02*
X114692600Y-72022800D01*
X115510300Y-72190800D02*
X115105400Y-72086300D01*
X115534500Y-72198400D02*
X115510300Y-72190800D01*
X115914500Y-72339100D02*
X115534500Y-72198400D01*
X115937800Y-72349100D02*
X115914500Y-72339100D01*
X116313100Y-72533600D02*
X115937800Y-72349100D01*
X116678100Y-72761100D02*
X116313100Y-72533600D01*
X117008900Y-73016800D02*
X116678100Y-72761100D01*
X117028200Y-73033300D02*
X117008900Y-73016800D01*
X117331100Y-73321700D02*
X117028200Y-73033300D01*
X117611200Y-73648000D02*
X117331100Y-73321700D01*
X117857200Y-74001400D02*
X117611200Y-73648000D01*
X118060400Y-74366800D02*
X117857200Y-74001400D01*
X118071600Y-74389600D02*
X118060400Y-74366800D01*
X118236200Y-74774000D02*
X118071600Y-74389600D01*
X118364900Y-75184400D02*
X118236200Y-74774000D01*
X118449400Y-75593800D02*
X118364900Y-75184400D01*
X118453300Y-75619000D02*
X118449400Y-75593800D01*
X118494300Y-76022000D02*
X118453300Y-75619000D01*
X118495500Y-76047400D02*
X118494300Y-76022000D01*
X118495200Y-76465600D02*
X118495500Y-76047400D01*
X118451700Y-76893500D02*
X118495200Y-76465600D01*
X118365000Y-77315300D02*
X118451700Y-76893500D01*
X118240200Y-77714300D02*
X118365000Y-77315300D01*
X118231400Y-77738100D02*
X118240200Y-77714300D01*
X118071600Y-78110400D02*
X118231400Y-77738100D01*
X118060400Y-78133300D02*
X118071600Y-78110400D01*
X117857200Y-78498700D02*
X118060400Y-78133300D01*
X117611200Y-78852100D02*
X117857200Y-78498700D01*
X117331000Y-79178400D02*
X117611200Y-78852100D01*
X117018900Y-79475100D02*
X117331000Y-79178400D01*
X116678500Y-79738700D02*
X117018900Y-79475100D01*
X116323800Y-79960100D02*
X116678500Y-79738700D01*
X116301600Y-79972500D02*
X116323800Y-79960100D01*
X115937900Y-80150900D02*
X116301600Y-79972500D01*
X115914500Y-80160900D02*
X115937900Y-80150900D01*
X115522200Y-80305900D02*
X115914500Y-80160900D01*
X115118100Y-80410800D02*
X115522200Y-80305900D01*
X115093100Y-80415900D02*
X115118100Y-80410800D01*
X114679800Y-80478900D02*
X115093100Y-80415900D01*
X114243800Y-80501000D02*
X114679800Y-80478900D01*
X105256600Y-80501000D02*
X114243800Y-80501000D01*
X105197900Y-80498000D02*
X105256600Y-80501000D01*
X105146100Y-80489800D02*
X105197900Y-80498000D01*
X105107700Y-80479900D02*
X105146100Y-80489800D01*
X105058500Y-80462400D02*
X105107700Y-80479900D01*
X105034500Y-80451800D02*
X105058500Y-80462400D01*
X104999400Y-80433500D02*
X105034500Y-80451800D01*
X104955500Y-80404900D02*
X104999400Y-80433500D01*
X104914800Y-80371900D02*
X104955500Y-80404900D01*
X104878100Y-80335200D02*
X104914800Y-80371900D01*
X104844800Y-80294100D02*
X104878100Y-80335200D01*
X104816300Y-80250100D02*
X104844800Y-80294100D01*
X104792500Y-80203400D02*
X104816300Y-80250100D01*
X104740500Y-80073800D02*
X104792500Y-80203400D01*
X104697000Y-79990800D02*
X104740500Y-80073800D01*
X104645900Y-79912300D02*
X104697000Y-79990800D01*
X104587600Y-79839000D02*
X104645900Y-79912300D01*
X104522700Y-79771500D02*
X104587600Y-79839000D01*
X104451600Y-79710500D02*
X104522700Y-79771500D01*
X104375200Y-79656400D02*
X104451600Y-79710500D01*
X104293900Y-79609800D02*
X104375200Y-79656400D01*
X104208600Y-79571100D02*
X104293900Y-79609800D01*
X104120000Y-79540700D02*
X104208600Y-79571100D01*
X104029000Y-79518700D02*
X104120000Y-79540700D01*
X103936200Y-79505400D02*
X104029000Y-79518700D01*
X103842400Y-79501000D02*
X103936200Y-79505400D01*
X95657500Y-79501000D02*
X103842400Y-79501000D01*
X95563700Y-79505500D02*
X95657500Y-79501000D01*
X95471000Y-79518700D02*
X95563700Y-79505500D01*
X95380000Y-79540700D02*
X95471000Y-79518700D01*
X95291400Y-79571200D02*
X95380000Y-79540700D01*
X95206100Y-79609900D02*
X95291400Y-79571200D01*
X95124800Y-79656400D02*
X95206100Y-79609900D01*
X95048300Y-79710500D02*
X95124800Y-79656400D01*
X94977300Y-79771600D02*
X95048300Y-79710500D01*
X94912300Y-79839000D02*
X94977300Y-79771600D01*
X94854100Y-79912400D02*
X94912300Y-79839000D01*
X94803000Y-79990900D02*
X94854100Y-79912400D01*
X94759500Y-80073900D02*
X94803000Y-79990900D01*
X94701800Y-80215300D02*
X94759500Y-80073900D01*
X94683700Y-80250200D02*
X94701800Y-80215300D01*
X94662300Y-80283700D02*
X94683700Y-80250200D01*
X94621900Y-80335300D02*
X94662300Y-80283700D01*
X94565200Y-80390300D02*
X94621900Y-80335300D01*
X94494600Y-80463400D02*
X94565200Y-80390300D01*
X94432000Y-80543100D02*
X94494600Y-80463400D01*
X94378000Y-80628800D02*
X94432000Y-80543100D01*
X94332900Y-80719500D02*
X94378000Y-80628800D01*
X94297400Y-80814400D02*
X94332900Y-80719500D01*
X94271700Y-80912400D02*
X94297400Y-80814400D01*
X94256200Y-81012600D02*
X94271700Y-80912400D01*
X94251000Y-81114000D02*
X94256200Y-81012600D01*
X94251000Y-82008800D02*
X94251000Y-81114000D01*
X94255800Y-82106100D02*
X94251000Y-82008800D01*
X94270000Y-82202200D02*
X94255800Y-82106100D01*
X94293600Y-82296400D02*
X94270000Y-82202200D01*
X94326400Y-82387900D02*
X94293600Y-82296400D01*
X94367900Y-82475700D02*
X94326400Y-82387900D01*
X94417900Y-82559100D02*
X94367900Y-82475700D01*
X94475700Y-82637100D02*
X94417900Y-82559100D01*
X94541000Y-82709100D02*
X94475700Y-82637100D01*
X94613000Y-82774300D02*
X94541000Y-82709100D01*
X94691000Y-82832200D02*
X94613000Y-82774300D01*
X94774300Y-82882200D02*
X94691000Y-82832200D01*
X94862200Y-82923700D02*
X94774300Y-82882200D01*
X94953600Y-82956400D02*
X94862200Y-82923700D01*
X95047900Y-82980000D02*
X94953600Y-82956400D01*
X95144000Y-82994300D02*
X95047900Y-82980000D01*
X95241200Y-82999100D02*
X95144000Y-82994300D01*
X114243800Y-82999100D02*
X95241200Y-82999100D01*
X114667300Y-83020200D02*
X114243800Y-82999100D01*
X114692600Y-83022800D02*
X114667300Y-83020200D01*
X115105900Y-83086400D02*
X114692600Y-83022800D01*
X115522800Y-83194400D02*
X115105900Y-83086400D01*
X115926100Y-83343800D02*
X115522800Y-83194400D01*
X116301600Y-83527600D02*
X115926100Y-83343800D01*
X116323800Y-83539900D02*
X116301600Y-83527600D01*
X116678500Y-83761400D02*
X116323800Y-83539900D01*
X117018600Y-84024700D02*
X116678500Y-83761400D01*
X117321900Y-84312500D02*
X117018600Y-84024700D01*
X117339400Y-84330900D02*
X117321900Y-84312500D01*
X117603300Y-84638300D02*
X117339400Y-84330900D01*
X117618900Y-84658400D02*
X117603300Y-84638300D01*
X117857500Y-85001800D02*
X117618900Y-84658400D01*
X118066200Y-85377900D02*
X117857500Y-85001800D01*
X118236000Y-85773600D02*
X118066200Y-85377900D01*
X118361500Y-86172400D02*
X118236000Y-85773600D01*
X118367900Y-86197000D02*
X118361500Y-86172400D01*
X118449400Y-86593900D02*
X118367900Y-86197000D01*
X118453300Y-86619000D02*
X118449400Y-86593900D01*
X118495200Y-87034500D02*
X118453300Y-86619000D01*
X118495500Y-87452900D02*
X118495200Y-87034500D01*
X118494300Y-87478000D02*
X118495500Y-87452900D01*
X118453300Y-87881100D02*
X118494300Y-87478000D01*
X118449400Y-87906200D02*
X118453300Y-87881100D01*
X118364900Y-88315800D02*
X118449400Y-87906200D01*
X118236200Y-88726100D02*
X118364900Y-88315800D01*
X118066400Y-89121800D02*
X118236200Y-88726100D01*
X117863800Y-89487500D02*
X118066400Y-89121800D01*
X117850300Y-89509100D02*
X117863800Y-89487500D01*
X117611200Y-89852100D02*
X117850300Y-89509100D01*
X117331000Y-90178500D02*
X117611200Y-89852100D01*
X117028200Y-90466800D02*
X117331000Y-90178500D01*
X117008900Y-90483300D02*
X117028200Y-90466800D01*
X116678000Y-90739000D02*
X117008900Y-90483300D01*
X116313100Y-90966500D02*
X116678000Y-90739000D01*
X115937900Y-91150900D02*
X116313100Y-90966500D01*
X115914500Y-91161000D02*
X115937900Y-91150900D01*
X115534500Y-91301700D02*
X115914500Y-91161000D01*
X115510300Y-91309300D02*
X115534500Y-91301700D01*
X115105900Y-91413700D02*
X115510300Y-91309300D01*
X114692700Y-91477300D02*
X115105900Y-91413700D01*
X114667400Y-91479900D02*
X114692700Y-91477300D01*
X114249900Y-91501000D02*
X114667400Y-91479900D01*
X105243500Y-91500700D02*
X114249900Y-91501000D01*
X105197400Y-91497900D02*
X105243500Y-91500700D01*
X105146100Y-91489800D02*
X105197400Y-91497900D01*
X105095500Y-91476300D02*
X105146100Y-91489800D01*
X105058300Y-91462400D02*
X105095500Y-91476300D01*
X104999900Y-91433800D02*
X105058300Y-91462400D01*
X104966600Y-91412500D02*
X104999900Y-91433800D01*
X104945300Y-91397100D02*
X104966600Y-91412500D01*
X104905500Y-91363100D02*
X104945300Y-91397100D01*
X104878100Y-91335200D02*
X104905500Y-91363100D01*
X104853000Y-91304800D02*
X104878100Y-91335200D01*
X104816300Y-91250100D02*
X104853000Y-91304800D01*
X104792500Y-91203400D02*
X104816300Y-91250100D01*
X104740500Y-91073900D02*
X104792500Y-91203400D01*
X104697100Y-90990900D02*
X104740500Y-91073900D01*
X104646000Y-90912400D02*
X104697100Y-90990900D01*
X104587700Y-90839100D02*
X104646000Y-90912400D01*
X104522700Y-90771600D02*
X104587700Y-90839100D01*
X104451700Y-90710600D02*
X104522700Y-90771600D01*
X104375200Y-90656500D02*
X104451700Y-90710600D01*
X104293900Y-90609900D02*
X104375200Y-90656500D01*
X104208600Y-90571200D02*
X104293900Y-90609900D01*
X104120100Y-90540800D02*
X104208600Y-90571200D01*
X104029000Y-90518800D02*
X104120100Y-90540800D01*
X103936300Y-90505500D02*
X104029000Y-90518800D01*
X103842500Y-90501100D02*
X103936300Y-90505500D01*
X95657600Y-90501100D02*
X103842500Y-90501100D01*
X95563800Y-90505500D02*
X95657600Y-90501100D01*
X95471000Y-90518800D02*
X95563800Y-90505500D01*
X95380000Y-90540700D02*
X95471000Y-90518800D01*
X95291400Y-90571200D02*
X95380000Y-90540700D01*
X95206100Y-90609900D02*
X95291400Y-90571200D01*
X95124800Y-90656500D02*
X95206100Y-90609900D01*
X95048300Y-90710500D02*
X95124800Y-90656500D01*
X94977300Y-90771600D02*
X95048300Y-90710500D01*
X94912300Y-90839100D02*
X94977300Y-90771600D01*
X94854100Y-90912400D02*
X94912300Y-90839100D01*
X94803000Y-90990900D02*
X94854100Y-90912400D01*
X94759500Y-91073900D02*
X94803000Y-90990900D01*
X94701800Y-91215300D02*
X94759500Y-91073900D01*
X94683400Y-91250600D02*
X94701800Y-91215300D01*
X94655200Y-91294100D02*
X94683400Y-91250600D01*
X94621900Y-91335300D02*
X94655200Y-91294100D01*
X94565200Y-91390300D02*
X94621900Y-91335300D01*
X94494600Y-91463400D02*
X94565200Y-91390300D01*
X94432000Y-91543100D02*
X94494600Y-91463400D01*
X94378000Y-91628800D02*
X94432000Y-91543100D01*
X94332900Y-91719600D02*
X94378000Y-91628800D01*
X94297400Y-91814400D02*
X94332900Y-91719600D01*
X94271700Y-91912500D02*
X94297400Y-91814400D01*
X94256200Y-92012600D02*
X94271700Y-91912500D01*
X94251000Y-92114000D02*
X94256200Y-92012600D01*
X94251000Y-93008800D02*
X94251000Y-92114000D01*
X94255800Y-93106100D02*
X94251000Y-93008800D01*
X94270000Y-93202200D02*
X94255800Y-93106100D01*
X94293600Y-93296500D02*
X94270000Y-93202200D01*
X94326400Y-93387900D02*
X94293600Y-93296500D01*
X94367900Y-93475800D02*
X94326400Y-93387900D01*
X94417900Y-93559100D02*
X94367900Y-93475800D01*
X94475700Y-93637100D02*
X94417900Y-93559100D01*
X94541000Y-93709100D02*
X94475700Y-93637100D01*
X94613000Y-93774400D02*
X94541000Y-93709100D01*
X94691000Y-93832200D02*
X94613000Y-93774400D01*
X94774300Y-93882200D02*
X94691000Y-93832200D01*
X94862200Y-93923700D02*
X94774300Y-93882200D01*
X94953600Y-93956400D02*
X94862200Y-93923700D01*
X95047900Y-93980000D02*
X94953600Y-93956400D01*
X95144000Y-93994300D02*
X95047900Y-93980000D01*
X95241200Y-93999100D02*
X95144000Y-93994300D01*
X114243700Y-93999100D02*
X95241200Y-93999100D01*
X114679800Y-94021200D02*
X114243700Y-93999100D01*
X115105400Y-94086400D02*
X114679800Y-94021200D01*
X115522300Y-94194300D02*
X115105400Y-94086400D01*
X115914500Y-94339200D02*
X115522300Y-94194300D01*
X115937800Y-94349200D02*
X115914500Y-94339200D01*
X116301600Y-94527600D02*
X115937800Y-94349200D01*
X116323800Y-94540000D02*
X116301600Y-94527600D01*
X116678500Y-94761400D02*
X116323800Y-94540000D01*
X117019000Y-95025000D02*
X116678500Y-94761400D01*
X117330700Y-95321300D02*
X117019000Y-95025000D01*
X117611200Y-95648000D02*
X117330700Y-95321300D01*
X117857200Y-96001400D02*
X117611200Y-95648000D01*
X118060400Y-96366800D02*
X117857200Y-96001400D01*
X118071600Y-96389600D02*
X118060400Y-96366800D01*
X118231400Y-96762000D02*
X118071600Y-96389600D01*
X118240200Y-96785800D02*
X118231400Y-96762000D01*
X118365100Y-97184900D02*
X118240200Y-96785800D01*
X118451600Y-97606200D02*
X118365100Y-97184900D01*
X118495200Y-98034600D02*
X118451600Y-97606200D01*
X118495500Y-98452900D02*
X118495200Y-98034600D01*
X118494300Y-98478000D02*
X118495500Y-98452900D01*
X118453300Y-98881100D02*
X118494300Y-98478000D01*
X118449400Y-98906300D02*
X118453300Y-98881100D01*
X118364900Y-99315800D02*
X118449400Y-98906300D01*
X118236000Y-99726600D02*
X118364900Y-99315800D01*
X118066400Y-100121800D02*
X118236000Y-99726600D01*
X117863800Y-100487600D02*
X118066400Y-100121800D01*
X117850300Y-100509100D02*
X117863800Y-100487600D01*
X117618900Y-100841700D02*
X117850300Y-100509100D01*
X117603300Y-100861800D02*
X117618900Y-100841700D01*
X117331000Y-101178500D02*
X117603300Y-100861800D01*
X117028200Y-101466800D02*
X117331000Y-101178500D01*
X117008900Y-101483300D02*
X117028200Y-101466800D01*
X116688500Y-101731300D02*
X117008900Y-101483300D01*
X116667700Y-101745900D02*
X116688500Y-101731300D01*
X116312600Y-101966800D02*
X116667700Y-101745900D01*
X115926500Y-102156200D02*
X116312600Y-101966800D01*
X115522700Y-102305700D02*
X115926500Y-102156200D01*
X115118100Y-102410900D02*
X115522700Y-102305700D01*
X115093100Y-102416000D02*
X115118100Y-102410900D01*
X114680300Y-102478900D02*
X115093100Y-102416000D01*
X114243800Y-102501100D02*
X114680300Y-102478900D01*
X105243400Y-102500700D02*
X114243800Y-102501100D01*
X105197400Y-102498000D02*
X105243400Y-102500700D01*
X105146100Y-102489800D02*
X105197400Y-102498000D01*
X105095500Y-102476300D02*
X105146100Y-102489800D01*
X105058300Y-102462400D02*
X105095500Y-102476300D01*
X104999900Y-102433800D02*
X105058300Y-102462400D01*
X104966600Y-102412600D02*
X104999900Y-102433800D01*
X104945300Y-102397100D02*
X104966600Y-102412600D01*
X104905500Y-102363100D02*
X104945300Y-102397100D01*
X104878100Y-102335300D02*
X104905500Y-102363100D01*
X104853000Y-102304800D02*
X104878100Y-102335300D01*
X104816300Y-102250200D02*
X104853000Y-102304800D01*
X104792500Y-102203400D02*
X104816300Y-102250200D01*
X104740500Y-102073900D02*
X104792500Y-102203400D01*
X104697000Y-101990900D02*
X104740500Y-102073900D01*
X104646000Y-101912400D02*
X104697000Y-101990900D01*
X104587700Y-101839100D02*
X104646000Y-101912400D01*
X104522700Y-101771600D02*
X104587700Y-101839100D01*
X104451700Y-101710600D02*
X104522700Y-101771600D01*
X104375200Y-101656500D02*
X104451700Y-101710600D01*
X104293900Y-101609900D02*
X104375200Y-101656500D01*
X104208600Y-101571200D02*
X104293900Y-101609900D01*
X104120000Y-101540800D02*
X104208600Y-101571200D01*
X104029000Y-101518800D02*
X104120000Y-101540800D01*
X103936300Y-101505500D02*
X104029000Y-101518800D01*
X103842500Y-101501100D02*
X103936300Y-101505500D01*
X95657600Y-101501100D02*
X103842500Y-101501100D01*
X95563800Y-101505500D02*
X95657600Y-101501100D01*
X95471000Y-101518800D02*
X95563800Y-101505500D01*
X95380000Y-101540700D02*
X95471000Y-101518800D01*
X95291400Y-101571200D02*
X95380000Y-101540700D01*
X95206100Y-101609900D02*
X95291400Y-101571200D01*
X95124800Y-101656500D02*
X95206100Y-101609900D01*
X95048300Y-101710500D02*
X95124800Y-101656500D01*
X94977300Y-101771600D02*
X95048300Y-101710500D01*
X94912300Y-101839100D02*
X94977300Y-101771600D01*
X94854100Y-101912400D02*
X94912300Y-101839100D01*
X94803000Y-101990900D02*
X94854100Y-101912400D01*
X94759500Y-102073900D02*
X94803000Y-101990900D01*
X94701800Y-102215300D02*
X94759500Y-102073900D01*
X94683700Y-102250200D02*
X94701800Y-102215300D01*
X94662300Y-102283700D02*
X94683700Y-102250200D01*
X94621900Y-102335300D02*
X94662300Y-102283700D01*
X94565200Y-102390400D02*
X94621900Y-102335300D01*
X94494600Y-102463400D02*
X94565200Y-102390400D01*
X94432000Y-102543100D02*
X94494600Y-102463400D01*
X94378000Y-102628800D02*
X94432000Y-102543100D01*
X94332900Y-102719600D02*
X94378000Y-102628800D01*
X94297400Y-102814500D02*
X94332900Y-102719600D01*
X94271700Y-102912500D02*
X94297400Y-102814500D01*
X94256200Y-103012600D02*
X94271700Y-102912500D01*
X94251000Y-103114100D02*
X94256200Y-103012600D01*
X94251000Y-104008800D02*
X94251000Y-103114100D01*
X94255800Y-104106100D02*
X94251000Y-104008800D01*
X94270000Y-104202200D02*
X94255800Y-104106100D01*
X94293600Y-104296500D02*
X94270000Y-104202200D01*
X94326400Y-104387900D02*
X94293600Y-104296500D01*
X94367900Y-104475800D02*
X94326400Y-104387900D01*
X94417900Y-104559100D02*
X94367900Y-104475800D01*
X94475700Y-104637100D02*
X94417900Y-104559100D01*
X94541000Y-104709100D02*
X94475700Y-104637100D01*
X94613000Y-104774400D02*
X94541000Y-104709100D01*
X94691000Y-104832200D02*
X94613000Y-104774400D01*
X94774300Y-104882200D02*
X94691000Y-104832200D01*
X94862200Y-104923700D02*
X94774300Y-104882200D01*
X94953600Y-104956500D02*
X94862200Y-104923700D01*
X95047900Y-104980100D02*
X94953600Y-104956500D01*
X95144000Y-104994300D02*
X95047900Y-104980100D01*
X95241200Y-104999100D02*
X95144000Y-104994300D01*
X114243700Y-104999100D02*
X95241200Y-104999100D01*
X114679800Y-105021200D02*
X114243700Y-104999100D01*
X115105400Y-105086400D02*
X114679800Y-105021200D01*
X115522300Y-105194300D02*
X115105400Y-105086400D01*
X115914500Y-105339200D02*
X115522300Y-105194300D01*
X115937800Y-105349200D02*
X115914500Y-105339200D01*
X116301600Y-105527600D02*
X115937800Y-105349200D01*
X116323800Y-105540000D02*
X116301600Y-105527600D01*
X116678500Y-105761500D02*
X116323800Y-105540000D01*
X117019000Y-106025000D02*
X116678500Y-105761500D01*
X117330700Y-106321400D02*
X117019000Y-106025000D01*
X117611200Y-106648000D02*
X117330700Y-106321400D01*
X117857200Y-107001400D02*
X117611200Y-106648000D01*
X118060400Y-107366800D02*
X117857200Y-107001400D01*
X118071600Y-107389700D02*
X118060400Y-107366800D01*
X118231400Y-107762000D02*
X118071600Y-107389700D01*
X118240200Y-107785800D02*
X118231400Y-107762000D01*
X118365100Y-108184900D02*
X118240200Y-107785800D01*
X118451600Y-108606200D02*
X118365100Y-108184900D01*
X118495200Y-109034600D02*
X118451600Y-108606200D01*
X118495500Y-109452700D02*
X118495200Y-109034600D01*
X118494300Y-109478100D02*
X118495500Y-109452700D01*
X118453300Y-109881100D02*
X118494300Y-109478100D01*
X118449400Y-109906300D02*
X118453300Y-109881100D01*
X118364900Y-110315800D02*
X118449400Y-109906300D01*
X118236200Y-110726200D02*
X118364900Y-110315800D01*
X118066400Y-111121900D02*
X118236200Y-110726200D01*
X117863800Y-111487600D02*
X118066400Y-111121900D01*
X117850300Y-111509200D02*
X117863800Y-111487600D01*
X117618900Y-111841700D02*
X117850300Y-111509200D01*
X117603300Y-111861800D02*
X117618900Y-111841700D01*
X117331000Y-112178500D02*
X117603300Y-111861800D01*
X117028200Y-112466800D02*
X117331000Y-112178500D01*
X117008900Y-112483400D02*
X117028200Y-112466800D01*
X116688500Y-112731400D02*
X117008900Y-112483400D01*
X116667700Y-112745900D02*
X116688500Y-112731400D01*
X116312600Y-112966800D02*
X116667700Y-112745900D01*
X115926500Y-113156200D02*
X116312600Y-112966800D01*
X115522700Y-113305800D02*
X115926500Y-113156200D01*
X115118100Y-113410900D02*
X115522700Y-113305800D01*
X115093100Y-113416000D02*
X115118100Y-113410900D01*
X114680300Y-113478900D02*
X115093100Y-113416000D01*
X114243800Y-113501100D02*
X114680300Y-113478900D01*
X105243400Y-113500700D02*
X114243800Y-113501100D01*
X105197400Y-113498000D02*
X105243400Y-113500700D01*
X105146100Y-113489900D02*
X105197400Y-113498000D01*
X105095500Y-113476300D02*
X105146100Y-113489900D01*
X105058300Y-113462400D02*
X105095500Y-113476300D01*
X104999900Y-113433800D02*
X105058300Y-113462400D01*
X104966600Y-113412600D02*
X104999900Y-113433800D01*
X104945300Y-113397100D02*
X104966600Y-113412600D01*
X104905500Y-113363100D02*
X104945300Y-113397100D01*
X104878100Y-113335300D02*
X104905500Y-113363100D01*
X104853000Y-113304800D02*
X104878100Y-113335300D01*
X104816300Y-113250200D02*
X104853000Y-113304800D01*
X104792500Y-113203500D02*
X104816300Y-113250200D01*
X104740500Y-113073900D02*
X104792500Y-113203500D01*
X104697000Y-112990900D02*
X104740500Y-113073900D01*
X104645900Y-112912400D02*
X104697000Y-112990900D01*
X104587700Y-112839100D02*
X104645900Y-112912400D01*
X104522700Y-112771600D02*
X104587700Y-112839100D01*
X104451700Y-112710600D02*
X104522700Y-112771600D01*
X104375200Y-112656500D02*
X104451700Y-112710600D01*
X104293900Y-112609900D02*
X104375200Y-112656500D01*
X104208600Y-112571200D02*
X104293900Y-112609900D01*
X104120000Y-112540800D02*
X104208600Y-112571200D01*
X104029000Y-112518800D02*
X104120000Y-112540800D01*
X103936300Y-112505500D02*
X104029000Y-112518800D01*
X103842500Y-112501100D02*
X103936300Y-112505500D01*
X95657500Y-112501100D02*
X103842500Y-112501100D01*
X95563700Y-112505500D02*
X95657500Y-112501100D01*
X95471000Y-112518800D02*
X95563700Y-112505500D01*
X95380000Y-112540700D02*
X95471000Y-112518800D01*
X95291400Y-112571200D02*
X95380000Y-112540700D01*
X95206100Y-112609900D02*
X95291400Y-112571200D01*
X95124800Y-112656500D02*
X95206100Y-112609900D01*
X95048300Y-112710600D02*
X95124800Y-112656500D01*
X94977300Y-112771600D02*
X95048300Y-112710600D01*
X94912300Y-112839100D02*
X94977300Y-112771600D01*
X94854100Y-112912400D02*
X94912300Y-112839100D01*
X94803000Y-112990900D02*
X94854100Y-112912400D01*
X94759500Y-113073900D02*
X94803000Y-112990900D01*
X94701800Y-113215300D02*
X94759500Y-113073900D01*
X94683700Y-113250200D02*
X94701800Y-113215300D01*
X94662300Y-113283700D02*
X94683700Y-113250200D01*
X94621900Y-113335300D02*
X94662300Y-113283700D01*
X94565200Y-113390400D02*
X94621900Y-113335300D01*
X94494600Y-113463500D02*
X94565200Y-113390400D01*
X94432000Y-113543200D02*
X94494600Y-113463500D01*
X94378000Y-113628800D02*
X94432000Y-113543200D01*
X94332900Y-113719600D02*
X94378000Y-113628800D01*
X94297400Y-113814500D02*
X94332900Y-113719600D01*
X94271700Y-113912500D02*
X94297400Y-113814500D01*
X94256200Y-114012600D02*
X94271700Y-113912500D01*
X94251000Y-114114100D02*
X94256200Y-114012600D01*
X94251000Y-115008900D02*
X94251000Y-114114100D01*
X94255800Y-115106100D02*
X94251000Y-115008900D01*
X94270000Y-115202200D02*
X94255800Y-115106100D01*
X94293600Y-115296500D02*
X94270000Y-115202200D01*
X94326400Y-115388000D02*
X94293600Y-115296500D01*
X94367900Y-115475800D02*
X94326400Y-115388000D01*
X94417900Y-115559100D02*
X94367900Y-115475800D01*
X94475700Y-115637100D02*
X94417900Y-115559100D01*
X94541000Y-115709100D02*
X94475700Y-115637100D01*
X94613000Y-115774400D02*
X94541000Y-115709100D01*
X94691000Y-115832300D02*
X94613000Y-115774400D01*
X94774300Y-115882200D02*
X94691000Y-115832300D01*
X94862200Y-115923700D02*
X94774300Y-115882200D01*
X94953600Y-115956500D02*
X94862200Y-115923700D01*
X95047900Y-115980100D02*
X94953600Y-115956500D01*
X95144000Y-115994300D02*
X95047900Y-115980100D01*
X95241200Y-115999100D02*
X95144000Y-115994300D01*
X114243700Y-115999100D02*
X95241200Y-115999100D01*
X114679800Y-116021200D02*
X114243700Y-115999100D01*
X115105900Y-116086500D02*
X114679800Y-116021200D01*
X115522300Y-116194300D02*
X115105900Y-116086500D01*
X115926100Y-116343800D02*
X115522300Y-116194300D01*
X116312700Y-116533400D02*
X115926100Y-116343800D01*
X116667600Y-116754300D02*
X116312700Y-116533400D01*
X116688500Y-116768800D02*
X116667600Y-116754300D01*
X117008900Y-117016800D02*
X116688500Y-116768800D01*
X117028200Y-117033400D02*
X117008900Y-117016800D01*
X117331100Y-117321700D02*
X117028200Y-117033400D01*
X117611200Y-117648100D02*
X117331100Y-117321700D01*
X117857200Y-118001500D02*
X117611200Y-117648100D01*
X118060400Y-118366800D02*
X117857200Y-118001500D01*
X118071600Y-118389700D02*
X118060400Y-118366800D01*
X118231400Y-118762000D02*
X118071600Y-118389700D01*
X118240200Y-118785800D02*
X118231400Y-118762000D01*
X118365100Y-119184900D02*
X118240200Y-118785800D01*
X118451600Y-119606200D02*
X118365100Y-119184900D01*
X118495200Y-120034600D02*
X118451600Y-119606200D01*
X118495500Y-120452700D02*
X118495200Y-120034600D01*
X118494300Y-120478100D02*
X118495500Y-120452700D01*
X118453300Y-120881100D02*
X118494300Y-120478100D01*
X118449400Y-120906300D02*
X118453300Y-120881100D01*
X118364900Y-121315800D02*
X118449400Y-120906300D01*
X118236200Y-121726200D02*
X118364900Y-121315800D01*
X118066400Y-122121900D02*
X118236200Y-121726200D01*
X117863800Y-122487600D02*
X118066400Y-122121900D01*
X117850300Y-122509200D02*
X117863800Y-122487600D01*
X117618900Y-122841700D02*
X117850300Y-122509200D01*
X117603300Y-122861800D02*
X117618900Y-122841700D01*
X117330700Y-123178900D02*
X117603300Y-122861800D01*
X117018900Y-123475200D02*
X117330700Y-123178900D01*
X116678500Y-123738800D02*
X117018900Y-123475200D01*
X116323800Y-123960200D02*
X116678500Y-123738800D01*
X116301600Y-123972600D02*
X116323800Y-123960200D01*
X115937900Y-124151000D02*
X116301600Y-123972600D01*
X115914500Y-124161000D02*
X115937900Y-124151000D01*
X115522700Y-124305800D02*
X115914500Y-124161000D01*
X115117800Y-124411000D02*
X115522700Y-124305800D01*
X115093100Y-124416000D02*
X115117800Y-124411000D01*
X114680300Y-124479000D02*
X115093100Y-124416000D01*
X114243800Y-124501100D02*
X114680300Y-124479000D01*
X105243400Y-124500800D02*
X114243800Y-124501100D01*
X105197400Y-124498000D02*
X105243400Y-124500800D01*
X105146100Y-124489900D02*
X105197400Y-124498000D01*
X105095500Y-124476300D02*
X105146100Y-124489900D01*
X105058300Y-124462400D02*
X105095500Y-124476300D01*
X104999900Y-124433800D02*
X105058300Y-124462400D01*
X104966600Y-124412600D02*
X104999900Y-124433800D01*
X104945300Y-124397200D02*
X104966600Y-124412600D01*
X104905500Y-124363100D02*
X104945300Y-124397200D01*
X104878100Y-124335300D02*
X104905500Y-124363100D01*
X104853000Y-124304800D02*
X104878100Y-124335300D01*
X104816300Y-124250200D02*
X104853000Y-124304800D01*
X104792500Y-124203500D02*
X104816300Y-124250200D01*
X104740500Y-124073900D02*
X104792500Y-124203500D01*
X104697000Y-123990900D02*
X104740500Y-124073900D01*
X104645900Y-123912400D02*
X104697000Y-123990900D01*
X104587700Y-123839100D02*
X104645900Y-123912400D01*
X104522700Y-123771600D02*
X104587700Y-123839100D01*
X104451700Y-123710600D02*
X104522700Y-123771600D01*
X104375200Y-123656500D02*
X104451700Y-123710600D01*
X104293900Y-123609900D02*
X104375200Y-123656500D01*
X104208600Y-123571200D02*
X104293900Y-123609900D01*
X104120000Y-123540800D02*
X104208600Y-123571200D01*
X104029000Y-123518800D02*
X104120000Y-123540800D01*
X103936200Y-123505500D02*
X104029000Y-123518800D01*
X103842400Y-123501100D02*
X103936200Y-123505500D01*
X95657500Y-123501100D02*
X103842400Y-123501100D01*
X95563700Y-123505600D02*
X95657500Y-123501100D01*
X95471000Y-123518800D02*
X95563700Y-123505600D01*
X95380000Y-123540800D02*
X95471000Y-123518800D01*
X95291400Y-123571200D02*
X95380000Y-123540800D01*
X95206100Y-123609900D02*
X95291400Y-123571200D01*
X95124800Y-123656500D02*
X95206100Y-123609900D01*
X95048300Y-123710600D02*
X95124800Y-123656500D01*
X94977300Y-123771600D02*
X95048300Y-123710600D01*
X94912300Y-123839100D02*
X94977300Y-123771600D01*
X94854100Y-123912400D02*
X94912300Y-123839100D01*
X94803000Y-123990900D02*
X94854100Y-123912400D01*
X94759500Y-124073900D02*
X94803000Y-123990900D01*
X94701800Y-124215400D02*
X94759500Y-124073900D01*
X94683700Y-124250200D02*
X94701800Y-124215400D01*
X94662300Y-124283800D02*
X94683700Y-124250200D01*
X94621900Y-124335300D02*
X94662300Y-124283800D01*
X94565200Y-124390400D02*
X94621900Y-124335300D01*
X94494600Y-124463500D02*
X94565200Y-124390400D01*
X94432000Y-124543200D02*
X94494600Y-124463500D01*
X94378000Y-124628800D02*
X94432000Y-124543200D01*
X94332900Y-124719600D02*
X94378000Y-124628800D01*
X94297400Y-124814500D02*
X94332900Y-124719600D01*
X94271700Y-124912500D02*
X94297400Y-124814500D01*
X94256200Y-125012600D02*
X94271700Y-124912500D01*
X94251000Y-125114100D02*
X94256200Y-125012600D01*
X94251000Y-126008900D02*
X94251000Y-125114100D01*
X94255800Y-126106200D02*
X94251000Y-126008900D01*
X94270000Y-126202300D02*
X94255800Y-126106200D01*
X94293600Y-126296500D02*
X94270000Y-126202300D01*
X94326400Y-126388000D02*
X94293600Y-126296500D01*
X94367900Y-126475800D02*
X94326400Y-126388000D01*
X94417900Y-126559100D02*
X94367900Y-126475800D01*
X94475700Y-126637200D02*
X94417900Y-126559100D01*
X94541000Y-126709100D02*
X94475700Y-126637200D01*
X94613000Y-126774400D02*
X94541000Y-126709100D01*
X94691000Y-126832300D02*
X94613000Y-126774400D01*
X94774300Y-126882200D02*
X94691000Y-126832300D01*
X94862200Y-126923700D02*
X94774300Y-126882200D01*
X94953600Y-126956500D02*
X94862200Y-126923700D01*
X95047900Y-126980100D02*
X94953600Y-126956500D01*
X95144000Y-126994300D02*
X95047900Y-126980100D01*
X95241200Y-126999100D02*
X95144000Y-126994300D01*
X114243700Y-126999100D02*
X95241200Y-126999100D01*
X114679800Y-127021200D02*
X114243700Y-126999100D01*
X115105900Y-127086500D02*
X114679800Y-127021200D01*
X115522300Y-127194300D02*
X115105900Y-127086500D01*
X115926100Y-127343800D02*
X115522300Y-127194300D01*
X116312700Y-127533500D02*
X115926100Y-127343800D01*
X116667600Y-127754300D02*
X116312700Y-127533500D01*
X116688500Y-127768800D02*
X116667600Y-127754300D01*
X117008900Y-128016800D02*
X116688500Y-127768800D01*
X117028200Y-128033400D02*
X117008900Y-128016800D01*
X117331100Y-128321800D02*
X117028200Y-128033400D01*
X117611200Y-128648100D02*
X117331100Y-128321800D01*
X117857200Y-129001500D02*
X117611200Y-128648100D01*
X118060400Y-129366900D02*
X117857200Y-129001500D01*
X118071600Y-129389700D02*
X118060400Y-129366900D01*
X118231400Y-129762000D02*
X118071600Y-129389700D01*
X118240200Y-129785900D02*
X118231400Y-129762000D01*
X118365100Y-130185000D02*
X118240200Y-129785900D01*
X118451600Y-130606200D02*
X118365100Y-130185000D01*
X118495200Y-131034600D02*
X118451600Y-130606200D01*
X118495500Y-131452700D02*
X118495200Y-131034600D01*
X118494300Y-131478100D02*
X118495500Y-131452700D01*
X118453300Y-131881200D02*
X118494300Y-131478100D01*
X118449400Y-131906300D02*
X118453300Y-131881200D01*
X118364900Y-132315800D02*
X118449400Y-131906300D01*
X118236200Y-132726200D02*
X118364900Y-132315800D01*
X118066400Y-133121900D02*
X118236200Y-132726200D01*
X117863800Y-133487600D02*
X118066400Y-133121900D01*
X117850300Y-133509200D02*
X117863800Y-133487600D01*
X117618900Y-133841700D02*
X117850300Y-133509200D01*
X117603300Y-133861800D02*
X117618900Y-133841700D01*
X117330700Y-134178900D02*
X117603300Y-133861800D01*
X117018900Y-134475200D02*
X117330700Y-134178900D01*
X116678500Y-134738800D02*
X117018900Y-134475200D01*
X116323800Y-134960200D02*
X116678500Y-134738800D01*
X116301600Y-134972600D02*
X116323800Y-134960200D01*
X115937900Y-135151000D02*
X116301600Y-134972600D01*
X115914500Y-135161000D02*
X115937900Y-135151000D01*
X115522700Y-135305800D02*
X115914500Y-135161000D01*
X115117800Y-135411000D02*
X115522700Y-135305800D01*
X115093100Y-135416000D02*
X115117800Y-135411000D01*
X114680300Y-135479000D02*
X115093100Y-135416000D01*
X114243800Y-135501100D02*
X114680300Y-135479000D01*
X105243400Y-135500800D02*
X114243800Y-135501100D01*
X105197400Y-135498000D02*
X105243400Y-135500800D01*
X105146100Y-135489900D02*
X105197400Y-135498000D01*
X105095500Y-135476300D02*
X105146100Y-135489900D01*
X105058300Y-135462400D02*
X105095500Y-135476300D01*
X104999900Y-135433800D02*
X105058300Y-135462400D01*
X104966600Y-135412600D02*
X104999900Y-135433800D01*
X104945300Y-135397200D02*
X104966600Y-135412600D01*
X104905500Y-135363100D02*
X104945300Y-135397200D01*
X104878100Y-135335300D02*
X104905500Y-135363100D01*
X104853000Y-135304800D02*
X104878100Y-135335300D01*
X104816300Y-135250200D02*
X104853000Y-135304800D01*
X104792500Y-135203500D02*
X104816300Y-135250200D01*
X104740500Y-135073900D02*
X104792500Y-135203500D01*
X104697000Y-134990900D02*
X104740500Y-135073900D01*
X104645900Y-134912400D02*
X104697000Y-134990900D01*
X104587600Y-134839100D02*
X104645900Y-134912400D01*
X104522700Y-134771600D02*
X104587600Y-134839100D01*
X104451700Y-134710600D02*
X104522700Y-134771600D01*
X104375200Y-134656500D02*
X104451700Y-134710600D01*
X104293900Y-134609900D02*
X104375200Y-134656500D01*
X104208600Y-134571200D02*
X104293900Y-134609900D01*
X104120000Y-134540800D02*
X104208600Y-134571200D01*
X104029000Y-134518800D02*
X104120000Y-134540800D01*
X103936200Y-134505500D02*
X104029000Y-134518800D01*
X103842400Y-134501100D02*
X103936200Y-134505500D01*
X95657500Y-134501100D02*
X103842400Y-134501100D01*
X95563700Y-134505600D02*
X95657500Y-134501100D01*
X95471000Y-134518800D02*
X95563700Y-134505600D01*
X95380000Y-134540800D02*
X95471000Y-134518800D01*
X95291400Y-134571200D02*
X95380000Y-134540800D01*
X95206100Y-134609900D02*
X95291400Y-134571200D01*
X95124800Y-134656500D02*
X95206100Y-134609900D01*
X95048300Y-134710600D02*
X95124800Y-134656500D01*
X94977300Y-134771600D02*
X95048300Y-134710600D01*
X94912300Y-134839100D02*
X94977300Y-134771600D01*
X94854100Y-134912500D02*
X94912300Y-134839100D01*
X94803000Y-134991000D02*
X94854100Y-134912500D01*
X94759500Y-135073900D02*
X94803000Y-134991000D01*
X94701800Y-135215400D02*
X94759500Y-135073900D01*
X94683700Y-135250200D02*
X94701800Y-135215400D01*
X94662300Y-135283800D02*
X94683700Y-135250200D01*
X94621900Y-135335300D02*
X94662300Y-135283800D01*
X94565200Y-135390400D02*
X94621900Y-135335300D01*
X94494600Y-135463500D02*
X94565200Y-135390400D01*
X94432000Y-135543200D02*
X94494600Y-135463500D01*
X94378000Y-135628900D02*
X94432000Y-135543200D01*
X94332900Y-135719600D02*
X94378000Y-135628900D01*
X94297400Y-135814500D02*
X94332900Y-135719600D01*
X94271700Y-135912500D02*
X94297400Y-135814500D01*
X94256200Y-136012700D02*
X94271700Y-135912500D01*
X94251000Y-136114100D02*
X94256200Y-136012700D01*
X94251000Y-137009900D02*
X94251000Y-136114100D01*
X94255800Y-137107200D02*
X94251000Y-137009900D01*
X94270000Y-137203300D02*
X94255800Y-137107200D01*
X94293600Y-137297500D02*
X94270000Y-137203300D01*
X94326400Y-137389000D02*
X94293600Y-137297500D01*
X94367900Y-137476800D02*
X94326400Y-137389000D01*
X94417900Y-137560200D02*
X94367900Y-137476800D01*
X94475700Y-137638200D02*
X94417900Y-137560200D01*
X94541000Y-137710200D02*
X94475700Y-137638200D01*
X94613000Y-137775400D02*
X94541000Y-137710200D01*
X94691000Y-137833300D02*
X94613000Y-137775400D01*
X94774300Y-137883200D02*
X94691000Y-137833300D01*
X94862200Y-137924800D02*
X94774300Y-137883200D01*
X94953600Y-137957500D02*
X94862200Y-137924800D01*
X95047900Y-137981100D02*
X94953600Y-137957500D01*
X95144000Y-137995400D02*
X95047900Y-137981100D01*
X95241200Y-138000100D02*
X95144000Y-137995400D01*
X118486300Y-138000900D02*
X95241200Y-138000100D01*
X118490800Y-138002800D02*
X118486300Y-138000900D01*
X118494300Y-138007500D02*
X118490800Y-138002800D01*
X118495500Y-138024700D02*
X118494300Y-138007500D01*
X118495500Y-141976600D02*
X118495500Y-138024700D01*
X118494600Y-141992900D02*
X118495500Y-141976600D01*
X118490800Y-141998500D02*
X118494600Y-141992900D01*
X118486300Y-142000400D02*
X118490800Y-141998500D01*
X118471000Y-142001100D02*
X118486300Y-142000400D01*
X50029000Y-142001100D02*
X118471000Y-142001100D01*
X50012700Y-142000200D02*
X50029000Y-142001100D01*
X50007100Y-141996400D02*
X50012700Y-142000200D01*
X50005200Y-141991900D02*
X50007100Y-141996400D01*
X50004500Y-141976600D02*
X50005200Y-141991900D01*
X50004500Y-138024700D02*
X50004500Y-141976600D01*
X50005700Y-138007500D02*
X50004500Y-138024700D01*
X50008400Y-138003400D02*
X50005700Y-138007500D01*
X50012700Y-138001100D02*
X50008400Y-138003400D01*
X73258800Y-138000100D02*
X50012700Y-138001100D01*
X73356000Y-137995400D02*
X73258800Y-138000100D01*
X73452100Y-137981100D02*
X73356000Y-137995400D01*
X73546400Y-137957500D02*
X73452100Y-137981100D01*
X73637900Y-137924800D02*
X73546400Y-137957500D01*
X73725700Y-137883200D02*
X73637900Y-137924800D01*
X73809000Y-137833300D02*
X73725700Y-137883200D01*
X73887000Y-137775400D02*
X73809000Y-137833300D01*
X73959000Y-137710200D02*
X73887000Y-137775400D01*
X74024300Y-137638200D02*
X73959000Y-137710200D01*
X74082100Y-137560200D02*
X74024300Y-137638200D01*
X74132100Y-137476800D02*
X74082100Y-137560200D01*
X74173600Y-137389000D02*
X74132100Y-137476800D01*
X74206400Y-137297500D02*
X74173600Y-137389000D01*
X74230000Y-137203300D02*
X74206400Y-137297500D01*
X74244200Y-137107200D02*
X74230000Y-137203300D01*
X74249000Y-137009900D02*
X74244200Y-137107200D01*
X74249000Y-136114100D02*
X74249000Y-137009900D01*
X74244400Y-136019000D02*
X74249000Y-136114100D01*
X74230800Y-135925000D02*
X74244400Y-136019000D01*
X74208300Y-135832800D02*
X74230800Y-135925000D01*
X74177000Y-135743100D02*
X74208300Y-135832800D01*
X74137200Y-135656900D02*
X74177000Y-135743100D01*
X74089400Y-135574800D02*
X74137200Y-135656900D01*
X74033900Y-135497800D02*
X74089400Y-135574800D01*
X73971300Y-135426400D02*
X74033900Y-135497800D01*
X73878100Y-135335300D02*
X73971300Y-135426400D01*
X73844800Y-135294200D02*
X73878100Y-135335300D01*
X73816500Y-135250700D02*
X73844800Y-135294200D01*
X73798200Y-135215400D02*
X73816500Y-135250700D01*
X73740500Y-135073900D02*
X73798200Y-135215400D01*
X73697000Y-134990900D02*
X73740500Y-135073900D01*
X73645900Y-134912400D02*
X73697000Y-134990900D01*
X73587600Y-134839100D02*
X73645900Y-134912400D01*
X73522700Y-134771600D02*
X73587600Y-134839100D01*
X73451700Y-134710600D02*
X73522700Y-134771600D01*
X73375200Y-134656500D02*
X73451700Y-134710600D01*
X73293900Y-134609900D02*
X73375200Y-134656500D01*
X73208600Y-134571200D02*
X73293900Y-134609900D01*
X73120000Y-134540800D02*
X73208600Y-134571200D01*
X73029000Y-134518800D02*
X73120000Y-134540800D01*
X72936200Y-134505500D02*
X73029000Y-134518800D01*
X72842400Y-134501100D02*
X72936200Y-134505500D01*
X64657500Y-134501100D02*
X72842400Y-134501100D01*
X64563700Y-134505600D02*
X64657500Y-134501100D01*
X64471000Y-134518800D02*
X64563700Y-134505600D01*
X64380000Y-134540800D02*
X64471000Y-134518800D01*
X64291400Y-134571200D02*
X64380000Y-134540800D01*
X64206100Y-134609900D02*
X64291400Y-134571200D01*
X64124800Y-134656500D02*
X64206100Y-134609900D01*
X64048300Y-134710600D02*
X64124800Y-134656500D01*
X63977300Y-134771600D02*
X64048300Y-134710600D01*
X63912300Y-134839100D02*
X63977300Y-134771600D01*
X63854100Y-134912500D02*
X63912300Y-134839100D01*
X63803000Y-134991000D02*
X63854100Y-134912500D01*
X63759500Y-135073900D02*
X63803000Y-134991000D01*
X63707500Y-135203500D02*
X63759500Y-135073900D01*
X63683700Y-135250200D02*
X63707500Y-135203500D01*
X63647000Y-135304800D02*
X63683700Y-135250200D01*
X63622200Y-135335000D02*
X63647000Y-135304800D01*
X63594500Y-135363100D02*
X63622200Y-135335000D01*
X63575000Y-135380700D02*
X63594500Y-135363100D01*
X63533500Y-135412600D02*
X63575000Y-135380700D01*
X63500100Y-135433800D02*
X63533500Y-135412600D01*
X63441700Y-135462400D02*
X63500100Y-135433800D01*
X63404400Y-135476400D02*
X63441700Y-135462400D01*
X63353800Y-135489900D02*
X63404400Y-135476400D01*
X63302600Y-135498000D02*
X63353800Y-135489900D01*
X63256500Y-135500800D02*
X63302600Y-135498000D01*
X54256200Y-135501100D02*
X63256500Y-135500800D01*
X53820200Y-135479000D02*
X54256200Y-135501100D01*
X53394100Y-135413700D02*
X53820200Y-135479000D01*
X52977700Y-135305900D02*
X53394100Y-135413700D01*
X52585500Y-135161000D02*
X52977700Y-135305900D01*
X52562200Y-135151000D02*
X52585500Y-135161000D01*
X52198400Y-134972600D02*
X52562200Y-135151000D01*
X52176200Y-134960200D02*
X52198400Y-134972600D01*
X51821500Y-134738800D02*
X52176200Y-134960200D01*
X51481400Y-134475500D02*
X51821500Y-134738800D01*
X51169300Y-134178900D02*
X51481400Y-134475500D01*
X50896700Y-133861900D02*
X51169300Y-134178900D01*
X50881100Y-133841800D02*
X50896700Y-133861900D01*
X50649700Y-133509200D02*
X50881100Y-133841800D01*
X50636200Y-133487600D02*
X50649700Y-133509200D01*
X50433600Y-133121800D02*
X50636200Y-133487600D01*
X50264000Y-132726600D02*
X50433600Y-133121800D01*
X50135100Y-132315800D02*
X50264000Y-132726600D01*
X50050600Y-131906300D02*
X50135100Y-132315800D01*
X50046700Y-131881200D02*
X50050600Y-131906300D01*
X50005700Y-131478100D02*
X50046700Y-131881200D01*
X50004500Y-131452700D02*
X50005700Y-131478100D01*
X50004800Y-131034600D02*
X50004500Y-131452700D01*
X50048300Y-130606700D02*
X50004800Y-131034600D01*
X50135000Y-130184900D02*
X50048300Y-130606700D01*
X50259800Y-129785900D02*
X50135000Y-130184900D01*
X50268600Y-129762000D02*
X50259800Y-129785900D01*
X50428400Y-129389700D02*
X50268600Y-129762000D01*
X50439600Y-129366900D02*
X50428400Y-129389700D01*
X50642800Y-129001400D02*
X50439600Y-129366900D01*
X50888800Y-128648000D02*
X50642800Y-129001400D01*
X51169000Y-128321700D02*
X50888800Y-128648000D01*
X51481100Y-128025000D02*
X51169000Y-128321700D01*
X51821500Y-127761500D02*
X51481100Y-128025000D01*
X52176200Y-127540000D02*
X51821500Y-127761500D01*
X52198400Y-127527700D02*
X52176200Y-127540000D01*
X52562200Y-127349200D02*
X52198400Y-127527700D01*
X52585500Y-127339200D02*
X52562200Y-127349200D01*
X52977800Y-127194300D02*
X52585500Y-127339200D01*
X53394100Y-127086500D02*
X52977800Y-127194300D01*
X53820200Y-127021200D02*
X53394100Y-127086500D01*
X54256300Y-126999100D02*
X53820200Y-127021200D01*
X73258800Y-126999100D02*
X54256300Y-126999100D01*
X73356000Y-126994300D02*
X73258800Y-126999100D01*
X73452100Y-126980100D02*
X73356000Y-126994300D01*
X73546400Y-126956500D02*
X73452100Y-126980100D01*
X73637900Y-126923700D02*
X73546400Y-126956500D01*
X73725700Y-126882200D02*
X73637900Y-126923700D01*
X73809000Y-126832300D02*
X73725700Y-126882200D01*
X73887000Y-126774400D02*
X73809000Y-126832300D01*
X73959000Y-126709100D02*
X73887000Y-126774400D01*
X74024300Y-126637200D02*
X73959000Y-126709100D01*
X74082100Y-126559100D02*
X74024300Y-126637200D01*
X74132100Y-126475800D02*
X74082100Y-126559100D01*
X74173600Y-126388000D02*
X74132100Y-126475800D01*
X74206400Y-126296500D02*
X74173600Y-126388000D01*
X74230000Y-126202200D02*
X74206400Y-126296500D01*
X74244200Y-126106100D02*
X74230000Y-126202200D01*
X74249000Y-126008900D02*
X74244200Y-126106100D01*
X74249000Y-125114100D02*
X74249000Y-126008900D01*
X74244400Y-125019000D02*
X74249000Y-125114100D01*
X74230800Y-124925000D02*
X74244400Y-125019000D01*
X74208300Y-124832800D02*
X74230800Y-124925000D01*
X74177000Y-124743100D02*
X74208300Y-124832800D01*
X74137200Y-124656900D02*
X74177000Y-124743100D01*
X74089400Y-124574800D02*
X74137200Y-124656900D01*
X74033900Y-124497700D02*
X74089400Y-124574800D01*
X73971300Y-124426300D02*
X74033900Y-124497700D01*
X73878100Y-124335300D02*
X73971300Y-124426300D01*
X73837700Y-124283800D02*
X73878100Y-124335300D01*
X73816500Y-124250600D02*
X73837700Y-124283800D01*
X73798200Y-124215400D02*
X73816500Y-124250600D01*
X73740500Y-124073900D02*
X73798200Y-124215400D01*
X73697000Y-123990900D02*
X73740500Y-124073900D01*
X73645900Y-123912400D02*
X73697000Y-123990900D01*
X73587700Y-123839100D02*
X73645900Y-123912400D01*
X73522700Y-123771600D02*
X73587700Y-123839100D01*
X73451700Y-123710600D02*
X73522700Y-123771600D01*
X73375200Y-123656500D02*
X73451700Y-123710600D01*
X73293900Y-123609900D02*
X73375200Y-123656500D01*
X73208600Y-123571200D02*
X73293900Y-123609900D01*
X73120000Y-123540800D02*
X73208600Y-123571200D01*
X73029000Y-123518800D02*
X73120000Y-123540800D01*
X72936200Y-123505500D02*
X73029000Y-123518800D01*
X72842400Y-123501100D02*
X72936200Y-123505500D01*
X64657500Y-123501100D02*
X72842400Y-123501100D01*
X64563700Y-123505600D02*
X64657500Y-123501100D01*
X64471000Y-123518800D02*
X64563700Y-123505600D01*
X64380000Y-123540800D02*
X64471000Y-123518800D01*
X64291400Y-123571200D02*
X64380000Y-123540800D01*
X64206100Y-123609900D02*
X64291400Y-123571200D01*
X64124800Y-123656500D02*
X64206100Y-123609900D01*
X64048300Y-123710600D02*
X64124800Y-123656500D01*
X63977300Y-123771600D02*
X64048300Y-123710600D01*
X63912300Y-123839100D02*
X63977300Y-123771600D01*
X63854100Y-123912400D02*
X63912300Y-123839100D01*
X63803000Y-123990900D02*
X63854100Y-123912400D01*
X63759500Y-124073900D02*
X63803000Y-123990900D01*
X63707500Y-124203500D02*
X63759500Y-124073900D01*
X63683700Y-124250200D02*
X63707500Y-124203500D01*
X63647000Y-124304800D02*
X63683700Y-124250200D01*
X63622200Y-124334900D02*
X63647000Y-124304800D01*
X63594500Y-124363100D02*
X63622200Y-124334900D01*
X63575000Y-124380700D02*
X63594500Y-124363100D01*
X63533500Y-124412600D02*
X63575000Y-124380700D01*
X63500100Y-124433800D02*
X63533500Y-124412600D01*
X63441700Y-124462400D02*
X63500100Y-124433800D01*
X63404400Y-124476300D02*
X63441700Y-124462400D01*
X63353800Y-124489900D02*
X63404400Y-124476300D01*
X63302600Y-124498000D02*
X63353800Y-124489900D01*
X63256600Y-124500800D02*
X63302600Y-124498000D01*
X54256200Y-124501100D02*
X63256600Y-124500800D01*
X53819700Y-124478900D02*
X54256200Y-124501100D01*
X53406900Y-124416000D02*
X53819700Y-124478900D01*
X53382200Y-124411000D02*
X53406900Y-124416000D01*
X52977700Y-124305900D02*
X53382200Y-124411000D01*
X52585500Y-124161000D02*
X52977700Y-124305900D01*
X52562200Y-124151000D02*
X52585500Y-124161000D01*
X52198400Y-123972600D02*
X52562200Y-124151000D01*
X52176200Y-123960200D02*
X52198400Y-123972600D01*
X51821500Y-123738700D02*
X52176200Y-123960200D01*
X51481400Y-123475500D02*
X51821500Y-123738700D01*
X51169300Y-123178800D02*
X51481400Y-123475500D01*
X50896700Y-122861800D02*
X51169300Y-123178800D01*
X50881100Y-122841700D02*
X50896700Y-122861800D01*
X50649700Y-122509200D02*
X50881100Y-122841700D01*
X50636200Y-122487600D02*
X50649700Y-122509200D01*
X50433600Y-122121800D02*
X50636200Y-122487600D01*
X50264000Y-121726600D02*
X50433600Y-122121800D01*
X50135100Y-121315800D02*
X50264000Y-121726600D01*
X50050600Y-120906300D02*
X50135100Y-121315800D01*
X50046700Y-120881200D02*
X50050600Y-120906300D01*
X50005700Y-120478100D02*
X50046700Y-120881200D01*
X50004500Y-120452700D02*
X50005700Y-120478100D01*
X50004800Y-120034500D02*
X50004500Y-120452700D01*
X50048300Y-119606700D02*
X50004800Y-120034500D01*
X50135000Y-119184900D02*
X50048300Y-119606700D01*
X50259800Y-118785900D02*
X50135000Y-119184900D01*
X50268600Y-118762000D02*
X50259800Y-118785900D01*
X50428400Y-118389700D02*
X50268600Y-118762000D01*
X50439600Y-118366900D02*
X50428400Y-118389700D01*
X50642800Y-118001400D02*
X50439600Y-118366900D01*
X50888800Y-117648000D02*
X50642800Y-118001400D01*
X51169000Y-117321700D02*
X50888800Y-117648000D01*
X51481100Y-117025000D02*
X51169000Y-117321700D01*
X51821500Y-116761400D02*
X51481100Y-117025000D01*
X52176200Y-116540000D02*
X51821500Y-116761400D01*
X52198400Y-116527700D02*
X52176200Y-116540000D01*
X52562200Y-116349200D02*
X52198400Y-116527700D01*
X52585500Y-116339200D02*
X52562200Y-116349200D01*
X52977800Y-116194300D02*
X52585500Y-116339200D01*
X53394100Y-116086500D02*
X52977800Y-116194300D01*
X53820200Y-116021200D02*
X53394100Y-116086500D01*
X54256300Y-115999100D02*
X53820200Y-116021200D01*
X73258800Y-115999100D02*
X54256300Y-115999100D01*
X73356000Y-115994300D02*
X73258800Y-115999100D01*
X73452100Y-115980100D02*
X73356000Y-115994300D01*
X73546400Y-115956500D02*
X73452100Y-115980100D01*
X73637900Y-115923700D02*
X73546400Y-115956500D01*
X73725700Y-115882200D02*
X73637900Y-115923700D01*
X73809000Y-115832200D02*
X73725700Y-115882200D01*
X73887000Y-115774400D02*
X73809000Y-115832200D01*
X73959000Y-115709100D02*
X73887000Y-115774400D01*
X74024300Y-115637100D02*
X73959000Y-115709100D01*
X74082100Y-115559100D02*
X74024300Y-115637100D01*
X74132100Y-115475800D02*
X74082100Y-115559100D01*
X74173600Y-115388000D02*
X74132100Y-115475800D01*
X74206400Y-115296500D02*
X74173600Y-115388000D01*
X74230000Y-115202200D02*
X74206400Y-115296500D01*
X74244200Y-115106100D02*
X74230000Y-115202200D01*
X74249000Y-115008900D02*
X74244200Y-115106100D01*
X74249000Y-114114100D02*
X74249000Y-115008900D01*
X74244400Y-114019000D02*
X74249000Y-114114100D01*
X74230800Y-113925000D02*
X74244400Y-114019000D01*
X74208300Y-113832700D02*
X74230800Y-113925000D01*
X74177000Y-113743100D02*
X74208300Y-113832700D01*
X74137200Y-113656800D02*
X74177000Y-113743100D01*
X74089400Y-113574800D02*
X74137200Y-113656800D01*
X74033900Y-113497700D02*
X74089400Y-113574800D01*
X73971300Y-113426300D02*
X74033900Y-113497700D01*
X73878100Y-113335300D02*
X73971300Y-113426300D01*
X73837700Y-113283800D02*
X73878100Y-113335300D01*
X73816500Y-113250600D02*
X73837700Y-113283800D01*
X73798200Y-113215400D02*
X73816500Y-113250600D01*
X73740500Y-113073900D02*
X73798200Y-113215400D01*
X73697000Y-112990900D02*
X73740500Y-113073900D01*
X73645900Y-112912400D02*
X73697000Y-112990900D01*
X73587700Y-112839100D02*
X73645900Y-112912400D01*
X73522700Y-112771600D02*
X73587700Y-112839100D01*
X73451700Y-112710600D02*
X73522700Y-112771600D01*
X73375200Y-112656500D02*
X73451700Y-112710600D01*
X73293900Y-112609900D02*
X73375200Y-112656500D01*
X73208600Y-112571200D02*
X73293900Y-112609900D01*
X73120000Y-112540800D02*
X73208600Y-112571200D01*
X73029000Y-112518800D02*
X73120000Y-112540800D01*
X72936300Y-112505500D02*
X73029000Y-112518800D01*
X72842500Y-112501100D02*
X72936300Y-112505500D01*
X64657500Y-112501100D02*
X72842500Y-112501100D01*
X64563700Y-112505500D02*
X64657500Y-112501100D01*
X64471000Y-112518800D02*
X64563700Y-112505500D01*
X64380000Y-112540700D02*
X64471000Y-112518800D01*
X64291400Y-112571200D02*
X64380000Y-112540700D01*
X64206100Y-112609900D02*
X64291400Y-112571200D01*
X64124800Y-112656500D02*
X64206100Y-112609900D01*
X64048300Y-112710600D02*
X64124800Y-112656500D01*
X63977300Y-112771600D02*
X64048300Y-112710600D01*
X63912300Y-112839100D02*
X63977300Y-112771600D01*
X63854100Y-112912400D02*
X63912300Y-112839100D01*
X63803000Y-112990900D02*
X63854100Y-112912400D01*
X63759500Y-113073900D02*
X63803000Y-112990900D01*
X63707500Y-113203500D02*
X63759500Y-113073900D01*
X63683700Y-113250200D02*
X63707500Y-113203500D01*
X63647000Y-113304800D02*
X63683700Y-113250200D01*
X63622200Y-113334900D02*
X63647000Y-113304800D01*
X63594500Y-113363100D02*
X63622200Y-113334900D01*
X63575000Y-113380700D02*
X63594500Y-113363100D01*
X63533500Y-113412600D02*
X63575000Y-113380700D01*
X63500100Y-113433800D02*
X63533500Y-113412600D01*
X63441700Y-113462400D02*
X63500100Y-113433800D01*
X63404400Y-113476300D02*
X63441700Y-113462400D01*
X63353800Y-113489900D02*
X63404400Y-113476300D01*
X63302600Y-113498000D02*
X63353800Y-113489900D01*
X63256600Y-113500800D02*
X63302600Y-113498000D01*
X54256200Y-113501100D02*
X63256600Y-113500800D01*
X53819700Y-113478900D02*
X54256200Y-113501100D01*
X53406900Y-113416000D02*
X53819700Y-113478900D01*
X53382000Y-113410900D02*
X53406900Y-113416000D01*
X52977700Y-113305900D02*
X53382000Y-113410900D01*
X52585500Y-113161000D02*
X52977700Y-113305900D01*
X52562200Y-113151000D02*
X52585500Y-113161000D01*
X52198400Y-112972600D02*
X52562200Y-113151000D01*
X52176200Y-112960200D02*
X52198400Y-112972600D01*
X51821500Y-112738700D02*
X52176200Y-112960200D01*
X51481400Y-112475500D02*
X51821500Y-112738700D01*
X51169300Y-112178800D02*
X51481400Y-112475500D01*
X50896700Y-111861800D02*
X51169300Y-112178800D01*
X50881100Y-111841700D02*
X50896700Y-111861800D01*
X50649700Y-111509200D02*
X50881100Y-111841700D01*
X50636200Y-111487600D02*
X50649700Y-111509200D01*
X50433600Y-111121800D02*
X50636200Y-111487600D01*
X50264000Y-110726600D02*
X50433600Y-111121800D01*
X50135100Y-110315800D02*
X50264000Y-110726600D01*
X50050600Y-109906300D02*
X50135100Y-110315800D01*
X50046700Y-109881200D02*
X50050600Y-109906300D01*
X50005700Y-109478100D02*
X50046700Y-109881200D01*
X50004500Y-109452700D02*
X50005700Y-109478100D01*
X50004800Y-109034500D02*
X50004500Y-109452700D01*
X50048300Y-108606600D02*
X50004800Y-109034500D01*
X50135000Y-108184900D02*
X50048300Y-108606600D01*
X50259800Y-107785900D02*
X50135000Y-108184900D01*
X50268600Y-107762000D02*
X50259800Y-107785900D01*
X50428400Y-107389700D02*
X50268600Y-107762000D01*
X50439600Y-107366900D02*
X50428400Y-107389700D01*
X50642800Y-107001400D02*
X50439600Y-107366900D01*
X50888800Y-106648000D02*
X50642800Y-107001400D01*
X51169000Y-106321700D02*
X50888800Y-106648000D01*
X51481100Y-106025000D02*
X51169000Y-106321700D01*
X51821500Y-105761400D02*
X51481100Y-106025000D01*
X52176200Y-105540000D02*
X51821500Y-105761400D01*
X52198400Y-105527600D02*
X52176200Y-105540000D01*
X52562200Y-105349200D02*
X52198400Y-105527600D01*
X52585500Y-105339200D02*
X52562200Y-105349200D01*
X52977800Y-105194300D02*
X52585500Y-105339200D01*
X53394600Y-105086400D02*
X52977800Y-105194300D01*
X53820200Y-105021200D02*
X53394600Y-105086400D01*
X54256300Y-104999100D02*
X53820200Y-105021200D01*
X73258800Y-104999100D02*
X54256300Y-104999100D01*
X73356000Y-104994300D02*
X73258800Y-104999100D01*
X73452100Y-104980100D02*
X73356000Y-104994300D01*
X73546400Y-104956500D02*
X73452100Y-104980100D01*
X73637900Y-104923700D02*
X73546400Y-104956500D01*
X73725700Y-104882200D02*
X73637900Y-104923700D01*
X73809000Y-104832200D02*
X73725700Y-104882200D01*
X73887000Y-104774400D02*
X73809000Y-104832200D01*
X73959000Y-104709100D02*
X73887000Y-104774400D01*
X74024300Y-104637100D02*
X73959000Y-104709100D01*
X74082100Y-104559100D02*
X74024300Y-104637100D01*
X74132100Y-104475800D02*
X74082100Y-104559100D01*
X74173600Y-104387900D02*
X74132100Y-104475800D01*
X74206400Y-104296500D02*
X74173600Y-104387900D01*
X74230000Y-104202200D02*
X74206400Y-104296500D01*
X74244200Y-104106100D02*
X74230000Y-104202200D01*
X74249000Y-104008900D02*
X74244200Y-104106100D01*
X74249000Y-103114000D02*
X74249000Y-104008900D01*
X74244400Y-103019000D02*
X74249000Y-103114000D01*
X74230800Y-102925000D02*
X74244400Y-103019000D01*
X74208300Y-102832700D02*
X74230800Y-102925000D01*
X74177000Y-102743100D02*
X74208300Y-102832700D01*
X74137200Y-102656800D02*
X74177000Y-102743100D01*
X74089400Y-102574800D02*
X74137200Y-102656800D01*
X74033900Y-102497700D02*
X74089400Y-102574800D01*
X73971300Y-102426300D02*
X74033900Y-102497700D01*
X73878100Y-102335300D02*
X73971300Y-102426300D01*
X73837700Y-102283700D02*
X73878100Y-102335300D01*
X73816500Y-102250600D02*
X73837700Y-102283700D01*
X73798200Y-102215300D02*
X73816500Y-102250600D01*
X73740500Y-102073900D02*
X73798200Y-102215300D01*
X73697000Y-101990900D02*
X73740500Y-102073900D01*
X73646000Y-101912400D02*
X73697000Y-101990900D01*
X73587700Y-101839100D02*
X73646000Y-101912400D01*
X73522700Y-101771600D02*
X73587700Y-101839100D01*
X73451700Y-101710600D02*
X73522700Y-101771600D01*
X73375200Y-101656500D02*
X73451700Y-101710600D01*
X73293900Y-101609900D02*
X73375200Y-101656500D01*
X73208600Y-101571200D02*
X73293900Y-101609900D01*
X73120000Y-101540800D02*
X73208600Y-101571200D01*
X73029000Y-101518800D02*
X73120000Y-101540800D01*
X72936300Y-101505500D02*
X73029000Y-101518800D01*
X72842500Y-101501100D02*
X72936300Y-101505500D01*
X64657600Y-101501100D02*
X72842500Y-101501100D01*
X64563800Y-101505500D02*
X64657600Y-101501100D01*
X64471000Y-101518800D02*
X64563800Y-101505500D01*
X64380000Y-101540700D02*
X64471000Y-101518800D01*
X64291400Y-101571200D02*
X64380000Y-101540700D01*
X64206100Y-101609900D02*
X64291400Y-101571200D01*
X64124800Y-101656500D02*
X64206100Y-101609900D01*
X64048300Y-101710500D02*
X64124800Y-101656500D01*
X63977300Y-101771600D02*
X64048300Y-101710500D01*
X63912300Y-101839100D02*
X63977300Y-101771600D01*
X63854100Y-101912400D02*
X63912300Y-101839100D01*
X63803000Y-101990900D02*
X63854100Y-101912400D01*
X63759500Y-102073900D02*
X63803000Y-101990900D01*
X63707500Y-102203500D02*
X63759500Y-102073900D01*
X63683700Y-102250200D02*
X63707500Y-102203500D01*
X63647000Y-102304800D02*
X63683700Y-102250200D01*
X63622200Y-102334900D02*
X63647000Y-102304800D01*
X63594500Y-102363100D02*
X63622200Y-102334900D01*
X63575000Y-102380700D02*
X63594500Y-102363100D01*
X63533500Y-102412500D02*
X63575000Y-102380700D01*
X63500100Y-102433800D02*
X63533500Y-102412500D01*
X63441700Y-102462400D02*
X63500100Y-102433800D01*
X63404400Y-102476300D02*
X63441700Y-102462400D01*
X63353800Y-102489800D02*
X63404400Y-102476300D01*
X63302600Y-102498000D02*
X63353800Y-102489800D01*
X63256700Y-102500700D02*
X63302600Y-102498000D01*
X54256200Y-102501100D02*
X63256700Y-102500700D01*
X53819700Y-102478900D02*
X54256200Y-102501100D01*
X53406900Y-102416000D02*
X53819700Y-102478900D01*
X53382000Y-102410900D02*
X53406900Y-102416000D01*
X52977700Y-102305900D02*
X53382000Y-102410900D01*
X52585500Y-102161000D02*
X52977700Y-102305900D01*
X52562200Y-102151000D02*
X52585500Y-102161000D01*
X52198400Y-101972500D02*
X52562200Y-102151000D01*
X52176200Y-101960200D02*
X52198400Y-101972500D01*
X51821500Y-101738700D02*
X52176200Y-101960200D01*
X51481400Y-101475500D02*
X51821500Y-101738700D01*
X51169300Y-101178800D02*
X51481400Y-101475500D01*
X50896700Y-100861800D02*
X51169300Y-101178800D01*
X50881100Y-100841700D02*
X50896700Y-100861800D01*
X50649700Y-100509200D02*
X50881100Y-100841700D01*
X50636200Y-100487600D02*
X50649700Y-100509200D01*
X50433600Y-100121800D02*
X50636200Y-100487600D01*
X50264000Y-99726600D02*
X50433600Y-100121800D01*
X50135100Y-99315700D02*
X50264000Y-99726600D01*
X50050600Y-98906300D02*
X50135100Y-99315700D01*
X50046700Y-98881100D02*
X50050600Y-98906300D01*
X50004800Y-98465100D02*
X50046700Y-98881100D01*
X50004800Y-98035000D02*
X50004800Y-98465100D01*
X50046700Y-97619000D02*
X50004800Y-98035000D01*
X50050600Y-97593900D02*
X50046700Y-97619000D01*
X50132100Y-97197000D02*
X50050600Y-97593900D01*
X50138500Y-97172400D02*
X50132100Y-97197000D01*
X50264000Y-96773500D02*
X50138500Y-97172400D01*
X50433600Y-96378300D02*
X50264000Y-96773500D01*
X50642600Y-96001800D02*
X50433600Y-96378300D01*
X50881100Y-95658500D02*
X50642600Y-96001800D01*
X50896700Y-95638400D02*
X50881100Y-95658500D01*
X51160600Y-95330900D02*
X50896700Y-95638400D01*
X51178100Y-95312500D02*
X51160600Y-95330900D01*
X51481400Y-95024700D02*
X51178100Y-95312500D01*
X51821500Y-94761400D02*
X51481400Y-95024700D01*
X52176200Y-94540000D02*
X51821500Y-94761400D01*
X52198400Y-94527600D02*
X52176200Y-94540000D01*
X52574000Y-94343800D02*
X52198400Y-94527600D01*
X52977300Y-94194400D02*
X52574000Y-94343800D01*
X53394100Y-94086500D02*
X52977300Y-94194400D01*
X53807300Y-94022800D02*
X53394100Y-94086500D01*
X53832600Y-94020200D02*
X53807300Y-94022800D01*
X54256200Y-93999100D02*
X53832600Y-94020200D01*
X73258800Y-93999100D02*
X54256200Y-93999100D01*
X73356000Y-93994300D02*
X73258800Y-93999100D01*
X73452100Y-93980100D02*
X73356000Y-93994300D01*
X73546400Y-93956500D02*
X73452100Y-93980100D01*
X73637900Y-93923700D02*
X73546400Y-93956500D01*
X73725700Y-93882200D02*
X73637900Y-93923700D01*
X73809000Y-93832200D02*
X73725700Y-93882200D01*
X73887000Y-93774400D02*
X73809000Y-93832200D01*
X73959000Y-93709100D02*
X73887000Y-93774400D01*
X74024300Y-93637100D02*
X73959000Y-93709100D01*
X74082100Y-93559100D02*
X74024300Y-93637100D01*
X74132100Y-93475800D02*
X74082100Y-93559100D01*
X74173600Y-93387900D02*
X74132100Y-93475800D01*
X74206400Y-93296500D02*
X74173600Y-93387900D01*
X74230000Y-93202200D02*
X74206400Y-93296500D01*
X74244200Y-93106100D02*
X74230000Y-93202200D01*
X74249000Y-93008800D02*
X74244200Y-93106100D01*
X74249000Y-92114000D02*
X74249000Y-93008800D01*
X74244400Y-92018900D02*
X74249000Y-92114000D01*
X74230800Y-91925000D02*
X74244400Y-92018900D01*
X74208300Y-91832700D02*
X74230800Y-91925000D01*
X74177000Y-91743100D02*
X74208300Y-91832700D01*
X74137200Y-91656800D02*
X74177000Y-91743100D01*
X74089400Y-91574800D02*
X74137200Y-91656800D01*
X74033900Y-91497700D02*
X74089400Y-91574800D01*
X73971300Y-91426300D02*
X74033900Y-91497700D01*
X73878100Y-91335200D02*
X73971300Y-91426300D01*
X73837500Y-91283500D02*
X73878100Y-91335200D01*
X73816300Y-91250100D02*
X73837500Y-91283500D01*
X73792700Y-91203900D02*
X73816300Y-91250100D01*
X73740500Y-91073900D02*
X73792700Y-91203900D01*
X73697100Y-90990900D02*
X73740500Y-91073900D01*
X73646000Y-90912400D02*
X73697100Y-90990900D01*
X73587700Y-90839100D02*
X73646000Y-90912400D01*
X73522700Y-90771600D02*
X73587700Y-90839100D01*
X73451700Y-90710600D02*
X73522700Y-90771600D01*
X73375200Y-90656500D02*
X73451700Y-90710600D01*
X73293900Y-90609900D02*
X73375200Y-90656500D01*
X73208600Y-90571200D02*
X73293900Y-90609900D01*
X73120100Y-90540800D02*
X73208600Y-90571200D01*
X73029000Y-90518800D02*
X73120100Y-90540800D01*
X72936300Y-90505500D02*
X73029000Y-90518800D01*
X72842500Y-90501100D02*
X72936300Y-90505500D01*
X64657600Y-90501100D02*
X72842500Y-90501100D01*
X64563800Y-90505500D02*
X64657600Y-90501100D01*
X64471000Y-90518800D02*
X64563800Y-90505500D01*
X64380000Y-90540700D02*
X64471000Y-90518800D01*
X64291400Y-90571200D02*
X64380000Y-90540700D01*
X64206100Y-90609900D02*
X64291400Y-90571200D01*
X64124800Y-90656500D02*
X64206100Y-90609900D01*
X64048300Y-90710500D02*
X64124800Y-90656500D01*
X63977300Y-90771600D02*
X64048300Y-90710500D01*
X63912300Y-90839100D02*
X63977300Y-90771600D01*
X63854100Y-90912400D02*
X63912300Y-90839100D01*
X63803000Y-90990900D02*
X63854100Y-90912400D01*
X63759500Y-91073900D02*
X63803000Y-90990900D01*
X63707500Y-91203500D02*
X63759500Y-91073900D01*
X63683700Y-91250200D02*
X63707500Y-91203500D01*
X63654900Y-91294600D02*
X63683700Y-91250200D01*
X63621900Y-91335300D02*
X63654900Y-91294600D01*
X63584800Y-91372300D02*
X63621900Y-91335300D01*
X63544500Y-91405000D02*
X63584800Y-91372300D01*
X63500500Y-91433500D02*
X63544500Y-91405000D01*
X63465500Y-91451800D02*
X63500500Y-91433500D01*
X63441500Y-91462500D02*
X63465500Y-91451800D01*
X63392400Y-91479900D02*
X63441500Y-91462500D01*
X63353800Y-91489800D02*
X63392400Y-91479900D01*
X63302100Y-91498000D02*
X63353800Y-91489800D01*
X63243300Y-91501100D02*
X63302100Y-91498000D01*
X54256200Y-91501100D02*
X63243300Y-91501100D01*
X53820200Y-91478900D02*
X54256200Y-91501100D01*
X53406900Y-91416000D02*
X53820200Y-91478900D01*
X53382000Y-91410800D02*
X53406900Y-91416000D01*
X52989700Y-91309300D02*
X53382000Y-91410800D01*
X52965500Y-91301700D02*
X52989700Y-91309300D01*
X52573500Y-91156100D02*
X52965500Y-91301700D01*
X52198400Y-90972500D02*
X52573500Y-91156100D01*
X52176200Y-90960200D02*
X52198400Y-90972500D01*
X51821500Y-90738700D02*
X52176200Y-90960200D01*
X51481000Y-90475100D02*
X51821500Y-90738700D01*
X51169300Y-90178800D02*
X51481000Y-90475100D01*
X50888800Y-89852100D02*
X51169300Y-90178800D01*
X50642800Y-89498700D02*
X50888800Y-89852100D01*
X50439600Y-89133300D02*
X50642800Y-89498700D01*
X50428400Y-89110500D02*
X50439600Y-89133300D01*
X50268600Y-88738200D02*
X50428400Y-89110500D01*
X50259800Y-88714300D02*
X50268600Y-88738200D01*
X50134900Y-88315200D02*
X50259800Y-88714300D01*
X50048400Y-87894000D02*
X50134900Y-88315200D01*
X50004800Y-87465600D02*
X50048400Y-87894000D01*
X50004500Y-87047500D02*
X50004800Y-87465600D01*
X50005700Y-87022100D02*
X50004500Y-87047500D01*
X50046700Y-86619000D02*
X50005700Y-87022100D01*
X50050600Y-86593900D02*
X50046700Y-86619000D01*
X50135100Y-86184300D02*
X50050600Y-86593900D01*
X50263800Y-85774000D02*
X50135100Y-86184300D01*
X50428400Y-85389700D02*
X50263800Y-85774000D01*
X50439600Y-85366800D02*
X50428400Y-85389700D01*
X50642800Y-85001400D02*
X50439600Y-85366800D01*
X50888500Y-84648400D02*
X50642800Y-85001400D01*
X51169000Y-84321600D02*
X50888500Y-84648400D01*
X51471800Y-84033400D02*
X51169000Y-84321600D01*
X51491100Y-84016800D02*
X51471800Y-84033400D01*
X51822000Y-83761100D02*
X51491100Y-84016800D01*
X52186900Y-83533600D02*
X51822000Y-83761100D01*
X52562200Y-83349200D02*
X52186900Y-83533600D01*
X52585500Y-83339100D02*
X52562200Y-83349200D01*
X52965500Y-83198400D02*
X52585500Y-83339100D01*
X52989700Y-83190800D02*
X52965500Y-83198400D01*
X53394100Y-83086400D02*
X52989700Y-83190800D01*
X53807300Y-83022800D02*
X53394100Y-83086400D01*
X53832700Y-83020200D02*
X53807300Y-83022800D01*
X54256200Y-82999100D02*
X53832700Y-83020200D01*
X73258800Y-82999100D02*
X54256200Y-82999100D01*
X73356000Y-82994300D02*
X73258800Y-82999100D01*
X73452100Y-82980100D02*
X73356000Y-82994300D01*
X73546400Y-82956400D02*
X73452100Y-82980100D01*
X73637900Y-82923700D02*
X73546400Y-82956400D01*
X73725700Y-82882200D02*
X73637900Y-82923700D01*
X73809000Y-82832200D02*
X73725700Y-82882200D01*
X73887000Y-82774400D02*
X73809000Y-82832200D01*
X73959000Y-82709100D02*
X73887000Y-82774400D01*
X74024300Y-82637100D02*
X73959000Y-82709100D01*
X74082100Y-82559100D02*
X74024300Y-82637100D01*
X74132100Y-82475800D02*
X74082100Y-82559100D01*
X74173600Y-82387900D02*
X74132100Y-82475800D01*
X74206400Y-82296500D02*
X74173600Y-82387900D01*
X74230000Y-82202200D02*
X74206400Y-82296500D01*
X74244200Y-82106100D02*
X74230000Y-82202200D01*
X74249000Y-82008800D02*
X74244200Y-82106100D01*
X74249000Y-81114000D02*
X74249000Y-82008800D01*
X74244400Y-81018900D02*
X74249000Y-81114000D01*
X74230800Y-80924900D02*
X74244400Y-81018900D01*
X74208300Y-80832700D02*
X74230800Y-80924900D01*
X74177000Y-80743000D02*
X74208300Y-80832700D01*
X74137200Y-80656800D02*
X74177000Y-80743000D01*
X74089400Y-80574800D02*
X74137200Y-80656800D01*
X74033900Y-80497700D02*
X74089400Y-80574800D01*
X73971300Y-80426300D02*
X74033900Y-80497700D01*
X73878100Y-80335200D02*
X73971300Y-80426300D01*
X73844800Y-80294100D02*
X73878100Y-80335200D01*
X73816500Y-80250600D02*
X73844800Y-80294100D01*
X73798200Y-80215300D02*
X73816500Y-80250600D01*
X73740500Y-80073800D02*
X73798200Y-80215300D01*
X73697000Y-79990800D02*
X73740500Y-80073800D01*
X73645900Y-79912300D02*
X73697000Y-79990800D01*
X73587600Y-79839000D02*
X73645900Y-79912300D01*
X73522700Y-79771500D02*
X73587600Y-79839000D01*
X73451600Y-79710500D02*
X73522700Y-79771500D01*
X73375200Y-79656400D02*
X73451600Y-79710500D01*
X73293900Y-79609800D02*
X73375200Y-79656400D01*
X73208600Y-79571100D02*
X73293900Y-79609800D01*
X73120000Y-79540700D02*
X73208600Y-79571100D01*
X73029000Y-79518700D02*
X73120000Y-79540700D01*
X72936200Y-79505400D02*
X73029000Y-79518700D01*
X72842400Y-79501000D02*
X72936200Y-79505400D01*
X64657500Y-79501000D02*
X72842400Y-79501000D01*
X64563700Y-79505500D02*
X64657500Y-79501000D01*
X64471000Y-79518700D02*
X64563700Y-79505500D01*
X64380000Y-79540700D02*
X64471000Y-79518700D01*
X64291400Y-79571200D02*
X64380000Y-79540700D01*
X64206100Y-79609900D02*
X64291400Y-79571200D01*
X64124800Y-79656400D02*
X64206100Y-79609900D01*
X64048300Y-79710500D02*
X64124800Y-79656400D01*
X63977300Y-79771600D02*
X64048300Y-79710500D01*
X63912300Y-79839000D02*
X63977300Y-79771600D01*
X63854100Y-79912400D02*
X63912300Y-79839000D01*
X63803000Y-79990900D02*
X63854100Y-79912400D01*
X63759500Y-80073900D02*
X63803000Y-79990900D01*
X63707500Y-80203500D02*
X63759500Y-80073900D01*
X63683700Y-80250200D02*
X63707500Y-80203500D01*
X63647000Y-80304700D02*
X63683700Y-80250200D01*
X63622200Y-80334900D02*
X63647000Y-80304700D01*
X63594500Y-80363000D02*
X63622200Y-80334900D01*
X63575000Y-80380600D02*
X63594500Y-80363000D01*
X63533500Y-80412500D02*
X63575000Y-80380600D01*
X63500100Y-80433800D02*
X63533500Y-80412500D01*
X63441700Y-80462300D02*
X63500100Y-80433800D01*
X63404400Y-80476300D02*
X63441700Y-80462300D01*
X63353800Y-80489800D02*
X63404400Y-80476300D01*
X63302600Y-80497900D02*
X63353800Y-80489800D01*
X63256500Y-80500700D02*
X63302600Y-80497900D01*
X54256200Y-80501000D02*
X63256500Y-80500700D01*
X53820200Y-80478900D02*
X54256200Y-80501000D01*
X53394600Y-80413700D02*
X53820200Y-80478900D01*
X52977700Y-80305800D02*
X53394600Y-80413700D01*
X52585500Y-80161000D02*
X52977700Y-80305800D01*
X52562200Y-80150900D02*
X52585500Y-80161000D01*
X52198400Y-79972500D02*
X52562200Y-80150900D01*
X52176200Y-79960200D02*
X52198400Y-79972500D01*
X51821500Y-79738700D02*
X52176200Y-79960200D01*
X51481000Y-79475100D02*
X51821500Y-79738700D01*
X51169300Y-79178800D02*
X51481000Y-79475100D01*
X50888800Y-78852100D02*
X51169300Y-79178800D01*
X50642800Y-78498700D02*
X50888800Y-78852100D01*
X50439600Y-78133300D02*
X50642800Y-78498700D01*
X50428400Y-78110500D02*
X50439600Y-78133300D01*
X50268600Y-77738100D02*
X50428400Y-78110500D01*
X50259800Y-77714300D02*
X50268600Y-77738100D01*
X50134900Y-77315200D02*
X50259800Y-77714300D01*
X50048400Y-76893900D02*
X50134900Y-77315200D01*
X50004800Y-76465600D02*
X50048400Y-76893900D01*
X50004500Y-76047500D02*
X50004800Y-76465600D01*
X50005700Y-76022100D02*
X50004500Y-76047500D01*
X50046700Y-75619000D02*
X50005700Y-76022100D01*
X50050600Y-75593900D02*
X50046700Y-75619000D01*
X50135100Y-75184300D02*
X50050600Y-75593900D01*
X50263800Y-74774000D02*
X50135100Y-75184300D01*
X50428400Y-74389600D02*
X50263800Y-74774000D01*
X50439600Y-74366800D02*
X50428400Y-74389600D01*
X50642800Y-74001300D02*
X50439600Y-74366800D01*
X50888500Y-73648400D02*
X50642800Y-74001300D01*
X51169000Y-73321600D02*
X50888500Y-73648400D01*
X51471800Y-73033300D02*
X51169000Y-73321600D01*
X51491100Y-73016800D02*
X51471800Y-73033300D01*
X51822000Y-72761100D02*
X51491100Y-73016800D01*
X52186900Y-72533600D02*
X51822000Y-72761100D01*
X52562200Y-72349200D02*
X52186900Y-72533600D01*
X52585500Y-72339100D02*
X52562200Y-72349200D01*
X52965500Y-72198400D02*
X52585500Y-72339100D01*
X52989700Y-72190800D02*
X52965500Y-72198400D01*
X53394100Y-72086400D02*
X52989700Y-72190800D01*
X53807300Y-72022800D02*
X53394100Y-72086400D01*
X53832600Y-72020200D02*
X53807300Y-72022800D01*
X54256200Y-71999000D02*
X53832600Y-72020200D01*
X73258800Y-71999000D02*
X54256200Y-71999000D01*
X73356000Y-71994200D02*
X73258800Y-71999000D01*
X73452100Y-71980000D02*
X73356000Y-71994200D01*
X73546400Y-71956400D02*
X73452100Y-71980000D01*
X73637900Y-71923600D02*
X73546400Y-71956400D01*
X73725700Y-71882100D02*
X73637900Y-71923600D01*
X73809000Y-71832200D02*
X73725700Y-71882100D01*
X73887000Y-71774300D02*
X73809000Y-71832200D01*
X73959000Y-71709000D02*
X73887000Y-71774300D01*
X74024300Y-71637100D02*
X73959000Y-71709000D01*
X74082100Y-71559000D02*
X74024300Y-71637100D01*
X74132100Y-71475700D02*
X74082100Y-71559000D01*
X74173600Y-71387900D02*
X74132100Y-71475700D01*
X74206400Y-71296400D02*
X74173600Y-71387900D01*
X74230000Y-71202100D02*
X74206400Y-71296400D01*
X74244200Y-71106000D02*
X74230000Y-71202100D01*
X74249000Y-71008800D02*
X74244200Y-71106000D01*
X74249000Y-70114000D02*
X74249000Y-71008800D01*
X74244400Y-70018900D02*
X74249000Y-70114000D01*
X74230800Y-69924900D02*
X74244400Y-70018900D01*
X74208300Y-69832700D02*
X74230800Y-69924900D01*
X74177000Y-69743000D02*
X74208300Y-69832700D01*
X74137200Y-69656800D02*
X74177000Y-69743000D01*
X74089400Y-69574700D02*
X74137200Y-69656800D01*
X74033900Y-69497700D02*
X74089400Y-69574700D01*
X73971300Y-69426200D02*
X74033900Y-69497700D01*
X73878100Y-69335200D02*
X73971300Y-69426200D01*
X73837700Y-69283700D02*
X73878100Y-69335200D01*
X73816500Y-69250500D02*
X73837700Y-69283700D01*
X73798200Y-69215300D02*
X73816500Y-69250500D01*
X73740500Y-69073800D02*
X73798200Y-69215300D01*
X73697000Y-68990800D02*
X73740500Y-69073800D01*
X73645900Y-68912300D02*
X73697000Y-68990800D01*
X73587700Y-68839000D02*
X73645900Y-68912300D01*
X73522700Y-68771500D02*
X73587700Y-68839000D01*
X73451700Y-68710500D02*
X73522700Y-68771500D01*
X73375200Y-68656400D02*
X73451700Y-68710500D01*
X73293900Y-68609800D02*
X73375200Y-68656400D01*
X73208600Y-68571100D02*
X73293900Y-68609800D01*
X73120000Y-68540700D02*
X73208600Y-68571100D01*
X73029000Y-68518700D02*
X73120000Y-68540700D01*
X72936200Y-68505400D02*
X73029000Y-68518700D01*
X72842400Y-68501000D02*
X72936200Y-68505400D01*
X64657500Y-68501000D02*
X72842400Y-68501000D01*
X64563700Y-68505500D02*
X64657500Y-68501000D01*
X64471000Y-68518700D02*
X64563700Y-68505500D01*
X64380000Y-68540700D02*
X64471000Y-68518700D01*
X64291400Y-68571100D02*
X64380000Y-68540700D01*
X64206100Y-68609800D02*
X64291400Y-68571100D01*
X64124800Y-68656400D02*
X64206100Y-68609800D01*
X64048300Y-68710500D02*
X64124800Y-68656400D01*
X63977300Y-68771500D02*
X64048300Y-68710500D01*
X63912300Y-68839000D02*
X63977300Y-68771500D01*
X63854100Y-68912300D02*
X63912300Y-68839000D01*
X63803000Y-68990900D02*
X63854100Y-68912300D01*
X63759500Y-69073800D02*
X63803000Y-68990900D01*
X63707500Y-69203400D02*
X63759500Y-69073800D01*
X63683700Y-69250100D02*
X63707500Y-69203400D01*
X63647000Y-69304700D02*
X63683700Y-69250100D01*
X63622200Y-69334800D02*
X63647000Y-69304700D01*
X63594500Y-69363000D02*
X63622200Y-69334800D01*
X63575000Y-69380600D02*
X63594500Y-69363000D01*
X63533500Y-69412500D02*
X63575000Y-69380600D01*
X63500100Y-69433700D02*
X63533500Y-69412500D01*
X63441700Y-69462300D02*
X63500100Y-69433700D01*
X63404400Y-69476300D02*
X63441700Y-69462300D01*
X63353800Y-69489800D02*
X63404400Y-69476300D01*
X63302600Y-69497900D02*
X63353800Y-69489800D01*
X63256600Y-69500700D02*
X63302600Y-69497900D01*
X54256200Y-69501000D02*
X63256600Y-69500700D01*
X53820200Y-69478900D02*
X54256200Y-69501000D01*
X53394600Y-69413700D02*
X53820200Y-69478900D01*
X52977700Y-69305800D02*
X53394600Y-69413700D01*
X52585500Y-69160900D02*
X52977700Y-69305800D01*
X52562200Y-69150900D02*
X52585500Y-69160900D01*
X52198400Y-68972500D02*
X52562200Y-69150900D01*
X52176200Y-68960100D02*
X52198400Y-68972500D01*
X51821500Y-68738700D02*
X52176200Y-68960100D01*
X51481000Y-68475100D02*
X51821500Y-68738700D01*
X51169300Y-68178800D02*
X51481000Y-68475100D01*
X50888800Y-67852100D02*
X51169300Y-68178800D01*
X50642800Y-67498700D02*
X50888800Y-67852100D01*
X50439600Y-67133300D02*
X50642800Y-67498700D01*
X50428400Y-67110400D02*
X50439600Y-67133300D01*
X50268600Y-66738100D02*
X50428400Y-67110400D01*
X50259800Y-66714300D02*
X50268600Y-66738100D01*
X50134900Y-66315200D02*
X50259800Y-66714300D01*
X50048400Y-65893900D02*
X50134900Y-66315200D01*
X50004800Y-65465500D02*
X50048400Y-65893900D01*
X50004500Y-65047500D02*
X50004800Y-65465500D01*
X50005700Y-65022100D02*
X50004500Y-65047500D01*
X50046700Y-64619000D02*
X50005700Y-65022100D01*
X50050600Y-64593800D02*
X50046700Y-64619000D01*
X50135100Y-64184300D02*
X50050600Y-64593800D01*
X50263800Y-63774000D02*
X50135100Y-64184300D01*
X50433600Y-63378300D02*
X50263800Y-63774000D01*
X50636200Y-63012500D02*
X50433600Y-63378300D01*
X50649700Y-62991000D02*
X50636200Y-63012500D01*
X50881100Y-62658400D02*
X50649700Y-62991000D01*
X50896700Y-62638300D02*
X50881100Y-62658400D01*
X51169000Y-62321600D02*
X50896700Y-62638300D01*
X51471800Y-62033300D02*
X51169000Y-62321600D01*
X51491100Y-62016800D02*
X51471800Y-62033300D01*
X51811500Y-61768800D02*
X51491100Y-62016800D01*
X51832300Y-61754200D02*
X51811500Y-61768800D01*
X52187400Y-61533300D02*
X51832300Y-61754200D01*
X52573500Y-61343900D02*
X52187400Y-61533300D01*
X52977300Y-61194400D02*
X52573500Y-61343900D01*
X53381900Y-61089200D02*
X52977300Y-61194400D01*
X53406900Y-61084100D02*
X53381900Y-61089200D01*
X53819700Y-61021200D02*
X53406900Y-61084100D01*
X54256300Y-60999000D02*
X53819700Y-61021200D01*
X73258800Y-60999000D02*
X54256300Y-60999000D01*
X73356000Y-60994200D02*
X73258800Y-60999000D01*
X73452100Y-60980000D02*
X73356000Y-60994200D01*
X73546400Y-60956400D02*
X73452100Y-60980000D01*
X73637900Y-60923600D02*
X73546400Y-60956400D01*
X73725700Y-60882100D02*
X73637900Y-60923600D01*
X73809000Y-60832200D02*
X73725700Y-60882100D01*
X73887000Y-60774300D02*
X73809000Y-60832200D01*
X73959000Y-60709000D02*
X73887000Y-60774300D01*
X74024300Y-60637000D02*
X73959000Y-60709000D01*
X74082100Y-60559000D02*
X74024300Y-60637000D01*
X74132100Y-60475700D02*
X74082100Y-60559000D01*
X74173600Y-60387900D02*
X74132100Y-60475700D01*
X74206400Y-60296400D02*
X74173600Y-60387900D01*
X74230000Y-60202100D02*
X74206400Y-60296400D01*
X74244200Y-60106000D02*
X74230000Y-60202100D01*
X74249000Y-60008800D02*
X74244200Y-60106000D01*
X74249000Y-59114000D02*
X74249000Y-60008800D01*
X74244400Y-59018900D02*
X74249000Y-59114000D01*
X74230800Y-58924900D02*
X74244400Y-59018900D01*
X74208300Y-58832700D02*
X74230800Y-58924900D01*
X74177000Y-58743000D02*
X74208300Y-58832700D01*
X74137200Y-58656800D02*
X74177000Y-58743000D01*
X74089400Y-58574700D02*
X74137200Y-58656800D01*
X74033900Y-58497600D02*
X74089400Y-58574700D01*
X73971300Y-58426200D02*
X74033900Y-58497600D01*
X73878100Y-58335200D02*
X73971300Y-58426200D01*
X73844800Y-58294000D02*
X73878100Y-58335200D01*
X73816500Y-58250500D02*
X73844800Y-58294000D01*
X73798200Y-58215300D02*
X73816500Y-58250500D01*
X73740500Y-58073800D02*
X73798200Y-58215300D01*
X73697000Y-57990800D02*
X73740500Y-58073800D01*
X73645900Y-57912300D02*
X73697000Y-57990800D01*
X73587700Y-57839000D02*
X73645900Y-57912300D01*
X73522700Y-57771500D02*
X73587700Y-57839000D01*
X73451700Y-57710500D02*
X73522700Y-57771500D01*
X73375200Y-57656400D02*
X73451700Y-57710500D01*
X73293900Y-57609800D02*
X73375200Y-57656400D01*
X73208600Y-57571100D02*
X73293900Y-57609800D01*
X73120000Y-57540700D02*
X73208600Y-57571100D01*
X73029000Y-57518700D02*
X73120000Y-57540700D01*
X72936300Y-57505400D02*
X73029000Y-57518700D01*
X72842500Y-57501000D02*
X72936300Y-57505400D01*
X64657500Y-57501000D02*
X72842500Y-57501000D01*
X64563700Y-57505400D02*
X64657500Y-57501000D01*
X64471000Y-57518700D02*
X64563700Y-57505400D01*
X64380000Y-57540700D02*
X64471000Y-57518700D01*
X64291400Y-57571100D02*
X64380000Y-57540700D01*
X64206100Y-57609800D02*
X64291400Y-57571100D01*
X64124800Y-57656400D02*
X64206100Y-57609800D01*
X64048300Y-57710500D02*
X64124800Y-57656400D01*
X63977300Y-57771500D02*
X64048300Y-57710500D01*
X63912300Y-57839000D02*
X63977300Y-57771500D01*
X63854100Y-57912300D02*
X63912300Y-57839000D01*
X63803000Y-57990800D02*
X63854100Y-57912300D01*
X63759500Y-58073800D02*
X63803000Y-57990800D01*
X63707500Y-58203400D02*
X63759500Y-58073800D01*
X63683700Y-58250100D02*
X63707500Y-58203400D01*
X63647000Y-58304700D02*
X63683700Y-58250100D01*
X63622200Y-58334800D02*
X63647000Y-58304700D01*
X63594500Y-58363000D02*
X63622200Y-58334800D01*
X63575000Y-58380600D02*
X63594500Y-58363000D01*
X63533500Y-58412500D02*
X63575000Y-58380600D01*
X63500100Y-58433700D02*
X63533500Y-58412500D01*
X63441700Y-58462300D02*
X63500100Y-58433700D01*
X63404400Y-58476200D02*
X63441700Y-58462300D01*
X63353800Y-58489800D02*
X63404400Y-58476200D01*
X63302600Y-58497900D02*
X63353800Y-58489800D01*
X63256600Y-58500700D02*
X63302600Y-58497900D01*
X54256200Y-58501000D02*
X63256600Y-58500700D01*
X53820200Y-58478900D02*
X54256200Y-58501000D01*
X53394600Y-58413700D02*
X53820200Y-58478900D01*
X52977700Y-58305800D02*
X53394600Y-58413700D01*
X52585500Y-58160900D02*
X52977700Y-58305800D01*
X52562200Y-58150900D02*
X52585500Y-58160900D01*
X52198400Y-57972500D02*
X52562200Y-58150900D01*
X52176200Y-57960100D02*
X52198400Y-57972500D01*
X51821500Y-57738600D02*
X52176200Y-57960100D01*
X51481000Y-57475100D02*
X51821500Y-57738600D01*
X51169300Y-57178700D02*
X51481000Y-57475100D01*
X50888800Y-56852000D02*
X51169300Y-57178700D01*
X50642800Y-56498600D02*
X50888800Y-56852000D01*
X50439600Y-56133300D02*
X50642800Y-56498600D01*
X50428400Y-56110400D02*
X50439600Y-56133300D01*
X50268600Y-55738100D02*
X50428400Y-56110400D01*
X50259800Y-55714300D02*
X50268600Y-55738100D01*
X50134900Y-55315200D02*
X50259800Y-55714300D01*
X50048400Y-54893900D02*
X50134900Y-55315200D01*
X50004800Y-54465500D02*
X50048400Y-54893900D01*
X50004500Y-54047400D02*
X50004800Y-54465500D01*
X50005700Y-54022000D02*
X50004500Y-54047400D01*
X50046700Y-53619000D02*
X50005700Y-54022000D01*
X50050600Y-53593800D02*
X50046700Y-53619000D01*
X50135100Y-53184300D02*
X50050600Y-53593800D01*
X50263800Y-52773900D02*
X50135100Y-53184300D01*
X50433600Y-52378200D02*
X50263800Y-52773900D01*
X50636200Y-52012500D02*
X50433600Y-52378200D01*
X50649700Y-51990900D02*
X50636200Y-52012500D01*
X50881100Y-51658400D02*
X50649700Y-51990900D01*
X50896700Y-51638300D02*
X50881100Y-51658400D01*
X51169300Y-51321200D02*
X50896700Y-51638300D01*
X51481100Y-51024900D02*
X51169300Y-51321200D01*
X51821500Y-50761300D02*
X51481100Y-51024900D01*
X52176200Y-50539900D02*
X51821500Y-50761300D01*
X52198400Y-50527600D02*
X52176200Y-50539900D01*
X52562200Y-50349100D02*
X52198400Y-50527600D01*
X52585500Y-50339100D02*
X52562200Y-50349100D01*
X52977300Y-50194300D02*
X52585500Y-50339100D01*
X53382200Y-50089200D02*
X52977300Y-50194300D01*
X53406900Y-50084100D02*
X53382200Y-50089200D01*
X53819700Y-50021200D02*
X53406900Y-50084100D01*
X54256300Y-49999000D02*
X53819700Y-50021200D01*
X73258800Y-49999000D02*
X54256300Y-49999000D01*
X73356000Y-49994200D02*
X73258800Y-49999000D01*
X73452100Y-49980000D02*
X73356000Y-49994200D01*
X73546400Y-49956400D02*
X73452100Y-49980000D01*
X73637900Y-49923600D02*
X73546400Y-49956400D01*
X73725700Y-49882100D02*
X73637900Y-49923600D01*
X73809000Y-49832100D02*
X73725700Y-49882100D01*
X73887000Y-49774300D02*
X73809000Y-49832100D01*
X73959000Y-49709000D02*
X73887000Y-49774300D01*
X74024300Y-49637000D02*
X73959000Y-49709000D01*
X74082100Y-49559000D02*
X74024300Y-49637000D01*
X74132100Y-49475700D02*
X74082100Y-49559000D01*
X74173600Y-49387900D02*
X74132100Y-49475700D01*
X74206400Y-49296400D02*
X74173600Y-49387900D01*
X74230000Y-49202100D02*
X74206400Y-49296400D01*
X74244200Y-49106000D02*
X74230000Y-49202100D01*
X74249000Y-49008800D02*
X74244200Y-49106000D01*
X74249000Y-48490200D02*
X74249000Y-49008800D01*
X74244200Y-48393000D02*
X74249000Y-48490200D01*
X74230000Y-48296900D02*
X74244200Y-48393000D01*
X74206400Y-48202600D02*
X74230000Y-48296900D01*
X74173600Y-48111100D02*
X74206400Y-48202600D01*
X74132100Y-48023300D02*
X74173600Y-48111100D01*
X74082100Y-47940000D02*
X74132100Y-48023300D01*
X74024300Y-47862000D02*
X74082100Y-47940000D01*
X73959000Y-47790000D02*
X74024300Y-47862000D01*
X73887000Y-47724700D02*
X73959000Y-47790000D01*
X73809000Y-47666900D02*
X73887000Y-47724700D01*
X73725700Y-47616900D02*
X73809000Y-47666900D01*
X73637900Y-47575400D02*
X73725700Y-47616900D01*
X73546400Y-47542600D02*
X73637900Y-47575400D01*
X73452100Y-47519000D02*
X73546400Y-47542600D01*
X73356000Y-47504800D02*
X73452100Y-47519000D01*
X73258800Y-47500000D02*
X73356000Y-47504800D01*
X50013700Y-47499200D02*
X73258800Y-47500000D01*
X50009200Y-47497400D02*
X50013700Y-47499200D01*
X50005700Y-47492700D02*
X50009200Y-47497400D01*
X50004500Y-47475500D02*
X50005700Y-47492700D01*
X50004500Y-43523500D02*
X50004500Y-47475500D01*
X50006100Y-43505400D02*
X50004500Y-43523500D01*
X50009200Y-43501600D02*
X50006100Y-43505400D01*
X50014600Y-43499700D02*
X50009200Y-43501600D01*
D11*
G04 #@! TO.C,REF\002A\002A*
X60004455Y-140001144D03*
G04 #@! TD*
G04 #@! TO.C,REF\002A\002A*
X108495546Y-45499000D03*
G04 #@! TD*
G04 #@! TO.C,REF\002A\002A*
X60004455Y-45499000D03*
G04 #@! TD*
D12*
G04 #@! TO.C,H4*
X84250001Y-128650127D03*
G04 #@! TD*
D13*
G04 #@! TO.C,H3*
X52520001Y-135130127D03*
G04 #@! TD*
D12*
G04 #@! TO.C,H4*
X84250001Y-117650109D03*
G04 #@! TD*
D13*
G04 #@! TO.C,H3*
X52520001Y-124130109D03*
G04 #@! TD*
D12*
G04 #@! TO.C,H4*
X84250001Y-106650091D03*
G04 #@! TD*
D13*
G04 #@! TO.C,H3*
X52520001Y-113130091D03*
G04 #@! TD*
D12*
G04 #@! TO.C,H4*
X84250001Y-95650073D03*
G04 #@! TD*
D13*
G04 #@! TO.C,H3*
X52520001Y-102130073D03*
G04 #@! TD*
D12*
G04 #@! TO.C,H4*
X84250001Y-84650055D03*
G04 #@! TD*
D13*
G04 #@! TO.C,H3*
X52520001Y-91130055D03*
G04 #@! TD*
D12*
G04 #@! TO.C,H4*
X84250001Y-73650037D03*
G04 #@! TD*
D13*
G04 #@! TO.C,H3*
X52520001Y-80130037D03*
G04 #@! TD*
D12*
G04 #@! TO.C,H4*
X84250001Y-62650019D03*
G04 #@! TD*
D13*
G04 #@! TO.C,H3*
X52520001Y-69130019D03*
G04 #@! TD*
D12*
G04 #@! TO.C,H4*
X84250001Y-51650001D03*
G04 #@! TD*
D13*
G04 #@! TO.C,H3*
X52520001Y-58130001D03*
G04 #@! TD*
M02*
