G04 #@! TF.GenerationSoftware,KiCad,Pcbnew,5.1.5+dfsg1-2build2*
G04 #@! TF.CreationDate,2021-10-10T04:01:27+00:00*
G04 #@! TF.ProjectId,bobbin_bottom_4.0,626f6262-696e-45f6-926f-74746f6d5f34,rev?*
G04 #@! TF.SameCoordinates,Original*
G04 #@! TF.FileFunction,Profile,NP*
%FSLAX46Y46*%
G04 Gerber Fmt 4.6, Leading zero omitted, Abs format (unit mm)*
G04 Created by KiCad (PCBNEW 5.1.5+dfsg1-2build2) date 2021-10-10 04:01:27*
%MOMM*%
%LPD*%
G04 APERTURE LIST*
G04 #@! TA.AperFunction,Profile*
%ADD10C,0.100000*%
G04 #@! TD*
G04 APERTURE END LIST*
D10*
X136499900Y-77215900D02*
X136401100Y-77236200D01*
X136596400Y-77185700D02*
X136499900Y-77215900D01*
X136689300Y-77145900D02*
X136596400Y-77185700D01*
X136777600Y-77096800D02*
X136689300Y-77145900D01*
X136860600Y-77039100D02*
X136777600Y-77096800D01*
X136937300Y-76973300D02*
X136860600Y-77039100D01*
X137007100Y-76899800D02*
X136937300Y-76973300D01*
X137069000Y-76819900D02*
X137007100Y-76899800D01*
X137122400Y-76734100D02*
X137069000Y-76819900D01*
X137166900Y-76643400D02*
X137122400Y-76734100D01*
X137202000Y-76548600D02*
X137166900Y-76643400D01*
X137227300Y-76450700D02*
X137202000Y-76548600D01*
X137242600Y-76350800D02*
X137227300Y-76450700D01*
X137247700Y-76249900D02*
X137242600Y-76350800D01*
X137242600Y-76149200D02*
X137247700Y-76249900D01*
X137227300Y-76049300D02*
X137242600Y-76149200D01*
X137202000Y-75951500D02*
X137227300Y-76049300D01*
X137166900Y-75856700D02*
X137202000Y-75951500D01*
X137122400Y-75766000D02*
X137166900Y-75856700D01*
X137069000Y-75680200D02*
X137122400Y-75766000D01*
X137007100Y-75600300D02*
X137069000Y-75680200D01*
X136937300Y-75526800D02*
X137007100Y-75600300D01*
X136860600Y-75461000D02*
X136937300Y-75526800D01*
X136777600Y-75403300D02*
X136860600Y-75461000D01*
X136689300Y-75354200D02*
X136777600Y-75403300D01*
X136596600Y-75314500D02*
X136689300Y-75354200D01*
X136500200Y-75284200D02*
X136596600Y-75314500D01*
X136401200Y-75263800D02*
X136500200Y-75284200D01*
X136300700Y-75253600D02*
X136401200Y-75263800D01*
X136224800Y-75251000D02*
X136300700Y-75253600D01*
X54275400Y-75251000D02*
X136224800Y-75251000D01*
X54199100Y-75253600D02*
X54275400Y-75251000D01*
X54098800Y-75263800D02*
X54199100Y-75253600D01*
X53999800Y-75284200D02*
X54098800Y-75263800D01*
X53903400Y-75314500D02*
X53999800Y-75284200D01*
X53810500Y-75354300D02*
X53903400Y-75314500D01*
X53722100Y-75403400D02*
X53810500Y-75354300D01*
X53639200Y-75461200D02*
X53722100Y-75403400D01*
X53562500Y-75527000D02*
X53639200Y-75461200D01*
X53492900Y-75600300D02*
X53562500Y-75527000D01*
X53431000Y-75680200D02*
X53492900Y-75600300D01*
X53377600Y-75766000D02*
X53431000Y-75680200D01*
X53333100Y-75856700D02*
X53377600Y-75766000D01*
X53298100Y-75951200D02*
X53333100Y-75856700D01*
X53272700Y-76049100D02*
X53298100Y-75951200D01*
X53257400Y-76149000D02*
X53272700Y-76049100D01*
X53252300Y-76249900D02*
X53257400Y-76149000D01*
X53257400Y-76350800D02*
X53252300Y-76249900D01*
X53272700Y-76450700D02*
X53257400Y-76350800D01*
X53298000Y-76548600D02*
X53272700Y-76450700D01*
X53333100Y-76643400D02*
X53298000Y-76548600D01*
X53377600Y-76734100D02*
X53333100Y-76643400D01*
X53431000Y-76819900D02*
X53377600Y-76734100D01*
X53492900Y-76899800D02*
X53431000Y-76819900D01*
X53562500Y-76973100D02*
X53492900Y-76899800D01*
X53639200Y-77038900D02*
X53562500Y-76973100D01*
X53722100Y-77096700D02*
X53639200Y-77038900D01*
X53810500Y-77145700D02*
X53722100Y-77096700D01*
X53903400Y-77185600D02*
X53810500Y-77145700D01*
X53999800Y-77215900D02*
X53903400Y-77185600D01*
X54098800Y-77236200D02*
X53999800Y-77215900D01*
X54199300Y-77246500D02*
X54098800Y-77236200D01*
X54275200Y-77249000D02*
X54199300Y-77246500D01*
X136224900Y-77249000D02*
X54275200Y-77249000D01*
X136300500Y-77246500D02*
X136224900Y-77249000D01*
X136401100Y-77236200D02*
X136300500Y-77246500D01*
X136499900Y-132216000D02*
X136401100Y-132236300D01*
X136596400Y-132185800D02*
X136499900Y-132216000D01*
X136689300Y-132145900D02*
X136596400Y-132185800D01*
X136777600Y-132096900D02*
X136689300Y-132145900D01*
X136860600Y-132039200D02*
X136777600Y-132096900D01*
X136937300Y-131973400D02*
X136860600Y-132039200D01*
X137007100Y-131899900D02*
X136937300Y-131973400D01*
X137069000Y-131820000D02*
X137007100Y-131899900D01*
X137122400Y-131734200D02*
X137069000Y-131820000D01*
X137166900Y-131643500D02*
X137122400Y-131734200D01*
X137202000Y-131548700D02*
X137166900Y-131643500D01*
X137227300Y-131450800D02*
X137202000Y-131548700D01*
X137242600Y-131350900D02*
X137227300Y-131450800D01*
X137247700Y-131250000D02*
X137242600Y-131350900D01*
X137242600Y-131149300D02*
X137247700Y-131250000D01*
X137227300Y-131049400D02*
X137242600Y-131149300D01*
X137202000Y-130951600D02*
X137227300Y-131049400D01*
X137166900Y-130856800D02*
X137202000Y-130951600D01*
X137122400Y-130766100D02*
X137166900Y-130856800D01*
X137069000Y-130680300D02*
X137122400Y-130766100D01*
X137007100Y-130600300D02*
X137069000Y-130680300D01*
X136937300Y-130526900D02*
X137007100Y-130600300D01*
X136860600Y-130461100D02*
X136937300Y-130526900D01*
X136777600Y-130403300D02*
X136860600Y-130461100D01*
X136689300Y-130354300D02*
X136777600Y-130403300D01*
X136596600Y-130314600D02*
X136689300Y-130354300D01*
X136500200Y-130284300D02*
X136596600Y-130314600D01*
X136401200Y-130263900D02*
X136500200Y-130284300D01*
X136300700Y-130253700D02*
X136401200Y-130263900D01*
X136224800Y-130251100D02*
X136300700Y-130253700D01*
X54275400Y-130251100D02*
X136224800Y-130251100D01*
X54199200Y-130253700D02*
X54275400Y-130251100D01*
X54098800Y-130263900D02*
X54199200Y-130253700D01*
X53999800Y-130284300D02*
X54098800Y-130263900D01*
X53903400Y-130314600D02*
X53999800Y-130284300D01*
X53810500Y-130354400D02*
X53903400Y-130314600D01*
X53722100Y-130403500D02*
X53810500Y-130354400D01*
X53639200Y-130461200D02*
X53722100Y-130403500D01*
X53562500Y-130527100D02*
X53639200Y-130461200D01*
X53492900Y-130600300D02*
X53562500Y-130527100D01*
X53431000Y-130680300D02*
X53492900Y-130600300D01*
X53377600Y-130766100D02*
X53431000Y-130680300D01*
X53333100Y-130856800D02*
X53377600Y-130766100D01*
X53298100Y-130951300D02*
X53333100Y-130856800D01*
X53272700Y-131049200D02*
X53298100Y-130951300D01*
X53257400Y-131149100D02*
X53272700Y-131049200D01*
X53252300Y-131250000D02*
X53257400Y-131149100D01*
X53257400Y-131350900D02*
X53252300Y-131250000D01*
X53272700Y-131450800D02*
X53257400Y-131350900D01*
X53298000Y-131548700D02*
X53272700Y-131450800D01*
X53333100Y-131643500D02*
X53298000Y-131548700D01*
X53377600Y-131734200D02*
X53333100Y-131643500D01*
X53431000Y-131820000D02*
X53377600Y-131734200D01*
X53492900Y-131899900D02*
X53431000Y-131820000D01*
X53562500Y-131973200D02*
X53492900Y-131899900D01*
X53639200Y-132039000D02*
X53562500Y-131973200D01*
X53722100Y-132096800D02*
X53639200Y-132039000D01*
X53810500Y-132145800D02*
X53722100Y-132096800D01*
X53903400Y-132185700D02*
X53810500Y-132145800D01*
X53999800Y-132216000D02*
X53903400Y-132185700D01*
X54098800Y-132236300D02*
X53999800Y-132216000D01*
X54199300Y-132246600D02*
X54098800Y-132236300D01*
X54275200Y-132249100D02*
X54199300Y-132246600D01*
X136224900Y-132249100D02*
X54275200Y-132249100D01*
X136300500Y-132246500D02*
X136224900Y-132249100D01*
X136401100Y-132236300D02*
X136300500Y-132246500D01*
X136499900Y-66215900D02*
X136401000Y-66236200D01*
X136596400Y-66185700D02*
X136499900Y-66215900D01*
X136689300Y-66145800D02*
X136596400Y-66185700D01*
X136777600Y-66096800D02*
X136689300Y-66145800D01*
X136860600Y-66039100D02*
X136777600Y-66096800D01*
X136937300Y-65973300D02*
X136860600Y-66039100D01*
X137007100Y-65899800D02*
X136937300Y-65973300D01*
X137068800Y-65820100D02*
X137007100Y-65899800D01*
X137122300Y-65734300D02*
X137068800Y-65820100D01*
X137166800Y-65643600D02*
X137122300Y-65734300D01*
X137201900Y-65548800D02*
X137166800Y-65643600D01*
X137227300Y-65451000D02*
X137201900Y-65548800D01*
X137242600Y-65351100D02*
X137227300Y-65451000D01*
X137247700Y-65250200D02*
X137242600Y-65351100D01*
X137242600Y-65149200D02*
X137247700Y-65250200D01*
X137227300Y-65049300D02*
X137242600Y-65149200D01*
X137202000Y-64951500D02*
X137227300Y-65049300D01*
X137166800Y-64856400D02*
X137202000Y-64951500D01*
X137122300Y-64765700D02*
X137166800Y-64856400D01*
X137068800Y-64679900D02*
X137122300Y-64765700D01*
X137006900Y-64600000D02*
X137068800Y-64679900D01*
X136937300Y-64526800D02*
X137006900Y-64600000D01*
X136860600Y-64461000D02*
X136937300Y-64526800D01*
X136777600Y-64403200D02*
X136860600Y-64461000D01*
X136689500Y-64354300D02*
X136777600Y-64403200D01*
X136596600Y-64314500D02*
X136689500Y-64354300D01*
X136500200Y-64284200D02*
X136596600Y-64314500D01*
X136401200Y-64263800D02*
X136500200Y-64284200D01*
X136300700Y-64253600D02*
X136401200Y-64263800D01*
X136224800Y-64251000D02*
X136300700Y-64253600D01*
X54275300Y-64251000D02*
X136224800Y-64251000D01*
X54199200Y-64253600D02*
X54275300Y-64251000D01*
X54098800Y-64263800D02*
X54199200Y-64253600D01*
X53999800Y-64284200D02*
X54098800Y-64263800D01*
X53903400Y-64314500D02*
X53999800Y-64284200D01*
X53810500Y-64354300D02*
X53903400Y-64314500D01*
X53722100Y-64403400D02*
X53810500Y-64354300D01*
X53639200Y-64461100D02*
X53722100Y-64403400D01*
X53562500Y-64527000D02*
X53639200Y-64461100D01*
X53492900Y-64600200D02*
X53562500Y-64527000D01*
X53431000Y-64680200D02*
X53492900Y-64600200D01*
X53377600Y-64765900D02*
X53431000Y-64680200D01*
X53333100Y-64856700D02*
X53377600Y-64765900D01*
X53298000Y-64951500D02*
X53333100Y-64856700D01*
X53272700Y-65049000D02*
X53298000Y-64951500D01*
X53257400Y-65148900D02*
X53272700Y-65049000D01*
X53252300Y-65249900D02*
X53257400Y-65148900D01*
X53257400Y-65350800D02*
X53252300Y-65249900D01*
X53272700Y-65450700D02*
X53257400Y-65350800D01*
X53298000Y-65548600D02*
X53272700Y-65450700D01*
X53333100Y-65643300D02*
X53298000Y-65548600D01*
X53377600Y-65734100D02*
X53333100Y-65643300D01*
X53431000Y-65819900D02*
X53377600Y-65734100D01*
X53492900Y-65899800D02*
X53431000Y-65819900D01*
X53562500Y-65973100D02*
X53492900Y-65899800D01*
X53639200Y-66038900D02*
X53562500Y-65973100D01*
X53722100Y-66096700D02*
X53639200Y-66038900D01*
X53810500Y-66145700D02*
X53722100Y-66096700D01*
X53903400Y-66185600D02*
X53810500Y-66145700D01*
X53999800Y-66215900D02*
X53903400Y-66185600D01*
X54098800Y-66236200D02*
X53999800Y-66215900D01*
X54199300Y-66246400D02*
X54098800Y-66236200D01*
X54275200Y-66249000D02*
X54199300Y-66246400D01*
X136224900Y-66249000D02*
X54275200Y-66249000D01*
X136300600Y-66246400D02*
X136224900Y-66249000D01*
X136401000Y-66236200D02*
X136300600Y-66246400D01*
X136499900Y-121216000D02*
X136401000Y-121236300D01*
X136596400Y-121185800D02*
X136499900Y-121216000D01*
X136689300Y-121145900D02*
X136596400Y-121185800D01*
X136777600Y-121096900D02*
X136689300Y-121145900D01*
X136860600Y-121039200D02*
X136777600Y-121096900D01*
X136937300Y-120973300D02*
X136860600Y-121039200D01*
X137007100Y-120899900D02*
X136937300Y-120973300D01*
X137069000Y-120820000D02*
X137007100Y-120899900D01*
X137122400Y-120734200D02*
X137069000Y-120820000D01*
X137166900Y-120643400D02*
X137122400Y-120734200D01*
X137202000Y-120548700D02*
X137166900Y-120643400D01*
X137227300Y-120450800D02*
X137202000Y-120548700D01*
X137242600Y-120350900D02*
X137227300Y-120450800D01*
X137247700Y-120250000D02*
X137242600Y-120350900D01*
X137242600Y-120149300D02*
X137247700Y-120250000D01*
X137227300Y-120049400D02*
X137242600Y-120149300D01*
X137202000Y-119951600D02*
X137227300Y-120049400D01*
X137166900Y-119856800D02*
X137202000Y-119951600D01*
X137122400Y-119766000D02*
X137166900Y-119856800D01*
X137069000Y-119680300D02*
X137122400Y-119766000D01*
X137007100Y-119600300D02*
X137069000Y-119680300D01*
X136937300Y-119526900D02*
X137007100Y-119600300D01*
X136860600Y-119461100D02*
X136937300Y-119526900D01*
X136777600Y-119403300D02*
X136860600Y-119461100D01*
X136689300Y-119354300D02*
X136777600Y-119403300D01*
X136596600Y-119314500D02*
X136689300Y-119354300D01*
X136500200Y-119284300D02*
X136596600Y-119314500D01*
X136401200Y-119263900D02*
X136500200Y-119284300D01*
X136300700Y-119253700D02*
X136401200Y-119263900D01*
X136224800Y-119251100D02*
X136300700Y-119253700D01*
X54275300Y-119251100D02*
X136224800Y-119251100D01*
X54199300Y-119253700D02*
X54275300Y-119251100D01*
X54098800Y-119263900D02*
X54199300Y-119253700D01*
X53999800Y-119284300D02*
X54098800Y-119263900D01*
X53903400Y-119314500D02*
X53999800Y-119284300D01*
X53810500Y-119354400D02*
X53903400Y-119314500D01*
X53722100Y-119403500D02*
X53810500Y-119354400D01*
X53639200Y-119461200D02*
X53722100Y-119403500D01*
X53562500Y-119527100D02*
X53639200Y-119461200D01*
X53492900Y-119600300D02*
X53562500Y-119527100D01*
X53431000Y-119680300D02*
X53492900Y-119600300D01*
X53377600Y-119766000D02*
X53431000Y-119680300D01*
X53333100Y-119856800D02*
X53377600Y-119766000D01*
X53298100Y-119951300D02*
X53333100Y-119856800D01*
X53272700Y-120049100D02*
X53298100Y-119951300D01*
X53257400Y-120149000D02*
X53272700Y-120049100D01*
X53252300Y-120250000D02*
X53257400Y-120149000D01*
X53257400Y-120350900D02*
X53252300Y-120250000D01*
X53272700Y-120450800D02*
X53257400Y-120350900D01*
X53298000Y-120548700D02*
X53272700Y-120450800D01*
X53333100Y-120643400D02*
X53298000Y-120548700D01*
X53377600Y-120734200D02*
X53333100Y-120643400D01*
X53431000Y-120820000D02*
X53377600Y-120734200D01*
X53492900Y-120899900D02*
X53431000Y-120820000D01*
X53562500Y-120973200D02*
X53492900Y-120899900D01*
X53639200Y-121039000D02*
X53562500Y-120973200D01*
X53722100Y-121096700D02*
X53639200Y-121039000D01*
X53810500Y-121145800D02*
X53722100Y-121096700D01*
X53903400Y-121185700D02*
X53810500Y-121145800D01*
X53999800Y-121215900D02*
X53903400Y-121185700D01*
X54098800Y-121236300D02*
X53999800Y-121215900D01*
X54199300Y-121246500D02*
X54098800Y-121236300D01*
X54275200Y-121249100D02*
X54199300Y-121246500D01*
X136224800Y-121249100D02*
X54275200Y-121249100D01*
X136300600Y-121246500D02*
X136224800Y-121249100D01*
X136401000Y-121236300D02*
X136300600Y-121246500D01*
X136499900Y-55215900D02*
X136401000Y-55236200D01*
X136596400Y-55185700D02*
X136499900Y-55215900D01*
X136689300Y-55145800D02*
X136596400Y-55185700D01*
X136777600Y-55096800D02*
X136689300Y-55145800D01*
X136860600Y-55039100D02*
X136777600Y-55096800D01*
X136937300Y-54973200D02*
X136860600Y-55039100D01*
X137007100Y-54899800D02*
X136937300Y-54973200D01*
X137068800Y-54820100D02*
X137007100Y-54899800D01*
X137122300Y-54734300D02*
X137068800Y-54820100D01*
X137166800Y-54643600D02*
X137122300Y-54734300D01*
X137201900Y-54548800D02*
X137166800Y-54643600D01*
X137227300Y-54451000D02*
X137201900Y-54548800D01*
X137242600Y-54351100D02*
X137227300Y-54451000D01*
X137247700Y-54250100D02*
X137242600Y-54351100D01*
X137242600Y-54149200D02*
X137247700Y-54250100D01*
X137227300Y-54049300D02*
X137242600Y-54149200D01*
X137202000Y-53951500D02*
X137227300Y-54049300D01*
X137166800Y-53856400D02*
X137202000Y-53951500D01*
X137122300Y-53765700D02*
X137166800Y-53856400D01*
X137068800Y-53679900D02*
X137122300Y-53765700D01*
X137006900Y-53600000D02*
X137068800Y-53679900D01*
X136937300Y-53526800D02*
X137006900Y-53600000D01*
X136860600Y-53460900D02*
X136937300Y-53526800D01*
X136777600Y-53403200D02*
X136860600Y-53460900D01*
X136689500Y-53354300D02*
X136777600Y-53403200D01*
X136596600Y-53314400D02*
X136689500Y-53354300D01*
X136500200Y-53284200D02*
X136596600Y-53314400D01*
X136401200Y-53263800D02*
X136500200Y-53284200D01*
X136300700Y-53253600D02*
X136401200Y-53263800D01*
X136224800Y-53251000D02*
X136300700Y-53253600D01*
X54275200Y-53251000D02*
X136224800Y-53251000D01*
X54199300Y-53253600D02*
X54275200Y-53251000D01*
X54098800Y-53263800D02*
X54199300Y-53253600D01*
X53999800Y-53284200D02*
X54098800Y-53263800D01*
X53903400Y-53314400D02*
X53999800Y-53284200D01*
X53810500Y-53354300D02*
X53903400Y-53314400D01*
X53722100Y-53403400D02*
X53810500Y-53354300D01*
X53639200Y-53461100D02*
X53722100Y-53403400D01*
X53562500Y-53527000D02*
X53639200Y-53461100D01*
X53492900Y-53600200D02*
X53562500Y-53527000D01*
X53431000Y-53680200D02*
X53492900Y-53600200D01*
X53377600Y-53765900D02*
X53431000Y-53680200D01*
X53333100Y-53856700D02*
X53377600Y-53765900D01*
X53298000Y-53951500D02*
X53333100Y-53856700D01*
X53272700Y-54049000D02*
X53298000Y-53951500D01*
X53257400Y-54148900D02*
X53272700Y-54049000D01*
X53252300Y-54249900D02*
X53257400Y-54148900D01*
X53257400Y-54350800D02*
X53252300Y-54249900D01*
X53272700Y-54450700D02*
X53257400Y-54350800D01*
X53298000Y-54548500D02*
X53272700Y-54450700D01*
X53333100Y-54643300D02*
X53298000Y-54548500D01*
X53377600Y-54734100D02*
X53333100Y-54643300D01*
X53431000Y-54819900D02*
X53377600Y-54734100D01*
X53492900Y-54899800D02*
X53431000Y-54819900D01*
X53562500Y-54973000D02*
X53492900Y-54899800D01*
X53639200Y-55038900D02*
X53562500Y-54973000D01*
X53722100Y-55096600D02*
X53639200Y-55038900D01*
X53810500Y-55145700D02*
X53722100Y-55096600D01*
X53903400Y-55185600D02*
X53810500Y-55145700D01*
X53999800Y-55215800D02*
X53903400Y-55185600D01*
X54098800Y-55236200D02*
X53999800Y-55215800D01*
X54199300Y-55246400D02*
X54098800Y-55236200D01*
X54275200Y-55249000D02*
X54199300Y-55246400D01*
X136224800Y-55249000D02*
X54275200Y-55249000D01*
X136300700Y-55246400D02*
X136224800Y-55249000D01*
X136401000Y-55236200D02*
X136300700Y-55246400D01*
X136500200Y-110215900D02*
X136400900Y-110236300D01*
X136596600Y-110185700D02*
X136500200Y-110215900D01*
X136689500Y-110145800D02*
X136596600Y-110185700D01*
X136777900Y-110096700D02*
X136689500Y-110145800D01*
X136860800Y-110039000D02*
X136777900Y-110096700D01*
X136937500Y-109973100D02*
X136860800Y-110039000D01*
X137007100Y-109899900D02*
X136937500Y-109973100D01*
X137069000Y-109819900D02*
X137007100Y-109899900D01*
X137122400Y-109734200D02*
X137069000Y-109819900D01*
X137166900Y-109643400D02*
X137122400Y-109734200D01*
X137202000Y-109548600D02*
X137166900Y-109643400D01*
X137227300Y-109450800D02*
X137202000Y-109548600D01*
X137242600Y-109350900D02*
X137227300Y-109450800D01*
X137247700Y-109250000D02*
X137242600Y-109350900D01*
X137242600Y-109149300D02*
X137247700Y-109250000D01*
X137227300Y-109049400D02*
X137242600Y-109149300D01*
X137202000Y-108951500D02*
X137227300Y-109049400D01*
X137166900Y-108856800D02*
X137202000Y-108951500D01*
X137122400Y-108766000D02*
X137166900Y-108856800D01*
X137069000Y-108680200D02*
X137122400Y-108766000D01*
X137007100Y-108600300D02*
X137069000Y-108680200D01*
X136937300Y-108526900D02*
X137007100Y-108600300D01*
X136860600Y-108461000D02*
X136937300Y-108526900D01*
X136777600Y-108403300D02*
X136860600Y-108461000D01*
X136689300Y-108354300D02*
X136777600Y-108403300D01*
X136596600Y-108314500D02*
X136689300Y-108354300D01*
X136500200Y-108284300D02*
X136596600Y-108314500D01*
X136401200Y-108263900D02*
X136500200Y-108284300D01*
X136300700Y-108253700D02*
X136401200Y-108263900D01*
X136224800Y-108251100D02*
X136300700Y-108253700D01*
X54275200Y-108251100D02*
X136224800Y-108251100D01*
X54199400Y-108253700D02*
X54275200Y-108251100D01*
X54098800Y-108263900D02*
X54199400Y-108253700D01*
X53999800Y-108284300D02*
X54098800Y-108263900D01*
X53903400Y-108314500D02*
X53999800Y-108284300D01*
X53810500Y-108354400D02*
X53903400Y-108314500D01*
X53722100Y-108403500D02*
X53810500Y-108354400D01*
X53639200Y-108461200D02*
X53722100Y-108403500D01*
X53562500Y-108527000D02*
X53639200Y-108461200D01*
X53492900Y-108600300D02*
X53562500Y-108527000D01*
X53431000Y-108680200D02*
X53492900Y-108600300D01*
X53377600Y-108766000D02*
X53431000Y-108680200D01*
X53333100Y-108856800D02*
X53377600Y-108766000D01*
X53298100Y-108951300D02*
X53333100Y-108856800D01*
X53272700Y-109049100D02*
X53298100Y-108951300D01*
X53257400Y-109149000D02*
X53272700Y-109049100D01*
X53252300Y-109250000D02*
X53257400Y-109149000D01*
X53257400Y-109350900D02*
X53252300Y-109250000D01*
X53272700Y-109450800D02*
X53257400Y-109350900D01*
X53298000Y-109548600D02*
X53272700Y-109450800D01*
X53333100Y-109643400D02*
X53298000Y-109548600D01*
X53377600Y-109734200D02*
X53333100Y-109643400D01*
X53431000Y-109819900D02*
X53377600Y-109734200D01*
X53492900Y-109899900D02*
X53431000Y-109819900D01*
X53562500Y-109973100D02*
X53492900Y-109899900D01*
X53639200Y-110039000D02*
X53562500Y-109973100D01*
X53722100Y-110096700D02*
X53639200Y-110039000D01*
X53810500Y-110145800D02*
X53722100Y-110096700D01*
X53903400Y-110185700D02*
X53810500Y-110145800D01*
X53999800Y-110215900D02*
X53903400Y-110185700D01*
X54098800Y-110236300D02*
X53999800Y-110215900D01*
X54199300Y-110246500D02*
X54098800Y-110236300D01*
X54275200Y-110249100D02*
X54199300Y-110246500D01*
X136224700Y-110249100D02*
X54275200Y-110249100D01*
X136300700Y-110246500D02*
X136224700Y-110249100D01*
X136400900Y-110236300D02*
X136300700Y-110246500D01*
X136500200Y-99215900D02*
X136400800Y-99236300D01*
X136596600Y-99185600D02*
X136500200Y-99215900D01*
X136689500Y-99145800D02*
X136596600Y-99185600D01*
X136777900Y-99096700D02*
X136689500Y-99145800D01*
X136860800Y-99039000D02*
X136777900Y-99096700D01*
X136937500Y-98973100D02*
X136860800Y-99039000D01*
X137007100Y-98899900D02*
X136937500Y-98973100D01*
X137069000Y-98819900D02*
X137007100Y-98899900D01*
X137122400Y-98734100D02*
X137069000Y-98819900D01*
X137166900Y-98643400D02*
X137122400Y-98734100D01*
X137202000Y-98548600D02*
X137166900Y-98643400D01*
X137227300Y-98450800D02*
X137202000Y-98548600D01*
X137242600Y-98350900D02*
X137227300Y-98450800D01*
X137247700Y-98249900D02*
X137242600Y-98350900D01*
X137242600Y-98149300D02*
X137247700Y-98249900D01*
X137227300Y-98049400D02*
X137242600Y-98149300D01*
X137202000Y-97951500D02*
X137227300Y-98049400D01*
X137166900Y-97856700D02*
X137202000Y-97951500D01*
X137122400Y-97766000D02*
X137166900Y-97856700D01*
X137069000Y-97680200D02*
X137122400Y-97766000D01*
X137007100Y-97600300D02*
X137069000Y-97680200D01*
X136937300Y-97526800D02*
X137007100Y-97600300D01*
X136860600Y-97461000D02*
X136937300Y-97526800D01*
X136777600Y-97403300D02*
X136860600Y-97461000D01*
X136689300Y-97354300D02*
X136777600Y-97403300D01*
X136596600Y-97314500D02*
X136689300Y-97354300D01*
X136500200Y-97284200D02*
X136596600Y-97314500D01*
X136401200Y-97263900D02*
X136500200Y-97284200D01*
X136300700Y-97253600D02*
X136401200Y-97263900D01*
X136224800Y-97251100D02*
X136300700Y-97253600D01*
X54275100Y-97251100D02*
X136224800Y-97251100D01*
X54199500Y-97253700D02*
X54275100Y-97251100D01*
X54098800Y-97263900D02*
X54199500Y-97253700D01*
X53999800Y-97284200D02*
X54098800Y-97263900D01*
X53903400Y-97314500D02*
X53999800Y-97284200D01*
X53810500Y-97354400D02*
X53903400Y-97314500D01*
X53722100Y-97403400D02*
X53810500Y-97354400D01*
X53639200Y-97461200D02*
X53722100Y-97403400D01*
X53562500Y-97527000D02*
X53639200Y-97461200D01*
X53492900Y-97600300D02*
X53562500Y-97527000D01*
X53431000Y-97680200D02*
X53492900Y-97600300D01*
X53377600Y-97766000D02*
X53431000Y-97680200D01*
X53333100Y-97856700D02*
X53377600Y-97766000D01*
X53298100Y-97951300D02*
X53333100Y-97856700D01*
X53272700Y-98049100D02*
X53298100Y-97951300D01*
X53257400Y-98149000D02*
X53272700Y-98049100D01*
X53252300Y-98249900D02*
X53257400Y-98149000D01*
X53257400Y-98350900D02*
X53252300Y-98249900D01*
X53272700Y-98450800D02*
X53257400Y-98350900D01*
X53298000Y-98548600D02*
X53272700Y-98450800D01*
X53333100Y-98643400D02*
X53298000Y-98548600D01*
X53377600Y-98734100D02*
X53333100Y-98643400D01*
X53431000Y-98819900D02*
X53377600Y-98734100D01*
X53492900Y-98899900D02*
X53431000Y-98819900D01*
X53562500Y-98973100D02*
X53492900Y-98899900D01*
X53639200Y-99039000D02*
X53562500Y-98973100D01*
X53722100Y-99096700D02*
X53639200Y-99039000D01*
X53810500Y-99145800D02*
X53722100Y-99096700D01*
X53903400Y-99185600D02*
X53810500Y-99145800D01*
X53999800Y-99215900D02*
X53903400Y-99185600D01*
X54098800Y-99236300D02*
X53999800Y-99215900D01*
X54199300Y-99246500D02*
X54098800Y-99236300D01*
X54275200Y-99249100D02*
X54199300Y-99246500D01*
X136224600Y-99249100D02*
X54275200Y-99249100D01*
X136300800Y-99246500D02*
X136224600Y-99249100D01*
X136400800Y-99236300D02*
X136300800Y-99246500D01*
X136500200Y-88215900D02*
X136400700Y-88236300D01*
X136596600Y-88185600D02*
X136500200Y-88215900D01*
X136689500Y-88145700D02*
X136596600Y-88185600D01*
X136777900Y-88096700D02*
X136689500Y-88145700D01*
X136860800Y-88038900D02*
X136777900Y-88096700D01*
X136937500Y-87973100D02*
X136860800Y-88038900D01*
X137007100Y-87899800D02*
X136937500Y-87973100D01*
X137069000Y-87819900D02*
X137007100Y-87899800D01*
X137122400Y-87734100D02*
X137069000Y-87819900D01*
X137166900Y-87643400D02*
X137122400Y-87734100D01*
X137202000Y-87548600D02*
X137166900Y-87643400D01*
X137227300Y-87450800D02*
X137202000Y-87548600D01*
X137242600Y-87350900D02*
X137227300Y-87450800D01*
X137247700Y-87249900D02*
X137242600Y-87350900D01*
X137242600Y-87149300D02*
X137247700Y-87249900D01*
X137227300Y-87049400D02*
X137242600Y-87149300D01*
X137202000Y-86951500D02*
X137227300Y-87049400D01*
X137166900Y-86856700D02*
X137202000Y-86951500D01*
X137122400Y-86766000D02*
X137166900Y-86856700D01*
X137069000Y-86680200D02*
X137122400Y-86766000D01*
X137007100Y-86600300D02*
X137069000Y-86680200D01*
X136937300Y-86526800D02*
X137007100Y-86600300D01*
X136860600Y-86461000D02*
X136937300Y-86526800D01*
X136777600Y-86403300D02*
X136860600Y-86461000D01*
X136689300Y-86354200D02*
X136777600Y-86403300D01*
X136596600Y-86314500D02*
X136689300Y-86354200D01*
X136500200Y-86284200D02*
X136596600Y-86314500D01*
X136401200Y-86263900D02*
X136500200Y-86284200D01*
X136300700Y-86253600D02*
X136401200Y-86263900D01*
X136224800Y-86251100D02*
X136300700Y-86253600D01*
X54275000Y-86251100D02*
X136224800Y-86251100D01*
X54199600Y-86253600D02*
X54275000Y-86251100D01*
X54098800Y-86263900D02*
X54199600Y-86253600D01*
X53999800Y-86284200D02*
X54098800Y-86263900D01*
X53903400Y-86314500D02*
X53999800Y-86284200D01*
X53810500Y-86354400D02*
X53903400Y-86314500D01*
X53722100Y-86403400D02*
X53810500Y-86354400D01*
X53639200Y-86461200D02*
X53722100Y-86403400D01*
X53562500Y-86527000D02*
X53639200Y-86461200D01*
X53492900Y-86600300D02*
X53562500Y-86527000D01*
X53431000Y-86680200D02*
X53492900Y-86600300D01*
X53377600Y-86766000D02*
X53431000Y-86680200D01*
X53333100Y-86856700D02*
X53377600Y-86766000D01*
X53298100Y-86951200D02*
X53333100Y-86856700D01*
X53272700Y-87049100D02*
X53298100Y-86951200D01*
X53257400Y-87149000D02*
X53272700Y-87049100D01*
X53252300Y-87249900D02*
X53257400Y-87149000D01*
X53257400Y-87350900D02*
X53252300Y-87249900D01*
X53272700Y-87450800D02*
X53257400Y-87350900D01*
X53298000Y-87548600D02*
X53272700Y-87450800D01*
X53333100Y-87643400D02*
X53298000Y-87548600D01*
X53377600Y-87734100D02*
X53333100Y-87643400D01*
X53431000Y-87819900D02*
X53377600Y-87734100D01*
X53492900Y-87899800D02*
X53431000Y-87819900D01*
X53562500Y-87973100D02*
X53492900Y-87899800D01*
X53639200Y-88038900D02*
X53562500Y-87973100D01*
X53722100Y-88096700D02*
X53639200Y-88038900D01*
X53810500Y-88145700D02*
X53722100Y-88096700D01*
X53903400Y-88185600D02*
X53810500Y-88145700D01*
X53999800Y-88215900D02*
X53903400Y-88185600D01*
X54098800Y-88236200D02*
X53999800Y-88215900D01*
X54199300Y-88246500D02*
X54098800Y-88236200D01*
X54275200Y-88249100D02*
X54199300Y-88246500D01*
X136224500Y-88249100D02*
X54275200Y-88249100D01*
X136300900Y-88246500D02*
X136224500Y-88249100D01*
X136400700Y-88236300D02*
X136300900Y-88246500D01*
X140471000Y-43499000D02*
X50014600Y-43499700D01*
X140486300Y-43499800D02*
X140471000Y-43499000D01*
X140492300Y-43503000D02*
X140486300Y-43499800D01*
X140494800Y-43508200D02*
X140492300Y-43503000D01*
X140495500Y-43523500D02*
X140494800Y-43508200D01*
X140495500Y-47475500D02*
X140495500Y-43523500D01*
X140494300Y-47492700D02*
X140495500Y-47475500D01*
X140491600Y-47496700D02*
X140494300Y-47492700D01*
X140486300Y-47499200D02*
X140491600Y-47496700D01*
X106241200Y-47500000D02*
X140486300Y-47499200D01*
X106144000Y-47504800D02*
X106241200Y-47500000D01*
X106047900Y-47519000D02*
X106144000Y-47504800D01*
X105953600Y-47542600D02*
X106047900Y-47519000D01*
X105862200Y-47575400D02*
X105953600Y-47542600D01*
X105774300Y-47616900D02*
X105862200Y-47575400D01*
X105691000Y-47666900D02*
X105774300Y-47616900D01*
X105613000Y-47724700D02*
X105691000Y-47666900D01*
X105541000Y-47790000D02*
X105613000Y-47724700D01*
X105475700Y-47862000D02*
X105541000Y-47790000D01*
X105417900Y-47940000D02*
X105475700Y-47862000D01*
X105367900Y-48023300D02*
X105417900Y-47940000D01*
X105326400Y-48111100D02*
X105367900Y-48023300D01*
X105293600Y-48202600D02*
X105326400Y-48111100D01*
X105270000Y-48296900D02*
X105293600Y-48202600D01*
X105255800Y-48393000D02*
X105270000Y-48296900D01*
X105251000Y-48490200D02*
X105255800Y-48393000D01*
X105251000Y-49008800D02*
X105251000Y-48490200D01*
X105255800Y-49106000D02*
X105251000Y-49008800D01*
X105270000Y-49202100D02*
X105255800Y-49106000D01*
X105293600Y-49296400D02*
X105270000Y-49202100D01*
X105326400Y-49387900D02*
X105293600Y-49296400D01*
X105367900Y-49475700D02*
X105326400Y-49387900D01*
X105417900Y-49559000D02*
X105367900Y-49475700D01*
X105475700Y-49637000D02*
X105417900Y-49559000D01*
X105541000Y-49709000D02*
X105475700Y-49637000D01*
X105613000Y-49774300D02*
X105541000Y-49709000D01*
X105691000Y-49832100D02*
X105613000Y-49774300D01*
X105774300Y-49882100D02*
X105691000Y-49832100D01*
X105862200Y-49923600D02*
X105774300Y-49882100D01*
X105953600Y-49956400D02*
X105862200Y-49923600D01*
X106047900Y-49980000D02*
X105953600Y-49956400D01*
X106144000Y-49994200D02*
X106047900Y-49980000D01*
X106241200Y-49999000D02*
X106144000Y-49994200D01*
X136243700Y-49999000D02*
X106241200Y-49999000D01*
X136679800Y-50021100D02*
X136243700Y-49999000D01*
X137093100Y-50084100D02*
X136679800Y-50021100D01*
X137118000Y-50089200D02*
X137093100Y-50084100D01*
X137510300Y-50190800D02*
X137118000Y-50089200D01*
X137534500Y-50198400D02*
X137510300Y-50190800D01*
X137926500Y-50343900D02*
X137534500Y-50198400D01*
X138312700Y-50533300D02*
X137926500Y-50343900D01*
X138678100Y-50761100D02*
X138312700Y-50533300D01*
X139008900Y-51016700D02*
X138678100Y-50761100D01*
X139028200Y-51033300D02*
X139008900Y-51016700D01*
X139321900Y-51312400D02*
X139028200Y-51033300D01*
X139339400Y-51330900D02*
X139321900Y-51312400D01*
X139611500Y-51648400D02*
X139339400Y-51330900D01*
X139857200Y-52001400D02*
X139611500Y-51648400D01*
X140066200Y-52377800D02*
X139857200Y-52001400D01*
X140231400Y-52761900D02*
X140066200Y-52377800D01*
X140240200Y-52785700D02*
X140231400Y-52761900D01*
X140361500Y-53172300D02*
X140240200Y-52785700D01*
X140367900Y-53196900D02*
X140361500Y-53172300D01*
X140451700Y-53606600D02*
X140367900Y-53196900D01*
X140494300Y-54022000D02*
X140451700Y-53606600D01*
X140495500Y-54047400D02*
X140494300Y-54022000D01*
X140495200Y-54465600D02*
X140495500Y-54047400D01*
X140451600Y-54893900D02*
X140495200Y-54465600D01*
X140365000Y-55315200D02*
X140451600Y-54893900D01*
X140236200Y-55726100D02*
X140365000Y-55315200D01*
X140066400Y-56121800D02*
X140236200Y-55726100D01*
X139857400Y-56498300D02*
X140066400Y-56121800D01*
X139611500Y-56851700D02*
X139857400Y-56498300D01*
X139339400Y-57169100D02*
X139611500Y-56851700D01*
X139321900Y-57187600D02*
X139339400Y-57169100D01*
X139028200Y-57466700D02*
X139321900Y-57187600D01*
X139008900Y-57483300D02*
X139028200Y-57466700D01*
X138678000Y-57739000D02*
X139008900Y-57483300D01*
X138323800Y-57960100D02*
X138678000Y-57739000D01*
X138301600Y-57972500D02*
X138323800Y-57960100D01*
X137926000Y-58156300D02*
X138301600Y-57972500D01*
X137522700Y-58305700D02*
X137926000Y-58156300D01*
X137105900Y-58413600D02*
X137522700Y-58305700D01*
X136692400Y-58477300D02*
X137105900Y-58413600D01*
X136667400Y-58479800D02*
X136692400Y-58477300D01*
X136243700Y-58501000D02*
X136667400Y-58479800D01*
X116249800Y-58500900D02*
X136243700Y-58501000D01*
X116197400Y-58497900D02*
X116249800Y-58500900D01*
X116146100Y-58489800D02*
X116197400Y-58497900D01*
X116095500Y-58476200D02*
X116146100Y-58489800D01*
X116058300Y-58462300D02*
X116095500Y-58476200D01*
X115999900Y-58433700D02*
X116058300Y-58462300D01*
X115966600Y-58412500D02*
X115999900Y-58433700D01*
X115945300Y-58397000D02*
X115966600Y-58412500D01*
X115905500Y-58363000D02*
X115945300Y-58397000D01*
X115878100Y-58335200D02*
X115905500Y-58363000D01*
X115853000Y-58304700D02*
X115878100Y-58335200D01*
X115816300Y-58250100D02*
X115853000Y-58304700D01*
X115792500Y-58203400D02*
X115816300Y-58250100D01*
X115740500Y-58073800D02*
X115792500Y-58203400D01*
X115697000Y-57990800D02*
X115740500Y-58073800D01*
X115645900Y-57912300D02*
X115697000Y-57990800D01*
X115587700Y-57839000D02*
X115645900Y-57912300D01*
X115522700Y-57771500D02*
X115587700Y-57839000D01*
X115451700Y-57710500D02*
X115522700Y-57771500D01*
X115375200Y-57656400D02*
X115451700Y-57710500D01*
X115293900Y-57609800D02*
X115375200Y-57656400D01*
X115208600Y-57571100D02*
X115293900Y-57609800D01*
X115120000Y-57540700D02*
X115208600Y-57571100D01*
X115029000Y-57518700D02*
X115120000Y-57540700D01*
X114936300Y-57505400D02*
X115029000Y-57518700D01*
X114842500Y-57501000D02*
X114936300Y-57505400D01*
X106657500Y-57501000D02*
X114842500Y-57501000D01*
X106563700Y-57505400D02*
X106657500Y-57501000D01*
X106471000Y-57518700D02*
X106563700Y-57505400D01*
X106380000Y-57540700D02*
X106471000Y-57518700D01*
X106291400Y-57571100D02*
X106380000Y-57540700D01*
X106206100Y-57609800D02*
X106291400Y-57571100D01*
X106124800Y-57656400D02*
X106206100Y-57609800D01*
X106048300Y-57710500D02*
X106124800Y-57656400D01*
X105977300Y-57771500D02*
X106048300Y-57710500D01*
X105912300Y-57839000D02*
X105977300Y-57771500D01*
X105854100Y-57912300D02*
X105912300Y-57839000D01*
X105803000Y-57990800D02*
X105854100Y-57912300D01*
X105759500Y-58073800D02*
X105803000Y-57990800D01*
X105701800Y-58215300D02*
X105759500Y-58073800D01*
X105683700Y-58250100D02*
X105701800Y-58215300D01*
X105662300Y-58283700D02*
X105683700Y-58250100D01*
X105621900Y-58335200D02*
X105662300Y-58283700D01*
X105565200Y-58390300D02*
X105621900Y-58335200D01*
X105494600Y-58463400D02*
X105565200Y-58390300D01*
X105432000Y-58543100D02*
X105494600Y-58463400D01*
X105378000Y-58628700D02*
X105432000Y-58543100D01*
X105332900Y-58719500D02*
X105378000Y-58628700D01*
X105297400Y-58814400D02*
X105332900Y-58719500D01*
X105271700Y-58912400D02*
X105297400Y-58814400D01*
X105256200Y-59012500D02*
X105271700Y-58912400D01*
X105251000Y-59114000D02*
X105256200Y-59012500D01*
X105251000Y-60008800D02*
X105251000Y-59114000D01*
X105255800Y-60106000D02*
X105251000Y-60008800D01*
X105270000Y-60202100D02*
X105255800Y-60106000D01*
X105293600Y-60296400D02*
X105270000Y-60202100D01*
X105326400Y-60387900D02*
X105293600Y-60296400D01*
X105367900Y-60475700D02*
X105326400Y-60387900D01*
X105417900Y-60559000D02*
X105367900Y-60475700D01*
X105475700Y-60637100D02*
X105417900Y-60559000D01*
X105541000Y-60709000D02*
X105475700Y-60637100D01*
X105613000Y-60774300D02*
X105541000Y-60709000D01*
X105691000Y-60832200D02*
X105613000Y-60774300D01*
X105774300Y-60882100D02*
X105691000Y-60832200D01*
X105862200Y-60923600D02*
X105774300Y-60882100D01*
X105953600Y-60956400D02*
X105862200Y-60923600D01*
X106047900Y-60980000D02*
X105953600Y-60956400D01*
X106144000Y-60994200D02*
X106047900Y-60980000D01*
X106241200Y-60999000D02*
X106144000Y-60994200D01*
X136243700Y-60999000D02*
X106241200Y-60999000D01*
X136679800Y-61021100D02*
X136243700Y-60999000D01*
X137105400Y-61086300D02*
X136679800Y-61021100D01*
X137522300Y-61194200D02*
X137105400Y-61086300D01*
X137914500Y-61339100D02*
X137522300Y-61194200D01*
X137937800Y-61349100D02*
X137914500Y-61339100D01*
X138301600Y-61527600D02*
X137937800Y-61349100D01*
X138323800Y-61539900D02*
X138301600Y-61527600D01*
X138678500Y-61761400D02*
X138323800Y-61539900D01*
X139018600Y-62024600D02*
X138678500Y-61761400D01*
X139330700Y-62321300D02*
X139018600Y-62024600D01*
X139603300Y-62638300D02*
X139330700Y-62321300D01*
X139618900Y-62658400D02*
X139603300Y-62638300D01*
X139850300Y-62990900D02*
X139618900Y-62658400D01*
X139863800Y-63012500D02*
X139850300Y-62990900D01*
X140066400Y-63378300D02*
X139863800Y-63012500D01*
X140236000Y-63773500D02*
X140066400Y-63378300D01*
X140364900Y-64184400D02*
X140236000Y-63773500D01*
X140449400Y-64593800D02*
X140364900Y-64184400D01*
X140453300Y-64619000D02*
X140449400Y-64593800D01*
X140494300Y-65022000D02*
X140453300Y-64619000D01*
X140495500Y-65047400D02*
X140494300Y-65022000D01*
X140495200Y-65465600D02*
X140495500Y-65047400D01*
X140451600Y-65894000D02*
X140495200Y-65465600D01*
X140365000Y-66315200D02*
X140451600Y-65894000D01*
X140236200Y-66726100D02*
X140365000Y-66315200D01*
X140066400Y-67121800D02*
X140236200Y-66726100D01*
X139857400Y-67498300D02*
X140066400Y-67121800D01*
X139611500Y-67851700D02*
X139857400Y-67498300D01*
X139339400Y-68169100D02*
X139611500Y-67851700D01*
X139321900Y-68187600D02*
X139339400Y-68169100D01*
X139028200Y-68466700D02*
X139321900Y-68187600D01*
X139008900Y-68483300D02*
X139028200Y-68466700D01*
X138678000Y-68739000D02*
X139008900Y-68483300D01*
X138323800Y-68960100D02*
X138678000Y-68739000D01*
X138301600Y-68972500D02*
X138323800Y-68960100D01*
X137926000Y-69156300D02*
X138301600Y-68972500D01*
X137522700Y-69305700D02*
X137926000Y-69156300D01*
X137105900Y-69413600D02*
X137522700Y-69305700D01*
X136692400Y-69477300D02*
X137105900Y-69413600D01*
X136667400Y-69479900D02*
X136692400Y-69477300D01*
X136243700Y-69501000D02*
X136667400Y-69479900D01*
X116249800Y-69500900D02*
X136243700Y-69501000D01*
X116197400Y-69497900D02*
X116249800Y-69500900D01*
X116146100Y-69489800D02*
X116197400Y-69497900D01*
X116095500Y-69476200D02*
X116146100Y-69489800D01*
X116058300Y-69462300D02*
X116095500Y-69476200D01*
X115999900Y-69433700D02*
X116058300Y-69462300D01*
X115966600Y-69412500D02*
X115999900Y-69433700D01*
X115945300Y-69397100D02*
X115966600Y-69412500D01*
X115905500Y-69363000D02*
X115945300Y-69397100D01*
X115878100Y-69335200D02*
X115905500Y-69363000D01*
X115853000Y-69304700D02*
X115878100Y-69335200D01*
X115816300Y-69250100D02*
X115853000Y-69304700D01*
X115792500Y-69203400D02*
X115816300Y-69250100D01*
X115740500Y-69073800D02*
X115792500Y-69203400D01*
X115697000Y-68990800D02*
X115740500Y-69073800D01*
X115645900Y-68912300D02*
X115697000Y-68990800D01*
X115587700Y-68839000D02*
X115645900Y-68912300D01*
X115522700Y-68771500D02*
X115587700Y-68839000D01*
X115451700Y-68710500D02*
X115522700Y-68771500D01*
X115375200Y-68656400D02*
X115451700Y-68710500D01*
X115293900Y-68609800D02*
X115375200Y-68656400D01*
X115208600Y-68571100D02*
X115293900Y-68609800D01*
X115120000Y-68540700D02*
X115208600Y-68571100D01*
X115029000Y-68518700D02*
X115120000Y-68540700D01*
X114936200Y-68505400D02*
X115029000Y-68518700D01*
X114842400Y-68501000D02*
X114936200Y-68505400D01*
X106657500Y-68501000D02*
X114842400Y-68501000D01*
X106563700Y-68505500D02*
X106657500Y-68501000D01*
X106471000Y-68518700D02*
X106563700Y-68505500D01*
X106380000Y-68540700D02*
X106471000Y-68518700D01*
X106291400Y-68571100D02*
X106380000Y-68540700D01*
X106206100Y-68609800D02*
X106291400Y-68571100D01*
X106124800Y-68656400D02*
X106206100Y-68609800D01*
X106048300Y-68710500D02*
X106124800Y-68656400D01*
X105977300Y-68771500D02*
X106048300Y-68710500D01*
X105912300Y-68839000D02*
X105977300Y-68771500D01*
X105854100Y-68912300D02*
X105912300Y-68839000D01*
X105803000Y-68990900D02*
X105854100Y-68912300D01*
X105759500Y-69073800D02*
X105803000Y-68990900D01*
X105701800Y-69215300D02*
X105759500Y-69073800D01*
X105683400Y-69250600D02*
X105701800Y-69215300D01*
X105655200Y-69294100D02*
X105683400Y-69250600D01*
X105621900Y-69335200D02*
X105655200Y-69294100D01*
X105565200Y-69390300D02*
X105621900Y-69335200D01*
X105494600Y-69463400D02*
X105565200Y-69390300D01*
X105432000Y-69543100D02*
X105494600Y-69463400D01*
X105378000Y-69628800D02*
X105432000Y-69543100D01*
X105332900Y-69719500D02*
X105378000Y-69628800D01*
X105297400Y-69814400D02*
X105332900Y-69719500D01*
X105271700Y-69912400D02*
X105297400Y-69814400D01*
X105256200Y-70012600D02*
X105271700Y-69912400D01*
X105251000Y-70114000D02*
X105256200Y-70012600D01*
X105251000Y-71008800D02*
X105251000Y-70114000D01*
X105255800Y-71106100D02*
X105251000Y-71008800D01*
X105270000Y-71202200D02*
X105255800Y-71106100D01*
X105293600Y-71296400D02*
X105270000Y-71202200D01*
X105326400Y-71387900D02*
X105293600Y-71296400D01*
X105367900Y-71475700D02*
X105326400Y-71387900D01*
X105417900Y-71559000D02*
X105367900Y-71475700D01*
X105475700Y-71637100D02*
X105417900Y-71559000D01*
X105541000Y-71709100D02*
X105475700Y-71637100D01*
X105613000Y-71774300D02*
X105541000Y-71709100D01*
X105691000Y-71832200D02*
X105613000Y-71774300D01*
X105774300Y-71882100D02*
X105691000Y-71832200D01*
X105862200Y-71923700D02*
X105774300Y-71882100D01*
X105953600Y-71956400D02*
X105862200Y-71923700D01*
X106047900Y-71980000D02*
X105953600Y-71956400D01*
X106144000Y-71994200D02*
X106047900Y-71980000D01*
X106241200Y-71999000D02*
X106144000Y-71994200D01*
X136243700Y-71999000D02*
X106241200Y-71999000D01*
X136679800Y-72021100D02*
X136243700Y-71999000D01*
X137105400Y-72086300D02*
X136679800Y-72021100D01*
X137522300Y-72194200D02*
X137105400Y-72086300D01*
X137914500Y-72339100D02*
X137522300Y-72194200D01*
X137937800Y-72349100D02*
X137914500Y-72339100D01*
X138301600Y-72527600D02*
X137937800Y-72349100D01*
X138323800Y-72539900D02*
X138301600Y-72527600D01*
X138678500Y-72761400D02*
X138323800Y-72539900D01*
X139018600Y-73024700D02*
X138678500Y-72761400D01*
X139330700Y-73321300D02*
X139018600Y-73024700D01*
X139603300Y-73638300D02*
X139330700Y-73321300D01*
X139618900Y-73658400D02*
X139603300Y-73638300D01*
X139850300Y-73990900D02*
X139618900Y-73658400D01*
X139863800Y-74012500D02*
X139850300Y-73990900D01*
X140066400Y-74378300D02*
X139863800Y-74012500D01*
X140236000Y-74773500D02*
X140066400Y-74378300D01*
X140364900Y-75184400D02*
X140236000Y-74773500D01*
X140449400Y-75593800D02*
X140364900Y-75184400D01*
X140453300Y-75619000D02*
X140449400Y-75593800D01*
X140494300Y-76022000D02*
X140453300Y-75619000D01*
X140495500Y-76047400D02*
X140494300Y-76022000D01*
X140495200Y-76465600D02*
X140495500Y-76047400D01*
X140451600Y-76894000D02*
X140495200Y-76465600D01*
X140365000Y-77315300D02*
X140451600Y-76894000D01*
X140236200Y-77726100D02*
X140365000Y-77315300D01*
X140066400Y-78121800D02*
X140236200Y-77726100D01*
X139857400Y-78498300D02*
X140066400Y-78121800D01*
X139611500Y-78851700D02*
X139857400Y-78498300D01*
X139339400Y-79169200D02*
X139611500Y-78851700D01*
X139321900Y-79187600D02*
X139339400Y-79169200D01*
X139028200Y-79466700D02*
X139321900Y-79187600D01*
X139008900Y-79483300D02*
X139028200Y-79466700D01*
X138678000Y-79739000D02*
X139008900Y-79483300D01*
X138323800Y-79960100D02*
X138678000Y-79739000D01*
X138301600Y-79972500D02*
X138323800Y-79960100D01*
X137926000Y-80156300D02*
X138301600Y-79972500D01*
X137522200Y-80305900D02*
X137926000Y-80156300D01*
X137105900Y-80413700D02*
X137522200Y-80305900D01*
X136680300Y-80478900D02*
X137105900Y-80413700D01*
X136243700Y-80501000D02*
X136680300Y-80478900D01*
X116243500Y-80500700D02*
X136243700Y-80501000D01*
X116197400Y-80497900D02*
X116243500Y-80500700D01*
X116146100Y-80489800D02*
X116197400Y-80497900D01*
X116095500Y-80476300D02*
X116146100Y-80489800D01*
X116058300Y-80462300D02*
X116095500Y-80476300D01*
X115999900Y-80433700D02*
X116058300Y-80462300D01*
X115966600Y-80412500D02*
X115999900Y-80433700D01*
X115945300Y-80397100D02*
X115966600Y-80412500D01*
X115905500Y-80363100D02*
X115945300Y-80397100D01*
X115878100Y-80335200D02*
X115905500Y-80363100D01*
X115853000Y-80304800D02*
X115878100Y-80335200D01*
X115816300Y-80250100D02*
X115853000Y-80304800D01*
X115792500Y-80203400D02*
X115816300Y-80250100D01*
X115740500Y-80073800D02*
X115792500Y-80203400D01*
X115697000Y-79990800D02*
X115740500Y-80073800D01*
X115645900Y-79912300D02*
X115697000Y-79990800D01*
X115587600Y-79839000D02*
X115645900Y-79912300D01*
X115522700Y-79771500D02*
X115587600Y-79839000D01*
X115451600Y-79710500D02*
X115522700Y-79771500D01*
X115375200Y-79656400D02*
X115451600Y-79710500D01*
X115293900Y-79609800D02*
X115375200Y-79656400D01*
X115208600Y-79571100D02*
X115293900Y-79609800D01*
X115120000Y-79540700D02*
X115208600Y-79571100D01*
X115029000Y-79518700D02*
X115120000Y-79540700D01*
X114936200Y-79505400D02*
X115029000Y-79518700D01*
X114842400Y-79501000D02*
X114936200Y-79505400D01*
X106657500Y-79501000D02*
X114842400Y-79501000D01*
X106563700Y-79505500D02*
X106657500Y-79501000D01*
X106471000Y-79518700D02*
X106563700Y-79505500D01*
X106380000Y-79540700D02*
X106471000Y-79518700D01*
X106291400Y-79571200D02*
X106380000Y-79540700D01*
X106206100Y-79609900D02*
X106291400Y-79571200D01*
X106124800Y-79656400D02*
X106206100Y-79609900D01*
X106048300Y-79710500D02*
X106124800Y-79656400D01*
X105977300Y-79771600D02*
X106048300Y-79710500D01*
X105912300Y-79839000D02*
X105977300Y-79771600D01*
X105854100Y-79912400D02*
X105912300Y-79839000D01*
X105803000Y-79990900D02*
X105854100Y-79912400D01*
X105759500Y-80073900D02*
X105803000Y-79990900D01*
X105701800Y-80215300D02*
X105759500Y-80073900D01*
X105683700Y-80250200D02*
X105701800Y-80215300D01*
X105662300Y-80283700D02*
X105683700Y-80250200D01*
X105621900Y-80335300D02*
X105662300Y-80283700D01*
X105565200Y-80390300D02*
X105621900Y-80335300D01*
X105494600Y-80463400D02*
X105565200Y-80390300D01*
X105432000Y-80543100D02*
X105494600Y-80463400D01*
X105378000Y-80628800D02*
X105432000Y-80543100D01*
X105332900Y-80719500D02*
X105378000Y-80628800D01*
X105297400Y-80814400D02*
X105332900Y-80719500D01*
X105271700Y-80912400D02*
X105297400Y-80814400D01*
X105256200Y-81012600D02*
X105271700Y-80912400D01*
X105251000Y-81114000D02*
X105256200Y-81012600D01*
X105251000Y-82008800D02*
X105251000Y-81114000D01*
X105255800Y-82106100D02*
X105251000Y-82008800D01*
X105270000Y-82202200D02*
X105255800Y-82106100D01*
X105293600Y-82296400D02*
X105270000Y-82202200D01*
X105326400Y-82387900D02*
X105293600Y-82296400D01*
X105367900Y-82475700D02*
X105326400Y-82387900D01*
X105417900Y-82559100D02*
X105367900Y-82475700D01*
X105475700Y-82637100D02*
X105417900Y-82559100D01*
X105541000Y-82709100D02*
X105475700Y-82637100D01*
X105613000Y-82774300D02*
X105541000Y-82709100D01*
X105691000Y-82832200D02*
X105613000Y-82774300D01*
X105774300Y-82882200D02*
X105691000Y-82832200D01*
X105862200Y-82923700D02*
X105774300Y-82882200D01*
X105953600Y-82956400D02*
X105862200Y-82923700D01*
X106047900Y-82980000D02*
X105953600Y-82956400D01*
X106144000Y-82994300D02*
X106047900Y-82980000D01*
X106241200Y-82999100D02*
X106144000Y-82994300D01*
X136243700Y-82999100D02*
X106241200Y-82999100D01*
X136679800Y-83021200D02*
X136243700Y-82999100D01*
X137105900Y-83086400D02*
X136679800Y-83021200D01*
X137522300Y-83194300D02*
X137105900Y-83086400D01*
X137926100Y-83343800D02*
X137522300Y-83194300D01*
X138312700Y-83533400D02*
X137926100Y-83343800D01*
X138667600Y-83754200D02*
X138312700Y-83533400D01*
X138688500Y-83768800D02*
X138667600Y-83754200D01*
X139008900Y-84016800D02*
X138688500Y-83768800D01*
X139028200Y-84033300D02*
X139008900Y-84016800D01*
X139331100Y-84321700D02*
X139028200Y-84033300D01*
X139611200Y-84648000D02*
X139331100Y-84321700D01*
X139857200Y-85001400D02*
X139611200Y-84648000D01*
X140060400Y-85366800D02*
X139857200Y-85001400D01*
X140071600Y-85389600D02*
X140060400Y-85366800D01*
X140231400Y-85761900D02*
X140071600Y-85389600D01*
X140240200Y-85785800D02*
X140231400Y-85761900D01*
X140365100Y-86184900D02*
X140240200Y-85785800D01*
X140451600Y-86606200D02*
X140365100Y-86184900D01*
X140495200Y-87034500D02*
X140451600Y-86606200D01*
X140495500Y-87452600D02*
X140495200Y-87034500D01*
X140494300Y-87478000D02*
X140495500Y-87452600D01*
X140453300Y-87881100D02*
X140494300Y-87478000D01*
X140449400Y-87906200D02*
X140453300Y-87881100D01*
X140364900Y-88315800D02*
X140449400Y-87906200D01*
X140236200Y-88726100D02*
X140364900Y-88315800D01*
X140066400Y-89121800D02*
X140236200Y-88726100D01*
X139863800Y-89487500D02*
X140066400Y-89121800D01*
X139850300Y-89509100D02*
X139863800Y-89487500D01*
X139618900Y-89841700D02*
X139850300Y-89509100D01*
X139603300Y-89861800D02*
X139618900Y-89841700D01*
X139330700Y-90178800D02*
X139603300Y-89861800D01*
X139018900Y-90475100D02*
X139330700Y-90178800D01*
X138678500Y-90738700D02*
X139018900Y-90475100D01*
X138323800Y-90960200D02*
X138678500Y-90738700D01*
X138301600Y-90972500D02*
X138323800Y-90960200D01*
X137937900Y-91150900D02*
X138301600Y-90972500D01*
X137914500Y-91161000D02*
X137937900Y-91150900D01*
X137522200Y-91305900D02*
X137914500Y-91161000D01*
X137105400Y-91413800D02*
X137522200Y-91305900D01*
X136679800Y-91479000D02*
X137105400Y-91413800D01*
X136243700Y-91501100D02*
X136679800Y-91479000D01*
X116249800Y-91501000D02*
X136243700Y-91501100D01*
X116197400Y-91497900D02*
X116249800Y-91501000D01*
X116146100Y-91489800D02*
X116197400Y-91497900D01*
X116095500Y-91476300D02*
X116146100Y-91489800D01*
X116058300Y-91462400D02*
X116095500Y-91476300D01*
X115999900Y-91433800D02*
X116058300Y-91462400D01*
X115966600Y-91412500D02*
X115999900Y-91433800D01*
X115945300Y-91397100D02*
X115966600Y-91412500D01*
X115905500Y-91363100D02*
X115945300Y-91397100D01*
X115878100Y-91335200D02*
X115905500Y-91363100D01*
X115853000Y-91304800D02*
X115878100Y-91335200D01*
X115816300Y-91250100D02*
X115853000Y-91304800D01*
X115792500Y-91203400D02*
X115816300Y-91250100D01*
X115740500Y-91073900D02*
X115792500Y-91203400D01*
X115697100Y-90990900D02*
X115740500Y-91073900D01*
X115646000Y-90912400D02*
X115697100Y-90990900D01*
X115587700Y-90839100D02*
X115646000Y-90912400D01*
X115522700Y-90771600D02*
X115587700Y-90839100D01*
X115451700Y-90710600D02*
X115522700Y-90771600D01*
X115375200Y-90656500D02*
X115451700Y-90710600D01*
X115293900Y-90609900D02*
X115375200Y-90656500D01*
X115208600Y-90571200D02*
X115293900Y-90609900D01*
X115120100Y-90540800D02*
X115208600Y-90571200D01*
X115029000Y-90518800D02*
X115120100Y-90540800D01*
X114936300Y-90505500D02*
X115029000Y-90518800D01*
X114842500Y-90501100D02*
X114936300Y-90505500D01*
X106657600Y-90501100D02*
X114842500Y-90501100D01*
X106563800Y-90505500D02*
X106657600Y-90501100D01*
X106471000Y-90518800D02*
X106563800Y-90505500D01*
X106380000Y-90540700D02*
X106471000Y-90518800D01*
X106291400Y-90571200D02*
X106380000Y-90540700D01*
X106206100Y-90609900D02*
X106291400Y-90571200D01*
X106124800Y-90656500D02*
X106206100Y-90609900D01*
X106048300Y-90710500D02*
X106124800Y-90656500D01*
X105977300Y-90771600D02*
X106048300Y-90710500D01*
X105912300Y-90839100D02*
X105977300Y-90771600D01*
X105854100Y-90912400D02*
X105912300Y-90839100D01*
X105803000Y-90990900D02*
X105854100Y-90912400D01*
X105759500Y-91073900D02*
X105803000Y-90990900D01*
X105701800Y-91215300D02*
X105759500Y-91073900D01*
X105683700Y-91250200D02*
X105701800Y-91215300D01*
X105662300Y-91283700D02*
X105683700Y-91250200D01*
X105621900Y-91335300D02*
X105662300Y-91283700D01*
X105565200Y-91390300D02*
X105621900Y-91335300D01*
X105494600Y-91463400D02*
X105565200Y-91390300D01*
X105432000Y-91543100D02*
X105494600Y-91463400D01*
X105378000Y-91628800D02*
X105432000Y-91543100D01*
X105332900Y-91719600D02*
X105378000Y-91628800D01*
X105297400Y-91814400D02*
X105332900Y-91719600D01*
X105271700Y-91912500D02*
X105297400Y-91814400D01*
X105256200Y-92012600D02*
X105271700Y-91912500D01*
X105251000Y-92114000D02*
X105256200Y-92012600D01*
X105251000Y-93008800D02*
X105251000Y-92114000D01*
X105255800Y-93106100D02*
X105251000Y-93008800D01*
X105270000Y-93202200D02*
X105255800Y-93106100D01*
X105293600Y-93296500D02*
X105270000Y-93202200D01*
X105326400Y-93387900D02*
X105293600Y-93296500D01*
X105367900Y-93475800D02*
X105326400Y-93387900D01*
X105417900Y-93559100D02*
X105367900Y-93475800D01*
X105475700Y-93637100D02*
X105417900Y-93559100D01*
X105541000Y-93709100D02*
X105475700Y-93637100D01*
X105613000Y-93774400D02*
X105541000Y-93709100D01*
X105691000Y-93832200D02*
X105613000Y-93774400D01*
X105774300Y-93882200D02*
X105691000Y-93832200D01*
X105862200Y-93923700D02*
X105774300Y-93882200D01*
X105953600Y-93956400D02*
X105862200Y-93923700D01*
X106047900Y-93980000D02*
X105953600Y-93956400D01*
X106144000Y-93994300D02*
X106047900Y-93980000D01*
X106241200Y-93999100D02*
X106144000Y-93994300D01*
X136243700Y-93999100D02*
X106241200Y-93999100D01*
X136667300Y-94020200D02*
X136243700Y-93999100D01*
X136692400Y-94022800D02*
X136667300Y-94020200D01*
X137105900Y-94086500D02*
X136692400Y-94022800D01*
X137522300Y-94194300D02*
X137105900Y-94086500D01*
X137926100Y-94343800D02*
X137522300Y-94194300D01*
X138301600Y-94527600D02*
X137926100Y-94343800D01*
X138323800Y-94540000D02*
X138301600Y-94527600D01*
X138667600Y-94754300D02*
X138323800Y-94540000D01*
X138688500Y-94768800D02*
X138667600Y-94754300D01*
X139019000Y-95025000D02*
X138688500Y-94768800D01*
X139321900Y-95312500D02*
X139019000Y-95025000D01*
X139339400Y-95330900D02*
X139321900Y-95312500D01*
X139611500Y-95648400D02*
X139339400Y-95330900D01*
X139857500Y-96001900D02*
X139611500Y-95648400D01*
X140066200Y-96377900D02*
X139857500Y-96001900D01*
X140236000Y-96773600D02*
X140066200Y-96377900D01*
X140364900Y-97184400D02*
X140236000Y-96773600D01*
X140451600Y-97606200D02*
X140364900Y-97184400D01*
X140495200Y-98034600D02*
X140451600Y-97606200D01*
X140495500Y-98452600D02*
X140495200Y-98034600D01*
X140494300Y-98478000D02*
X140495500Y-98452600D01*
X140453300Y-98881100D02*
X140494300Y-98478000D01*
X140449400Y-98906300D02*
X140453300Y-98881100D01*
X140364900Y-99315800D02*
X140449400Y-98906300D01*
X140236200Y-99726100D02*
X140364900Y-99315800D01*
X140066400Y-100121800D02*
X140236200Y-99726100D01*
X139863800Y-100487600D02*
X140066400Y-100121800D01*
X139850300Y-100509100D02*
X139863800Y-100487600D01*
X139618900Y-100841700D02*
X139850300Y-100509100D01*
X139603300Y-100861800D02*
X139618900Y-100841700D01*
X139330700Y-101178800D02*
X139603300Y-100861800D01*
X139018900Y-101475200D02*
X139330700Y-101178800D01*
X138678500Y-101738700D02*
X139018900Y-101475200D01*
X138323800Y-101960200D02*
X138678500Y-101738700D01*
X138301600Y-101972500D02*
X138323800Y-101960200D01*
X137937900Y-102151000D02*
X138301600Y-101972500D01*
X137914500Y-102161000D02*
X137937900Y-102151000D01*
X137522200Y-102305900D02*
X137914500Y-102161000D01*
X137105400Y-102413800D02*
X137522200Y-102305900D01*
X136679800Y-102479000D02*
X137105400Y-102413800D01*
X136243700Y-102501100D02*
X136679800Y-102479000D01*
X116249800Y-102501000D02*
X136243700Y-102501100D01*
X116197400Y-102498000D02*
X116249800Y-102501000D01*
X116146100Y-102489800D02*
X116197400Y-102498000D01*
X116095500Y-102476300D02*
X116146100Y-102489800D01*
X116058300Y-102462400D02*
X116095500Y-102476300D01*
X115999900Y-102433800D02*
X116058300Y-102462400D01*
X115966600Y-102412600D02*
X115999900Y-102433800D01*
X115945300Y-102397100D02*
X115966600Y-102412600D01*
X115905500Y-102363100D02*
X115945300Y-102397100D01*
X115878100Y-102335300D02*
X115905500Y-102363100D01*
X115853000Y-102304800D02*
X115878100Y-102335300D01*
X115816300Y-102250200D02*
X115853000Y-102304800D01*
X115792500Y-102203400D02*
X115816300Y-102250200D01*
X115740500Y-102073900D02*
X115792500Y-102203400D01*
X115697000Y-101990900D02*
X115740500Y-102073900D01*
X115646000Y-101912400D02*
X115697000Y-101990900D01*
X115587700Y-101839100D02*
X115646000Y-101912400D01*
X115522700Y-101771600D02*
X115587700Y-101839100D01*
X115451700Y-101710600D02*
X115522700Y-101771600D01*
X115375200Y-101656500D02*
X115451700Y-101710600D01*
X115293900Y-101609900D02*
X115375200Y-101656500D01*
X115208600Y-101571200D02*
X115293900Y-101609900D01*
X115120000Y-101540800D02*
X115208600Y-101571200D01*
X115029000Y-101518800D02*
X115120000Y-101540800D01*
X114936300Y-101505500D02*
X115029000Y-101518800D01*
X114842500Y-101501100D02*
X114936300Y-101505500D01*
X106657600Y-101501100D02*
X114842500Y-101501100D01*
X106563800Y-101505500D02*
X106657600Y-101501100D01*
X106471000Y-101518800D02*
X106563800Y-101505500D01*
X106380000Y-101540700D02*
X106471000Y-101518800D01*
X106291400Y-101571200D02*
X106380000Y-101540700D01*
X106206100Y-101609900D02*
X106291400Y-101571200D01*
X106124800Y-101656500D02*
X106206100Y-101609900D01*
X106048300Y-101710500D02*
X106124800Y-101656500D01*
X105977300Y-101771600D02*
X106048300Y-101710500D01*
X105912300Y-101839100D02*
X105977300Y-101771600D01*
X105854100Y-101912400D02*
X105912300Y-101839100D01*
X105803000Y-101990900D02*
X105854100Y-101912400D01*
X105759500Y-102073900D02*
X105803000Y-101990900D01*
X105701800Y-102215300D02*
X105759500Y-102073900D01*
X105683400Y-102250600D02*
X105701800Y-102215300D01*
X105655200Y-102294200D02*
X105683400Y-102250600D01*
X105621900Y-102335300D02*
X105655200Y-102294200D01*
X105565200Y-102390400D02*
X105621900Y-102335300D01*
X105494600Y-102463400D02*
X105565200Y-102390400D01*
X105432000Y-102543100D02*
X105494600Y-102463400D01*
X105378000Y-102628800D02*
X105432000Y-102543100D01*
X105332900Y-102719600D02*
X105378000Y-102628800D01*
X105297400Y-102814500D02*
X105332900Y-102719600D01*
X105271700Y-102912500D02*
X105297400Y-102814500D01*
X105256200Y-103012600D02*
X105271700Y-102912500D01*
X105251000Y-103114100D02*
X105256200Y-103012600D01*
X105251000Y-104008800D02*
X105251000Y-103114100D01*
X105255800Y-104106100D02*
X105251000Y-104008800D01*
X105270000Y-104202200D02*
X105255800Y-104106100D01*
X105293600Y-104296500D02*
X105270000Y-104202200D01*
X105326400Y-104387900D02*
X105293600Y-104296500D01*
X105367900Y-104475800D02*
X105326400Y-104387900D01*
X105417900Y-104559100D02*
X105367900Y-104475800D01*
X105475700Y-104637100D02*
X105417900Y-104559100D01*
X105541000Y-104709100D02*
X105475700Y-104637100D01*
X105613000Y-104774400D02*
X105541000Y-104709100D01*
X105691000Y-104832200D02*
X105613000Y-104774400D01*
X105774300Y-104882200D02*
X105691000Y-104832200D01*
X105862200Y-104923700D02*
X105774300Y-104882200D01*
X105953600Y-104956500D02*
X105862200Y-104923700D01*
X106047900Y-104980100D02*
X105953600Y-104956500D01*
X106144000Y-104994300D02*
X106047900Y-104980100D01*
X106241200Y-104999100D02*
X106144000Y-104994300D01*
X136243700Y-104999100D02*
X106241200Y-104999100D01*
X136667300Y-105020300D02*
X136243700Y-104999100D01*
X136692400Y-105022800D02*
X136667300Y-105020300D01*
X137105900Y-105086500D02*
X136692400Y-105022800D01*
X137522300Y-105194300D02*
X137105900Y-105086500D01*
X137926100Y-105343800D02*
X137522300Y-105194300D01*
X138301600Y-105527600D02*
X137926100Y-105343800D01*
X138323800Y-105540000D02*
X138301600Y-105527600D01*
X138667600Y-105754300D02*
X138323800Y-105540000D01*
X138688500Y-105768800D02*
X138667600Y-105754300D01*
X139019000Y-106025000D02*
X138688500Y-105768800D01*
X139321900Y-106312500D02*
X139019000Y-106025000D01*
X139339400Y-106330900D02*
X139321900Y-106312500D01*
X139611500Y-106648400D02*
X139339400Y-106330900D01*
X139857500Y-107001900D02*
X139611500Y-106648400D01*
X140066200Y-107377900D02*
X139857500Y-107001900D01*
X140236000Y-107773600D02*
X140066200Y-107377900D01*
X140364900Y-108184400D02*
X140236000Y-107773600D01*
X140451600Y-108606200D02*
X140364900Y-108184400D01*
X140495200Y-109034600D02*
X140451600Y-108606200D01*
X140495500Y-109452900D02*
X140495200Y-109034600D01*
X140494300Y-109478100D02*
X140495500Y-109452900D01*
X140453300Y-109881100D02*
X140494300Y-109478100D01*
X140449400Y-109906300D02*
X140453300Y-109881100D01*
X140364900Y-110315800D02*
X140449400Y-109906300D01*
X140236000Y-110726600D02*
X140364900Y-110315800D01*
X140066400Y-111121900D02*
X140236000Y-110726600D01*
X139863800Y-111487600D02*
X140066400Y-111121900D01*
X139850300Y-111509200D02*
X139863800Y-111487600D01*
X139618900Y-111841700D02*
X139850300Y-111509200D01*
X139603300Y-111861800D02*
X139618900Y-111841700D01*
X139330700Y-112178900D02*
X139603300Y-111861800D01*
X139018900Y-112475200D02*
X139330700Y-112178900D01*
X138678500Y-112738800D02*
X139018900Y-112475200D01*
X138323800Y-112960200D02*
X138678500Y-112738800D01*
X138301600Y-112972500D02*
X138323800Y-112960200D01*
X137937900Y-113151000D02*
X138301600Y-112972500D01*
X137914500Y-113161000D02*
X137937900Y-113151000D01*
X137522200Y-113305900D02*
X137914500Y-113161000D01*
X137118100Y-113410900D02*
X137522200Y-113305900D01*
X137093400Y-113416000D02*
X137118100Y-113410900D01*
X136679800Y-113479000D02*
X137093400Y-113416000D01*
X136243700Y-113501100D02*
X136679800Y-113479000D01*
X116249800Y-113501000D02*
X136243700Y-113501100D01*
X116197400Y-113498000D02*
X116249800Y-113501000D01*
X116146100Y-113489900D02*
X116197400Y-113498000D01*
X116095500Y-113476300D02*
X116146100Y-113489900D01*
X116058300Y-113462400D02*
X116095500Y-113476300D01*
X115999900Y-113433800D02*
X116058300Y-113462400D01*
X115966600Y-113412600D02*
X115999900Y-113433800D01*
X115945300Y-113397100D02*
X115966600Y-113412600D01*
X115905500Y-113363100D02*
X115945300Y-113397100D01*
X115878100Y-113335300D02*
X115905500Y-113363100D01*
X115853000Y-113304800D02*
X115878100Y-113335300D01*
X115816300Y-113250200D02*
X115853000Y-113304800D01*
X115792500Y-113203500D02*
X115816300Y-113250200D01*
X115740500Y-113073900D02*
X115792500Y-113203500D01*
X115697000Y-112990900D02*
X115740500Y-113073900D01*
X115645900Y-112912400D02*
X115697000Y-112990900D01*
X115587700Y-112839100D02*
X115645900Y-112912400D01*
X115522700Y-112771600D02*
X115587700Y-112839100D01*
X115451700Y-112710600D02*
X115522700Y-112771600D01*
X115375200Y-112656500D02*
X115451700Y-112710600D01*
X115293900Y-112609900D02*
X115375200Y-112656500D01*
X115208600Y-112571200D02*
X115293900Y-112609900D01*
X115120000Y-112540800D02*
X115208600Y-112571200D01*
X115029000Y-112518800D02*
X115120000Y-112540800D01*
X114936300Y-112505500D02*
X115029000Y-112518800D01*
X114842500Y-112501100D02*
X114936300Y-112505500D01*
X106657500Y-112501100D02*
X114842500Y-112501100D01*
X106563700Y-112505500D02*
X106657500Y-112501100D01*
X106471000Y-112518800D02*
X106563700Y-112505500D01*
X106380000Y-112540700D02*
X106471000Y-112518800D01*
X106291400Y-112571200D02*
X106380000Y-112540700D01*
X106206100Y-112609900D02*
X106291400Y-112571200D01*
X106124800Y-112656500D02*
X106206100Y-112609900D01*
X106048300Y-112710600D02*
X106124800Y-112656500D01*
X105977300Y-112771600D02*
X106048300Y-112710600D01*
X105912300Y-112839100D02*
X105977300Y-112771600D01*
X105854100Y-112912400D02*
X105912300Y-112839100D01*
X105803000Y-112990900D02*
X105854100Y-112912400D01*
X105759500Y-113073900D02*
X105803000Y-112990900D01*
X105701800Y-113215300D02*
X105759500Y-113073900D01*
X105683700Y-113250200D02*
X105701800Y-113215300D01*
X105662300Y-113283700D02*
X105683700Y-113250200D01*
X105621900Y-113335300D02*
X105662300Y-113283700D01*
X105565200Y-113390400D02*
X105621900Y-113335300D01*
X105494600Y-113463500D02*
X105565200Y-113390400D01*
X105432000Y-113543200D02*
X105494600Y-113463500D01*
X105378000Y-113628800D02*
X105432000Y-113543200D01*
X105332900Y-113719600D02*
X105378000Y-113628800D01*
X105297400Y-113814500D02*
X105332900Y-113719600D01*
X105271700Y-113912500D02*
X105297400Y-113814500D01*
X105256200Y-114012600D02*
X105271700Y-113912500D01*
X105251000Y-114114100D02*
X105256200Y-114012600D01*
X105251000Y-115008900D02*
X105251000Y-114114100D01*
X105255800Y-115106100D02*
X105251000Y-115008900D01*
X105270000Y-115202200D02*
X105255800Y-115106100D01*
X105293600Y-115296500D02*
X105270000Y-115202200D01*
X105326400Y-115388000D02*
X105293600Y-115296500D01*
X105367900Y-115475800D02*
X105326400Y-115388000D01*
X105417900Y-115559100D02*
X105367900Y-115475800D01*
X105475700Y-115637100D02*
X105417900Y-115559100D01*
X105541000Y-115709100D02*
X105475700Y-115637100D01*
X105613000Y-115774400D02*
X105541000Y-115709100D01*
X105691000Y-115832300D02*
X105613000Y-115774400D01*
X105774300Y-115882200D02*
X105691000Y-115832300D01*
X105862200Y-115923700D02*
X105774300Y-115882200D01*
X105953600Y-115956500D02*
X105862200Y-115923700D01*
X106047900Y-115980100D02*
X105953600Y-115956500D01*
X106144000Y-115994300D02*
X106047900Y-115980100D01*
X106241200Y-115999100D02*
X106144000Y-115994300D01*
X136243700Y-115999100D02*
X106241200Y-115999100D01*
X136667300Y-116020300D02*
X136243700Y-115999100D01*
X136692400Y-116022800D02*
X136667300Y-116020300D01*
X137105900Y-116086500D02*
X136692400Y-116022800D01*
X137522300Y-116194300D02*
X137105900Y-116086500D01*
X137926100Y-116343800D02*
X137522300Y-116194300D01*
X138301600Y-116527600D02*
X137926100Y-116343800D01*
X138323800Y-116540000D02*
X138301600Y-116527600D01*
X138667600Y-116754300D02*
X138323800Y-116540000D01*
X138688500Y-116768800D02*
X138667600Y-116754300D01*
X139019000Y-117025100D02*
X138688500Y-116768800D01*
X139321900Y-117312500D02*
X139019000Y-117025100D01*
X139339400Y-117331000D02*
X139321900Y-117312500D01*
X139611500Y-117648500D02*
X139339400Y-117331000D01*
X139857500Y-118001900D02*
X139611500Y-117648500D01*
X140066200Y-118377900D02*
X139857500Y-118001900D01*
X140236000Y-118773600D02*
X140066200Y-118377900D01*
X140364900Y-119184400D02*
X140236000Y-118773600D01*
X140451600Y-119606200D02*
X140364900Y-119184400D01*
X140495200Y-120034600D02*
X140451600Y-119606200D01*
X140495500Y-120452700D02*
X140495200Y-120034600D01*
X140494300Y-120478100D02*
X140495500Y-120452700D01*
X140453300Y-120881100D02*
X140494300Y-120478100D01*
X140449400Y-120906300D02*
X140453300Y-120881100D01*
X140364900Y-121315800D02*
X140449400Y-120906300D01*
X140236200Y-121726200D02*
X140364900Y-121315800D01*
X140066400Y-122121900D02*
X140236200Y-121726200D01*
X139863800Y-122487600D02*
X140066400Y-122121900D01*
X139850300Y-122509200D02*
X139863800Y-122487600D01*
X139618900Y-122841700D02*
X139850300Y-122509200D01*
X139603300Y-122861800D02*
X139618900Y-122841700D01*
X139330700Y-123178900D02*
X139603300Y-122861800D01*
X139018900Y-123475200D02*
X139330700Y-123178900D01*
X138678500Y-123738800D02*
X139018900Y-123475200D01*
X138323800Y-123960200D02*
X138678500Y-123738800D01*
X138301600Y-123972600D02*
X138323800Y-123960200D01*
X137937900Y-124151000D02*
X138301600Y-123972600D01*
X137914500Y-124161000D02*
X137937900Y-124151000D01*
X137522200Y-124305900D02*
X137914500Y-124161000D01*
X137118100Y-124410900D02*
X137522200Y-124305900D01*
X137093400Y-124416000D02*
X137118100Y-124410900D01*
X136679800Y-124479000D02*
X137093400Y-124416000D01*
X136243700Y-124501100D02*
X136679800Y-124479000D01*
X116249800Y-124501000D02*
X136243700Y-124501100D01*
X116197400Y-124498000D02*
X116249800Y-124501000D01*
X116146100Y-124489900D02*
X116197400Y-124498000D01*
X116095500Y-124476300D02*
X116146100Y-124489900D01*
X116058300Y-124462400D02*
X116095500Y-124476300D01*
X115999900Y-124433800D02*
X116058300Y-124462400D01*
X115966600Y-124412600D02*
X115999900Y-124433800D01*
X115945300Y-124397200D02*
X115966600Y-124412600D01*
X115905500Y-124363100D02*
X115945300Y-124397200D01*
X115878100Y-124335300D02*
X115905500Y-124363100D01*
X115853000Y-124304800D02*
X115878100Y-124335300D01*
X115816300Y-124250200D02*
X115853000Y-124304800D01*
X115792500Y-124203500D02*
X115816300Y-124250200D01*
X115740500Y-124073900D02*
X115792500Y-124203500D01*
X115697000Y-123990900D02*
X115740500Y-124073900D01*
X115645900Y-123912400D02*
X115697000Y-123990900D01*
X115587700Y-123839100D02*
X115645900Y-123912400D01*
X115522700Y-123771600D02*
X115587700Y-123839100D01*
X115451700Y-123710600D02*
X115522700Y-123771600D01*
X115375200Y-123656500D02*
X115451700Y-123710600D01*
X115293900Y-123609900D02*
X115375200Y-123656500D01*
X115208600Y-123571200D02*
X115293900Y-123609900D01*
X115120000Y-123540800D02*
X115208600Y-123571200D01*
X115029000Y-123518800D02*
X115120000Y-123540800D01*
X114936200Y-123505500D02*
X115029000Y-123518800D01*
X114842400Y-123501100D02*
X114936200Y-123505500D01*
X106657500Y-123501100D02*
X114842400Y-123501100D01*
X106563700Y-123505600D02*
X106657500Y-123501100D01*
X106471000Y-123518800D02*
X106563700Y-123505600D01*
X106380000Y-123540800D02*
X106471000Y-123518800D01*
X106291400Y-123571200D02*
X106380000Y-123540800D01*
X106206100Y-123609900D02*
X106291400Y-123571200D01*
X106124800Y-123656500D02*
X106206100Y-123609900D01*
X106048300Y-123710600D02*
X106124800Y-123656500D01*
X105977300Y-123771600D02*
X106048300Y-123710600D01*
X105912300Y-123839100D02*
X105977300Y-123771600D01*
X105854100Y-123912400D02*
X105912300Y-123839100D01*
X105803000Y-123990900D02*
X105854100Y-123912400D01*
X105759500Y-124073900D02*
X105803000Y-123990900D01*
X105701800Y-124215400D02*
X105759500Y-124073900D01*
X105683700Y-124250200D02*
X105701800Y-124215400D01*
X105662300Y-124283800D02*
X105683700Y-124250200D01*
X105621900Y-124335300D02*
X105662300Y-124283800D01*
X105565200Y-124390400D02*
X105621900Y-124335300D01*
X105494600Y-124463500D02*
X105565200Y-124390400D01*
X105432000Y-124543200D02*
X105494600Y-124463500D01*
X105378000Y-124628800D02*
X105432000Y-124543200D01*
X105332900Y-124719600D02*
X105378000Y-124628800D01*
X105297400Y-124814500D02*
X105332900Y-124719600D01*
X105271700Y-124912500D02*
X105297400Y-124814500D01*
X105256200Y-125012600D02*
X105271700Y-124912500D01*
X105251000Y-125114100D02*
X105256200Y-125012600D01*
X105251000Y-126008900D02*
X105251000Y-125114100D01*
X105255800Y-126106200D02*
X105251000Y-126008900D01*
X105270000Y-126202300D02*
X105255800Y-126106200D01*
X105293600Y-126296500D02*
X105270000Y-126202300D01*
X105326400Y-126388000D02*
X105293600Y-126296500D01*
X105367900Y-126475800D02*
X105326400Y-126388000D01*
X105417900Y-126559100D02*
X105367900Y-126475800D01*
X105475700Y-126637200D02*
X105417900Y-126559100D01*
X105541000Y-126709100D02*
X105475700Y-126637200D01*
X105613000Y-126774400D02*
X105541000Y-126709100D01*
X105691000Y-126832300D02*
X105613000Y-126774400D01*
X105774300Y-126882200D02*
X105691000Y-126832300D01*
X105862200Y-126923700D02*
X105774300Y-126882200D01*
X105953600Y-126956500D02*
X105862200Y-126923700D01*
X106047900Y-126980100D02*
X105953600Y-126956500D01*
X106144000Y-126994300D02*
X106047900Y-126980100D01*
X106241200Y-126999100D02*
X106144000Y-126994300D01*
X136243700Y-126999100D02*
X106241200Y-126999100D01*
X136667300Y-127020300D02*
X136243700Y-126999100D01*
X136692600Y-127022900D02*
X136667300Y-127020300D01*
X137105900Y-127086500D02*
X136692600Y-127022900D01*
X137522300Y-127194300D02*
X137105900Y-127086500D01*
X137926100Y-127343800D02*
X137522300Y-127194300D01*
X138301600Y-127527700D02*
X137926100Y-127343800D01*
X138323800Y-127540000D02*
X138301600Y-127527700D01*
X138667600Y-127754300D02*
X138323800Y-127540000D01*
X138688500Y-127768800D02*
X138667600Y-127754300D01*
X139019000Y-128025100D02*
X138688500Y-127768800D01*
X139321900Y-128312500D02*
X139019000Y-128025100D01*
X139339400Y-128331000D02*
X139321900Y-128312500D01*
X139611500Y-128648500D02*
X139339400Y-128331000D01*
X139857500Y-129001900D02*
X139611500Y-128648500D01*
X140066200Y-129378000D02*
X139857500Y-129001900D01*
X140236000Y-129773600D02*
X140066200Y-129378000D01*
X140364900Y-130184500D02*
X140236000Y-129773600D01*
X140451600Y-130606200D02*
X140364900Y-130184500D01*
X140495200Y-131034600D02*
X140451600Y-130606200D01*
X140495500Y-131452700D02*
X140495200Y-131034600D01*
X140494300Y-131478100D02*
X140495500Y-131452700D01*
X140453300Y-131881200D02*
X140494300Y-131478100D01*
X140449400Y-131906300D02*
X140453300Y-131881200D01*
X140364900Y-132315800D02*
X140449400Y-131906300D01*
X140236200Y-132726200D02*
X140364900Y-132315800D01*
X140066400Y-133121900D02*
X140236200Y-132726200D01*
X139863800Y-133487600D02*
X140066400Y-133121900D01*
X139850300Y-133509200D02*
X139863800Y-133487600D01*
X139618900Y-133841700D02*
X139850300Y-133509200D01*
X139603300Y-133861800D02*
X139618900Y-133841700D01*
X139330700Y-134178900D02*
X139603300Y-133861800D01*
X139018900Y-134475200D02*
X139330700Y-134178900D01*
X138678500Y-134738800D02*
X139018900Y-134475200D01*
X138323800Y-134960200D02*
X138678500Y-134738800D01*
X138301600Y-134972600D02*
X138323800Y-134960200D01*
X137937900Y-135151000D02*
X138301600Y-134972600D01*
X137914500Y-135161000D02*
X137937900Y-135151000D01*
X137522200Y-135305900D02*
X137914500Y-135161000D01*
X137118100Y-135410900D02*
X137522200Y-135305900D01*
X137093400Y-135416000D02*
X137118100Y-135410900D01*
X136679800Y-135479000D02*
X137093400Y-135416000D01*
X136243700Y-135501100D02*
X136679800Y-135479000D01*
X116249800Y-135501000D02*
X136243700Y-135501100D01*
X116197400Y-135498000D02*
X116249800Y-135501000D01*
X116146100Y-135489900D02*
X116197400Y-135498000D01*
X116095500Y-135476300D02*
X116146100Y-135489900D01*
X116058300Y-135462400D02*
X116095500Y-135476300D01*
X115999900Y-135433800D02*
X116058300Y-135462400D01*
X115966600Y-135412600D02*
X115999900Y-135433800D01*
X115945300Y-135397200D02*
X115966600Y-135412600D01*
X115905500Y-135363100D02*
X115945300Y-135397200D01*
X115878100Y-135335300D02*
X115905500Y-135363100D01*
X115853000Y-135304800D02*
X115878100Y-135335300D01*
X115816300Y-135250200D02*
X115853000Y-135304800D01*
X115792500Y-135203500D02*
X115816300Y-135250200D01*
X115740500Y-135073900D02*
X115792500Y-135203500D01*
X115697000Y-134990900D02*
X115740500Y-135073900D01*
X115645900Y-134912400D02*
X115697000Y-134990900D01*
X115587600Y-134839100D02*
X115645900Y-134912400D01*
X115522700Y-134771600D02*
X115587600Y-134839100D01*
X115451700Y-134710600D02*
X115522700Y-134771600D01*
X115375200Y-134656500D02*
X115451700Y-134710600D01*
X115293900Y-134609900D02*
X115375200Y-134656500D01*
X115208600Y-134571200D02*
X115293900Y-134609900D01*
X115120000Y-134540800D02*
X115208600Y-134571200D01*
X115029000Y-134518800D02*
X115120000Y-134540800D01*
X114936200Y-134505500D02*
X115029000Y-134518800D01*
X114842400Y-134501100D02*
X114936200Y-134505500D01*
X106657500Y-134501100D02*
X114842400Y-134501100D01*
X106563700Y-134505600D02*
X106657500Y-134501100D01*
X106471000Y-134518800D02*
X106563700Y-134505600D01*
X106380000Y-134540800D02*
X106471000Y-134518800D01*
X106291400Y-134571200D02*
X106380000Y-134540800D01*
X106206100Y-134609900D02*
X106291400Y-134571200D01*
X106124800Y-134656500D02*
X106206100Y-134609900D01*
X106048300Y-134710600D02*
X106124800Y-134656500D01*
X105977300Y-134771600D02*
X106048300Y-134710600D01*
X105912300Y-134839100D02*
X105977300Y-134771600D01*
X105854100Y-134912500D02*
X105912300Y-134839100D01*
X105803000Y-134991000D02*
X105854100Y-134912500D01*
X105759500Y-135073900D02*
X105803000Y-134991000D01*
X105701800Y-135215400D02*
X105759500Y-135073900D01*
X105683700Y-135250200D02*
X105701800Y-135215400D01*
X105662300Y-135283800D02*
X105683700Y-135250200D01*
X105621900Y-135335300D02*
X105662300Y-135283800D01*
X105565200Y-135390400D02*
X105621900Y-135335300D01*
X105494600Y-135463500D02*
X105565200Y-135390400D01*
X105432000Y-135543200D02*
X105494600Y-135463500D01*
X105378000Y-135628900D02*
X105432000Y-135543200D01*
X105332900Y-135719600D02*
X105378000Y-135628900D01*
X105297400Y-135814500D02*
X105332900Y-135719600D01*
X105271700Y-135912500D02*
X105297400Y-135814500D01*
X105256200Y-136012700D02*
X105271700Y-135912500D01*
X105251000Y-136114100D02*
X105256200Y-136012700D01*
X105251000Y-137009900D02*
X105251000Y-136114100D01*
X105255800Y-137107200D02*
X105251000Y-137009900D01*
X105270000Y-137203300D02*
X105255800Y-137107200D01*
X105293600Y-137297500D02*
X105270000Y-137203300D01*
X105326400Y-137389000D02*
X105293600Y-137297500D01*
X105367900Y-137476800D02*
X105326400Y-137389000D01*
X105417900Y-137560200D02*
X105367900Y-137476800D01*
X105475700Y-137638200D02*
X105417900Y-137560200D01*
X105541000Y-137710200D02*
X105475700Y-137638200D01*
X105613000Y-137775400D02*
X105541000Y-137710200D01*
X105691000Y-137833300D02*
X105613000Y-137775400D01*
X105774300Y-137883200D02*
X105691000Y-137833300D01*
X105862200Y-137924800D02*
X105774300Y-137883200D01*
X105953600Y-137957500D02*
X105862200Y-137924800D01*
X106047900Y-137981100D02*
X105953600Y-137957500D01*
X106144000Y-137995400D02*
X106047900Y-137981100D01*
X106241200Y-138000100D02*
X106144000Y-137995400D01*
X140486300Y-138000900D02*
X106241200Y-138000100D01*
X140490800Y-138002800D02*
X140486300Y-138000900D01*
X140494300Y-138007500D02*
X140490800Y-138002800D01*
X140495500Y-138024700D02*
X140494300Y-138007500D01*
X140495500Y-141976600D02*
X140495500Y-138024700D01*
X140494800Y-141991900D02*
X140495500Y-141976600D01*
X140491600Y-141997900D02*
X140494800Y-141991900D01*
X140486300Y-142000400D02*
X140491600Y-141997900D01*
X140471000Y-142001100D02*
X140486300Y-142000400D01*
X50029000Y-142001100D02*
X140471000Y-142001100D01*
X50013700Y-142000400D02*
X50029000Y-142001100D01*
X50007700Y-141997200D02*
X50013700Y-142000400D01*
X50005200Y-141991900D02*
X50007700Y-141997200D01*
X50004500Y-141976600D02*
X50005200Y-141991900D01*
X50004500Y-138024700D02*
X50004500Y-141976600D01*
X50005700Y-138007500D02*
X50004500Y-138024700D01*
X50008400Y-138003400D02*
X50005700Y-138007500D01*
X50013700Y-138000900D02*
X50008400Y-138003400D01*
X84258800Y-138000100D02*
X50013700Y-138000900D01*
X84356000Y-137995400D02*
X84258800Y-138000100D01*
X84452100Y-137981100D02*
X84356000Y-137995400D01*
X84546400Y-137957500D02*
X84452100Y-137981100D01*
X84637900Y-137924800D02*
X84546400Y-137957500D01*
X84725700Y-137883200D02*
X84637900Y-137924800D01*
X84809000Y-137833300D02*
X84725700Y-137883200D01*
X84887000Y-137775400D02*
X84809000Y-137833300D01*
X84959000Y-137710200D02*
X84887000Y-137775400D01*
X85024300Y-137638200D02*
X84959000Y-137710200D01*
X85082100Y-137560200D02*
X85024300Y-137638200D01*
X85132100Y-137476800D02*
X85082100Y-137560200D01*
X85173600Y-137389000D02*
X85132100Y-137476800D01*
X85206400Y-137297500D02*
X85173600Y-137389000D01*
X85230000Y-137203300D02*
X85206400Y-137297500D01*
X85244200Y-137107200D02*
X85230000Y-137203300D01*
X85249000Y-137009900D02*
X85244200Y-137107200D01*
X85249000Y-136114100D02*
X85249000Y-137009900D01*
X85244400Y-136019000D02*
X85249000Y-136114100D01*
X85230800Y-135925000D02*
X85244400Y-136019000D01*
X85208300Y-135832800D02*
X85230800Y-135925000D01*
X85177000Y-135743100D02*
X85208300Y-135832800D01*
X85137200Y-135656900D02*
X85177000Y-135743100D01*
X85089400Y-135574800D02*
X85137200Y-135656900D01*
X85033900Y-135497800D02*
X85089400Y-135574800D01*
X84971300Y-135426400D02*
X85033900Y-135497800D01*
X84878100Y-135335300D02*
X84971300Y-135426400D01*
X84844800Y-135294200D02*
X84878100Y-135335300D01*
X84816500Y-135250700D02*
X84844800Y-135294200D01*
X84798200Y-135215400D02*
X84816500Y-135250700D01*
X84740500Y-135073900D02*
X84798200Y-135215400D01*
X84697000Y-134990900D02*
X84740500Y-135073900D01*
X84645900Y-134912400D02*
X84697000Y-134990900D01*
X84587600Y-134839100D02*
X84645900Y-134912400D01*
X84522700Y-134771600D02*
X84587600Y-134839100D01*
X84451700Y-134710600D02*
X84522700Y-134771600D01*
X84375200Y-134656500D02*
X84451700Y-134710600D01*
X84293900Y-134609900D02*
X84375200Y-134656500D01*
X84208600Y-134571200D02*
X84293900Y-134609900D01*
X84120000Y-134540800D02*
X84208600Y-134571200D01*
X84029000Y-134518800D02*
X84120000Y-134540800D01*
X83936200Y-134505500D02*
X84029000Y-134518800D01*
X83842400Y-134501100D02*
X83936200Y-134505500D01*
X75657500Y-134501100D02*
X83842400Y-134501100D01*
X75563700Y-134505600D02*
X75657500Y-134501100D01*
X75471000Y-134518800D02*
X75563700Y-134505600D01*
X75380000Y-134540800D02*
X75471000Y-134518800D01*
X75291400Y-134571200D02*
X75380000Y-134540800D01*
X75206100Y-134609900D02*
X75291400Y-134571200D01*
X75124800Y-134656500D02*
X75206100Y-134609900D01*
X75048300Y-134710600D02*
X75124800Y-134656500D01*
X74977300Y-134771600D02*
X75048300Y-134710600D01*
X74912300Y-134839100D02*
X74977300Y-134771600D01*
X74854100Y-134912500D02*
X74912300Y-134839100D01*
X74803000Y-134991000D02*
X74854100Y-134912500D01*
X74759500Y-135073900D02*
X74803000Y-134991000D01*
X74707500Y-135203500D02*
X74759500Y-135073900D01*
X74683700Y-135250200D02*
X74707500Y-135203500D01*
X74647000Y-135304800D02*
X74683700Y-135250200D01*
X74622200Y-135335000D02*
X74647000Y-135304800D01*
X74594500Y-135363100D02*
X74622200Y-135335000D01*
X74575000Y-135380700D02*
X74594500Y-135363100D01*
X74533500Y-135412600D02*
X74575000Y-135380700D01*
X74500100Y-135433800D02*
X74533500Y-135412600D01*
X74441700Y-135462400D02*
X74500100Y-135433800D01*
X74404400Y-135476400D02*
X74441700Y-135462400D01*
X74353800Y-135489900D02*
X74404400Y-135476400D01*
X74302600Y-135498000D02*
X74353800Y-135489900D01*
X74250100Y-135501000D02*
X74302600Y-135498000D01*
X54256300Y-135501100D02*
X74250100Y-135501000D01*
X53820200Y-135479000D02*
X54256300Y-135501100D01*
X53406900Y-135416000D02*
X53820200Y-135479000D01*
X53382000Y-135410900D02*
X53406900Y-135416000D01*
X52989700Y-135309400D02*
X53382000Y-135410900D01*
X52965500Y-135301800D02*
X52989700Y-135309400D01*
X52573500Y-135156200D02*
X52965500Y-135301800D01*
X52187300Y-134966800D02*
X52573500Y-135156200D01*
X51821900Y-134739100D02*
X52187300Y-134966800D01*
X51491100Y-134483400D02*
X51821900Y-134739100D01*
X51471800Y-134466800D02*
X51491100Y-134483400D01*
X51178100Y-134187700D02*
X51471800Y-134466800D01*
X51160600Y-134169300D02*
X51178100Y-134187700D01*
X50888500Y-133851800D02*
X51160600Y-134169300D01*
X50642800Y-133498800D02*
X50888500Y-133851800D01*
X50433800Y-133122300D02*
X50642800Y-133498800D01*
X50268600Y-132738200D02*
X50433800Y-133122300D01*
X50259800Y-132714400D02*
X50268600Y-132738200D01*
X50138500Y-132327800D02*
X50259800Y-132714400D01*
X50132100Y-132303200D02*
X50138500Y-132327800D01*
X50048300Y-131893500D02*
X50132100Y-132303200D01*
X50005700Y-131478100D02*
X50048300Y-131893500D01*
X50004500Y-131452700D02*
X50005700Y-131478100D01*
X50004800Y-131034600D02*
X50004500Y-131452700D01*
X50048300Y-130606700D02*
X50004800Y-131034600D01*
X50135000Y-130184900D02*
X50048300Y-130606700D01*
X50259800Y-129785900D02*
X50135000Y-130184900D01*
X50268600Y-129762000D02*
X50259800Y-129785900D01*
X50428400Y-129389700D02*
X50268600Y-129762000D01*
X50439600Y-129366900D02*
X50428400Y-129389700D01*
X50642800Y-129001400D02*
X50439600Y-129366900D01*
X50881100Y-128658500D02*
X50642800Y-129001400D01*
X50896700Y-128638400D02*
X50881100Y-128658500D01*
X51169300Y-128321400D02*
X50896700Y-128638400D01*
X51481400Y-128024700D02*
X51169300Y-128321400D01*
X51821500Y-127761500D02*
X51481400Y-128024700D01*
X52186900Y-127533700D02*
X51821500Y-127761500D01*
X52573500Y-127344000D02*
X52186900Y-127533700D01*
X52977300Y-127194500D02*
X52573500Y-127344000D01*
X53394100Y-127086500D02*
X52977300Y-127194500D01*
X53807300Y-127022900D02*
X53394100Y-127086500D01*
X53832600Y-127020300D02*
X53807300Y-127022900D01*
X54256300Y-126999100D02*
X53832600Y-127020300D01*
X84258800Y-126999100D02*
X54256300Y-126999100D01*
X84356000Y-126994300D02*
X84258800Y-126999100D01*
X84452100Y-126980100D02*
X84356000Y-126994300D01*
X84546400Y-126956500D02*
X84452100Y-126980100D01*
X84637900Y-126923700D02*
X84546400Y-126956500D01*
X84725700Y-126882200D02*
X84637900Y-126923700D01*
X84809000Y-126832300D02*
X84725700Y-126882200D01*
X84887000Y-126774400D02*
X84809000Y-126832300D01*
X84959000Y-126709100D02*
X84887000Y-126774400D01*
X85024300Y-126637200D02*
X84959000Y-126709100D01*
X85082100Y-126559100D02*
X85024300Y-126637200D01*
X85132100Y-126475800D02*
X85082100Y-126559100D01*
X85173600Y-126388000D02*
X85132100Y-126475800D01*
X85206400Y-126296500D02*
X85173600Y-126388000D01*
X85230000Y-126202200D02*
X85206400Y-126296500D01*
X85244200Y-126106100D02*
X85230000Y-126202200D01*
X85249000Y-126008900D02*
X85244200Y-126106100D01*
X85249000Y-125114100D02*
X85249000Y-126008900D01*
X85244400Y-125019000D02*
X85249000Y-125114100D01*
X85230800Y-124925000D02*
X85244400Y-125019000D01*
X85208300Y-124832800D02*
X85230800Y-124925000D01*
X85177000Y-124743100D02*
X85208300Y-124832800D01*
X85137200Y-124656900D02*
X85177000Y-124743100D01*
X85089400Y-124574800D02*
X85137200Y-124656900D01*
X85033900Y-124497700D02*
X85089400Y-124574800D01*
X84971300Y-124426300D02*
X85033900Y-124497700D01*
X84878100Y-124335300D02*
X84971300Y-124426300D01*
X84837700Y-124283800D02*
X84878100Y-124335300D01*
X84816500Y-124250600D02*
X84837700Y-124283800D01*
X84798200Y-124215400D02*
X84816500Y-124250600D01*
X84740500Y-124073900D02*
X84798200Y-124215400D01*
X84697000Y-123990900D02*
X84740500Y-124073900D01*
X84645900Y-123912400D02*
X84697000Y-123990900D01*
X84587700Y-123839100D02*
X84645900Y-123912400D01*
X84522700Y-123771600D02*
X84587700Y-123839100D01*
X84451700Y-123710600D02*
X84522700Y-123771600D01*
X84375200Y-123656500D02*
X84451700Y-123710600D01*
X84293900Y-123609900D02*
X84375200Y-123656500D01*
X84208600Y-123571200D02*
X84293900Y-123609900D01*
X84120000Y-123540800D02*
X84208600Y-123571200D01*
X84029000Y-123518800D02*
X84120000Y-123540800D01*
X83936200Y-123505500D02*
X84029000Y-123518800D01*
X83842400Y-123501100D02*
X83936200Y-123505500D01*
X75657500Y-123501100D02*
X83842400Y-123501100D01*
X75563700Y-123505600D02*
X75657500Y-123501100D01*
X75471000Y-123518800D02*
X75563700Y-123505600D01*
X75380000Y-123540800D02*
X75471000Y-123518800D01*
X75291400Y-123571200D02*
X75380000Y-123540800D01*
X75206100Y-123609900D02*
X75291400Y-123571200D01*
X75124800Y-123656500D02*
X75206100Y-123609900D01*
X75048300Y-123710600D02*
X75124800Y-123656500D01*
X74977300Y-123771600D02*
X75048300Y-123710600D01*
X74912300Y-123839100D02*
X74977300Y-123771600D01*
X74854100Y-123912400D02*
X74912300Y-123839100D01*
X74803000Y-123990900D02*
X74854100Y-123912400D01*
X74759500Y-124073900D02*
X74803000Y-123990900D01*
X74707500Y-124203500D02*
X74759500Y-124073900D01*
X74683700Y-124250200D02*
X74707500Y-124203500D01*
X74647000Y-124304800D02*
X74683700Y-124250200D01*
X74622200Y-124334900D02*
X74647000Y-124304800D01*
X74594500Y-124363100D02*
X74622200Y-124334900D01*
X74575000Y-124380700D02*
X74594500Y-124363100D01*
X74533500Y-124412600D02*
X74575000Y-124380700D01*
X74500100Y-124433800D02*
X74533500Y-124412600D01*
X74441700Y-124462400D02*
X74500100Y-124433800D01*
X74404400Y-124476300D02*
X74441700Y-124462400D01*
X74353800Y-124489900D02*
X74404400Y-124476300D01*
X74302600Y-124498000D02*
X74353800Y-124489900D01*
X74250100Y-124501000D02*
X74302600Y-124498000D01*
X54256300Y-124501100D02*
X74250100Y-124501000D01*
X53820200Y-124479000D02*
X54256300Y-124501100D01*
X53406600Y-124416000D02*
X53820200Y-124479000D01*
X53382000Y-124410900D02*
X53406600Y-124416000D01*
X52977700Y-124305900D02*
X53382000Y-124410900D01*
X52585500Y-124161000D02*
X52977700Y-124305900D01*
X52562200Y-124151000D02*
X52585500Y-124161000D01*
X52198400Y-123972600D02*
X52562200Y-124151000D01*
X52176200Y-123960200D02*
X52198400Y-123972600D01*
X51821500Y-123738700D02*
X52176200Y-123960200D01*
X51481400Y-123475500D02*
X51821500Y-123738700D01*
X51169300Y-123178800D02*
X51481400Y-123475500D01*
X50896700Y-122861800D02*
X51169300Y-123178800D01*
X50881100Y-122841700D02*
X50896700Y-122861800D01*
X50649700Y-122509200D02*
X50881100Y-122841700D01*
X50636200Y-122487600D02*
X50649700Y-122509200D01*
X50433600Y-122121800D02*
X50636200Y-122487600D01*
X50264000Y-121726600D02*
X50433600Y-122121800D01*
X50135100Y-121315800D02*
X50264000Y-121726600D01*
X50050600Y-120906300D02*
X50135100Y-121315800D01*
X50046700Y-120881200D02*
X50050600Y-120906300D01*
X50005700Y-120478100D02*
X50046700Y-120881200D01*
X50004500Y-120452700D02*
X50005700Y-120478100D01*
X50004800Y-120034500D02*
X50004500Y-120452700D01*
X50048300Y-119606700D02*
X50004800Y-120034500D01*
X50135000Y-119184900D02*
X50048300Y-119606700D01*
X50259800Y-118785900D02*
X50135000Y-119184900D01*
X50268600Y-118762000D02*
X50259800Y-118785900D01*
X50428400Y-118389700D02*
X50268600Y-118762000D01*
X50439600Y-118366900D02*
X50428400Y-118389700D01*
X50642800Y-118001400D02*
X50439600Y-118366900D01*
X50881100Y-117658500D02*
X50642800Y-118001400D01*
X50896700Y-117638400D02*
X50881100Y-117658500D01*
X51169300Y-117321300D02*
X50896700Y-117638400D01*
X51481400Y-117024700D02*
X51169300Y-117321300D01*
X51821500Y-116761400D02*
X51481400Y-117024700D01*
X52186900Y-116533700D02*
X51821500Y-116761400D01*
X52573500Y-116344000D02*
X52186900Y-116533700D01*
X52977300Y-116194400D02*
X52573500Y-116344000D01*
X53394100Y-116086500D02*
X52977300Y-116194400D01*
X53807300Y-116022800D02*
X53394100Y-116086500D01*
X53832600Y-116020300D02*
X53807300Y-116022800D01*
X54256300Y-115999100D02*
X53832600Y-116020300D01*
X84258800Y-115999100D02*
X54256300Y-115999100D01*
X84356000Y-115994300D02*
X84258800Y-115999100D01*
X84452100Y-115980100D02*
X84356000Y-115994300D01*
X84546400Y-115956500D02*
X84452100Y-115980100D01*
X84637900Y-115923700D02*
X84546400Y-115956500D01*
X84725700Y-115882200D02*
X84637900Y-115923700D01*
X84809000Y-115832200D02*
X84725700Y-115882200D01*
X84887000Y-115774400D02*
X84809000Y-115832200D01*
X84959000Y-115709100D02*
X84887000Y-115774400D01*
X85024300Y-115637100D02*
X84959000Y-115709100D01*
X85082100Y-115559100D02*
X85024300Y-115637100D01*
X85132100Y-115475800D02*
X85082100Y-115559100D01*
X85173600Y-115388000D02*
X85132100Y-115475800D01*
X85206400Y-115296500D02*
X85173600Y-115388000D01*
X85230000Y-115202200D02*
X85206400Y-115296500D01*
X85244200Y-115106100D02*
X85230000Y-115202200D01*
X85249000Y-115008900D02*
X85244200Y-115106100D01*
X85249000Y-114114100D02*
X85249000Y-115008900D01*
X85244400Y-114019000D02*
X85249000Y-114114100D01*
X85230800Y-113925000D02*
X85244400Y-114019000D01*
X85208300Y-113832700D02*
X85230800Y-113925000D01*
X85177000Y-113743100D02*
X85208300Y-113832700D01*
X85137200Y-113656800D02*
X85177000Y-113743100D01*
X85089400Y-113574800D02*
X85137200Y-113656800D01*
X85033900Y-113497700D02*
X85089400Y-113574800D01*
X84971300Y-113426300D02*
X85033900Y-113497700D01*
X84878100Y-113335300D02*
X84971300Y-113426300D01*
X84837700Y-113283800D02*
X84878100Y-113335300D01*
X84816500Y-113250600D02*
X84837700Y-113283800D01*
X84798200Y-113215400D02*
X84816500Y-113250600D01*
X84740500Y-113073900D02*
X84798200Y-113215400D01*
X84697000Y-112990900D02*
X84740500Y-113073900D01*
X84645900Y-112912400D02*
X84697000Y-112990900D01*
X84587700Y-112839100D02*
X84645900Y-112912400D01*
X84522700Y-112771600D02*
X84587700Y-112839100D01*
X84451700Y-112710600D02*
X84522700Y-112771600D01*
X84375200Y-112656500D02*
X84451700Y-112710600D01*
X84293900Y-112609900D02*
X84375200Y-112656500D01*
X84208600Y-112571200D02*
X84293900Y-112609900D01*
X84120000Y-112540800D02*
X84208600Y-112571200D01*
X84029000Y-112518800D02*
X84120000Y-112540800D01*
X83936300Y-112505500D02*
X84029000Y-112518800D01*
X83842500Y-112501100D02*
X83936300Y-112505500D01*
X75657500Y-112501100D02*
X83842500Y-112501100D01*
X75563700Y-112505500D02*
X75657500Y-112501100D01*
X75471000Y-112518800D02*
X75563700Y-112505500D01*
X75380000Y-112540700D02*
X75471000Y-112518800D01*
X75291400Y-112571200D02*
X75380000Y-112540700D01*
X75206100Y-112609900D02*
X75291400Y-112571200D01*
X75124800Y-112656500D02*
X75206100Y-112609900D01*
X75048300Y-112710600D02*
X75124800Y-112656500D01*
X74977300Y-112771600D02*
X75048300Y-112710600D01*
X74912300Y-112839100D02*
X74977300Y-112771600D01*
X74854100Y-112912400D02*
X74912300Y-112839100D01*
X74803000Y-112990900D02*
X74854100Y-112912400D01*
X74759500Y-113073900D02*
X74803000Y-112990900D01*
X74707500Y-113203500D02*
X74759500Y-113073900D01*
X74683700Y-113250200D02*
X74707500Y-113203500D01*
X74647000Y-113304800D02*
X74683700Y-113250200D01*
X74622200Y-113334900D02*
X74647000Y-113304800D01*
X74594500Y-113363100D02*
X74622200Y-113334900D01*
X74575000Y-113380700D02*
X74594500Y-113363100D01*
X74533500Y-113412600D02*
X74575000Y-113380700D01*
X74500100Y-113433800D02*
X74533500Y-113412600D01*
X74441700Y-113462400D02*
X74500100Y-113433800D01*
X74404400Y-113476300D02*
X74441700Y-113462400D01*
X74353800Y-113489900D02*
X74404400Y-113476300D01*
X74302600Y-113498000D02*
X74353800Y-113489900D01*
X74250100Y-113501000D02*
X74302600Y-113498000D01*
X54256300Y-113501100D02*
X74250100Y-113501000D01*
X53820200Y-113479000D02*
X54256300Y-113501100D01*
X53406600Y-113416000D02*
X53820200Y-113479000D01*
X53382000Y-113410900D02*
X53406600Y-113416000D01*
X52977700Y-113305900D02*
X53382000Y-113410900D01*
X52585500Y-113161000D02*
X52977700Y-113305900D01*
X52562200Y-113151000D02*
X52585500Y-113161000D01*
X52198400Y-112972600D02*
X52562200Y-113151000D01*
X52176200Y-112960200D02*
X52198400Y-112972600D01*
X51821500Y-112738700D02*
X52176200Y-112960200D01*
X51481400Y-112475500D02*
X51821500Y-112738700D01*
X51169300Y-112178800D02*
X51481400Y-112475500D01*
X50896700Y-111861800D02*
X51169300Y-112178800D01*
X50881100Y-111841700D02*
X50896700Y-111861800D01*
X50649700Y-111509200D02*
X50881100Y-111841700D01*
X50636200Y-111487600D02*
X50649700Y-111509200D01*
X50433600Y-111121800D02*
X50636200Y-111487600D01*
X50264000Y-110726600D02*
X50433600Y-111121800D01*
X50135100Y-110315800D02*
X50264000Y-110726600D01*
X50050600Y-109906300D02*
X50135100Y-110315800D01*
X50046700Y-109881200D02*
X50050600Y-109906300D01*
X50005700Y-109478100D02*
X50046700Y-109881200D01*
X50004500Y-109452700D02*
X50005700Y-109478100D01*
X50004800Y-109034500D02*
X50004500Y-109452700D01*
X50048400Y-108606100D02*
X50004800Y-109034500D01*
X50135000Y-108184900D02*
X50048400Y-108606100D01*
X50263800Y-107774000D02*
X50135000Y-108184900D01*
X50433600Y-107378300D02*
X50263800Y-107774000D01*
X50642600Y-107001800D02*
X50433600Y-107378300D01*
X50888500Y-106648400D02*
X50642600Y-107001800D01*
X51160600Y-106331000D02*
X50888500Y-106648400D01*
X51178100Y-106312500D02*
X51160600Y-106331000D01*
X51471800Y-106033400D02*
X51178100Y-106312500D01*
X51491100Y-106016800D02*
X51471800Y-106033400D01*
X51822000Y-105761100D02*
X51491100Y-106016800D01*
X52176200Y-105540000D02*
X51822000Y-105761100D01*
X52198400Y-105527600D02*
X52176200Y-105540000D01*
X52574000Y-105343800D02*
X52198400Y-105527600D01*
X52977300Y-105194400D02*
X52574000Y-105343800D01*
X53394100Y-105086500D02*
X52977300Y-105194400D01*
X53807600Y-105022800D02*
X53394100Y-105086500D01*
X53832600Y-105020300D02*
X53807600Y-105022800D01*
X54256300Y-104999100D02*
X53832600Y-105020300D01*
X84258800Y-104999100D02*
X54256300Y-104999100D01*
X84356000Y-104994300D02*
X84258800Y-104999100D01*
X84452100Y-104980100D02*
X84356000Y-104994300D01*
X84546400Y-104956500D02*
X84452100Y-104980100D01*
X84637900Y-104923700D02*
X84546400Y-104956500D01*
X84725700Y-104882200D02*
X84637900Y-104923700D01*
X84809000Y-104832200D02*
X84725700Y-104882200D01*
X84887000Y-104774400D02*
X84809000Y-104832200D01*
X84959000Y-104709100D02*
X84887000Y-104774400D01*
X85024300Y-104637100D02*
X84959000Y-104709100D01*
X85082100Y-104559100D02*
X85024300Y-104637100D01*
X85132100Y-104475800D02*
X85082100Y-104559100D01*
X85173600Y-104387900D02*
X85132100Y-104475800D01*
X85206400Y-104296500D02*
X85173600Y-104387900D01*
X85230000Y-104202200D02*
X85206400Y-104296500D01*
X85244200Y-104106100D02*
X85230000Y-104202200D01*
X85249000Y-104008900D02*
X85244200Y-104106100D01*
X85249000Y-103114000D02*
X85249000Y-104008900D01*
X85244400Y-103019000D02*
X85249000Y-103114000D01*
X85230800Y-102925000D02*
X85244400Y-103019000D01*
X85208300Y-102832700D02*
X85230800Y-102925000D01*
X85177000Y-102743100D02*
X85208300Y-102832700D01*
X85137200Y-102656800D02*
X85177000Y-102743100D01*
X85089400Y-102574800D02*
X85137200Y-102656800D01*
X85033900Y-102497700D02*
X85089400Y-102574800D01*
X84971300Y-102426300D02*
X85033900Y-102497700D01*
X84878100Y-102335300D02*
X84971300Y-102426300D01*
X84837700Y-102283700D02*
X84878100Y-102335300D01*
X84816500Y-102250600D02*
X84837700Y-102283700D01*
X84798200Y-102215300D02*
X84816500Y-102250600D01*
X84740500Y-102073900D02*
X84798200Y-102215300D01*
X84697000Y-101990900D02*
X84740500Y-102073900D01*
X84646000Y-101912400D02*
X84697000Y-101990900D01*
X84587700Y-101839100D02*
X84646000Y-101912400D01*
X84522700Y-101771600D02*
X84587700Y-101839100D01*
X84451700Y-101710600D02*
X84522700Y-101771600D01*
X84375200Y-101656500D02*
X84451700Y-101710600D01*
X84293900Y-101609900D02*
X84375200Y-101656500D01*
X84208600Y-101571200D02*
X84293900Y-101609900D01*
X84120000Y-101540800D02*
X84208600Y-101571200D01*
X84029000Y-101518800D02*
X84120000Y-101540800D01*
X83936300Y-101505500D02*
X84029000Y-101518800D01*
X83842500Y-101501100D02*
X83936300Y-101505500D01*
X75657600Y-101501100D02*
X83842500Y-101501100D01*
X75563800Y-101505500D02*
X75657600Y-101501100D01*
X75471000Y-101518800D02*
X75563800Y-101505500D01*
X75380000Y-101540700D02*
X75471000Y-101518800D01*
X75291400Y-101571200D02*
X75380000Y-101540700D01*
X75206100Y-101609900D02*
X75291400Y-101571200D01*
X75124800Y-101656500D02*
X75206100Y-101609900D01*
X75048300Y-101710500D02*
X75124800Y-101656500D01*
X74977300Y-101771600D02*
X75048300Y-101710500D01*
X74912300Y-101839100D02*
X74977300Y-101771600D01*
X74854100Y-101912400D02*
X74912300Y-101839100D01*
X74803000Y-101990900D02*
X74854100Y-101912400D01*
X74759500Y-102073900D02*
X74803000Y-101990900D01*
X74707500Y-102203500D02*
X74759500Y-102073900D01*
X74683700Y-102250200D02*
X74707500Y-102203500D01*
X74647000Y-102304800D02*
X74683700Y-102250200D01*
X74622200Y-102334900D02*
X74647000Y-102304800D01*
X74594500Y-102363100D02*
X74622200Y-102334900D01*
X74575000Y-102380700D02*
X74594500Y-102363100D01*
X74533500Y-102412500D02*
X74575000Y-102380700D01*
X74500100Y-102433800D02*
X74533500Y-102412500D01*
X74441700Y-102462400D02*
X74500100Y-102433800D01*
X74404400Y-102476300D02*
X74441700Y-102462400D01*
X74353800Y-102489800D02*
X74404400Y-102476300D01*
X74302600Y-102498000D02*
X74353800Y-102489800D01*
X74250100Y-102501000D02*
X74302600Y-102498000D01*
X54256300Y-102501100D02*
X74250100Y-102501000D01*
X53820200Y-102479000D02*
X54256300Y-102501100D01*
X53406600Y-102415900D02*
X53820200Y-102479000D01*
X53382000Y-102410900D02*
X53406600Y-102415900D01*
X52977700Y-102305900D02*
X53382000Y-102410900D01*
X52585500Y-102161000D02*
X52977700Y-102305900D01*
X52562200Y-102151000D02*
X52585500Y-102161000D01*
X52198400Y-101972500D02*
X52562200Y-102151000D01*
X52176200Y-101960200D02*
X52198400Y-101972500D01*
X51821500Y-101738700D02*
X52176200Y-101960200D01*
X51481400Y-101475500D02*
X51821500Y-101738700D01*
X51169300Y-101178800D02*
X51481400Y-101475500D01*
X50896700Y-100861800D02*
X51169300Y-101178800D01*
X50881100Y-100841700D02*
X50896700Y-100861800D01*
X50649700Y-100509200D02*
X50881100Y-100841700D01*
X50636200Y-100487600D02*
X50649700Y-100509200D01*
X50433600Y-100121800D02*
X50636200Y-100487600D01*
X50264000Y-99726600D02*
X50433600Y-100121800D01*
X50135100Y-99315700D02*
X50264000Y-99726600D01*
X50050600Y-98906300D02*
X50135100Y-99315700D01*
X50046700Y-98881100D02*
X50050600Y-98906300D01*
X50005700Y-98478100D02*
X50046700Y-98881100D01*
X50004500Y-98452700D02*
X50005700Y-98478100D01*
X50004800Y-98034500D02*
X50004500Y-98452700D01*
X50048400Y-97606100D02*
X50004800Y-98034500D01*
X50135000Y-97184900D02*
X50048400Y-97606100D01*
X50263800Y-96774000D02*
X50135000Y-97184900D01*
X50433600Y-96378300D02*
X50263800Y-96774000D01*
X50642600Y-96001800D02*
X50433600Y-96378300D01*
X50888500Y-95648400D02*
X50642600Y-96001800D01*
X51160600Y-95330900D02*
X50888500Y-95648400D01*
X51178100Y-95312500D02*
X51160600Y-95330900D01*
X51471800Y-95033400D02*
X51178100Y-95312500D01*
X51491100Y-95016800D02*
X51471800Y-95033400D01*
X51822000Y-94761100D02*
X51491100Y-95016800D01*
X52176200Y-94540000D02*
X51822000Y-94761100D01*
X52198400Y-94527600D02*
X52176200Y-94540000D01*
X52574000Y-94343800D02*
X52198400Y-94527600D01*
X52977300Y-94194400D02*
X52574000Y-94343800D01*
X53394100Y-94086500D02*
X52977300Y-94194400D01*
X53807600Y-94022800D02*
X53394100Y-94086500D01*
X53832600Y-94020200D02*
X53807600Y-94022800D01*
X54256300Y-93999100D02*
X53832600Y-94020200D01*
X84258800Y-93999100D02*
X54256300Y-93999100D01*
X84356000Y-93994300D02*
X84258800Y-93999100D01*
X84452100Y-93980100D02*
X84356000Y-93994300D01*
X84546400Y-93956400D02*
X84452100Y-93980100D01*
X84637900Y-93923700D02*
X84546400Y-93956400D01*
X84725700Y-93882200D02*
X84637900Y-93923700D01*
X84809000Y-93832200D02*
X84725700Y-93882200D01*
X84887000Y-93774400D02*
X84809000Y-93832200D01*
X84959000Y-93709100D02*
X84887000Y-93774400D01*
X85024300Y-93637100D02*
X84959000Y-93709100D01*
X85082100Y-93559100D02*
X85024300Y-93637100D01*
X85132100Y-93475800D02*
X85082100Y-93559100D01*
X85173600Y-93387900D02*
X85132100Y-93475800D01*
X85206400Y-93296500D02*
X85173600Y-93387900D01*
X85230000Y-93202200D02*
X85206400Y-93296500D01*
X85244200Y-93106100D02*
X85230000Y-93202200D01*
X85249000Y-93008800D02*
X85244200Y-93106100D01*
X85249000Y-92114000D02*
X85249000Y-93008800D01*
X85244400Y-92018900D02*
X85249000Y-92114000D01*
X85230800Y-91925000D02*
X85244400Y-92018900D01*
X85208300Y-91832700D02*
X85230800Y-91925000D01*
X85177000Y-91743100D02*
X85208300Y-91832700D01*
X85137200Y-91656800D02*
X85177000Y-91743100D01*
X85089400Y-91574800D02*
X85137200Y-91656800D01*
X85033900Y-91497700D02*
X85089400Y-91574800D01*
X84971300Y-91426300D02*
X85033900Y-91497700D01*
X84878100Y-91335200D02*
X84971300Y-91426300D01*
X84837700Y-91283700D02*
X84878100Y-91335200D01*
X84816500Y-91250600D02*
X84837700Y-91283700D01*
X84798200Y-91215300D02*
X84816500Y-91250600D01*
X84740500Y-91073900D02*
X84798200Y-91215300D01*
X84697100Y-90990900D02*
X84740500Y-91073900D01*
X84646000Y-90912400D02*
X84697100Y-90990900D01*
X84587700Y-90839100D02*
X84646000Y-90912400D01*
X84522700Y-90771600D02*
X84587700Y-90839100D01*
X84451700Y-90710600D02*
X84522700Y-90771600D01*
X84375200Y-90656500D02*
X84451700Y-90710600D01*
X84293900Y-90609900D02*
X84375200Y-90656500D01*
X84208600Y-90571200D02*
X84293900Y-90609900D01*
X84120100Y-90540800D02*
X84208600Y-90571200D01*
X84029000Y-90518800D02*
X84120100Y-90540800D01*
X83936300Y-90505500D02*
X84029000Y-90518800D01*
X83842500Y-90501100D02*
X83936300Y-90505500D01*
X75657600Y-90501100D02*
X83842500Y-90501100D01*
X75563800Y-90505500D02*
X75657600Y-90501100D01*
X75471000Y-90518800D02*
X75563800Y-90505500D01*
X75380000Y-90540700D02*
X75471000Y-90518800D01*
X75291400Y-90571200D02*
X75380000Y-90540700D01*
X75206100Y-90609900D02*
X75291400Y-90571200D01*
X75124800Y-90656500D02*
X75206100Y-90609900D01*
X75048300Y-90710500D02*
X75124800Y-90656500D01*
X74977300Y-90771600D02*
X75048300Y-90710500D01*
X74912300Y-90839100D02*
X74977300Y-90771600D01*
X74854100Y-90912400D02*
X74912300Y-90839100D01*
X74803000Y-90990900D02*
X74854100Y-90912400D01*
X74759500Y-91073900D02*
X74803000Y-90990900D01*
X74707500Y-91203500D02*
X74759500Y-91073900D01*
X74683700Y-91250200D02*
X74707500Y-91203500D01*
X74647000Y-91304800D02*
X74683700Y-91250200D01*
X74622200Y-91334900D02*
X74647000Y-91304800D01*
X74594500Y-91363100D02*
X74622200Y-91334900D01*
X74575000Y-91380600D02*
X74594500Y-91363100D01*
X74533500Y-91412500D02*
X74575000Y-91380600D01*
X74500100Y-91433800D02*
X74533500Y-91412500D01*
X74441700Y-91462400D02*
X74500100Y-91433800D01*
X74404400Y-91476300D02*
X74441700Y-91462400D01*
X74353800Y-91489800D02*
X74404400Y-91476300D01*
X74302600Y-91497900D02*
X74353800Y-91489800D01*
X74250100Y-91501000D02*
X74302600Y-91497900D01*
X54256300Y-91501100D02*
X74250100Y-91501000D01*
X53820200Y-91478900D02*
X54256300Y-91501100D01*
X53394600Y-91413800D02*
X53820200Y-91478900D01*
X52977700Y-91305900D02*
X53394600Y-91413800D01*
X52585500Y-91161000D02*
X52977700Y-91305900D01*
X52562200Y-91150900D02*
X52585500Y-91161000D01*
X52198400Y-90972500D02*
X52562200Y-91150900D01*
X52176200Y-90960200D02*
X52198400Y-90972500D01*
X51821500Y-90738700D02*
X52176200Y-90960200D01*
X51481400Y-90475400D02*
X51821500Y-90738700D01*
X51169300Y-90178800D02*
X51481400Y-90475400D01*
X50896700Y-89861800D02*
X51169300Y-90178800D01*
X50881100Y-89841700D02*
X50896700Y-89861800D01*
X50649700Y-89509100D02*
X50881100Y-89841700D01*
X50636200Y-89487600D02*
X50649700Y-89509100D01*
X50433600Y-89121800D02*
X50636200Y-89487600D01*
X50264000Y-88726600D02*
X50433600Y-89121800D01*
X50135100Y-88315700D02*
X50264000Y-88726600D01*
X50050600Y-87906300D02*
X50135100Y-88315700D01*
X50046700Y-87881100D02*
X50050600Y-87906300D01*
X50005700Y-87478000D02*
X50046700Y-87881100D01*
X50004500Y-87452600D02*
X50005700Y-87478000D01*
X50004800Y-87034500D02*
X50004500Y-87452600D01*
X50048400Y-86606100D02*
X50004800Y-87034500D01*
X50135000Y-86184800D02*
X50048400Y-86606100D01*
X50263800Y-85774000D02*
X50135000Y-86184800D01*
X50433600Y-85378300D02*
X50263800Y-85774000D01*
X50642600Y-85001800D02*
X50433600Y-85378300D01*
X50888500Y-84648400D02*
X50642600Y-85001800D01*
X51160600Y-84330900D02*
X50888500Y-84648400D01*
X51178100Y-84312500D02*
X51160600Y-84330900D01*
X51471800Y-84033400D02*
X51178100Y-84312500D01*
X51491100Y-84016800D02*
X51471800Y-84033400D01*
X51822000Y-83761100D02*
X51491100Y-84016800D01*
X52176200Y-83539900D02*
X51822000Y-83761100D01*
X52198400Y-83527600D02*
X52176200Y-83539900D01*
X52574000Y-83343800D02*
X52198400Y-83527600D01*
X52977300Y-83194400D02*
X52574000Y-83343800D01*
X53394100Y-83086400D02*
X52977300Y-83194400D01*
X53807600Y-83022800D02*
X53394100Y-83086400D01*
X53832700Y-83020200D02*
X53807600Y-83022800D01*
X54256300Y-82999100D02*
X53832700Y-83020200D01*
X84258800Y-82999100D02*
X54256300Y-82999100D01*
X84356000Y-82994300D02*
X84258800Y-82999100D01*
X84452100Y-82980000D02*
X84356000Y-82994300D01*
X84546400Y-82956400D02*
X84452100Y-82980000D01*
X84637900Y-82923700D02*
X84546400Y-82956400D01*
X84725700Y-82882200D02*
X84637900Y-82923700D01*
X84809000Y-82832200D02*
X84725700Y-82882200D01*
X84887000Y-82774400D02*
X84809000Y-82832200D01*
X84959000Y-82709100D02*
X84887000Y-82774400D01*
X85024300Y-82637100D02*
X84959000Y-82709100D01*
X85082100Y-82559100D02*
X85024300Y-82637100D01*
X85132100Y-82475800D02*
X85082100Y-82559100D01*
X85173600Y-82387900D02*
X85132100Y-82475800D01*
X85206400Y-82296500D02*
X85173600Y-82387900D01*
X85230000Y-82202200D02*
X85206400Y-82296500D01*
X85244200Y-82106100D02*
X85230000Y-82202200D01*
X85249000Y-82008800D02*
X85244200Y-82106100D01*
X85249000Y-81114000D02*
X85249000Y-82008800D01*
X85244400Y-81018900D02*
X85249000Y-81114000D01*
X85230800Y-80924900D02*
X85244400Y-81018900D01*
X85208300Y-80832700D02*
X85230800Y-80924900D01*
X85177000Y-80743000D02*
X85208300Y-80832700D01*
X85137200Y-80656800D02*
X85177000Y-80743000D01*
X85089400Y-80574800D02*
X85137200Y-80656800D01*
X85033900Y-80497700D02*
X85089400Y-80574800D01*
X84971300Y-80426300D02*
X85033900Y-80497700D01*
X84878100Y-80335200D02*
X84971300Y-80426300D01*
X84837700Y-80283700D02*
X84878100Y-80335200D01*
X84816500Y-80250600D02*
X84837700Y-80283700D01*
X84798200Y-80215300D02*
X84816500Y-80250600D01*
X84740500Y-80073800D02*
X84798200Y-80215300D01*
X84697000Y-79990800D02*
X84740500Y-80073800D01*
X84645900Y-79912300D02*
X84697000Y-79990800D01*
X84587600Y-79839000D02*
X84645900Y-79912300D01*
X84522700Y-79771500D02*
X84587600Y-79839000D01*
X84451600Y-79710500D02*
X84522700Y-79771500D01*
X84375200Y-79656400D02*
X84451600Y-79710500D01*
X84293900Y-79609800D02*
X84375200Y-79656400D01*
X84208600Y-79571100D02*
X84293900Y-79609800D01*
X84120000Y-79540700D02*
X84208600Y-79571100D01*
X84029000Y-79518700D02*
X84120000Y-79540700D01*
X83936200Y-79505400D02*
X84029000Y-79518700D01*
X83842400Y-79501000D02*
X83936200Y-79505400D01*
X75657500Y-79501000D02*
X83842400Y-79501000D01*
X75563700Y-79505500D02*
X75657500Y-79501000D01*
X75471000Y-79518700D02*
X75563700Y-79505500D01*
X75380000Y-79540700D02*
X75471000Y-79518700D01*
X75291400Y-79571200D02*
X75380000Y-79540700D01*
X75206100Y-79609900D02*
X75291400Y-79571200D01*
X75124800Y-79656400D02*
X75206100Y-79609900D01*
X75048300Y-79710500D02*
X75124800Y-79656400D01*
X74977300Y-79771600D02*
X75048300Y-79710500D01*
X74912300Y-79839000D02*
X74977300Y-79771600D01*
X74854100Y-79912400D02*
X74912300Y-79839000D01*
X74803000Y-79990900D02*
X74854100Y-79912400D01*
X74759500Y-80073900D02*
X74803000Y-79990900D01*
X74707500Y-80203500D02*
X74759500Y-80073900D01*
X74683700Y-80250200D02*
X74707500Y-80203500D01*
X74647000Y-80304700D02*
X74683700Y-80250200D01*
X74622200Y-80334900D02*
X74647000Y-80304700D01*
X74594500Y-80363000D02*
X74622200Y-80334900D01*
X74575000Y-80380600D02*
X74594500Y-80363000D01*
X74533500Y-80412500D02*
X74575000Y-80380600D01*
X74500100Y-80433800D02*
X74533500Y-80412500D01*
X74441700Y-80462300D02*
X74500100Y-80433800D01*
X74404400Y-80476300D02*
X74441700Y-80462300D01*
X74353800Y-80489800D02*
X74404400Y-80476300D01*
X74302600Y-80497900D02*
X74353800Y-80489800D01*
X74250100Y-80500900D02*
X74302600Y-80497900D01*
X54256300Y-80501000D02*
X74250100Y-80500900D01*
X53820200Y-80478900D02*
X54256300Y-80501000D01*
X53394600Y-80413700D02*
X53820200Y-80478900D01*
X52977700Y-80305800D02*
X53394600Y-80413700D01*
X52585500Y-80161000D02*
X52977700Y-80305800D01*
X52562200Y-80150900D02*
X52585500Y-80161000D01*
X52198400Y-79972500D02*
X52562200Y-80150900D01*
X52176200Y-79960200D02*
X52198400Y-79972500D01*
X51821500Y-79738700D02*
X52176200Y-79960200D01*
X51481400Y-79475400D02*
X51821500Y-79738700D01*
X51169300Y-79178800D02*
X51481400Y-79475400D01*
X50896700Y-78861800D02*
X51169300Y-79178800D01*
X50881100Y-78841700D02*
X50896700Y-78861800D01*
X50649700Y-78509100D02*
X50881100Y-78841700D01*
X50636200Y-78487500D02*
X50649700Y-78509100D01*
X50433600Y-78121800D02*
X50636200Y-78487500D01*
X50264000Y-77726500D02*
X50433600Y-78121800D01*
X50135100Y-77315700D02*
X50264000Y-77726500D01*
X50050600Y-76906200D02*
X50135100Y-77315700D01*
X50046700Y-76881100D02*
X50050600Y-76906200D01*
X50005700Y-76478000D02*
X50046700Y-76881100D01*
X50004500Y-76452600D02*
X50005700Y-76478000D01*
X50004800Y-76034500D02*
X50004500Y-76452600D01*
X50048300Y-75606600D02*
X50004800Y-76034500D01*
X50135000Y-75184800D02*
X50048300Y-75606600D01*
X50259800Y-74785800D02*
X50135000Y-75184800D01*
X50268600Y-74762000D02*
X50259800Y-74785800D01*
X50428400Y-74389600D02*
X50268600Y-74762000D01*
X50439600Y-74366800D02*
X50428400Y-74389600D01*
X50642800Y-74001300D02*
X50439600Y-74366800D01*
X50888800Y-73648000D02*
X50642800Y-74001300D01*
X51169000Y-73321600D02*
X50888800Y-73648000D01*
X51481100Y-73025000D02*
X51169000Y-73321600D01*
X51821500Y-72761400D02*
X51481100Y-73025000D01*
X52176200Y-72539900D02*
X51821500Y-72761400D01*
X52198400Y-72527600D02*
X52176200Y-72539900D01*
X52562200Y-72349200D02*
X52198400Y-72527600D01*
X52585500Y-72339100D02*
X52562200Y-72349200D01*
X52977800Y-72194200D02*
X52585500Y-72339100D01*
X53394100Y-72086400D02*
X52977800Y-72194200D01*
X53820200Y-72021100D02*
X53394100Y-72086400D01*
X54256300Y-71999000D02*
X53820200Y-72021100D01*
X84258800Y-71999000D02*
X54256300Y-71999000D01*
X84356000Y-71994200D02*
X84258800Y-71999000D01*
X84452100Y-71980000D02*
X84356000Y-71994200D01*
X84546400Y-71956400D02*
X84452100Y-71980000D01*
X84637900Y-71923600D02*
X84546400Y-71956400D01*
X84725700Y-71882100D02*
X84637900Y-71923600D01*
X84809000Y-71832200D02*
X84725700Y-71882100D01*
X84887000Y-71774300D02*
X84809000Y-71832200D01*
X84959000Y-71709000D02*
X84887000Y-71774300D01*
X85024300Y-71637100D02*
X84959000Y-71709000D01*
X85082100Y-71559000D02*
X85024300Y-71637100D01*
X85132100Y-71475700D02*
X85082100Y-71559000D01*
X85173600Y-71387900D02*
X85132100Y-71475700D01*
X85206400Y-71296400D02*
X85173600Y-71387900D01*
X85230000Y-71202200D02*
X85206400Y-71296400D01*
X85244200Y-71106000D02*
X85230000Y-71202200D01*
X85249000Y-71008800D02*
X85244200Y-71106000D01*
X85249000Y-70114000D02*
X85249000Y-71008800D01*
X85244400Y-70018900D02*
X85249000Y-70114000D01*
X85230800Y-69924900D02*
X85244400Y-70018900D01*
X85208300Y-69832700D02*
X85230800Y-69924900D01*
X85177000Y-69743000D02*
X85208300Y-69832700D01*
X85137200Y-69656800D02*
X85177000Y-69743000D01*
X85089400Y-69574700D02*
X85137200Y-69656800D01*
X85033900Y-69497700D02*
X85089400Y-69574700D01*
X84971300Y-69426200D02*
X85033900Y-69497700D01*
X84878100Y-69335200D02*
X84971300Y-69426200D01*
X84837700Y-69283700D02*
X84878100Y-69335200D01*
X84816300Y-69250100D02*
X84837700Y-69283700D01*
X84792700Y-69203900D02*
X84816300Y-69250100D01*
X84740500Y-69073800D02*
X84792700Y-69203900D01*
X84697000Y-68990800D02*
X84740500Y-69073800D01*
X84645900Y-68912300D02*
X84697000Y-68990800D01*
X84587700Y-68839000D02*
X84645900Y-68912300D01*
X84522700Y-68771500D02*
X84587700Y-68839000D01*
X84451700Y-68710500D02*
X84522700Y-68771500D01*
X84375200Y-68656400D02*
X84451700Y-68710500D01*
X84293900Y-68609800D02*
X84375200Y-68656400D01*
X84208600Y-68571100D02*
X84293900Y-68609800D01*
X84120000Y-68540700D02*
X84208600Y-68571100D01*
X84029000Y-68518700D02*
X84120000Y-68540700D01*
X83936200Y-68505400D02*
X84029000Y-68518700D01*
X83842400Y-68501000D02*
X83936200Y-68505400D01*
X75657500Y-68501000D02*
X83842400Y-68501000D01*
X75563700Y-68505500D02*
X75657500Y-68501000D01*
X75471000Y-68518700D02*
X75563700Y-68505500D01*
X75380000Y-68540700D02*
X75471000Y-68518700D01*
X75291400Y-68571100D02*
X75380000Y-68540700D01*
X75206100Y-68609800D02*
X75291400Y-68571100D01*
X75124800Y-68656400D02*
X75206100Y-68609800D01*
X75048300Y-68710500D02*
X75124800Y-68656400D01*
X74977300Y-68771500D02*
X75048300Y-68710500D01*
X74912300Y-68839000D02*
X74977300Y-68771500D01*
X74854100Y-68912300D02*
X74912300Y-68839000D01*
X74803000Y-68990900D02*
X74854100Y-68912300D01*
X74759500Y-69073800D02*
X74803000Y-68990900D01*
X74707500Y-69203400D02*
X74759500Y-69073800D01*
X74683700Y-69250100D02*
X74707500Y-69203400D01*
X74647000Y-69304700D02*
X74683700Y-69250100D01*
X74622200Y-69334800D02*
X74647000Y-69304700D01*
X74594500Y-69363000D02*
X74622200Y-69334800D01*
X74575000Y-69380600D02*
X74594500Y-69363000D01*
X74533500Y-69412500D02*
X74575000Y-69380600D01*
X74500100Y-69433700D02*
X74533500Y-69412500D01*
X74441700Y-69462300D02*
X74500100Y-69433700D01*
X74404400Y-69476300D02*
X74441700Y-69462300D01*
X74353800Y-69489800D02*
X74404400Y-69476300D01*
X74302600Y-69497900D02*
X74353800Y-69489800D01*
X74256400Y-69500700D02*
X74302600Y-69497900D01*
X54256300Y-69501000D02*
X74256400Y-69500700D01*
X53819700Y-69478900D02*
X54256300Y-69501000D01*
X53394600Y-69413700D02*
X53819700Y-69478900D01*
X52977700Y-69305800D02*
X53394600Y-69413700D01*
X52573900Y-69156300D02*
X52977700Y-69305800D01*
X52198400Y-68972500D02*
X52573900Y-69156300D01*
X52176200Y-68960100D02*
X52198400Y-68972500D01*
X51832400Y-68745800D02*
X52176200Y-68960100D01*
X51811500Y-68731300D02*
X51832400Y-68745800D01*
X51481000Y-68475100D02*
X51811500Y-68731300D01*
X51178100Y-68187600D02*
X51481000Y-68475100D01*
X51160600Y-68169200D02*
X51178100Y-68187600D01*
X50888500Y-67851700D02*
X51160600Y-68169200D01*
X50642500Y-67498200D02*
X50888500Y-67851700D01*
X50433800Y-67122200D02*
X50642500Y-67498200D01*
X50264000Y-66726500D02*
X50433800Y-67122200D01*
X50135100Y-66315700D02*
X50264000Y-66726500D01*
X50048400Y-65893900D02*
X50135100Y-66315700D01*
X50004800Y-65465500D02*
X50048400Y-65893900D01*
X50004500Y-65047500D02*
X50004800Y-65465500D01*
X50005700Y-65022100D02*
X50004500Y-65047500D01*
X50046700Y-64619000D02*
X50005700Y-65022100D01*
X50050600Y-64593800D02*
X50046700Y-64619000D01*
X50135100Y-64184300D02*
X50050600Y-64593800D01*
X50263800Y-63774000D02*
X50135100Y-64184300D01*
X50433600Y-63378300D02*
X50263800Y-63774000D01*
X50636200Y-63012500D02*
X50433600Y-63378300D01*
X50649700Y-62991000D02*
X50636200Y-63012500D01*
X50881100Y-62658400D02*
X50649700Y-62991000D01*
X50896700Y-62638300D02*
X50881100Y-62658400D01*
X51169300Y-62321200D02*
X50896700Y-62638300D01*
X51481100Y-62024900D02*
X51169300Y-62321200D01*
X51821500Y-61761400D02*
X51481100Y-62024900D01*
X52176200Y-61539900D02*
X51821500Y-61761400D01*
X52198400Y-61527600D02*
X52176200Y-61539900D01*
X52562200Y-61349100D02*
X52198400Y-61527600D01*
X52585500Y-61339100D02*
X52562200Y-61349100D01*
X52977800Y-61194200D02*
X52585500Y-61339100D01*
X53394600Y-61086300D02*
X52977800Y-61194200D01*
X53820200Y-61021100D02*
X53394600Y-61086300D01*
X54256300Y-60999000D02*
X53820200Y-61021100D01*
X84258800Y-60999000D02*
X54256300Y-60999000D01*
X84356000Y-60994200D02*
X84258800Y-60999000D01*
X84452100Y-60980000D02*
X84356000Y-60994200D01*
X84546400Y-60956400D02*
X84452100Y-60980000D01*
X84637900Y-60923600D02*
X84546400Y-60956400D01*
X84725700Y-60882100D02*
X84637900Y-60923600D01*
X84809000Y-60832200D02*
X84725700Y-60882100D01*
X84887000Y-60774300D02*
X84809000Y-60832200D01*
X84959000Y-60709000D02*
X84887000Y-60774300D01*
X85024300Y-60637000D02*
X84959000Y-60709000D01*
X85082100Y-60559000D02*
X85024300Y-60637000D01*
X85132100Y-60475700D02*
X85082100Y-60559000D01*
X85173600Y-60387900D02*
X85132100Y-60475700D01*
X85206400Y-60296400D02*
X85173600Y-60387900D01*
X85230000Y-60202100D02*
X85206400Y-60296400D01*
X85244200Y-60106000D02*
X85230000Y-60202100D01*
X85249000Y-60008800D02*
X85244200Y-60106000D01*
X85249000Y-59114000D02*
X85249000Y-60008800D01*
X85244400Y-59018900D02*
X85249000Y-59114000D01*
X85230800Y-58924900D02*
X85244400Y-59018900D01*
X85208300Y-58832700D02*
X85230800Y-58924900D01*
X85177000Y-58743000D02*
X85208300Y-58832700D01*
X85137200Y-58656800D02*
X85177000Y-58743000D01*
X85089400Y-58574700D02*
X85137200Y-58656800D01*
X85033900Y-58497600D02*
X85089400Y-58574700D01*
X84971300Y-58426200D02*
X85033900Y-58497600D01*
X84878100Y-58335200D02*
X84971300Y-58426200D01*
X84844800Y-58294000D02*
X84878100Y-58335200D01*
X84816500Y-58250500D02*
X84844800Y-58294000D01*
X84798200Y-58215300D02*
X84816500Y-58250500D01*
X84740500Y-58073800D02*
X84798200Y-58215300D01*
X84697000Y-57990800D02*
X84740500Y-58073800D01*
X84645900Y-57912300D02*
X84697000Y-57990800D01*
X84587700Y-57839000D02*
X84645900Y-57912300D01*
X84522700Y-57771500D02*
X84587700Y-57839000D01*
X84451700Y-57710500D02*
X84522700Y-57771500D01*
X84375200Y-57656400D02*
X84451700Y-57710500D01*
X84293900Y-57609800D02*
X84375200Y-57656400D01*
X84208600Y-57571100D02*
X84293900Y-57609800D01*
X84120000Y-57540700D02*
X84208600Y-57571100D01*
X84029000Y-57518700D02*
X84120000Y-57540700D01*
X83936300Y-57505400D02*
X84029000Y-57518700D01*
X83842500Y-57501000D02*
X83936300Y-57505400D01*
X75657500Y-57501000D02*
X83842500Y-57501000D01*
X75563700Y-57505400D02*
X75657500Y-57501000D01*
X75471000Y-57518700D02*
X75563700Y-57505400D01*
X75380000Y-57540700D02*
X75471000Y-57518700D01*
X75291400Y-57571100D02*
X75380000Y-57540700D01*
X75206100Y-57609800D02*
X75291400Y-57571100D01*
X75124800Y-57656400D02*
X75206100Y-57609800D01*
X75048300Y-57710500D02*
X75124800Y-57656400D01*
X74977300Y-57771500D02*
X75048300Y-57710500D01*
X74912300Y-57839000D02*
X74977300Y-57771500D01*
X74854100Y-57912300D02*
X74912300Y-57839000D01*
X74803000Y-57990800D02*
X74854100Y-57912300D01*
X74759500Y-58073800D02*
X74803000Y-57990800D01*
X74707500Y-58203400D02*
X74759500Y-58073800D01*
X74683700Y-58250100D02*
X74707500Y-58203400D01*
X74647000Y-58304700D02*
X74683700Y-58250100D01*
X74622200Y-58334800D02*
X74647000Y-58304700D01*
X74594500Y-58363000D02*
X74622200Y-58334800D01*
X74575000Y-58380600D02*
X74594500Y-58363000D01*
X74533500Y-58412500D02*
X74575000Y-58380600D01*
X74500100Y-58433700D02*
X74533500Y-58412500D01*
X74441700Y-58462300D02*
X74500100Y-58433700D01*
X74404400Y-58476200D02*
X74441700Y-58462300D01*
X74353800Y-58489800D02*
X74404400Y-58476200D01*
X74302600Y-58497900D02*
X74353800Y-58489800D01*
X74250100Y-58500900D02*
X74302600Y-58497900D01*
X54256300Y-58501000D02*
X74250100Y-58500900D01*
X53832700Y-58479800D02*
X54256300Y-58501000D01*
X53807600Y-58477300D02*
X53832700Y-58479800D01*
X53394100Y-58413600D02*
X53807600Y-58477300D01*
X52977700Y-58305800D02*
X53394100Y-58413600D01*
X52573900Y-58156300D02*
X52977700Y-58305800D01*
X52198400Y-57972500D02*
X52573900Y-58156300D01*
X52176200Y-57960100D02*
X52198400Y-57972500D01*
X51832400Y-57745800D02*
X52176200Y-57960100D01*
X51811500Y-57731300D02*
X51832400Y-57745800D01*
X51481000Y-57475100D02*
X51811500Y-57731300D01*
X51178100Y-57187600D02*
X51481000Y-57475100D01*
X51160600Y-57169100D02*
X51178100Y-57187600D01*
X50888500Y-56851600D02*
X51160600Y-57169100D01*
X50642500Y-56498200D02*
X50888500Y-56851600D01*
X50433800Y-56122200D02*
X50642500Y-56498200D01*
X50264000Y-55726500D02*
X50433800Y-56122200D01*
X50135100Y-55315700D02*
X50264000Y-55726500D01*
X50048400Y-54893900D02*
X50135100Y-55315700D01*
X50004800Y-54465500D02*
X50048400Y-54893900D01*
X50004500Y-54047400D02*
X50004800Y-54465500D01*
X50005700Y-54022000D02*
X50004500Y-54047400D01*
X50046700Y-53619000D02*
X50005700Y-54022000D01*
X50050600Y-53593800D02*
X50046700Y-53619000D01*
X50135100Y-53184300D02*
X50050600Y-53593800D01*
X50263800Y-52773900D02*
X50135100Y-53184300D01*
X50433600Y-52378200D02*
X50263800Y-52773900D01*
X50636200Y-52012500D02*
X50433600Y-52378200D01*
X50649700Y-51990900D02*
X50636200Y-52012500D01*
X50881100Y-51658400D02*
X50649700Y-51990900D01*
X50896700Y-51638300D02*
X50881100Y-51658400D01*
X51169300Y-51321200D02*
X50896700Y-51638300D01*
X51481100Y-51024900D02*
X51169300Y-51321200D01*
X51821500Y-50761300D02*
X51481100Y-51024900D01*
X52176200Y-50539900D02*
X51821500Y-50761300D01*
X52198400Y-50527600D02*
X52176200Y-50539900D01*
X52562200Y-50349100D02*
X52198400Y-50527600D01*
X52585500Y-50339100D02*
X52562200Y-50349100D01*
X52977800Y-50194200D02*
X52585500Y-50339100D01*
X53381900Y-50089200D02*
X52977800Y-50194200D01*
X53406600Y-50084100D02*
X53381900Y-50089200D01*
X53820200Y-50021100D02*
X53406600Y-50084100D01*
X54256300Y-49999000D02*
X53820200Y-50021100D01*
X84258800Y-49999000D02*
X54256300Y-49999000D01*
X84356000Y-49994200D02*
X84258800Y-49999000D01*
X84452100Y-49980000D02*
X84356000Y-49994200D01*
X84546400Y-49956400D02*
X84452100Y-49980000D01*
X84637900Y-49923600D02*
X84546400Y-49956400D01*
X84725700Y-49882100D02*
X84637900Y-49923600D01*
X84809000Y-49832100D02*
X84725700Y-49882100D01*
X84887000Y-49774300D02*
X84809000Y-49832100D01*
X84959000Y-49709000D02*
X84887000Y-49774300D01*
X85024300Y-49637000D02*
X84959000Y-49709000D01*
X85082100Y-49559000D02*
X85024300Y-49637000D01*
X85132100Y-49475700D02*
X85082100Y-49559000D01*
X85173600Y-49387900D02*
X85132100Y-49475700D01*
X85206400Y-49296400D02*
X85173600Y-49387900D01*
X85230000Y-49202100D02*
X85206400Y-49296400D01*
X85244200Y-49106000D02*
X85230000Y-49202100D01*
X85249000Y-49008800D02*
X85244200Y-49106000D01*
X85249000Y-48490200D02*
X85249000Y-49008800D01*
X85244200Y-48393000D02*
X85249000Y-48490200D01*
X85230000Y-48296900D02*
X85244200Y-48393000D01*
X85206400Y-48202600D02*
X85230000Y-48296900D01*
X85173600Y-48111100D02*
X85206400Y-48202600D01*
X85132100Y-48023300D02*
X85173600Y-48111100D01*
X85082100Y-47940000D02*
X85132100Y-48023300D01*
X85024300Y-47862000D02*
X85082100Y-47940000D01*
X84959000Y-47790000D02*
X85024300Y-47862000D01*
X84887000Y-47724700D02*
X84959000Y-47790000D01*
X84809000Y-47666900D02*
X84887000Y-47724700D01*
X84725700Y-47616900D02*
X84809000Y-47666900D01*
X84637900Y-47575400D02*
X84725700Y-47616900D01*
X84546400Y-47542600D02*
X84637900Y-47575400D01*
X84452100Y-47519000D02*
X84546400Y-47542600D01*
X84356000Y-47504800D02*
X84452100Y-47519000D01*
X84258800Y-47500000D02*
X84356000Y-47504800D01*
X50013700Y-47499200D02*
X84258800Y-47500000D01*
X50009200Y-47497400D02*
X50013700Y-47499200D01*
X50005700Y-47492700D02*
X50009200Y-47497400D01*
X50004500Y-47475500D02*
X50005700Y-47492700D01*
X50004500Y-43523500D02*
X50004500Y-47475500D01*
X50006100Y-43505400D02*
X50004500Y-43523500D01*
X50009200Y-43501600D02*
X50006100Y-43505400D01*
X50014600Y-43499700D02*
X50009200Y-43501600D01*
M02*
