  0
SECTION
  2
HEADER
  9
$ANGBASE
  50
0.0
  9
$ANGDIR
  70
1
  9
$MEASUREMENT
  70
0
  0
ENDSEC
  0
SECTION
  2
TABLES
  0
TABLE
  2
LTYPE
  70
4
  0
LTYPE
  5
40F
  2
CONTINUOUS
  70
0
  3
Solid line
  72
65
  73
0
  40
0.0
  0
LTYPE
  5
410
  2
DASHDOT
 70
0
  3
Dash Dot ____ _ ____ _
 72
65
 73
4
 40
2.0
 49
1.25
 49
-0.25
 49
0.25
 49
-0.25
  0
LTYPE
  5
411
  2
DASHED
 70
0
  3
Dashed __ __ __ __ __
 72
65
 73
2
 40
0.75
 49
0.5
 49
-0.25
  0
LTYPE
  5
43B
  2
DOTTED
 70
0
  3
Dotted .  .  .  .
 72
65
 73
2
 40
0.2
 49
0.0
 49
-0.2
  0
ENDTAB
  0
TABLE
  2
STYLE
  70
4
  0
STYLE
  2
KICAD
  70
0
  40
0
  41
1
  42
1
  50
0
  71
0
  3
isocp.shx
  0
STYLE
  2
KICADB
  70
0
  40
0
  41
1
  42
1
  50
0
  71
0
  3
isocp.shx
  0
STYLE
  2
KICADI
  70
0
  40
0
  41
1
  42
1
  50
15
  71
0
  3
isocp.shx
  0
STYLE
  2
KICADBI
  70
0
  40
0
  41
1
  42
1
  50
15
  71
0
  3
isocp.shx
  0
ENDTAB
  0
TABLE
  2
LAYER
  70
1
  0
LAYER
  2
BLACK
  70
0
  62
7
  6
CONTINUOUS
  0
ENDTAB
  0
ENDSEC
  0
SECTION
  2
ENTITIES
0
LINE
8
BLACK
6
CONTINUOUS
10
7.65755
20
-4.60165
11
7.65769
21
-4.60176
0
LINE
8
BLACK
6
CONTINUOUS
10
7.65769
20
-4.60176
11
7.65786
21
-4.60178
0
LINE
8
BLACK
6
CONTINUOUS
10
7.65786
20
-4.60178
11
7.66161
21
-4.60366
0
LINE
8
BLACK
6
CONTINUOUS
10
7.66161
20
-4.60366
11
7.66232
21
-4.60418
0
LINE
8
BLACK
6
CONTINUOUS
10
7.66232
20
-4.60418
11
7.66238
21
-4.60421
0
LINE
8
BLACK
6
CONTINUOUS
10
7.66238
20
-4.60421
11
7.66613
21
-4.60796
0
LINE
8
BLACK
6
CONTINUOUS
10
7.66613
20
-4.60796
11
7.66672
21
-4.6088
0
LINE
8
BLACK
6
CONTINUOUS
10
7.66672
20
-4.6088
11
7.66674
21
-4.60909
0
LINE
8
BLACK
6
CONTINUOUS
10
7.66674
20
-4.60909
11
7.66691
21
-4.60933
0
LINE
8
BLACK
6
CONTINUOUS
10
7.66691
20
-4.60933
11
7.66878
21
-4.61683
0
LINE
8
BLACK
6
CONTINUOUS
10
7.66878
20
-4.61683
11
7.66882
21
-4.61742
0
LINE
8
BLACK
6
CONTINUOUS
10
7.66882
20
-4.61742
11
7.66887
21
-4.61755
0
LINE
8
BLACK
6
CONTINUOUS
10
7.66887
20
-4.61755
11
7.66887
21
-4.63067
0
LINE
8
BLACK
6
CONTINUOUS
10
7.66887
20
-4.63067
11
7.66877
21
-4.63125
0
LINE
8
BLACK
6
CONTINUOUS
10
7.66877
20
-4.63125
11
7.66878
21
-4.63139
0
LINE
8
BLACK
6
CONTINUOUS
10
7.66878
20
-4.63139
11
7.66691
21
-4.63889
0
LINE
8
BLACK
6
CONTINUOUS
10
7.66691
20
-4.63889
11
7.66649
21
-4.63982
0
LINE
8
BLACK
6
CONTINUOUS
10
7.66649
20
-4.63982
11
7.66625
21
-4.63999
0
LINE
8
BLACK
6
CONTINUOUS
10
7.66625
20
-4.63999
11
7.66613
21
-4.64026
0
LINE
8
BLACK
6
CONTINUOUS
10
7.66613
20
-4.64026
11
7.66447
21
-4.64192
0
LINE
8
BLACK
6
CONTINUOUS
10
7.66447
20
-4.64192
11
7.66579
21
-4.64324
0
LINE
8
BLACK
6
CONTINUOUS
10
7.66579
20
-4.64324
11
7.66911
21
-4.6449
0
LINE
8
BLACK
6
CONTINUOUS
10
7.66911
20
-4.6449
11
7.66994
21
-4.64551
0
LINE
8
BLACK
6
CONTINUOUS
10
7.66994
20
-4.64551
11
7.67074
21
-4.64737
0
LINE
8
BLACK
6
CONTINUOUS
10
7.67074
20
-4.64737
11
7.67016
21
-4.6493
0
LINE
8
BLACK
6
CONTINUOUS
10
7.67016
20
-4.6493
11
7.66848
21
-4.65042
0
LINE
8
BLACK
6
CONTINUOUS
10
7.66848
20
-4.65042
11
7.66647
21
-4.65019
0
LINE
8
BLACK
6
CONTINUOUS
10
7.66647
20
-4.65019
11
7.66272
21
-4.64831
0
LINE
8
BLACK
6
CONTINUOUS
10
7.66272
20
-4.64831
11
7.66201
21
-4.64778
0
LINE
8
BLACK
6
CONTINUOUS
10
7.66201
20
-4.64778
11
7.66195
21
-4.64776
0
LINE
8
BLACK
6
CONTINUOUS
10
7.66195
20
-4.64776
11
7.65971
21
-4.64551
0
LINE
8
BLACK
6
CONTINUOUS
10
7.65971
20
-4.64551
11
7.65786
21
-4.64644
0
LINE
8
BLACK
6
CONTINUOUS
10
7.65786
20
-4.64644
11
7.65688
21
-4.64673
0
LINE
8
BLACK
6
CONTINUOUS
10
7.65688
20
-4.64673
11
7.65671
21
-4.64669
0
LINE
8
BLACK
6
CONTINUOUS
10
7.65671
20
-4.64669
11
7.65654
21
-4.64675
0
LINE
8
BLACK
6
CONTINUOUS
10
7.65654
20
-4.64675
11
7.64904
21
-4.64675
0
LINE
8
BLACK
6
CONTINUOUS
10
7.64904
20
-4.64675
11
7.64803
21
-4.64657
0
LINE
8
BLACK
6
CONTINUOUS
10
7.64803
20
-4.64657
11
7.6479
21
-4.64646
0
LINE
8
BLACK
6
CONTINUOUS
10
7.6479
20
-4.64646
11
7.64772
21
-4.64644
0
LINE
8
BLACK
6
CONTINUOUS
10
7.64772
20
-4.64644
11
7.64397
21
-4.64456
0
LINE
8
BLACK
6
CONTINUOUS
10
7.64397
20
-4.64456
11
7.64326
21
-4.64403
0
LINE
8
BLACK
6
CONTINUOUS
10
7.64326
20
-4.64403
11
7.64321
21
-4.64401
0
LINE
8
BLACK
6
CONTINUOUS
10
7.64321
20
-4.64401
11
7.63946
21
-4.64026
0
LINE
8
BLACK
6
CONTINUOUS
10
7.63946
20
-4.64026
11
7.63887
21
-4.63942
0
LINE
8
BLACK
6
CONTINUOUS
10
7.63887
20
-4.63942
11
7.63884
21
-4.63913
0
LINE
8
BLACK
6
CONTINUOUS
10
7.63884
20
-4.63913
11
7.63868
21
-4.63889
0
LINE
8
BLACK
6
CONTINUOUS
10
7.63868
20
-4.63889
11
7.63681
21
-4.63139
0
LINE
8
BLACK
6
CONTINUOUS
10
7.63681
20
-4.63139
11
7.63676
21
-4.6308
0
LINE
8
BLACK
6
CONTINUOUS
10
7.63676
20
-4.6308
11
7.63672
21
-4.63067
0
LINE
8
BLACK
6
CONTINUOUS
10
7.63672
20
-4.63067
11
7.63672
21
-4.61755
0
LINE
8
BLACK
6
CONTINUOUS
10
7.63672
20
-4.61755
11
7.63682
21
-4.61697
0
LINE
8
BLACK
6
CONTINUOUS
10
7.63682
20
-4.61697
11
7.63681
21
-4.61683
0
LINE
8
BLACK
6
CONTINUOUS
10
7.63681
20
-4.61683
11
7.63868
21
-4.60933
0
LINE
8
BLACK
6
CONTINUOUS
10
7.63868
20
-4.60933
11
7.6391
21
-4.6084
0
LINE
8
BLACK
6
CONTINUOUS
10
7.6391
20
-4.6084
11
7.63933
21
-4.60822
0
LINE
8
BLACK
6
CONTINUOUS
10
7.63933
20
-4.60822
11
7.63946
21
-4.60796
0
LINE
8
BLACK
6
CONTINUOUS
10
7.63946
20
-4.60796
11
7.64321
21
-4.60421
0
LINE
8
BLACK
6
CONTINUOUS
10
7.64321
20
-4.60421
11
7.64393
21
-4.6037
0
LINE
8
BLACK
6
CONTINUOUS
10
7.64393
20
-4.6037
11
7.64397
21
-4.60366
0
LINE
8
BLACK
6
CONTINUOUS
10
7.64397
20
-4.60366
11
7.64772
21
-4.60178
0
LINE
8
BLACK
6
CONTINUOUS
10
7.64772
20
-4.60178
11
7.64871
21
-4.60149
0
LINE
8
BLACK
6
CONTINUOUS
10
7.64871
20
-4.60149
11
7.64888
21
-4.60153
0
LINE
8
BLACK
6
CONTINUOUS
10
7.64888
20
-4.60153
11
7.64904
21
-4.60147
0
LINE
8
BLACK
6
CONTINUOUS
10
7.64904
20
-4.60147
11
7.65654
21
-4.60147
0
LINE
8
BLACK
6
CONTINUOUS
10
7.65654
20
-4.60147
11
7.65755
21
-4.60165
0
LINE
8
BLACK
6
CONTINUOUS
10
7.64974
20
-4.60738
11
7.64704
21
-4.60873
0
LINE
8
BLACK
6
CONTINUOUS
10
7.64704
20
-4.60873
11
7.64421
21
-4.61156
0
LINE
8
BLACK
6
CONTINUOUS
10
7.64421
20
-4.61156
11
7.64262
21
-4.61791
0
LINE
8
BLACK
6
CONTINUOUS
10
7.64262
20
-4.61791
11
7.64262
21
-4.63031
0
LINE
8
BLACK
6
CONTINUOUS
10
7.64262
20
-4.63031
11
7.64421
21
-4.63666
0
LINE
8
BLACK
6
CONTINUOUS
10
7.64421
20
-4.63666
11
7.64704
21
-4.63949
0
LINE
8
BLACK
6
CONTINUOUS
10
7.64704
20
-4.63949
11
7.64974
21
-4.64084
0
LINE
8
BLACK
6
CONTINUOUS
10
7.64974
20
-4.64084
11
7.65504
21
-4.64084
0
LINE
8
BLACK
6
CONTINUOUS
10
7.65504
20
-4.64084
11
7.65292
21
-4.63872
0
LINE
8
BLACK
6
CONTINUOUS
10
7.65292
20
-4.63872
11
7.65022
21
-4.63737
0
LINE
8
BLACK
6
CONTINUOUS
10
7.65022
20
-4.63737
11
7.64717
21
-4.63737
0
LINE
8
BLACK
6
CONTINUOUS
10
7.64717
20
-4.63737
11
7.64616
21
-4.6372
0
LINE
8
BLACK
6
CONTINUOUS
10
7.64616
20
-4.6372
11
7.64461
21
-4.6359
0
LINE
8
BLACK
6
CONTINUOUS
10
7.64461
20
-4.6359
11
7.64426
21
-4.63391
0
LINE
8
BLACK
6
CONTINUOUS
10
7.64426
20
-4.63391
11
7.64527
21
-4.63216
0
LINE
8
BLACK
6
CONTINUOUS
10
7.64527
20
-4.63216
11
7.64717
21
-4.63147
0
LINE
8
BLACK
6
CONTINUOUS
10
7.64717
20
-4.63147
11
7.65092
21
-4.63147
0
LINE
8
BLACK
6
CONTINUOUS
10
7.65092
20
-4.63147
11
7.65193
21
-4.63165
0
LINE
8
BLACK
6
CONTINUOUS
10
7.65193
20
-4.63165
11
7.65206
21
-4.63176
0
LINE
8
BLACK
6
CONTINUOUS
10
7.65206
20
-4.63176
11
7.65224
21
-4.63178
0
LINE
8
BLACK
6
CONTINUOUS
10
7.65224
20
-4.63178
11
7.65599
21
-4.63365
0
LINE
8
BLACK
6
CONTINUOUS
10
7.65599
20
-4.63365
11
7.6567
21
-4.63418
0
LINE
8
BLACK
6
CONTINUOUS
10
7.6567
20
-4.63418
11
7.65676
21
-4.63421
0
LINE
8
BLACK
6
CONTINUOUS
10
7.65676
20
-4.63421
11
7.66029
21
-4.63774
0
LINE
8
BLACK
6
CONTINUOUS
10
7.66029
20
-4.63774
11
7.66138
21
-4.63666
0
LINE
8
BLACK
6
CONTINUOUS
10
7.66138
20
-4.63666
11
7.66296
21
-4.63031
0
LINE
8
BLACK
6
CONTINUOUS
10
7.66296
20
-4.63031
11
7.66296
21
-4.61791
0
LINE
8
BLACK
6
CONTINUOUS
10
7.66296
20
-4.61791
11
7.66138
21
-4.61156
0
LINE
8
BLACK
6
CONTINUOUS
10
7.66138
20
-4.61156
11
7.65854
21
-4.60873
0
LINE
8
BLACK
6
CONTINUOUS
10
7.65854
20
-4.60873
11
7.65585
21
-4.60738
0
LINE
8
BLACK
6
CONTINUOUS
10
7.65585
20
-4.60738
11
7.64974
21
-4.60738
0
LINE
8
BLACK
6
CONTINUOUS
10
8.55463
20
-4.60165
11
8.55618
21
-4.60295
0
LINE
8
BLACK
6
CONTINUOUS
10
8.55618
20
-4.60295
11
8.55653
21
-4.60494
0
LINE
8
BLACK
6
CONTINUOUS
10
8.55653
20
-4.60494
11
8.55552
21
-4.60669
0
LINE
8
BLACK
6
CONTINUOUS
10
8.55552
20
-4.60669
11
8.55362
21
-4.60738
0
LINE
8
BLACK
6
CONTINUOUS
10
8.55362
20
-4.60738
11
8.53782
21
-4.60738
0
LINE
8
BLACK
6
CONTINUOUS
10
8.53782
20
-4.60738
11
8.53782
21
-4.62022
0
LINE
8
BLACK
6
CONTINUOUS
10
8.53782
20
-4.62022
11
8.54799
21
-4.62022
0
LINE
8
BLACK
6
CONTINUOUS
10
8.54799
20
-4.62022
11
8.549
21
-4.6204
0
LINE
8
BLACK
6
CONTINUOUS
10
8.549
20
-4.6204
11
8.55055
21
-4.6217
0
LINE
8
BLACK
6
CONTINUOUS
10
8.55055
20
-4.6217
11
8.5509
21
-4.62368
0
LINE
8
BLACK
6
CONTINUOUS
10
8.5509
20
-4.62368
11
8.54989
21
-4.62543
0
LINE
8
BLACK
6
CONTINUOUS
10
8.54989
20
-4.62543
11
8.54799
21
-4.62612
0
LINE
8
BLACK
6
CONTINUOUS
10
8.54799
20
-4.62612
11
8.53782
21
-4.62612
0
LINE
8
BLACK
6
CONTINUOUS
10
8.53782
20
-4.62612
11
8.53782
21
-4.64084
0
LINE
8
BLACK
6
CONTINUOUS
10
8.53782
20
-4.64084
11
8.55362
21
-4.64084
0
LINE
8
BLACK
6
CONTINUOUS
10
8.55362
20
-4.64084
11
8.55463
21
-4.64102
0
LINE
8
BLACK
6
CONTINUOUS
10
8.55463
20
-4.64102
11
8.55618
21
-4.64232
0
LINE
8
BLACK
6
CONTINUOUS
10
8.55618
20
-4.64232
11
8.55653
21
-4.64431
0
LINE
8
BLACK
6
CONTINUOUS
10
8.55653
20
-4.64431
11
8.55552
21
-4.64606
0
LINE
8
BLACK
6
CONTINUOUS
10
8.55552
20
-4.64606
11
8.55362
21
-4.64675
0
LINE
8
BLACK
6
CONTINUOUS
10
8.55362
20
-4.64675
11
8.53487
21
-4.64675
0
LINE
8
BLACK
6
CONTINUOUS
10
8.53487
20
-4.64675
11
8.53449
21
-4.64668
0
LINE
8
BLACK
6
CONTINUOUS
10
8.53449
20
-4.64668
11
8.53436
21
-4.6467
0
LINE
8
BLACK
6
CONTINUOUS
10
8.53436
20
-4.6467
11
8.53424
21
-4.64664
0
LINE
8
BLACK
6
CONTINUOUS
10
8.53424
20
-4.64664
11
8.53386
21
-4.64657
0
LINE
8
BLACK
6
CONTINUOUS
10
8.53386
20
-4.64657
11
8.53327
21
-4.64608
0
LINE
8
BLACK
6
CONTINUOUS
10
8.53327
20
-4.64608
11
8.53261
21
-4.64569
0
LINE
8
BLACK
6
CONTINUOUS
10
8.53261
20
-4.64569
11
8.53252
21
-4.64544
0
LINE
8
BLACK
6
CONTINUOUS
10
8.53252
20
-4.64544
11
8.53231
21
-4.64527
0
LINE
8
BLACK
6
CONTINUOUS
10
8.53231
20
-4.64527
11
8.53218
21
-4.64452
0
LINE
8
BLACK
6
CONTINUOUS
10
8.53218
20
-4.64452
11
8.53192
21
-4.64379
0
LINE
8
BLACK
6
CONTINUOUS
10
8.53192
20
-4.64379
11
8.53192
21
-4.60442
0
LINE
8
BLACK
6
CONTINUOUS
10
8.53192
20
-4.60442
11
8.53199
21
-4.60404
0
LINE
8
BLACK
6
CONTINUOUS
10
8.53199
20
-4.60404
11
8.53196
21
-4.60391
0
LINE
8
BLACK
6
CONTINUOUS
10
8.53196
20
-4.60391
11
8.53203
21
-4.6038
0
LINE
8
BLACK
6
CONTINUOUS
10
8.53203
20
-4.6038
11
8.5321
21
-4.60341
0
LINE
8
BLACK
6
CONTINUOUS
10
8.5321
20
-4.60341
11
8.53259
21
-4.60283
0
LINE
8
BLACK
6
CONTINUOUS
10
8.53259
20
-4.60283
11
8.53297
21
-4.60216
0
LINE
8
BLACK
6
CONTINUOUS
10
8.53297
20
-4.60216
11
8.53322
21
-4.60207
0
LINE
8
BLACK
6
CONTINUOUS
10
8.53322
20
-4.60207
11
8.53339
21
-4.60187
0
LINE
8
BLACK
6
CONTINUOUS
10
8.53339
20
-4.60187
11
8.53415
21
-4.60173
0
LINE
8
BLACK
6
CONTINUOUS
10
8.53415
20
-4.60173
11
8.53487
21
-4.60147
0
LINE
8
BLACK
6
CONTINUOUS
10
8.53487
20
-4.60147
11
8.55362
21
-4.60147
0
LINE
8
BLACK
6
CONTINUOUS
10
8.55362
20
-4.60147
11
8.55463
21
-4.60165
0
LINE
8
BLACK
6
CONTINUOUS
10
8.58636
20
-4.60162
11
8.58642
21
-4.60162
0
LINE
8
BLACK
6
CONTINUOUS
10
8.58642
20
-4.60162
11
8.59205
21
-4.6035
0
LINE
8
BLACK
6
CONTINUOUS
10
8.59205
20
-4.6035
11
8.59295
21
-4.60399
0
LINE
8
BLACK
6
CONTINUOUS
10
8.59295
20
-4.60399
11
8.59401
21
-4.60571
0
LINE
8
BLACK
6
CONTINUOUS
10
8.59401
20
-4.60571
11
8.59371
21
-4.60771
0
LINE
8
BLACK
6
CONTINUOUS
10
8.59371
20
-4.60771
11
8.5922
21
-4.60905
0
LINE
8
BLACK
6
CONTINUOUS
10
8.5922
20
-4.60905
11
8.59018
21
-4.6091
0
LINE
8
BLACK
6
CONTINUOUS
10
8.59018
20
-4.6091
11
8.58501
21
-4.60738
0
LINE
8
BLACK
6
CONTINUOUS
10
8.58501
20
-4.60738
11
8.57681
21
-4.60738
0
LINE
8
BLACK
6
CONTINUOUS
10
8.57681
20
-4.60738
11
8.57411
21
-4.60873
0
LINE
8
BLACK
6
CONTINUOUS
10
8.57411
20
-4.60873
11
8.57292
21
-4.60992
0
LINE
8
BLACK
6
CONTINUOUS
10
8.57292
20
-4.60992
11
8.57157
21
-4.61262
0
LINE
8
BLACK
6
CONTINUOUS
10
8.57157
20
-4.61262
11
8.57157
21
-4.61498
0
LINE
8
BLACK
6
CONTINUOUS
10
8.57157
20
-4.61498
11
8.57292
21
-4.61767
0
LINE
8
BLACK
6
CONTINUOUS
10
8.57292
20
-4.61767
11
8.57412
21
-4.61887
0
LINE
8
BLACK
6
CONTINUOUS
10
8.57412
20
-4.61887
11
8.57715
21
-4.62039
0
LINE
8
BLACK
6
CONTINUOUS
10
8.57715
20
-4.62039
11
8.58433
21
-4.62218
0
LINE
8
BLACK
6
CONTINUOUS
10
8.58433
20
-4.62218
11
8.5848
21
-4.62239
0
LINE
8
BLACK
6
CONTINUOUS
10
8.5848
20
-4.62239
11
8.58494
21
-4.62241
0
LINE
8
BLACK
6
CONTINUOUS
10
8.58494
20
-4.62241
11
8.58868
21
-4.62428
0
LINE
8
BLACK
6
CONTINUOUS
10
8.58868
20
-4.62428
11
8.58939
21
-4.62481
0
LINE
8
BLACK
6
CONTINUOUS
10
8.58939
20
-4.62481
11
8.58945
21
-4.62483
0
LINE
8
BLACK
6
CONTINUOUS
10
8.58945
20
-4.62483
11
8.59133
21
-4.62671
0
LINE
8
BLACK
6
CONTINUOUS
10
8.59133
20
-4.62671
11
8.59183
21
-4.62743
0
LINE
8
BLACK
6
CONTINUOUS
10
8.59183
20
-4.62743
11
8.59188
21
-4.62748
0
LINE
8
BLACK
6
CONTINUOUS
10
8.59188
20
-4.62748
11
8.59375
21
-4.63123
0
LINE
8
BLACK
6
CONTINUOUS
10
8.59375
20
-4.63123
11
8.59405
21
-4.63221
0
LINE
8
BLACK
6
CONTINUOUS
10
8.59405
20
-4.63221
11
8.59401
21
-4.63238
0
LINE
8
BLACK
6
CONTINUOUS
10
8.59401
20
-4.63238
11
8.59407
21
-4.63255
0
LINE
8
BLACK
6
CONTINUOUS
10
8.59407
20
-4.63255
11
8.59407
21
-4.6363
0
LINE
8
BLACK
6
CONTINUOUS
10
8.59407
20
-4.6363
11
8.59389
21
-4.63731
0
LINE
8
BLACK
6
CONTINUOUS
10
8.59389
20
-4.63731
11
8.59377
21
-4.63744
0
LINE
8
BLACK
6
CONTINUOUS
10
8.59377
20
-4.63744
11
8.59375
21
-4.63762
0
LINE
8
BLACK
6
CONTINUOUS
10
8.59375
20
-4.63762
11
8.59188
21
-4.64137
0
LINE
8
BLACK
6
CONTINUOUS
10
8.59188
20
-4.64137
11
8.59135
21
-4.64207
0
LINE
8
BLACK
6
CONTINUOUS
10
8.59135
20
-4.64207
11
8.59133
21
-4.64213
0
LINE
8
BLACK
6
CONTINUOUS
10
8.59133
20
-4.64213
11
8.58945
21
-4.64401
0
LINE
8
BLACK
6
CONTINUOUS
10
8.58945
20
-4.64401
11
8.58873
21
-4.64451
0
LINE
8
BLACK
6
CONTINUOUS
10
8.58873
20
-4.64451
11
8.58868
21
-4.64456
0
LINE
8
BLACK
6
CONTINUOUS
10
8.58868
20
-4.64456
11
8.58494
21
-4.64644
0
LINE
8
BLACK
6
CONTINUOUS
10
8.58494
20
-4.64644
11
8.58395
21
-4.64673
0
LINE
8
BLACK
6
CONTINUOUS
10
8.58395
20
-4.64673
11
8.58378
21
-4.64669
0
LINE
8
BLACK
6
CONTINUOUS
10
8.58378
20
-4.64669
11
8.58361
21
-4.64675
0
LINE
8
BLACK
6
CONTINUOUS
10
8.58361
20
-4.64675
11
8.57424
21
-4.64675
0
LINE
8
BLACK
6
CONTINUOUS
10
8.57424
20
-4.64675
11
8.57337
21
-4.64659
0
LINE
8
BLACK
6
CONTINUOUS
10
8.57337
20
-4.64659
11
8.57331
21
-4.6466
0
LINE
8
BLACK
6
CONTINUOUS
10
8.57331
20
-4.6466
11
8.56768
21
-4.64472
0
LINE
8
BLACK
6
CONTINUOUS
10
8.56768
20
-4.64472
11
8.56678
21
-4.64423
0
LINE
8
BLACK
6
CONTINUOUS
10
8.56678
20
-4.64423
11
8.56572
21
-4.64251
0
LINE
8
BLACK
6
CONTINUOUS
10
8.56572
20
-4.64251
11
8.56602
21
-4.64051
0
LINE
8
BLACK
6
CONTINUOUS
10
8.56602
20
-4.64051
11
8.56753
21
-4.63917
0
LINE
8
BLACK
6
CONTINUOUS
10
8.56753
20
-4.63917
11
8.56955
21
-4.63912
0
LINE
8
BLACK
6
CONTINUOUS
10
8.56955
20
-4.63912
11
8.57472
21
-4.64084
0
LINE
8
BLACK
6
CONTINUOUS
10
8.57472
20
-4.64084
11
8.58292
21
-4.64084
0
LINE
8
BLACK
6
CONTINUOUS
10
8.58292
20
-4.64084
11
8.58561
21
-4.63949
0
LINE
8
BLACK
6
CONTINUOUS
10
8.58561
20
-4.63949
11
8.58681
21
-4.6383
0
LINE
8
BLACK
6
CONTINUOUS
10
8.58681
20
-4.6383
11
8.58816
21
-4.6356
0
LINE
8
BLACK
6
CONTINUOUS
10
8.58816
20
-4.6356
11
8.58816
21
-4.63324
0
LINE
8
BLACK
6
CONTINUOUS
10
8.58816
20
-4.63324
11
8.58681
21
-4.63055
0
LINE
8
BLACK
6
CONTINUOUS
10
8.58681
20
-4.63055
11
8.58561
21
-4.62935
0
LINE
8
BLACK
6
CONTINUOUS
10
8.58561
20
-4.62935
11
8.58258
21
-4.62783
0
LINE
8
BLACK
6
CONTINUOUS
10
8.58258
20
-4.62783
11
8.5754
21
-4.62604
0
LINE
8
BLACK
6
CONTINUOUS
10
8.5754
20
-4.62604
11
8.57493
21
-4.62583
0
LINE
8
BLACK
6
CONTINUOUS
10
8.57493
20
-4.62583
11
8.57479
21
-4.62581
0
LINE
8
BLACK
6
CONTINUOUS
10
8.57479
20
-4.62581
11
8.57105
21
-4.62394
0
LINE
8
BLACK
6
CONTINUOUS
10
8.57105
20
-4.62394
11
8.57034
21
-4.62341
0
LINE
8
BLACK
6
CONTINUOUS
10
8.57034
20
-4.62341
11
8.57028
21
-4.62339
0
LINE
8
BLACK
6
CONTINUOUS
10
8.57028
20
-4.62339
11
8.5684
21
-4.62151
0
LINE
8
BLACK
6
CONTINUOUS
10
8.5684
20
-4.62151
11
8.5679
21
-4.62079
0
LINE
8
BLACK
6
CONTINUOUS
10
8.5679
20
-4.62079
11
8.56785
21
-4.62074
0
LINE
8
BLACK
6
CONTINUOUS
10
8.56785
20
-4.62074
11
8.56598
21
-4.61699
0
LINE
8
BLACK
6
CONTINUOUS
10
8.56598
20
-4.61699
11
8.56568
21
-4.61601
0
LINE
8
BLACK
6
CONTINUOUS
10
8.56568
20
-4.61601
11
8.56572
21
-4.61584
0
LINE
8
BLACK
6
CONTINUOUS
10
8.56572
20
-4.61584
11
8.56566
21
-4.61567
0
LINE
8
BLACK
6
CONTINUOUS
10
8.56566
20
-4.61567
11
8.56566
21
-4.61192
0
LINE
8
BLACK
6
CONTINUOUS
10
8.56566
20
-4.61192
11
8.56584
21
-4.61091
0
LINE
8
BLACK
6
CONTINUOUS
10
8.56584
20
-4.61091
11
8.56596
21
-4.61078
0
LINE
8
BLACK
6
CONTINUOUS
10
8.56596
20
-4.61078
11
8.56598
21
-4.6106
0
LINE
8
BLACK
6
CONTINUOUS
10
8.56598
20
-4.6106
11
8.56785
21
-4.60685
0
LINE
8
BLACK
6
CONTINUOUS
10
8.56785
20
-4.60685
11
8.56838
21
-4.60614
0
LINE
8
BLACK
6
CONTINUOUS
10
8.56838
20
-4.60614
11
8.5684
21
-4.60609
0
LINE
8
BLACK
6
CONTINUOUS
10
8.5684
20
-4.60609
11
8.57028
21
-4.60421
0
LINE
8
BLACK
6
CONTINUOUS
10
8.57028
20
-4.60421
11
8.571
21
-4.60371
0
LINE
8
BLACK
6
CONTINUOUS
10
8.571
20
-4.60371
11
8.57105
21
-4.60366
0
LINE
8
BLACK
6
CONTINUOUS
10
8.57105
20
-4.60366
11
8.57479
21
-4.60178
0
LINE
8
BLACK
6
CONTINUOUS
10
8.57479
20
-4.60178
11
8.57578
21
-4.60149
0
LINE
8
BLACK
6
CONTINUOUS
10
8.57578
20
-4.60149
11
8.57595
21
-4.60153
0
LINE
8
BLACK
6
CONTINUOUS
10
8.57595
20
-4.60153
11
8.57612
21
-4.60147
0
LINE
8
BLACK
6
CONTINUOUS
10
8.57612
20
-4.60147
11
8.58549
21
-4.60147
0
LINE
8
BLACK
6
CONTINUOUS
10
8.58549
20
-4.60147
11
8.58636
21
-4.60162
0
LINE
8
BLACK
6
CONTINUOUS
10
8.62399
20
-4.60165
11
8.62413
21
-4.60176
0
LINE
8
BLACK
6
CONTINUOUS
10
8.62413
20
-4.60176
11
8.62431
21
-4.60178
0
LINE
8
BLACK
6
CONTINUOUS
10
8.62431
20
-4.60178
11
8.62805
21
-4.60366
0
LINE
8
BLACK
6
CONTINUOUS
10
8.62805
20
-4.60366
11
8.62876
21
-4.60418
0
LINE
8
BLACK
6
CONTINUOUS
10
8.62876
20
-4.60418
11
8.62882
21
-4.60421
0
LINE
8
BLACK
6
CONTINUOUS
10
8.62882
20
-4.60421
11
8.63257
21
-4.60796
0
LINE
8
BLACK
6
CONTINUOUS
10
8.63257
20
-4.60796
11
8.63316
21
-4.6088
0
LINE
8
BLACK
6
CONTINUOUS
10
8.63316
20
-4.6088
11
8.63319
21
-4.60909
0
LINE
8
BLACK
6
CONTINUOUS
10
8.63319
20
-4.60909
11
8.63335
21
-4.60933
0
LINE
8
BLACK
6
CONTINUOUS
10
8.63335
20
-4.60933
11
8.63522
21
-4.61683
0
LINE
8
BLACK
6
CONTINUOUS
10
8.63522
20
-4.61683
11
8.63526
21
-4.61742
0
LINE
8
BLACK
6
CONTINUOUS
10
8.63526
20
-4.61742
11
8.63531
21
-4.61755
0
LINE
8
BLACK
6
CONTINUOUS
10
8.63531
20
-4.61755
11
8.63531
21
-4.63067
0
LINE
8
BLACK
6
CONTINUOUS
10
8.63531
20
-4.63067
11
8.63521
21
-4.63125
0
LINE
8
BLACK
6
CONTINUOUS
10
8.63521
20
-4.63125
11
8.63522
21
-4.63139
0
LINE
8
BLACK
6
CONTINUOUS
10
8.63522
20
-4.63139
11
8.63335
21
-4.63889
0
LINE
8
BLACK
6
CONTINUOUS
10
8.63335
20
-4.63889
11
8.63293
21
-4.63982
0
LINE
8
BLACK
6
CONTINUOUS
10
8.63293
20
-4.63982
11
8.63269
21
-4.63999
0
LINE
8
BLACK
6
CONTINUOUS
10
8.63269
20
-4.63999
11
8.63257
21
-4.64026
0
LINE
8
BLACK
6
CONTINUOUS
10
8.63257
20
-4.64026
11
8.62882
21
-4.64401
0
LINE
8
BLACK
6
CONTINUOUS
10
8.62882
20
-4.64401
11
8.6281
21
-4.64451
0
LINE
8
BLACK
6
CONTINUOUS
10
8.6281
20
-4.64451
11
8.62805
21
-4.64456
0
LINE
8
BLACK
6
CONTINUOUS
10
8.62805
20
-4.64456
11
8.62431
21
-4.64644
0
LINE
8
BLACK
6
CONTINUOUS
10
8.62431
20
-4.64644
11
8.62332
21
-4.64673
0
LINE
8
BLACK
6
CONTINUOUS
10
8.62332
20
-4.64673
11
8.62315
21
-4.64669
0
LINE
8
BLACK
6
CONTINUOUS
10
8.62315
20
-4.64669
11
8.62298
21
-4.64675
0
LINE
8
BLACK
6
CONTINUOUS
10
8.62298
20
-4.64675
11
8.61549
21
-4.64675
0
LINE
8
BLACK
6
CONTINUOUS
10
8.61549
20
-4.64675
11
8.61448
21
-4.64657
0
LINE
8
BLACK
6
CONTINUOUS
10
8.61448
20
-4.64657
11
8.61434
21
-4.64646
0
LINE
8
BLACK
6
CONTINUOUS
10
8.61434
20
-4.64646
11
8.61417
21
-4.64644
0
LINE
8
BLACK
6
CONTINUOUS
10
8.61417
20
-4.64644
11
8.61042
21
-4.64456
0
LINE
8
BLACK
6
CONTINUOUS
10
8.61042
20
-4.64456
11
8.60971
21
-4.64403
0
LINE
8
BLACK
6
CONTINUOUS
10
8.60971
20
-4.64403
11
8.60965
21
-4.64401
0
LINE
8
BLACK
6
CONTINUOUS
10
8.60965
20
-4.64401
11
8.6059
21
-4.64026
0
LINE
8
BLACK
6
CONTINUOUS
10
8.6059
20
-4.64026
11
8.60531
21
-4.63942
0
LINE
8
BLACK
6
CONTINUOUS
10
8.60531
20
-4.63942
11
8.60529
21
-4.63913
0
LINE
8
BLACK
6
CONTINUOUS
10
8.60529
20
-4.63913
11
8.60512
21
-4.63889
0
LINE
8
BLACK
6
CONTINUOUS
10
8.60512
20
-4.63889
11
8.60325
21
-4.63139
0
LINE
8
BLACK
6
CONTINUOUS
10
8.60325
20
-4.63139
11
8.60321
21
-4.6308
0
LINE
8
BLACK
6
CONTINUOUS
10
8.60321
20
-4.6308
11
8.60316
21
-4.63067
0
LINE
8
BLACK
6
CONTINUOUS
10
8.60316
20
-4.63067
11
8.60316
21
-4.61755
0
LINE
8
BLACK
6
CONTINUOUS
10
8.60316
20
-4.61755
11
8.60326
21
-4.61697
0
LINE
8
BLACK
6
CONTINUOUS
10
8.60326
20
-4.61697
11
8.60325
21
-4.61683
0
LINE
8
BLACK
6
CONTINUOUS
10
8.60325
20
-4.61683
11
8.60512
21
-4.60933
0
LINE
8
BLACK
6
CONTINUOUS
10
8.60512
20
-4.60933
11
8.60554
21
-4.6084
0
LINE
8
BLACK
6
CONTINUOUS
10
8.60554
20
-4.6084
11
8.60578
21
-4.60822
0
LINE
8
BLACK
6
CONTINUOUS
10
8.60578
20
-4.60822
11
8.6059
21
-4.60796
0
LINE
8
BLACK
6
CONTINUOUS
10
8.6059
20
-4.60796
11
8.60965
21
-4.60421
0
LINE
8
BLACK
6
CONTINUOUS
10
8.60965
20
-4.60421
11
8.61037
21
-4.6037
0
LINE
8
BLACK
6
CONTINUOUS
10
8.61037
20
-4.6037
11
8.61042
21
-4.60366
0
LINE
8
BLACK
6
CONTINUOUS
10
8.61042
20
-4.60366
11
8.61417
21
-4.60178
0
LINE
8
BLACK
6
CONTINUOUS
10
8.61417
20
-4.60178
11
8.61515
21
-4.60149
0
LINE
8
BLACK
6
CONTINUOUS
10
8.61515
20
-4.60149
11
8.61532
21
-4.60153
0
LINE
8
BLACK
6
CONTINUOUS
10
8.61532
20
-4.60153
11
8.61549
21
-4.60147
0
LINE
8
BLACK
6
CONTINUOUS
10
8.61549
20
-4.60147
11
8.62298
21
-4.60147
0
LINE
8
BLACK
6
CONTINUOUS
10
8.62298
20
-4.60147
11
8.62399
21
-4.60165
0
LINE
8
BLACK
6
CONTINUOUS
10
8.61618
20
-4.60738
11
8.61349
21
-4.60873
0
LINE
8
BLACK
6
CONTINUOUS
10
8.61349
20
-4.60873
11
8.61065
21
-4.61156
0
LINE
8
BLACK
6
CONTINUOUS
10
8.61065
20
-4.61156
11
8.60906
21
-4.61791
0
LINE
8
BLACK
6
CONTINUOUS
10
8.60906
20
-4.61791
11
8.60906
21
-4.63031
0
LINE
8
BLACK
6
CONTINUOUS
10
8.60906
20
-4.63031
11
8.61065
21
-4.63666
0
LINE
8
BLACK
6
CONTINUOUS
10
8.61065
20
-4.63666
11
8.61349
21
-4.63949
0
LINE
8
BLACK
6
CONTINUOUS
10
8.61349
20
-4.63949
11
8.61618
21
-4.64084
0
LINE
8
BLACK
6
CONTINUOUS
10
8.61618
20
-4.64084
11
8.62229
21
-4.64084
0
LINE
8
BLACK
6
CONTINUOUS
10
8.62229
20
-4.64084
11
8.62499
21
-4.63949
0
LINE
8
BLACK
6
CONTINUOUS
10
8.62499
20
-4.63949
11
8.62782
21
-4.63666
0
LINE
8
BLACK
6
CONTINUOUS
10
8.62782
20
-4.63666
11
8.62941
21
-4.63031
0
LINE
8
BLACK
6
CONTINUOUS
10
8.62941
20
-4.63031
11
8.62941
21
-4.61791
0
LINE
8
BLACK
6
CONTINUOUS
10
8.62941
20
-4.61791
11
8.62782
21
-4.61156
0
LINE
8
BLACK
6
CONTINUOUS
10
8.62782
20
-4.61156
11
8.62499
21
-4.60873
0
LINE
8
BLACK
6
CONTINUOUS
10
8.62499
20
-4.60873
11
8.62229
21
-4.60738
0
LINE
8
BLACK
6
CONTINUOUS
10
8.62229
20
-4.60738
11
8.61618
21
-4.60738
0
LINE
8
BLACK
6
CONTINUOUS
10
7.62568
20
-4.60165
11
7.62723
21
-4.60295
0
LINE
8
BLACK
6
CONTINUOUS
10
7.62723
20
-4.60295
11
7.62758
21
-4.60494
0
LINE
8
BLACK
6
CONTINUOUS
10
7.62758
20
-4.60494
11
7.62657
21
-4.60669
0
LINE
8
BLACK
6
CONTINUOUS
10
7.62657
20
-4.60669
11
7.62467
21
-4.60738
0
LINE
8
BLACK
6
CONTINUOUS
10
7.62467
20
-4.60738
11
7.60888
21
-4.60738
0
LINE
8
BLACK
6
CONTINUOUS
10
7.60888
20
-4.60738
11
7.60888
21
-4.62022
0
LINE
8
BLACK
6
CONTINUOUS
10
7.60888
20
-4.62022
11
7.61905
21
-4.62022
0
LINE
8
BLACK
6
CONTINUOUS
10
7.61905
20
-4.62022
11
7.62006
21
-4.6204
0
LINE
8
BLACK
6
CONTINUOUS
10
7.62006
20
-4.6204
11
7.6216
21
-4.6217
0
LINE
8
BLACK
6
CONTINUOUS
10
7.6216
20
-4.6217
11
7.62196
21
-4.62368
0
LINE
8
BLACK
6
CONTINUOUS
10
7.62196
20
-4.62368
11
7.62095
21
-4.62543
0
LINE
8
BLACK
6
CONTINUOUS
10
7.62095
20
-4.62543
11
7.61905
21
-4.62612
0
LINE
8
BLACK
6
CONTINUOUS
10
7.61905
20
-4.62612
11
7.60888
21
-4.62612
0
LINE
8
BLACK
6
CONTINUOUS
10
7.60888
20
-4.62612
11
7.60888
21
-4.64084
0
LINE
8
BLACK
6
CONTINUOUS
10
7.60888
20
-4.64084
11
7.62467
21
-4.64084
0
LINE
8
BLACK
6
CONTINUOUS
10
7.62467
20
-4.64084
11
7.62568
21
-4.64102
0
LINE
8
BLACK
6
CONTINUOUS
10
7.62568
20
-4.64102
11
7.62723
21
-4.64232
0
LINE
8
BLACK
6
CONTINUOUS
10
7.62723
20
-4.64232
11
7.62758
21
-4.64431
0
LINE
8
BLACK
6
CONTINUOUS
10
7.62758
20
-4.64431
11
7.62657
21
-4.64606
0
LINE
8
BLACK
6
CONTINUOUS
10
7.62657
20
-4.64606
11
7.62467
21
-4.64675
0
LINE
8
BLACK
6
CONTINUOUS
10
7.62467
20
-4.64675
11
7.60592
21
-4.64675
0
LINE
8
BLACK
6
CONTINUOUS
10
7.60592
20
-4.64675
11
7.60554
21
-4.64668
0
LINE
8
BLACK
6
CONTINUOUS
10
7.60554
20
-4.64668
11
7.60541
21
-4.6467
0
LINE
8
BLACK
6
CONTINUOUS
10
7.60541
20
-4.6467
11
7.6053
21
-4.64664
0
LINE
8
BLACK
6
CONTINUOUS
10
7.6053
20
-4.64664
11
7.60491
21
-4.64657
0
LINE
8
BLACK
6
CONTINUOUS
10
7.60491
20
-4.64657
11
7.60433
21
-4.64608
0
LINE
8
BLACK
6
CONTINUOUS
10
7.60433
20
-4.64608
11
7.60366
21
-4.64569
0
LINE
8
BLACK
6
CONTINUOUS
10
7.60366
20
-4.64569
11
7.60357
21
-4.64544
0
LINE
8
BLACK
6
CONTINUOUS
10
7.60357
20
-4.64544
11
7.60337
21
-4.64527
0
LINE
8
BLACK
6
CONTINUOUS
10
7.60337
20
-4.64527
11
7.60323
21
-4.64452
0
LINE
8
BLACK
6
CONTINUOUS
10
7.60323
20
-4.64452
11
7.60297
21
-4.64379
0
LINE
8
BLACK
6
CONTINUOUS
10
7.60297
20
-4.64379
11
7.60297
21
-4.60442
0
LINE
8
BLACK
6
CONTINUOUS
10
7.60297
20
-4.60442
11
7.60304
21
-4.60404
0
LINE
8
BLACK
6
CONTINUOUS
10
7.60304
20
-4.60404
11
7.60302
21
-4.60391
0
LINE
8
BLACK
6
CONTINUOUS
10
7.60302
20
-4.60391
11
7.60308
21
-4.6038
0
LINE
8
BLACK
6
CONTINUOUS
10
7.60308
20
-4.6038
11
7.60315
21
-4.60341
0
LINE
8
BLACK
6
CONTINUOUS
10
7.60315
20
-4.60341
11
7.60364
21
-4.60283
0
LINE
8
BLACK
6
CONTINUOUS
10
7.60364
20
-4.60283
11
7.60403
21
-4.60216
0
LINE
8
BLACK
6
CONTINUOUS
10
7.60403
20
-4.60216
11
7.60428
21
-4.60207
0
LINE
8
BLACK
6
CONTINUOUS
10
7.60428
20
-4.60207
11
7.60445
21
-4.60187
0
LINE
8
BLACK
6
CONTINUOUS
10
7.60445
20
-4.60187
11
7.6052
21
-4.60173
0
LINE
8
BLACK
6
CONTINUOUS
10
7.6052
20
-4.60173
11
7.60592
21
-4.60147
0
LINE
8
BLACK
6
CONTINUOUS
10
7.60592
20
-4.60147
11
7.62467
21
-4.60147
0
LINE
8
BLACK
6
CONTINUOUS
10
7.62467
20
-4.60147
11
7.62568
21
-4.60165
0
LINE
8
BLACK
6
CONTINUOUS
10
8.51151
20
-4.60165
11
8.51164
21
-4.60176
0
LINE
8
BLACK
6
CONTINUOUS
10
8.51164
20
-4.60176
11
8.51182
21
-4.60178
0
LINE
8
BLACK
6
CONTINUOUS
10
8.51182
20
-4.60178
11
8.51557
21
-4.60366
0
LINE
8
BLACK
6
CONTINUOUS
10
8.51557
20
-4.60366
11
8.51628
21
-4.60418
0
LINE
8
BLACK
6
CONTINUOUS
10
8.51628
20
-4.60418
11
8.51634
21
-4.60421
0
LINE
8
BLACK
6
CONTINUOUS
10
8.51634
20
-4.60421
11
8.51821
21
-4.60609
0
LINE
8
BLACK
6
CONTINUOUS
10
8.51821
20
-4.60609
11
8.51872
21
-4.60681
0
LINE
8
BLACK
6
CONTINUOUS
10
8.51872
20
-4.60681
11
8.51876
21
-4.60685
0
LINE
8
BLACK
6
CONTINUOUS
10
8.51876
20
-4.60685
11
8.52064
21
-4.6106
0
LINE
8
BLACK
6
CONTINUOUS
10
8.52064
20
-4.6106
11
8.52093
21
-4.61159
0
LINE
8
BLACK
6
CONTINUOUS
10
8.52093
20
-4.61159
11
8.52089
21
-4.61176
0
LINE
8
BLACK
6
CONTINUOUS
10
8.52089
20
-4.61176
11
8.52095
21
-4.61192
0
LINE
8
BLACK
6
CONTINUOUS
10
8.52095
20
-4.61192
11
8.52095
21
-4.61755
0
LINE
8
BLACK
6
CONTINUOUS
10
8.52095
20
-4.61755
11
8.52077
21
-4.61856
0
LINE
8
BLACK
6
CONTINUOUS
10
8.52077
20
-4.61856
11
8.52066
21
-4.61869
0
LINE
8
BLACK
6
CONTINUOUS
10
8.52066
20
-4.61869
11
8.52064
21
-4.61887
0
LINE
8
BLACK
6
CONTINUOUS
10
8.52064
20
-4.61887
11
8.51876
21
-4.62262
0
LINE
8
BLACK
6
CONTINUOUS
10
8.51876
20
-4.62262
11
8.51824
21
-4.62333
0
LINE
8
BLACK
6
CONTINUOUS
10
8.51824
20
-4.62333
11
8.51821
21
-4.62339
0
LINE
8
BLACK
6
CONTINUOUS
10
8.51821
20
-4.62339
11
8.51634
21
-4.62526
0
LINE
8
BLACK
6
CONTINUOUS
10
8.51634
20
-4.62526
11
8.51561
21
-4.62577
0
LINE
8
BLACK
6
CONTINUOUS
10
8.51561
20
-4.62577
11
8.51557
21
-4.62581
0
LINE
8
BLACK
6
CONTINUOUS
10
8.51557
20
-4.62581
11
8.51182
21
-4.62769
0
LINE
8
BLACK
6
CONTINUOUS
10
8.51182
20
-4.62769
11
8.51084
21
-4.62798
0
LINE
8
BLACK
6
CONTINUOUS
10
8.51084
20
-4.62798
11
8.51066
21
-4.62794
0
LINE
8
BLACK
6
CONTINUOUS
10
8.51066
20
-4.62794
11
8.51054
21
-4.62799
0
LINE
8
BLACK
6
CONTINUOUS
10
8.51054
20
-4.62799
11
8.52042
21
-4.6421
0
LINE
8
BLACK
6
CONTINUOUS
10
8.52042
20
-4.6421
11
8.52085
21
-4.64303
0
LINE
8
BLACK
6
CONTINUOUS
10
8.52085
20
-4.64303
11
8.52067
21
-4.64504
0
LINE
8
BLACK
6
CONTINUOUS
10
8.52067
20
-4.64504
11
8.51925
21
-4.64647
0
LINE
8
BLACK
6
CONTINUOUS
10
8.51925
20
-4.64647
11
8.51723
21
-4.64665
0
LINE
8
BLACK
6
CONTINUOUS
10
8.51723
20
-4.64665
11
8.51558
21
-4.64549
0
LINE
8
BLACK
6
CONTINUOUS
10
8.51558
20
-4.64549
11
8.50334
21
-4.628
0
LINE
8
BLACK
6
CONTINUOUS
10
8.50334
20
-4.628
11
8.49845
21
-4.628
0
LINE
8
BLACK
6
CONTINUOUS
10
8.49845
20
-4.628
11
8.49845
21
-4.64379
0
LINE
8
BLACK
6
CONTINUOUS
10
8.49845
20
-4.64379
11
8.49828
21
-4.6448
0
LINE
8
BLACK
6
CONTINUOUS
10
8.49828
20
-4.6448
11
8.49698
21
-4.64635
0
LINE
8
BLACK
6
CONTINUOUS
10
8.49698
20
-4.64635
11
8.49499
21
-4.6467
0
LINE
8
BLACK
6
CONTINUOUS
10
8.49499
20
-4.6467
11
8.49324
21
-4.64569
0
LINE
8
BLACK
6
CONTINUOUS
10
8.49324
20
-4.64569
11
8.49255
21
-4.64379
0
LINE
8
BLACK
6
CONTINUOUS
10
8.49255
20
-4.64379
11
8.49255
21
-4.60442
0
LINE
8
BLACK
6
CONTINUOUS
10
8.49255
20
-4.60442
11
8.49262
21
-4.60404
0
LINE
8
BLACK
6
CONTINUOUS
10
8.49262
20
-4.60404
11
8.49259
21
-4.60391
0
LINE
8
BLACK
6
CONTINUOUS
10
8.49259
20
-4.60391
11
8.49266
21
-4.6038
0
LINE
8
BLACK
6
CONTINUOUS
10
8.49266
20
-4.6038
11
8.49273
21
-4.60341
0
LINE
8
BLACK
6
CONTINUOUS
10
8.49273
20
-4.60341
11
8.49322
21
-4.60283
0
LINE
8
BLACK
6
CONTINUOUS
10
8.49322
20
-4.60283
11
8.4936
21
-4.60216
0
LINE
8
BLACK
6
CONTINUOUS
10
8.4936
20
-4.60216
11
8.49385
21
-4.60207
0
LINE
8
BLACK
6
CONTINUOUS
10
8.49385
20
-4.60207
11
8.49402
21
-4.60187
0
LINE
8
BLACK
6
CONTINUOUS
10
8.49402
20
-4.60187
11
8.49478
21
-4.60173
0
LINE
8
BLACK
6
CONTINUOUS
10
8.49478
20
-4.60173
11
8.4955
21
-4.60147
0
LINE
8
BLACK
6
CONTINUOUS
10
8.4955
20
-4.60147
11
8.5105
21
-4.60147
0
LINE
8
BLACK
6
CONTINUOUS
10
8.5105
20
-4.60147
11
8.51151
21
-4.60165
0
LINE
8
BLACK
6
CONTINUOUS
10
8.49845
20
-4.60738
11
8.49845
21
-4.62209
0
LINE
8
BLACK
6
CONTINUOUS
10
8.49845
20
-4.62209
11
8.5098
21
-4.62209
0
LINE
8
BLACK
6
CONTINUOUS
10
8.5098
20
-4.62209
11
8.5125
21
-4.62075
0
LINE
8
BLACK
6
CONTINUOUS
10
8.5125
20
-4.62075
11
8.5137
21
-4.61955
0
LINE
8
BLACK
6
CONTINUOUS
10
8.5137
20
-4.61955
11
8.51504
21
-4.61685
0
LINE
8
BLACK
6
CONTINUOUS
10
8.51504
20
-4.61685
11
8.51504
21
-4.61262
0
LINE
8
BLACK
6
CONTINUOUS
10
8.51504
20
-4.61262
11
8.5137
21
-4.60992
0
LINE
8
BLACK
6
CONTINUOUS
10
8.5137
20
-4.60992
11
8.5125
21
-4.60873
0
LINE
8
BLACK
6
CONTINUOUS
10
8.5125
20
-4.60873
11
8.5098
21
-4.60738
0
LINE
8
BLACK
6
CONTINUOUS
10
8.5098
20
-4.60738
11
8.49845
21
-4.60738
0
LINE
8
BLACK
6
CONTINUOUS
10
7.55257
20
-4.60165
11
7.55411
21
-4.60295
0
LINE
8
BLACK
6
CONTINUOUS
10
7.55411
20
-4.60295
11
7.55446
21
-4.60494
0
LINE
8
BLACK
6
CONTINUOUS
10
7.55446
20
-4.60494
11
7.55345
21
-4.60669
0
LINE
8
BLACK
6
CONTINUOUS
10
7.55345
20
-4.60669
11
7.55156
21
-4.60738
0
LINE
8
BLACK
6
CONTINUOUS
10
7.55156
20
-4.60738
11
7.53576
21
-4.60738
0
LINE
8
BLACK
6
CONTINUOUS
10
7.53576
20
-4.60738
11
7.53576
21
-4.62022
0
LINE
8
BLACK
6
CONTINUOUS
10
7.53576
20
-4.62022
11
7.54593
21
-4.62022
0
LINE
8
BLACK
6
CONTINUOUS
10
7.54593
20
-4.62022
11
7.54694
21
-4.6204
0
LINE
8
BLACK
6
CONTINUOUS
10
7.54694
20
-4.6204
11
7.54849
21
-4.6217
0
LINE
8
BLACK
6
CONTINUOUS
10
7.54849
20
-4.6217
11
7.54884
21
-4.62368
0
LINE
8
BLACK
6
CONTINUOUS
10
7.54884
20
-4.62368
11
7.54783
21
-4.62543
0
LINE
8
BLACK
6
CONTINUOUS
10
7.54783
20
-4.62543
11
7.54593
21
-4.62612
0
LINE
8
BLACK
6
CONTINUOUS
10
7.54593
20
-4.62612
11
7.53576
21
-4.62612
0
LINE
8
BLACK
6
CONTINUOUS
10
7.53576
20
-4.62612
11
7.53576
21
-4.64379
0
LINE
8
BLACK
6
CONTINUOUS
10
7.53576
20
-4.64379
11
7.53558
21
-4.6448
0
LINE
8
BLACK
6
CONTINUOUS
10
7.53558
20
-4.6448
11
7.53428
21
-4.64635
0
LINE
8
BLACK
6
CONTINUOUS
10
7.53428
20
-4.64635
11
7.5323
21
-4.6467
0
LINE
8
BLACK
6
CONTINUOUS
10
7.5323
20
-4.6467
11
7.53055
21
-4.64569
0
LINE
8
BLACK
6
CONTINUOUS
10
7.53055
20
-4.64569
11
7.52986
21
-4.64379
0
LINE
8
BLACK
6
CONTINUOUS
10
7.52986
20
-4.64379
11
7.52986
21
-4.60442
0
LINE
8
BLACK
6
CONTINUOUS
10
7.52986
20
-4.60442
11
7.52992
21
-4.60404
0
LINE
8
BLACK
6
CONTINUOUS
10
7.52992
20
-4.60404
11
7.5299
21
-4.60391
0
LINE
8
BLACK
6
CONTINUOUS
10
7.5299
20
-4.60391
11
7.52997
21
-4.6038
0
LINE
8
BLACK
6
CONTINUOUS
10
7.52997
20
-4.6038
11
7.53003
21
-4.60341
0
LINE
8
BLACK
6
CONTINUOUS
10
7.53003
20
-4.60341
11
7.53053
21
-4.60283
0
LINE
8
BLACK
6
CONTINUOUS
10
7.53053
20
-4.60283
11
7.53091
21
-4.60216
0
LINE
8
BLACK
6
CONTINUOUS
10
7.53091
20
-4.60216
11
7.53116
21
-4.60207
0
LINE
8
BLACK
6
CONTINUOUS
10
7.53116
20
-4.60207
11
7.53133
21
-4.60187
0
LINE
8
BLACK
6
CONTINUOUS
10
7.53133
20
-4.60187
11
7.53209
21
-4.60173
0
LINE
8
BLACK
6
CONTINUOUS
10
7.53209
20
-4.60173
11
7.53281
21
-4.60147
0
LINE
8
BLACK
6
CONTINUOUS
10
7.53281
20
-4.60147
11
7.55156
21
-4.60147
0
LINE
8
BLACK
6
CONTINUOUS
10
7.55156
20
-4.60147
11
7.55257
21
-4.60165
0
LINE
8
BLACK
6
CONTINUOUS
10
7.58256
20
-4.60165
11
7.5827
21
-4.60176
0
LINE
8
BLACK
6
CONTINUOUS
10
7.5827
20
-4.60176
11
7.58287
21
-4.60178
0
LINE
8
BLACK
6
CONTINUOUS
10
7.58287
20
-4.60178
11
7.58662
21
-4.60366
0
LINE
8
BLACK
6
CONTINUOUS
10
7.58662
20
-4.60366
11
7.58733
21
-4.60418
0
LINE
8
BLACK
6
CONTINUOUS
10
7.58733
20
-4.60418
11
7.58739
21
-4.60421
0
LINE
8
BLACK
6
CONTINUOUS
10
7.58739
20
-4.60421
11
7.58926
21
-4.60609
0
LINE
8
BLACK
6
CONTINUOUS
10
7.58926
20
-4.60609
11
7.58977
21
-4.60681
0
LINE
8
BLACK
6
CONTINUOUS
10
7.58977
20
-4.60681
11
7.58982
21
-4.60685
0
LINE
8
BLACK
6
CONTINUOUS
10
7.58982
20
-4.60685
11
7.59169
21
-4.6106
0
LINE
8
BLACK
6
CONTINUOUS
10
7.59169
20
-4.6106
11
7.59198
21
-4.61159
0
LINE
8
BLACK
6
CONTINUOUS
10
7.59198
20
-4.61159
11
7.59194
21
-4.61176
0
LINE
8
BLACK
6
CONTINUOUS
10
7.59194
20
-4.61176
11
7.592
21
-4.61192
0
LINE
8
BLACK
6
CONTINUOUS
10
7.592
20
-4.61192
11
7.592
21
-4.61755
0
LINE
8
BLACK
6
CONTINUOUS
10
7.592
20
-4.61755
11
7.59183
21
-4.61856
0
LINE
8
BLACK
6
CONTINUOUS
10
7.59183
20
-4.61856
11
7.59171
21
-4.61869
0
LINE
8
BLACK
6
CONTINUOUS
10
7.59171
20
-4.61869
11
7.59169
21
-4.61887
0
LINE
8
BLACK
6
CONTINUOUS
10
7.59169
20
-4.61887
11
7.58982
21
-4.62262
0
LINE
8
BLACK
6
CONTINUOUS
10
7.58982
20
-4.62262
11
7.58929
21
-4.62333
0
LINE
8
BLACK
6
CONTINUOUS
10
7.58929
20
-4.62333
11
7.58926
21
-4.62339
0
LINE
8
BLACK
6
CONTINUOUS
10
7.58926
20
-4.62339
11
7.58739
21
-4.62526
0
LINE
8
BLACK
6
CONTINUOUS
10
7.58739
20
-4.62526
11
7.58667
21
-4.62577
0
LINE
8
BLACK
6
CONTINUOUS
10
7.58667
20
-4.62577
11
7.58662
21
-4.62581
0
LINE
8
BLACK
6
CONTINUOUS
10
7.58662
20
-4.62581
11
7.58287
21
-4.62769
0
LINE
8
BLACK
6
CONTINUOUS
10
7.58287
20
-4.62769
11
7.58189
21
-4.62798
0
LINE
8
BLACK
6
CONTINUOUS
10
7.58189
20
-4.62798
11
7.58172
21
-4.62794
0
LINE
8
BLACK
6
CONTINUOUS
10
7.58172
20
-4.62794
11
7.58159
21
-4.62799
0
LINE
8
BLACK
6
CONTINUOUS
10
7.58159
20
-4.62799
11
7.59147
21
-4.6421
0
LINE
8
BLACK
6
CONTINUOUS
10
7.59147
20
-4.6421
11
7.5919
21
-4.64303
0
LINE
8
BLACK
6
CONTINUOUS
10
7.5919
20
-4.64303
11
7.59173
21
-4.64504
0
LINE
8
BLACK
6
CONTINUOUS
10
7.59173
20
-4.64504
11
7.5903
21
-4.64647
0
LINE
8
BLACK
6
CONTINUOUS
10
7.5903
20
-4.64647
11
7.58829
21
-4.64665
0
LINE
8
BLACK
6
CONTINUOUS
10
7.58829
20
-4.64665
11
7.58663
21
-4.64549
0
LINE
8
BLACK
6
CONTINUOUS
10
7.58663
20
-4.64549
11
7.57439
21
-4.628
0
LINE
8
BLACK
6
CONTINUOUS
10
7.57439
20
-4.628
11
7.56951
21
-4.628
0
LINE
8
BLACK
6
CONTINUOUS
10
7.56951
20
-4.628
11
7.56951
21
-4.64379
0
LINE
8
BLACK
6
CONTINUOUS
10
7.56951
20
-4.64379
11
7.56933
21
-4.6448
0
LINE
8
BLACK
6
CONTINUOUS
10
7.56933
20
-4.6448
11
7.56803
21
-4.64635
0
LINE
8
BLACK
6
CONTINUOUS
10
7.56803
20
-4.64635
11
7.56604
21
-4.6467
0
LINE
8
BLACK
6
CONTINUOUS
10
7.56604
20
-4.6467
11
7.56429
21
-4.64569
0
LINE
8
BLACK
6
CONTINUOUS
10
7.56429
20
-4.64569
11
7.5636
21
-4.64379
0
LINE
8
BLACK
6
CONTINUOUS
10
7.5636
20
-4.64379
11
7.5636
21
-4.60442
0
LINE
8
BLACK
6
CONTINUOUS
10
7.5636
20
-4.60442
11
7.56367
21
-4.60404
0
LINE
8
BLACK
6
CONTINUOUS
10
7.56367
20
-4.60404
11
7.56365
21
-4.60391
0
LINE
8
BLACK
6
CONTINUOUS
10
7.56365
20
-4.60391
11
7.56371
21
-4.6038
0
LINE
8
BLACK
6
CONTINUOUS
10
7.56371
20
-4.6038
11
7.56378
21
-4.60341
0
LINE
8
BLACK
6
CONTINUOUS
10
7.56378
20
-4.60341
11
7.56427
21
-4.60283
0
LINE
8
BLACK
6
CONTINUOUS
10
7.56427
20
-4.60283
11
7.56466
21
-4.60216
0
LINE
8
BLACK
6
CONTINUOUS
10
7.56466
20
-4.60216
11
7.56491
21
-4.60207
0
LINE
8
BLACK
6
CONTINUOUS
10
7.56491
20
-4.60207
11
7.56508
21
-4.60187
0
LINE
8
BLACK
6
CONTINUOUS
10
7.56508
20
-4.60187
11
7.56583
21
-4.60173
0
LINE
8
BLACK
6
CONTINUOUS
10
7.56583
20
-4.60173
11
7.56655
21
-4.60147
0
LINE
8
BLACK
6
CONTINUOUS
10
7.56655
20
-4.60147
11
7.58155
21
-4.60147
0
LINE
8
BLACK
6
CONTINUOUS
10
7.58155
20
-4.60147
11
7.58256
21
-4.60165
0
LINE
8
BLACK
6
CONTINUOUS
10
7.56951
20
-4.60738
11
7.56951
21
-4.62209
0
LINE
8
BLACK
6
CONTINUOUS
10
7.56951
20
-4.62209
11
7.58086
21
-4.62209
0
LINE
8
BLACK
6
CONTINUOUS
10
7.58086
20
-4.62209
11
7.58355
21
-4.62075
0
LINE
8
BLACK
6
CONTINUOUS
10
7.58355
20
-4.62075
11
7.58475
21
-4.61955
0
LINE
8
BLACK
6
CONTINUOUS
10
7.58475
20
-4.61955
11
7.5861
21
-4.61685
0
LINE
8
BLACK
6
CONTINUOUS
10
7.5861
20
-4.61685
11
7.5861
21
-4.61262
0
LINE
8
BLACK
6
CONTINUOUS
10
7.5861
20
-4.61262
11
7.58475
21
-4.60992
0
LINE
8
BLACK
6
CONTINUOUS
10
7.58475
20
-4.60992
11
7.58355
21
-4.60873
0
LINE
8
BLACK
6
CONTINUOUS
10
7.58355
20
-4.60873
11
7.58086
21
-4.60738
0
LINE
8
BLACK
6
CONTINUOUS
10
7.58086
20
-4.60738
11
7.56951
21
-4.60738
0
LINE
8
BLACK
6
CONTINUOUS
10
7.8055
20
-4.1605
11
7.80563
21
-4.16048
0
LINE
8
BLACK
6
CONTINUOUS
10
7.80563
20
-4.16048
11
7.80574
21
-4.16054
0
LINE
8
BLACK
6
CONTINUOUS
10
7.80574
20
-4.16054
11
7.80613
21
-4.16061
0
LINE
8
BLACK
6
CONTINUOUS
10
7.80613
20
-4.16061
11
7.80672
21
-4.1611
0
LINE
8
BLACK
6
CONTINUOUS
10
7.80672
20
-4.1611
11
7.80738
21
-4.16149
0
LINE
8
BLACK
6
CONTINUOUS
10
7.80738
20
-4.16149
11
7.80747
21
-4.16174
0
LINE
8
BLACK
6
CONTINUOUS
10
7.80747
20
-4.16174
11
7.80768
21
-4.16191
0
LINE
8
BLACK
6
CONTINUOUS
10
7.80768
20
-4.16191
11
7.80781
21
-4.16266
0
LINE
8
BLACK
6
CONTINUOUS
10
7.80781
20
-4.16266
11
7.80807
21
-4.16339
0
LINE
8
BLACK
6
CONTINUOUS
10
7.80807
20
-4.16339
11
7.80807
21
-4.57677
0
LINE
8
BLACK
6
CONTINUOUS
10
7.80807
20
-4.57677
11
7.808
21
-4.57716
0
LINE
8
BLACK
6
CONTINUOUS
10
7.808
20
-4.57716
11
7.80803
21
-4.57728
0
LINE
8
BLACK
6
CONTINUOUS
10
7.80803
20
-4.57728
11
7.80796
21
-4.5774
0
LINE
8
BLACK
6
CONTINUOUS
10
7.80796
20
-4.5774
11
7.80789
21
-4.57778
0
LINE
8
BLACK
6
CONTINUOUS
10
7.80789
20
-4.57778
11
7.8074
21
-4.57837
0
LINE
8
BLACK
6
CONTINUOUS
10
7.8074
20
-4.57837
11
7.80702
21
-4.57903
0
LINE
8
BLACK
6
CONTINUOUS
10
7.80702
20
-4.57903
11
7.80677
21
-4.57912
0
LINE
8
BLACK
6
CONTINUOUS
10
7.80677
20
-4.57912
11
7.80659
21
-4.57933
0
LINE
8
BLACK
6
CONTINUOUS
10
7.80659
20
-4.57933
11
7.80584
21
-4.57946
0
LINE
8
BLACK
6
CONTINUOUS
10
7.80584
20
-4.57946
11
7.80512
21
-4.57972
0
LINE
8
BLACK
6
CONTINUOUS
10
7.80512
20
-4.57972
11
7.39173
21
-4.57972
0
LINE
8
BLACK
6
CONTINUOUS
10
7.39173
20
-4.57972
11
7.39135
21
-4.57966
0
LINE
8
BLACK
6
CONTINUOUS
10
7.39135
20
-4.57966
11
7.39122
21
-4.57968
0
LINE
8
BLACK
6
CONTINUOUS
10
7.39122
20
-4.57968
11
7.39111
21
-4.57961
0
LINE
8
BLACK
6
CONTINUOUS
10
7.39111
20
-4.57961
11
7.39072
21
-4.57955
0
LINE
8
BLACK
6
CONTINUOUS
10
7.39072
20
-4.57955
11
7.39013
21
-4.57905
0
LINE
8
BLACK
6
CONTINUOUS
10
7.39013
20
-4.57905
11
7.38947
21
-4.57867
0
LINE
8
BLACK
6
CONTINUOUS
10
7.38947
20
-4.57867
11
7.38938
21
-4.57842
0
LINE
8
BLACK
6
CONTINUOUS
10
7.38938
20
-4.57842
11
7.38918
21
-4.57825
0
LINE
8
BLACK
6
CONTINUOUS
10
7.38918
20
-4.57825
11
7.38904
21
-4.57749
0
LINE
8
BLACK
6
CONTINUOUS
10
7.38904
20
-4.57749
11
7.38878
21
-4.57677
0
LINE
8
BLACK
6
CONTINUOUS
10
7.38878
20
-4.57677
11
7.38878
21
-4.22835
0
LINE
8
BLACK
6
CONTINUOUS
10
7.38878
20
-4.22835
11
7.38881
21
-4.22817
0
LINE
8
BLACK
6
CONTINUOUS
10
7.38881
20
-4.22817
11
7.38879
21
-4.22809
0
LINE
8
BLACK
6
CONTINUOUS
10
7.38879
20
-4.22809
11
7.38885
21
-4.22797
0
LINE
8
BLACK
6
CONTINUOUS
10
7.38885
20
-4.22797
11
7.38896
21
-4.22734
0
LINE
8
BLACK
6
CONTINUOUS
10
7.38896
20
-4.22734
11
7.38937
21
-4.22684
0
LINE
8
BLACK
6
CONTINUOUS
10
7.38937
20
-4.22684
11
7.38964
21
-4.22626
0
LINE
8
BLACK
6
CONTINUOUS
10
7.38964
20
-4.22626
11
7.4546
21
-4.1613
0
LINE
8
BLACK
6
CONTINUOUS
10
7.4546
20
-4.1613
11
7.45476
21
-4.16119
0
LINE
8
BLACK
6
CONTINUOUS
10
7.45476
20
-4.16119
11
7.45479
21
-4.16112
0
LINE
8
BLACK
6
CONTINUOUS
10
7.45479
20
-4.16112
11
7.45492
21
-4.16108
0
LINE
8
BLACK
6
CONTINUOUS
10
7.45492
20
-4.16108
11
7.45545
21
-4.16071
0
LINE
8
BLACK
6
CONTINUOUS
10
7.45545
20
-4.16071
11
7.45609
21
-4.16065
0
LINE
8
BLACK
6
CONTINUOUS
10
7.45609
20
-4.16065
11
7.45669
21
-4.16043
0
LINE
8
BLACK
6
CONTINUOUS
10
7.45669
20
-4.16043
11
7.80512
21
-4.16043
0
LINE
8
BLACK
6
CONTINUOUS
10
7.80512
20
-4.16043
11
7.8055
21
-4.1605
0
LINE
8
BLACK
6
CONTINUOUS
10
7.45792
20
-4.16634
11
7.39469
21
-4.22957
0
LINE
8
BLACK
6
CONTINUOUS
10
7.39469
20
-4.22957
11
7.39469
21
-4.57382
0
LINE
8
BLACK
6
CONTINUOUS
10
7.39469
20
-4.57382
11
7.80217
21
-4.57382
0
LINE
8
BLACK
6
CONTINUOUS
10
7.80217
20
-4.57382
11
7.80217
21
-4.16634
0
LINE
8
BLACK
6
CONTINUOUS
10
7.80217
20
-4.16634
11
7.45792
21
-4.16634
0
LINE
8
BLACK
6
CONTINUOUS
10
8.75038
20
-4.1605
11
8.75051
21
-4.16048
0
LINE
8
BLACK
6
CONTINUOUS
10
8.75051
20
-4.16048
11
8.75063
21
-4.16054
0
LINE
8
BLACK
6
CONTINUOUS
10
8.75063
20
-4.16054
11
8.75101
21
-4.16061
0
LINE
8
BLACK
6
CONTINUOUS
10
8.75101
20
-4.16061
11
8.7516
21
-4.1611
0
LINE
8
BLACK
6
CONTINUOUS
10
8.7516
20
-4.1611
11
8.75226
21
-4.16149
0
LINE
8
BLACK
6
CONTINUOUS
10
8.75226
20
-4.16149
11
8.75235
21
-4.16174
0
LINE
8
BLACK
6
CONTINUOUS
10
8.75235
20
-4.16174
11
8.75256
21
-4.16191
0
LINE
8
BLACK
6
CONTINUOUS
10
8.75256
20
-4.16191
11
8.75269
21
-4.16266
0
LINE
8
BLACK
6
CONTINUOUS
10
8.75269
20
-4.16266
11
8.75295
21
-4.16339
0
LINE
8
BLACK
6
CONTINUOUS
10
8.75295
20
-4.16339
11
8.75295
21
-4.57677
0
LINE
8
BLACK
6
CONTINUOUS
10
8.75295
20
-4.57677
11
8.75289
21
-4.57716
0
LINE
8
BLACK
6
CONTINUOUS
10
8.75289
20
-4.57716
11
8.75291
21
-4.57728
0
LINE
8
BLACK
6
CONTINUOUS
10
8.75291
20
-4.57728
11
8.75284
21
-4.5774
0
LINE
8
BLACK
6
CONTINUOUS
10
8.75284
20
-4.5774
11
8.75277
21
-4.57778
0
LINE
8
BLACK
6
CONTINUOUS
10
8.75277
20
-4.57778
11
8.75228
21
-4.57837
0
LINE
8
BLACK
6
CONTINUOUS
10
8.75228
20
-4.57837
11
8.7519
21
-4.57903
0
LINE
8
BLACK
6
CONTINUOUS
10
8.7519
20
-4.57903
11
8.75165
21
-4.57912
0
LINE
8
BLACK
6
CONTINUOUS
10
8.75165
20
-4.57912
11
8.75148
21
-4.57933
0
LINE
8
BLACK
6
CONTINUOUS
10
8.75148
20
-4.57933
11
8.75072
21
-4.57946
0
LINE
8
BLACK
6
CONTINUOUS
10
8.75072
20
-4.57946
11
8.75
21
-4.57972
0
LINE
8
BLACK
6
CONTINUOUS
10
8.75
20
-4.57972
11
8.33661
21
-4.57972
0
LINE
8
BLACK
6
CONTINUOUS
10
8.33661
20
-4.57972
11
8.33623
21
-4.57966
0
LINE
8
BLACK
6
CONTINUOUS
10
8.33623
20
-4.57966
11
8.3361
21
-4.57968
0
LINE
8
BLACK
6
CONTINUOUS
10
8.3361
20
-4.57968
11
8.33599
21
-4.57961
0
LINE
8
BLACK
6
CONTINUOUS
10
8.33599
20
-4.57961
11
8.3356
21
-4.57955
0
LINE
8
BLACK
6
CONTINUOUS
10
8.3356
20
-4.57955
11
8.33502
21
-4.57905
0
LINE
8
BLACK
6
CONTINUOUS
10
8.33502
20
-4.57905
11
8.33435
21
-4.57867
0
LINE
8
BLACK
6
CONTINUOUS
10
8.33435
20
-4.57867
11
8.33426
21
-4.57842
0
LINE
8
BLACK
6
CONTINUOUS
10
8.33426
20
-4.57842
11
8.33406
21
-4.57825
0
LINE
8
BLACK
6
CONTINUOUS
10
8.33406
20
-4.57825
11
8.33392
21
-4.57749
0
LINE
8
BLACK
6
CONTINUOUS
10
8.33392
20
-4.57749
11
8.33366
21
-4.57677
0
LINE
8
BLACK
6
CONTINUOUS
10
8.33366
20
-4.57677
11
8.33366
21
-4.22835
0
LINE
8
BLACK
6
CONTINUOUS
10
8.33366
20
-4.22835
11
8.33369
21
-4.22817
0
LINE
8
BLACK
6
CONTINUOUS
10
8.33369
20
-4.22817
11
8.33367
21
-4.22809
0
LINE
8
BLACK
6
CONTINUOUS
10
8.33367
20
-4.22809
11
8.33373
21
-4.22797
0
LINE
8
BLACK
6
CONTINUOUS
10
8.33373
20
-4.22797
11
8.33384
21
-4.22734
0
LINE
8
BLACK
6
CONTINUOUS
10
8.33384
20
-4.22734
11
8.33425
21
-4.22684
0
LINE
8
BLACK
6
CONTINUOUS
10
8.33425
20
-4.22684
11
8.33453
21
-4.22626
0
LINE
8
BLACK
6
CONTINUOUS
10
8.33453
20
-4.22626
11
8.39949
21
-4.1613
0
LINE
8
BLACK
6
CONTINUOUS
10
8.39949
20
-4.1613
11
8.39964
21
-4.16119
0
LINE
8
BLACK
6
CONTINUOUS
10
8.39964
20
-4.16119
11
8.39968
21
-4.16112
0
LINE
8
BLACK
6
CONTINUOUS
10
8.39968
20
-4.16112
11
8.3998
21
-4.16108
0
LINE
8
BLACK
6
CONTINUOUS
10
8.3998
20
-4.16108
11
8.40033
21
-4.16071
0
LINE
8
BLACK
6
CONTINUOUS
10
8.40033
20
-4.16071
11
8.40097
21
-4.16065
0
LINE
8
BLACK
6
CONTINUOUS
10
8.40097
20
-4.16065
11
8.40157
21
-4.16043
0
LINE
8
BLACK
6
CONTINUOUS
10
8.40157
20
-4.16043
11
8.75
21
-4.16043
0
LINE
8
BLACK
6
CONTINUOUS
10
8.75
20
-4.16043
11
8.75038
21
-4.1605
0
LINE
8
BLACK
6
CONTINUOUS
10
8.4028
20
-4.16634
11
8.33957
21
-4.22957
0
LINE
8
BLACK
6
CONTINUOUS
10
8.33957
20
-4.22957
11
8.33957
21
-4.57382
0
LINE
8
BLACK
6
CONTINUOUS
10
8.33957
20
-4.57382
11
8.74705
21
-4.57382
0
LINE
8
BLACK
6
CONTINUOUS
10
8.74705
20
-4.57382
11
8.74705
21
-4.16634
0
LINE
8
BLACK
6
CONTINUOUS
10
8.74705
20
-4.16634
11
8.4028
21
-4.16634
0
LINE
8
BLACK
6
CONTINUOUS
10
8.11841
20
-4.48986
11
8.11772
21
-4.48819
0
LINE
8
BLACK
6
CONTINUOUS
10
8.11772
20
-4.48819
11
8.11841
21
-4.48652
0
LINE
8
BLACK
6
CONTINUOUS
10
8.11841
20
-4.48652
11
8.12008
21
-4.48583
0
LINE
8
BLACK
6
CONTINUOUS
10
8.12008
20
-4.48583
11
8.19646
21
-4.48583
0
LINE
8
BLACK
6
CONTINUOUS
10
8.19646
20
-4.48583
11
8.19646
21
-4.4685
0
LINE
8
BLACK
6
CONTINUOUS
10
8.19646
20
-4.4685
11
8.19715
21
-4.46683
0
LINE
8
BLACK
6
CONTINUOUS
10
8.19715
20
-4.46683
11
8.19882
21
-4.46614
0
LINE
8
BLACK
6
CONTINUOUS
10
8.19882
20
-4.46614
11
8.20049
21
-4.46683
0
LINE
8
BLACK
6
CONTINUOUS
10
8.20049
20
-4.46683
11
8.20118
21
-4.4685
0
LINE
8
BLACK
6
CONTINUOUS
10
8.20118
20
-4.4685
11
8.20118
21
-4.48819
0
LINE
8
BLACK
6
CONTINUOUS
10
8.20118
20
-4.48819
11
8.20049
21
-4.48986
0
LINE
8
BLACK
6
CONTINUOUS
10
8.20049
20
-4.48986
11
8.19882
21
-4.49055
0
LINE
8
BLACK
6
CONTINUOUS
10
8.19882
20
-4.49055
11
8.12008
21
-4.49055
0
LINE
8
BLACK
6
CONTINUOUS
10
8.12008
20
-4.49055
11
8.11841
21
-4.48986
0
LINE
8
BLACK
6
CONTINUOUS
10
7.7105
20
-4.10115
11
7.71107
21
-4.10119
0
LINE
8
BLACK
6
CONTINUOUS
10
7.71107
20
-4.10119
11
7.71295
21
-4.10213
0
LINE
8
BLACK
6
CONTINUOUS
10
7.71295
20
-4.10213
11
7.71321
21
-4.10244
0
LINE
8
BLACK
6
CONTINUOUS
10
7.71321
20
-4.10244
11
7.71359
21
-4.10259
0
LINE
8
BLACK
6
CONTINUOUS
10
7.71359
20
-4.10259
11
7.71453
21
-4.10353
0
LINE
8
BLACK
6
CONTINUOUS
10
7.71453
20
-4.10353
11
7.71468
21
-4.1039
0
LINE
8
BLACK
6
CONTINUOUS
10
7.71468
20
-4.1039
11
7.71499
21
-4.10417
0
LINE
8
BLACK
6
CONTINUOUS
10
7.71499
20
-4.10417
11
7.71592
21
-4.10604
0
LINE
8
BLACK
6
CONTINUOUS
10
7.71592
20
-4.10604
11
7.71594
21
-4.10632
0
LINE
8
BLACK
6
CONTINUOUS
10
7.71594
20
-4.10632
11
7.71611
21
-4.10655
0
LINE
8
BLACK
6
CONTINUOUS
10
7.71611
20
-4.10655
11
7.71705
21
-4.1103
0
LINE
8
BLACK
6
CONTINUOUS
10
7.71705
20
-4.1103
11
7.717
21
-4.1106
0
LINE
8
BLACK
6
CONTINUOUS
10
7.717
20
-4.1106
11
7.71712
21
-4.11089
0
LINE
8
BLACK
6
CONTINUOUS
10
7.71712
20
-4.11089
11
7.71712
21
-4.11558
0
LINE
8
BLACK
6
CONTINUOUS
10
7.71712
20
-4.11558
11
7.717
21
-4.11587
0
LINE
8
BLACK
6
CONTINUOUS
10
7.717
20
-4.11587
11
7.71705
21
-4.11618
0
LINE
8
BLACK
6
CONTINUOUS
10
7.71705
20
-4.11618
11
7.71611
21
-4.11993
0
LINE
8
BLACK
6
CONTINUOUS
10
7.71611
20
-4.11993
11
7.71594
21
-4.12015
0
LINE
8
BLACK
6
CONTINUOUS
10
7.71594
20
-4.12015
11
7.71592
21
-4.12043
0
LINE
8
BLACK
6
CONTINUOUS
10
7.71592
20
-4.12043
11
7.71499
21
-4.1223
0
LINE
8
BLACK
6
CONTINUOUS
10
7.71499
20
-4.1223
11
7.71468
21
-4.12257
0
LINE
8
BLACK
6
CONTINUOUS
10
7.71468
20
-4.12257
11
7.71453
21
-4.12294
0
LINE
8
BLACK
6
CONTINUOUS
10
7.71453
20
-4.12294
11
7.71359
21
-4.12388
0
LINE
8
BLACK
6
CONTINUOUS
10
7.71359
20
-4.12388
11
7.71321
21
-4.12404
0
LINE
8
BLACK
6
CONTINUOUS
10
7.71321
20
-4.12404
11
7.71295
21
-4.12434
0
LINE
8
BLACK
6
CONTINUOUS
10
7.71295
20
-4.12434
11
7.71107
21
-4.12528
0
LINE
8
BLACK
6
CONTINUOUS
10
7.71107
20
-4.12528
11
7.7105
21
-4.12532
0
LINE
8
BLACK
6
CONTINUOUS
10
7.7105
20
-4.12532
11
7.70997
21
-4.12554
0
LINE
8
BLACK
6
CONTINUOUS
10
7.70997
20
-4.12554
11
7.7081
21
-4.12554
0
LINE
8
BLACK
6
CONTINUOUS
10
7.7081
20
-4.12554
11
7.70757
21
-4.12532
0
LINE
8
BLACK
6
CONTINUOUS
10
7.70757
20
-4.12532
11
7.707
21
-4.12528
0
LINE
8
BLACK
6
CONTINUOUS
10
7.707
20
-4.12528
11
7.70512
21
-4.12434
0
LINE
8
BLACK
6
CONTINUOUS
10
7.70512
20
-4.12434
11
7.70486
21
-4.12404
0
LINE
8
BLACK
6
CONTINUOUS
10
7.70486
20
-4.12404
11
7.70448
21
-4.12388
0
LINE
8
BLACK
6
CONTINUOUS
10
7.70448
20
-4.12388
11
7.70355
21
-4.12294
0
LINE
8
BLACK
6
CONTINUOUS
10
7.70355
20
-4.12294
11
7.70339
21
-4.12257
0
LINE
8
BLACK
6
CONTINUOUS
10
7.70339
20
-4.12257
11
7.70309
21
-4.1223
0
LINE
8
BLACK
6
CONTINUOUS
10
7.70309
20
-4.1223
11
7.70215
21
-4.12043
0
LINE
8
BLACK
6
CONTINUOUS
10
7.70215
20
-4.12043
11
7.70213
21
-4.12015
0
LINE
8
BLACK
6
CONTINUOUS
10
7.70213
20
-4.12015
11
7.70196
21
-4.11993
0
LINE
8
BLACK
6
CONTINUOUS
10
7.70196
20
-4.11993
11
7.70102
21
-4.11618
0
LINE
8
BLACK
6
CONTINUOUS
10
7.70102
20
-4.11618
11
7.70107
21
-4.11587
0
LINE
8
BLACK
6
CONTINUOUS
10
7.70107
20
-4.11587
11
7.70095
21
-4.11558
0
LINE
8
BLACK
6
CONTINUOUS
10
7.70095
20
-4.11558
11
7.70095
21
-4.11089
0
LINE
8
BLACK
6
CONTINUOUS
10
7.70095
20
-4.11089
11
7.70107
21
-4.1106
0
LINE
8
BLACK
6
CONTINUOUS
10
7.70107
20
-4.1106
11
7.70102
21
-4.1103
0
LINE
8
BLACK
6
CONTINUOUS
10
7.70102
20
-4.1103
11
7.70196
21
-4.10655
0
LINE
8
BLACK
6
CONTINUOUS
10
7.70196
20
-4.10655
11
7.70213
21
-4.10632
0
LINE
8
BLACK
6
CONTINUOUS
10
7.70213
20
-4.10632
11
7.70215
21
-4.10604
0
LINE
8
BLACK
6
CONTINUOUS
10
7.70215
20
-4.10604
11
7.70309
21
-4.10417
0
LINE
8
BLACK
6
CONTINUOUS
10
7.70309
20
-4.10417
11
7.70339
21
-4.1039
0
LINE
8
BLACK
6
CONTINUOUS
10
7.70339
20
-4.1039
11
7.70355
21
-4.10353
0
LINE
8
BLACK
6
CONTINUOUS
10
7.70355
20
-4.10353
11
7.70448
21
-4.10259
0
LINE
8
BLACK
6
CONTINUOUS
10
7.70448
20
-4.10259
11
7.70486
21
-4.10244
0
LINE
8
BLACK
6
CONTINUOUS
10
7.70486
20
-4.10244
11
7.70512
21
-4.10213
0
LINE
8
BLACK
6
CONTINUOUS
10
7.70512
20
-4.10213
11
7.707
21
-4.10119
0
LINE
8
BLACK
6
CONTINUOUS
10
7.707
20
-4.10119
11
7.70757
21
-4.10115
0
LINE
8
BLACK
6
CONTINUOUS
10
7.70757
20
-4.10115
11
7.7081
21
-4.10093
0
LINE
8
BLACK
6
CONTINUOUS
10
7.7081
20
-4.10093
11
7.70997
21
-4.10093
0
LINE
8
BLACK
6
CONTINUOUS
10
7.70997
20
-4.10093
11
7.7105
21
-4.10115
0
LINE
8
BLACK
6
CONTINUOUS
10
7.70868
20
-4.10585
11
7.70768
21
-4.10635
0
LINE
8
BLACK
6
CONTINUOUS
10
7.70768
20
-4.10635
11
7.70731
21
-4.10673
0
LINE
8
BLACK
6
CONTINUOUS
10
7.70731
20
-4.10673
11
7.70667
21
-4.108
0
LINE
8
BLACK
6
CONTINUOUS
10
7.70667
20
-4.108
11
7.70587
21
-4.1112
0
LINE
8
BLACK
6
CONTINUOUS
10
7.70587
20
-4.1112
11
7.70587
21
-4.11528
0
LINE
8
BLACK
6
CONTINUOUS
10
7.70587
20
-4.11528
11
7.70667
21
-4.11847
0
LINE
8
BLACK
6
CONTINUOUS
10
7.70667
20
-4.11847
11
7.70731
21
-4.11975
0
LINE
8
BLACK
6
CONTINUOUS
10
7.70731
20
-4.11975
11
7.70768
21
-4.12012
0
LINE
8
BLACK
6
CONTINUOUS
10
7.70768
20
-4.12012
11
7.70868
21
-4.12062
0
LINE
8
BLACK
6
CONTINUOUS
10
7.70868
20
-4.12062
11
7.70939
21
-4.12062
0
LINE
8
BLACK
6
CONTINUOUS
10
7.70939
20
-4.12062
11
7.71039
21
-4.12012
0
LINE
8
BLACK
6
CONTINUOUS
10
7.71039
20
-4.12012
11
7.71076
21
-4.11975
0
LINE
8
BLACK
6
CONTINUOUS
10
7.71076
20
-4.11975
11
7.7114
21
-4.11847
0
LINE
8
BLACK
6
CONTINUOUS
10
7.7114
20
-4.11847
11
7.7122
21
-4.11528
0
LINE
8
BLACK
6
CONTINUOUS
10
7.7122
20
-4.11528
11
7.7122
21
-4.1112
0
LINE
8
BLACK
6
CONTINUOUS
10
7.7122
20
-4.1112
11
7.7114
21
-4.108
0
LINE
8
BLACK
6
CONTINUOUS
10
7.7114
20
-4.108
11
7.71076
21
-4.10673
0
LINE
8
BLACK
6
CONTINUOUS
10
7.71076
20
-4.10673
11
7.71039
21
-4.10635
0
LINE
8
BLACK
6
CONTINUOUS
10
7.71039
20
-4.10635
11
7.70939
21
-4.10585
0
LINE
8
BLACK
6
CONTINUOUS
10
7.70939
20
-4.10585
11
7.70868
21
-4.10585
0
LINE
8
BLACK
6
CONTINUOUS
10
7.4933
20
-4.10165
11
7.49402
21
-4.10339
0
LINE
8
BLACK
6
CONTINUOUS
10
7.49402
20
-4.10339
11
7.4933
21
-4.10513
0
LINE
8
BLACK
6
CONTINUOUS
10
7.4933
20
-4.10513
11
7.49156
21
-4.10585
0
LINE
8
BLACK
6
CONTINUOUS
10
7.49156
20
-4.10585
11
7.4884
21
-4.10585
0
LINE
8
BLACK
6
CONTINUOUS
10
7.4884
20
-4.10585
11
7.4884
21
-4.12308
0
LINE
8
BLACK
6
CONTINUOUS
10
7.4884
20
-4.12308
11
7.48768
21
-4.12482
0
LINE
8
BLACK
6
CONTINUOUS
10
7.48768
20
-4.12482
11
7.48594
21
-4.12554
0
LINE
8
BLACK
6
CONTINUOUS
10
7.48594
20
-4.12554
11
7.4842
21
-4.12482
0
LINE
8
BLACK
6
CONTINUOUS
10
7.4842
20
-4.12482
11
7.48348
21
-4.12308
0
LINE
8
BLACK
6
CONTINUOUS
10
7.48348
20
-4.12308
11
7.48348
21
-4.10585
0
LINE
8
BLACK
6
CONTINUOUS
10
7.48348
20
-4.10585
11
7.48031
21
-4.10585
0
LINE
8
BLACK
6
CONTINUOUS
10
7.48031
20
-4.10585
11
7.47858
21
-4.10513
0
LINE
8
BLACK
6
CONTINUOUS
10
7.47858
20
-4.10513
11
7.47785
21
-4.10339
0
LINE
8
BLACK
6
CONTINUOUS
10
7.47785
20
-4.10339
11
7.47858
21
-4.10165
0
LINE
8
BLACK
6
CONTINUOUS
10
7.47858
20
-4.10165
11
7.48031
21
-4.10093
0
LINE
8
BLACK
6
CONTINUOUS
10
7.48031
20
-4.10093
11
7.49156
21
-4.10093
0
LINE
8
BLACK
6
CONTINUOUS
10
7.49156
20
-4.10093
11
7.4933
21
-4.10165
0
LINE
8
BLACK
6
CONTINUOUS
10
7.50428
20
-4.10771
11
7.50485
21
-4.10775
0
LINE
8
BLACK
6
CONTINUOUS
10
7.50485
20
-4.10775
11
7.50672
21
-4.10869
0
LINE
8
BLACK
6
CONTINUOUS
10
7.50672
20
-4.10869
11
7.50699
21
-4.109
0
LINE
8
BLACK
6
CONTINUOUS
10
7.50699
20
-4.109
11
7.50736
21
-4.10915
0
LINE
8
BLACK
6
CONTINUOUS
10
7.50736
20
-4.10915
11
7.5083
21
-4.11009
0
LINE
8
BLACK
6
CONTINUOUS
10
7.5083
20
-4.11009
11
7.50846
21
-4.11046
0
LINE
8
BLACK
6
CONTINUOUS
10
7.50846
20
-4.11046
11
7.50876
21
-4.11073
0
LINE
8
BLACK
6
CONTINUOUS
10
7.50876
20
-4.11073
11
7.5097
21
-4.1126
0
LINE
8
BLACK
6
CONTINUOUS
10
7.5097
20
-4.1126
11
7.50974
21
-4.11318
0
LINE
8
BLACK
6
CONTINUOUS
10
7.50974
20
-4.11318
11
7.50996
21
-4.1137
0
LINE
8
BLACK
6
CONTINUOUS
10
7.50996
20
-4.1137
11
7.50996
21
-4.11933
0
LINE
8
BLACK
6
CONTINUOUS
10
7.50996
20
-4.11933
11
7.50974
21
-4.11986
0
LINE
8
BLACK
6
CONTINUOUS
10
7.50974
20
-4.11986
11
7.5097
21
-4.12043
0
LINE
8
BLACK
6
CONTINUOUS
10
7.5097
20
-4.12043
11
7.50876
21
-4.1223
0
LINE
8
BLACK
6
CONTINUOUS
10
7.50876
20
-4.1223
11
7.50846
21
-4.12257
0
LINE
8
BLACK
6
CONTINUOUS
10
7.50846
20
-4.12257
11
7.5083
21
-4.12294
0
LINE
8
BLACK
6
CONTINUOUS
10
7.5083
20
-4.12294
11
7.50736
21
-4.12388
0
LINE
8
BLACK
6
CONTINUOUS
10
7.50736
20
-4.12388
11
7.50699
21
-4.12404
0
LINE
8
BLACK
6
CONTINUOUS
10
7.50699
20
-4.12404
11
7.50672
21
-4.12434
0
LINE
8
BLACK
6
CONTINUOUS
10
7.50672
20
-4.12434
11
7.50485
21
-4.12528
0
LINE
8
BLACK
6
CONTINUOUS
10
7.50485
20
-4.12528
11
7.50428
21
-4.12532
0
LINE
8
BLACK
6
CONTINUOUS
10
7.50428
20
-4.12532
11
7.50375
21
-4.12554
0
LINE
8
BLACK
6
CONTINUOUS
10
7.50375
20
-4.12554
11
7.50094
21
-4.12554
0
LINE
8
BLACK
6
CONTINUOUS
10
7.50094
20
-4.12554
11
7.50041
21
-4.12532
0
LINE
8
BLACK
6
CONTINUOUS
10
7.50041
20
-4.12532
11
7.49984
21
-4.12528
0
LINE
8
BLACK
6
CONTINUOUS
10
7.49984
20
-4.12528
11
7.49796
21
-4.12434
0
LINE
8
BLACK
6
CONTINUOUS
10
7.49796
20
-4.12434
11
7.4977
21
-4.12404
0
LINE
8
BLACK
6
CONTINUOUS
10
7.4977
20
-4.12404
11
7.49732
21
-4.12388
0
LINE
8
BLACK
6
CONTINUOUS
10
7.49732
20
-4.12388
11
7.49639
21
-4.12294
0
LINE
8
BLACK
6
CONTINUOUS
10
7.49639
20
-4.12294
11
7.49623
21
-4.12257
0
LINE
8
BLACK
6
CONTINUOUS
10
7.49623
20
-4.12257
11
7.49592
21
-4.1223
0
LINE
8
BLACK
6
CONTINUOUS
10
7.49592
20
-4.1223
11
7.49499
21
-4.12043
0
LINE
8
BLACK
6
CONTINUOUS
10
7.49499
20
-4.12043
11
7.49495
21
-4.11986
0
LINE
8
BLACK
6
CONTINUOUS
10
7.49495
20
-4.11986
11
7.49473
21
-4.11933
0
LINE
8
BLACK
6
CONTINUOUS
10
7.49473
20
-4.11933
11
7.49473
21
-4.1137
0
LINE
8
BLACK
6
CONTINUOUS
10
7.49473
20
-4.1137
11
7.49495
21
-4.11318
0
LINE
8
BLACK
6
CONTINUOUS
10
7.49495
20
-4.11318
11
7.49499
21
-4.1126
0
LINE
8
BLACK
6
CONTINUOUS
10
7.49499
20
-4.1126
11
7.49592
21
-4.11073
0
LINE
8
BLACK
6
CONTINUOUS
10
7.49592
20
-4.11073
11
7.49623
21
-4.11046
0
LINE
8
BLACK
6
CONTINUOUS
10
7.49623
20
-4.11046
11
7.49639
21
-4.11009
0
LINE
8
BLACK
6
CONTINUOUS
10
7.49639
20
-4.11009
11
7.49732
21
-4.10915
0
LINE
8
BLACK
6
CONTINUOUS
10
7.49732
20
-4.10915
11
7.4977
21
-4.109
0
LINE
8
BLACK
6
CONTINUOUS
10
7.4977
20
-4.109
11
7.49796
21
-4.10869
0
LINE
8
BLACK
6
CONTINUOUS
10
7.49796
20
-4.10869
11
7.49984
21
-4.10775
0
LINE
8
BLACK
6
CONTINUOUS
10
7.49984
20
-4.10775
11
7.50041
21
-4.10771
0
LINE
8
BLACK
6
CONTINUOUS
10
7.50041
20
-4.10771
11
7.50094
21
-4.10749
0
LINE
8
BLACK
6
CONTINUOUS
10
7.50094
20
-4.10749
11
7.50375
21
-4.10749
0
LINE
8
BLACK
6
CONTINUOUS
10
7.50375
20
-4.10749
11
7.50428
21
-4.10771
0
LINE
8
BLACK
6
CONTINUOUS
10
7.50152
20
-4.11242
11
7.50052
21
-4.11291
0
LINE
8
BLACK
6
CONTINUOUS
10
7.50052
20
-4.11291
11
7.50015
21
-4.11329
0
LINE
8
BLACK
6
CONTINUOUS
10
7.50015
20
-4.11329
11
7.49965
21
-4.11429
0
LINE
8
BLACK
6
CONTINUOUS
10
7.49965
20
-4.11429
11
7.49965
21
-4.11875
0
LINE
8
BLACK
6
CONTINUOUS
10
7.49965
20
-4.11875
11
7.50015
21
-4.11975
0
LINE
8
BLACK
6
CONTINUOUS
10
7.50015
20
-4.11975
11
7.50052
21
-4.12012
0
LINE
8
BLACK
6
CONTINUOUS
10
7.50052
20
-4.12012
11
7.50152
21
-4.12062
0
LINE
8
BLACK
6
CONTINUOUS
10
7.50152
20
-4.12062
11
7.50317
21
-4.12062
0
LINE
8
BLACK
6
CONTINUOUS
10
7.50317
20
-4.12062
11
7.50417
21
-4.12012
0
LINE
8
BLACK
6
CONTINUOUS
10
7.50417
20
-4.12012
11
7.50454
21
-4.11975
0
LINE
8
BLACK
6
CONTINUOUS
10
7.50454
20
-4.11975
11
7.50504
21
-4.11875
0
LINE
8
BLACK
6
CONTINUOUS
10
7.50504
20
-4.11875
11
7.50504
21
-4.11429
0
LINE
8
BLACK
6
CONTINUOUS
10
7.50504
20
-4.11429
11
7.50454
21
-4.11329
0
LINE
8
BLACK
6
CONTINUOUS
10
7.50454
20
-4.11329
11
7.50417
21
-4.11291
0
LINE
8
BLACK
6
CONTINUOUS
10
7.50417
20
-4.11291
11
7.50317
21
-4.11242
0
LINE
8
BLACK
6
CONTINUOUS
10
7.50317
20
-4.11242
11
7.50152
21
-4.11242
0
LINE
8
BLACK
6
CONTINUOUS
10
7.52209
20
-4.10771
11
7.52266
21
-4.10775
0
LINE
8
BLACK
6
CONTINUOUS
10
7.52266
20
-4.10775
11
7.52453
21
-4.10869
0
LINE
8
BLACK
6
CONTINUOUS
10
7.52453
20
-4.10869
11
7.52505
21
-4.10928
0
LINE
8
BLACK
6
CONTINUOUS
10
7.52505
20
-4.10928
11
7.52564
21
-4.10979
0
LINE
8
BLACK
6
CONTINUOUS
10
7.52564
20
-4.10979
11
7.52657
21
-4.11167
0
LINE
8
BLACK
6
CONTINUOUS
10
7.52657
20
-4.11167
11
7.52661
21
-4.11224
0
LINE
8
BLACK
6
CONTINUOUS
10
7.52661
20
-4.11224
11
7.52683
21
-4.11277
0
LINE
8
BLACK
6
CONTINUOUS
10
7.52683
20
-4.11277
11
7.52683
21
-4.12308
0
LINE
8
BLACK
6
CONTINUOUS
10
7.52683
20
-4.12308
11
7.52611
21
-4.12482
0
LINE
8
BLACK
6
CONTINUOUS
10
7.52611
20
-4.12482
11
7.52437
21
-4.12554
0
LINE
8
BLACK
6
CONTINUOUS
10
7.52437
20
-4.12554
11
7.52263
21
-4.12482
0
LINE
8
BLACK
6
CONTINUOUS
10
7.52263
20
-4.12482
11
7.52191
21
-4.12308
0
LINE
8
BLACK
6
CONTINUOUS
10
7.52191
20
-4.12308
11
7.52191
21
-4.11335
0
LINE
8
BLACK
6
CONTINUOUS
10
7.52191
20
-4.11335
11
7.5216
21
-4.11273
0
LINE
8
BLACK
6
CONTINUOUS
10
7.5216
20
-4.11273
11
7.52098
21
-4.11242
0
LINE
8
BLACK
6
CONTINUOUS
10
7.52098
20
-4.11242
11
7.51933
21
-4.11242
0
LINE
8
BLACK
6
CONTINUOUS
10
7.51933
20
-4.11242
11
7.5184
21
-4.11288
0
LINE
8
BLACK
6
CONTINUOUS
10
7.5184
20
-4.11288
11
7.5184
21
-4.12308
0
LINE
8
BLACK
6
CONTINUOUS
10
7.5184
20
-4.12308
11
7.51768
21
-4.12482
0
LINE
8
BLACK
6
CONTINUOUS
10
7.51768
20
-4.12482
11
7.51594
21
-4.12554
0
LINE
8
BLACK
6
CONTINUOUS
10
7.51594
20
-4.12554
11
7.5142
21
-4.12482
0
LINE
8
BLACK
6
CONTINUOUS
10
7.5142
20
-4.12482
11
7.51347
21
-4.12308
0
LINE
8
BLACK
6
CONTINUOUS
10
7.51347
20
-4.12308
11
7.51347
21
-4.10996
0
LINE
8
BLACK
6
CONTINUOUS
10
7.51347
20
-4.10996
11
7.5142
21
-4.10822
0
LINE
8
BLACK
6
CONTINUOUS
10
7.5142
20
-4.10822
11
7.51594
21
-4.10749
0
LINE
8
BLACK
6
CONTINUOUS
10
7.51594
20
-4.10749
11
7.51716
21
-4.108
0
LINE
8
BLACK
6
CONTINUOUS
10
7.51716
20
-4.108
11
7.51765
21
-4.10775
0
LINE
8
BLACK
6
CONTINUOUS
10
7.51765
20
-4.10775
11
7.51822
21
-4.10771
0
LINE
8
BLACK
6
CONTINUOUS
10
7.51822
20
-4.10771
11
7.51875
21
-4.10749
0
LINE
8
BLACK
6
CONTINUOUS
10
7.51875
20
-4.10749
11
7.52156
21
-4.10749
0
LINE
8
BLACK
6
CONTINUOUS
10
7.52156
20
-4.10749
11
7.52209
21
-4.10771
0
LINE
8
BLACK
6
CONTINUOUS
10
7.5399
20
-4.10771
11
7.54047
21
-4.10775
0
LINE
8
BLACK
6
CONTINUOUS
10
7.54047
20
-4.10775
11
7.54235
21
-4.10869
0
LINE
8
BLACK
6
CONTINUOUS
10
7.54235
20
-4.10869
11
7.54286
21
-4.10928
0
LINE
8
BLACK
6
CONTINUOUS
10
7.54286
20
-4.10928
11
7.54345
21
-4.10979
0
LINE
8
BLACK
6
CONTINUOUS
10
7.54345
20
-4.10979
11
7.54438
21
-4.11167
0
LINE
8
BLACK
6
CONTINUOUS
10
7.54438
20
-4.11167
11
7.54442
21
-4.11224
0
LINE
8
BLACK
6
CONTINUOUS
10
7.54442
20
-4.11224
11
7.54464
21
-4.11277
0
LINE
8
BLACK
6
CONTINUOUS
10
7.54464
20
-4.11277
11
7.54464
21
-4.11464
0
LINE
8
BLACK
6
CONTINUOUS
10
7.54464
20
-4.11464
11
7.54437
21
-4.1153
0
LINE
8
BLACK
6
CONTINUOUS
10
7.54437
20
-4.1153
11
7.54423
21
-4.11601
0
LINE
8
BLACK
6
CONTINUOUS
10
7.54423
20
-4.11601
11
7.54402
21
-4.11615
0
LINE
8
BLACK
6
CONTINUOUS
10
7.54402
20
-4.11615
11
7.54392
21
-4.11638
0
LINE
8
BLACK
6
CONTINUOUS
10
7.54392
20
-4.11638
11
7.54326
21
-4.11666
0
LINE
8
BLACK
6
CONTINUOUS
10
7.54326
20
-4.11666
11
7.54266
21
-4.11705
0
LINE
8
BLACK
6
CONTINUOUS
10
7.54266
20
-4.11705
11
7.53527
21
-4.11853
0
LINE
8
BLACK
6
CONTINUOUS
10
7.53527
20
-4.11853
11
7.53527
21
-4.11969
0
LINE
8
BLACK
6
CONTINUOUS
10
7.53527
20
-4.11969
11
7.53558
21
-4.12031
0
LINE
8
BLACK
6
CONTINUOUS
10
7.53558
20
-4.12031
11
7.5362
21
-4.12062
0
LINE
8
BLACK
6
CONTINUOUS
10
7.5362
20
-4.12062
11
7.53879
21
-4.12062
0
LINE
8
BLACK
6
CONTINUOUS
10
7.53879
20
-4.12062
11
7.54014
21
-4.11994
0
LINE
8
BLACK
6
CONTINUOUS
10
7.54014
20
-4.11994
11
7.54202
21
-4.11981
0
LINE
8
BLACK
6
CONTINUOUS
10
7.54202
20
-4.11981
11
7.54345
21
-4.12104
0
LINE
8
BLACK
6
CONTINUOUS
10
7.54345
20
-4.12104
11
7.54358
21
-4.12292
0
LINE
8
BLACK
6
CONTINUOUS
10
7.54358
20
-4.12292
11
7.54235
21
-4.12434
0
LINE
8
BLACK
6
CONTINUOUS
10
7.54235
20
-4.12434
11
7.54047
21
-4.12528
0
LINE
8
BLACK
6
CONTINUOUS
10
7.54047
20
-4.12528
11
7.5399
21
-4.12532
0
LINE
8
BLACK
6
CONTINUOUS
10
7.5399
20
-4.12532
11
7.53937
21
-4.12554
0
LINE
8
BLACK
6
CONTINUOUS
10
7.53937
20
-4.12554
11
7.53562
21
-4.12554
0
LINE
8
BLACK
6
CONTINUOUS
10
7.53562
20
-4.12554
11
7.53509
21
-4.12532
0
LINE
8
BLACK
6
CONTINUOUS
10
7.53509
20
-4.12532
11
7.53452
21
-4.12528
0
LINE
8
BLACK
6
CONTINUOUS
10
7.53452
20
-4.12528
11
7.53265
21
-4.12434
0
LINE
8
BLACK
6
CONTINUOUS
10
7.53265
20
-4.12434
11
7.53213
21
-4.12375
0
LINE
8
BLACK
6
CONTINUOUS
10
7.53213
20
-4.12375
11
7.53154
21
-4.12324
0
LINE
8
BLACK
6
CONTINUOUS
10
7.53154
20
-4.12324
11
7.53061
21
-4.12137
0
LINE
8
BLACK
6
CONTINUOUS
10
7.53061
20
-4.12137
11
7.53057
21
-4.1208
0
LINE
8
BLACK
6
CONTINUOUS
10
7.53057
20
-4.1208
11
7.53035
21
-4.12027
0
LINE
8
BLACK
6
CONTINUOUS
10
7.53035
20
-4.12027
11
7.53035
21
-4.11277
0
LINE
8
BLACK
6
CONTINUOUS
10
7.53035
20
-4.11277
11
7.53057
21
-4.11224
0
LINE
8
BLACK
6
CONTINUOUS
10
7.53057
20
-4.11224
11
7.53061
21
-4.11167
0
LINE
8
BLACK
6
CONTINUOUS
10
7.53061
20
-4.11167
11
7.53154
21
-4.10979
0
LINE
8
BLACK
6
CONTINUOUS
10
7.53154
20
-4.10979
11
7.53213
21
-4.10928
0
LINE
8
BLACK
6
CONTINUOUS
10
7.53213
20
-4.10928
11
7.53265
21
-4.10869
0
LINE
8
BLACK
6
CONTINUOUS
10
7.53265
20
-4.10869
11
7.53452
21
-4.10775
0
LINE
8
BLACK
6
CONTINUOUS
10
7.53452
20
-4.10775
11
7.53509
21
-4.10771
0
LINE
8
BLACK
6
CONTINUOUS
10
7.53509
20
-4.10771
11
7.53562
21
-4.10749
0
LINE
8
BLACK
6
CONTINUOUS
10
7.53562
20
-4.10749
11
7.53937
21
-4.10749
0
LINE
8
BLACK
6
CONTINUOUS
10
7.53937
20
-4.10749
11
7.5399
21
-4.10771
0
LINE
8
BLACK
6
CONTINUOUS
10
7.5362
20
-4.11242
11
7.53558
21
-4.11273
0
LINE
8
BLACK
6
CONTINUOUS
10
7.53558
20
-4.11273
11
7.53527
21
-4.11335
0
LINE
8
BLACK
6
CONTINUOUS
10
7.53527
20
-4.11335
11
7.53527
21
-4.11352
0
LINE
8
BLACK
6
CONTINUOUS
10
7.53527
20
-4.11352
11
7.53935
21
-4.1127
0
LINE
8
BLACK
6
CONTINUOUS
10
7.53935
20
-4.1127
11
7.53879
21
-4.11242
0
LINE
8
BLACK
6
CONTINUOUS
10
7.53879
20
-4.11242
11
7.5362
21
-4.11242
0
LINE
8
BLACK
6
CONTINUOUS
10
7.57271
20
-4.10115
11
7.57328
21
-4.10119
0
LINE
8
BLACK
6
CONTINUOUS
10
7.57328
20
-4.10119
11
7.57515
21
-4.10213
0
LINE
8
BLACK
6
CONTINUOUS
10
7.57515
20
-4.10213
11
7.57542
21
-4.10244
0
LINE
8
BLACK
6
CONTINUOUS
10
7.57542
20
-4.10244
11
7.57579
21
-4.10259
0
LINE
8
BLACK
6
CONTINUOUS
10
7.57579
20
-4.10259
11
7.57673
21
-4.10353
0
LINE
8
BLACK
6
CONTINUOUS
10
7.57673
20
-4.10353
11
7.57689
21
-4.1039
0
LINE
8
BLACK
6
CONTINUOUS
10
7.57689
20
-4.1039
11
7.57719
21
-4.10417
0
LINE
8
BLACK
6
CONTINUOUS
10
7.57719
20
-4.10417
11
7.57813
21
-4.10604
0
LINE
8
BLACK
6
CONTINUOUS
10
7.57813
20
-4.10604
11
7.57817
21
-4.10661
0
LINE
8
BLACK
6
CONTINUOUS
10
7.57817
20
-4.10661
11
7.57839
21
-4.10714
0
LINE
8
BLACK
6
CONTINUOUS
10
7.57839
20
-4.10714
11
7.57839
21
-4.10902
0
LINE
8
BLACK
6
CONTINUOUS
10
7.57839
20
-4.10902
11
7.57817
21
-4.10955
0
LINE
8
BLACK
6
CONTINUOUS
10
7.57817
20
-4.10955
11
7.57813
21
-4.11012
0
LINE
8
BLACK
6
CONTINUOUS
10
7.57813
20
-4.11012
11
7.57719
21
-4.11199
0
LINE
8
BLACK
6
CONTINUOUS
10
7.57719
20
-4.11199
11
7.57696
21
-4.11219
0
LINE
8
BLACK
6
CONTINUOUS
10
7.57696
20
-4.11219
11
7.57767
21
-4.1129
0
LINE
8
BLACK
6
CONTINUOUS
10
7.57767
20
-4.1129
11
7.57782
21
-4.11328
0
LINE
8
BLACK
6
CONTINUOUS
10
7.57782
20
-4.11328
11
7.57813
21
-4.11354
0
LINE
8
BLACK
6
CONTINUOUS
10
7.57813
20
-4.11354
11
7.57907
21
-4.11542
0
LINE
8
BLACK
6
CONTINUOUS
10
7.57907
20
-4.11542
11
7.57911
21
-4.11599
0
LINE
8
BLACK
6
CONTINUOUS
10
7.57911
20
-4.11599
11
7.57933
21
-4.11652
0
LINE
8
BLACK
6
CONTINUOUS
10
7.57933
20
-4.11652
11
7.57933
21
-4.11933
0
LINE
8
BLACK
6
CONTINUOUS
10
7.57933
20
-4.11933
11
7.57911
21
-4.11986
0
LINE
8
BLACK
6
CONTINUOUS
10
7.57911
20
-4.11986
11
7.57907
21
-4.12043
0
LINE
8
BLACK
6
CONTINUOUS
10
7.57907
20
-4.12043
11
7.57813
21
-4.1223
0
LINE
8
BLACK
6
CONTINUOUS
10
7.57813
20
-4.1223
11
7.57782
21
-4.12257
0
LINE
8
BLACK
6
CONTINUOUS
10
7.57782
20
-4.12257
11
7.57767
21
-4.12294
0
LINE
8
BLACK
6
CONTINUOUS
10
7.57767
20
-4.12294
11
7.57673
21
-4.12388
0
LINE
8
BLACK
6
CONTINUOUS
10
7.57673
20
-4.12388
11
7.57636
21
-4.12404
0
LINE
8
BLACK
6
CONTINUOUS
10
7.57636
20
-4.12404
11
7.57609
21
-4.12434
0
LINE
8
BLACK
6
CONTINUOUS
10
7.57609
20
-4.12434
11
7.57422
21
-4.12528
0
LINE
8
BLACK
6
CONTINUOUS
10
7.57422
20
-4.12528
11
7.57364
21
-4.12532
0
LINE
8
BLACK
6
CONTINUOUS
10
7.57364
20
-4.12532
11
7.57312
21
-4.12554
0
LINE
8
BLACK
6
CONTINUOUS
10
7.57312
20
-4.12554
11
7.56562
21
-4.12554
0
LINE
8
BLACK
6
CONTINUOUS
10
7.56562
20
-4.12554
11
7.56388
21
-4.12482
0
LINE
8
BLACK
6
CONTINUOUS
10
7.56388
20
-4.12482
11
7.56316
21
-4.12308
0
LINE
8
BLACK
6
CONTINUOUS
10
7.56316
20
-4.12308
11
7.56316
21
-4.10339
0
LINE
8
BLACK
6
CONTINUOUS
10
7.56316
20
-4.10339
11
7.56388
21
-4.10165
0
LINE
8
BLACK
6
CONTINUOUS
10
7.56388
20
-4.10165
11
7.56562
21
-4.10093
0
LINE
8
BLACK
6
CONTINUOUS
10
7.56562
20
-4.10093
11
7.57218
21
-4.10093
0
LINE
8
BLACK
6
CONTINUOUS
10
7.57218
20
-4.10093
11
7.57271
21
-4.10115
0
LINE
8
BLACK
6
CONTINUOUS
10
7.56808
20
-4.11523
11
7.56808
21
-4.12062
0
LINE
8
BLACK
6
CONTINUOUS
10
7.56808
20
-4.12062
11
7.57253
21
-4.12062
0
LINE
8
BLACK
6
CONTINUOUS
10
7.57253
20
-4.12062
11
7.57353
21
-4.12012
0
LINE
8
BLACK
6
CONTINUOUS
10
7.57353
20
-4.12012
11
7.57391
21
-4.11975
0
LINE
8
BLACK
6
CONTINUOUS
10
7.57391
20
-4.11975
11
7.5744
21
-4.11875
0
LINE
8
BLACK
6
CONTINUOUS
10
7.5744
20
-4.11875
11
7.5744
21
-4.1171
0
LINE
8
BLACK
6
CONTINUOUS
10
7.5744
20
-4.1171
11
7.57391
21
-4.1161
0
LINE
8
BLACK
6
CONTINUOUS
10
7.57391
20
-4.1161
11
7.57366
21
-4.11586
0
LINE
8
BLACK
6
CONTINUOUS
10
7.57366
20
-4.11586
11
7.57178
21
-4.11523
0
LINE
8
BLACK
6
CONTINUOUS
10
7.57178
20
-4.11523
11
7.56808
21
-4.11523
0
LINE
8
BLACK
6
CONTINUOUS
10
7.56808
20
-4.10585
11
7.56808
21
-4.11031
0
LINE
8
BLACK
6
CONTINUOUS
10
7.56808
20
-4.11031
11
7.5716
21
-4.11031
0
LINE
8
BLACK
6
CONTINUOUS
10
7.5716
20
-4.11031
11
7.5726
21
-4.10981
0
LINE
8
BLACK
6
CONTINUOUS
10
7.5726
20
-4.10981
11
7.57297
21
-4.10943
0
LINE
8
BLACK
6
CONTINUOUS
10
7.57297
20
-4.10943
11
7.57347
21
-4.10844
0
LINE
8
BLACK
6
CONTINUOUS
10
7.57347
20
-4.10844
11
7.57347
21
-4.10772
0
LINE
8
BLACK
6
CONTINUOUS
10
7.57347
20
-4.10772
11
7.57297
21
-4.10673
0
LINE
8
BLACK
6
CONTINUOUS
10
7.57297
20
-4.10673
11
7.5726
21
-4.10635
0
LINE
8
BLACK
6
CONTINUOUS
10
7.5726
20
-4.10635
11
7.5716
21
-4.10585
0
LINE
8
BLACK
6
CONTINUOUS
10
7.5716
20
-4.10585
11
7.56808
21
-4.10585
0
LINE
8
BLACK
6
CONTINUOUS
10
7.60177
20
-4.10771
11
7.60234
21
-4.10775
0
LINE
8
BLACK
6
CONTINUOUS
10
7.60234
20
-4.10775
11
7.60421
21
-4.10869
0
LINE
8
BLACK
6
CONTINUOUS
10
7.60421
20
-4.10869
11
7.60448
21
-4.109
0
LINE
8
BLACK
6
CONTINUOUS
10
7.60448
20
-4.109
11
7.60485
21
-4.10915
0
LINE
8
BLACK
6
CONTINUOUS
10
7.60485
20
-4.10915
11
7.60579
21
-4.11009
0
LINE
8
BLACK
6
CONTINUOUS
10
7.60579
20
-4.11009
11
7.60594
21
-4.11046
0
LINE
8
BLACK
6
CONTINUOUS
10
7.60594
20
-4.11046
11
7.60625
21
-4.11073
0
LINE
8
BLACK
6
CONTINUOUS
10
7.60625
20
-4.11073
11
7.60719
21
-4.1126
0
LINE
8
BLACK
6
CONTINUOUS
10
7.60719
20
-4.1126
11
7.60723
21
-4.11318
0
LINE
8
BLACK
6
CONTINUOUS
10
7.60723
20
-4.11318
11
7.60745
21
-4.1137
0
LINE
8
BLACK
6
CONTINUOUS
10
7.60745
20
-4.1137
11
7.60745
21
-4.11933
0
LINE
8
BLACK
6
CONTINUOUS
10
7.60745
20
-4.11933
11
7.60723
21
-4.11986
0
LINE
8
BLACK
6
CONTINUOUS
10
7.60723
20
-4.11986
11
7.60719
21
-4.12043
0
LINE
8
BLACK
6
CONTINUOUS
10
7.60719
20
-4.12043
11
7.60625
21
-4.1223
0
LINE
8
BLACK
6
CONTINUOUS
10
7.60625
20
-4.1223
11
7.60594
21
-4.12257
0
LINE
8
BLACK
6
CONTINUOUS
10
7.60594
20
-4.12257
11
7.60579
21
-4.12294
0
LINE
8
BLACK
6
CONTINUOUS
10
7.60579
20
-4.12294
11
7.60485
21
-4.12388
0
LINE
8
BLACK
6
CONTINUOUS
10
7.60485
20
-4.12388
11
7.60448
21
-4.12404
0
LINE
8
BLACK
6
CONTINUOUS
10
7.60448
20
-4.12404
11
7.60421
21
-4.12434
0
LINE
8
BLACK
6
CONTINUOUS
10
7.60421
20
-4.12434
11
7.60234
21
-4.12528
0
LINE
8
BLACK
6
CONTINUOUS
10
7.60234
20
-4.12528
11
7.60177
21
-4.12532
0
LINE
8
BLACK
6
CONTINUOUS
10
7.60177
20
-4.12532
11
7.60124
21
-4.12554
0
LINE
8
BLACK
6
CONTINUOUS
10
7.60124
20
-4.12554
11
7.59843
21
-4.12554
0
LINE
8
BLACK
6
CONTINUOUS
10
7.59843
20
-4.12554
11
7.5979
21
-4.12532
0
LINE
8
BLACK
6
CONTINUOUS
10
7.5979
20
-4.12532
11
7.59732
21
-4.12528
0
LINE
8
BLACK
6
CONTINUOUS
10
7.59732
20
-4.12528
11
7.59545
21
-4.12434
0
LINE
8
BLACK
6
CONTINUOUS
10
7.59545
20
-4.12434
11
7.59518
21
-4.12404
0
LINE
8
BLACK
6
CONTINUOUS
10
7.59518
20
-4.12404
11
7.59481
21
-4.12388
0
LINE
8
BLACK
6
CONTINUOUS
10
7.59481
20
-4.12388
11
7.59387
21
-4.12294
0
LINE
8
BLACK
6
CONTINUOUS
10
7.59387
20
-4.12294
11
7.59372
21
-4.12257
0
LINE
8
BLACK
6
CONTINUOUS
10
7.59372
20
-4.12257
11
7.59341
21
-4.1223
0
LINE
8
BLACK
6
CONTINUOUS
10
7.59341
20
-4.1223
11
7.59247
21
-4.12043
0
LINE
8
BLACK
6
CONTINUOUS
10
7.59247
20
-4.12043
11
7.59243
21
-4.11986
0
LINE
8
BLACK
6
CONTINUOUS
10
7.59243
20
-4.11986
11
7.59221
21
-4.11933
0
LINE
8
BLACK
6
CONTINUOUS
10
7.59221
20
-4.11933
11
7.59221
21
-4.1137
0
LINE
8
BLACK
6
CONTINUOUS
10
7.59221
20
-4.1137
11
7.59243
21
-4.11318
0
LINE
8
BLACK
6
CONTINUOUS
10
7.59243
20
-4.11318
11
7.59247
21
-4.1126
0
LINE
8
BLACK
6
CONTINUOUS
10
7.59247
20
-4.1126
11
7.59341
21
-4.11073
0
LINE
8
BLACK
6
CONTINUOUS
10
7.59341
20
-4.11073
11
7.59372
21
-4.11046
0
LINE
8
BLACK
6
CONTINUOUS
10
7.59372
20
-4.11046
11
7.59387
21
-4.11009
0
LINE
8
BLACK
6
CONTINUOUS
10
7.59387
20
-4.11009
11
7.59481
21
-4.10915
0
LINE
8
BLACK
6
CONTINUOUS
10
7.59481
20
-4.10915
11
7.59518
21
-4.109
0
LINE
8
BLACK
6
CONTINUOUS
10
7.59518
20
-4.109
11
7.59545
21
-4.10869
0
LINE
8
BLACK
6
CONTINUOUS
10
7.59545
20
-4.10869
11
7.59732
21
-4.10775
0
LINE
8
BLACK
6
CONTINUOUS
10
7.59732
20
-4.10775
11
7.5979
21
-4.10771
0
LINE
8
BLACK
6
CONTINUOUS
10
7.5979
20
-4.10771
11
7.59843
21
-4.10749
0
LINE
8
BLACK
6
CONTINUOUS
10
7.59843
20
-4.10749
11
7.60124
21
-4.10749
0
LINE
8
BLACK
6
CONTINUOUS
10
7.60124
20
-4.10749
11
7.60177
21
-4.10771
0
LINE
8
BLACK
6
CONTINUOUS
10
7.59901
20
-4.11242
11
7.59801
21
-4.11291
0
LINE
8
BLACK
6
CONTINUOUS
10
7.59801
20
-4.11291
11
7.59764
21
-4.11329
0
LINE
8
BLACK
6
CONTINUOUS
10
7.59764
20
-4.11329
11
7.59714
21
-4.11429
0
LINE
8
BLACK
6
CONTINUOUS
10
7.59714
20
-4.11429
11
7.59714
21
-4.11875
0
LINE
8
BLACK
6
CONTINUOUS
10
7.59714
20
-4.11875
11
7.59764
21
-4.11975
0
LINE
8
BLACK
6
CONTINUOUS
10
7.59764
20
-4.11975
11
7.59801
21
-4.12012
0
LINE
8
BLACK
6
CONTINUOUS
10
7.59801
20
-4.12012
11
7.59901
21
-4.12062
0
LINE
8
BLACK
6
CONTINUOUS
10
7.59901
20
-4.12062
11
7.60066
21
-4.12062
0
LINE
8
BLACK
6
CONTINUOUS
10
7.60066
20
-4.12062
11
7.60165
21
-4.12012
0
LINE
8
BLACK
6
CONTINUOUS
10
7.60165
20
-4.12012
11
7.60203
21
-4.11975
0
LINE
8
BLACK
6
CONTINUOUS
10
7.60203
20
-4.11975
11
7.60253
21
-4.11875
0
LINE
8
BLACK
6
CONTINUOUS
10
7.60253
20
-4.11875
11
7.60253
21
-4.11429
0
LINE
8
BLACK
6
CONTINUOUS
10
7.60253
20
-4.11429
11
7.60203
21
-4.11329
0
LINE
8
BLACK
6
CONTINUOUS
10
7.60203
20
-4.11329
11
7.60165
21
-4.11291
0
LINE
8
BLACK
6
CONTINUOUS
10
7.60165
20
-4.11291
11
7.60066
21
-4.11242
0
LINE
8
BLACK
6
CONTINUOUS
10
7.60066
20
-4.11242
11
7.59901
21
-4.11242
0
LINE
8
BLACK
6
CONTINUOUS
10
7.69379
20
-4.12505
11
7.69324
21
-4.12482
0
LINE
8
BLACK
6
CONTINUOUS
10
7.69324
20
-4.12482
11
7.69324
21
-4.12482
0
LINE
8
BLACK
6
CONTINUOUS
10
7.69324
20
-4.12482
11
7.69324
21
-4.12482
0
LINE
8
BLACK
6
CONTINUOUS
10
7.69324
20
-4.12482
11
7.6923
21
-4.12388
0
LINE
8
BLACK
6
CONTINUOUS
10
7.6923
20
-4.12388
11
7.69165
21
-4.1223
0
LINE
8
BLACK
6
CONTINUOUS
10
7.69165
20
-4.1223
11
7.69158
21
-4.12214
0
LINE
8
BLACK
6
CONTINUOUS
10
7.69158
20
-4.12214
11
7.69163
21
-4.12201
0
LINE
8
BLACK
6
CONTINUOUS
10
7.69163
20
-4.12201
11
7.6921
21
-4.12088
0
LINE
8
BLACK
6
CONTINUOUS
10
7.6921
20
-4.12088
11
7.6923
21
-4.1204
0
LINE
8
BLACK
6
CONTINUOUS
10
7.6923
20
-4.1204
11
7.69324
21
-4.11946
0
LINE
8
BLACK
6
CONTINUOUS
10
7.69324
20
-4.11946
11
7.69425
21
-4.11904
0
LINE
8
BLACK
6
CONTINUOUS
10
7.69425
20
-4.11904
11
7.69498
21
-4.11874
0
LINE
8
BLACK
6
CONTINUOUS
10
7.69498
20
-4.11874
11
7.69498
21
-4.11874
0
LINE
8
BLACK
6
CONTINUOUS
10
7.69498
20
-4.11874
11
7.69543
21
-4.11893
0
LINE
8
BLACK
6
CONTINUOUS
10
7.69543
20
-4.11893
11
7.69672
21
-4.11946
0
LINE
8
BLACK
6
CONTINUOUS
10
7.69672
20
-4.11946
11
7.69765
21
-4.1204
0
LINE
8
BLACK
6
CONTINUOUS
10
7.69765
20
-4.1204
11
7.69765
21
-4.1204
0
LINE
8
BLACK
6
CONTINUOUS
10
7.69765
20
-4.1204
11
7.69765
21
-4.1204
0
LINE
8
BLACK
6
CONTINUOUS
10
7.69765
20
-4.1204
11
7.69785
21
-4.12088
0
LINE
8
BLACK
6
CONTINUOUS
10
7.69785
20
-4.12088
11
7.69837
21
-4.12214
0
LINE
8
BLACK
6
CONTINUOUS
10
7.69837
20
-4.12214
11
7.69765
21
-4.12388
0
LINE
8
BLACK
6
CONTINUOUS
10
7.69765
20
-4.12388
11
7.69765
21
-4.12388
0
LINE
8
BLACK
6
CONTINUOUS
10
7.69765
20
-4.12388
11
7.69765
21
-4.12388
0
LINE
8
BLACK
6
CONTINUOUS
10
7.69765
20
-4.12388
11
7.69672
21
-4.12482
0
LINE
8
BLACK
6
CONTINUOUS
10
7.69672
20
-4.12482
11
7.69672
21
-4.12482
0
LINE
8
BLACK
6
CONTINUOUS
10
7.69672
20
-4.12482
11
7.69672
21
-4.12482
0
LINE
8
BLACK
6
CONTINUOUS
10
7.69672
20
-4.12482
11
7.6957
21
-4.12524
0
LINE
8
BLACK
6
CONTINUOUS
10
7.6957
20
-4.12524
11
7.69498
21
-4.12554
0
LINE
8
BLACK
6
CONTINUOUS
10
7.69498
20
-4.12554
11
7.69498
21
-4.12554
0
LINE
8
BLACK
6
CONTINUOUS
10
7.69498
20
-4.12554
11
7.69379
21
-4.12505
0
LINE
8
BLACK
6
CONTINUOUS
10
7.62051
20
-4.10771
11
7.62109
21
-4.10775
0
LINE
8
BLACK
6
CONTINUOUS
10
7.62109
20
-4.10775
11
7.62296
21
-4.10869
0
LINE
8
BLACK
6
CONTINUOUS
10
7.62296
20
-4.10869
11
7.62419
21
-4.11011
0
LINE
8
BLACK
6
CONTINUOUS
10
7.62419
20
-4.11011
11
7.62406
21
-4.11199
0
LINE
8
BLACK
6
CONTINUOUS
10
7.62406
20
-4.11199
11
7.62264
21
-4.11323
0
LINE
8
BLACK
6
CONTINUOUS
10
7.62264
20
-4.11323
11
7.62076
21
-4.11309
0
LINE
8
BLACK
6
CONTINUOUS
10
7.62076
20
-4.11309
11
7.6194
21
-4.11242
0
LINE
8
BLACK
6
CONTINUOUS
10
7.6194
20
-4.11242
11
7.61682
21
-4.11242
0
LINE
8
BLACK
6
CONTINUOUS
10
7.61682
20
-4.11242
11
7.61582
21
-4.11291
0
LINE
8
BLACK
6
CONTINUOUS
10
7.61582
20
-4.11291
11
7.61545
21
-4.11329
0
LINE
8
BLACK
6
CONTINUOUS
10
7.61545
20
-4.11329
11
7.61495
21
-4.11429
0
LINE
8
BLACK
6
CONTINUOUS
10
7.61495
20
-4.11429
11
7.61495
21
-4.11875
0
LINE
8
BLACK
6
CONTINUOUS
10
7.61495
20
-4.11875
11
7.61545
21
-4.11975
0
LINE
8
BLACK
6
CONTINUOUS
10
7.61545
20
-4.11975
11
7.61582
21
-4.12012
0
LINE
8
BLACK
6
CONTINUOUS
10
7.61582
20
-4.12012
11
7.61682
21
-4.12062
0
LINE
8
BLACK
6
CONTINUOUS
10
7.61682
20
-4.12062
11
7.6194
21
-4.12062
0
LINE
8
BLACK
6
CONTINUOUS
10
7.6194
20
-4.12062
11
7.62076
21
-4.11994
0
LINE
8
BLACK
6
CONTINUOUS
10
7.62076
20
-4.11994
11
7.62264
21
-4.11981
0
LINE
8
BLACK
6
CONTINUOUS
10
7.62264
20
-4.11981
11
7.62406
21
-4.12104
0
LINE
8
BLACK
6
CONTINUOUS
10
7.62406
20
-4.12104
11
7.62419
21
-4.12292
0
LINE
8
BLACK
6
CONTINUOUS
10
7.62419
20
-4.12292
11
7.62296
21
-4.12434
0
LINE
8
BLACK
6
CONTINUOUS
10
7.62296
20
-4.12434
11
7.62109
21
-4.12528
0
LINE
8
BLACK
6
CONTINUOUS
10
7.62109
20
-4.12528
11
7.62051
21
-4.12532
0
LINE
8
BLACK
6
CONTINUOUS
10
7.62051
20
-4.12532
11
7.61998
21
-4.12554
0
LINE
8
BLACK
6
CONTINUOUS
10
7.61998
20
-4.12554
11
7.61624
21
-4.12554
0
LINE
8
BLACK
6
CONTINUOUS
10
7.61624
20
-4.12554
11
7.61571
21
-4.12532
0
LINE
8
BLACK
6
CONTINUOUS
10
7.61571
20
-4.12532
11
7.61513
21
-4.12528
0
LINE
8
BLACK
6
CONTINUOUS
10
7.61513
20
-4.12528
11
7.61326
21
-4.12434
0
LINE
8
BLACK
6
CONTINUOUS
10
7.61326
20
-4.12434
11
7.61299
21
-4.12404
0
LINE
8
BLACK
6
CONTINUOUS
10
7.61299
20
-4.12404
11
7.61262
21
-4.12388
0
LINE
8
BLACK
6
CONTINUOUS
10
7.61262
20
-4.12388
11
7.61168
21
-4.12294
0
LINE
8
BLACK
6
CONTINUOUS
10
7.61168
20
-4.12294
11
7.61153
21
-4.12257
0
LINE
8
BLACK
6
CONTINUOUS
10
7.61153
20
-4.12257
11
7.61122
21
-4.1223
0
LINE
8
BLACK
6
CONTINUOUS
10
7.61122
20
-4.1223
11
7.61029
21
-4.12043
0
LINE
8
BLACK
6
CONTINUOUS
10
7.61029
20
-4.12043
11
7.61024
21
-4.11986
0
LINE
8
BLACK
6
CONTINUOUS
10
7.61024
20
-4.11986
11
7.61003
21
-4.11933
0
LINE
8
BLACK
6
CONTINUOUS
10
7.61003
20
-4.11933
11
7.61003
21
-4.1137
0
LINE
8
BLACK
6
CONTINUOUS
10
7.61003
20
-4.1137
11
7.61024
21
-4.11318
0
LINE
8
BLACK
6
CONTINUOUS
10
7.61024
20
-4.11318
11
7.61029
21
-4.1126
0
LINE
8
BLACK
6
CONTINUOUS
10
7.61029
20
-4.1126
11
7.61122
21
-4.11073
0
LINE
8
BLACK
6
CONTINUOUS
10
7.61122
20
-4.11073
11
7.61153
21
-4.11046
0
LINE
8
BLACK
6
CONTINUOUS
10
7.61153
20
-4.11046
11
7.61168
21
-4.11009
0
LINE
8
BLACK
6
CONTINUOUS
10
7.61168
20
-4.11009
11
7.61262
21
-4.10915
0
LINE
8
BLACK
6
CONTINUOUS
10
7.61262
20
-4.10915
11
7.61299
21
-4.109
0
LINE
8
BLACK
6
CONTINUOUS
10
7.61299
20
-4.109
11
7.61326
21
-4.10869
0
LINE
8
BLACK
6
CONTINUOUS
10
7.61326
20
-4.10869
11
7.61513
21
-4.10775
0
LINE
8
BLACK
6
CONTINUOUS
10
7.61513
20
-4.10775
11
7.61571
21
-4.10771
0
LINE
8
BLACK
6
CONTINUOUS
10
7.61571
20
-4.10771
11
7.61624
21
-4.10749
0
LINE
8
BLACK
6
CONTINUOUS
10
7.61624
20
-4.10749
11
7.61998
21
-4.10749
0
LINE
8
BLACK
6
CONTINUOUS
10
7.61998
20
-4.10749
11
7.62051
21
-4.10771
0
LINE
8
BLACK
6
CONTINUOUS
10
7.68332
20
-4.10115
11
7.68389
21
-4.10119
0
LINE
8
BLACK
6
CONTINUOUS
10
7.68389
20
-4.10119
11
7.68576
21
-4.10213
0
LINE
8
BLACK
6
CONTINUOUS
10
7.68576
20
-4.10213
11
7.68603
21
-4.10244
0
LINE
8
BLACK
6
CONTINUOUS
10
7.68603
20
-4.10244
11
7.6864
21
-4.10259
0
LINE
8
BLACK
6
CONTINUOUS
10
7.6864
20
-4.10259
11
7.68734
21
-4.10353
0
LINE
8
BLACK
6
CONTINUOUS
10
7.68734
20
-4.10353
11
7.6875
21
-4.1039
0
LINE
8
BLACK
6
CONTINUOUS
10
7.6875
20
-4.1039
11
7.6878
21
-4.10417
0
LINE
8
BLACK
6
CONTINUOUS
10
7.6878
20
-4.10417
11
7.68874
21
-4.10604
0
LINE
8
BLACK
6
CONTINUOUS
10
7.68874
20
-4.10604
11
7.68878
21
-4.10661
0
LINE
8
BLACK
6
CONTINUOUS
10
7.68878
20
-4.10661
11
7.689
21
-4.10714
0
LINE
8
BLACK
6
CONTINUOUS
10
7.689
20
-4.10714
11
7.689
21
-4.10902
0
LINE
8
BLACK
6
CONTINUOUS
10
7.689
20
-4.10902
11
7.68884
21
-4.10939
0
LINE
8
BLACK
6
CONTINUOUS
10
7.68884
20
-4.10939
11
7.68887
21
-4.1098
0
LINE
8
BLACK
6
CONTINUOUS
10
7.68887
20
-4.1098
11
7.68794
21
-4.11261
0
LINE
8
BLACK
6
CONTINUOUS
10
7.68794
20
-4.11261
11
7.68756
21
-4.11304
0
LINE
8
BLACK
6
CONTINUOUS
10
7.68756
20
-4.11304
11
7.68734
21
-4.11357
0
LINE
8
BLACK
6
CONTINUOUS
10
7.68734
20
-4.11357
11
7.68029
21
-4.12062
0
LINE
8
BLACK
6
CONTINUOUS
10
7.68029
20
-4.12062
11
7.68654
21
-4.12062
0
LINE
8
BLACK
6
CONTINUOUS
10
7.68654
20
-4.12062
11
7.68828
21
-4.12134
0
LINE
8
BLACK
6
CONTINUOUS
10
7.68828
20
-4.12134
11
7.689
21
-4.12308
0
LINE
8
BLACK
6
CONTINUOUS
10
7.689
20
-4.12308
11
7.68828
21
-4.12482
0
LINE
8
BLACK
6
CONTINUOUS
10
7.68828
20
-4.12482
11
7.68654
21
-4.12554
0
LINE
8
BLACK
6
CONTINUOUS
10
7.68654
20
-4.12554
11
7.67435
21
-4.12554
0
LINE
8
BLACK
6
CONTINUOUS
10
7.67435
20
-4.12554
11
7.67261
21
-4.12482
0
LINE
8
BLACK
6
CONTINUOUS
10
7.67261
20
-4.12482
11
7.67189
21
-4.12308
0
LINE
8
BLACK
6
CONTINUOUS
10
7.67189
20
-4.12308
11
7.67261
21
-4.12134
0
LINE
8
BLACK
6
CONTINUOUS
10
7.67261
20
-4.12134
11
7.68345
21
-4.1105
0
LINE
8
BLACK
6
CONTINUOUS
10
7.68345
20
-4.1105
11
7.68408
21
-4.10862
0
LINE
8
BLACK
6
CONTINUOUS
10
7.68408
20
-4.10862
11
7.68408
21
-4.10772
0
LINE
8
BLACK
6
CONTINUOUS
10
7.68408
20
-4.10772
11
7.68358
21
-4.10673
0
LINE
8
BLACK
6
CONTINUOUS
10
7.68358
20
-4.10673
11
7.68321
21
-4.10635
0
LINE
8
BLACK
6
CONTINUOUS
10
7.68321
20
-4.10635
11
7.68221
21
-4.10585
0
LINE
8
BLACK
6
CONTINUOUS
10
7.68221
20
-4.10585
11
7.67868
21
-4.10585
0
LINE
8
BLACK
6
CONTINUOUS
10
7.67868
20
-4.10585
11
7.67769
21
-4.10635
0
LINE
8
BLACK
6
CONTINUOUS
10
7.67769
20
-4.10635
11
7.67703
21
-4.10701
0
LINE
8
BLACK
6
CONTINUOUS
10
7.67703
20
-4.10701
11
7.67529
21
-4.10773
0
LINE
8
BLACK
6
CONTINUOUS
10
7.67529
20
-4.10773
11
7.67355
21
-4.10701
0
LINE
8
BLACK
6
CONTINUOUS
10
7.67355
20
-4.10701
11
7.67283
21
-4.10527
0
LINE
8
BLACK
6
CONTINUOUS
10
7.67283
20
-4.10527
11
7.67355
21
-4.10353
0
LINE
8
BLACK
6
CONTINUOUS
10
7.67355
20
-4.10353
11
7.67449
21
-4.10259
0
LINE
8
BLACK
6
CONTINUOUS
10
7.67449
20
-4.10259
11
7.67486
21
-4.10244
0
LINE
8
BLACK
6
CONTINUOUS
10
7.67486
20
-4.10244
11
7.67513
21
-4.10213
0
LINE
8
BLACK
6
CONTINUOUS
10
7.67513
20
-4.10213
11
7.677
21
-4.10119
0
LINE
8
BLACK
6
CONTINUOUS
10
7.677
20
-4.10119
11
7.67757
21
-4.10115
0
LINE
8
BLACK
6
CONTINUOUS
10
7.67757
20
-4.10115
11
7.6781
21
-4.10093
0
LINE
8
BLACK
6
CONTINUOUS
10
7.6781
20
-4.10093
11
7.68279
21
-4.10093
0
LINE
8
BLACK
6
CONTINUOUS
10
7.68279
20
-4.10093
11
7.68332
21
-4.10115
0
LINE
8
BLACK
6
CONTINUOUS
10
7.63204
20
-4.10165
11
7.63276
21
-4.10339
0
LINE
8
BLACK
6
CONTINUOUS
10
7.63276
20
-4.10339
11
7.63276
21
-4.11151
0
LINE
8
BLACK
6
CONTINUOUS
10
7.63276
20
-4.11151
11
7.63606
21
-4.10822
0
LINE
8
BLACK
6
CONTINUOUS
10
7.63606
20
-4.10822
11
7.6378
21
-4.10749
0
LINE
8
BLACK
6
CONTINUOUS
10
7.6378
20
-4.10749
11
7.63954
21
-4.10822
0
LINE
8
BLACK
6
CONTINUOUS
10
7.63954
20
-4.10822
11
7.64026
21
-4.10996
0
LINE
8
BLACK
6
CONTINUOUS
10
7.64026
20
-4.10996
11
7.63954
21
-4.11169
0
LINE
8
BLACK
6
CONTINUOUS
10
7.63954
20
-4.11169
11
7.63542
21
-4.11581
0
LINE
8
BLACK
6
CONTINUOUS
10
7.63542
20
-4.11581
11
7.63976
21
-4.1216
0
LINE
8
BLACK
6
CONTINUOUS
10
7.63976
20
-4.1216
11
7.64023
21
-4.12343
0
LINE
8
BLACK
6
CONTINUOUS
10
7.64023
20
-4.12343
11
7.63927
21
-4.12505
0
LINE
8
BLACK
6
CONTINUOUS
10
7.63927
20
-4.12505
11
7.63745
21
-4.12551
0
LINE
8
BLACK
6
CONTINUOUS
10
7.63745
20
-4.12551
11
7.63583
21
-4.12455
0
LINE
8
BLACK
6
CONTINUOUS
10
7.63583
20
-4.12455
11
7.63276
21
-4.12046
0
LINE
8
BLACK
6
CONTINUOUS
10
7.63276
20
-4.12046
11
7.63276
21
-4.12308
0
LINE
8
BLACK
6
CONTINUOUS
10
7.63276
20
-4.12308
11
7.63204
21
-4.12482
0
LINE
8
BLACK
6
CONTINUOUS
10
7.63204
20
-4.12482
11
7.6303
21
-4.12554
0
LINE
8
BLACK
6
CONTINUOUS
10
7.6303
20
-4.12554
11
7.62856
21
-4.12482
0
LINE
8
BLACK
6
CONTINUOUS
10
7.62856
20
-4.12482
11
7.62784
21
-4.12308
0
LINE
8
BLACK
6
CONTINUOUS
10
7.62784
20
-4.12308
11
7.62784
21
-4.10339
0
LINE
8
BLACK
6
CONTINUOUS
10
7.62784
20
-4.10339
11
7.62856
21
-4.10165
0
LINE
8
BLACK
6
CONTINUOUS
10
7.62856
20
-4.10165
11
7.6303
21
-4.10093
0
LINE
8
BLACK
6
CONTINUOUS
10
7.6303
20
-4.10093
11
7.63204
21
-4.10165
0
LINE
8
BLACK
6
CONTINUOUS
10
7.58704
20
-4.10165
11
7.58776
21
-4.10339
0
LINE
8
BLACK
6
CONTINUOUS
10
7.58776
20
-4.10339
11
7.58776
21
-4.11969
0
LINE
8
BLACK
6
CONTINUOUS
10
7.58776
20
-4.11969
11
7.58807
21
-4.12031
0
LINE
8
BLACK
6
CONTINUOUS
10
7.58807
20
-4.12031
11
7.58921
21
-4.12088
0
LINE
8
BLACK
6
CONTINUOUS
10
7.58921
20
-4.12088
11
7.59045
21
-4.1223
0
LINE
8
BLACK
6
CONTINUOUS
10
7.59045
20
-4.1223
11
7.59031
21
-4.12418
0
LINE
8
BLACK
6
CONTINUOUS
10
7.59031
20
-4.12418
11
7.58889
21
-4.12541
0
LINE
8
BLACK
6
CONTINUOUS
10
7.58889
20
-4.12541
11
7.58701
21
-4.12528
0
LINE
8
BLACK
6
CONTINUOUS
10
7.58701
20
-4.12528
11
7.58514
21
-4.12434
0
LINE
8
BLACK
6
CONTINUOUS
10
7.58514
20
-4.12434
11
7.58463
21
-4.12375
0
LINE
8
BLACK
6
CONTINUOUS
10
7.58463
20
-4.12375
11
7.58404
21
-4.12324
0
LINE
8
BLACK
6
CONTINUOUS
10
7.58404
20
-4.12324
11
7.5831
21
-4.12137
0
LINE
8
BLACK
6
CONTINUOUS
10
7.5831
20
-4.12137
11
7.58306
21
-4.1208
0
LINE
8
BLACK
6
CONTINUOUS
10
7.58306
20
-4.1208
11
7.58284
21
-4.12027
0
LINE
8
BLACK
6
CONTINUOUS
10
7.58284
20
-4.12027
11
7.58284
21
-4.10339
0
LINE
8
BLACK
6
CONTINUOUS
10
7.58284
20
-4.10339
11
7.58356
21
-4.10165
0
LINE
8
BLACK
6
CONTINUOUS
10
7.58356
20
-4.10165
11
7.5853
21
-4.10093
0
LINE
8
BLACK
6
CONTINUOUS
10
7.5853
20
-4.10093
11
7.58704
21
-4.10165
0
LINE
8
BLACK
6
CONTINUOUS
10
7.67095
20
-4.1089
11
7.67105
21
-4.11078
0
LINE
8
BLACK
6
CONTINUOUS
10
7.67105
20
-4.11078
11
7.66636
21
-4.12391
0
LINE
8
BLACK
6
CONTINUOUS
10
7.66636
20
-4.12391
11
7.66627
21
-4.124
0
LINE
8
BLACK
6
CONTINUOUS
10
7.66627
20
-4.124
11
7.66627
21
-4.12413
0
LINE
8
BLACK
6
CONTINUOUS
10
7.66627
20
-4.12413
11
7.66565
21
-4.12469
0
LINE
8
BLACK
6
CONTINUOUS
10
7.66565
20
-4.12469
11
7.6651
21
-4.1253
0
LINE
8
BLACK
6
CONTINUOUS
10
7.6651
20
-4.1253
11
7.66497
21
-4.12531
0
LINE
8
BLACK
6
CONTINUOUS
10
7.66497
20
-4.12531
11
7.66487
21
-4.1254
0
LINE
8
BLACK
6
CONTINUOUS
10
7.66487
20
-4.1254
11
7.66404
21
-4.12535
0
LINE
8
BLACK
6
CONTINUOUS
10
7.66404
20
-4.12535
11
7.66321
21
-4.1254
0
LINE
8
BLACK
6
CONTINUOUS
10
7.66321
20
-4.1254
11
7.66312
21
-4.12531
0
LINE
8
BLACK
6
CONTINUOUS
10
7.66312
20
-4.12531
11
7.66299
21
-4.1253
0
LINE
8
BLACK
6
CONTINUOUS
10
7.66299
20
-4.1253
11
7.66243
21
-4.12469
0
LINE
8
BLACK
6
CONTINUOUS
10
7.66243
20
-4.12469
11
7.66182
21
-4.12413
0
LINE
8
BLACK
6
CONTINUOUS
10
7.66182
20
-4.12413
11
7.66181
21
-4.124
0
LINE
8
BLACK
6
CONTINUOUS
10
7.66181
20
-4.124
11
7.66172
21
-4.12391
0
LINE
8
BLACK
6
CONTINUOUS
10
7.66172
20
-4.12391
11
7.65704
21
-4.11078
0
LINE
8
BLACK
6
CONTINUOUS
10
7.65704
20
-4.11078
11
7.65713
21
-4.1089
0
LINE
8
BLACK
6
CONTINUOUS
10
7.65713
20
-4.1089
11
7.65853
21
-4.10764
0
LINE
8
BLACK
6
CONTINUOUS
10
7.65853
20
-4.10764
11
7.66041
21
-4.10773
0
LINE
8
BLACK
6
CONTINUOUS
10
7.66041
20
-4.10773
11
7.66167
21
-4.10913
0
LINE
8
BLACK
6
CONTINUOUS
10
7.66167
20
-4.10913
11
7.66404
21
-4.11576
0
LINE
8
BLACK
6
CONTINUOUS
10
7.66404
20
-4.11576
11
7.66641
21
-4.10913
0
LINE
8
BLACK
6
CONTINUOUS
10
7.66641
20
-4.10913
11
7.66768
21
-4.10773
0
LINE
8
BLACK
6
CONTINUOUS
10
7.66768
20
-4.10773
11
7.66956
21
-4.10764
0
LINE
8
BLACK
6
CONTINUOUS
10
7.66956
20
-4.10764
11
7.67095
21
-4.1089
0
LINE
8
BLACK
6
CONTINUOUS
10
7.35744
20
-4.02665
11
7.35749
21
-4.02678
0
LINE
8
BLACK
6
CONTINUOUS
10
7.35749
20
-4.02678
11
7.35749
21
-4.03291
0
LINE
8
BLACK
6
CONTINUOUS
10
7.35749
20
-4.03291
11
7.35749
21
-4.03291
0
LINE
8
BLACK
6
CONTINUOUS
10
7.35749
20
-4.03291
11
7.35749
21
-4.03291
0
LINE
8
BLACK
6
CONTINUOUS
10
7.35749
20
-4.03291
11
7.35747
21
-4.03518
0
LINE
8
BLACK
6
CONTINUOUS
10
7.35747
20
-4.03518
11
7.3575
21
-4.03704
0
LINE
8
BLACK
6
CONTINUOUS
10
7.3575
20
-4.03704
11
7.35772
21
-4.0385
0
LINE
8
BLACK
6
CONTINUOUS
10
7.35772
20
-4.0385
11
7.35827
21
-4.03962
0
LINE
8
BLACK
6
CONTINUOUS
10
7.35827
20
-4.03962
11
7.35928
21
-4.04047
0
LINE
8
BLACK
6
CONTINUOUS
10
7.35928
20
-4.04047
11
7.36095
21
-4.04111
0
LINE
8
BLACK
6
CONTINUOUS
10
7.36095
20
-4.04111
11
7.36344
21
-4.04156
0
LINE
8
BLACK
6
CONTINUOUS
10
7.36344
20
-4.04156
11
7.36688
21
-4.04186
0
LINE
8
BLACK
6
CONTINUOUS
10
7.36688
20
-4.04186
11
7.37142
21
-4.04203
0
LINE
8
BLACK
6
CONTINUOUS
10
7.37142
20
-4.04203
11
7.3772
21
-4.04213
0
LINE
8
BLACK
6
CONTINUOUS
10
7.3772
20
-4.04213
11
7.3772
21
-4.04213
0
LINE
8
BLACK
6
CONTINUOUS
10
7.3772
20
-4.04213
11
7.38437
21
-4.04219
0
LINE
8
BLACK
6
CONTINUOUS
10
7.38437
20
-4.04219
11
7.39197
21
-4.04224
0
LINE
8
BLACK
6
CONTINUOUS
10
7.39197
20
-4.04224
11
7.39197
21
-4.04224
0
LINE
8
BLACK
6
CONTINUOUS
10
7.39197
20
-4.04224
11
7.39197
21
-4.04224
0
LINE
8
BLACK
6
CONTINUOUS
10
7.39197
20
-4.04224
11
7.42293
21
-4.04248
0
LINE
8
BLACK
6
CONTINUOUS
10
7.42293
20
-4.04248
11
7.42293
21
-4.02678
0
LINE
8
BLACK
6
CONTINUOUS
10
7.42293
20
-4.02678
11
7.42299
21
-4.02665
0
LINE
8
BLACK
6
CONTINUOUS
10
7.42299
20
-4.02665
11
7.42313
21
-4.02659
0
LINE
8
BLACK
6
CONTINUOUS
10
7.42313
20
-4.02659
11
7.44755
21
-4.02659
0
LINE
8
BLACK
6
CONTINUOUS
10
7.44755
20
-4.02659
11
7.44756
21
-4.02659
0
LINE
8
BLACK
6
CONTINUOUS
10
7.44756
20
-4.02659
11
7.44756
21
-4.02659
0
LINE
8
BLACK
6
CONTINUOUS
10
7.44756
20
-4.02659
11
7.44763
21
-4.02662
0
LINE
8
BLACK
6
CONTINUOUS
10
7.44763
20
-4.02662
11
7.44769
21
-4.02665
0
LINE
8
BLACK
6
CONTINUOUS
10
7.44769
20
-4.02665
11
7.44769
21
-4.02665
0
LINE
8
BLACK
6
CONTINUOUS
10
7.44769
20
-4.02665
11
7.4477
21
-4.02665
0
LINE
8
BLACK
6
CONTINUOUS
10
7.4477
20
-4.02665
11
7.44772
21
-4.02672
0
LINE
8
BLACK
6
CONTINUOUS
10
7.44772
20
-4.02672
11
7.44775
21
-4.02678
0
LINE
8
BLACK
6
CONTINUOUS
10
7.44775
20
-4.02678
11
7.44775
21
-4.02679
0
LINE
8
BLACK
6
CONTINUOUS
10
7.44775
20
-4.02679
11
7.44775
21
-4.02679
0
LINE
8
BLACK
6
CONTINUOUS
10
7.44775
20
-4.02679
11
7.44716
21
-4.04533
0
LINE
8
BLACK
6
CONTINUOUS
10
7.44716
20
-4.04533
11
7.44716
21
-4.04533
0
LINE
8
BLACK
6
CONTINUOUS
10
7.44716
20
-4.04533
11
7.44716
21
-4.04533
0
LINE
8
BLACK
6
CONTINUOUS
10
7.44716
20
-4.04533
11
7.44695
21
-4.05097
0
LINE
8
BLACK
6
CONTINUOUS
10
7.44695
20
-4.05097
11
7.44695
21
-4.05097
0
LINE
8
BLACK
6
CONTINUOUS
10
7.44695
20
-4.05097
11
7.44695
21
-4.05097
0
LINE
8
BLACK
6
CONTINUOUS
10
7.44695
20
-4.05097
11
7.44668
21
-4.05627
0
LINE
8
BLACK
6
CONTINUOUS
10
7.44668
20
-4.05627
11
7.44668
21
-4.05627
0
LINE
8
BLACK
6
CONTINUOUS
10
7.44668
20
-4.05627
11
7.44668
21
-4.05627
0
LINE
8
BLACK
6
CONTINUOUS
10
7.44668
20
-4.05627
11
7.44638
21
-4.06091
0
LINE
8
BLACK
6
CONTINUOUS
10
7.44638
20
-4.06091
11
7.44638
21
-4.06091
0
LINE
8
BLACK
6
CONTINUOUS
10
7.44638
20
-4.06091
11
7.44638
21
-4.06092
0
LINE
8
BLACK
6
CONTINUOUS
10
7.44638
20
-4.06092
11
7.44606
21
-4.06461
0
LINE
8
BLACK
6
CONTINUOUS
10
7.44606
20
-4.06461
11
7.44606
21
-4.06461
0
LINE
8
BLACK
6
CONTINUOUS
10
7.44606
20
-4.06461
11
7.44606
21
-4.06462
0
LINE
8
BLACK
6
CONTINUOUS
10
7.44606
20
-4.06462
11
7.44576
21
-4.06706
0
LINE
8
BLACK
6
CONTINUOUS
10
7.44576
20
-4.06706
11
7.44575
21
-4.06706
0
LINE
8
BLACK
6
CONTINUOUS
10
7.44575
20
-4.06706
11
7.44575
21
-4.06707
0
LINE
8
BLACK
6
CONTINUOUS
10
7.44575
20
-4.06707
11
7.44565
21
-4.06758
0
LINE
8
BLACK
6
CONTINUOUS
10
7.44565
20
-4.06758
11
7.44564
21
-4.0676
0
LINE
8
BLACK
6
CONTINUOUS
10
7.44564
20
-4.0676
11
7.44564
21
-4.06762
0
LINE
8
BLACK
6
CONTINUOUS
10
7.44564
20
-4.06762
11
7.44381
21
-4.07168
0
LINE
8
BLACK
6
CONTINUOUS
10
7.44381
20
-4.07168
11
7.44378
21
-4.07171
0
LINE
8
BLACK
6
CONTINUOUS
10
7.44378
20
-4.07171
11
7.44377
21
-4.07173
0
LINE
8
BLACK
6
CONTINUOUS
10
7.44377
20
-4.07173
11
7.44062
21
-4.07531
0
LINE
8
BLACK
6
CONTINUOUS
10
7.44062
20
-4.07531
11
7.4406
21
-4.07532
0
LINE
8
BLACK
6
CONTINUOUS
10
7.4406
20
-4.07532
11
7.44058
21
-4.07534
0
LINE
8
BLACK
6
CONTINUOUS
10
7.44058
20
-4.07534
11
7.43643
21
-4.0781
0
LINE
8
BLACK
6
CONTINUOUS
10
7.43643
20
-4.0781
11
7.43641
21
-4.07811
0
LINE
8
BLACK
6
CONTINUOUS
10
7.43641
20
-4.07811
11
7.4364
21
-4.07812
0
LINE
8
BLACK
6
CONTINUOUS
10
7.4364
20
-4.07812
11
7.43388
21
-4.07915
0
LINE
8
BLACK
6
CONTINUOUS
10
7.43388
20
-4.07915
11
7.43386
21
-4.07915
0
LINE
8
BLACK
6
CONTINUOUS
10
7.43386
20
-4.07915
11
7.43385
21
-4.07916
0
LINE
8
BLACK
6
CONTINUOUS
10
7.43385
20
-4.07916
11
7.43242
21
-4.07956
0
LINE
8
BLACK
6
CONTINUOUS
10
7.43242
20
-4.07956
11
7.43241
21
-4.07956
0
LINE
8
BLACK
6
CONTINUOUS
10
7.43241
20
-4.07956
11
7.4324
21
-4.07957
0
LINE
8
BLACK
6
CONTINUOUS
10
7.4324
20
-4.07957
11
7.43066
21
-4.0799
0
LINE
8
BLACK
6
CONTINUOUS
10
7.43066
20
-4.0799
11
7.43066
21
-4.0799
0
LINE
8
BLACK
6
CONTINUOUS
10
7.43066
20
-4.0799
11
7.43065
21
-4.0799
0
LINE
8
BLACK
6
CONTINUOUS
10
7.43065
20
-4.0799
11
7.42843
21
-4.08017
0
LINE
8
BLACK
6
CONTINUOUS
10
7.42843
20
-4.08017
11
7.42843
21
-4.08017
0
LINE
8
BLACK
6
CONTINUOUS
10
7.42843
20
-4.08017
11
7.42842
21
-4.08017
0
LINE
8
BLACK
6
CONTINUOUS
10
7.42842
20
-4.08017
11
7.42554
21
-4.08038
0
LINE
8
BLACK
6
CONTINUOUS
10
7.42554
20
-4.08038
11
7.42553
21
-4.08038
0
LINE
8
BLACK
6
CONTINUOUS
10
7.42553
20
-4.08038
11
7.42553
21
-4.08038
0
LINE
8
BLACK
6
CONTINUOUS
10
7.42553
20
-4.08038
11
7.42178
21
-4.08055
0
LINE
8
BLACK
6
CONTINUOUS
10
7.42178
20
-4.08055
11
7.42178
21
-4.08055
0
LINE
8
BLACK
6
CONTINUOUS
10
7.42178
20
-4.08055
11
7.42178
21
-4.08055
0
LINE
8
BLACK
6
CONTINUOUS
10
7.42178
20
-4.08055
11
7.41699
21
-4.08069
0
LINE
8
BLACK
6
CONTINUOUS
10
7.41699
20
-4.08069
11
7.41699
21
-4.08069
0
LINE
8
BLACK
6
CONTINUOUS
10
7.41699
20
-4.08069
11
7.41699
21
-4.08069
0
LINE
8
BLACK
6
CONTINUOUS
10
7.41699
20
-4.08069
11
7.41096
21
-4.08081
0
LINE
8
BLACK
6
CONTINUOUS
10
7.41096
20
-4.08081
11
7.41096
21
-4.08081
0
LINE
8
BLACK
6
CONTINUOUS
10
7.41096
20
-4.08081
11
7.41096
21
-4.08081
0
LINE
8
BLACK
6
CONTINUOUS
10
7.41096
20
-4.08081
11
7.40351
21
-4.08092
0
LINE
8
BLACK
6
CONTINUOUS
10
7.40351
20
-4.08092
11
7.40351
21
-4.08092
0
LINE
8
BLACK
6
CONTINUOUS
10
7.40351
20
-4.08092
11
7.40351
21
-4.08092
0
LINE
8
BLACK
6
CONTINUOUS
10
7.40351
20
-4.08092
11
7.40084
21
-4.08095
0
LINE
8
BLACK
6
CONTINUOUS
10
7.40084
20
-4.08095
11
7.40084
21
-4.08095
0
LINE
8
BLACK
6
CONTINUOUS
10
7.40084
20
-4.08095
11
7.3723
21
-4.08128
0
LINE
8
BLACK
6
CONTINUOUS
10
7.3723
20
-4.08128
11
7.3723
21
-4.08128
0
LINE
8
BLACK
6
CONTINUOUS
10
7.3723
20
-4.08128
11
7.3723
21
-4.08128
0
LINE
8
BLACK
6
CONTINUOUS
10
7.3723
20
-4.08128
11
7.37223
21
-4.08125
0
LINE
8
BLACK
6
CONTINUOUS
10
7.37223
20
-4.08125
11
7.37216
21
-4.08123
0
LINE
8
BLACK
6
CONTINUOUS
10
7.37216
20
-4.08123
11
7.37216
21
-4.08122
0
LINE
8
BLACK
6
CONTINUOUS
10
7.37216
20
-4.08122
11
7.37216
21
-4.08122
0
LINE
8
BLACK
6
CONTINUOUS
10
7.37216
20
-4.08122
11
7.37213
21
-4.08115
0
LINE
8
BLACK
6
CONTINUOUS
10
7.37213
20
-4.08115
11
7.3721
21
-4.08109
0
LINE
8
BLACK
6
CONTINUOUS
10
7.3721
20
-4.08109
11
7.3721
21
-4.08109
0
LINE
8
BLACK
6
CONTINUOUS
10
7.3721
20
-4.08109
11
7.3721
21
-4.08108
0
LINE
8
BLACK
6
CONTINUOUS
10
7.3721
20
-4.08108
11
7.3721
21
-4.06609
0
LINE
8
BLACK
6
CONTINUOUS
10
7.3721
20
-4.06609
11
7.37213
21
-4.06602
0
LINE
8
BLACK
6
CONTINUOUS
10
7.37213
20
-4.06602
11
7.37216
21
-4.06595
0
LINE
8
BLACK
6
CONTINUOUS
10
7.37216
20
-4.06595
11
7.37216
21
-4.06595
0
LINE
8
BLACK
6
CONTINUOUS
10
7.37216
20
-4.06595
11
7.37216
21
-4.06595
0
LINE
8
BLACK
6
CONTINUOUS
10
7.37216
20
-4.06595
11
7.37222
21
-4.06592
0
LINE
8
BLACK
6
CONTINUOUS
10
7.37222
20
-4.06592
11
7.37229
21
-4.06589
0
LINE
8
BLACK
6
CONTINUOUS
10
7.37229
20
-4.06589
11
7.3955
21
-4.06561
0
LINE
8
BLACK
6
CONTINUOUS
10
7.3955
20
-4.06561
11
7.40276
21
-4.06552
0
LINE
8
BLACK
6
CONTINUOUS
10
7.40276
20
-4.06552
11
7.40276
21
-4.06552
0
LINE
8
BLACK
6
CONTINUOUS
10
7.40276
20
-4.06552
11
7.40851
21
-4.0654
0
LINE
8
BLACK
6
CONTINUOUS
10
7.40851
20
-4.0654
11
7.41294
21
-4.06523
0
LINE
8
BLACK
6
CONTINUOUS
10
7.41294
20
-4.06523
11
7.41622
21
-4.06497
0
LINE
8
BLACK
6
CONTINUOUS
10
7.41622
20
-4.06497
11
7.4185
21
-4.0646
0
LINE
8
BLACK
6
CONTINUOUS
10
7.4185
20
-4.0646
11
7.41996
21
-4.06408
0
LINE
8
BLACK
6
CONTINUOUS
10
7.41996
20
-4.06408
11
7.42077
21
-4.06341
0
LINE
8
BLACK
6
CONTINUOUS
10
7.42077
20
-4.06341
11
7.42114
21
-4.06255
0
LINE
8
BLACK
6
CONTINUOUS
10
7.42114
20
-4.06255
11
7.42126
21
-4.0614
0
LINE
8
BLACK
6
CONTINUOUS
10
7.42126
20
-4.0614
11
7.42127
21
-4.06085
0
LINE
8
BLACK
6
CONTINUOUS
10
7.42127
20
-4.06085
11
7.42127
21
-4.05865
0
LINE
8
BLACK
6
CONTINUOUS
10
7.42127
20
-4.05865
11
7.39084
21
-4.05862
0
LINE
8
BLACK
6
CONTINUOUS
10
7.39084
20
-4.05862
11
7.39084
21
-4.05862
0
LINE
8
BLACK
6
CONTINUOUS
10
7.39084
20
-4.05862
11
7.39084
21
-4.05862
0
LINE
8
BLACK
6
CONTINUOUS
10
7.39084
20
-4.05862
11
7.38127
21
-4.05859
0
LINE
8
BLACK
6
CONTINUOUS
10
7.38127
20
-4.05859
11
7.38127
21
-4.05859
0
LINE
8
BLACK
6
CONTINUOUS
10
7.38127
20
-4.05859
11
7.38127
21
-4.05859
0
LINE
8
BLACK
6
CONTINUOUS
10
7.38127
20
-4.05859
11
7.37321
21
-4.05852
0
LINE
8
BLACK
6
CONTINUOUS
10
7.37321
20
-4.05852
11
7.37321
21
-4.05852
0
LINE
8
BLACK
6
CONTINUOUS
10
7.37321
20
-4.05852
11
7.37321
21
-4.05852
0
LINE
8
BLACK
6
CONTINUOUS
10
7.37321
20
-4.05852
11
7.36648
21
-4.05838
0
LINE
8
BLACK
6
CONTINUOUS
10
7.36648
20
-4.05838
11
7.36648
21
-4.05838
0
LINE
8
BLACK
6
CONTINUOUS
10
7.36648
20
-4.05838
11
7.36648
21
-4.05838
0
LINE
8
BLACK
6
CONTINUOUS
10
7.36648
20
-4.05838
11
7.36093
21
-4.05817
0
LINE
8
BLACK
6
CONTINUOUS
10
7.36093
20
-4.05817
11
7.36092
21
-4.05817
0
LINE
8
BLACK
6
CONTINUOUS
10
7.36092
20
-4.05817
11
7.36092
21
-4.05817
0
LINE
8
BLACK
6
CONTINUOUS
10
7.36092
20
-4.05817
11
7.35638
21
-4.05788
0
LINE
8
BLACK
6
CONTINUOUS
10
7.35638
20
-4.05788
11
7.35637
21
-4.05788
0
LINE
8
BLACK
6
CONTINUOUS
10
7.35637
20
-4.05788
11
7.35637
21
-4.05788
0
LINE
8
BLACK
6
CONTINUOUS
10
7.35637
20
-4.05788
11
7.35267
21
-4.0575
0
LINE
8
BLACK
6
CONTINUOUS
10
7.35267
20
-4.0575
11
7.35266
21
-4.05749
0
LINE
8
BLACK
6
CONTINUOUS
10
7.35266
20
-4.05749
11
7.35266
21
-4.0575
0
LINE
8
BLACK
6
CONTINUOUS
10
7.35266
20
-4.0575
11
7.34964
21
-4.057
0
LINE
8
BLACK
6
CONTINUOUS
10
7.34964
20
-4.057
11
7.34963
21
-4.057
0
LINE
8
BLACK
6
CONTINUOUS
10
7.34963
20
-4.057
11
7.34962
21
-4.057
0
LINE
8
BLACK
6
CONTINUOUS
10
7.34962
20
-4.057
11
7.34712
21
-4.05639
0
LINE
8
BLACK
6
CONTINUOUS
10
7.34712
20
-4.05639
11
7.34711
21
-4.05639
0
LINE
8
BLACK
6
CONTINUOUS
10
7.34711
20
-4.05639
11
7.3471
21
-4.05639
0
LINE
8
BLACK
6
CONTINUOUS
10
7.3471
20
-4.05639
11
7.34494
21
-4.05565
0
LINE
8
BLACK
6
CONTINUOUS
10
7.34494
20
-4.05565
11
7.34494
21
-4.05564
0
LINE
8
BLACK
6
CONTINUOUS
10
7.34494
20
-4.05564
11
7.34493
21
-4.05564
0
LINE
8
BLACK
6
CONTINUOUS
10
7.34493
20
-4.05564
11
7.34405
21
-4.05528
0
LINE
8
BLACK
6
CONTINUOUS
10
7.34405
20
-4.05528
11
7.34405
21
-4.05527
0
LINE
8
BLACK
6
CONTINUOUS
10
7.34405
20
-4.05527
11
7.34404
21
-4.05527
0
LINE
8
BLACK
6
CONTINUOUS
10
7.34404
20
-4.05527
11
7.33984
21
-4.053
0
LINE
8
BLACK
6
CONTINUOUS
10
7.33984
20
-4.053
11
7.33982
21
-4.05298
0
LINE
8
BLACK
6
CONTINUOUS
10
7.33982
20
-4.05298
11
7.3398
21
-4.05298
0
LINE
8
BLACK
6
CONTINUOUS
10
7.3398
20
-4.05298
11
7.33675
21
-4.05027
0
LINE
8
BLACK
6
CONTINUOUS
10
7.33675
20
-4.05027
11
7.33674
21
-4.05024
0
LINE
8
BLACK
6
CONTINUOUS
10
7.33674
20
-4.05024
11
7.33671
21
-4.05022
0
LINE
8
BLACK
6
CONTINUOUS
10
7.33671
20
-4.05022
11
7.33466
21
-4.04681
0
LINE
8
BLACK
6
CONTINUOUS
10
7.33466
20
-4.04681
11
7.33466
21
-4.04678
0
LINE
8
BLACK
6
CONTINUOUS
10
7.33466
20
-4.04678
11
7.33464
21
-4.04676
0
LINE
8
BLACK
6
CONTINUOUS
10
7.33464
20
-4.04676
11
7.33346
21
-4.04237
0
LINE
8
BLACK
6
CONTINUOUS
10
7.33346
20
-4.04237
11
7.33346
21
-4.04235
0
LINE
8
BLACK
6
CONTINUOUS
10
7.33346
20
-4.04235
11
7.33345
21
-4.04233
0
LINE
8
BLACK
6
CONTINUOUS
10
7.33345
20
-4.04233
11
7.33298
21
-4.0367
0
LINE
8
BLACK
6
CONTINUOUS
10
7.33298
20
-4.0367
11
7.33298
21
-4.03669
0
LINE
8
BLACK
6
CONTINUOUS
10
7.33298
20
-4.03669
11
7.33298
21
-4.03669
0
LINE
8
BLACK
6
CONTINUOUS
10
7.33298
20
-4.03669
11
7.33295
21
-4.03491
0
LINE
8
BLACK
6
CONTINUOUS
10
7.33295
20
-4.03491
11
7.33295
21
-4.03491
0
LINE
8
BLACK
6
CONTINUOUS
10
7.33295
20
-4.03491
11
7.33295
21
-4.03491
0
LINE
8
BLACK
6
CONTINUOUS
10
7.33295
20
-4.03491
11
7.33293
21
-4.02679
0
LINE
8
BLACK
6
CONTINUOUS
10
7.33293
20
-4.02679
11
7.33293
21
-4.02679
0
LINE
8
BLACK
6
CONTINUOUS
10
7.33293
20
-4.02679
11
7.33293
21
-4.02678
0
LINE
8
BLACK
6
CONTINUOUS
10
7.33293
20
-4.02678
11
7.33297
21
-4.0267
0
LINE
8
BLACK
6
CONTINUOUS
10
7.33297
20
-4.0267
11
7.33299
21
-4.02665
0
LINE
8
BLACK
6
CONTINUOUS
10
7.33299
20
-4.02665
11
7.33299
21
-4.02665
0
LINE
8
BLACK
6
CONTINUOUS
10
7.33299
20
-4.02665
11
7.33299
21
-4.02665
0
LINE
8
BLACK
6
CONTINUOUS
10
7.33299
20
-4.02665
11
7.33306
21
-4.02662
0
LINE
8
BLACK
6
CONTINUOUS
10
7.33306
20
-4.02662
11
7.33313
21
-4.02659
0
LINE
8
BLACK
6
CONTINUOUS
10
7.33313
20
-4.02659
11
7.33313
21
-4.02659
0
LINE
8
BLACK
6
CONTINUOUS
10
7.33313
20
-4.02659
11
7.33313
21
-4.02659
0
LINE
8
BLACK
6
CONTINUOUS
10
7.33313
20
-4.02659
11
7.3573
21
-4.02659
0
LINE
8
BLACK
6
CONTINUOUS
10
7.3573
20
-4.02659
11
7.35744
21
-4.02665
0
LINE
8
BLACK
6
CONTINUOUS
10
7.3257
20
-4.02659
11
7.3257
21
-4.02659
0
LINE
8
BLACK
6
CONTINUOUS
10
7.3257
20
-4.02659
11
7.32577
21
-4.02662
0
LINE
8
BLACK
6
CONTINUOUS
10
7.32577
20
-4.02662
11
7.32583
21
-4.02665
0
LINE
8
BLACK
6
CONTINUOUS
10
7.32583
20
-4.02665
11
7.32583
21
-4.02665
0
LINE
8
BLACK
6
CONTINUOUS
10
7.32583
20
-4.02665
11
7.32584
21
-4.02665
0
LINE
8
BLACK
6
CONTINUOUS
10
7.32584
20
-4.02665
11
7.32586
21
-4.02672
0
LINE
8
BLACK
6
CONTINUOUS
10
7.32586
20
-4.02672
11
7.32589
21
-4.02678
0
LINE
8
BLACK
6
CONTINUOUS
10
7.32589
20
-4.02678
11
7.32589
21
-4.02679
0
LINE
8
BLACK
6
CONTINUOUS
10
7.32589
20
-4.02679
11
7.32589
21
-4.02679
0
LINE
8
BLACK
6
CONTINUOUS
10
7.32589
20
-4.02679
11
7.32565
21
-4.0345
0
LINE
8
BLACK
6
CONTINUOUS
10
7.32565
20
-4.0345
11
7.32541
21
-4.04221
0
LINE
8
BLACK
6
CONTINUOUS
10
7.32541
20
-4.04221
11
7.32538
21
-4.04227
0
LINE
8
BLACK
6
CONTINUOUS
10
7.32538
20
-4.04227
11
7.32535
21
-4.04234
0
LINE
8
BLACK
6
CONTINUOUS
10
7.32535
20
-4.04234
11
7.32535
21
-4.04234
0
LINE
8
BLACK
6
CONTINUOUS
10
7.32535
20
-4.04234
11
7.32535
21
-4.04234
0
LINE
8
BLACK
6
CONTINUOUS
10
7.32535
20
-4.04234
11
7.32528
21
-4.04237
0
LINE
8
BLACK
6
CONTINUOUS
10
7.32528
20
-4.04237
11
7.32521
21
-4.0424
0
LINE
8
BLACK
6
CONTINUOUS
10
7.32521
20
-4.0424
11
7.28055
21
-4.04261
0
LINE
8
BLACK
6
CONTINUOUS
10
7.28055
20
-4.04261
11
7.27074
21
-4.04266
0
LINE
8
BLACK
6
CONTINUOUS
10
7.27074
20
-4.04266
11
7.26246
21
-4.04272
0
LINE
8
BLACK
6
CONTINUOUS
10
7.26246
20
-4.04272
11
7.25559
21
-4.04278
0
LINE
8
BLACK
6
CONTINUOUS
10
7.25559
20
-4.04278
11
7.24997
21
-4.04285
0
LINE
8
BLACK
6
CONTINUOUS
10
7.24997
20
-4.04285
11
7.24997
21
-4.04285
0
LINE
8
BLACK
6
CONTINUOUS
10
7.24997
20
-4.04285
11
7.2455
21
-4.04293
0
LINE
8
BLACK
6
CONTINUOUS
10
7.2455
20
-4.04293
11
7.24201
21
-4.04304
0
LINE
8
BLACK
6
CONTINUOUS
10
7.24201
20
-4.04304
11
7.23939
21
-4.04317
0
LINE
8
BLACK
6
CONTINUOUS
10
7.23939
20
-4.04317
11
7.2375
21
-4.04334
0
LINE
8
BLACK
6
CONTINUOUS
10
7.2375
20
-4.04334
11
7.23621
21
-4.04353
0
LINE
8
BLACK
6
CONTINUOUS
10
7.23621
20
-4.04353
11
7.2354
21
-4.04377
0
LINE
8
BLACK
6
CONTINUOUS
10
7.2354
20
-4.04377
11
7.23491
21
-4.04403
0
LINE
8
BLACK
6
CONTINUOUS
10
7.23491
20
-4.04403
11
7.23473
21
-4.0442
0
LINE
8
BLACK
6
CONTINUOUS
10
7.23473
20
-4.0442
11
7.23394
21
-4.0459
0
LINE
8
BLACK
6
CONTINUOUS
10
7.23394
20
-4.0459
11
7.23331
21
-4.04914
0
LINE
8
BLACK
6
CONTINUOUS
10
7.23331
20
-4.04914
11
7.23288
21
-4.05347
0
LINE
8
BLACK
6
CONTINUOUS
10
7.23288
20
-4.05347
11
7.23264
21
-4.05722
0
LINE
8
BLACK
6
CONTINUOUS
10
7.23264
20
-4.05722
11
7.23261
21
-4.05971
0
LINE
8
BLACK
6
CONTINUOUS
10
7.23261
20
-4.05971
11
7.23282
21
-4.06132
0
LINE
8
BLACK
6
CONTINUOUS
10
7.23282
20
-4.06132
11
7.23333
21
-4.06248
0
LINE
8
BLACK
6
CONTINUOUS
10
7.23333
20
-4.06248
11
7.23395
21
-4.06333
0
LINE
8
BLACK
6
CONTINUOUS
10
7.23395
20
-4.06333
11
7.23558
21
-4.06534
0
LINE
8
BLACK
6
CONTINUOUS
10
7.23558
20
-4.06534
11
7.28024
21
-4.0656
0
LINE
8
BLACK
6
CONTINUOUS
10
7.28024
20
-4.0656
11
7.325
21
-4.06587
0
LINE
8
BLACK
6
CONTINUOUS
10
7.325
20
-4.06587
11
7.32501
21
-4.06588
0
LINE
8
BLACK
6
CONTINUOUS
10
7.32501
20
-4.06588
11
7.32503
21
-4.06587
0
LINE
8
BLACK
6
CONTINUOUS
10
7.32503
20
-4.06587
11
7.32508
21
-4.06591
0
LINE
8
BLACK
6
CONTINUOUS
10
7.32508
20
-4.06591
11
7.32514
21
-4.06593
0
LINE
8
BLACK
6
CONTINUOUS
10
7.32514
20
-4.06593
11
7.32514
21
-4.06595
0
LINE
8
BLACK
6
CONTINUOUS
10
7.32514
20
-4.06595
11
7.32516
21
-4.06595
0
LINE
8
BLACK
6
CONTINUOUS
10
7.32516
20
-4.06595
11
7.32517
21
-4.06601
0
LINE
8
BLACK
6
CONTINUOUS
10
7.32517
20
-4.06601
11
7.32519
21
-4.06607
0
LINE
8
BLACK
6
CONTINUOUS
10
7.32519
20
-4.06607
11
7.32519
21
-4.06609
0
LINE
8
BLACK
6
CONTINUOUS
10
7.32519
20
-4.06609
11
7.32519
21
-4.0661
0
LINE
8
BLACK
6
CONTINUOUS
10
7.32519
20
-4.0661
11
7.32468
21
-4.06916
0
LINE
8
BLACK
6
CONTINUOUS
10
7.32468
20
-4.06916
11
7.32438
21
-4.07188
0
LINE
8
BLACK
6
CONTINUOUS
10
7.32438
20
-4.07188
11
7.32419
21
-4.07519
0
LINE
8
BLACK
6
CONTINUOUS
10
7.32419
20
-4.07519
11
7.32417
21
-4.07658
0
LINE
8
BLACK
6
CONTINUOUS
10
7.32417
20
-4.07658
11
7.32416
21
-4.08095
0
LINE
8
BLACK
6
CONTINUOUS
10
7.32416
20
-4.08095
11
7.3241
21
-4.08109
0
LINE
8
BLACK
6
CONTINUOUS
10
7.3241
20
-4.08109
11
7.32396
21
-4.08115
0
LINE
8
BLACK
6
CONTINUOUS
10
7.32396
20
-4.08115
11
7.2775
21
-4.08105
0
LINE
8
BLACK
6
CONTINUOUS
10
7.2775
20
-4.08105
11
7.2775
21
-4.08105
0
LINE
8
BLACK
6
CONTINUOUS
10
7.2775
20
-4.08105
11
7.2775
21
-4.08105
0
LINE
8
BLACK
6
CONTINUOUS
10
7.2775
20
-4.08105
11
7.26871
21
-4.08102
0
LINE
8
BLACK
6
CONTINUOUS
10
7.26871
20
-4.08102
11
7.26871
21
-4.08102
0
LINE
8
BLACK
6
CONTINUOUS
10
7.26871
20
-4.08102
11
7.26871
21
-4.08102
0
LINE
8
BLACK
6
CONTINUOUS
10
7.26871
20
-4.08102
11
7.2603
21
-4.08096
0
LINE
8
BLACK
6
CONTINUOUS
10
7.2603
20
-4.08096
11
7.2603
21
-4.08096
0
LINE
8
BLACK
6
CONTINUOUS
10
7.2603
20
-4.08096
11
7.2603
21
-4.08096
0
LINE
8
BLACK
6
CONTINUOUS
10
7.2603
20
-4.08096
11
7.25245
21
-4.08089
0
LINE
8
BLACK
6
CONTINUOUS
10
7.25245
20
-4.08089
11
7.25245
21
-4.08089
0
LINE
8
BLACK
6
CONTINUOUS
10
7.25245
20
-4.08089
11
7.25245
21
-4.08089
0
LINE
8
BLACK
6
CONTINUOUS
10
7.25245
20
-4.08089
11
7.24532
21
-4.0808
0
LINE
8
BLACK
6
CONTINUOUS
10
7.24532
20
-4.0808
11
7.24532
21
-4.0808
0
LINE
8
BLACK
6
CONTINUOUS
10
7.24532
20
-4.0808
11
7.24532
21
-4.0808
0
LINE
8
BLACK
6
CONTINUOUS
10
7.24532
20
-4.0808
11
7.23908
21
-4.08069
0
LINE
8
BLACK
6
CONTINUOUS
10
7.23908
20
-4.08069
11
7.23908
21
-4.08069
0
LINE
8
BLACK
6
CONTINUOUS
10
7.23908
20
-4.08069
11
7.23908
21
-4.08069
0
LINE
8
BLACK
6
CONTINUOUS
10
7.23908
20
-4.08069
11
7.2339
21
-4.08057
0
LINE
8
BLACK
6
CONTINUOUS
10
7.2339
20
-4.08057
11
7.2339
21
-4.08057
0
LINE
8
BLACK
6
CONTINUOUS
10
7.2339
20
-4.08057
11
7.2339
21
-4.08057
0
LINE
8
BLACK
6
CONTINUOUS
10
7.2339
20
-4.08057
11
7.22996
21
-4.08044
0
LINE
8
BLACK
6
CONTINUOUS
10
7.22996
20
-4.08044
11
7.22995
21
-4.08044
0
LINE
8
BLACK
6
CONTINUOUS
10
7.22995
20
-4.08044
11
7.22995
21
-4.08044
0
LINE
8
BLACK
6
CONTINUOUS
10
7.22995
20
-4.08044
11
7.22741
21
-4.0803
0
LINE
8
BLACK
6
CONTINUOUS
10
7.22741
20
-4.0803
11
7.2274
21
-4.0803
0
LINE
8
BLACK
6
CONTINUOUS
10
7.2274
20
-4.0803
11
7.2274
21
-4.0803
0
LINE
8
BLACK
6
CONTINUOUS
10
7.2274
20
-4.0803
11
7.22662
21
-4.08022
0
LINE
8
BLACK
6
CONTINUOUS
10
7.22662
20
-4.08022
11
7.22661
21
-4.08021
0
LINE
8
BLACK
6
CONTINUOUS
10
7.22661
20
-4.08021
11
7.22659
21
-4.08021
0
LINE
8
BLACK
6
CONTINUOUS
10
7.22659
20
-4.08021
11
7.22076
21
-4.07859
0
LINE
8
BLACK
6
CONTINUOUS
10
7.22076
20
-4.07859
11
7.22074
21
-4.07858
0
LINE
8
BLACK
6
CONTINUOUS
10
7.22074
20
-4.07858
11
7.22072
21
-4.07857
0
LINE
8
BLACK
6
CONTINUOUS
10
7.22072
20
-4.07857
11
7.216
21
-4.07588
0
LINE
8
BLACK
6
CONTINUOUS
10
7.216
20
-4.07588
11
7.21598
21
-4.07586
0
LINE
8
BLACK
6
CONTINUOUS
10
7.21598
20
-4.07586
11
7.21596
21
-4.07585
0
LINE
8
BLACK
6
CONTINUOUS
10
7.21596
20
-4.07585
11
7.21248
21
-4.07217
0
LINE
8
BLACK
6
CONTINUOUS
10
7.21248
20
-4.07217
11
7.21247
21
-4.07214
0
LINE
8
BLACK
6
CONTINUOUS
10
7.21247
20
-4.07214
11
7.21244
21
-4.07212
0
LINE
8
BLACK
6
CONTINUOUS
10
7.21244
20
-4.07212
11
7.21037
21
-4.06777
0
LINE
8
BLACK
6
CONTINUOUS
10
7.21037
20
-4.06777
11
7.21037
21
-4.06774
0
LINE
8
BLACK
6
CONTINUOUS
10
7.21037
20
-4.06774
11
7.21036
21
-4.06771
0
LINE
8
BLACK
6
CONTINUOUS
10
7.21036
20
-4.06771
11
7.21001
21
-4.06541
0
LINE
8
BLACK
6
CONTINUOUS
10
7.21001
20
-4.06541
11
7.21001
21
-4.0654
0
LINE
8
BLACK
6
CONTINUOUS
10
7.21001
20
-4.0654
11
7.21
21
-4.06539
0
LINE
8
BLACK
6
CONTINUOUS
10
7.21
20
-4.06539
11
7.20987
21
-4.0619
0
LINE
8
BLACK
6
CONTINUOUS
10
7.20987
20
-4.0619
11
7.20988
21
-4.06189
0
LINE
8
BLACK
6
CONTINUOUS
10
7.20988
20
-4.06189
11
7.20987
21
-4.06189
0
LINE
8
BLACK
6
CONTINUOUS
10
7.20987
20
-4.06189
11
7.20994
21
-4.0576
0
LINE
8
BLACK
6
CONTINUOUS
10
7.20994
20
-4.0576
11
7.20994
21
-4.0576
0
LINE
8
BLACK
6
CONTINUOUS
10
7.20994
20
-4.0576
11
7.20994
21
-4.05759
0
LINE
8
BLACK
6
CONTINUOUS
10
7.20994
20
-4.05759
11
7.21017
21
-4.05291
0
LINE
8
BLACK
6
CONTINUOUS
10
7.21017
20
-4.05291
11
7.21018
21
-4.05291
0
LINE
8
BLACK
6
CONTINUOUS
10
7.21018
20
-4.05291
11
7.21017
21
-4.0529
0
LINE
8
BLACK
6
CONTINUOUS
10
7.21017
20
-4.0529
11
7.21055
21
-4.04822
0
LINE
8
BLACK
6
CONTINUOUS
10
7.21055
20
-4.04822
11
7.21055
21
-4.04822
0
LINE
8
BLACK
6
CONTINUOUS
10
7.21055
20
-4.04822
11
7.21055
21
-4.04821
0
LINE
8
BLACK
6
CONTINUOUS
10
7.21055
20
-4.04821
11
7.21104
21
-4.04393
0
LINE
8
BLACK
6
CONTINUOUS
10
7.21104
20
-4.04393
11
7.21104
21
-4.04393
0
LINE
8
BLACK
6
CONTINUOUS
10
7.21104
20
-4.04393
11
7.21104
21
-4.04392
0
LINE
8
BLACK
6
CONTINUOUS
10
7.21104
20
-4.04392
11
7.21161
21
-4.04044
0
LINE
8
BLACK
6
CONTINUOUS
10
7.21161
20
-4.04044
11
7.21162
21
-4.04043
0
LINE
8
BLACK
6
CONTINUOUS
10
7.21162
20
-4.04043
11
7.21162
21
-4.04042
0
LINE
8
BLACK
6
CONTINUOUS
10
7.21162
20
-4.04042
11
7.21225
21
-4.03814
0
LINE
8
BLACK
6
CONTINUOUS
10
7.21225
20
-4.03814
11
7.21226
21
-4.03812
0
LINE
8
BLACK
6
CONTINUOUS
10
7.21226
20
-4.03812
11
7.21226
21
-4.03811
0
LINE
8
BLACK
6
CONTINUOUS
10
7.21226
20
-4.03811
11
7.21238
21
-4.03786
0
LINE
8
BLACK
6
CONTINUOUS
10
7.21238
20
-4.03786
11
7.21239
21
-4.03784
0
LINE
8
BLACK
6
CONTINUOUS
10
7.21239
20
-4.03784
11
7.2124
21
-4.03782
0
LINE
8
BLACK
6
CONTINUOUS
10
7.2124
20
-4.03782
11
7.21506
21
-4.03418
0
LINE
8
BLACK
6
CONTINUOUS
10
7.21506
20
-4.03418
11
7.21508
21
-4.03417
0
LINE
8
BLACK
6
CONTINUOUS
10
7.21508
20
-4.03417
11
7.21509
21
-4.03415
0
LINE
8
BLACK
6
CONTINUOUS
10
7.21509
20
-4.03415
11
7.21873
21
-4.03108
0
LINE
8
BLACK
6
CONTINUOUS
10
7.21873
20
-4.03108
11
7.21875
21
-4.03107
0
LINE
8
BLACK
6
CONTINUOUS
10
7.21875
20
-4.03107
11
7.21877
21
-4.03106
0
LINE
8
BLACK
6
CONTINUOUS
10
7.21877
20
-4.03106
11
7.22138
21
-4.02964
0
LINE
8
BLACK
6
CONTINUOUS
10
7.22138
20
-4.02964
11
7.22139
21
-4.02964
0
LINE
8
BLACK
6
CONTINUOUS
10
7.22139
20
-4.02964
11
7.22141
21
-4.02963
0
LINE
8
BLACK
6
CONTINUOUS
10
7.22141
20
-4.02963
11
7.22316
21
-4.029
0
LINE
8
BLACK
6
CONTINUOUS
10
7.22316
20
-4.029
11
7.22316
21
-4.029
0
LINE
8
BLACK
6
CONTINUOUS
10
7.22316
20
-4.029
11
7.22317
21
-4.02899
0
LINE
8
BLACK
6
CONTINUOUS
10
7.22317
20
-4.02899
11
7.22524
21
-4.02845
0
LINE
8
BLACK
6
CONTINUOUS
10
7.22524
20
-4.02845
11
7.22524
21
-4.02845
0
LINE
8
BLACK
6
CONTINUOUS
10
7.22524
20
-4.02845
11
7.22525
21
-4.02844
0
LINE
8
BLACK
6
CONTINUOUS
10
7.22525
20
-4.02844
11
7.22776
21
-4.02799
0
LINE
8
BLACK
6
CONTINUOUS
10
7.22776
20
-4.02799
11
7.22777
21
-4.02799
0
LINE
8
BLACK
6
CONTINUOUS
10
7.22777
20
-4.02799
11
7.22777
21
-4.02799
0
LINE
8
BLACK
6
CONTINUOUS
10
7.22777
20
-4.02799
11
7.23086
21
-4.02761
0
LINE
8
BLACK
6
CONTINUOUS
10
7.23086
20
-4.02761
11
7.23087
21
-4.02761
0
LINE
8
BLACK
6
CONTINUOUS
10
7.23087
20
-4.02761
11
7.23087
21
-4.0276
0
LINE
8
BLACK
6
CONTINUOUS
10
7.23087
20
-4.0276
11
7.23467
21
-4.0273
0
LINE
8
BLACK
6
CONTINUOUS
10
7.23467
20
-4.0273
11
7.23468
21
-4.0273
0
LINE
8
BLACK
6
CONTINUOUS
10
7.23468
20
-4.0273
11
7.23468
21
-4.0273
0
LINE
8
BLACK
6
CONTINUOUS
10
7.23468
20
-4.0273
11
7.23933
21
-4.02706
0
LINE
8
BLACK
6
CONTINUOUS
10
7.23933
20
-4.02706
11
7.23933
21
-4.02706
0
LINE
8
BLACK
6
CONTINUOUS
10
7.23933
20
-4.02706
11
7.23934
21
-4.02706
0
LINE
8
BLACK
6
CONTINUOUS
10
7.23934
20
-4.02706
11
7.24497
21
-4.02687
0
LINE
8
BLACK
6
CONTINUOUS
10
7.24497
20
-4.02687
11
7.24497
21
-4.02687
0
LINE
8
BLACK
6
CONTINUOUS
10
7.24497
20
-4.02687
11
7.24497
21
-4.02687
0
LINE
8
BLACK
6
CONTINUOUS
10
7.24497
20
-4.02687
11
7.25172
21
-4.02674
0
LINE
8
BLACK
6
CONTINUOUS
10
7.25172
20
-4.02674
11
7.25172
21
-4.02674
0
LINE
8
BLACK
6
CONTINUOUS
10
7.25172
20
-4.02674
11
7.25172
21
-4.02674
0
LINE
8
BLACK
6
CONTINUOUS
10
7.25172
20
-4.02674
11
7.25972
21
-4.02665
0
LINE
8
BLACK
6
CONTINUOUS
10
7.25972
20
-4.02665
11
7.25972
21
-4.02665
0
LINE
8
BLACK
6
CONTINUOUS
10
7.25972
20
-4.02665
11
7.25972
21
-4.02665
0
LINE
8
BLACK
6
CONTINUOUS
10
7.25972
20
-4.02665
11
7.2691
21
-4.0266
0
LINE
8
BLACK
6
CONTINUOUS
10
7.2691
20
-4.0266
11
7.2691
21
-4.02661
0
LINE
8
BLACK
6
CONTINUOUS
10
7.2691
20
-4.02661
11
7.2691
21
-4.0266
0
LINE
8
BLACK
6
CONTINUOUS
10
7.2691
20
-4.0266
11
7.27999
21
-4.02659
0
LINE
8
BLACK
6
CONTINUOUS
10
7.27999
20
-4.02659
11
7.27999
21
-4.02659
0
LINE
8
BLACK
6
CONTINUOUS
10
7.27999
20
-4.02659
11
7.27999
21
-4.02659
0
LINE
8
BLACK
6
CONTINUOUS
10
7.27999
20
-4.02659
11
7.28155
21
-4.02659
0
LINE
8
BLACK
6
CONTINUOUS
10
7.28155
20
-4.02659
11
7.32569
21
-4.02659
0
LINE
8
BLACK
6
CONTINUOUS
10
7.32569
20
-4.02659
11
7.3257
21
-4.02659
0
LINE
8
BLACK
6
CONTINUOUS
10
7.71419
20
-4.02659
11
7.71419
21
-4.02659
0
LINE
8
BLACK
6
CONTINUOUS
10
7.71419
20
-4.02659
11
7.71425
21
-4.02662
0
LINE
8
BLACK
6
CONTINUOUS
10
7.71425
20
-4.02662
11
7.71432
21
-4.02665
0
LINE
8
BLACK
6
CONTINUOUS
10
7.71432
20
-4.02665
11
7.71432
21
-4.02665
0
LINE
8
BLACK
6
CONTINUOUS
10
7.71432
20
-4.02665
11
7.71433
21
-4.02666
0
LINE
8
BLACK
6
CONTINUOUS
10
7.71433
20
-4.02666
11
7.71435
21
-4.02672
0
LINE
8
BLACK
6
CONTINUOUS
10
7.71435
20
-4.02672
11
7.71438
21
-4.02678
0
LINE
8
BLACK
6
CONTINUOUS
10
7.71438
20
-4.02678
11
7.71437
21
-4.02679
0
LINE
8
BLACK
6
CONTINUOUS
10
7.71437
20
-4.02679
11
7.71437
21
-4.0268
0
LINE
8
BLACK
6
CONTINUOUS
10
7.71437
20
-4.0268
11
7.71387
21
-4.03326
0
LINE
8
BLACK
6
CONTINUOUS
10
7.71387
20
-4.03326
11
7.7137
21
-4.03594
0
LINE
8
BLACK
6
CONTINUOUS
10
7.7137
20
-4.03594
11
7.71351
21
-4.03997
0
LINE
8
BLACK
6
CONTINUOUS
10
7.71351
20
-4.03997
11
7.71351
21
-4.03997
0
LINE
8
BLACK
6
CONTINUOUS
10
7.71351
20
-4.03997
11
7.7133
21
-4.04501
0
LINE
8
BLACK
6
CONTINUOUS
10
7.7133
20
-4.04501
11
7.71309
21
-4.05072
0
LINE
8
BLACK
6
CONTINUOUS
10
7.71309
20
-4.05072
11
7.71309
21
-4.05072
0
LINE
8
BLACK
6
CONTINUOUS
10
7.71309
20
-4.05072
11
7.7129
21
-4.0568
0
LINE
8
BLACK
6
CONTINUOUS
10
7.7129
20
-4.0568
11
7.7129
21
-4.0568
0
LINE
8
BLACK
6
CONTINUOUS
10
7.7129
20
-4.0568
11
7.7128
21
-4.06033
0
LINE
8
BLACK
6
CONTINUOUS
10
7.7128
20
-4.06033
11
7.71225
21
-4.08096
0
LINE
8
BLACK
6
CONTINUOUS
10
7.71225
20
-4.08096
11
7.71222
21
-4.08102
0
LINE
8
BLACK
6
CONTINUOUS
10
7.71222
20
-4.08102
11
7.71219
21
-4.08109
0
LINE
8
BLACK
6
CONTINUOUS
10
7.71219
20
-4.08109
11
7.71219
21
-4.08109
0
LINE
8
BLACK
6
CONTINUOUS
10
7.71219
20
-4.08109
11
7.71219
21
-4.08109
0
LINE
8
BLACK
6
CONTINUOUS
10
7.71219
20
-4.08109
11
7.71212
21
-4.08112
0
LINE
8
BLACK
6
CONTINUOUS
10
7.71212
20
-4.08112
11
7.71205
21
-4.08115
0
LINE
8
BLACK
6
CONTINUOUS
10
7.71205
20
-4.08115
11
7.68708
21
-4.08115
0
LINE
8
BLACK
6
CONTINUOUS
10
7.68708
20
-4.08115
11
7.68708
21
-4.08115
0
LINE
8
BLACK
6
CONTINUOUS
10
7.68708
20
-4.08115
11
7.68707
21
-4.08115
0
LINE
8
BLACK
6
CONTINUOUS
10
7.68707
20
-4.08115
11
7.68701
21
-4.08112
0
LINE
8
BLACK
6
CONTINUOUS
10
7.68701
20
-4.08112
11
7.68694
21
-4.08109
0
LINE
8
BLACK
6
CONTINUOUS
10
7.68694
20
-4.08109
11
7.68694
21
-4.08109
0
LINE
8
BLACK
6
CONTINUOUS
10
7.68694
20
-4.08109
11
7.68694
21
-4.08108
0
LINE
8
BLACK
6
CONTINUOUS
10
7.68694
20
-4.08108
11
7.68691
21
-4.08102
0
LINE
8
BLACK
6
CONTINUOUS
10
7.68691
20
-4.08102
11
7.68689
21
-4.08095
0
LINE
8
BLACK
6
CONTINUOUS
10
7.68689
20
-4.08095
11
7.68689
21
-4.08095
0
LINE
8
BLACK
6
CONTINUOUS
10
7.68689
20
-4.08095
11
7.68689
21
-4.08094
0
LINE
8
BLACK
6
CONTINUOUS
10
7.68689
20
-4.08094
11
7.6874
21
-4.07115
0
LINE
8
BLACK
6
CONTINUOUS
10
7.6874
20
-4.07115
11
7.68759
21
-4.06713
0
LINE
8
BLACK
6
CONTINUOUS
10
7.68759
20
-4.06713
11
7.68759
21
-4.06713
0
LINE
8
BLACK
6
CONTINUOUS
10
7.68759
20
-4.06713
11
7.68781
21
-4.06192
0
LINE
8
BLACK
6
CONTINUOUS
10
7.68781
20
-4.06192
11
7.68781
21
-4.06192
0
LINE
8
BLACK
6
CONTINUOUS
10
7.68781
20
-4.06192
11
7.68804
21
-4.05597
0
LINE
8
BLACK
6
CONTINUOUS
10
7.68804
20
-4.05597
11
7.68826
21
-4.04977
0
LINE
8
BLACK
6
CONTINUOUS
10
7.68826
20
-4.04977
11
7.68826
21
-4.04977
0
LINE
8
BLACK
6
CONTINUOUS
10
7.68826
20
-4.04977
11
7.68845
21
-4.04407
0
LINE
8
BLACK
6
CONTINUOUS
10
7.68845
20
-4.04407
11
7.68845
21
-4.04407
0
LINE
8
BLACK
6
CONTINUOUS
10
7.68845
20
-4.04407
11
7.68899
21
-4.02678
0
LINE
8
BLACK
6
CONTINUOUS
10
7.68899
20
-4.02678
11
7.68902
21
-4.02671
0
LINE
8
BLACK
6
CONTINUOUS
10
7.68902
20
-4.02671
11
7.68904
21
-4.02665
0
LINE
8
BLACK
6
CONTINUOUS
10
7.68904
20
-4.02665
11
7.68905
21
-4.02664
0
LINE
8
BLACK
6
CONTINUOUS
10
7.68905
20
-4.02664
11
7.68905
21
-4.02664
0
LINE
8
BLACK
6
CONTINUOUS
10
7.68905
20
-4.02664
11
7.68912
21
-4.02662
0
LINE
8
BLACK
6
CONTINUOUS
10
7.68912
20
-4.02662
11
7.68918
21
-4.02659
0
LINE
8
BLACK
6
CONTINUOUS
10
7.68918
20
-4.02659
11
7.71418
21
-4.02659
0
LINE
8
BLACK
6
CONTINUOUS
10
7.71418
20
-4.02659
11
7.71419
21
-4.02659
0
LINE
8
BLACK
6
CONTINUOUS
10
7.59916
20
-4.08095
11
7.5991
21
-4.08109
0
LINE
8
BLACK
6
CONTINUOUS
10
7.5991
20
-4.08109
11
7.59896
21
-4.08115
0
LINE
8
BLACK
6
CONTINUOUS
10
7.59896
20
-4.08115
11
7.57417
21
-4.08115
0
LINE
8
BLACK
6
CONTINUOUS
10
7.57417
20
-4.08115
11
7.57417
21
-4.08115
0
LINE
8
BLACK
6
CONTINUOUS
10
7.57417
20
-4.08115
11
7.57417
21
-4.08115
0
LINE
8
BLACK
6
CONTINUOUS
10
7.57417
20
-4.08115
11
7.5741
21
-4.08112
0
LINE
8
BLACK
6
CONTINUOUS
10
7.5741
20
-4.08112
11
7.57404
21
-4.08109
0
LINE
8
BLACK
6
CONTINUOUS
10
7.57404
20
-4.08109
11
7.57403
21
-4.08109
0
LINE
8
BLACK
6
CONTINUOUS
10
7.57403
20
-4.08109
11
7.57403
21
-4.08109
0
LINE
8
BLACK
6
CONTINUOUS
10
7.57403
20
-4.08109
11
7.57401
21
-4.08102
0
LINE
8
BLACK
6
CONTINUOUS
10
7.57401
20
-4.08102
11
7.57398
21
-4.08095
0
LINE
8
BLACK
6
CONTINUOUS
10
7.57398
20
-4.08095
11
7.57398
21
-4.08095
0
LINE
8
BLACK
6
CONTINUOUS
10
7.57398
20
-4.08095
11
7.57398
21
-4.08095
0
LINE
8
BLACK
6
CONTINUOUS
10
7.57398
20
-4.08095
11
7.57435
21
-4.06949
0
LINE
8
BLACK
6
CONTINUOUS
10
7.57435
20
-4.06949
11
7.57435
21
-4.06949
0
LINE
8
BLACK
6
CONTINUOUS
10
7.57435
20
-4.06949
11
7.57435
21
-4.06949
0
LINE
8
BLACK
6
CONTINUOUS
10
7.57435
20
-4.06949
11
7.57466
21
-4.06091
0
LINE
8
BLACK
6
CONTINUOUS
10
7.57466
20
-4.06091
11
7.57466
21
-4.06091
0
LINE
8
BLACK
6
CONTINUOUS
10
7.57466
20
-4.06091
11
7.57466
21
-4.06091
0
LINE
8
BLACK
6
CONTINUOUS
10
7.57466
20
-4.06091
11
7.57503
21
-4.05383
0
LINE
8
BLACK
6
CONTINUOUS
10
7.57503
20
-4.05383
11
7.57503
21
-4.05383
0
LINE
8
BLACK
6
CONTINUOUS
10
7.57503
20
-4.05383
11
7.57503
21
-4.05382
0
LINE
8
BLACK
6
CONTINUOUS
10
7.57503
20
-4.05382
11
7.57549
21
-4.04807
0
LINE
8
BLACK
6
CONTINUOUS
10
7.57549
20
-4.04807
11
7.5755
21
-4.04807
0
LINE
8
BLACK
6
CONTINUOUS
10
7.5755
20
-4.04807
11
7.57549
21
-4.04806
0
LINE
8
BLACK
6
CONTINUOUS
10
7.57549
20
-4.04806
11
7.57608
21
-4.04347
0
LINE
8
BLACK
6
CONTINUOUS
10
7.57608
20
-4.04347
11
7.57608
21
-4.04346
0
LINE
8
BLACK
6
CONTINUOUS
10
7.57608
20
-4.04346
11
7.57608
21
-4.04346
0
LINE
8
BLACK
6
CONTINUOUS
10
7.57608
20
-4.04346
11
7.57682
21
-4.03985
0
LINE
8
BLACK
6
CONTINUOUS
10
7.57682
20
-4.03985
11
7.57683
21
-4.03984
0
LINE
8
BLACK
6
CONTINUOUS
10
7.57683
20
-4.03984
11
7.57683
21
-4.03983
0
LINE
8
BLACK
6
CONTINUOUS
10
7.57683
20
-4.03983
11
7.57776
21
-4.03704
0
LINE
8
BLACK
6
CONTINUOUS
10
7.57776
20
-4.03704
11
7.57778
21
-4.03703
0
LINE
8
BLACK
6
CONTINUOUS
10
7.57778
20
-4.03703
11
7.57778
21
-4.03701
0
LINE
8
BLACK
6
CONTINUOUS
10
7.57778
20
-4.03701
11
7.57894
21
-4.03488
0
LINE
8
BLACK
6
CONTINUOUS
10
7.57894
20
-4.03488
11
7.57896
21
-4.03486
0
LINE
8
BLACK
6
CONTINUOUS
10
7.57896
20
-4.03486
11
7.57896
21
-4.03484
0
LINE
8
BLACK
6
CONTINUOUS
10
7.57896
20
-4.03484
11
7.58039
21
-4.03319
0
LINE
8
BLACK
6
CONTINUOUS
10
7.58039
20
-4.03319
11
7.58041
21
-4.03318
0
LINE
8
BLACK
6
CONTINUOUS
10
7.58041
20
-4.03318
11
7.58042
21
-4.03316
0
LINE
8
BLACK
6
CONTINUOUS
10
7.58042
20
-4.03316
11
7.5821
21
-4.03184
0
LINE
8
BLACK
6
CONTINUOUS
10
7.5821
20
-4.03184
11
7.58211
21
-4.03184
0
LINE
8
BLACK
6
CONTINUOUS
10
7.58211
20
-4.03184
11
7.58212
21
-4.03183
0
LINE
8
BLACK
6
CONTINUOUS
10
7.58212
20
-4.03183
11
7.58362
21
-4.03085
0
LINE
8
BLACK
6
CONTINUOUS
10
7.58362
20
-4.03085
11
7.58362
21
-4.03085
0
LINE
8
BLACK
6
CONTINUOUS
10
7.58362
20
-4.03085
11
7.58362
21
-4.03085
0
LINE
8
BLACK
6
CONTINUOUS
10
7.58362
20
-4.03085
11
7.58505
21
-4.03002
0
LINE
8
BLACK
6
CONTINUOUS
10
7.58505
20
-4.03002
11
7.58506
21
-4.03002
0
LINE
8
BLACK
6
CONTINUOUS
10
7.58506
20
-4.03002
11
7.58507
21
-4.03001
0
LINE
8
BLACK
6
CONTINUOUS
10
7.58507
20
-4.03001
11
7.58657
21
-4.02931
0
LINE
8
BLACK
6
CONTINUOUS
10
7.58657
20
-4.02931
11
7.58658
21
-4.02931
0
LINE
8
BLACK
6
CONTINUOUS
10
7.58658
20
-4.02931
11
7.58659
21
-4.0293
0
LINE
8
BLACK
6
CONTINUOUS
10
7.58659
20
-4.0293
11
7.58831
21
-4.02872
0
LINE
8
BLACK
6
CONTINUOUS
10
7.58831
20
-4.02872
11
7.58832
21
-4.02872
0
LINE
8
BLACK
6
CONTINUOUS
10
7.58832
20
-4.02872
11
7.58833
21
-4.02872
0
LINE
8
BLACK
6
CONTINUOUS
10
7.58833
20
-4.02872
11
7.59041
21
-4.02825
0
LINE
8
BLACK
6
CONTINUOUS
10
7.59041
20
-4.02825
11
7.59042
21
-4.02825
0
LINE
8
BLACK
6
CONTINUOUS
10
7.59042
20
-4.02825
11
7.59043
21
-4.02824
0
LINE
8
BLACK
6
CONTINUOUS
10
7.59043
20
-4.02824
11
7.59301
21
-4.02787
0
LINE
8
BLACK
6
CONTINUOUS
10
7.59301
20
-4.02787
11
7.59302
21
-4.02787
0
LINE
8
BLACK
6
CONTINUOUS
10
7.59302
20
-4.02787
11
7.59302
21
-4.02787
0
LINE
8
BLACK
6
CONTINUOUS
10
7.59302
20
-4.02787
11
7.59625
21
-4.02757
0
LINE
8
BLACK
6
CONTINUOUS
10
7.59625
20
-4.02757
11
7.59626
21
-4.02757
0
LINE
8
BLACK
6
CONTINUOUS
10
7.59626
20
-4.02757
11
7.59626
21
-4.02757
0
LINE
8
BLACK
6
CONTINUOUS
10
7.59626
20
-4.02757
11
7.60028
21
-4.02734
0
LINE
8
BLACK
6
CONTINUOUS
10
7.60028
20
-4.02734
11
7.60029
21
-4.02734
0
LINE
8
BLACK
6
CONTINUOUS
10
7.60029
20
-4.02734
11
7.60029
21
-4.02734
0
LINE
8
BLACK
6
CONTINUOUS
10
7.60029
20
-4.02734
11
7.60525
21
-4.02717
0
LINE
8
BLACK
6
CONTINUOUS
10
7.60525
20
-4.02717
11
7.60525
21
-4.02717
0
LINE
8
BLACK
6
CONTINUOUS
10
7.60525
20
-4.02717
11
7.60525
21
-4.02717
0
LINE
8
BLACK
6
CONTINUOUS
10
7.60525
20
-4.02717
11
7.61129
21
-4.02705
0
LINE
8
BLACK
6
CONTINUOUS
10
7.61129
20
-4.02705
11
7.61129
21
-4.02705
0
LINE
8
BLACK
6
CONTINUOUS
10
7.61129
20
-4.02705
11
7.61129
21
-4.02705
0
LINE
8
BLACK
6
CONTINUOUS
10
7.61129
20
-4.02705
11
7.61855
21
-4.02695
0
LINE
8
BLACK
6
CONTINUOUS
10
7.61855
20
-4.02695
11
7.61855
21
-4.02695
0
LINE
8
BLACK
6
CONTINUOUS
10
7.61855
20
-4.02695
11
7.61855
21
-4.02695
0
LINE
8
BLACK
6
CONTINUOUS
10
7.61855
20
-4.02695
11
7.62717
21
-4.02687
0
LINE
8
BLACK
6
CONTINUOUS
10
7.62717
20
-4.02687
11
7.62717
21
-4.02687
0
LINE
8
BLACK
6
CONTINUOUS
10
7.62717
20
-4.02687
11
7.62717
21
-4.02687
0
LINE
8
BLACK
6
CONTINUOUS
10
7.62717
20
-4.02687
11
7.6373
21
-4.02679
0
LINE
8
BLACK
6
CONTINUOUS
10
7.6373
20
-4.02679
11
7.6373
21
-4.02679
0
LINE
8
BLACK
6
CONTINUOUS
10
7.6373
20
-4.02679
11
7.63837
21
-4.02679
0
LINE
8
BLACK
6
CONTINUOUS
10
7.63837
20
-4.02679
11
7.68319
21
-4.02647
0
LINE
8
BLACK
6
CONTINUOUS
10
7.68319
20
-4.02647
11
7.6832
21
-4.02647
0
LINE
8
BLACK
6
CONTINUOUS
10
7.6832
20
-4.02647
11
7.6832
21
-4.02647
0
LINE
8
BLACK
6
CONTINUOUS
10
7.6832
20
-4.02647
11
7.68326
21
-4.0265
0
LINE
8
BLACK
6
CONTINUOUS
10
7.68326
20
-4.0265
11
7.68333
21
-4.02653
0
LINE
8
BLACK
6
CONTINUOUS
10
7.68333
20
-4.02653
11
7.68333
21
-4.02653
0
LINE
8
BLACK
6
CONTINUOUS
10
7.68333
20
-4.02653
11
7.68334
21
-4.02653
0
LINE
8
BLACK
6
CONTINUOUS
10
7.68334
20
-4.02653
11
7.68336
21
-4.0266
0
LINE
8
BLACK
6
CONTINUOUS
10
7.68336
20
-4.0266
11
7.68339
21
-4.02667
0
LINE
8
BLACK
6
CONTINUOUS
10
7.68339
20
-4.02667
11
7.68339
21
-4.02667
0
LINE
8
BLACK
6
CONTINUOUS
10
7.68339
20
-4.02667
11
7.68339
21
-4.02667
0
LINE
8
BLACK
6
CONTINUOUS
10
7.68339
20
-4.02667
11
7.68315
21
-4.03444
0
LINE
8
BLACK
6
CONTINUOUS
10
7.68315
20
-4.03444
11
7.68291
21
-4.04221
0
LINE
8
BLACK
6
CONTINUOUS
10
7.68291
20
-4.04221
11
7.68288
21
-4.04227
0
LINE
8
BLACK
6
CONTINUOUS
10
7.68288
20
-4.04227
11
7.68285
21
-4.04234
0
LINE
8
BLACK
6
CONTINUOUS
10
7.68285
20
-4.04234
11
7.68285
21
-4.04234
0
LINE
8
BLACK
6
CONTINUOUS
10
7.68285
20
-4.04234
11
7.68285
21
-4.04234
0
LINE
8
BLACK
6
CONTINUOUS
10
7.68285
20
-4.04234
11
7.68278
21
-4.04237
0
LINE
8
BLACK
6
CONTINUOUS
10
7.68278
20
-4.04237
11
7.68272
21
-4.0424
0
LINE
8
BLACK
6
CONTINUOUS
10
7.68272
20
-4.0424
11
7.64255
21
-4.04281
0
LINE
8
BLACK
6
CONTINUOUS
10
7.64255
20
-4.04281
11
7.63281
21
-4.04293
0
LINE
8
BLACK
6
CONTINUOUS
10
7.63281
20
-4.04293
11
7.63281
21
-4.04293
0
LINE
8
BLACK
6
CONTINUOUS
10
7.63281
20
-4.04293
11
7.62424
21
-4.04307
0
LINE
8
BLACK
6
CONTINUOUS
10
7.62424
20
-4.04307
11
7.62424
21
-4.04307
0
LINE
8
BLACK
6
CONTINUOUS
10
7.62424
20
-4.04307
11
7.61692
21
-4.04323
0
LINE
8
BLACK
6
CONTINUOUS
10
7.61692
20
-4.04323
11
7.61093
21
-4.0434
0
LINE
8
BLACK
6
CONTINUOUS
10
7.61093
20
-4.0434
11
7.60635
21
-4.04359
0
LINE
8
BLACK
6
CONTINUOUS
10
7.60635
20
-4.04359
11
7.60326
21
-4.04379
0
LINE
8
BLACK
6
CONTINUOUS
10
7.60326
20
-4.04379
11
7.60176
21
-4.04399
0
LINE
8
BLACK
6
CONTINUOUS
10
7.60176
20
-4.04399
11
7.60171
21
-4.04402
0
LINE
8
BLACK
6
CONTINUOUS
10
7.60171
20
-4.04402
11
7.60107
21
-4.04531
0
LINE
8
BLACK
6
CONTINUOUS
10
7.60107
20
-4.04531
11
7.60067
21
-4.04723
0
LINE
8
BLACK
6
CONTINUOUS
10
7.60067
20
-4.04723
11
7.60043
21
-4.04951
0
LINE
8
BLACK
6
CONTINUOUS
10
7.60043
20
-4.04951
11
7.65646
21
-4.04994
0
LINE
8
BLACK
6
CONTINUOUS
10
7.65646
20
-4.04994
11
7.65653
21
-4.04997
0
LINE
8
BLACK
6
CONTINUOUS
10
7.65653
20
-4.04997
11
7.6566
21
-4.05
0
LINE
8
BLACK
6
CONTINUOUS
10
7.6566
20
-4.05
11
7.6566
21
-4.05
0
LINE
8
BLACK
6
CONTINUOUS
10
7.6566
20
-4.05
11
7.6566
21
-4.05
0
LINE
8
BLACK
6
CONTINUOUS
10
7.6566
20
-4.05
11
7.65663
21
-4.05007
0
LINE
8
BLACK
6
CONTINUOUS
10
7.65663
20
-4.05007
11
7.65666
21
-4.05014
0
LINE
8
BLACK
6
CONTINUOUS
10
7.65666
20
-4.05014
11
7.65666
21
-4.06512
0
LINE
8
BLACK
6
CONTINUOUS
10
7.65666
20
-4.06512
11
7.6566
21
-4.06526
0
LINE
8
BLACK
6
CONTINUOUS
10
7.6566
20
-4.06526
11
7.65646
21
-4.06531
0
LINE
8
BLACK
6
CONTINUOUS
10
7.65646
20
-4.06531
11
7.59916
21
-4.06531
0
LINE
8
BLACK
6
CONTINUOUS
10
7.59916
20
-4.06531
11
7.59916
21
-4.08095
0
LINE
8
BLACK
6
CONTINUOUS
10
7.55741
20
-4.02668
11
7.55741
21
-4.02668
0
LINE
8
BLACK
6
CONTINUOUS
10
7.55741
20
-4.02668
11
7.55741
21
-4.02668
0
LINE
8
BLACK
6
CONTINUOUS
10
7.55741
20
-4.02668
11
7.56219
21
-4.0267
0
LINE
8
BLACK
6
CONTINUOUS
10
7.56219
20
-4.0267
11
7.56219
21
-4.0267
0
LINE
8
BLACK
6
CONTINUOUS
10
7.56219
20
-4.0267
11
7.56219
21
-4.0267
0
LINE
8
BLACK
6
CONTINUOUS
10
7.56219
20
-4.0267
11
7.56572
21
-4.02674
0
LINE
8
BLACK
6
CONTINUOUS
10
7.56572
20
-4.02674
11
7.56572
21
-4.02674
0
LINE
8
BLACK
6
CONTINUOUS
10
7.56572
20
-4.02674
11
7.56572
21
-4.02674
0
LINE
8
BLACK
6
CONTINUOUS
10
7.56572
20
-4.02674
11
7.56785
21
-4.02679
0
LINE
8
BLACK
6
CONTINUOUS
10
7.56785
20
-4.02679
11
7.56785
21
-4.0268
0
LINE
8
BLACK
6
CONTINUOUS
10
7.56785
20
-4.0268
11
7.56786
21
-4.02679
0
LINE
8
BLACK
6
CONTINUOUS
10
7.56786
20
-4.02679
11
7.56844
21
-4.02684
0
LINE
8
BLACK
6
CONTINUOUS
10
7.56844
20
-4.02684
11
7.56846
21
-4.02685
0
LINE
8
BLACK
6
CONTINUOUS
10
7.56846
20
-4.02685
11
7.56849
21
-4.02685
0
LINE
8
BLACK
6
CONTINUOUS
10
7.56849
20
-4.02685
11
7.56853
21
-4.02689
0
LINE
8
BLACK
6
CONTINUOUS
10
7.56853
20
-4.02689
11
7.56858
21
-4.02691
0
LINE
8
BLACK
6
CONTINUOUS
10
7.56858
20
-4.02691
11
7.56858
21
-4.02693
0
LINE
8
BLACK
6
CONTINUOUS
10
7.56858
20
-4.02693
11
7.5686
21
-4.02695
0
LINE
8
BLACK
6
CONTINUOUS
10
7.5686
20
-4.02695
11
7.5691
21
-4.02793
0
LINE
8
BLACK
6
CONTINUOUS
10
7.5691
20
-4.02793
11
7.5691
21
-4.02796
0
LINE
8
BLACK
6
CONTINUOUS
10
7.5691
20
-4.02796
11
7.56912
21
-4.028
0
LINE
8
BLACK
6
CONTINUOUS
10
7.56912
20
-4.028
11
7.56935
21
-4.03049
0
LINE
8
BLACK
6
CONTINUOUS
10
7.56935
20
-4.03049
11
7.56935
21
-4.0305
0
LINE
8
BLACK
6
CONTINUOUS
10
7.56935
20
-4.0305
11
7.56935
21
-4.03051
0
LINE
8
BLACK
6
CONTINUOUS
10
7.56935
20
-4.03051
11
7.56932
21
-4.03458
0
LINE
8
BLACK
6
CONTINUOUS
10
7.56932
20
-4.03458
11
7.56932
21
-4.03458
0
LINE
8
BLACK
6
CONTINUOUS
10
7.56932
20
-4.03458
11
7.56932
21
-4.03459
0
LINE
8
BLACK
6
CONTINUOUS
10
7.56932
20
-4.03459
11
7.56931
21
-4.03502
0
LINE
8
BLACK
6
CONTINUOUS
10
7.56931
20
-4.03502
11
7.56931
21
-4.03502
0
LINE
8
BLACK
6
CONTINUOUS
10
7.56931
20
-4.03502
11
7.56931
21
-4.03502
0
LINE
8
BLACK
6
CONTINUOUS
10
7.56931
20
-4.03502
11
7.56904
21
-4.04263
0
LINE
8
BLACK
6
CONTINUOUS
10
7.56904
20
-4.04263
11
7.56901
21
-4.04269
0
LINE
8
BLACK
6
CONTINUOUS
10
7.56901
20
-4.04269
11
7.56898
21
-4.04276
0
LINE
8
BLACK
6
CONTINUOUS
10
7.56898
20
-4.04276
11
7.56898
21
-4.04276
0
LINE
8
BLACK
6
CONTINUOUS
10
7.56898
20
-4.04276
11
7.56898
21
-4.04276
0
LINE
8
BLACK
6
CONTINUOUS
10
7.56898
20
-4.04276
11
7.56891
21
-4.04279
0
LINE
8
BLACK
6
CONTINUOUS
10
7.56891
20
-4.04279
11
7.56884
21
-4.04281
0
LINE
8
BLACK
6
CONTINUOUS
10
7.56884
20
-4.04281
11
7.52528
21
-4.04281
0
LINE
8
BLACK
6
CONTINUOUS
10
7.52528
20
-4.04281
11
7.51562
21
-4.04282
0
LINE
8
BLACK
6
CONTINUOUS
10
7.51562
20
-4.04282
11
7.50749
21
-4.04283
0
LINE
8
BLACK
6
CONTINUOUS
10
7.50749
20
-4.04283
11
7.50076
21
-4.04285
0
LINE
8
BLACK
6
CONTINUOUS
10
7.50076
20
-4.04285
11
7.49527
21
-4.0429
0
LINE
8
BLACK
6
CONTINUOUS
10
7.49527
20
-4.0429
11
7.49527
21
-4.0429
0
LINE
8
BLACK
6
CONTINUOUS
10
7.49527
20
-4.0429
11
7.49092
21
-4.04296
0
LINE
8
BLACK
6
CONTINUOUS
10
7.49092
20
-4.04296
11
7.48754
21
-4.04305
0
LINE
8
BLACK
6
CONTINUOUS
10
7.48754
20
-4.04305
11
7.48502
21
-4.04318
0
LINE
8
BLACK
6
CONTINUOUS
10
7.48502
20
-4.04318
11
7.48321
21
-4.04333
0
LINE
8
BLACK
6
CONTINUOUS
10
7.48321
20
-4.04333
11
7.48198
21
-4.04353
0
LINE
8
BLACK
6
CONTINUOUS
10
7.48198
20
-4.04353
11
7.48121
21
-4.04376
0
LINE
8
BLACK
6
CONTINUOUS
10
7.48121
20
-4.04376
11
7.48074
21
-4.04404
0
LINE
8
BLACK
6
CONTINUOUS
10
7.48074
20
-4.04404
11
7.48053
21
-4.04423
0
LINE
8
BLACK
6
CONTINUOUS
10
7.48053
20
-4.04423
11
7.47975
21
-4.04579
0
LINE
8
BLACK
6
CONTINUOUS
10
7.47975
20
-4.04579
11
7.47915
21
-4.04867
0
LINE
8
BLACK
6
CONTINUOUS
10
7.47915
20
-4.04867
11
7.4787
21
-4.05306
0
LINE
8
BLACK
6
CONTINUOUS
10
7.4787
20
-4.05306
11
7.47867
21
-4.0535
0
LINE
8
BLACK
6
CONTINUOUS
10
7.47867
20
-4.0535
11
7.47844
21
-4.05725
0
LINE
8
BLACK
6
CONTINUOUS
10
7.47844
20
-4.05725
11
7.47842
21
-4.05973
0
LINE
8
BLACK
6
CONTINUOUS
10
7.47842
20
-4.05973
11
7.47865
21
-4.06134
0
LINE
8
BLACK
6
CONTINUOUS
10
7.47865
20
-4.06134
11
7.47917
21
-4.0625
0
LINE
8
BLACK
6
CONTINUOUS
10
7.47917
20
-4.0625
11
7.47978
21
-4.06333
0
LINE
8
BLACK
6
CONTINUOUS
10
7.47978
20
-4.06333
11
7.48141
21
-4.06534
0
LINE
8
BLACK
6
CONTINUOUS
10
7.48141
20
-4.06534
11
7.56813
21
-4.06587
0
LINE
8
BLACK
6
CONTINUOUS
10
7.56813
20
-4.06587
11
7.5682
21
-4.0659
0
LINE
8
BLACK
6
CONTINUOUS
10
7.5682
20
-4.0659
11
7.56827
21
-4.06593
0
LINE
8
BLACK
6
CONTINUOUS
10
7.56827
20
-4.06593
11
7.56827
21
-4.06593
0
LINE
8
BLACK
6
CONTINUOUS
10
7.56827
20
-4.06593
11
7.56827
21
-4.06593
0
LINE
8
BLACK
6
CONTINUOUS
10
7.56827
20
-4.06593
11
7.5683
21
-4.066
0
LINE
8
BLACK
6
CONTINUOUS
10
7.5683
20
-4.066
11
7.56833
21
-4.06607
0
LINE
8
BLACK
6
CONTINUOUS
10
7.56833
20
-4.06607
11
7.56833
21
-4.06964
0
LINE
8
BLACK
6
CONTINUOUS
10
7.56833
20
-4.06964
11
7.56833
21
-4.06965
0
LINE
8
BLACK
6
CONTINUOUS
10
7.56833
20
-4.06965
11
7.56833
21
-4.06965
0
LINE
8
BLACK
6
CONTINUOUS
10
7.56833
20
-4.06965
11
7.5682
21
-4.07287
0
LINE
8
BLACK
6
CONTINUOUS
10
7.5682
20
-4.07287
11
7.5682
21
-4.07287
0
LINE
8
BLACK
6
CONTINUOUS
10
7.5682
20
-4.07287
11
7.5682
21
-4.07288
0
LINE
8
BLACK
6
CONTINUOUS
10
7.5682
20
-4.07288
11
7.56789
21
-4.07636
0
LINE
8
BLACK
6
CONTINUOUS
10
7.56789
20
-4.07636
11
7.56789
21
-4.07636
0
LINE
8
BLACK
6
CONTINUOUS
10
7.56789
20
-4.07636
11
7.56789
21
-4.07637
0
LINE
8
BLACK
6
CONTINUOUS
10
7.56789
20
-4.07637
11
7.5678
21
-4.07711
0
LINE
8
BLACK
6
CONTINUOUS
10
7.5678
20
-4.07711
11
7.56779
21
-4.07711
0
LINE
8
BLACK
6
CONTINUOUS
10
7.56779
20
-4.07711
11
7.5678
21
-4.07711
0
LINE
8
BLACK
6
CONTINUOUS
10
7.5678
20
-4.07711
11
7.56727
21
-4.08098
0
LINE
8
BLACK
6
CONTINUOUS
10
7.56727
20
-4.08098
11
7.56723
21
-4.08103
0
LINE
8
BLACK
6
CONTINUOUS
10
7.56723
20
-4.08103
11
7.56721
21
-4.08109
0
LINE
8
BLACK
6
CONTINUOUS
10
7.56721
20
-4.08109
11
7.5672
21
-4.0811
0
LINE
8
BLACK
6
CONTINUOUS
10
7.5672
20
-4.0811
11
7.56719
21
-4.08111
0
LINE
8
BLACK
6
CONTINUOUS
10
7.56719
20
-4.08111
11
7.56713
21
-4.08112
0
LINE
8
BLACK
6
CONTINUOUS
10
7.56713
20
-4.08112
11
7.56707
21
-4.08115
0
LINE
8
BLACK
6
CONTINUOUS
10
7.56707
20
-4.08115
11
7.52072
21
-4.08108
0
LINE
8
BLACK
6
CONTINUOUS
10
7.52072
20
-4.08108
11
7.52072
21
-4.08108
0
LINE
8
BLACK
6
CONTINUOUS
10
7.52072
20
-4.08108
11
7.52072
21
-4.08108
0
LINE
8
BLACK
6
CONTINUOUS
10
7.52072
20
-4.08108
11
7.50991
21
-4.08106
0
LINE
8
BLACK
6
CONTINUOUS
10
7.50991
20
-4.08106
11
7.50991
21
-4.08106
0
LINE
8
BLACK
6
CONTINUOUS
10
7.50991
20
-4.08106
11
7.50991
21
-4.08106
0
LINE
8
BLACK
6
CONTINUOUS
10
7.50991
20
-4.08106
11
7.50065
21
-4.08101
0
LINE
8
BLACK
6
CONTINUOUS
10
7.50065
20
-4.08101
11
7.50065
21
-4.08101
0
LINE
8
BLACK
6
CONTINUOUS
10
7.50065
20
-4.08101
11
7.50065
21
-4.08101
0
LINE
8
BLACK
6
CONTINUOUS
10
7.50065
20
-4.08101
11
7.49282
21
-4.08095
0
LINE
8
BLACK
6
CONTINUOUS
10
7.49282
20
-4.08095
11
7.49282
21
-4.08095
0
LINE
8
BLACK
6
CONTINUOUS
10
7.49282
20
-4.08095
11
7.49282
21
-4.08095
0
LINE
8
BLACK
6
CONTINUOUS
10
7.49282
20
-4.08095
11
7.4863
21
-4.08085
0
LINE
8
BLACK
6
CONTINUOUS
10
7.4863
20
-4.08085
11
7.4863
21
-4.08085
0
LINE
8
BLACK
6
CONTINUOUS
10
7.4863
20
-4.08085
11
7.4863
21
-4.08085
0
LINE
8
BLACK
6
CONTINUOUS
10
7.4863
20
-4.08085
11
7.48099
21
-4.08074
0
LINE
8
BLACK
6
CONTINUOUS
10
7.48099
20
-4.08074
11
7.48099
21
-4.08073
0
LINE
8
BLACK
6
CONTINUOUS
10
7.48099
20
-4.08073
11
7.48099
21
-4.08074
0
LINE
8
BLACK
6
CONTINUOUS
10
7.48099
20
-4.08074
11
7.47676
21
-4.08059
0
LINE
8
BLACK
6
CONTINUOUS
10
7.47676
20
-4.08059
11
7.47676
21
-4.08059
0
LINE
8
BLACK
6
CONTINUOUS
10
7.47676
20
-4.08059
11
7.47675
21
-4.08059
0
LINE
8
BLACK
6
CONTINUOUS
10
7.47675
20
-4.08059
11
7.47349
21
-4.08041
0
LINE
8
BLACK
6
CONTINUOUS
10
7.47349
20
-4.08041
11
7.47349
21
-4.0804
0
LINE
8
BLACK
6
CONTINUOUS
10
7.47349
20
-4.0804
11
7.47349
21
-4.08041
0
LINE
8
BLACK
6
CONTINUOUS
10
7.47349
20
-4.08041
11
7.47107
21
-4.08019
0
LINE
8
BLACK
6
CONTINUOUS
10
7.47107
20
-4.08019
11
7.47107
21
-4.08019
0
LINE
8
BLACK
6
CONTINUOUS
10
7.47107
20
-4.08019
11
7.47106
21
-4.08019
0
LINE
8
BLACK
6
CONTINUOUS
10
7.47106
20
-4.08019
11
7.46939
21
-4.07993
0
LINE
8
BLACK
6
CONTINUOUS
10
7.46939
20
-4.07993
11
7.46938
21
-4.07993
0
LINE
8
BLACK
6
CONTINUOUS
10
7.46938
20
-4.07993
11
7.46937
21
-4.07993
0
LINE
8
BLACK
6
CONTINUOUS
10
7.46937
20
-4.07993
11
7.46923
21
-4.0799
0
LINE
8
BLACK
6
CONTINUOUS
10
7.46923
20
-4.0799
11
7.46923
21
-4.0799
0
LINE
8
BLACK
6
CONTINUOUS
10
7.46923
20
-4.0799
11
7.46922
21
-4.0799
0
LINE
8
BLACK
6
CONTINUOUS
10
7.46922
20
-4.0799
11
7.46447
21
-4.07862
0
LINE
8
BLACK
6
CONTINUOUS
10
7.46447
20
-4.07862
11
7.46446
21
-4.07861
0
LINE
8
BLACK
6
CONTINUOUS
10
7.46446
20
-4.07861
11
7.46444
21
-4.07861
0
LINE
8
BLACK
6
CONTINUOUS
10
7.46444
20
-4.07861
11
7.46092
21
-4.07702
0
LINE
8
BLACK
6
CONTINUOUS
10
7.46092
20
-4.07702
11
7.4609
21
-4.077
0
LINE
8
BLACK
6
CONTINUOUS
10
7.4609
20
-4.077
11
7.46088
21
-4.07699
0
LINE
8
BLACK
6
CONTINUOUS
10
7.46088
20
-4.07699
11
7.45815
21
-4.07485
0
LINE
8
BLACK
6
CONTINUOUS
10
7.45815
20
-4.07485
11
7.45814
21
-4.07483
0
LINE
8
BLACK
6
CONTINUOUS
10
7.45814
20
-4.07483
11
7.45812
21
-4.07482
0
LINE
8
BLACK
6
CONTINUOUS
10
7.45812
20
-4.07482
11
7.45657
21
-4.07301
0
LINE
8
BLACK
6
CONTINUOUS
10
7.45657
20
-4.07301
11
7.45656
21
-4.07301
0
LINE
8
BLACK
6
CONTINUOUS
10
7.45656
20
-4.07301
11
7.45656
21
-4.073
0
LINE
8
BLACK
6
CONTINUOUS
10
7.45656
20
-4.073
11
7.45422
21
-4.06993
0
LINE
8
BLACK
6
CONTINUOUS
10
7.45422
20
-4.06993
11
7.45421
21
-4.06987
0
LINE
8
BLACK
6
CONTINUOUS
10
7.45421
20
-4.06987
11
7.45418
21
-4.06981
0
LINE
8
BLACK
6
CONTINUOUS
10
7.45418
20
-4.06981
11
7.45423
21
-4.05559
0
LINE
8
BLACK
6
CONTINUOUS
10
7.45423
20
-4.05559
11
7.45423
21
-4.05559
0
LINE
8
BLACK
6
CONTINUOUS
10
7.45423
20
-4.05559
11
7.45423
21
-4.05559
0
LINE
8
BLACK
6
CONTINUOUS
10
7.45423
20
-4.05559
11
7.45427
21
-4.0503
0
LINE
8
BLACK
6
CONTINUOUS
10
7.45427
20
-4.0503
11
7.45427
21
-4.0503
0
LINE
8
BLACK
6
CONTINUOUS
10
7.45427
20
-4.0503
11
7.45427
21
-4.0503
0
LINE
8
BLACK
6
CONTINUOUS
10
7.45427
20
-4.0503
11
7.45435
21
-4.04637
0
LINE
8
BLACK
6
CONTINUOUS
10
7.45435
20
-4.04637
11
7.45435
21
-4.04637
0
LINE
8
BLACK
6
CONTINUOUS
10
7.45435
20
-4.04637
11
7.45435
21
-4.04637
0
LINE
8
BLACK
6
CONTINUOUS
10
7.45435
20
-4.04637
11
7.45452
21
-4.04352
0
LINE
8
BLACK
6
CONTINUOUS
10
7.45452
20
-4.04352
11
7.45452
21
-4.04351
0
LINE
8
BLACK
6
CONTINUOUS
10
7.45452
20
-4.04351
11
7.45452
21
-4.0435
0
LINE
8
BLACK
6
CONTINUOUS
10
7.45452
20
-4.0435
11
7.4548
21
-4.04143
0
LINE
8
BLACK
6
CONTINUOUS
10
7.4548
20
-4.04143
11
7.4548
21
-4.04142
0
LINE
8
BLACK
6
CONTINUOUS
10
7.4548
20
-4.04142
11
7.4548
21
-4.0414
0
LINE
8
BLACK
6
CONTINUOUS
10
7.4548
20
-4.0414
11
7.45522
21
-4.03981
0
LINE
8
BLACK
6
CONTINUOUS
10
7.45522
20
-4.03981
11
7.45523
21
-4.0398
0
LINE
8
BLACK
6
CONTINUOUS
10
7.45523
20
-4.0398
11
7.45523
21
-4.03978
0
LINE
8
BLACK
6
CONTINUOUS
10
7.45523
20
-4.03978
11
7.45583
21
-4.03837
0
LINE
8
BLACK
6
CONTINUOUS
10
7.45583
20
-4.03837
11
7.45583
21
-4.03836
0
LINE
8
BLACK
6
CONTINUOUS
10
7.45583
20
-4.03836
11
7.45583
21
-4.03835
0
LINE
8
BLACK
6
CONTINUOUS
10
7.45583
20
-4.03835
11
7.45612
21
-4.03779
0
LINE
8
BLACK
6
CONTINUOUS
10
7.45612
20
-4.03779
11
7.45613
21
-4.03778
0
LINE
8
BLACK
6
CONTINUOUS
10
7.45613
20
-4.03778
11
7.45614
21
-4.03776
0
LINE
8
BLACK
6
CONTINUOUS
10
7.45614
20
-4.03776
11
7.45895
21
-4.03384
0
LINE
8
BLACK
6
CONTINUOUS
10
7.45895
20
-4.03384
11
7.45897
21
-4.03383
0
LINE
8
BLACK
6
CONTINUOUS
10
7.45897
20
-4.03383
11
7.45899
21
-4.0338
0
LINE
8
BLACK
6
CONTINUOUS
10
7.45899
20
-4.0338
11
7.46295
21
-4.0308
0
LINE
8
BLACK
6
CONTINUOUS
10
7.46295
20
-4.0308
11
7.46298
21
-4.03079
0
LINE
8
BLACK
6
CONTINUOUS
10
7.46298
20
-4.03079
11
7.463
21
-4.03077
0
LINE
8
BLACK
6
CONTINUOUS
10
7.463
20
-4.03077
11
7.46805
21
-4.0286
0
LINE
8
BLACK
6
CONTINUOUS
10
7.46805
20
-4.0286
11
7.46807
21
-4.0286
0
LINE
8
BLACK
6
CONTINUOUS
10
7.46807
20
-4.0286
11
7.46807
21
-4.0286
0
LINE
8
BLACK
6
CONTINUOUS
10
7.46807
20
-4.0286
11
7.46918
21
-4.02827
0
LINE
8
BLACK
6
CONTINUOUS
10
7.46918
20
-4.02827
11
7.46919
21
-4.02827
0
LINE
8
BLACK
6
CONTINUOUS
10
7.46919
20
-4.02827
11
7.4692
21
-4.02827
0
LINE
8
BLACK
6
CONTINUOUS
10
7.4692
20
-4.02827
11
7.47049
21
-4.02799
0
LINE
8
BLACK
6
CONTINUOUS
10
7.47049
20
-4.02799
11
7.47049
21
-4.028
0
LINE
8
BLACK
6
CONTINUOUS
10
7.47049
20
-4.028
11
7.4705
21
-4.02799
0
LINE
8
BLACK
6
CONTINUOUS
10
7.4705
20
-4.02799
11
7.47211
21
-4.02776
0
LINE
8
BLACK
6
CONTINUOUS
10
7.47211
20
-4.02776
11
7.47211
21
-4.02776
0
LINE
8
BLACK
6
CONTINUOUS
10
7.47211
20
-4.02776
11
7.47212
21
-4.02776
0
LINE
8
BLACK
6
CONTINUOUS
10
7.47212
20
-4.02776
11
7.47418
21
-4.02756
0
LINE
8
BLACK
6
CONTINUOUS
10
7.47418
20
-4.02756
11
7.47419
21
-4.02756
0
LINE
8
BLACK
6
CONTINUOUS
10
7.47419
20
-4.02756
11
7.47419
21
-4.02756
0
LINE
8
BLACK
6
CONTINUOUS
10
7.47419
20
-4.02756
11
7.47686
21
-4.0274
0
LINE
8
BLACK
6
CONTINUOUS
10
7.47686
20
-4.0274
11
7.47686
21
-4.0274
0
LINE
8
BLACK
6
CONTINUOUS
10
7.47686
20
-4.0274
11
7.47686
21
-4.0274
0
LINE
8
BLACK
6
CONTINUOUS
10
7.47686
20
-4.0274
11
7.48027
21
-4.02726
0
LINE
8
BLACK
6
CONTINUOUS
10
7.48027
20
-4.02726
11
7.48027
21
-4.02726
0
LINE
8
BLACK
6
CONTINUOUS
10
7.48027
20
-4.02726
11
7.48027
21
-4.02726
0
LINE
8
BLACK
6
CONTINUOUS
10
7.48027
20
-4.02726
11
7.48455
21
-4.02715
0
LINE
8
BLACK
6
CONTINUOUS
10
7.48455
20
-4.02715
11
7.48455
21
-4.02715
0
LINE
8
BLACK
6
CONTINUOUS
10
7.48455
20
-4.02715
11
7.48455
21
-4.02715
0
LINE
8
BLACK
6
CONTINUOUS
10
7.48455
20
-4.02715
11
7.48985
21
-4.02706
0
LINE
8
BLACK
6
CONTINUOUS
10
7.48985
20
-4.02706
11
7.48985
21
-4.02706
0
LINE
8
BLACK
6
CONTINUOUS
10
7.48985
20
-4.02706
11
7.48985
21
-4.02706
0
LINE
8
BLACK
6
CONTINUOUS
10
7.48985
20
-4.02706
11
7.49631
21
-4.02697
0
LINE
8
BLACK
6
CONTINUOUS
10
7.49631
20
-4.02697
11
7.49631
21
-4.02697
0
LINE
8
BLACK
6
CONTINUOUS
10
7.49631
20
-4.02697
11
7.49631
21
-4.02697
0
LINE
8
BLACK
6
CONTINUOUS
10
7.49631
20
-4.02697
11
7.50406
21
-4.0269
0
LINE
8
BLACK
6
CONTINUOUS
10
7.50406
20
-4.0269
11
7.50406
21
-4.0269
0
LINE
8
BLACK
6
CONTINUOUS
10
7.50406
20
-4.0269
11
7.50406
21
-4.0269
0
LINE
8
BLACK
6
CONTINUOUS
10
7.50406
20
-4.0269
11
7.51325
21
-4.02683
0
LINE
8
BLACK
6
CONTINUOUS
10
7.51325
20
-4.02683
11
7.51325
21
-4.02683
0
LINE
8
BLACK
6
CONTINUOUS
10
7.51325
20
-4.02683
11
7.51325
21
-4.02683
0
LINE
8
BLACK
6
CONTINUOUS
10
7.51325
20
-4.02683
11
7.52009
21
-4.02679
0
LINE
8
BLACK
6
CONTINUOUS
10
7.52009
20
-4.02679
11
7.52009
21
-4.02679
0
LINE
8
BLACK
6
CONTINUOUS
10
7.52009
20
-4.02679
11
7.52009
21
-4.02679
0
LINE
8
BLACK
6
CONTINUOUS
10
7.52009
20
-4.02679
11
7.52884
21
-4.02673
0
LINE
8
BLACK
6
CONTINUOUS
10
7.52884
20
-4.02673
11
7.52884
21
-4.02673
0
LINE
8
BLACK
6
CONTINUOUS
10
7.52884
20
-4.02673
11
7.52884
21
-4.02673
0
LINE
8
BLACK
6
CONTINUOUS
10
7.52884
20
-4.02673
11
7.5371
21
-4.0267
0
LINE
8
BLACK
6
CONTINUOUS
10
7.5371
20
-4.0267
11
7.5371
21
-4.0267
0
LINE
8
BLACK
6
CONTINUOUS
10
7.5371
20
-4.0267
11
7.5371
21
-4.0267
0
LINE
8
BLACK
6
CONTINUOUS
10
7.5371
20
-4.0267
11
7.54471
21
-4.02668
0
LINE
8
BLACK
6
CONTINUOUS
10
7.54471
20
-4.02668
11
7.54471
21
-4.02668
0
LINE
8
BLACK
6
CONTINUOUS
10
7.54471
20
-4.02668
11
7.54472
21
-4.02668
0
LINE
8
BLACK
6
CONTINUOUS
10
7.54472
20
-4.02668
11
7.55154
21
-4.02667
0
LINE
8
BLACK
6
CONTINUOUS
10
7.55154
20
-4.02667
11
7.55154
21
-4.02667
0
LINE
8
BLACK
6
CONTINUOUS
10
7.55154
20
-4.02667
11
7.55154
21
-4.02667
0
LINE
8
BLACK
6
CONTINUOUS
10
7.55154
20
-4.02667
11
7.55741
21
-4.02668
  0
ENDSEC
  0
EOF
