<?xml version="1.0" standalone="no"?>
 <!DOCTYPE svg PUBLIC "-//W3C//DTD SVG 1.1//EN" 
 "http://www.w3.org/Graphics/SVG/1.1/DTD/svg11.dtd"> 
<svg
  xmlns:svg="http://www.w3.org/2000/svg"
  xmlns="http://www.w3.org/2000/svg"
  xmlns:xlink="http://www.w3.org/1999/xlink"
  version="1.1"
  width="5.019040cm" height="2.024380cm" viewBox="0 0 19760 7970">
<title>SVG Picture created as tone_block-F_SilkS.svg date 2021/09/10 18:00:40 </title>
  <desc>Picture generated by PCBNEW </desc>
<g style="fill:#000000; fill-opacity:1;stroke:#000000; stroke-opacity:1;
stroke-linecap:round; stroke-linejoin:round;"
 transform="translate(0 0) scale(1 1)">
</g>
<g style="fill:#000000; fill-opacity:0.0; 
stroke:#000000; stroke-width:-0.000393701; stroke-opacity:1; 
stroke-linecap:round; stroke-linejoin:round;">
</g>
<g style="fill:#000000; fill-opacity:0.0; 
stroke:#000000; stroke-width:49.2126; stroke-opacity:1; 
stroke-linecap:round; stroke-linejoin:round;">
<text x="15786.9" y="1774.61"
textLength="2476.47" font-size="262.467" lengthAdjust="spacingAndGlyphs"
text-anchor="middle" opacity="0">Tone Block v1.0</text>
<path d="M14605 1568
L14718 1568
" />
<path d="M14662 1765
L14662 1568
" />
<path d="M14812 1765
L14793 1755
L14783 1746
L14774 1727
L14774 1671
L14783 1652
L14793 1643
L14812 1633
L14840 1633
L14858 1643
L14868 1652
L14877 1671
L14877 1727
L14868 1746
L14858 1755
L14840 1765
L14812 1765
" />
<path d="M14962 1633
L14962 1765
" />
<path d="M14962 1652
L14971 1643
L14990 1633
L15018 1633
L15037 1643
L15046 1662
L15046 1765
" />
<path d="M15215 1755
L15196 1765
L15158 1765
L15140 1755
L15130 1737
L15130 1662
L15140 1643
L15158 1633
L15196 1633
L15215 1643
L15224 1662
L15224 1680
L15130 1699
" />
<path d="M15524 1662
L15552 1671
L15561 1680
L15571 1699
L15571 1727
L15561 1746
L15552 1755
L15533 1765
L15458 1765
L15458 1568
L15524 1568
L15543 1577
L15552 1587
L15561 1605
L15561 1624
L15552 1643
L15543 1652
L15524 1662
L15458 1662
" />
<path d="M15683 1765
L15665 1755
L15655 1737
L15655 1568
" />
<path d="M15786 1765
L15768 1755
L15758 1746
L15749 1727
L15749 1671
L15758 1652
L15768 1643
L15786 1633
L15815 1633
L15833 1643
L15843 1652
L15852 1671
L15852 1727
L15843 1746
L15833 1755
L15815 1765
L15786 1765
" />
<path d="M16021 1755
L16002 1765
L15965 1765
L15946 1755
L15936 1746
L15927 1727
L15927 1671
L15936 1652
L15946 1643
L15965 1633
L16002 1633
L16021 1643
" />
<path d="M16105 1765
L16105 1568
" />
<path d="M16124 1690
L16180 1765
" />
<path d="M16180 1633
L16105 1708
" />
<path d="M16396 1633
L16443 1765
L16489 1633
" />
<path d="M16668 1765
L16555 1765
" />
<path d="M16611 1765
L16611 1568
L16593 1596
L16574 1615
L16555 1624
" />
<path d="M16752 1746
L16761 1755
L16752 1765
L16743 1755
L16752 1746
L16752 1765
" />
<path d="M16883 1568
L16902 1568
L16921 1577
L16930 1587
L16939 1605
L16949 1643
L16949 1690
L16939 1727
L16930 1746
L16921 1755
L16902 1765
L16883 1765
L16864 1755
L16855 1746
L16846 1727
L16836 1690
L16836 1643
L16846 1605
L16855 1587
L16864 1577
L16883 1568
" />
</g>
<g style="fill:#000000; fill-opacity:1.0; 
stroke:#000000; stroke-width:3.93701; stroke-opacity:1; 
stroke-linecap:round; stroke-linejoin:round;">
<path style="fill:#000000; fill-opacity:1.0; 
stroke:#000000; stroke-width:3.93701; stroke-opacity:1; 
stroke-linecap:round; stroke-linejoin:round;fill-rule:evenodd;"
d="M 13057.2,879.38
13054.8,956.463
12608.1,958.619
12510,959.123
12427.3,959.645
12358.5,960.233
12302.4,960.936
12257.6,961.802
12222.7,962.88
12196.4,964.218
12177.4,965.865
12164.4,967.871
12155.9,970.283
12150.6,973.15
12148.3,975.285
12140.1,992.802
12133.8,1025.54
12129.5,1068.96
12127.1,1106.6
12126.8,1131.67
12129,1148.2
12134.2,1160.21
12140.6,1168.96
12157.5,1189.8
12605.1,1192.47
13052.6,1195.14
13047.6,1225.8
13044.5,1253.03
13042.6,1286.25
13042.4,1300.21
13042.3,1343.96
12577.7,1342.99
12489.8,1342.68
12405.7,1342.13
12327.2,1341.38
12255.9,1340.45
12193.5,1339.37
12141.8,1338.17
12102.3,1336.87
12076.8,1335.5
12069.1,1334.68
12010.8,1318.47
11963.7,1291.55
11928.9,1254.81
11908.2,1211.25
11904.7,1188.28
11903.4,1153.36
11904.1,1110.48
11906.4,1063.64
11910.1,1016.82
11915,974.005
11920.8,939.18
11927.1,916.334
11928.3,913.857
11954.9,877.435
11991.3,846.733
12017.4,832.626
12034.9,826.269
12055.5,820.833
12080.6,816.253
12111.5,812.46
12149.6,809.387
12196.1,806.968
12252.4,805.133
12319.9,803.816
12399.9,802.95
12493.6,802.467
12602.6,802.299
12618.2,802.297
13059.6,802.297
Z" /> 
<path style="fill:#000000; fill-opacity:1.0; 
stroke:#000000; stroke-width:3.93701; stroke-opacity:1; 
stroke-linecap:round; stroke-linejoin:round;fill-rule:evenodd;"
d="M 13375.6,863.505
13375.4,886.276
13375.7,904.993
13378,920.064
13383.8,931.896
13394.5,940.898
13411.7,947.478
13436.8,952.043
13471.4,955
13516.8,956.76
13574.7,957.728
13646.4,958.313
13722.3,958.837
14034,961.21
14034,802.297
14278.2,802.297
14272.4,987.713
14270.2,1044.08
14267.5,1097
14264.5,1143.44
14261.4,1180.37
14258.3,1204.75
14257.2,1209.87
14238.9,1250.49
14207.4,1286.23
14165.9,1313.83
14140.7,1324.17
14126.3,1328.19
14109,1331.49
14086.8,1334.16
14057.9,1336.31
14020.4,1338.02
13972.5,1339.42
13912.2,1340.59
13837.8,1341.64
13811.1,1341.96
13525.6,1345.3
13525.6,1195.34
13757.7,1192.57
13830.3,1191.61
13887.9,1190.43
13932.2,1188.71
13965.1,1186.12
13988.2,1182.32
14003.3,1176.99
14012,1169.81
14016.1,1160.43
14017.3,1148.53
14017.3,1142.94
14017.3,1118.96
13711.1,1118.71
13615.4,1118.42
13534.8,1117.65
13467.5,1116.29
13412,1114.22
13366.6,1111.32
13329.6,1107.47
13299.4,1102.55
13274.3,1096.46
13252.7,1089.06
13244,1085.39
13202,1062.73
13171.5,1035.66
13151,1001.51
13139.1,957.606
13134.4,901.293
13134.2,883.547
13134,802.297
13375.6,802.297
Z" /> 
<path style="fill:#000000; fill-opacity:1.0; 
stroke:#000000; stroke-width:3.93701; stroke-opacity:1; 
stroke-linecap:round; stroke-linejoin:round;fill-rule:evenodd;"
d="M 15376.8,803.231
15424.6,803.463
15459.9,803.837
15481.1,804.353
15486.9,804.824
15491.9,814.596
15494.2,839.524
15493.9,880.239
15493.8,884.548
15491.1,960.63
15055.5,960.63
14958.9,960.658
14877.6,960.774
14810.2,961.021
14755.4,961.446
14711.8,962.094
14678,963.011
14652.7,964.242
14634.5,965.831
14622.1,967.826
14614,970.27
14608.9,973.209
14606.4,975.548
14598.3,991.651
14592.2,1020.88
14587.7,1064.91
14587.4,1069.3
14585.1,1106.88
14584.9,1131.9
14587.3,1148.42
14592.6,1160.45
14598.9,1168.96
14615.8,1189.8
15484,1195.16
15484,1230.9
15482.7,1263.06
15479.6,1297.87
15478.7,1305.3
15473.4,1343.96
15009.9,1343.3
14901.8,1343.05
14809.2,1342.6
14730.9,1341.93
14665.7,1341.02
14612.6,1339.84
14570.3,1338.35
14537.7,1336.54
14513.6,1334.37
14496.8,1331.83
14495.4,1331.53
14447.9,1318.75
14412.7,1302.83
14385.4,1281.4
14369.8,1263.29
14346.5,1232.6
14347,1090.37
14347.3,1037.45
14348.2,998.234
14349.8,969.739
14352.6,948.996
14356.8,933.033
14362.8,918.879
14365.6,913.196
14393.8,874.038
14433.4,843.973
14484,822.294
14495.1,819.074
14508,816.322
14524,813.993
14544.7,812.037
14571.4,810.406
14605.4,809.051
14648.2,807.924
14701.2,806.977
14765.8,806.161
14843.3,805.428
14935.2,804.73
15003.6,804.269
15091.1,803.763
15173.7,803.407
15249.8,803.202
15318.1,803.143
Z" /> 
<path style="fill:#000000; fill-opacity:1.0; 
stroke:#000000; stroke-width:3.93701; stroke-opacity:1; 
stroke-linecap:round; stroke-linejoin:round;fill-rule:evenodd;"
d="M 16632.2,878.8
16629.8,956.463
16228.1,960.63
16130.7,961.811
16045,963.202
15971.8,964.779
15911.9,966.518
15866.1,968.394
15835.1,970.385
15819.8,972.465
15818.3,973.13
15811.5,986.951
15807.5,1006.46
15804.8,1031.46
16367.3,1035.85
16367.3,1185.63
15792.3,1185.63
15792.3,1343.96
15544.4,1343.96
15548.1,1229.38
15551.3,1143.63
15555,1072.85
15559.6,1015.34
15565.4,969.412
15572.8,933.369
15582.2,905.516
15593.8,884.157
15608.1,867.598
15624.9,854.413
15639.9,844.639
15654.2,836.323
15669.2,829.336
15686.4,823.55
15707.2,818.836
15733.1,815.067
15765.4,812.113
15805.6,809.848
15855.2,808.142
15915.6,806.867
15988.2,805.896
16074.4,805.1
16175.7,804.351
16186.4,804.276
16634.6,801.137
Z" /> 
<path style="fill:#000000; fill-opacity:1.0; 
stroke:#000000; stroke-width:3.93701; stroke-opacity:1; 
stroke-linecap:round; stroke-linejoin:round;fill-rule:evenodd;"
d="M 16939.4,866.88
16937.7,893.774
16935.8,934.051
16933.7,984.43
16931.7,1041.63
16929.7,1102.37
16928.7,1137.71
16923.2,1343.96
16673.5,1343.96
16678.6,1246.05
16680.5,1205.86
16682.7,1153.7
16685,1094.26
16687.2,1032.23
16689.1,975.213
16694.5,802.297
16944.5,802.297
Z" /> 
</g>
<g style="fill:#000000; fill-opacity:1.0; 
stroke:#000000; stroke-width:59.0551; stroke-opacity:1; 
stroke-linecap:round; stroke-linejoin:round;">
</g>
<g style="fill:#000000; fill-opacity:0.0; 
stroke:#000000; stroke-width:59.0551; stroke-opacity:1; 
stroke-linecap:round; stroke-linejoin:round;">
<path d="M12538 6105
L12538 1971
" />
<path d="M16672 6105
L12538 6105
" />
<path d="M16672 1971
L16672 6105
" />
<path d="M12538 1971
L16672 1971
" />
<path d="M3090 6105
L3090 1971
" />
<path d="M7223 6105
L3090 6105
" />
<path d="M7223 1971
L7223 6105
" />
<path d="M3090 1971
L7223 1971
" />
<text x="14605.8" y="6597.44"
textLength="851.378" font-size="524.934" lengthAdjust="spacingAndGlyphs"
text-anchor="middle" opacity="0">Q1</text>
<path d="M14568 6616
L14530 6597
L14493 6559
L14437 6503
L14399 6484
L14362 6484
" />
<path d="M14380 6578
L14343 6559
L14305 6522
L14287 6447
L14287 6316
L14305 6241
L14343 6203
L14380 6184
L14455 6184
L14493 6203
L14530 6241
L14549 6316
L14549 6447
L14530 6522
L14493 6559
L14455 6578
L14380 6578
" />
<path d="M14924 6578
L14699 6578
" />
<path d="M14812 6578
L14812 6184
L14774 6241
L14737 6278
L14699 6297
" />
<text x="5157.01" y="6597.44"
textLength="1726.57" font-size="524.934" lengthAdjust="spacingAndGlyphs"
text-anchor="middle" opacity="0">Freq1</text>
<path d="M4557 6372
L4425 6372
" />
<path d="M4425 6578
L4425 6184
L4613 6184
" />
<path d="M4763 6578
L4763 6316
" />
<path d="M4763 6391
L4782 6353
L4800 6334
L4838 6316
L4875 6316
" />
<path d="M5157 6559
L5119 6578
L5044 6578
L5007 6559
L4988 6522
L4988 6372
L5007 6334
L5044 6316
L5119 6316
L5157 6334
L5175 6372
L5175 6409
L4988 6447
" />
<path d="M5513 6316
L5513 6709
" />
<path d="M5513 6559
L5475 6578
L5400 6578
L5363 6559
L5344 6541
L5325 6503
L5325 6391
L5344 6353
L5363 6334
L5400 6316
L5475 6316
L5513 6334
" />
<path d="M5906 6578
L5681 6578
" />
<path d="M5794 6578
L5794 6184
L5756 6241
L5719 6278
L5681 6297
" />
<g >
</g>
</g>
<g style="fill:#000000; fill-opacity:0.0; 
stroke:#000000; stroke-width:59.0551; stroke-opacity:1; 
stroke-linecap:round; stroke-linejoin:round;">
</g>
<g style="fill:#000000; fill-opacity:0.0; 
stroke:#000000; stroke-width:19.685; stroke-opacity:1; 
stroke-linecap:round; stroke-linejoin:round;">
<path d="M1810 6794
L1810 5613
" />
<path d="M1810 1282
L1810 2463
" />
<path d="M17952 5613
L17952 6794
" />
<path d="M17952 1282
L17952 2463
" />
<path d="M17952.3 5613.19 A1587.06 1587.06 0.0 0 0 17952.3 2463.58" />
<path d="M1810.55 2463.58 A1587.06 1587.06 0.0 0 0 1810.56 5613.19" />
<path d="M17164 7581
L2597 7581
" />
<path d="M2597 495
L17164 495
" />
<path d="M17952.3 1282.48 A787.402 787.402 0.0 0 0 17164.9 495.079" />
<path d="M17164.9 7581.69 A787.402 787.402 0.0 0 0 17952.3 6794.29" />
<path d="M1810.55 6794.29 A787.402 787.402 0.0 0 0 2597.96 7581.69" />
<path d="M2597.96 495.079 A787.402 787.402 0.0 0 0 1810.55 1282.48" />
<g >
</g>
<g >
</g>
<g >
</g>
<g >
</g>
<g >
</g>
<g >
</g>
<g >
</g>
<g >
</g>
<g >
</g>
<g >
</g>
<g >
</g>
<g >
</g>
<g >
</g>
<g >
</g>
<g >
</g>
<g >
</g>
<g >
</g>
<g >
</g>
<g >
</g>
</g> 
</svg>
