<?xml version="1.0" standalone="no"?>
 <!DOCTYPE svg PUBLIC "-//W3C//DTD SVG 1.1//EN" 
 "http://www.w3.org/Graphics/SVG/1.1/DTD/svg11.dtd"> 
<svg
  xmlns:svg="http://www.w3.org/2000/svg"
  xmlns="http://www.w3.org/2000/svg"
  xmlns:xlink="http://www.w3.org/1999/xlink"
  version="1.1"
  width="5.019040cm" height="2.024380cm" viewBox="0 0 19760 7970">
<title>SVG Picture created as tone_block-F_Mask.svg date 2021/09/10 18:00:40 </title>
  <desc>Picture generated by PCBNEW </desc>
<g style="fill:#000000; fill-opacity:1;stroke:#000000; stroke-opacity:1;
stroke-linecap:round; stroke-linejoin:round;"
 transform="translate(0 0) scale(1 1)">
</g>
<g style="fill:#000000; fill-opacity:0.0; 
stroke:#000000; stroke-width:-0.000393701; stroke-opacity:1; 
stroke-linecap:round; stroke-linejoin:round;">
<g >
</g>
<g >
</g>
<g >
</g>
<g style="fill:#000000; fill-opacity:0.0; 
stroke:#000000; stroke-width:-0.000393701; stroke-opacity:1; 
stroke-linecap:round; stroke-linejoin:round;">
</g>
<g style="fill:#000000; fill-opacity:1.0; 
stroke:#000000; stroke-width:0; stroke-opacity:1; 
stroke-linecap:round; stroke-linejoin:round;">
<circle cx="7849.92" cy="5597.44" r="334.646" /> 
<circle cx="7849.92" cy="6597.44" r="334.646" /> 
<circle cx="8849.92" cy="5597.44" r="334.646" /> 
<circle cx="8849.92" cy="6597.44" r="334.646" /> 
<circle cx="9849.92" cy="5597.44" r="334.646" /> 
<circle cx="9849.92" cy="6597.44" r="334.646" /> 
<circle cx="10849.9" cy="5597.44" r="334.646" /> 
<circle cx="10849.9" cy="6597.44" r="334.646" /> 
<circle cx="11849.9" cy="5597.44" r="334.646" /> 
<path style="fill:#000000; fill-opacity:1.0; 
stroke:#000000; stroke-width:0; stroke-opacity:1; 
stroke-linecap:round; stroke-linejoin:round;fill-rule:evenodd;"
d="M 12184.6,6932.09
11515.3,6932.09
11515.3,6262.8
12184.6,6262.8
Z" /> 
</g>
<g >
</g>
<g style="fill:#000000; fill-opacity:1.0; 
stroke:#000000; stroke-width:0; stroke-opacity:1; 
stroke-linecap:round; stroke-linejoin:round;">
<circle cx="17755.4" cy="4038.39" r="885.827" /> 
</g>
<g style="fill:#000000; fill-opacity:1.0; 
stroke:#000000; stroke-width:39.3701; stroke-opacity:1; 
stroke-linecap:round; stroke-linejoin:round;">
</g>
<g >
</g>
<g style="fill:#000000; fill-opacity:1.0; 
stroke:#000000; stroke-width:39.3701; stroke-opacity:1; 
stroke-linecap:round; stroke-linejoin:round;">
</g>
<g style="fill:#000000; fill-opacity:1.0; 
stroke:#000000; stroke-width:0; stroke-opacity:1; 
stroke-linecap:round; stroke-linejoin:round;">
<circle cx="2007.41" cy="4038.39" r="885.827" /> 
</g>
<g style="fill:#000000; fill-opacity:1.0; 
stroke:#000000; stroke-width:39.3701; stroke-opacity:1; 
stroke-linecap:round; stroke-linejoin:round;">
</g>
<g >
</g>
<g >
</g>
<g >
</g>
<g >
</g>
<g >
</g>
<g style="fill:#000000; fill-opacity:1.0; 
stroke:#000000; stroke-width:39.3701; stroke-opacity:1; 
stroke-linecap:round; stroke-linejoin:round;">
</g>
<g style="fill:#000000; fill-opacity:1.0; 
stroke:#000000; stroke-width:0; stroke-opacity:1; 
stroke-linecap:round; stroke-linejoin:round;">
<circle cx="10865.7" cy="2660.43" r="393.701" /> 
</g>
<g style="fill:#000000; fill-opacity:1.0; 
stroke:#000000; stroke-width:39.3701; stroke-opacity:1; 
stroke-linecap:round; stroke-linejoin:round;">
</g>
<g style="fill:#000000; fill-opacity:1.0; 
stroke:#000000; stroke-width:0; stroke-opacity:1; 
stroke-linecap:round; stroke-linejoin:round;">
<circle cx="8897.17" cy="2660.43" r="393.701" /> 
</g>
<g style="fill:#000000; fill-opacity:1.0; 
stroke:#000000; stroke-width:39.3701; stroke-opacity:1; 
stroke-linecap:round; stroke-linejoin:round;">
</g>
<g >
</g>
<g >
</g>
<g >
</g>
<g >
</g>
<g >
</g>
<g >
</g>
<g >
</g>
<g style="fill:#000000; fill-opacity:1.0; 
stroke:#000000; stroke-width:39.3701; stroke-opacity:1; 
stroke-linecap:round; stroke-linejoin:round;">
</g>
<g style="fill:#000000; fill-opacity:1.0; 
stroke:#000000; stroke-width:0; stroke-opacity:1; 
stroke-linecap:round; stroke-linejoin:round;">
<path style="fill:#000000; fill-opacity:1.0; 
stroke:#000000; stroke-width:0; stroke-opacity:1; 
stroke-linecap:round; stroke-linejoin:round;fill-rule:evenodd;"
d="M 12712.1,3432.09
12712.1,2644.69
13499.5,2644.69
13499.5,3432.09
Z" /> 
<path style="fill:#000000; fill-opacity:1.0; 
stroke:#000000; stroke-width:0; stroke-opacity:1; 
stroke-linecap:round; stroke-linejoin:round;fill-rule:evenodd;"
d="M 16322,2645.63
16341.1,2648.47
16359.8,2653.16
16378,2659.67
16395.5,2667.93
16412,2677.86
16427.6,2689.37
16441.9,2702.34
16454.8,2716.65
16466.4,2732.17
16476.3,2748.74
16484.5,2766.2
16491.1,2784.39
16495.7,2803.13
16498.6,2822.24
16499.5,2841.54
16499.5,3235.24
16498.6,3254.53
16495.7,3273.64
16491.1,3292.38
16484.5,3310.57
16476.3,3328.03
16466.4,3344.6
16454.8,3360.12
16441.9,3374.43
16427.6,3387.4
16412,3398.91
16395.5,3408.84
16378,3417.1
16359.8,3423.61
16341.1,3428.3
16322,3431.14
16302.7,3432.09
15909,3432.09
15889.7,3431.14
15870.6,3428.3
15851.8,3423.61
15833.6,3417.1
15816.2,3408.84
15799.6,3398.91
15784.1,3387.4
15769.8,3374.43
15756.8,3360.12
15745.3,3344.6
15735.4,3328.03
15727.1,3310.57
15720.6,3292.38
15715.9,3273.64
15713.1,3254.53
15712.1,3235.24
15712.1,2841.54
15713.1,2822.24
15715.9,2803.13
15720.6,2784.39
15727.1,2766.2
15735.4,2748.74
15745.3,2732.17
15756.8,2716.65
15769.8,2702.34
15784.1,2689.37
15799.6,2677.86
15816.2,2667.93
15833.6,2659.67
15851.8,2653.16
15870.6,2648.47
15889.7,2645.63
15909,2644.69
16302.7,2644.69
Z" /> 
<path style="fill:#000000; fill-opacity:1.0; 
stroke:#000000; stroke-width:0; stroke-opacity:1; 
stroke-linecap:round; stroke-linejoin:round;fill-rule:evenodd;"
d="M 16322,3645.63
16341.1,3648.47
16359.8,3653.16
16378,3659.67
16395.5,3667.93
16412,3677.86
16427.6,3689.37
16441.9,3702.34
16454.8,3716.65
16466.4,3732.17
16476.3,3748.74
16484.5,3766.2
16491.1,3784.39
16495.7,3803.13
16498.6,3822.24
16499.5,3841.54
16499.5,4235.24
16498.6,4254.53
16495.7,4273.64
16491.1,4292.38
16484.5,4310.57
16476.3,4328.03
16466.4,4344.6
16454.8,4360.12
16441.9,4374.43
16427.6,4387.4
16412,4398.91
16395.5,4408.84
16378,4417.1
16359.8,4423.61
16341.1,4428.3
16322,4431.14
16302.7,4432.09
15909,4432.09
15889.7,4431.14
15870.6,4428.3
15851.8,4423.61
15833.6,4417.1
15816.2,4408.84
15799.6,4398.91
15784.1,4387.4
15769.8,4374.43
15756.8,4360.12
15745.3,4344.6
15735.4,4328.03
15727.1,4310.57
15720.6,4292.38
15715.9,4273.64
15713.1,4254.53
15712.1,4235.24
15712.1,3841.54
15713.1,3822.24
15715.9,3803.13
15720.6,3784.39
15727.1,3766.2
15735.4,3748.74
15745.3,3732.17
15756.8,3716.65
15769.8,3702.34
15784.1,3689.37
15799.6,3677.86
15816.2,3667.93
15833.6,3659.67
15851.8,3653.16
15870.6,3648.47
15889.7,3645.63
15909,3644.69
16302.7,3644.69
Z" /> 
<path style="fill:#000000; fill-opacity:1.0; 
stroke:#000000; stroke-width:0; stroke-opacity:1; 
stroke-linecap:round; stroke-linejoin:round;fill-rule:evenodd;"
d="M 16322,4645.63
16341.1,4648.47
16359.8,4653.16
16378,4659.67
16395.5,4667.93
16412,4677.86
16427.6,4689.37
16441.9,4702.34
16454.8,4716.65
16466.4,4732.17
16476.3,4748.74
16484.5,4766.2
16491.1,4784.39
16495.7,4803.13
16498.6,4822.24
16499.5,4841.54
16499.5,5235.24
16498.6,5254.53
16495.7,5273.64
16491.1,5292.38
16484.5,5310.57
16476.3,5328.03
16466.4,5344.6
16454.8,5360.12
16441.9,5374.43
16427.6,5387.4
16412,5398.91
16395.5,5408.84
16378,5417.1
16359.8,5423.61
16341.1,5428.3
16322,5431.14
16302.7,5432.09
15909,5432.09
15889.7,5431.14
15870.6,5428.3
15851.8,5423.61
15833.6,5417.1
15816.2,5408.84
15799.6,5398.91
15784.1,5387.4
15769.8,5374.43
15756.8,5360.12
15745.3,5344.6
15735.4,5328.03
15727.1,5310.57
15720.6,5292.38
15715.9,5273.64
15713.1,5254.53
15712.1,5235.24
15712.1,4841.54
15713.1,4822.24
15715.9,4803.13
15720.6,4784.39
15727.1,4766.2
15735.4,4748.74
15745.3,4732.17
15756.8,4716.65
15769.8,4702.34
15784.1,4689.37
15799.6,4677.86
15816.2,4667.93
15833.6,4659.67
15851.8,4653.16
15870.6,4648.47
15889.7,4645.63
15909,4644.69
16302.7,4644.69
Z" /> 
<path style="fill:#000000; fill-opacity:1.0; 
stroke:#000000; stroke-width:0; stroke-opacity:1; 
stroke-linecap:round; stroke-linejoin:round;fill-rule:evenodd;"
d="M 13322,4645.63
13341.1,4648.47
13359.8,4653.16
13378,4659.67
13395.5,4667.93
13412,4677.86
13427.6,4689.37
13441.9,4702.34
13454.8,4716.65
13466.4,4732.17
13476.3,4748.74
13484.5,4766.2
13491.1,4784.39
13495.7,4803.13
13498.6,4822.24
13499.5,4841.54
13499.5,5235.24
13498.6,5254.53
13495.7,5273.64
13491.1,5292.38
13484.5,5310.57
13476.3,5328.03
13466.4,5344.6
13454.8,5360.12
13441.9,5374.43
13427.6,5387.4
13412,5398.91
13395.5,5408.84
13378,5417.1
13359.8,5423.61
13341.1,5428.3
13322,5431.14
13302.7,5432.09
12909,5432.09
12889.7,5431.14
12870.6,5428.3
12851.8,5423.61
12833.6,5417.1
12816.2,5408.84
12799.6,5398.91
12784.1,5387.4
12769.8,5374.43
12756.8,5360.12
12745.3,5344.6
12735.4,5328.03
12727.1,5310.57
12720.6,5292.38
12715.9,5273.64
12713.1,5254.53
12712.1,5235.24
12712.1,4841.54
12713.1,4822.24
12715.9,4803.13
12720.6,4784.39
12727.1,4766.2
12735.4,4748.74
12745.3,4732.17
12756.8,4716.65
12769.8,4702.34
12784.1,4689.37
12799.6,4677.86
12816.2,4667.93
12833.6,4659.67
12851.8,4653.16
12870.6,4648.47
12889.7,4645.63
12909,4644.69
13302.7,4644.69
Z" /> 
<path style="fill:#000000; fill-opacity:1.0; 
stroke:#000000; stroke-width:0; stroke-opacity:1; 
stroke-linecap:round; stroke-linejoin:round;fill-rule:evenodd;"
d="M 13322,3645.63
13341.1,3648.47
13359.8,3653.16
13378,3659.67
13395.5,3667.93
13412,3677.86
13427.6,3689.37
13441.9,3702.34
13454.8,3716.65
13466.4,3732.17
13476.3,3748.74
13484.5,3766.2
13491.1,3784.39
13495.7,3803.13
13498.6,3822.24
13499.5,3841.54
13499.5,4235.24
13498.6,4254.53
13495.7,4273.64
13491.1,4292.38
13484.5,4310.57
13476.3,4328.03
13466.4,4344.6
13454.8,4360.12
13441.9,4374.43
13427.6,4387.4
13412,4398.91
13395.5,4408.84
13378,4417.1
13359.8,4423.61
13341.1,4428.3
13322,4431.14
13302.7,4432.09
12909,4432.09
12889.7,4431.14
12870.6,4428.3
12851.8,4423.61
12833.6,4417.1
12816.2,4408.84
12799.6,4398.91
12784.1,4387.4
12769.8,4374.43
12756.8,4360.12
12745.3,4344.6
12735.4,4328.03
12727.1,4310.57
12720.6,4292.38
12715.9,4273.64
12713.1,4254.53
12712.1,4235.24
12712.1,3841.54
12713.1,3822.24
12715.9,3803.13
12720.6,3784.39
12727.1,3766.2
12735.4,3748.74
12745.3,3732.17
12756.8,3716.65
12769.8,3702.34
12784.1,3689.37
12799.6,3677.86
12816.2,3667.93
12833.6,3659.67
12851.8,3653.16
12870.6,3648.47
12889.7,3645.63
12909,3644.69
13302.7,3644.69
Z" /> 
</g>
<g >
</g>
<g style="fill:#000000; fill-opacity:1.0; 
stroke:#000000; stroke-width:0; stroke-opacity:1; 
stroke-linecap:round; stroke-linejoin:round;">
<path style="fill:#000000; fill-opacity:1.0; 
stroke:#000000; stroke-width:0; stroke-opacity:1; 
stroke-linecap:round; stroke-linejoin:round;fill-rule:evenodd;"
d="M 3263.31,3432.09
3263.31,2644.69
4050.71,2644.69
4050.71,3432.09
Z" /> 
<path style="fill:#000000; fill-opacity:1.0; 
stroke:#000000; stroke-width:0; stroke-opacity:1; 
stroke-linecap:round; stroke-linejoin:round;fill-rule:evenodd;"
d="M 6873.16,2645.63
6892.27,2648.47
6911,2653.16
6929.19,2659.67
6946.66,2667.93
6963.23,2677.86
6978.74,2689.37
6993.06,2702.34
7006.03,2716.65
7017.54,2732.17
7027.47,2748.74
7035.73,2766.2
7042.24,2784.39
7046.93,2803.13
7049.76,2822.24
7050.71,2841.54
7050.71,3235.24
7049.76,3254.53
7046.93,3273.64
7042.24,3292.38
7035.73,3310.57
7027.47,3328.03
7017.54,3344.6
7006.03,3360.12
6993.06,3374.43
6978.74,3387.4
6963.23,3398.91
6946.66,3408.84
6929.19,3417.1
6911,3423.61
6892.27,3428.3
6873.16,3431.14
6853.86,3432.09
6460.16,3432.09
6440.87,3431.14
6421.76,3428.3
6403.02,3423.61
6384.83,3417.1
6367.37,3408.84
6350.8,3398.91
6335.28,3387.4
6320.97,3374.43
6307.99,3360.12
6296.49,3344.6
6286.55,3328.03
6278.29,3310.57
6271.79,3292.38
6267.09,3273.64
6264.26,3254.53
6263.31,3235.24
6263.31,2841.54
6264.26,2822.24
6267.09,2803.13
6271.79,2784.39
6278.29,2766.2
6286.55,2748.74
6296.49,2732.17
6307.99,2716.65
6320.97,2702.34
6335.28,2689.37
6350.8,2677.86
6367.37,2667.93
6384.83,2659.67
6403.02,2653.16
6421.76,2648.47
6440.87,2645.63
6460.16,2644.69
6853.86,2644.69
Z" /> 
<path style="fill:#000000; fill-opacity:1.0; 
stroke:#000000; stroke-width:0; stroke-opacity:1; 
stroke-linecap:round; stroke-linejoin:round;fill-rule:evenodd;"
d="M 6873.16,3645.63
6892.27,3648.47
6911,3653.16
6929.19,3659.67
6946.66,3667.93
6963.23,3677.86
6978.74,3689.37
6993.06,3702.34
7006.03,3716.65
7017.54,3732.17
7027.47,3748.74
7035.73,3766.2
7042.24,3784.39
7046.93,3803.13
7049.76,3822.24
7050.71,3841.54
7050.71,4235.24
7049.76,4254.53
7046.93,4273.64
7042.24,4292.38
7035.73,4310.57
7027.47,4328.03
7017.54,4344.6
7006.03,4360.12
6993.06,4374.43
6978.74,4387.4
6963.23,4398.91
6946.66,4408.84
6929.19,4417.1
6911,4423.61
6892.27,4428.3
6873.16,4431.14
6853.86,4432.09
6460.16,4432.09
6440.87,4431.14
6421.76,4428.3
6403.02,4423.61
6384.83,4417.1
6367.37,4408.84
6350.8,4398.91
6335.28,4387.4
6320.97,4374.43
6307.99,4360.12
6296.49,4344.6
6286.55,4328.03
6278.29,4310.57
6271.79,4292.38
6267.09,4273.64
6264.26,4254.53
6263.31,4235.24
6263.31,3841.54
6264.26,3822.24
6267.09,3803.13
6271.79,3784.39
6278.29,3766.2
6286.55,3748.74
6296.49,3732.17
6307.99,3716.65
6320.97,3702.34
6335.28,3689.37
6350.8,3677.86
6367.37,3667.93
6384.83,3659.67
6403.02,3653.16
6421.76,3648.47
6440.87,3645.63
6460.16,3644.69
6853.86,3644.69
Z" /> 
<path style="fill:#000000; fill-opacity:1.0; 
stroke:#000000; stroke-width:0; stroke-opacity:1; 
stroke-linecap:round; stroke-linejoin:round;fill-rule:evenodd;"
d="M 6873.16,4645.63
6892.27,4648.47
6911,4653.16
6929.19,4659.67
6946.66,4667.93
6963.23,4677.86
6978.74,4689.37
6993.06,4702.34
7006.03,4716.65
7017.54,4732.17
7027.47,4748.74
7035.73,4766.2
7042.24,4784.39
7046.93,4803.13
7049.76,4822.24
7050.71,4841.54
7050.71,5235.24
7049.76,5254.53
7046.93,5273.64
7042.24,5292.38
7035.73,5310.57
7027.47,5328.03
7017.54,5344.6
7006.03,5360.12
6993.06,5374.43
6978.74,5387.4
6963.23,5398.91
6946.66,5408.84
6929.19,5417.1
6911,5423.61
6892.27,5428.3
6873.16,5431.14
6853.86,5432.09
6460.16,5432.09
6440.87,5431.14
6421.76,5428.3
6403.02,5423.61
6384.83,5417.1
6367.37,5408.84
6350.8,5398.91
6335.28,5387.4
6320.97,5374.43
6307.99,5360.12
6296.49,5344.6
6286.55,5328.03
6278.29,5310.57
6271.79,5292.38
6267.09,5273.64
6264.26,5254.53
6263.31,5235.24
6263.31,4841.54
6264.26,4822.24
6267.09,4803.13
6271.79,4784.39
6278.29,4766.2
6286.55,4748.74
6296.49,4732.17
6307.99,4716.65
6320.97,4702.34
6335.28,4689.37
6350.8,4677.86
6367.37,4667.93
6384.83,4659.67
6403.02,4653.16
6421.76,4648.47
6440.87,4645.63
6460.16,4644.69
6853.86,4644.69
Z" /> 
<path style="fill:#000000; fill-opacity:1.0; 
stroke:#000000; stroke-width:0; stroke-opacity:1; 
stroke-linecap:round; stroke-linejoin:round;fill-rule:evenodd;"
d="M 3873.16,4645.63
3892.27,4648.47
3911,4653.16
3929.19,4659.67
3946.66,4667.93
3963.23,4677.86
3978.74,4689.37
3993.06,4702.34
4006.03,4716.65
4017.54,4732.17
4027.47,4748.74
4035.73,4766.2
4042.24,4784.39
4046.93,4803.13
4049.76,4822.24
4050.71,4841.54
4050.71,5235.24
4049.76,5254.53
4046.93,5273.64
4042.24,5292.38
4035.73,5310.57
4027.47,5328.03
4017.54,5344.6
4006.03,5360.12
3993.06,5374.43
3978.74,5387.4
3963.23,5398.91
3946.66,5408.84
3929.19,5417.1
3911,5423.61
3892.27,5428.3
3873.16,5431.14
3853.86,5432.09
3460.16,5432.09
3440.87,5431.14
3421.76,5428.3
3403.02,5423.61
3384.83,5417.1
3367.37,5408.84
3350.8,5398.91
3335.28,5387.4
3320.97,5374.43
3307.99,5360.12
3296.49,5344.6
3286.55,5328.03
3278.29,5310.57
3271.79,5292.38
3267.09,5273.64
3264.26,5254.53
3263.31,5235.24
3263.31,4841.54
3264.26,4822.24
3267.09,4803.13
3271.79,4784.39
3278.29,4766.2
3286.55,4748.74
3296.49,4732.17
3307.99,4716.65
3320.97,4702.34
3335.28,4689.37
3350.8,4677.86
3367.37,4667.93
3384.83,4659.67
3403.02,4653.16
3421.76,4648.47
3440.87,4645.63
3460.16,4644.69
3853.86,4644.69
Z" /> 
<path style="fill:#000000; fill-opacity:1.0; 
stroke:#000000; stroke-width:0; stroke-opacity:1; 
stroke-linecap:round; stroke-linejoin:round;fill-rule:evenodd;"
d="M 3873.16,3645.63
3892.27,3648.47
3911,3653.16
3929.19,3659.67
3946.66,3667.93
3963.23,3677.86
3978.74,3689.37
3993.06,3702.34
4006.03,3716.65
4017.54,3732.17
4027.47,3748.74
4035.73,3766.2
4042.24,3784.39
4046.93,3803.13
4049.76,3822.24
4050.71,3841.54
4050.71,4235.24
4049.76,4254.53
4046.93,4273.64
4042.24,4292.38
4035.73,4310.57
4027.47,4328.03
4017.54,4344.6
4006.03,4360.12
3993.06,4374.43
3978.74,4387.4
3963.23,4398.91
3946.66,4408.84
3929.19,4417.1
3911,4423.61
3892.27,4428.3
3873.16,4431.14
3853.86,4432.09
3460.16,4432.09
3440.87,4431.14
3421.76,4428.3
3403.02,4423.61
3384.83,4417.1
3367.37,4408.84
3350.8,4398.91
3335.28,4387.4
3320.97,4374.43
3307.99,4360.12
3296.49,4344.6
3286.55,4328.03
3278.29,4310.57
3271.79,4292.38
3267.09,4273.64
3264.26,4254.53
3263.31,4235.24
3263.31,3841.54
3264.26,3822.24
3267.09,3803.13
3271.79,3784.39
3278.29,3766.2
3286.55,3748.74
3296.49,3732.17
3307.99,3716.65
3320.97,3702.34
3335.28,3689.37
3350.8,3677.86
3367.37,3667.93
3384.83,3659.67
3403.02,3653.16
3421.76,3648.47
3440.87,3645.63
3460.16,3644.69
3853.86,3644.69
Z" /> 
</g>
<g >
</g>
<g >
</g>
<g >
</g>
</g>
<g style="fill:#000000; fill-opacity:1.0; 
stroke:#000000; stroke-width:0; stroke-opacity:1; 
stroke-linecap:round; stroke-linejoin:round;">
</g>
<g style="fill:#000000; fill-opacity:1.0; 
stroke:#000000; stroke-width:19.685; stroke-opacity:1; 
stroke-linecap:round; stroke-linejoin:round;">
</g>
<g style="fill:#000000; fill-opacity:0.0; 
stroke:#000000; stroke-width:19.685; stroke-opacity:1; 
stroke-linecap:round; stroke-linejoin:round;">
<path d="M1810 6794
L1810 5613
" />
<path d="M1810 1282
L1810 2463
" />
<path d="M17952 5613
L17952 6794
" />
<path d="M17952 1282
L17952 2463
" />
<path d="M17952.3 5613.19 A1587.06 1587.06 0.0 0 0 17952.3 2463.58" />
<path d="M1810.55 2463.58 A1587.06 1587.06 0.0 0 0 1810.56 5613.19" />
<path d="M17164 7581
L2597 7581
" />
<path d="M2597 495
L17164 495
" />
<path d="M17952.3 1282.48 A787.402 787.402 0.0 0 0 17164.9 495.079" />
<path d="M17164.9 7581.69 A787.402 787.402 0.0 0 0 17952.3 6794.29" />
<path d="M1810.55 6794.29 A787.402 787.402 0.0 0 0 2597.96 7581.69" />
<path d="M2597.96 495.079 A787.402 787.402 0.0 0 0 1810.55 1282.48" />
<g >
</g>
<g >
</g>
<g >
</g>
<g >
</g>
<g >
</g>
<g >
</g>
<g >
</g>
<g >
</g>
<g >
</g>
<g >
</g>
<g >
</g>
<g >
</g>
<g >
</g>
<g >
</g>
<g >
</g>
<g >
</g>
<g >
</g>
<g >
</g>
<g >
</g>
</g> 
</svg>
