<?xml version="1.0" standalone="no"?>
 <!DOCTYPE svg PUBLIC "-//W3C//DTD SVG 1.1//EN" 
 "http://www.w3.org/Graphics/SVG/1.1/DTD/svg11.dtd"> 
<svg
  xmlns:svg="http://www.w3.org/2000/svg"
  xmlns="http://www.w3.org/2000/svg"
  xmlns:xlink="http://www.w3.org/1999/xlink"
  version="1.1"
  width="5.019040cm" height="2.024380cm" viewBox="0 0 19760 7970">
<title>SVG Picture created as tone_block-F_Cu.svg date 2021/09/10 18:00:40 </title>
  <desc>Picture generated by PCBNEW </desc>
<g style="fill:#000000; fill-opacity:1;stroke:#000000; stroke-opacity:1;
stroke-linecap:round; stroke-linejoin:round;"
 transform="translate(0 0) scale(1 1)">
</g>
<g style="fill:#000000; fill-opacity:0.0; 
stroke:#000000; stroke-width:-0.000393701; stroke-opacity:1; 
stroke-linecap:round; stroke-linejoin:round;">
<g >
</g>
<g >
</g>
<g >
</g>
<g style="fill:#000000; fill-opacity:0.0; 
stroke:#000000; stroke-width:-0.000393701; stroke-opacity:1; 
stroke-linecap:round; stroke-linejoin:round;">
</g>
<g style="fill:#000000; fill-opacity:1.0; 
stroke:#000000; stroke-width:0; stroke-opacity:1; 
stroke-linecap:round; stroke-linejoin:round;">
<circle cx="7849.92" cy="5597.44" r="334.646" /> 
<circle cx="7849.92" cy="6597.44" r="334.646" /> 
<circle cx="8849.92" cy="5597.44" r="334.646" /> 
<circle cx="8849.92" cy="6597.44" r="334.646" /> 
<circle cx="9849.92" cy="5597.44" r="334.646" /> 
<circle cx="9849.92" cy="6597.44" r="334.646" /> 
<circle cx="10849.9" cy="5597.44" r="334.646" /> 
<circle cx="10849.9" cy="6597.44" r="334.646" /> 
<circle cx="11849.9" cy="5597.44" r="334.646" /> 
<path style="fill:#000000; fill-opacity:1.0; 
stroke:#000000; stroke-width:0; stroke-opacity:1; 
stroke-linecap:round; stroke-linejoin:round;fill-rule:evenodd;"
d="M 12184.6,6932.09
11515.3,6932.09
11515.3,6262.8
12184.6,6262.8
Z" /> 
</g>
<g >
</g>
<g >
</g>
<g >
</g>
<g >
</g>
<g >
</g>
<g >
</g>
<g >
</g>
<g style="fill:#000000; fill-opacity:1.0; 
stroke:#000000; stroke-width:0; stroke-opacity:1; 
stroke-linecap:round; stroke-linejoin:round;">
<circle cx="10865.7" cy="2660.43" r="393.701" /> 
</g>
<g style="fill:#000000; fill-opacity:1.0; 
stroke:#000000; stroke-width:39.3701; stroke-opacity:1; 
stroke-linecap:round; stroke-linejoin:round;">
</g>
<g style="fill:#000000; fill-opacity:1.0; 
stroke:#000000; stroke-width:0; stroke-opacity:1; 
stroke-linecap:round; stroke-linejoin:round;">
<circle cx="8897.17" cy="2660.43" r="393.701" /> 
</g>
<g style="fill:#000000; fill-opacity:1.0; 
stroke:#000000; stroke-width:39.3701; stroke-opacity:1; 
stroke-linecap:round; stroke-linejoin:round;">
</g>
<g >
</g>
<g >
</g>
<g >
</g>
<g >
</g>
<g >
</g>
<g >
</g>
<g >
</g>
<g style="fill:#000000; fill-opacity:1.0; 
stroke:#000000; stroke-width:39.3701; stroke-opacity:1; 
stroke-linecap:round; stroke-linejoin:round;">
</g>
<g style="fill:#000000; fill-opacity:1.0; 
stroke:#000000; stroke-width:0; stroke-opacity:1; 
stroke-linecap:round; stroke-linejoin:round;">
<path style="fill:#000000; fill-opacity:1.0; 
stroke:#000000; stroke-width:0; stroke-opacity:1; 
stroke-linecap:round; stroke-linejoin:round;fill-rule:evenodd;"
d="M 12712.1,3432.09
12712.1,2644.69
13499.5,2644.69
13499.5,3432.09
Z" /> 
<path style="fill:#000000; fill-opacity:1.0; 
stroke:#000000; stroke-width:0; stroke-opacity:1; 
stroke-linecap:round; stroke-linejoin:round;fill-rule:evenodd;"
d="M 16322,2645.63
16341.1,2648.47
16359.8,2653.16
16378,2659.67
16395.5,2667.93
16412,2677.86
16427.6,2689.37
16441.9,2702.34
16454.8,2716.65
16466.4,2732.17
16476.3,2748.74
16484.5,2766.2
16491.1,2784.39
16495.7,2803.13
16498.6,2822.24
16499.5,2841.54
16499.5,3235.24
16498.6,3254.53
16495.7,3273.64
16491.1,3292.38
16484.5,3310.57
16476.3,3328.03
16466.4,3344.6
16454.8,3360.12
16441.9,3374.43
16427.6,3387.4
16412,3398.91
16395.5,3408.84
16378,3417.1
16359.8,3423.61
16341.1,3428.3
16322,3431.14
16302.7,3432.09
15909,3432.09
15889.7,3431.14
15870.6,3428.3
15851.8,3423.61
15833.6,3417.1
15816.2,3408.84
15799.6,3398.91
15784.1,3387.4
15769.8,3374.43
15756.8,3360.12
15745.3,3344.6
15735.4,3328.03
15727.1,3310.57
15720.6,3292.38
15715.9,3273.64
15713.1,3254.53
15712.1,3235.24
15712.1,2841.54
15713.1,2822.24
15715.9,2803.13
15720.6,2784.39
15727.1,2766.2
15735.4,2748.74
15745.3,2732.17
15756.8,2716.65
15769.8,2702.34
15784.1,2689.37
15799.6,2677.86
15816.2,2667.93
15833.6,2659.67
15851.8,2653.16
15870.6,2648.47
15889.7,2645.63
15909,2644.69
16302.7,2644.69
Z" /> 
<path style="fill:#000000; fill-opacity:1.0; 
stroke:#000000; stroke-width:0; stroke-opacity:1; 
stroke-linecap:round; stroke-linejoin:round;fill-rule:evenodd;"
d="M 16322,3645.63
16341.1,3648.47
16359.8,3653.16
16378,3659.67
16395.5,3667.93
16412,3677.86
16427.6,3689.37
16441.9,3702.34
16454.8,3716.65
16466.4,3732.17
16476.3,3748.74
16484.5,3766.2
16491.1,3784.39
16495.7,3803.13
16498.6,3822.24
16499.5,3841.54
16499.5,4235.24
16498.6,4254.53
16495.7,4273.64
16491.1,4292.38
16484.5,4310.57
16476.3,4328.03
16466.4,4344.6
16454.8,4360.12
16441.9,4374.43
16427.6,4387.4
16412,4398.91
16395.5,4408.84
16378,4417.1
16359.8,4423.61
16341.1,4428.3
16322,4431.14
16302.7,4432.09
15909,4432.09
15889.7,4431.14
15870.6,4428.3
15851.8,4423.61
15833.6,4417.1
15816.2,4408.84
15799.6,4398.91
15784.1,4387.4
15769.8,4374.43
15756.8,4360.12
15745.3,4344.6
15735.4,4328.03
15727.1,4310.57
15720.6,4292.38
15715.9,4273.64
15713.1,4254.53
15712.1,4235.24
15712.1,3841.54
15713.1,3822.24
15715.9,3803.13
15720.6,3784.39
15727.1,3766.2
15735.4,3748.74
15745.3,3732.17
15756.8,3716.65
15769.8,3702.34
15784.1,3689.37
15799.6,3677.86
15816.2,3667.93
15833.6,3659.67
15851.8,3653.16
15870.6,3648.47
15889.7,3645.63
15909,3644.69
16302.7,3644.69
Z" /> 
<path style="fill:#000000; fill-opacity:1.0; 
stroke:#000000; stroke-width:0; stroke-opacity:1; 
stroke-linecap:round; stroke-linejoin:round;fill-rule:evenodd;"
d="M 16322,4645.63
16341.1,4648.47
16359.8,4653.16
16378,4659.67
16395.5,4667.93
16412,4677.86
16427.6,4689.37
16441.9,4702.34
16454.8,4716.65
16466.4,4732.17
16476.3,4748.74
16484.5,4766.2
16491.1,4784.39
16495.7,4803.13
16498.6,4822.24
16499.5,4841.54
16499.5,5235.24
16498.6,5254.53
16495.7,5273.64
16491.1,5292.38
16484.5,5310.57
16476.3,5328.03
16466.4,5344.6
16454.8,5360.12
16441.9,5374.43
16427.6,5387.4
16412,5398.91
16395.5,5408.84
16378,5417.1
16359.8,5423.61
16341.1,5428.3
16322,5431.14
16302.7,5432.09
15909,5432.09
15889.7,5431.14
15870.6,5428.3
15851.8,5423.61
15833.6,5417.1
15816.2,5408.84
15799.6,5398.91
15784.1,5387.4
15769.8,5374.43
15756.8,5360.12
15745.3,5344.6
15735.4,5328.03
15727.1,5310.57
15720.6,5292.38
15715.9,5273.64
15713.1,5254.53
15712.1,5235.24
15712.1,4841.54
15713.1,4822.24
15715.9,4803.13
15720.6,4784.39
15727.1,4766.2
15735.4,4748.74
15745.3,4732.17
15756.8,4716.65
15769.8,4702.34
15784.1,4689.37
15799.6,4677.86
15816.2,4667.93
15833.6,4659.67
15851.8,4653.16
15870.6,4648.47
15889.7,4645.63
15909,4644.69
16302.7,4644.69
Z" /> 
<path style="fill:#000000; fill-opacity:1.0; 
stroke:#000000; stroke-width:0; stroke-opacity:1; 
stroke-linecap:round; stroke-linejoin:round;fill-rule:evenodd;"
d="M 13322,4645.63
13341.1,4648.47
13359.8,4653.16
13378,4659.67
13395.5,4667.93
13412,4677.86
13427.6,4689.37
13441.9,4702.34
13454.8,4716.65
13466.4,4732.17
13476.3,4748.74
13484.5,4766.2
13491.1,4784.39
13495.7,4803.13
13498.6,4822.24
13499.5,4841.54
13499.5,5235.24
13498.6,5254.53
13495.7,5273.64
13491.1,5292.38
13484.5,5310.57
13476.3,5328.03
13466.4,5344.6
13454.8,5360.12
13441.9,5374.43
13427.6,5387.4
13412,5398.91
13395.5,5408.84
13378,5417.1
13359.8,5423.61
13341.1,5428.3
13322,5431.14
13302.7,5432.09
12909,5432.09
12889.7,5431.14
12870.6,5428.3
12851.8,5423.61
12833.6,5417.1
12816.2,5408.84
12799.6,5398.91
12784.1,5387.4
12769.8,5374.43
12756.8,5360.12
12745.3,5344.6
12735.4,5328.03
12727.1,5310.57
12720.6,5292.38
12715.9,5273.64
12713.1,5254.53
12712.1,5235.24
12712.1,4841.54
12713.1,4822.24
12715.9,4803.13
12720.6,4784.39
12727.1,4766.2
12735.4,4748.74
12745.3,4732.17
12756.8,4716.65
12769.8,4702.34
12784.1,4689.37
12799.6,4677.86
12816.2,4667.93
12833.6,4659.67
12851.8,4653.16
12870.6,4648.47
12889.7,4645.63
12909,4644.69
13302.7,4644.69
Z" /> 
<path style="fill:#000000; fill-opacity:1.0; 
stroke:#000000; stroke-width:0; stroke-opacity:1; 
stroke-linecap:round; stroke-linejoin:round;fill-rule:evenodd;"
d="M 13322,3645.63
13341.1,3648.47
13359.8,3653.16
13378,3659.67
13395.5,3667.93
13412,3677.86
13427.6,3689.37
13441.9,3702.34
13454.8,3716.65
13466.4,3732.17
13476.3,3748.74
13484.5,3766.2
13491.1,3784.39
13495.7,3803.13
13498.6,3822.24
13499.5,3841.54
13499.5,4235.24
13498.6,4254.53
13495.7,4273.64
13491.1,4292.38
13484.5,4310.57
13476.3,4328.03
13466.4,4344.6
13454.8,4360.12
13441.9,4374.43
13427.6,4387.4
13412,4398.91
13395.5,4408.84
13378,4417.1
13359.8,4423.61
13341.1,4428.3
13322,4431.14
13302.7,4432.09
12909,4432.09
12889.7,4431.14
12870.6,4428.3
12851.8,4423.61
12833.6,4417.1
12816.2,4408.84
12799.6,4398.91
12784.1,4387.4
12769.8,4374.43
12756.8,4360.12
12745.3,4344.6
12735.4,4328.03
12727.1,4310.57
12720.6,4292.38
12715.9,4273.64
12713.1,4254.53
12712.1,4235.24
12712.1,3841.54
12713.1,3822.24
12715.9,3803.13
12720.6,3784.39
12727.1,3766.2
12735.4,3748.74
12745.3,3732.17
12756.8,3716.65
12769.8,3702.34
12784.1,3689.37
12799.6,3677.86
12816.2,3667.93
12833.6,3659.67
12851.8,3653.16
12870.6,3648.47
12889.7,3645.63
12909,3644.69
13302.7,3644.69
Z" /> 
</g>
<g >
</g>
<g style="fill:#000000; fill-opacity:1.0; 
stroke:#000000; stroke-width:0; stroke-opacity:1; 
stroke-linecap:round; stroke-linejoin:round;">
<path style="fill:#000000; fill-opacity:1.0; 
stroke:#000000; stroke-width:0; stroke-opacity:1; 
stroke-linecap:round; stroke-linejoin:round;fill-rule:evenodd;"
d="M 3263.31,3432.09
3263.31,2644.69
4050.71,2644.69
4050.71,3432.09
Z" /> 
<path style="fill:#000000; fill-opacity:1.0; 
stroke:#000000; stroke-width:0; stroke-opacity:1; 
stroke-linecap:round; stroke-linejoin:round;fill-rule:evenodd;"
d="M 6873.16,2645.63
6892.27,2648.47
6911,2653.16
6929.19,2659.67
6946.66,2667.93
6963.23,2677.86
6978.74,2689.37
6993.06,2702.34
7006.03,2716.65
7017.54,2732.17
7027.47,2748.74
7035.73,2766.2
7042.24,2784.39
7046.93,2803.13
7049.76,2822.24
7050.71,2841.54
7050.71,3235.24
7049.76,3254.53
7046.93,3273.64
7042.24,3292.38
7035.73,3310.57
7027.47,3328.03
7017.54,3344.6
7006.03,3360.12
6993.06,3374.43
6978.74,3387.4
6963.23,3398.91
6946.66,3408.84
6929.19,3417.1
6911,3423.61
6892.27,3428.3
6873.16,3431.14
6853.86,3432.09
6460.16,3432.09
6440.87,3431.14
6421.76,3428.3
6403.02,3423.61
6384.83,3417.1
6367.37,3408.84
6350.8,3398.91
6335.28,3387.4
6320.97,3374.43
6307.99,3360.12
6296.49,3344.6
6286.55,3328.03
6278.29,3310.57
6271.79,3292.38
6267.09,3273.64
6264.26,3254.53
6263.31,3235.24
6263.31,2841.54
6264.26,2822.24
6267.09,2803.13
6271.79,2784.39
6278.29,2766.2
6286.55,2748.74
6296.49,2732.17
6307.99,2716.65
6320.97,2702.34
6335.28,2689.37
6350.8,2677.86
6367.37,2667.93
6384.83,2659.67
6403.02,2653.16
6421.76,2648.47
6440.87,2645.63
6460.16,2644.69
6853.86,2644.69
Z" /> 
<path style="fill:#000000; fill-opacity:1.0; 
stroke:#000000; stroke-width:0; stroke-opacity:1; 
stroke-linecap:round; stroke-linejoin:round;fill-rule:evenodd;"
d="M 6873.16,3645.63
6892.27,3648.47
6911,3653.16
6929.19,3659.67
6946.66,3667.93
6963.23,3677.86
6978.74,3689.37
6993.06,3702.34
7006.03,3716.65
7017.54,3732.17
7027.47,3748.74
7035.73,3766.2
7042.24,3784.39
7046.93,3803.13
7049.76,3822.24
7050.71,3841.54
7050.71,4235.24
7049.76,4254.53
7046.93,4273.64
7042.24,4292.38
7035.73,4310.57
7027.47,4328.03
7017.54,4344.6
7006.03,4360.12
6993.06,4374.43
6978.74,4387.4
6963.23,4398.91
6946.66,4408.84
6929.19,4417.1
6911,4423.61
6892.27,4428.3
6873.16,4431.14
6853.86,4432.09
6460.16,4432.09
6440.87,4431.14
6421.76,4428.3
6403.02,4423.61
6384.83,4417.1
6367.37,4408.84
6350.8,4398.91
6335.28,4387.4
6320.97,4374.43
6307.99,4360.12
6296.49,4344.6
6286.55,4328.03
6278.29,4310.57
6271.79,4292.38
6267.09,4273.64
6264.26,4254.53
6263.31,4235.24
6263.31,3841.54
6264.26,3822.24
6267.09,3803.13
6271.79,3784.39
6278.29,3766.2
6286.55,3748.74
6296.49,3732.17
6307.99,3716.65
6320.97,3702.34
6335.28,3689.37
6350.8,3677.86
6367.37,3667.93
6384.83,3659.67
6403.02,3653.16
6421.76,3648.47
6440.87,3645.63
6460.16,3644.69
6853.86,3644.69
Z" /> 
<path style="fill:#000000; fill-opacity:1.0; 
stroke:#000000; stroke-width:0; stroke-opacity:1; 
stroke-linecap:round; stroke-linejoin:round;fill-rule:evenodd;"
d="M 6873.16,4645.63
6892.27,4648.47
6911,4653.16
6929.19,4659.67
6946.66,4667.93
6963.23,4677.86
6978.74,4689.37
6993.06,4702.34
7006.03,4716.65
7017.54,4732.17
7027.47,4748.74
7035.73,4766.2
7042.24,4784.39
7046.93,4803.13
7049.76,4822.24
7050.71,4841.54
7050.71,5235.24
7049.76,5254.53
7046.93,5273.64
7042.24,5292.38
7035.73,5310.57
7027.47,5328.03
7017.54,5344.6
7006.03,5360.12
6993.06,5374.43
6978.74,5387.4
6963.23,5398.91
6946.66,5408.84
6929.19,5417.1
6911,5423.61
6892.27,5428.3
6873.16,5431.14
6853.86,5432.09
6460.16,5432.09
6440.87,5431.14
6421.76,5428.3
6403.02,5423.61
6384.83,5417.1
6367.37,5408.84
6350.8,5398.91
6335.28,5387.4
6320.97,5374.43
6307.99,5360.12
6296.49,5344.6
6286.55,5328.03
6278.29,5310.57
6271.79,5292.38
6267.09,5273.64
6264.26,5254.53
6263.31,5235.24
6263.31,4841.54
6264.26,4822.24
6267.09,4803.13
6271.79,4784.39
6278.29,4766.2
6286.55,4748.74
6296.49,4732.17
6307.99,4716.65
6320.97,4702.34
6335.28,4689.37
6350.8,4677.86
6367.37,4667.93
6384.83,4659.67
6403.02,4653.16
6421.76,4648.47
6440.87,4645.63
6460.16,4644.69
6853.86,4644.69
Z" /> 
<path style="fill:#000000; fill-opacity:1.0; 
stroke:#000000; stroke-width:0; stroke-opacity:1; 
stroke-linecap:round; stroke-linejoin:round;fill-rule:evenodd;"
d="M 3873.16,4645.63
3892.27,4648.47
3911,4653.16
3929.19,4659.67
3946.66,4667.93
3963.23,4677.86
3978.74,4689.37
3993.06,4702.34
4006.03,4716.65
4017.54,4732.17
4027.47,4748.74
4035.73,4766.2
4042.24,4784.39
4046.93,4803.13
4049.76,4822.24
4050.71,4841.54
4050.71,5235.24
4049.76,5254.53
4046.93,5273.64
4042.24,5292.38
4035.73,5310.57
4027.47,5328.03
4017.54,5344.6
4006.03,5360.12
3993.06,5374.43
3978.74,5387.4
3963.23,5398.91
3946.66,5408.84
3929.19,5417.1
3911,5423.61
3892.27,5428.3
3873.16,5431.14
3853.86,5432.09
3460.16,5432.09
3440.87,5431.14
3421.76,5428.3
3403.02,5423.61
3384.83,5417.1
3367.37,5408.84
3350.8,5398.91
3335.28,5387.4
3320.97,5374.43
3307.99,5360.12
3296.49,5344.6
3286.55,5328.03
3278.29,5310.57
3271.79,5292.38
3267.09,5273.64
3264.26,5254.53
3263.31,5235.24
3263.31,4841.54
3264.26,4822.24
3267.09,4803.13
3271.79,4784.39
3278.29,4766.2
3286.55,4748.74
3296.49,4732.17
3307.99,4716.65
3320.97,4702.34
3335.28,4689.37
3350.8,4677.86
3367.37,4667.93
3384.83,4659.67
3403.02,4653.16
3421.76,4648.47
3440.87,4645.63
3460.16,4644.69
3853.86,4644.69
Z" /> 
<path style="fill:#000000; fill-opacity:1.0; 
stroke:#000000; stroke-width:0; stroke-opacity:1; 
stroke-linecap:round; stroke-linejoin:round;fill-rule:evenodd;"
d="M 3873.16,3645.63
3892.27,3648.47
3911,3653.16
3929.19,3659.67
3946.66,3667.93
3963.23,3677.86
3978.74,3689.37
3993.06,3702.34
4006.03,3716.65
4017.54,3732.17
4027.47,3748.74
4035.73,3766.2
4042.24,3784.39
4046.93,3803.13
4049.76,3822.24
4050.71,3841.54
4050.71,4235.24
4049.76,4254.53
4046.93,4273.64
4042.24,4292.38
4035.73,4310.57
4027.47,4328.03
4017.54,4344.6
4006.03,4360.12
3993.06,4374.43
3978.74,4387.4
3963.23,4398.91
3946.66,4408.84
3929.19,4417.1
3911,4423.61
3892.27,4428.3
3873.16,4431.14
3853.86,4432.09
3460.16,4432.09
3440.87,4431.14
3421.76,4428.3
3403.02,4423.61
3384.83,4417.1
3367.37,4408.84
3350.8,4398.91
3335.28,4387.4
3320.97,4374.43
3307.99,4360.12
3296.49,4344.6
3286.55,4328.03
3278.29,4310.57
3271.79,4292.38
3267.09,4273.64
3264.26,4254.53
3263.31,4235.24
3263.31,3841.54
3264.26,3822.24
3267.09,3803.13
3271.79,3784.39
3278.29,3766.2
3286.55,3748.74
3296.49,3732.17
3307.99,3716.65
3320.97,3702.34
3335.28,3689.37
3350.8,3677.86
3367.37,3667.93
3384.83,3659.67
3403.02,3653.16
3421.76,3648.47
3440.87,3645.63
3460.16,3644.69
3853.86,3644.69
Z" /> 
</g>
<g >
</g>
<g >
</g>
<g style="fill:#000000; fill-opacity:1.0; 
stroke:#000000; stroke-width:0; stroke-opacity:1; 
stroke-linecap:round; stroke-linejoin:round;">
</g>
<g style="fill:#000000; fill-opacity:1.0; 
stroke:#000000; stroke-width:78.7402; stroke-opacity:1; 
stroke-linecap:round; stroke-linejoin:round;">
</g>
<g style="fill:#000000; fill-opacity:0.0; 
stroke:#000000; stroke-width:78.7402; stroke-opacity:1; 
stroke-linecap:round; stroke-linejoin:round;">
<path d="M3657 4038
L6657 4038
" />
<path d="M9849 6597
L9397 6144
" />
<path d="M8897 3841
L9397 4341
" />
<path d="M8897 2660
L8897 3841
" />
<path d="M9397 4341
L9397 4325
" />
<path d="M9397 6144
L9397 4341
" />
<path d="M10865 2857
L10865 2660
" />
<path d="M13105 4038
L16105 4038
" />
<path d="M12243 4038
L10865 2660
" />
<path d="M13105 4038
L12243 4038
" />
</g>
<g >
</g>
<g style="fill:#000000; fill-opacity:0.0; 
stroke:#000000; stroke-width:78.7402; stroke-opacity:1; 
stroke-linecap:round; stroke-linejoin:round;">
<g >
</g>
<g style="fill:#000000; fill-opacity:1.0; 
stroke:#000000; stroke-width:100; stroke-opacity:1; 
stroke-linecap:round; stroke-linejoin:round;">
<path style="fill:#000000; fill-opacity:1.0; 
stroke:#000000; stroke-width:100; stroke-opacity:1; 
stroke-linecap:round; stroke-linejoin:round;fill-rule:evenodd;"
d="M 17267.1,766.191
17365.4,795.88
17456.1,844.103
17535.7,909.024
17601.2,988.169
17650.1,1078.53
17680.4,1176.65
17692.4,1290.78
17692.4,2476.35
17696.2,2514.52
17711.1,2563.5
17735.2,2608.64
17767.7,2648.21
17807.2,2680.68
17852.4,2704.81
17901.3,2719.67
17910.8,2720.59
18172.3,2779.66
18408.9,2884.61
18620.5,3033.5
18799.2,3220.67
18938.2,3438.99
19032.1,3680.13
19077.4,3934.93
19072.3,4193.66
19017,4446.48
18913.8,4683.76
18766.3,4896.45
18580.4,5076.46
18363.1,5216.93
18120.2,5313.46
17913.3,5355.93
17901.3,5357.11
17852.4,5371.96
17807.2,5396.09
17767.7,5428.56
17735.2,5468.13
17711.1,5513.27
17696.2,5562.25
17692.4,5600.43
17692.4,6781.58
17681.2,6896.52
17651.5,6994.85
17603.3,7085.55
17538.3,7165.15
17459.2,7230.63
17368.8,7279.48
17270.7,7309.85
17156.6,7321.85
2610.66,7321.85
2495.73,7310.58
2397.39,7280.89
2306.7,7232.67
2227.1,7167.75
2161.62,7088.6
2112.77,6998.25
2082.39,6900.12
2070.4,6785.99
2070.4,5600.43
2066.64,5562.25
2051.78,5513.27
2027.65,5468.13
1995.18,5428.56
1955.61,5396.09
1910.47,5371.96
1861.49,5357.11
1852.07,5356.18
1590.51,5297.11
1353.96,5192.17
1142.3,5043.27
963.596,4856.1
824.647,4637.79
730.748,4396.64
685.478,4141.84
689.706,3926.52
871.578,3926.52
871.578,4150.26
915.228,4369.69
1000.85,4576.4
1125.15,4762.43
1283.36,4920.64
1469.39,5044.94
1676.1,5130.56
1895.54,5174.21
2119.27,5174.21
2338.71,5130.56
2545.42,5044.94
2731.45,4920.64
2889.66,4762.43
3013.96,4576.4
3067.64,4446.8
3087.61,4484.16
3132.11,4538.39
3087.61,4592.61
3046.21,4670.07
3020.71,4754.12
3012.1,4841.54
3012.1,5235.24
3020.71,5322.65
3046.21,5406.7
3087.61,5484.16
3143.34,5552.06
3211.23,5607.78
3288.7,5649.19
3372.75,5674.69
3460.16,5683.3
3853.86,5683.3
3941.27,5674.69
4025.33,5649.19
4102.79,5607.78
4170.69,5552.06
4226.41,5484.16
4267.81,5406.7
4293.31,5322.65
4301.92,5235.24
4301.92,4841.54
4293.31,4754.12
4267.81,4670.07
4226.41,4592.61
4181.91,4538.39
4226.41,4484.16
4267.81,4406.7
4291.76,4327.76
6022.26,4327.76
6046.21,4406.7
6087.61,4484.16
6132.11,4538.39
6087.61,4592.61
6046.21,4670.07
6020.71,4754.12
6012.1,4841.54
6012.1,5235.24
6020.71,5322.65
6046.21,5406.7
6087.61,5484.16
6143.34,5552.06
6211.23,5607.78
6288.7,5649.19
6372.75,5674.69
6460.16,5683.3
6853.86,5683.3
6941.27,5674.69
7025.33,5649.19
7102.79,5607.78
7170.69,5552.06
7180.7,5539.86
7265.28,5539.86
7265.28,5655.02
7287.75,5767.98
7331.82,5874.37
7395.8,5970.13
7477.24,6051.56
7545.89,6097.44
7477.24,6143.32
7395.8,6224.75
7331.82,6320.51
7287.75,6426.91
7265.28,6539.86
7265.28,6655.02
7287.75,6767.98
7331.82,6874.37
7395.8,6970.13
7477.24,7051.56
7572.99,7115.55
7679.39,7159.62
7792.34,7182.09
7907.51,7182.09
8020.46,7159.62
8126.86,7115.55
8222.61,7051.56
8304.05,6970.13
8368.03,6874.37
8412.1,6767.98
8434.57,6655.02
8434.57,6539.86
8412.1,6426.91
8368.03,6320.51
8304.05,6224.75
8222.61,6143.32
8153.96,6097.44
8222.61,6051.56
8304.05,5970.13
8368.03,5874.37
8412.1,5767.98
8434.57,5655.02
8434.57,5539.86
8412.1,5426.91
8368.03,5320.51
8304.05,5224.75
8222.61,5143.32
8126.86,5079.33
8020.46,5035.26
7907.51,5012.8
7792.34,5012.8
7679.39,5035.26
7572.99,5079.33
7477.24,5143.32
7395.8,5224.75
7331.82,5320.51
7287.75,5426.91
7265.28,5539.86
7180.7,5539.86
7226.41,5484.16
7267.81,5406.7
7293.31,5322.65
7301.92,5235.24
7301.92,4841.54
7293.31,4754.12
7267.81,4670.07
7226.41,4592.61
7181.91,4538.39
7226.41,4484.16
7267.81,4406.7
7293.31,4322.65
7301.92,4235.24
7301.92,3841.54
7293.31,3754.12
7267.81,3670.07
7226.41,3592.61
7181.91,3538.39
7226.41,3484.16
7267.81,3406.7
7293.31,3322.65
7301.92,3235.24
7301.92,2841.54
7293.31,2754.12
7267.81,2670.07
7228.78,2597.03
8253.47,2597.03
8253.47,2723.83
8278.21,2848.19
8326.73,2965.34
8397.17,3070.77
8486.83,3160.43
8592.26,3230.87
8607.8,3237.31
8607.8,3827.32
8606.4,3841.54
8611.99,3898.26
8625.26,3942.04
8628.53,3952.81
8655.4,4003.08
8691.56,4047.14
8702.61,4056.2
9107.8,4461.4
9107.8,6130.47
9106.4,6144.68
9107.8,6158.9
9111.99,6201.41
9128.53,6255.96
9155.4,6306.23
9191.56,6350.29
9202.6,6359.35
9284.83,6441.58
9265.28,6539.86
9265.28,6655.02
9287.75,6767.98
9331.82,6874.37
9395.8,6970.13
9477.24,7051.56
9572.99,7115.55
9679.39,7159.62
9792.34,7182.09
9907.51,7182.09
10020.5,7159.62
10126.9,7115.55
10222.6,7051.56
10304,6970.13
10349.9,6901.47
10395.8,6970.13
10477.2,7051.56
10573,7115.55
10679.4,7159.62
10792.3,7182.09
10907.5,7182.09
11020.5,7159.62
11126.9,7115.55
11222.6,7051.56
11304,6970.13
11368,6874.37
11412.1,6767.98
11434.6,6655.02
11434.6,6539.86
11412.1,6426.91
11368,6320.51
11304,6224.75
11222.6,6143.32
11154,6097.44
11222.6,6051.56
11304,5970.13
11349.9,5901.47
11395.8,5970.13
11477.2,6051.56
11573,6115.55
11679.4,6159.62
11792.3,6182.09
11907.5,6182.09
12020.5,6159.62
12126.9,6115.55
12222.6,6051.56
12304,5970.13
12368,5874.37
12412.1,5767.98
12434.6,5655.02
12434.6,5539.86
12412.1,5426.91
12368,5320.51
12304,5224.75
12222.6,5143.32
12126.9,5079.33
12020.5,5035.26
11907.5,5012.8
11792.3,5012.8
11679.4,5035.26
11573,5079.33
11477.2,5143.32
11395.8,5224.75
11349.9,5293.41
11304,5224.75
11222.6,5143.32
11126.9,5079.33
11020.5,5035.26
10907.5,5012.8
10792.3,5012.8
10679.4,5035.26
10573,5079.33
10477.2,5143.32
10395.8,5224.75
10349.9,5293.41
10304,5224.75
10222.6,5143.32
10126.9,5079.33
10020.5,5035.26
9907.51,5012.8
9792.34,5012.8
9686.54,5033.84
9686.54,4355.75
9687.94,4341.54
9686.54,4327.32
9686.54,4311.57
9682.35,4269.06
9665.81,4214.52
9638.94,4164.24
9602.77,4120.18
9558.71,4084.02
9537.6,4072.74
9186.54,3721.67
9186.54,3237.31
9202.08,3230.87
9307.5,3160.43
9397.16,3070.77
9467.61,2965.34
9516.13,2848.19
9540.87,2723.83
9540.87,2597.03
10222,2597.03
10222,2723.83
10246.7,2848.19
10295.2,2965.34
10365.7,3070.77
10455.3,3160.43
10560.8,3230.87
10677.9,3279.4
10802.3,3304.13
10929.1,3304.13
11053.4,3279.4
11069,3272.96
12029,4232.95
12038,4243.99
12082.1,4280.15
12132.4,4307.02
12186.9,4323.57
12229.4,4327.76
12229.4,4327.76
12243.6,4329.16
12257.8,4327.76
12471.1,4327.76
12495,4406.7
12536.4,4484.16
12580.9,4538.39
12536.4,4592.61
12495,4670.07
12469.5,4754.12
12460.9,4841.54
12460.9,5235.24
12469.5,5322.65
12495,5406.7
12536.4,5484.16
12592.2,5552.06
12660.1,5607.78
12737.5,5649.19
12821.6,5674.69
12909,5683.3
13302.7,5683.3
13390.1,5674.69
13474.1,5649.19
13551.6,5607.78
13619.5,5552.06
13675.2,5484.16
13716.6,5406.7
13742.1,5322.65
13750.7,5235.24
13750.7,4841.54
13742.1,4754.12
13716.6,4670.07
13675.2,4592.61
13630.7,4538.39
13675.2,4484.16
13716.6,4406.7
13740.6,4327.76
15471.1,4327.76
15495,4406.7
15536.4,4484.16
15580.9,4538.39
15536.4,4592.61
15495,4670.07
15469.5,4754.12
15460.9,4841.54
15460.9,5235.24
15469.5,5322.65
15495,5406.7
15536.4,5484.16
15592.2,5552.06
15660.1,5607.78
15737.5,5649.19
15821.6,5674.69
15909,5683.3
16302.7,5683.3
16390.1,5674.69
16474.1,5649.19
16551.6,5607.78
16619.5,5552.06
16675.2,5484.16
16716.6,5406.7
16742.1,5322.65
16750.7,5235.24
16750.7,4841.54
16742.1,4754.12
16716.6,4670.07
16675.2,4592.61
16630.7,4538.39
16675.2,4484.16
16695.2,4446.8
16748.9,4576.4
16873.2,4762.43
17031.4,4920.64
17217.4,5044.94
17424.1,5130.56
17643.6,5174.21
17867.3,5174.21
18086.7,5130.56
18293.5,5044.94
18479.5,4920.64
18637.7,4762.43
18762,4576.4
18847.6,4369.69
18891.3,4150.26
18891.3,3926.52
18847.6,3707.08
18762,3500.37
18637.7,3314.34
18479.5,3156.13
18293.5,3031.83
18086.7,2946.21
17867.3,2902.56
17643.6,2902.56
17424.1,2946.21
17217.4,3031.83
17031.4,3156.13
16873.2,3314.34
16748.9,3500.37
16695.2,3629.97
16675.2,3592.61
16630.7,3538.39
16675.2,3484.16
16716.6,3406.7
16742.1,3322.65
16750.7,3235.24
16750.7,2841.54
16742.1,2754.12
16716.6,2670.07
16675.2,2592.61
16619.5,2524.71
16551.6,2468.99
16474.1,2427.58
16390.1,2402.09
16302.7,2393.48
15909,2393.48
15821.6,2402.09
15737.5,2427.58
15660.1,2468.99
15592.2,2524.71
15536.4,2592.61
15495,2670.07
15469.5,2754.12
15460.9,2841.54
15460.9,3235.24
15469.5,3322.65
15495,3406.7
15536.4,3484.16
15580.9,3538.39
15536.4,3592.61
15495,3670.07
15471.1,3749.02
13740.6,3749.02
13716.6,3670.07
13681.5,3604.4
13708.4,3571.65
13731.6,3528.22
13745.9,3481.1
13750.7,3432.09
13750.7,2644.69
13745.9,2595.68
13731.6,2548.55
13708.4,2505.12
13677.2,2467.05
13639.1,2435.81
13595.7,2412.6
13548.5,2398.3
13499.5,2393.48
12712.1,2393.48
12663.1,2398.3
12616,2412.6
12572.6,2435.81
12534.5,2467.05
12503.3,2505.12
12480,2548.55
12465.7,2595.68
12460.9,2644.69
12460.9,3432.09
12465.7,3481.1
12480,3528.22
12503.3,3571.65
12530.1,3604.4
12495,3670.07
12471.1,3749.02
12363.5,3749.02
11478.2,2863.73
11484.6,2848.19
11509.4,2723.83
11509.4,2597.03
11484.6,2472.67
11436.1,2355.53
11365.7,2250.1
11276,2160.44
11170.6,2089.99
11053.4,2041.47
10929.1,2016.73
10802.3,2016.73
10677.9,2041.47
10560.8,2089.99
10455.3,2160.44
10365.7,2250.1
10295.2,2355.53
10246.7,2472.67
10222,2597.03
9540.87,2597.03
9516.13,2472.67
9467.61,2355.53
9397.16,2250.1
9307.5,2160.44
9202.08,2089.99
9084.93,2041.47
8960.57,2016.73
8833.77,2016.73
8709.41,2041.47
8592.26,2089.99
8486.83,2160.44
8397.17,2250.1
8326.73,2355.53
8278.21,2472.67
8253.47,2597.03
7228.78,2597.03
7226.41,2592.61
7170.69,2524.71
7102.79,2468.99
7025.33,2427.58
6941.27,2402.09
6853.86,2393.48
6460.16,2393.48
6372.75,2402.09
6288.7,2427.58
6211.23,2468.99
6143.34,2524.71
6087.61,2592.61
6046.21,2670.07
6020.71,2754.12
6012.1,2841.54
6012.1,3235.24
6020.71,3322.65
6046.21,3406.7
6087.61,3484.16
6132.11,3538.39
6087.61,3592.61
6046.21,3670.07
6022.26,3749.02
4291.76,3749.02
4267.81,3670.07
4232.71,3604.4
4259.59,3571.65
4282.8,3528.22
4297.09,3481.1
4301.92,3432.09
4301.92,2644.69
4297.09,2595.68
4282.8,2548.55
4259.59,2505.12
4228.34,2467.05
4190.28,2435.81
4146.85,2412.6
4099.72,2398.3
4050.71,2393.48
3263.31,2393.48
3214.3,2398.3
3167.18,2412.6
3123.75,2435.81
3085.68,2467.05
3054.44,2505.12
3031.22,2548.55
3016.93,2595.68
3012.1,2644.69
3012.1,3432.09
3016.93,3481.1
3031.22,3528.22
3054.44,3571.65
3081.31,3604.4
3067.64,3629.97
3013.96,3500.37
2889.66,3314.34
2731.45,3156.13
2545.42,3031.83
2338.71,2946.21
2119.27,2902.56
1895.54,2902.56
1676.1,2946.21
1469.39,3031.83
1283.36,3156.13
1125.15,3314.34
1000.85,3500.37
915.228,3707.08
871.578,3926.52
689.706,3926.52
690.558,3883.11
745.797,3630.29
849.091,3393.01
996.504,3180.32
1182.42,3000.31
1399.76,2859.84
1642.64,2763.31
1849.52,2720.84
1861.49,2719.67
1910.47,2704.81
1955.61,2680.68
1995.18,2648.21
2027.65,2608.64
2051.78,2563.5
2066.64,2514.52
2070.4,2476.35
2070.4,1295.19
2081.67,1180.25
2111.36,1081.92
2159.58,991.224
2224.5,911.622
2303.65,846.147
2394,797.292
2492.13,766.917
2606.26,754.921
17152.2,754.921
Z" /> 
</g>
</g>
</g>
<g style="fill:#FFFFFF; fill-opacity:1.0; 
stroke:#FFFFFF; stroke-width:100; stroke-opacity:1; 
stroke-linecap:round; stroke-linejoin:round;">
</g>
<g style="fill:#FFFFFF; fill-opacity:1.0; 
stroke:#FFFFFF; stroke-width:0; stroke-opacity:1; 
stroke-linecap:round; stroke-linejoin:round;">
<circle cx="7849.92" cy="5597.44" r="196.85" /> 
</g>
<g style="fill:#FFFFFF; fill-opacity:1.0; 
stroke:#FFFFFF; stroke-width:39.3701; stroke-opacity:1; 
stroke-linecap:round; stroke-linejoin:round;">
</g>
<g style="fill:#FFFFFF; fill-opacity:1.0; 
stroke:#FFFFFF; stroke-width:0; stroke-opacity:1; 
stroke-linecap:round; stroke-linejoin:round;">
<circle cx="7849.92" cy="6597.44" r="196.85" /> 
</g>
<g style="fill:#FFFFFF; fill-opacity:1.0; 
stroke:#FFFFFF; stroke-width:39.3701; stroke-opacity:1; 
stroke-linecap:round; stroke-linejoin:round;">
</g>
<g style="fill:#FFFFFF; fill-opacity:1.0; 
stroke:#FFFFFF; stroke-width:0; stroke-opacity:1; 
stroke-linecap:round; stroke-linejoin:round;">
<circle cx="8849.92" cy="5597.44" r="196.85" /> 
</g>
<g style="fill:#FFFFFF; fill-opacity:1.0; 
stroke:#FFFFFF; stroke-width:39.3701; stroke-opacity:1; 
stroke-linecap:round; stroke-linejoin:round;">
</g>
<g style="fill:#FFFFFF; fill-opacity:1.0; 
stroke:#FFFFFF; stroke-width:0; stroke-opacity:1; 
stroke-linecap:round; stroke-linejoin:round;">
<circle cx="8849.92" cy="6597.44" r="196.85" /> 
</g>
<g style="fill:#FFFFFF; fill-opacity:1.0; 
stroke:#FFFFFF; stroke-width:39.3701; stroke-opacity:1; 
stroke-linecap:round; stroke-linejoin:round;">
</g>
<g style="fill:#FFFFFF; fill-opacity:1.0; 
stroke:#FFFFFF; stroke-width:0; stroke-opacity:1; 
stroke-linecap:round; stroke-linejoin:round;">
<circle cx="9849.92" cy="5597.44" r="196.85" /> 
</g>
<g style="fill:#FFFFFF; fill-opacity:1.0; 
stroke:#FFFFFF; stroke-width:39.3701; stroke-opacity:1; 
stroke-linecap:round; stroke-linejoin:round;">
</g>
<g style="fill:#FFFFFF; fill-opacity:1.0; 
stroke:#FFFFFF; stroke-width:0; stroke-opacity:1; 
stroke-linecap:round; stroke-linejoin:round;">
<circle cx="9849.92" cy="6597.44" r="196.85" /> 
</g>
<g style="fill:#FFFFFF; fill-opacity:1.0; 
stroke:#FFFFFF; stroke-width:39.3701; stroke-opacity:1; 
stroke-linecap:round; stroke-linejoin:round;">
</g>
<g style="fill:#FFFFFF; fill-opacity:1.0; 
stroke:#FFFFFF; stroke-width:0; stroke-opacity:1; 
stroke-linecap:round; stroke-linejoin:round;">
<circle cx="10849.9" cy="5597.44" r="196.85" /> 
</g>
<g style="fill:#FFFFFF; fill-opacity:1.0; 
stroke:#FFFFFF; stroke-width:39.3701; stroke-opacity:1; 
stroke-linecap:round; stroke-linejoin:round;">
</g>
<g style="fill:#FFFFFF; fill-opacity:1.0; 
stroke:#FFFFFF; stroke-width:0; stroke-opacity:1; 
stroke-linecap:round; stroke-linejoin:round;">
<circle cx="10849.9" cy="6597.44" r="196.85" /> 
</g>
<g style="fill:#FFFFFF; fill-opacity:1.0; 
stroke:#FFFFFF; stroke-width:39.3701; stroke-opacity:1; 
stroke-linecap:round; stroke-linejoin:round;">
</g>
<g style="fill:#FFFFFF; fill-opacity:1.0; 
stroke:#FFFFFF; stroke-width:0; stroke-opacity:1; 
stroke-linecap:round; stroke-linejoin:round;">
<circle cx="11849.9" cy="5597.44" r="196.85" /> 
</g>
<g style="fill:#FFFFFF; fill-opacity:1.0; 
stroke:#FFFFFF; stroke-width:39.3701; stroke-opacity:1; 
stroke-linecap:round; stroke-linejoin:round;">
</g>
<g style="fill:#FFFFFF; fill-opacity:1.0; 
stroke:#FFFFFF; stroke-width:0; stroke-opacity:1; 
stroke-linecap:round; stroke-linejoin:round;">
<circle cx="11849.9" cy="6597.44" r="196.85" /> 
</g>
<g style="fill:#FFFFFF; fill-opacity:1.0; 
stroke:#FFFFFF; stroke-width:39.3701; stroke-opacity:1; 
stroke-linecap:round; stroke-linejoin:round;">
</g>
<g style="fill:#FFFFFF; fill-opacity:1.0; 
stroke:#FFFFFF; stroke-width:0; stroke-opacity:1; 
stroke-linecap:round; stroke-linejoin:round;">
<circle cx="17755.4" cy="4038.39" r="885.827" /> 
</g>
<g style="fill:#FFFFFF; fill-opacity:1.0; 
stroke:#FFFFFF; stroke-width:39.3701; stroke-opacity:1; 
stroke-linecap:round; stroke-linejoin:round;">
</g>
<g style="fill:#FFFFFF; fill-opacity:1.0; 
stroke:#FFFFFF; stroke-width:0; stroke-opacity:1; 
stroke-linecap:round; stroke-linejoin:round;">
<circle cx="2007.41" cy="4038.39" r="885.827" /> 
</g>
<g style="fill:#FFFFFF; fill-opacity:1.0; 
stroke:#FFFFFF; stroke-width:39.3701; stroke-opacity:1; 
stroke-linecap:round; stroke-linejoin:round;">
</g>
<g style="fill:#FFFFFF; fill-opacity:1.0; 
stroke:#FFFFFF; stroke-width:0; stroke-opacity:1; 
stroke-linecap:round; stroke-linejoin:round;">
<circle cx="10865.7" cy="2660.43" r="157.48" /> 
</g>
<g style="fill:#FFFFFF; fill-opacity:1.0; 
stroke:#FFFFFF; stroke-width:39.3701; stroke-opacity:1; 
stroke-linecap:round; stroke-linejoin:round;">
</g>
<g style="fill:#FFFFFF; fill-opacity:1.0; 
stroke:#FFFFFF; stroke-width:0; stroke-opacity:1; 
stroke-linecap:round; stroke-linejoin:round;">
<circle cx="8897.17" cy="2660.43" r="157.48" /> 
</g>
<g style="fill:#FFFFFF; fill-opacity:1.0; 
stroke:#FFFFFF; stroke-width:39.3701; stroke-opacity:1; 
stroke-linecap:round; stroke-linejoin:round;">
</g>
<g style="fill:#FFFFFF; fill-opacity:1.0; 
stroke:#FFFFFF; stroke-width:0; stroke-opacity:1; 
stroke-linecap:round; stroke-linejoin:round;">
<circle cx="13105.8" cy="3038.39" r="157.48" /> 
</g>
<g style="fill:#FFFFFF; fill-opacity:1.0; 
stroke:#FFFFFF; stroke-width:39.3701; stroke-opacity:1; 
stroke-linecap:round; stroke-linejoin:round;">
</g>
<g style="fill:#FFFFFF; fill-opacity:1.0; 
stroke:#FFFFFF; stroke-width:0; stroke-opacity:1; 
stroke-linecap:round; stroke-linejoin:round;">
<circle cx="16105.8" cy="3038.39" r="157.48" /> 
</g>
<g style="fill:#FFFFFF; fill-opacity:1.0; 
stroke:#FFFFFF; stroke-width:39.3701; stroke-opacity:1; 
stroke-linecap:round; stroke-linejoin:round;">
</g>
<g style="fill:#FFFFFF; fill-opacity:1.0; 
stroke:#FFFFFF; stroke-width:0; stroke-opacity:1; 
stroke-linecap:round; stroke-linejoin:round;">
<circle cx="16105.8" cy="4038.39" r="157.48" /> 
</g>
<g style="fill:#FFFFFF; fill-opacity:1.0; 
stroke:#FFFFFF; stroke-width:39.3701; stroke-opacity:1; 
stroke-linecap:round; stroke-linejoin:round;">
</g>
<g style="fill:#FFFFFF; fill-opacity:1.0; 
stroke:#FFFFFF; stroke-width:0; stroke-opacity:1; 
stroke-linecap:round; stroke-linejoin:round;">
<circle cx="16105.8" cy="5038.39" r="157.48" /> 
</g>
<g style="fill:#FFFFFF; fill-opacity:1.0; 
stroke:#FFFFFF; stroke-width:39.3701; stroke-opacity:1; 
stroke-linecap:round; stroke-linejoin:round;">
</g>
<g style="fill:#FFFFFF; fill-opacity:1.0; 
stroke:#FFFFFF; stroke-width:0; stroke-opacity:1; 
stroke-linecap:round; stroke-linejoin:round;">
<circle cx="13105.8" cy="5038.39" r="157.48" /> 
</g>
<g style="fill:#FFFFFF; fill-opacity:1.0; 
stroke:#FFFFFF; stroke-width:39.3701; stroke-opacity:1; 
stroke-linecap:round; stroke-linejoin:round;">
</g>
<g style="fill:#FFFFFF; fill-opacity:1.0; 
stroke:#FFFFFF; stroke-width:0; stroke-opacity:1; 
stroke-linecap:round; stroke-linejoin:round;">
<circle cx="13105.8" cy="4038.39" r="157.48" /> 
</g>
<g style="fill:#FFFFFF; fill-opacity:1.0; 
stroke:#FFFFFF; stroke-width:39.3701; stroke-opacity:1; 
stroke-linecap:round; stroke-linejoin:round;">
</g>
<g style="fill:#FFFFFF; fill-opacity:1.0; 
stroke:#FFFFFF; stroke-width:0; stroke-opacity:1; 
stroke-linecap:round; stroke-linejoin:round;">
<circle cx="3657.01" cy="3038.39" r="157.48" /> 
</g>
<g style="fill:#FFFFFF; fill-opacity:1.0; 
stroke:#FFFFFF; stroke-width:39.3701; stroke-opacity:1; 
stroke-linecap:round; stroke-linejoin:round;">
</g>
<g style="fill:#FFFFFF; fill-opacity:1.0; 
stroke:#FFFFFF; stroke-width:0; stroke-opacity:1; 
stroke-linecap:round; stroke-linejoin:round;">
<circle cx="6657.01" cy="3038.39" r="157.48" /> 
</g>
<g style="fill:#FFFFFF; fill-opacity:1.0; 
stroke:#FFFFFF; stroke-width:39.3701; stroke-opacity:1; 
stroke-linecap:round; stroke-linejoin:round;">
</g>
<g style="fill:#FFFFFF; fill-opacity:1.0; 
stroke:#FFFFFF; stroke-width:0; stroke-opacity:1; 
stroke-linecap:round; stroke-linejoin:round;">
<circle cx="6657.01" cy="4038.39" r="157.48" /> 
</g>
<g style="fill:#FFFFFF; fill-opacity:1.0; 
stroke:#FFFFFF; stroke-width:39.3701; stroke-opacity:1; 
stroke-linecap:round; stroke-linejoin:round;">
</g>
<g style="fill:#FFFFFF; fill-opacity:1.0; 
stroke:#FFFFFF; stroke-width:0; stroke-opacity:1; 
stroke-linecap:round; stroke-linejoin:round;">
<circle cx="6657.01" cy="5038.39" r="157.48" /> 
</g>
<g style="fill:#FFFFFF; fill-opacity:1.0; 
stroke:#FFFFFF; stroke-width:39.3701; stroke-opacity:1; 
stroke-linecap:round; stroke-linejoin:round;">
</g>
<g style="fill:#FFFFFF; fill-opacity:1.0; 
stroke:#FFFFFF; stroke-width:0; stroke-opacity:1; 
stroke-linecap:round; stroke-linejoin:round;">
<circle cx="3657.01" cy="5038.39" r="157.48" /> 
</g>
<g style="fill:#FFFFFF; fill-opacity:1.0; 
stroke:#FFFFFF; stroke-width:39.3701; stroke-opacity:1; 
stroke-linecap:round; stroke-linejoin:round;">
</g>
<g style="fill:#FFFFFF; fill-opacity:1.0; 
stroke:#FFFFFF; stroke-width:0; stroke-opacity:1; 
stroke-linecap:round; stroke-linejoin:round;">
<circle cx="3657.01" cy="4038.39" r="157.48" /> 
</g>
<g style="fill:#FFFFFF; fill-opacity:1.0; 
stroke:#FFFFFF; stroke-width:39.3701; stroke-opacity:1; 
stroke-linecap:round; stroke-linejoin:round;">
</g>
<g style="fill:#000000; fill-opacity:1.0; 
stroke:#000000; stroke-width:39.3701; stroke-opacity:1; 
stroke-linecap:round; stroke-linejoin:round;">
</g>
<g style="fill:#000000; fill-opacity:1.0; 
stroke:#000000; stroke-width:19.685; stroke-opacity:1; 
stroke-linecap:round; stroke-linejoin:round;">
</g>
<g style="fill:#000000; fill-opacity:0.0; 
stroke:#000000; stroke-width:19.685; stroke-opacity:1; 
stroke-linecap:round; stroke-linejoin:round;">
<path d="M1810 6794
L1810 5613
" />
<path d="M1810 1282
L1810 2463
" />
<path d="M17952 5613
L17952 6794
" />
<path d="M17952 1282
L17952 2463
" />
<path d="M17952.3 5613.19 A1587.06 1587.06 0.0 0 0 17952.3 2463.58" />
<path d="M1810.55 2463.58 A1587.06 1587.06 0.0 0 0 1810.56 5613.19" />
<path d="M17164 7581
L2597 7581
" />
<path d="M2597 495
L17164 495
" />
<path d="M17952.3 1282.48 A787.402 787.402 0.0 0 0 17164.9 495.079" />
<path d="M17164.9 7581.69 A787.402 787.402 0.0 0 0 17952.3 6794.29" />
<path d="M1810.55 6794.29 A787.402 787.402 0.0 0 0 2597.96 7581.69" />
<path d="M2597.96 495.079 A787.402 787.402 0.0 0 0 1810.55 1282.48" />
<g >
</g>
<g >
</g>
<g >
</g>
<g >
</g>
<g >
</g>
<g >
</g>
<g >
</g>
<g >
</g>
<g >
</g>
<g >
</g>
<g >
</g>
<g >
</g>
<g >
</g>
<g >
</g>
<g >
</g>
<g >
</g>
<g >
</g>
<g >
</g>
<g >
</g>
</g> 
</svg>
