<?xml version="1.0" standalone="no"?>
 <!DOCTYPE svg PUBLIC "-//W3C//DTD SVG 1.1//EN" 
 "http://www.w3.org/Graphics/SVG/1.1/DTD/svg11.dtd"> 
<svg
  xmlns:svg="http://www.w3.org/2000/svg"
  xmlns="http://www.w3.org/2000/svg"
  xmlns:xlink="http://www.w3.org/1999/xlink"
  version="1.1"
  width="5.019040cm" height="2.024380cm" viewBox="0 0 19760 7970">
<title>SVG Picture created as tone_block-B_SilkS.svg date 2021/09/10 18:00:40 </title>
  <desc>Picture generated by PCBNEW </desc>
<g style="fill:#000000; fill-opacity:1;stroke:#000000; stroke-opacity:1;
stroke-linecap:round; stroke-linejoin:round;"
 transform="translate(0 0) scale(1 1)">
</g>
<g style="fill:#000000; fill-opacity:0.0; 
stroke:#000000; stroke-width:-0.000393701; stroke-opacity:1; 
stroke-linecap:round; stroke-linejoin:round;">
</g>
<g style="fill:#000000; fill-opacity:0.0; 
stroke:#000000; stroke-width:49.2126; stroke-opacity:1; 
stroke-linecap:round; stroke-linejoin:round;">
<text x="11372.8" y="5036.02"
transform="scale(-1 1) translate(-22745.518898 0)"
textLength="1455.76" font-size="262.467" lengthAdjust="spacingAndGlyphs"
text-anchor="middle" opacity="0">Mix Shunt</text>
<path d="M12057 5026
L12057 4829
L11991 4970
L11925 4829
L11925 5026
" />
<path d="M11832 5026
L11832 4895
" />
<path d="M11832 4829
L11841 4839
L11832 4848
L11822 4839
L11832 4829
L11832 4848
" />
<path d="M11757 5026
L11653 4895
" />
<path d="M11757 4895
L11653 5026
" />
<path d="M11438 5017
L11410 5026
L11363 5026
L11344 5017
L11335 5007
L11325 4989
L11325 4970
L11335 4951
L11344 4942
L11363 4932
L11400 4923
L11419 4914
L11429 4904
L11438 4886
L11438 4867
L11429 4848
L11419 4839
L11400 4829
L11354 4829
L11325 4839
" />
<path d="M11241 5026
L11241 4829
" />
<path d="M11157 5026
L11157 4923
L11166 4904
L11185 4895
L11213 4895
L11232 4904
L11241 4914
" />
<path d="M10979 4895
L10979 5026
" />
<path d="M11063 4895
L11063 4998
L11054 5017
L11035 5026
L11007 5026
L10988 5017
L10979 5007
" />
<path d="M10885 4895
L10885 5026
" />
<path d="M10885 4914
L10875 4904
L10857 4895
L10829 4895
L10810 4904
L10800 4923
L10800 5026
" />
<path d="M10735 4895
L10660 4895
" />
<path d="M10707 4829
L10707 4998
L10697 5017
L10679 5026
L10660 5026
" />
<text x="9872.76" y="5036.02"
transform="scale(-1 1) translate(-19745.518898 0)"
textLength="414.089" font-size="262.467" lengthAdjust="spacingAndGlyphs"
text-anchor="middle" opacity="0">Mix</text>
<path d="M10064 5026
L10064 4829
L9999 4970
L9933 4829
L9933 5026
" />
<path d="M9839 5026
L9839 4895
" />
<path d="M9839 4829
L9849 4839
L9839 4848
L9830 4839
L9839 4829
L9839 4848
" />
<path d="M9764 5026
L9661 4895
" />
<path d="M9764 4895
L9661 5026
" />
<text x="8872.76" y="5036.02"
transform="scale(-1 1) translate(-17745.518898 0)"
textLength="535.949" font-size="262.467" lengthAdjust="spacingAndGlyphs"
text-anchor="middle" opacity="0">GND</text>
<path d="M9022 4839
L9041 4829
L9069 4829
L9097 4839
L9116 4857
L9125 4876
L9135 4914
L9135 4942
L9125 4979
L9116 4998
L9097 5017
L9069 5026
L9050 5026
L9022 5017
L9013 5007
L9013 4942
L9050 4942
" />
<path d="M8929 5026
L8929 4829
L8816 5026
L8816 4829
" />
<path d="M8722 5026
L8722 4829
L8675 4829
L8647 4839
L8629 4857
L8619 4876
L8610 4914
L8610 4942
L8619 4979
L8629 4998
L8647 5017
L8675 5026
L8722 5026
" />
<text x="7872.76" y="5036.02"
transform="scale(-1 1) translate(-15745.518898 0)"
textLength="498.453" font-size="262.467" lengthAdjust="spacingAndGlyphs"
text-anchor="middle" opacity="0">VCC</text>
<path d="M8135 4829
L8069 5026
L8003 4829
" />
<path d="M7825 5007
L7835 5017
L7863 5026
L7882 5026
L7910 5017
L7929 4998
L7938 4979
L7947 4942
L7947 4914
L7938 4876
L7929 4857
L7910 4839
L7882 4829
L7863 4829
L7835 4839
L7825 4848
" />
<path d="M7629 5007
L7638 5017
L7666 5026
L7685 5026
L7713 5017
L7732 4998
L7741 4979
L7750 4942
L7750 4914
L7741 4876
L7732 4857
L7713 4839
L7685 4829
L7666 4829
L7638 4839
L7629 4848
" />
<text x="11372.8" y="7483.27"
transform="scale(-1 1) translate(-22745.518898 0)"
textLength="1089" font-size="262.467" lengthAdjust="spacingAndGlyphs"
text-anchor="middle" opacity="0">Ext Cap</text>
<path d="M11902 7370
L11836 7370
" />
<path d="M11808 7473
L11902 7473
L11902 7277
L11808 7277
" />
<path d="M11743 7473
L11639 7342
" />
<path d="M11743 7342
L11639 7473
" />
<path d="M11593 7342
L11518 7342
" />
<path d="M11564 7277
L11564 7445
L11555 7464
L11536 7473
L11518 7473
" />
<path d="M11189 7455
L11199 7464
L11227 7473
L11246 7473
L11274 7464
L11293 7445
L11302 7427
L11311 7389
L11311 7361
L11302 7323
L11293 7305
L11274 7286
L11246 7277
L11227 7277
L11199 7286
L11189 7295
" />
<path d="M11021 7473
L11021 7370
L11030 7352
L11049 7342
L11086 7342
L11105 7352
" />
<path d="M11021 7464
L11039 7473
L11086 7473
L11105 7464
L11114 7445
L11114 7427
L11105 7408
L11086 7398
L11039 7398
L11021 7389
" />
<path d="M10927 7342
L10927 7539
" />
<path d="M10927 7352
L10908 7342
L10871 7342
L10852 7352
L10843 7361
L10833 7380
L10833 7436
L10843 7455
L10852 7464
L10871 7473
L10908 7473
L10927 7464
" />
<text x="9872.76" y="7483.27"
transform="scale(-1 1) translate(-19745.518898 0)"
textLength="207.865" font-size="262.467" lengthAdjust="spacingAndGlyphs"
text-anchor="middle" opacity="0">In</text>
<path d="M9961 7473
L9961 7277
" />
<path d="M9868 7342
L9868 7473
" />
<path d="M9868 7361
L9858 7352
L9839 7342
L9811 7342
L9793 7352
L9783 7370
L9783 7473
" />
<text x="8772.76" y="7483.27"
transform="scale(-1 1) translate(-17545.518898 0)"
textLength="535.949" font-size="262.467" lengthAdjust="spacingAndGlyphs"
text-anchor="middle" opacity="0">GND</text>
<path d="M8922 7286
L8941 7277
L8969 7277
L8997 7286
L9016 7305
L9025 7323
L9035 7361
L9035 7389
L9025 7427
L9016 7445
L8997 7464
L8969 7473
L8950 7473
L8922 7464
L8913 7455
L8913 7389
L8950 7389
" />
<path d="M8829 7473
L8829 7277
L8716 7473
L8716 7277
" />
<path d="M8622 7473
L8622 7277
L8575 7277
L8547 7286
L8529 7305
L8519 7323
L8510 7361
L8510 7389
L8519 7427
L8529 7445
L8547 7464
L8575 7473
L8622 7473
" />
<text x="7772.76" y="7483.27"
transform="scale(-1 1) translate(-15545.518898 0)"
textLength="498.453" font-size="262.467" lengthAdjust="spacingAndGlyphs"
text-anchor="middle" opacity="0">VCC</text>
<path d="M8035 7277
L7969 7473
L7903 7277
" />
<path d="M7725 7455
L7735 7464
L7763 7473
L7782 7473
L7810 7464
L7829 7445
L7838 7427
L7847 7389
L7847 7361
L7838 7323
L7829 7305
L7810 7286
L7782 7277
L7763 7277
L7735 7286
L7725 7295
" />
<path d="M7529 7455
L7538 7464
L7566 7473
L7585 7473
L7613 7464
L7632 7445
L7641 7427
L7650 7389
L7650 7361
L7641 7323
L7632 7305
L7613 7286
L7585 7277
L7566 7277
L7538 7286
L7529 7295
" />
<text x="3779.06" y="1774.61"
transform="scale(-1 1) translate(-7558.117323 0)"
textLength="2335.72" font-size="262.467" lengthAdjust="spacingAndGlyphs"
text-anchor="middle" opacity="0">Tone Block v1.0</text>
<path d="M4960 1568
L4847 1568
" />
<path d="M4903 1765
L4903 1568
" />
<path d="M4753 1765
L4772 1755
L4782 1746
L4791 1727
L4791 1671
L4782 1652
L4772 1643
L4753 1633
L4725 1633
L4707 1643
L4697 1652
L4688 1671
L4688 1727
L4697 1746
L4707 1755
L4725 1765
L4753 1765
" />
<path d="M4603 1633
L4603 1765
" />
<path d="M4603 1652
L4594 1643
L4575 1633
L4547 1633
L4528 1643
L4519 1662
L4519 1765
" />
<path d="M4350 1755
L4369 1765
L4407 1765
L4425 1755
L4435 1737
L4435 1662
L4425 1643
L4407 1633
L4369 1633
L4350 1643
L4341 1662
L4341 1680
L4435 1699
" />
<path d="M4041 1662
L4013 1671
L4004 1680
L3994 1699
L3994 1727
L4004 1746
L4013 1755
L4032 1765
L4107 1765
L4107 1568
L4041 1568
L4022 1577
L4013 1587
L4004 1605
L4004 1624
L4013 1643
L4022 1652
L4041 1662
L4107 1662
" />
<path d="M3882 1765
L3900 1755
L3910 1737
L3910 1568
" />
<path d="M3779 1765
L3797 1755
L3807 1746
L3816 1727
L3816 1671
L3807 1652
L3797 1643
L3779 1633
L3750 1633
L3732 1643
L3722 1652
L3713 1671
L3713 1727
L3722 1746
L3732 1755
L3750 1765
L3779 1765
" />
<path d="M3544 1755
L3563 1765
L3600 1765
L3619 1755
L3629 1746
L3638 1727
L3638 1671
L3629 1652
L3619 1643
L3600 1633
L3563 1633
L3544 1643
" />
<path d="M3460 1765
L3460 1568
" />
<path d="M3441 1690
L3385 1765
" />
<path d="M3385 1633
L3460 1708
" />
<path d="M3169 1633
L3122 1765
L3076 1633
" />
<path d="M2897 1765
L3010 1765
" />
<path d="M2954 1765
L2954 1568
L2972 1596
L2991 1615
L3010 1624
" />
<path d="M2813 1746
L2804 1755
L2813 1765
L2822 1755
L2813 1746
L2813 1765
" />
<path d="M2682 1568
L2663 1568
L2644 1577
L2635 1587
L2626 1605
L2616 1643
L2616 1690
L2626 1727
L2635 1746
L2644 1755
L2663 1765
L2682 1765
L2701 1755
L2710 1746
L2719 1727
L2729 1690
L2729 1643
L2719 1605
L2710 1587
L2701 1577
L2682 1568
" />
</g>
<g style="fill:#000000; fill-opacity:1.0; 
stroke:#000000; stroke-width:3.93701; stroke-opacity:1; 
stroke-linecap:round; stroke-linejoin:round;">
<path style="fill:#000000; fill-opacity:1.0; 
stroke:#000000; stroke-width:3.93701; stroke-opacity:1; 
stroke-linecap:round; stroke-linejoin:round;fill-rule:evenodd;"
d="M 6508.78,879.38
6511.18,956.463
6957.87,958.619
7055.94,959.123
7138.69,959.645
7207.46,960.233
7263.59,960.936
7308.42,961.802
7343.3,962.88
7369.56,964.218
7388.56,965.865
7401.62,967.871
7410.11,970.283
7415.35,973.15
7417.65,975.285
7425.84,992.802
7432.2,1025.54
7436.51,1068.96
7438.92,1106.6
7439.22,1131.67
7436.99,1148.2
7431.77,1160.21
7425.39,1168.96
7408.5,1189.8
6960.92,1192.47
6513.35,1195.14
6518.42,1225.8
6521.49,1253.03
6523.34,1286.25
6523.59,1300.21
6523.68,1343.96
6988.26,1342.99
7076.2,1342.68
7160.28,1342.13
7238.81,1341.38
7310.11,1340.45
7372.48,1339.37
7424.24,1338.17
7463.69,1336.87
7489.15,1335.5
7496.87,1334.68
7555.18,1318.47
7602.31,1291.55
7637.1,1254.81
7657.81,1211.25
7661.31,1188.28
7662.6,1153.36
7661.94,1110.48
7659.6,1063.64
7655.86,1016.82
7650.98,974.005
7645.23,939.18
7638.88,916.334
7637.73,913.857
7611.12,877.435
7574.69,846.733
7548.59,832.626
7531.09,826.269
7510.46,820.833
7485.35,816.253
7454.45,812.46
7416.41,809.387
7369.89,806.968
7313.56,805.133
7246.08,803.816
7166.12,802.95
7072.35,802.467
6963.42,802.299
6947.76,802.297
6506.39,802.297
Z" /> 
<path style="fill:#000000; fill-opacity:1.0; 
stroke:#000000; stroke-width:3.93701; stroke-opacity:1; 
stroke-linecap:round; stroke-linejoin:round;fill-rule:evenodd;"
d="M 6190.34,863.505
6190.58,886.276
6190.3,904.993
6188.01,920.064
6182.24,931.896
6171.5,940.898
6154.3,947.478
6129.17,952.043
6094.62,955
6049.17,956.76
5991.33,957.728
5919.62,958.313
5843.65,958.837
5532.01,961.21
5532.01,802.297
5287.77,802.297
5293.64,987.713
5295.78,1044.08
5298.47,1097
5301.49,1143.44
5304.63,1180.37
5307.7,1204.75
5308.75,1209.87
5327.04,1250.49
5358.59,1286.23
5400.05,1313.83
5425.3,1324.17
5439.69,1328.19
5457.03,1331.49
5479.21,1334.16
5508.1,1336.31
5545.57,1338.02
5593.49,1339.42
5653.74,1340.59
5728.2,1341.64
5754.93,1341.96
6040.34,1345.3
6040.34,1195.34
5808.28,1192.57
5735.73,1191.61
5678.13,1190.43
5633.76,1188.71
5600.88,1186.12
5577.78,1182.32
5562.74,1176.99
5554.03,1169.81
5549.94,1160.43
5548.74,1148.53
5548.68,1142.94
5548.68,1118.96
5854.93,1118.71
5950.57,1118.42
6031.19,1117.65
6098.45,1116.29
6153.97,1114.22
6199.41,1111.32
6236.42,1107.47
6266.63,1102.55
6291.69,1096.46
6313.25,1089.06
6322,1085.39
6364.01,1062.73
6394.52,1035.66
6414.99,1001.51
6426.86,957.606
6431.59,901.293
6431.83,883.547
6432.01,802.297
6190.34,802.297
Z" /> 
<path style="fill:#000000; fill-opacity:1.0; 
stroke:#000000; stroke-width:3.93701; stroke-opacity:1; 
stroke-linecap:round; stroke-linejoin:round;fill-rule:evenodd;"
d="M 4189.18,803.231
4141.4,803.463
4106.13,803.837
4084.87,804.353
4079.06,804.824
4074.09,814.596
4071.77,839.524
4072.04,880.239
4072.19,884.548
4074.86,960.63
4510.48,960.63
4607.09,960.658
4688.4,960.774
4755.77,961.021
4810.58,961.446
4854.18,962.094
4887.96,963.011
4913.26,964.242
4931.46,965.831
4943.93,967.826
4952.02,970.27
4957.12,973.209
4959.6,975.548
4967.65,991.651
4973.76,1020.88
4978.27,1064.91
4978.58,1069.3
4980.85,1106.88
4981.04,1131.9
4978.7,1148.42
4973.36,1160.45
4967.12,1168.96
4950.16,1189.8
4082.01,1195.16
4082.01,1230.9
4083.26,1263.06
4086.37,1297.87
4087.31,1305.3
4092.61,1343.96
4556.06,1343.3
4664.19,1343.05
4756.82,1342.6
4835.12,1341.93
4900.25,1341.02
4953.37,1339.84
4995.66,1338.35
5028.28,1336.54
5052.39,1334.37
5069.16,1331.83
5070.61,1331.53
5118.12,1318.75
5153.33,1302.83
5180.58,1281.4
5196.16,1263.29
5219.51,1232.6
5219.02,1090.37
5218.67,1037.45
5217.82,998.234
5216.17,969.739
5213.39,948.996
5209.18,933.033
5203.22,918.879
5200.35,913.196
5172.24,874.038
5132.58,843.973
5082.01,822.294
5070.92,819.074
5058.04,816.322
5041.95,813.993
5021.28,812.037
4994.62,810.406
4960.58,809.051
4917.75,807.924
4864.76,806.977
4800.2,806.161
4722.67,805.428
4630.78,804.73
4562.39,804.269
4474.9,803.763
4392.32,803.407
4316.16,803.202
4247.94,803.143
Z" /> 
<path style="fill:#000000; fill-opacity:1.0; 
stroke:#000000; stroke-width:3.93701; stroke-opacity:1; 
stroke-linecap:round; stroke-linejoin:round;fill-rule:evenodd;"
d="M 2933.77,878.8
2936.18,956.463
3337.85,960.63
3435.27,961.811
3520.97,963.202
3594.17,964.779
3654.07,966.518
3699.91,968.394
3730.89,970.385
3746.24,972.465
3747.7,973.13
3754.45,986.951
3758.53,1006.46
3761.18,1031.46
3198.68,1035.85
3198.68,1185.63
3773.68,1185.63
3773.68,1343.96
4021.57,1343.96
4017.89,1229.38
4014.73,1143.63
4011.02,1072.85
4006.42,1015.34
4000.58,969.412
3993.16,933.369
3983.8,905.516
3972.17,884.157
3957.91,867.598
3941.08,854.413
3926.08,844.639
3911.78,836.323
3896.75,829.336
3879.56,823.55
3858.75,818.836
3832.91,815.067
3800.59,812.113
3760.36,809.848
3710.78,808.142
3650.42,806.867
3577.83,805.896
3491.59,805.1
3390.26,804.351
3379.61,804.276
2931.37,801.137
Z" /> 
<path style="fill:#000000; fill-opacity:1.0; 
stroke:#000000; stroke-width:3.93701; stroke-opacity:1; 
stroke-linecap:round; stroke-linejoin:round;fill-rule:evenodd;"
d="M 2626.62,866.88
2628.3,893.774
2630.23,934.051
2632.28,984.43
2634.33,1041.63
2636.25,1102.37
2637.24,1137.71
2642.77,1343.96
2892.49,1343.96
2887.38,1246.05
2885.48,1205.86
2883.28,1153.7
2880.98,1094.26
2878.76,1032.23
2876.88,975.213
2871.47,802.297
2621.53,802.297
Z" /> 
</g>
<g style="fill:#000000; fill-opacity:1.0; 
stroke:#000000; stroke-width:47.2441; stroke-opacity:1; 
stroke-linecap:round; stroke-linejoin:round;">
</g>
<g style="fill:#000000; fill-opacity:0.0; 
stroke:#000000; stroke-width:47.2441; stroke-opacity:1; 
stroke-linecap:round; stroke-linejoin:round;">
<path d="M7326 7121
L7326 5073
" />
<path d="M11349 7121
L7326 7121
" />
<path d="M12373 5073
L7326 5073
" />
<path d="M11349 7121
L11349 6097
" />
<path d="M11349 6097
L12373 6097
" />
<path d="M12373 6097
L12373 5073
" />
<path d="M11849 7121
L12373 7121
" />
<path d="M12373 7121
L12373 6597
" />
<path d="M4531 2900
L4616 2900
" />
<path d="M4531 2617
L4616 2617
" />
<path d="M5705 5459
L5790 5459
" />
<path d="M5705 5176
L5790 5176
" />
<path d="M4616 5176
L4531 5176
" />
<path d="M4616 5459
L4531 5459
" />
<path d="M5705 2900
L5790 2900
" />
<path d="M5705 2617
L5790 2617
" />
<circle cx="9881.42" cy="2660.43" r="2092.55" /> 
<path d="M15139 4581
L15260 4581
" />
<path d="M15139 4282
L15260 4282
" />
<path d="M14075 2609
L13954 2609
" />
<path d="M14075 2908
L13954 2908
" />
<path d="M15135 5467
L15256 5467
" />
<path d="M15135 5168
L15256 5168
" />
<path d="M14071 5168
L13950 5168
" />
<path d="M14071 5467
L13950 5467
" />
<path d="M15135 2908
L15256 2908
" />
<path d="M15135 2609
L15256 2609
" />
<path d="M11910 4479
L11789 4479
" />
<path d="M11910 4778
L11789 4778
" />
</g>
<g style="fill:#000000; fill-opacity:0.0; 
stroke:#000000; stroke-width:59.0551; stroke-opacity:1; 
stroke-linecap:round; stroke-linejoin:round;">
<text x="4566.46" y="2424.21"
transform="scale(-1 1) translate(-9132.920472 0)"
textLength="550.947" font-size="419.947" lengthAdjust="spacingAndGlyphs"
text-anchor="middle" opacity="0">C1</text>
<path d="M4618 2379
L4633 2394
L4678 2409
L4708 2409
L4753 2394
L4783 2364
L4798 2334
L4813 2274
L4813 2229
L4798 2169
L4783 2139
L4753 2109
L4708 2094
L4678 2094
L4633 2109
L4618 2124
" />
<path d="M4318 2409
L4498 2409
" />
<path d="M4408 2409
L4408 2094
L4438 2139
L4468 2169
L4498 2184
" />
<text x="5747.56" y="5967.52"
transform="scale(-1 1) translate(-11495.125197 0)"
textLength="538.152" font-size="419.947" lengthAdjust="spacingAndGlyphs"
text-anchor="middle" opacity="0">C2</text>
<path d="M5800 5922
L5815 5937
L5860 5952
L5890 5952
L5935 5937
L5965 5907
L5980 5877
L5995 5817
L5995 5772
L5980 5712
L5965 5682
L5935 5652
L5890 5637
L5860 5637
L5815 5652
L5800 5667
" />
<path d="M5680 5667
L5665 5652
L5635 5637
L5560 5637
L5530 5652
L5515 5667
L5500 5697
L5500 5727
L5515 5772
L5695 5952
L5500 5952
" />
<text x="4566.46" y="5967.52"
transform="scale(-1 1) translate(-9132.920472 0)"
textLength="538.152" font-size="419.947" lengthAdjust="spacingAndGlyphs"
text-anchor="middle" opacity="0">C3</text>
<path d="M4618 5922
L4633 5937
L4678 5952
L4708 5952
L4753 5937
L4783 5907
L4798 5877
L4813 5817
L4813 5772
L4798 5712
L4783 5682
L4753 5652
L4708 5637
L4678 5637
L4633 5652
L4618 5667
" />
<path d="M4513 5637
L4318 5637
L4423 5757
L4378 5757
L4348 5772
L4333 5787
L4318 5817
L4318 5892
L4333 5922
L4348 5937
L4378 5952
L4468 5952
L4498 5937
L4513 5922
" />
<text x="5747.56" y="2424.21"
transform="scale(-1 1) translate(-11495.125197 0)"
textLength="538.152" font-size="419.947" lengthAdjust="spacingAndGlyphs"
text-anchor="middle" opacity="0">C4</text>
<path d="M5800 2379
L5815 2394
L5860 2409
L5890 2409
L5935 2394
L5965 2364
L5980 2334
L5995 2274
L5995 2229
L5980 2169
L5965 2139
L5935 2109
L5890 2094
L5860 2094
L5815 2109
L5800 2124
" />
<path d="M5530 2199
L5530 2409
" />
<path d="M5605 2079
L5680 2304
L5485 2304
" />
<text x="15200.3" y="3999.02"
transform="scale(-1 1) translate(-30400.637008 0)"
textLength="538.152" font-size="419.947" lengthAdjust="spacingAndGlyphs"
text-anchor="middle" opacity="0">R1</text>
<path d="M15252 3984
L15357 3834
" />
<path d="M15432 3984
L15432 3669
L15312 3669
L15282 3684
L15267 3699
L15252 3729
L15252 3774
L15267 3804
L15282 3819
L15312 3834
L15432 3834
" />
<path d="M14952 3984
L15132 3984
" />
<path d="M15042 3984
L15042 3669
L15072 3714
L15102 3744
L15132 3759
" />
<text x="14015.3" y="2424.21"
transform="scale(-1 1) translate(-28030.558268 0)"
textLength="538.152" font-size="419.947" lengthAdjust="spacingAndGlyphs"
text-anchor="middle" opacity="0">R2</text>
<path d="M14067 2409
L14172 2259
" />
<path d="M14247 2409
L14247 2094
L14127 2094
L14097 2109
L14082 2124
L14067 2154
L14067 2199
L14082 2229
L14097 2244
L14127 2259
L14247 2259
" />
<path d="M13947 2124
L13932 2109
L13902 2094
L13827 2094
L13797 2109
L13782 2124
L13767 2154
L13767 2184
L13782 2229
L13962 2409
L13767 2409
" />
<text x="15196.4" y="5936.02"
transform="scale(-1 1) translate(-30392.762992 0)"
textLength="538.152" font-size="419.947" lengthAdjust="spacingAndGlyphs"
text-anchor="middle" opacity="0">R3</text>
<path d="M15248 5921
L15353 5771
" />
<path d="M15428 5921
L15428 5606
L15308 5606
L15278 5621
L15263 5636
L15248 5666
L15248 5711
L15263 5741
L15278 5756
L15308 5771
L15428 5771
" />
<path d="M15143 5606
L14948 5606
L15053 5726
L15008 5726
L14978 5741
L14963 5756
L14948 5786
L14948 5861
L14963 5891
L14978 5906
L15008 5921
L15098 5921
L15128 5906
L15143 5891
" />
<text x="14015.3" y="5967.52"
transform="scale(-1 1) translate(-28030.558268 0)"
textLength="538.152" font-size="419.947" lengthAdjust="spacingAndGlyphs"
text-anchor="middle" opacity="0">R4</text>
<path d="M14067 5952
L14172 5802
" />
<path d="M14247 5952
L14247 5637
L14127 5637
L14097 5652
L14082 5667
L14067 5697
L14067 5742
L14082 5772
L14097 5787
L14127 5802
L14247 5802
" />
<path d="M13797 5742
L13797 5952
" />
<path d="M13872 5622
L13947 5847
L13752 5847
" />
<text x="15196.4" y="2424.21"
transform="scale(-1 1) translate(-30392.762992 0)"
textLength="538.152" font-size="419.947" lengthAdjust="spacingAndGlyphs"
text-anchor="middle" opacity="0">R5</text>
<path d="M15248 2409
L15353 2259
" />
<path d="M15428 2409
L15428 2094
L15308 2094
L15278 2109
L15263 2124
L15248 2154
L15248 2199
L15263 2229
L15278 2244
L15308 2259
L15428 2259
" />
<path d="M14963 2094
L15113 2094
L15128 2244
L15113 2229
L15083 2214
L15008 2214
L14978 2229
L14963 2244
L14948 2274
L14948 2349
L14963 2379
L14978 2394
L15008 2409
L15083 2409
L15113 2394
L15128 2379
" />
<text x="11849.9" y="4365.16"
transform="scale(-1 1) translate(-23699.849606 0)"
textLength="691.882" font-size="524.934" lengthAdjust="spacingAndGlyphs"
text-anchor="middle" opacity="0">R6</text>
<path d="M11915 4346
L12046 4158
" />
<path d="M12140 4346
L12140 3952
L11990 3952
L11953 3971
L11934 3990
L11915 4027
L11915 4083
L11934 4121
L11953 4140
L11990 4158
L12140 4158
" />
<path d="M11578 3952
L11653 3952
L11690 3971
L11709 3990
L11746 4046
L11765 4121
L11765 4271
L11746 4308
L11728 4327
L11690 4346
L11615 4346
L11578 4327
L11559 4308
L11540 4271
L11540 4177
L11559 4140
L11578 4121
L11615 4102
L11690 4102
L11728 4121
L11746 4140
L11765 4177
" />
<g >
</g>
</g>
<g style="fill:#000000; fill-opacity:0.0; 
stroke:#000000; stroke-width:59.0551; stroke-opacity:1; 
stroke-linecap:round; stroke-linejoin:round;">
</g>
<g style="fill:#000000; fill-opacity:0.0; 
stroke:#000000; stroke-width:19.685; stroke-opacity:1; 
stroke-linecap:round; stroke-linejoin:round;">
<path d="M1810 6794
L1810 5613
" />
<path d="M1810 1282
L1810 2463
" />
<path d="M17952 5613
L17952 6794
" />
<path d="M17952 1282
L17952 2463
" />
<path d="M17952.3 5613.19 A1587.06 1587.06 0.0 0 0 17952.3 2463.58" />
<path d="M1810.55 2463.58 A1587.06 1587.06 0.0 0 0 1810.56 5613.19" />
<path d="M17164 7581
L2597 7581
" />
<path d="M2597 495
L17164 495
" />
<path d="M17952.3 1282.48 A787.402 787.402 0.0 0 0 17164.9 495.079" />
<path d="M17164.9 7581.69 A787.402 787.402 0.0 0 0 17952.3 6794.29" />
<path d="M1810.55 6794.29 A787.402 787.402 0.0 0 0 2597.96 7581.69" />
<path d="M2597.96 495.079 A787.402 787.402 0.0 0 0 1810.55 1282.48" />
<g >
</g>
<g >
</g>
<g >
</g>
<g >
</g>
<g >
</g>
<g >
</g>
<g >
</g>
<g >
</g>
<g >
</g>
<g >
</g>
<g >
</g>
<g >
</g>
<g >
</g>
<g >
</g>
<g >
</g>
<g >
</g>
<g >
</g>
<g >
</g>
<g >
</g>
</g> 
</svg>
