  0
SECTION
  2
HEADER
  9
$ANGBASE
  50
0.0
  9
$ANGDIR
  70
1
  9
$MEASUREMENT
  70
0
  0
ENDSEC
  0
SECTION
  2
TABLES
  0
TABLE
  2
LTYPE
  70
4
  0
LTYPE
  5
40F
  2
CONTINUOUS
  70
0
  3
Solid line
  72
65
  73
0
  40
0.0
  0
LTYPE
  5
410
  2
DASHDOT
 70
0
  3
Dash Dot ____ _ ____ _
 72
65
 73
4
 40
2.0
 49
1.25
 49
-0.25
 49
0.25
 49
-0.25
  0
LTYPE
  5
411
  2
DASHED
 70
0
  3
Dashed __ __ __ __ __
 72
65
 73
2
 40
0.75
 49
0.5
 49
-0.25
  0
LTYPE
  5
43B
  2
DOTTED
 70
0
  3
Dotted .  .  .  .
 72
65
 73
2
 40
0.2
 49
0.0
 49
-0.2
  0
ENDTAB
  0
TABLE
  2
STYLE
  70
4
  0
STYLE
  2
KICAD
  70
0
  40
0
  41
1
  42
1
  50
0
  71
0
  3
isocp.shx
  0
STYLE
  2
KICADB
  70
0
  40
0
  41
1
  42
1
  50
0
  71
0
  3
isocp.shx
  0
STYLE
  2
KICADI
  70
0
  40
0
  41
1
  42
1
  50
15
  71
0
  3
isocp.shx
  0
STYLE
  2
KICADBI
  70
0
  40
0
  41
1
  42
1
  50
15
  71
0
  3
isocp.shx
  0
ENDTAB
  0
TABLE
  2
LAYER
  70
1
  0
LAYER
  2
BLACK
  70
0
  62
7
  6
CONTINUOUS
  0
ENDTAB
  0
ENDSEC
  0
SECTION
  2
ENTITIES
0
LINE
8
BLACK
6
CONTINUOUS
10
8.02141
20
-4.72561
11
8.01822
21
-4.72348
0
LINE
8
BLACK
6
CONTINUOUS
10
8.01822
20
-4.72348
11
7.98959
21
-4.69485
0
LINE
8
BLACK
6
CONTINUOUS
10
7.98959
20
-4.69485
11
7.98436
21
-4.69718
0
LINE
8
BLACK
6
CONTINUOUS
10
7.98436
20
-4.69718
11
7.97751
21
-4.69864
0
LINE
8
BLACK
6
CONTINUOUS
10
7.97751
20
-4.69864
11
7.97052
21
-4.69864
0
LINE
8
BLACK
6
CONTINUOUS
10
7.97052
20
-4.69864
11
7.96367
21
-4.69718
0
LINE
8
BLACK
6
CONTINUOUS
10
7.96367
20
-4.69718
11
7.95728
21
-4.69434
0
LINE
8
BLACK
6
CONTINUOUS
10
7.95728
20
-4.69434
11
7.95162
21
-4.69022
0
LINE
8
BLACK
6
CONTINUOUS
10
7.95162
20
-4.69022
11
7.94694
21
-4.68502
0
LINE
8
BLACK
6
CONTINUOUS
10
7.94694
20
-4.68502
11
7.94344
21
-4.67897
0
LINE
8
BLACK
6
CONTINUOUS
10
7.94344
20
-4.67897
11
7.94128
21
-4.67231
0
LINE
8
BLACK
6
CONTINUOUS
10
7.94128
20
-4.67231
11
7.94055
21
-4.66535
0
LINE
8
BLACK
6
CONTINUOUS
10
7.94055
20
-4.66535
11
7.94128
21
-4.6584
0
LINE
8
BLACK
6
CONTINUOUS
10
7.94128
20
-4.6584
11
7.94344
21
-4.65174
0
LINE
8
BLACK
6
CONTINUOUS
10
7.94344
20
-4.65174
11
7.94694
21
-4.64568
0
LINE
8
BLACK
6
CONTINUOUS
10
7.94694
20
-4.64568
11
7.95162
21
-4.64049
0
LINE
8
BLACK
6
CONTINUOUS
10
7.95162
20
-4.64049
11
7.95728
21
-4.63637
0
LINE
8
BLACK
6
CONTINUOUS
10
7.95728
20
-4.63637
11
7.96367
21
-4.63353
0
LINE
8
BLACK
6
CONTINUOUS
10
7.96367
20
-4.63353
11
7.97052
21
-4.63207
0
LINE
8
BLACK
6
CONTINUOUS
10
7.97052
20
-4.63207
11
7.97751
21
-4.63207
0
LINE
8
BLACK
6
CONTINUOUS
10
7.97751
20
-4.63207
11
7.98436
21
-4.63353
0
LINE
8
BLACK
6
CONTINUOUS
10
7.98436
20
-4.63353
11
7.99075
21
-4.63637
0
LINE
8
BLACK
6
CONTINUOUS
10
7.99075
20
-4.63637
11
7.99641
21
-4.64049
0
LINE
8
BLACK
6
CONTINUOUS
10
7.99641
20
-4.64049
11
8.00109
21
-4.64568
0
LINE
8
BLACK
6
CONTINUOUS
10
8.00109
20
-4.64568
11
8.00459
21
-4.65174
0
LINE
8
BLACK
6
CONTINUOUS
10
8.00459
20
-4.65174
11
8.00675
21
-4.6584
0
LINE
8
BLACK
6
CONTINUOUS
10
8.00675
20
-4.6584
11
8.00748
21
-4.66535
0
LINE
8
BLACK
6
CONTINUOUS
10
8.00748
20
-4.66535
11
8.00675
21
-4.67231
0
LINE
8
BLACK
6
CONTINUOUS
10
8.00675
20
-4.67231
11
8.00459
21
-4.67897
0
LINE
8
BLACK
6
CONTINUOUS
10
8.00459
20
-4.67897
11
8.00347
21
-4.68089
0
LINE
8
BLACK
6
CONTINUOUS
10
8.00347
20
-4.68089
11
8.02925
21
-4.70667
0
LINE
8
BLACK
6
CONTINUOUS
10
8.02925
20
-4.70667
11
8.31248
21
-4.70667
0
LINE
8
BLACK
6
CONTINUOUS
10
8.31248
20
-4.70667
11
8.33826
21
-4.68089
0
LINE
8
BLACK
6
CONTINUOUS
10
8.33826
20
-4.68089
11
8.33715
21
-4.67897
0
LINE
8
BLACK
6
CONTINUOUS
10
8.33715
20
-4.67897
11
8.33498
21
-4.67231
0
LINE
8
BLACK
6
CONTINUOUS
10
8.33498
20
-4.67231
11
8.33425
21
-4.66535
0
LINE
8
BLACK
6
CONTINUOUS
10
8.33425
20
-4.66535
11
8.33498
21
-4.6584
0
LINE
8
BLACK
6
CONTINUOUS
10
8.33498
20
-4.6584
11
8.33715
21
-4.65174
0
LINE
8
BLACK
6
CONTINUOUS
10
8.33715
20
-4.65174
11
8.34064
21
-4.64568
0
LINE
8
BLACK
6
CONTINUOUS
10
8.34064
20
-4.64568
11
8.34532
21
-4.64049
0
LINE
8
BLACK
6
CONTINUOUS
10
8.34532
20
-4.64049
11
8.35098
21
-4.63637
0
LINE
8
BLACK
6
CONTINUOUS
10
8.35098
20
-4.63637
11
8.35738
21
-4.63353
0
LINE
8
BLACK
6
CONTINUOUS
10
8.35738
20
-4.63353
11
8.36422
21
-4.63207
0
LINE
8
BLACK
6
CONTINUOUS
10
8.36422
20
-4.63207
11
8.37121
21
-4.63207
0
LINE
8
BLACK
6
CONTINUOUS
10
8.37121
20
-4.63207
11
8.37806
21
-4.63353
0
LINE
8
BLACK
6
CONTINUOUS
10
8.37806
20
-4.63353
11
8.38445
21
-4.63637
0
LINE
8
BLACK
6
CONTINUOUS
10
8.38445
20
-4.63637
11
8.39011
21
-4.64049
0
LINE
8
BLACK
6
CONTINUOUS
10
8.39011
20
-4.64049
11
8.39479
21
-4.64568
0
LINE
8
BLACK
6
CONTINUOUS
10
8.39479
20
-4.64568
11
8.39829
21
-4.65174
0
LINE
8
BLACK
6
CONTINUOUS
10
8.39829
20
-4.65174
11
8.40045
21
-4.6584
0
LINE
8
BLACK
6
CONTINUOUS
10
8.40045
20
-4.6584
11
8.40118
21
-4.66535
0
LINE
8
BLACK
6
CONTINUOUS
10
8.40118
20
-4.66535
11
8.40045
21
-4.67231
0
LINE
8
BLACK
6
CONTINUOUS
10
8.40045
20
-4.67231
11
8.39829
21
-4.67897
0
LINE
8
BLACK
6
CONTINUOUS
10
8.39829
20
-4.67897
11
8.39479
21
-4.68502
0
LINE
8
BLACK
6
CONTINUOUS
10
8.39479
20
-4.68502
11
8.39011
21
-4.69022
0
LINE
8
BLACK
6
CONTINUOUS
10
8.39011
20
-4.69022
11
8.38445
21
-4.69434
0
LINE
8
BLACK
6
CONTINUOUS
10
8.38445
20
-4.69434
11
8.37806
21
-4.69718
0
LINE
8
BLACK
6
CONTINUOUS
10
8.37806
20
-4.69718
11
8.37121
21
-4.69864
0
LINE
8
BLACK
6
CONTINUOUS
10
8.37121
20
-4.69864
11
8.36422
21
-4.69864
0
LINE
8
BLACK
6
CONTINUOUS
10
8.36422
20
-4.69864
11
8.35738
21
-4.69718
0
LINE
8
BLACK
6
CONTINUOUS
10
8.35738
20
-4.69718
11
8.35214
21
-4.69485
0
LINE
8
BLACK
6
CONTINUOUS
10
8.35214
20
-4.69485
11
8.32351
21
-4.72348
0
LINE
8
BLACK
6
CONTINUOUS
10
8.32351
20
-4.72348
11
8.32032
21
-4.72561
0
LINE
8
BLACK
6
CONTINUOUS
10
8.32032
20
-4.72561
11
8.31655
21
-4.72636
0
LINE
8
BLACK
6
CONTINUOUS
10
8.31655
20
-4.72636
11
8.02518
21
-4.72636
0
LINE
8
BLACK
6
CONTINUOUS
10
8.02518
20
-4.72636
11
8.02141
21
-4.72561
0
LINE
8
BLACK
6
CONTINUOUS
10
8.00823
20
-4.42366
11
8.01226
21
-4.42554
0
LINE
8
BLACK
6
CONTINUOUS
10
8.01226
20
-4.42554
11
8.0154
21
-4.42868
0
LINE
8
BLACK
6
CONTINUOUS
10
8.0154
20
-4.42868
11
8.01728
21
-4.43271
0
LINE
8
BLACK
6
CONTINUOUS
10
8.01728
20
-4.43271
11
8.01772
21
-4.43602
0
LINE
8
BLACK
6
CONTINUOUS
10
8.01772
20
-4.43602
11
8.01772
21
-4.4439
0
LINE
8
BLACK
6
CONTINUOUS
10
8.01772
20
-4.4439
11
8.1437
21
-4.4439
0
LINE
8
BLACK
6
CONTINUOUS
10
8.1437
20
-4.4439
11
8.1437
21
-4.43602
0
LINE
8
BLACK
6
CONTINUOUS
10
8.1437
20
-4.43602
11
8.14414
21
-4.43271
0
LINE
8
BLACK
6
CONTINUOUS
10
8.14414
20
-4.43271
11
8.14601
21
-4.42868
0
LINE
8
BLACK
6
CONTINUOUS
10
8.14601
20
-4.42868
11
8.14916
21
-4.42554
0
LINE
8
BLACK
6
CONTINUOUS
10
8.14916
20
-4.42554
11
8.15318
21
-4.42366
0
LINE
8
BLACK
6
CONTINUOUS
10
8.15318
20
-4.42366
11
8.1565
21
-4.42323
0
LINE
8
BLACK
6
CONTINUOUS
10
8.1565
20
-4.42323
11
8.18209
21
-4.42323
0
LINE
8
BLACK
6
CONTINUOUS
10
8.18209
20
-4.42323
11
8.1854
21
-4.42366
0
LINE
8
BLACK
6
CONTINUOUS
10
8.1854
20
-4.42366
11
8.18943
21
-4.42554
0
LINE
8
BLACK
6
CONTINUOUS
10
8.18943
20
-4.42554
11
8.19257
21
-4.42868
0
LINE
8
BLACK
6
CONTINUOUS
10
8.19257
20
-4.42868
11
8.19445
21
-4.43271
0
LINE
8
BLACK
6
CONTINUOUS
10
8.19445
20
-4.43271
11
8.19488
21
-4.43602
0
LINE
8
BLACK
6
CONTINUOUS
10
8.19488
20
-4.43602
11
8.19488
21
-4.46161
0
LINE
8
BLACK
6
CONTINUOUS
10
8.19488
20
-4.46161
11
8.19445
21
-4.46493
0
LINE
8
BLACK
6
CONTINUOUS
10
8.19445
20
-4.46493
11
8.19257
21
-4.46895
0
LINE
8
BLACK
6
CONTINUOUS
10
8.19257
20
-4.46895
11
8.18943
21
-4.4721
0
LINE
8
BLACK
6
CONTINUOUS
10
8.18943
20
-4.4721
11
8.1854
21
-4.47397
0
LINE
8
BLACK
6
CONTINUOUS
10
8.1854
20
-4.47397
11
8.18209
21
-4.47441
0
LINE
8
BLACK
6
CONTINUOUS
10
8.18209
20
-4.47441
11
8.17264
21
-4.47441
0
LINE
8
BLACK
6
CONTINUOUS
10
8.17264
20
-4.47441
11
8.17264
21
-4.63189
0
LINE
8
BLACK
6
CONTINUOUS
10
8.17264
20
-4.63189
11
8.20118
21
-4.63189
0
LINE
8
BLACK
6
CONTINUOUS
10
8.20118
20
-4.63189
11
8.20118
21
-4.69882
0
LINE
8
BLACK
6
CONTINUOUS
10
8.20118
20
-4.69882
11
8.13425
21
-4.69882
0
LINE
8
BLACK
6
CONTINUOUS
10
8.13425
20
-4.69882
11
8.13425
21
-4.63189
0
LINE
8
BLACK
6
CONTINUOUS
10
8.13425
20
-4.63189
11
8.1628
21
-4.63189
0
LINE
8
BLACK
6
CONTINUOUS
10
8.1628
20
-4.63189
11
8.1628
21
-4.47441
0
LINE
8
BLACK
6
CONTINUOUS
10
8.1628
20
-4.47441
11
8.1565
21
-4.47441
0
LINE
8
BLACK
6
CONTINUOUS
10
8.1565
20
-4.47441
11
8.15318
21
-4.47397
0
LINE
8
BLACK
6
CONTINUOUS
10
8.15318
20
-4.47397
11
8.14916
21
-4.4721
0
LINE
8
BLACK
6
CONTINUOUS
10
8.14916
20
-4.4721
11
8.14601
21
-4.46895
0
LINE
8
BLACK
6
CONTINUOUS
10
8.14601
20
-4.46895
11
8.14414
21
-4.46493
0
LINE
8
BLACK
6
CONTINUOUS
10
8.14414
20
-4.46493
11
8.1437
21
-4.46161
0
LINE
8
BLACK
6
CONTINUOUS
10
8.1437
20
-4.46161
11
8.1437
21
-4.45374
0
LINE
8
BLACK
6
CONTINUOUS
10
8.1437
20
-4.45374
11
8.01772
21
-4.45374
0
LINE
8
BLACK
6
CONTINUOUS
10
8.01772
20
-4.45374
11
8.01772
21
-4.46161
0
LINE
8
BLACK
6
CONTINUOUS
10
8.01772
20
-4.46161
11
8.01728
21
-4.46493
0
LINE
8
BLACK
6
CONTINUOUS
10
8.01728
20
-4.46493
11
8.0154
21
-4.46895
0
LINE
8
BLACK
6
CONTINUOUS
10
8.0154
20
-4.46895
11
8.01226
21
-4.4721
0
LINE
8
BLACK
6
CONTINUOUS
10
8.01226
20
-4.4721
11
8.00823
21
-4.47397
0
LINE
8
BLACK
6
CONTINUOUS
10
8.00823
20
-4.47397
11
8.00492
21
-4.47441
0
LINE
8
BLACK
6
CONTINUOUS
10
8.00492
20
-4.47441
11
7.97933
21
-4.47441
0
LINE
8
BLACK
6
CONTINUOUS
10
7.97933
20
-4.47441
11
7.97602
21
-4.47397
0
LINE
8
BLACK
6
CONTINUOUS
10
7.97602
20
-4.47397
11
7.97199
21
-4.4721
0
LINE
8
BLACK
6
CONTINUOUS
10
7.97199
20
-4.4721
11
7.96885
21
-4.46895
0
LINE
8
BLACK
6
CONTINUOUS
10
7.96885
20
-4.46895
11
7.96697
21
-4.46493
0
LINE
8
BLACK
6
CONTINUOUS
10
7.96697
20
-4.46493
11
7.96654
21
-4.46161
0
LINE
8
BLACK
6
CONTINUOUS
10
7.96654
20
-4.46161
11
7.96654
21
-4.43602
0
LINE
8
BLACK
6
CONTINUOUS
10
7.96654
20
-4.43602
11
7.96697
21
-4.43271
0
LINE
8
BLACK
6
CONTINUOUS
10
7.96697
20
-4.43271
11
7.96885
21
-4.42868
0
LINE
8
BLACK
6
CONTINUOUS
10
7.96885
20
-4.42868
11
7.97199
21
-4.42554
0
LINE
8
BLACK
6
CONTINUOUS
10
7.97199
20
-4.42554
11
7.97602
21
-4.42366
0
LINE
8
BLACK
6
CONTINUOUS
10
7.97602
20
-4.42366
11
7.97933
21
-4.42323
0
LINE
8
BLACK
6
CONTINUOUS
10
7.97933
20
-4.42323
11
8.00492
21
-4.42323
0
LINE
8
BLACK
6
CONTINUOUS
10
8.00492
20
-4.42323
11
8.00823
21
-4.42366
0
LINE
8
BLACK
6
CONTINUOUS
10
8.00823
20
-4.26618
11
8.01226
21
-4.26806
0
LINE
8
BLACK
6
CONTINUOUS
10
8.01226
20
-4.26806
11
8.0154
21
-4.2712
0
LINE
8
BLACK
6
CONTINUOUS
10
8.0154
20
-4.2712
11
8.01728
21
-4.27523
0
LINE
8
BLACK
6
CONTINUOUS
10
8.01728
20
-4.27523
11
8.01772
21
-4.27854
0
LINE
8
BLACK
6
CONTINUOUS
10
8.01772
20
-4.27854
11
8.01772
21
-4.28642
0
LINE
8
BLACK
6
CONTINUOUS
10
8.01772
20
-4.28642
11
8.1437
21
-4.28642
0
LINE
8
BLACK
6
CONTINUOUS
10
8.1437
20
-4.28642
11
8.1437
21
-4.27854
0
LINE
8
BLACK
6
CONTINUOUS
10
8.1437
20
-4.27854
11
8.14414
21
-4.27523
0
LINE
8
BLACK
6
CONTINUOUS
10
8.14414
20
-4.27523
11
8.14601
21
-4.2712
0
LINE
8
BLACK
6
CONTINUOUS
10
8.14601
20
-4.2712
11
8.14916
21
-4.26806
0
LINE
8
BLACK
6
CONTINUOUS
10
8.14916
20
-4.26806
11
8.15318
21
-4.26618
0
LINE
8
BLACK
6
CONTINUOUS
10
8.15318
20
-4.26618
11
8.1565
21
-4.26575
0
LINE
8
BLACK
6
CONTINUOUS
10
8.1565
20
-4.26575
11
8.18209
21
-4.26575
0
LINE
8
BLACK
6
CONTINUOUS
10
8.18209
20
-4.26575
11
8.1854
21
-4.26618
0
LINE
8
BLACK
6
CONTINUOUS
10
8.1854
20
-4.26618
11
8.18943
21
-4.26806
0
LINE
8
BLACK
6
CONTINUOUS
10
8.18943
20
-4.26806
11
8.19257
21
-4.2712
0
LINE
8
BLACK
6
CONTINUOUS
10
8.19257
20
-4.2712
11
8.19445
21
-4.27523
0
LINE
8
BLACK
6
CONTINUOUS
10
8.19445
20
-4.27523
11
8.19488
21
-4.27854
0
LINE
8
BLACK
6
CONTINUOUS
10
8.19488
20
-4.27854
11
8.19488
21
-4.30413
0
LINE
8
BLACK
6
CONTINUOUS
10
8.19488
20
-4.30413
11
8.19445
21
-4.30745
0
LINE
8
BLACK
6
CONTINUOUS
10
8.19445
20
-4.30745
11
8.19257
21
-4.31147
0
LINE
8
BLACK
6
CONTINUOUS
10
8.19257
20
-4.31147
11
8.18943
21
-4.31462
0
LINE
8
BLACK
6
CONTINUOUS
10
8.18943
20
-4.31462
11
8.1854
21
-4.31649
0
LINE
8
BLACK
6
CONTINUOUS
10
8.1854
20
-4.31649
11
8.18209
21
-4.31693
0
LINE
8
BLACK
6
CONTINUOUS
10
8.18209
20
-4.31693
11
8.1565
21
-4.31693
0
LINE
8
BLACK
6
CONTINUOUS
10
8.1565
20
-4.31693
11
8.15318
21
-4.31649
0
LINE
8
BLACK
6
CONTINUOUS
10
8.15318
20
-4.31649
11
8.14916
21
-4.31462
0
LINE
8
BLACK
6
CONTINUOUS
10
8.14916
20
-4.31462
11
8.14601
21
-4.31147
0
LINE
8
BLACK
6
CONTINUOUS
10
8.14601
20
-4.31147
11
8.14414
21
-4.30745
0
LINE
8
BLACK
6
CONTINUOUS
10
8.14414
20
-4.30745
11
8.1437
21
-4.30413
0
LINE
8
BLACK
6
CONTINUOUS
10
8.1437
20
-4.30413
11
8.1437
21
-4.29626
0
LINE
8
BLACK
6
CONTINUOUS
10
8.1437
20
-4.29626
11
8.01772
21
-4.29626
0
LINE
8
BLACK
6
CONTINUOUS
10
8.01772
20
-4.29626
11
8.01772
21
-4.30413
0
LINE
8
BLACK
6
CONTINUOUS
10
8.01772
20
-4.30413
11
8.01728
21
-4.30745
0
LINE
8
BLACK
6
CONTINUOUS
10
8.01728
20
-4.30745
11
8.0154
21
-4.31147
0
LINE
8
BLACK
6
CONTINUOUS
10
8.0154
20
-4.31147
11
8.01226
21
-4.31462
0
LINE
8
BLACK
6
CONTINUOUS
10
8.01226
20
-4.31462
11
8.00823
21
-4.31649
0
LINE
8
BLACK
6
CONTINUOUS
10
8.00823
20
-4.31649
11
8.00492
21
-4.31693
0
LINE
8
BLACK
6
CONTINUOUS
10
8.00492
20
-4.31693
11
7.97933
21
-4.31693
0
LINE
8
BLACK
6
CONTINUOUS
10
7.97933
20
-4.31693
11
7.97602
21
-4.31649
0
LINE
8
BLACK
6
CONTINUOUS
10
7.97602
20
-4.31649
11
7.97199
21
-4.31462
0
LINE
8
BLACK
6
CONTINUOUS
10
7.97199
20
-4.31462
11
7.96885
21
-4.31147
0
LINE
8
BLACK
6
CONTINUOUS
10
7.96885
20
-4.31147
11
7.96697
21
-4.30745
0
LINE
8
BLACK
6
CONTINUOUS
10
7.96697
20
-4.30745
11
7.96654
21
-4.30413
0
LINE
8
BLACK
6
CONTINUOUS
10
7.96654
20
-4.30413
11
7.96654
21
-4.27854
0
LINE
8
BLACK
6
CONTINUOUS
10
7.96654
20
-4.27854
11
7.96697
21
-4.27523
0
LINE
8
BLACK
6
CONTINUOUS
10
7.96697
20
-4.27523
11
7.96885
21
-4.2712
0
LINE
8
BLACK
6
CONTINUOUS
10
7.96885
20
-4.2712
11
7.97199
21
-4.26806
0
LINE
8
BLACK
6
CONTINUOUS
10
7.97199
20
-4.26806
11
7.97602
21
-4.26618
0
LINE
8
BLACK
6
CONTINUOUS
10
7.97602
20
-4.26618
11
7.97933
21
-4.26575
0
LINE
8
BLACK
6
CONTINUOUS
10
7.97933
20
-4.26575
11
8.00492
21
-4.26575
0
LINE
8
BLACK
6
CONTINUOUS
10
8.00492
20
-4.26575
11
8.00823
21
-4.26618
0
LINE
8
BLACK
6
CONTINUOUS
10
7.77234
20
-4.23117
11
7.77756
21
-4.23313
0
LINE
8
BLACK
6
CONTINUOUS
10
7.77756
20
-4.23313
11
7.78203
21
-4.23647
0
LINE
8
BLACK
6
CONTINUOUS
10
7.78203
20
-4.23647
11
7.78538
21
-4.24094
0
LINE
8
BLACK
6
CONTINUOUS
10
7.78538
20
-4.24094
11
7.78734
21
-4.24617
0
LINE
8
BLACK
6
CONTINUOUS
10
7.78734
20
-4.24617
11
7.7878
21
-4.25039
0
LINE
8
BLACK
6
CONTINUOUS
10
7.7878
20
-4.25039
11
7.7878
21
-4.28976
0
LINE
8
BLACK
6
CONTINUOUS
10
7.7878
20
-4.28976
11
7.78734
21
-4.29399
0
LINE
8
BLACK
6
CONTINUOUS
10
7.78734
20
-4.29399
11
7.78538
21
-4.29922
0
LINE
8
BLACK
6
CONTINUOUS
10
7.78538
20
-4.29922
11
7.78203
21
-4.30368
0
LINE
8
BLACK
6
CONTINUOUS
10
7.78203
20
-4.30368
11
7.77756
21
-4.30703
0
LINE
8
BLACK
6
CONTINUOUS
10
7.77756
20
-4.30703
11
7.77234
21
-4.30899
0
LINE
8
BLACK
6
CONTINUOUS
10
7.77234
20
-4.30899
11
7.76811
21
-4.30945
0
LINE
8
BLACK
6
CONTINUOUS
10
7.76811
20
-4.30945
11
7.72874
21
-4.30945
0
LINE
8
BLACK
6
CONTINUOUS
10
7.72874
20
-4.30945
11
7.72451
21
-4.30899
0
LINE
8
BLACK
6
CONTINUOUS
10
7.72451
20
-4.30899
11
7.71929
21
-4.30703
0
LINE
8
BLACK
6
CONTINUOUS
10
7.71929
20
-4.30703
11
7.71482
21
-4.30368
0
LINE
8
BLACK
6
CONTINUOUS
10
7.71482
20
-4.30368
11
7.71147
21
-4.29922
0
LINE
8
BLACK
6
CONTINUOUS
10
7.71147
20
-4.29922
11
7.70951
21
-4.29399
0
LINE
8
BLACK
6
CONTINUOUS
10
7.70951
20
-4.29399
11
7.70906
21
-4.28976
0
LINE
8
BLACK
6
CONTINUOUS
10
7.70906
20
-4.28976
11
7.70906
21
-4.25039
0
LINE
8
BLACK
6
CONTINUOUS
10
7.70906
20
-4.25039
11
7.70951
21
-4.24617
0
LINE
8
BLACK
6
CONTINUOUS
10
7.70951
20
-4.24617
11
7.71147
21
-4.24094
0
LINE
8
BLACK
6
CONTINUOUS
10
7.71147
20
-4.24094
11
7.71482
21
-4.23647
0
LINE
8
BLACK
6
CONTINUOUS
10
7.71482
20
-4.23647
11
7.71929
21
-4.23313
0
LINE
8
BLACK
6
CONTINUOUS
10
7.71929
20
-4.23313
11
7.72451
21
-4.23117
0
LINE
8
BLACK
6
CONTINUOUS
10
7.72451
20
-4.23117
11
7.72874
21
-4.23071
0
LINE
8
BLACK
6
CONTINUOUS
10
7.72874
20
-4.23071
11
7.76811
21
-4.23071
0
LINE
8
BLACK
6
CONTINUOUS
10
7.76811
20
-4.23071
11
7.77234
21
-4.23117
0
LINE
8
BLACK
6
CONTINUOUS
10
7.4878
20
-4.30945
11
7.40906
21
-4.30945
0
LINE
8
BLACK
6
CONTINUOUS
10
7.40906
20
-4.30945
11
7.40906
21
-4.23071
0
LINE
8
BLACK
6
CONTINUOUS
10
7.40906
20
-4.23071
11
7.4878
21
-4.23071
0
LINE
8
BLACK
6
CONTINUOUS
10
7.4878
20
-4.23071
11
7.4878
21
-4.30945
0
LINE
8
BLACK
6
CONTINUOUS
10
7.9902
20
-4.15435
11
7.99754
21
-4.15662
0
LINE
8
BLACK
6
CONTINUOUS
10
7.99754
20
-4.15662
11
8.0043
21
-4.16027
0
LINE
8
BLACK
6
CONTINUOUS
10
8.0043
20
-4.16027
11
8.01022
21
-4.16517
0
LINE
8
BLACK
6
CONTINUOUS
10
8.01022
20
-4.16517
11
8.01508
21
-4.17113
0
LINE
8
BLACK
6
CONTINUOUS
10
8.01508
20
-4.17113
11
8.01868
21
-4.17791
0
LINE
8
BLACK
6
CONTINUOUS
10
8.01868
20
-4.17791
11
8.0209
21
-4.18527
0
LINE
8
BLACK
6
CONTINUOUS
10
8.0209
20
-4.18527
11
8.02165
21
-4.19291
0
LINE
8
BLACK
6
CONTINUOUS
10
8.02165
20
-4.19291
11
8.02164
21
-4.19401
0
LINE
8
BLACK
6
CONTINUOUS
10
8.02164
20
-4.19401
11
8.02068
21
-4.20164
0
LINE
8
BLACK
6
CONTINUOUS
10
8.02068
20
-4.20164
11
8.01825
21
-4.20893
0
LINE
8
BLACK
6
CONTINUOUS
10
8.01825
20
-4.20893
11
8.01445
21
-4.21561
0
LINE
8
BLACK
6
CONTINUOUS
10
8.01445
20
-4.21561
11
8.00943
21
-4.22142
0
LINE
8
BLACK
6
CONTINUOUS
10
8.00943
20
-4.22142
11
8.00338
21
-4.22615
0
LINE
8
BLACK
6
CONTINUOUS
10
8.00338
20
-4.22615
11
7.99652
21
-4.22962
0
LINE
8
BLACK
6
CONTINUOUS
10
7.99652
20
-4.22962
11
7.98912
21
-4.23169
0
LINE
8
BLACK
6
CONTINUOUS
10
7.98912
20
-4.23169
11
7.98146
21
-4.23227
0
LINE
8
BLACK
6
CONTINUOUS
10
7.98146
20
-4.23227
11
7.97383
21
-4.23137
0
LINE
8
BLACK
6
CONTINUOUS
10
7.97383
20
-4.23137
11
7.96652
21
-4.22899
0
LINE
8
BLACK
6
CONTINUOUS
10
7.96652
20
-4.22899
11
7.95981
21
-4.22524
0
LINE
8
BLACK
6
CONTINUOUS
10
7.95981
20
-4.22524
11
7.95396
21
-4.22026
0
LINE
8
BLACK
6
CONTINUOUS
10
7.95396
20
-4.22026
11
7.94919
21
-4.21424
0
LINE
8
BLACK
6
CONTINUOUS
10
7.94919
20
-4.21424
11
7.94568
21
-4.20741
0
LINE
8
BLACK
6
CONTINUOUS
10
7.94568
20
-4.20741
11
7.94356
21
-4.20002
0
LINE
8
BLACK
6
CONTINUOUS
10
7.94356
20
-4.20002
11
7.94292
21
-4.19236
0
LINE
8
BLACK
6
CONTINUOUS
10
7.94292
20
-4.19236
11
7.94377
21
-4.18473
0
LINE
8
BLACK
6
CONTINUOUS
10
7.94377
20
-4.18473
11
7.9461
21
-4.1774
0
LINE
8
BLACK
6
CONTINUOUS
10
7.9461
20
-4.1774
11
7.9498
21
-4.17067
0
LINE
8
BLACK
6
CONTINUOUS
10
7.9498
20
-4.17067
11
7.95474
21
-4.16478
0
LINE
8
BLACK
6
CONTINUOUS
10
7.95474
20
-4.16478
11
7.96073
21
-4.15997
0
LINE
8
BLACK
6
CONTINUOUS
10
7.96073
20
-4.15997
11
7.96754
21
-4.15641
0
LINE
8
BLACK
6
CONTINUOUS
10
7.96754
20
-4.15641
11
7.97491
21
-4.15424
0
LINE
8
BLACK
6
CONTINUOUS
10
7.97491
20
-4.15424
11
7.98256
21
-4.15354
0
LINE
8
BLACK
6
CONTINUOUS
10
7.98256
20
-4.15354
11
7.9902
21
-4.15435
0
LINE
8
BLACK
6
CONTINUOUS
10
8.41372
20
-4.693
11
8.41425
21
-4.69192
0
LINE
8
BLACK
6
CONTINUOUS
10
8.41425
20
-4.69192
11
8.41753
21
-4.68529
0
LINE
8
BLACK
6
CONTINUOUS
10
8.41753
20
-4.68529
11
8.41753
21
-4.68529
0
LINE
8
BLACK
6
CONTINUOUS
10
8.41753
20
-4.68529
11
8.41762
21
-4.68511
0
LINE
8
BLACK
6
CONTINUOUS
10
8.41762
20
-4.68511
11
8.42017
21
-4.6767
0
LINE
8
BLACK
6
CONTINUOUS
10
8.42017
20
-4.6767
11
8.42132
21
-4.66798
0
LINE
8
BLACK
6
CONTINUOUS
10
8.42132
20
-4.66798
11
8.42138
21
-4.66535
0
LINE
8
BLACK
6
CONTINUOUS
10
8.42138
20
-4.66535
11
8.42066
21
-4.65659
0
LINE
8
BLACK
6
CONTINUOUS
10
8.42066
20
-4.65659
11
8.41852
21
-4.64806
0
LINE
8
BLACK
6
CONTINUOUS
10
8.41852
20
-4.64806
11
8.41501
21
-4.63999
0
LINE
8
BLACK
6
CONTINUOUS
10
8.41501
20
-4.63999
11
8.41024
21
-4.63261
0
LINE
8
BLACK
6
CONTINUOUS
10
8.41024
20
-4.63261
11
8.40432
21
-4.6261
0
LINE
8
BLACK
6
CONTINUOUS
10
8.40432
20
-4.6261
11
8.40416
21
-4.62598
0
LINE
8
BLACK
6
CONTINUOUS
10
8.40416
20
-4.62598
11
8.40416
21
-4.62598
0
LINE
8
BLACK
6
CONTINUOUS
10
8.40416
20
-4.62598
11
8.39758
21
-4.62078
0
LINE
8
BLACK
6
CONTINUOUS
10
8.39758
20
-4.62078
11
8.39758
21
-4.62078
0
LINE
8
BLACK
6
CONTINUOUS
10
8.39758
20
-4.62078
11
8.39742
21
-4.62065
0
LINE
8
BLACK
6
CONTINUOUS
10
8.39742
20
-4.62065
11
8.39599
21
-4.61986
0
LINE
8
BLACK
6
CONTINUOUS
10
8.39599
20
-4.61986
11
8.39536
21
-4.61952
0
LINE
8
BLACK
6
CONTINUOUS
10
8.39536
20
-4.61952
11
8.38972
21
-4.6164
0
LINE
8
BLACK
6
CONTINUOUS
10
8.38972
20
-4.6164
11
8.38952
21
-4.61634
0
LINE
8
BLACK
6
CONTINUOUS
10
8.38952
20
-4.61634
11
8.38952
21
-4.61634
0
LINE
8
BLACK
6
CONTINUOUS
10
8.38952
20
-4.61634
11
8.38162
21
-4.61354
0
LINE
8
BLACK
6
CONTINUOUS
10
8.38162
20
-4.61354
11
8.38162
21
-4.61354
0
LINE
8
BLACK
6
CONTINUOUS
10
8.38162
20
-4.61354
11
8.38143
21
-4.61347
0
LINE
8
BLACK
6
CONTINUOUS
10
8.38143
20
-4.61347
11
8.38123
21
-4.61343
0
LINE
8
BLACK
6
CONTINUOUS
10
8.38123
20
-4.61343
11
8.38123
21
-4.61343
0
LINE
8
BLACK
6
CONTINUOUS
10
8.38123
20
-4.61343
11
8.37297
21
-4.61196
0
LINE
8
BLACK
6
CONTINUOUS
10
8.37297
20
-4.61196
11
8.37297
21
-4.61196
0
LINE
8
BLACK
6
CONTINUOUS
10
8.37297
20
-4.61196
11
8.37277
21
-4.61192
0
LINE
8
BLACK
6
CONTINUOUS
10
8.37277
20
-4.61192
11
8.36986
21
-4.61189
0
LINE
8
BLACK
6
CONTINUOUS
10
8.36986
20
-4.61189
11
8.36418
21
-4.61182
0
LINE
8
BLACK
6
CONTINUOUS
10
8.36418
20
-4.61182
11
8.36418
21
-4.61182
0
LINE
8
BLACK
6
CONTINUOUS
10
8.36418
20
-4.61182
11
8.36397
21
-4.61182
0
LINE
8
BLACK
6
CONTINUOUS
10
8.36397
20
-4.61182
11
8.35528
21
-4.61315
0
LINE
8
BLACK
6
CONTINUOUS
10
8.35528
20
-4.61315
11
8.34692
21
-4.61588
0
LINE
8
BLACK
6
CONTINUOUS
10
8.34692
20
-4.61588
11
8.33912
21
-4.61994
0
LINE
8
BLACK
6
CONTINUOUS
10
8.33912
20
-4.61994
11
8.33896
21
-4.62006
0
LINE
8
BLACK
6
CONTINUOUS
10
8.33896
20
-4.62006
11
8.33896
21
-4.62006
0
LINE
8
BLACK
6
CONTINUOUS
10
8.33896
20
-4.62006
11
8.33225
21
-4.6251
0
LINE
8
BLACK
6
CONTINUOUS
10
8.33225
20
-4.6251
11
8.33209
21
-4.62522
0
LINE
8
BLACK
6
CONTINUOUS
10
8.33209
20
-4.62522
11
8.32601
21
-4.63158
0
LINE
8
BLACK
6
CONTINUOUS
10
8.32601
20
-4.63158
11
8.32589
21
-4.63175
0
LINE
8
BLACK
6
CONTINUOUS
10
8.32589
20
-4.63175
11
8.32589
21
-4.63175
0
LINE
8
BLACK
6
CONTINUOUS
10
8.32589
20
-4.63175
11
8.32177
21
-4.6378
0
LINE
8
BLACK
6
CONTINUOUS
10
8.32177
20
-4.6378
11
8.31961
21
-4.63957
0
LINE
8
BLACK
6
CONTINUOUS
10
8.31961
20
-4.63957
11
8.31683
21
-4.63989
0
LINE
8
BLACK
6
CONTINUOUS
10
8.31683
20
-4.63989
11
8.31432
21
-4.63866
0
LINE
8
BLACK
6
CONTINUOUS
10
8.31432
20
-4.63866
11
8.3135
21
-4.6377
0
LINE
8
BLACK
6
CONTINUOUS
10
8.3135
20
-4.6377
11
8.31033
21
-4.63279
0
LINE
8
BLACK
6
CONTINUOUS
10
8.31033
20
-4.63279
11
8.31008
21
-4.63247
0
LINE
8
BLACK
6
CONTINUOUS
10
8.31008
20
-4.63247
11
8.30444
21
-4.62627
0
LINE
8
BLACK
6
CONTINUOUS
10
8.30444
20
-4.62627
11
8.30414
21
-4.62599
0
LINE
8
BLACK
6
CONTINUOUS
10
8.30414
20
-4.62599
11
8.29756
21
-4.6208
0
LINE
8
BLACK
6
CONTINUOUS
10
8.29756
20
-4.6208
11
8.29723
21
-4.62057
0
LINE
8
BLACK
6
CONTINUOUS
10
8.29723
20
-4.62057
11
8.28989
21
-4.61652
0
LINE
8
BLACK
6
CONTINUOUS
10
8.28989
20
-4.61652
11
8.28952
21
-4.61635
0
LINE
8
BLACK
6
CONTINUOUS
10
8.28952
20
-4.61635
11
8.28161
21
-4.61355
0
LINE
8
BLACK
6
CONTINUOUS
10
8.28161
20
-4.61355
11
8.28122
21
-4.61345
0
LINE
8
BLACK
6
CONTINUOUS
10
8.28122
20
-4.61345
11
8.27842
21
-4.61295
0
LINE
8
BLACK
6
CONTINUOUS
10
8.27842
20
-4.61295
11
8.2779
21
-4.61301
0
LINE
8
BLACK
6
CONTINUOUS
10
8.2779
20
-4.61301
11
8.27772
21
-4.61358
0
LINE
8
BLACK
6
CONTINUOUS
10
8.27772
20
-4.61358
11
8.27772
21
-4.63346
0
LINE
8
BLACK
6
CONTINUOUS
10
8.27772
20
-4.63346
11
8.27806
21
-4.63353
0
LINE
8
BLACK
6
CONTINUOUS
10
8.27806
20
-4.63353
11
8.28445
21
-4.63637
0
LINE
8
BLACK
6
CONTINUOUS
10
8.28445
20
-4.63637
11
8.29011
21
-4.64049
0
LINE
8
BLACK
6
CONTINUOUS
10
8.29011
20
-4.64049
11
8.29479
21
-4.64568
0
LINE
8
BLACK
6
CONTINUOUS
10
8.29479
20
-4.64568
11
8.29829
21
-4.65174
0
LINE
8
BLACK
6
CONTINUOUS
10
8.29829
20
-4.65174
11
8.30045
21
-4.6584
0
LINE
8
BLACK
6
CONTINUOUS
10
8.30045
20
-4.6584
11
8.30118
21
-4.66535
0
LINE
8
BLACK
6
CONTINUOUS
10
8.30118
20
-4.66535
11
8.30045
21
-4.67231
0
LINE
8
BLACK
6
CONTINUOUS
10
8.30045
20
-4.67231
11
8.29829
21
-4.67897
0
LINE
8
BLACK
6
CONTINUOUS
10
8.29829
20
-4.67897
11
8.29479
21
-4.68502
0
LINE
8
BLACK
6
CONTINUOUS
10
8.29479
20
-4.68502
11
8.29011
21
-4.69022
0
LINE
8
BLACK
6
CONTINUOUS
10
8.29011
20
-4.69022
11
8.28445
21
-4.69434
0
LINE
8
BLACK
6
CONTINUOUS
10
8.28445
20
-4.69434
11
8.27806
21
-4.69718
0
LINE
8
BLACK
6
CONTINUOUS
10
8.27806
20
-4.69718
11
8.27121
21
-4.69864
0
LINE
8
BLACK
6
CONTINUOUS
10
8.27121
20
-4.69864
11
8.26422
21
-4.69864
0
LINE
8
BLACK
6
CONTINUOUS
10
8.26422
20
-4.69864
11
8.25738
21
-4.69718
0
LINE
8
BLACK
6
CONTINUOUS
10
8.25738
20
-4.69718
11
8.25098
21
-4.69434
0
LINE
8
BLACK
6
CONTINUOUS
10
8.25098
20
-4.69434
11
8.24532
21
-4.69022
0
LINE
8
BLACK
6
CONTINUOUS
10
8.24532
20
-4.69022
11
8.24064
21
-4.68502
0
LINE
8
BLACK
6
CONTINUOUS
10
8.24064
20
-4.68502
11
8.23715
21
-4.67897
0
LINE
8
BLACK
6
CONTINUOUS
10
8.23715
20
-4.67897
11
8.23498
21
-4.67231
0
LINE
8
BLACK
6
CONTINUOUS
10
8.23498
20
-4.67231
11
8.23425
21
-4.66535
0
LINE
8
BLACK
6
CONTINUOUS
10
8.23425
20
-4.66535
11
8.23498
21
-4.6584
0
LINE
8
BLACK
6
CONTINUOUS
10
8.23498
20
-4.6584
11
8.23715
21
-4.65174
0
LINE
8
BLACK
6
CONTINUOUS
10
8.23715
20
-4.65174
11
8.24064
21
-4.64568
0
LINE
8
BLACK
6
CONTINUOUS
10
8.24064
20
-4.64568
11
8.24532
21
-4.64049
0
LINE
8
BLACK
6
CONTINUOUS
10
8.24532
20
-4.64049
11
8.25098
21
-4.63637
0
LINE
8
BLACK
6
CONTINUOUS
10
8.25098
20
-4.63637
11
8.25738
21
-4.63353
0
LINE
8
BLACK
6
CONTINUOUS
10
8.25738
20
-4.63353
11
8.25772
21
-4.63346
0
LINE
8
BLACK
6
CONTINUOUS
10
8.25772
20
-4.63346
11
8.25772
21
-4.61351
0
LINE
8
BLACK
6
CONTINUOUS
10
8.25772
20
-4.61351
11
8.25756
21
-4.61298
0
LINE
8
BLACK
6
CONTINUOUS
10
8.25756
20
-4.61298
11
8.257
21
-4.6129
0
LINE
8
BLACK
6
CONTINUOUS
10
8.257
20
-4.6129
11
8.25549
21
-4.61314
0
LINE
8
BLACK
6
CONTINUOUS
10
8.25549
20
-4.61314
11
8.25509
21
-4.61323
0
LINE
8
BLACK
6
CONTINUOUS
10
8.25509
20
-4.61323
11
8.24712
21
-4.61584
0
LINE
8
BLACK
6
CONTINUOUS
10
8.24712
20
-4.61584
11
8.24675
21
-4.61599
0
LINE
8
BLACK
6
CONTINUOUS
10
8.24675
20
-4.61599
11
8.23931
21
-4.61986
0
LINE
8
BLACK
6
CONTINUOUS
10
8.23931
20
-4.61986
11
8.23897
21
-4.62008
0
LINE
8
BLACK
6
CONTINUOUS
10
8.23897
20
-4.62008
11
8.23226
21
-4.62511
0
LINE
8
BLACK
6
CONTINUOUS
10
8.23226
20
-4.62511
11
8.23196
21
-4.62538
0
LINE
8
BLACK
6
CONTINUOUS
10
8.23196
20
-4.62538
11
8.22892
21
-4.62857
0
LINE
8
BLACK
6
CONTINUOUS
10
8.22892
20
-4.62857
11
8.22649
21
-4.62996
0
LINE
8
BLACK
6
CONTINUOUS
10
8.22649
20
-4.62996
11
8.2237
21
-4.62983
0
LINE
8
BLACK
6
CONTINUOUS
10
8.2237
20
-4.62983
11
8.22143
21
-4.6282
0
LINE
8
BLACK
6
CONTINUOUS
10
8.22143
20
-4.6282
11
8.22069
21
-4.62688
0
LINE
8
BLACK
6
CONTINUOUS
10
8.22069
20
-4.62688
11
8.21905
21
-4.62251
0
LINE
8
BLACK
6
CONTINUOUS
10
8.21905
20
-4.62251
11
8.21892
21
-4.62218
0
LINE
8
BLACK
6
CONTINUOUS
10
8.21892
20
-4.62218
11
8.21548
21
-4.61759
0
LINE
8
BLACK
6
CONTINUOUS
10
8.21548
20
-4.61759
11
8.21089
21
-4.61415
0
LINE
8
BLACK
6
CONTINUOUS
10
8.21089
20
-4.61415
11
8.20552
21
-4.61214
0
LINE
8
BLACK
6
CONTINUOUS
10
8.20552
20
-4.61214
11
8.20308
21
-4.61187
0
LINE
8
BLACK
6
CONTINUOUS
10
8.20308
20
-4.61187
11
8.19762
21
-4.61187
0
LINE
8
BLACK
6
CONTINUOUS
10
8.19762
20
-4.61187
11
8.19494
21
-4.61108
0
LINE
8
BLACK
6
CONTINUOUS
10
8.19494
20
-4.61108
11
8.19311
21
-4.60897
0
LINE
8
BLACK
6
CONTINUOUS
10
8.19311
20
-4.60897
11
8.19266
21
-4.60691
0
LINE
8
BLACK
6
CONTINUOUS
10
8.19266
20
-4.60691
11
8.19266
21
-4.49608
0
LINE
8
BLACK
6
CONTINUOUS
10
8.19266
20
-4.49608
11
8.19344
21
-4.4934
0
LINE
8
BLACK
6
CONTINUOUS
10
8.19344
20
-4.4934
11
8.19541
21
-4.49164
0
LINE
8
BLACK
6
CONTINUOUS
10
8.19541
20
-4.49164
11
8.19707
21
-4.49081
0
LINE
8
BLACK
6
CONTINUOUS
10
8.19707
20
-4.49081
11
8.19987
21
-4.48942
0
LINE
8
BLACK
6
CONTINUOUS
10
8.19987
20
-4.48942
11
8.20543
21
-4.48495
0
LINE
8
BLACK
6
CONTINUOUS
10
8.20543
20
-4.48495
11
8.20989
21
-4.4794
0
LINE
8
BLACK
6
CONTINUOUS
10
8.20989
20
-4.4794
11
8.21173
21
-4.47569
0
LINE
8
BLACK
6
CONTINUOUS
10
8.21173
20
-4.47569
11
8.21295
21
-4.47325
0
LINE
8
BLACK
6
CONTINUOUS
10
8.21295
20
-4.47325
11
8.21295
21
-4.47325
0
LINE
8
BLACK
6
CONTINUOUS
10
8.21295
20
-4.47325
11
8.21306
21
-4.47301
0
LINE
8
BLACK
6
CONTINUOUS
10
8.21306
20
-4.47301
11
8.21479
21
-4.46609
0
LINE
8
BLACK
6
CONTINUOUS
10
8.21479
20
-4.46609
11
8.21484
21
-4.46529
0
LINE
8
BLACK
6
CONTINUOUS
10
8.21484
20
-4.46529
11
8.2149
21
-4.46454
0
LINE
8
BLACK
6
CONTINUOUS
10
8.2149
20
-4.46454
11
8.2149
21
-4.46454
0
LINE
8
BLACK
6
CONTINUOUS
10
8.2149
20
-4.46454
11
8.2149
21
-4.46445
0
LINE
8
BLACK
6
CONTINUOUS
10
8.2149
20
-4.46445
11
8.2149
21
-4.43319
0
LINE
8
BLACK
6
CONTINUOUS
10
8.2149
20
-4.43319
11
8.21479
21
-4.43154
0
LINE
8
BLACK
6
CONTINUOUS
10
8.21479
20
-4.43154
11
8.21306
21
-4.42463
0
LINE
8
BLACK
6
CONTINUOUS
10
8.21306
20
-4.42463
11
8.21295
21
-4.42439
0
LINE
8
BLACK
6
CONTINUOUS
10
8.21295
20
-4.42439
11
8.21295
21
-4.42439
0
LINE
8
BLACK
6
CONTINUOUS
10
8.21295
20
-4.42439
11
8.21133
21
-4.42113
0
LINE
8
BLACK
6
CONTINUOUS
10
8.21133
20
-4.42113
11
8.20989
21
-4.41824
0
LINE
8
BLACK
6
CONTINUOUS
10
8.20989
20
-4.41824
11
8.20543
21
-4.41268
0
LINE
8
BLACK
6
CONTINUOUS
10
8.20543
20
-4.41268
11
8.20548
21
-4.41264
0
LINE
8
BLACK
6
CONTINUOUS
10
8.20548
20
-4.41264
11
8.20432
21
-4.4105
0
LINE
8
BLACK
6
CONTINUOUS
10
8.20432
20
-4.4105
11
8.20452
21
-4.40772
0
LINE
8
BLACK
6
CONTINUOUS
10
8.20452
20
-4.40772
11
8.20546
21
-4.40624
0
LINE
8
BLACK
6
CONTINUOUS
10
8.20546
20
-4.40624
11
8.20543
21
-4.40621
0
LINE
8
BLACK
6
CONTINUOUS
10
8.20543
20
-4.40621
11
8.20928
21
-4.40143
0
LINE
8
BLACK
6
CONTINUOUS
10
8.20928
20
-4.40143
11
8.20989
21
-4.40066
0
LINE
8
BLACK
6
CONTINUOUS
10
8.20989
20
-4.40066
11
8.21247
21
-4.39548
0
LINE
8
BLACK
6
CONTINUOUS
10
8.21247
20
-4.39548
11
8.21295
21
-4.39451
0
LINE
8
BLACK
6
CONTINUOUS
10
8.21295
20
-4.39451
11
8.21295
21
-4.39451
0
LINE
8
BLACK
6
CONTINUOUS
10
8.21295
20
-4.39451
11
8.21306
21
-4.39427
0
LINE
8
BLACK
6
CONTINUOUS
10
8.21306
20
-4.39427
11
8.21479
21
-4.38735
0
LINE
8
BLACK
6
CONTINUOUS
10
8.21479
20
-4.38735
11
8.2149
21
-4.38571
0
LINE
8
BLACK
6
CONTINUOUS
10
8.2149
20
-4.38571
11
8.2149
21
-4.35445
0
LINE
8
BLACK
6
CONTINUOUS
10
8.2149
20
-4.35445
11
8.21479
21
-4.3528
0
LINE
8
BLACK
6
CONTINUOUS
10
8.21479
20
-4.3528
11
8.21306
21
-4.34589
0
LINE
8
BLACK
6
CONTINUOUS
10
8.21306
20
-4.34589
11
8.21295
21
-4.34565
0
LINE
8
BLACK
6
CONTINUOUS
10
8.21295
20
-4.34565
11
8.21295
21
-4.34565
0
LINE
8
BLACK
6
CONTINUOUS
10
8.21295
20
-4.34565
11
8.21148
21
-4.34269
0
LINE
8
BLACK
6
CONTINUOUS
10
8.21148
20
-4.34269
11
8.20989
21
-4.3395
0
LINE
8
BLACK
6
CONTINUOUS
10
8.20989
20
-4.3395
11
8.20543
21
-4.33394
0
LINE
8
BLACK
6
CONTINUOUS
10
8.20543
20
-4.33394
11
8.20548
21
-4.3339
0
LINE
8
BLACK
6
CONTINUOUS
10
8.20548
20
-4.3339
11
8.20432
21
-4.33176
0
LINE
8
BLACK
6
CONTINUOUS
10
8.20432
20
-4.33176
11
8.20452
21
-4.32898
0
LINE
8
BLACK
6
CONTINUOUS
10
8.20452
20
-4.32898
11
8.20546
21
-4.3275
0
LINE
8
BLACK
6
CONTINUOUS
10
8.20546
20
-4.3275
11
8.20543
21
-4.32747
0
LINE
8
BLACK
6
CONTINUOUS
10
8.20543
20
-4.32747
11
8.20685
21
-4.3257
0
LINE
8
BLACK
6
CONTINUOUS
10
8.20685
20
-4.3257
11
8.20989
21
-4.32192
0
LINE
8
BLACK
6
CONTINUOUS
10
8.20989
20
-4.32192
11
8.21269
21
-4.31628
0
LINE
8
BLACK
6
CONTINUOUS
10
8.21269
20
-4.31628
11
8.21295
21
-4.31577
0
LINE
8
BLACK
6
CONTINUOUS
10
8.21295
20
-4.31577
11
8.21295
21
-4.31577
0
LINE
8
BLACK
6
CONTINUOUS
10
8.21295
20
-4.31577
11
8.21306
21
-4.31553
0
LINE
8
BLACK
6
CONTINUOUS
10
8.21306
20
-4.31553
11
8.21479
21
-4.30861
0
LINE
8
BLACK
6
CONTINUOUS
10
8.21479
20
-4.30861
11
8.21486
21
-4.30756
0
LINE
8
BLACK
6
CONTINUOUS
10
8.21486
20
-4.30756
11
8.2149
21
-4.30706
0
LINE
8
BLACK
6
CONTINUOUS
10
8.2149
20
-4.30706
11
8.2149
21
-4.30706
0
LINE
8
BLACK
6
CONTINUOUS
10
8.2149
20
-4.30706
11
8.2149
21
-4.30697
0
LINE
8
BLACK
6
CONTINUOUS
10
8.2149
20
-4.30697
11
8.2149
21
-4.27593
0
LINE
8
BLACK
6
CONTINUOUS
10
8.2149
20
-4.27593
11
8.21569
21
-4.27325
0
LINE
8
BLACK
6
CONTINUOUS
10
8.21569
20
-4.27325
11
8.2178
21
-4.27142
0
LINE
8
BLACK
6
CONTINUOUS
10
8.2178
20
-4.27142
11
8.22057
21
-4.27102
0
LINE
8
BLACK
6
CONTINUOUS
10
8.22057
20
-4.27102
11
8.22311
21
-4.27218
0
LINE
8
BLACK
6
CONTINUOUS
10
8.22311
20
-4.27218
11
8.22337
21
-4.27242
0
LINE
8
BLACK
6
CONTINUOUS
10
8.22337
20
-4.27242
11
8.33246
21
-4.38152
0
LINE
8
BLACK
6
CONTINUOUS
10
8.33246
20
-4.38152
11
8.3338
21
-4.38397
0
LINE
8
BLACK
6
CONTINUOUS
10
8.3338
20
-4.38397
11
8.33392
21
-4.38502
0
LINE
8
BLACK
6
CONTINUOUS
10
8.33392
20
-4.38502
11
8.33392
21
-4.39356
0
LINE
8
BLACK
6
CONTINUOUS
10
8.33392
20
-4.39356
11
8.33393
21
-4.3938
0
LINE
8
BLACK
6
CONTINUOUS
10
8.33393
20
-4.3938
11
8.33397
21
-4.39398
0
LINE
8
BLACK
6
CONTINUOUS
10
8.33397
20
-4.39398
11
8.33397
21
-4.39398
0
LINE
8
BLACK
6
CONTINUOUS
10
8.33397
20
-4.39398
11
8.33536
21
-4.40087
0
LINE
8
BLACK
6
CONTINUOUS
10
8.33536
20
-4.40087
11
8.33547
21
-4.40143
0
LINE
8
BLACK
6
CONTINUOUS
10
8.33547
20
-4.40143
11
8.33556
21
-4.40165
0
LINE
8
BLACK
6
CONTINUOUS
10
8.33556
20
-4.40165
11
8.33809
21
-4.40772
0
LINE
8
BLACK
6
CONTINUOUS
10
8.33809
20
-4.40772
11
8.33846
21
-4.40862
0
LINE
8
BLACK
6
CONTINUOUS
10
8.33846
20
-4.40862
11
8.3386
21
-4.40882
0
LINE
8
BLACK
6
CONTINUOUS
10
8.3386
20
-4.40882
11
8.3386
21
-4.40882
0
LINE
8
BLACK
6
CONTINUOUS
10
8.3386
20
-4.40882
11
8.34266
21
-4.41489
0
LINE
8
BLACK
6
CONTINUOUS
10
8.34266
20
-4.41489
11
8.34266
21
-4.41489
0
LINE
8
BLACK
6
CONTINUOUS
10
8.34266
20
-4.41489
11
8.34279
21
-4.41509
0
LINE
8
BLACK
6
CONTINUOUS
10
8.34279
20
-4.41509
11
8.34428
21
-4.41657
0
LINE
8
BLACK
6
CONTINUOUS
10
8.34428
20
-4.41657
11
8.34562
21
-4.41902
0
LINE
8
BLACK
6
CONTINUOUS
10
8.34562
20
-4.41902
11
8.34542
21
-4.42181
0
LINE
8
BLACK
6
CONTINUOUS
10
8.34542
20
-4.42181
11
8.34428
21
-4.42359
0
LINE
8
BLACK
6
CONTINUOUS
10
8.34428
20
-4.42359
11
8.34279
21
-4.42507
0
LINE
8
BLACK
6
CONTINUOUS
10
8.34279
20
-4.42507
11
8.34266
21
-4.42527
0
LINE
8
BLACK
6
CONTINUOUS
10
8.34266
20
-4.42527
11
8.34266
21
-4.42527
0
LINE
8
BLACK
6
CONTINUOUS
10
8.34266
20
-4.42527
11
8.3386
21
-4.43134
0
LINE
8
BLACK
6
CONTINUOUS
10
8.3386
20
-4.43134
11
8.3386
21
-4.43134
0
LINE
8
BLACK
6
CONTINUOUS
10
8.3386
20
-4.43134
11
8.33846
21
-4.43154
0
LINE
8
BLACK
6
CONTINUOUS
10
8.33846
20
-4.43154
11
8.33547
21
-4.43873
0
LINE
8
BLACK
6
CONTINUOUS
10
8.33547
20
-4.43873
11
8.33393
21
-4.44636
0
LINE
8
BLACK
6
CONTINUOUS
10
8.33393
20
-4.44636
11
8.33392
21
-4.4466
0
LINE
8
BLACK
6
CONTINUOUS
10
8.33392
20
-4.4466
11
8.33392
21
-4.49356
0
LINE
8
BLACK
6
CONTINUOUS
10
8.33392
20
-4.49356
11
8.33393
21
-4.4938
0
LINE
8
BLACK
6
CONTINUOUS
10
8.33393
20
-4.4938
11
8.33397
21
-4.49398
0
LINE
8
BLACK
6
CONTINUOUS
10
8.33397
20
-4.49398
11
8.33397
21
-4.49398
0
LINE
8
BLACK
6
CONTINUOUS
10
8.33397
20
-4.49398
11
8.33439
21
-4.49608
0
LINE
8
BLACK
6
CONTINUOUS
10
8.33439
20
-4.49608
11
8.33547
21
-4.50143
0
LINE
8
BLACK
6
CONTINUOUS
10
8.33547
20
-4.50143
11
8.33846
21
-4.50862
0
LINE
8
BLACK
6
CONTINUOUS
10
8.33846
20
-4.50862
11
8.3386
21
-4.50882
0
LINE
8
BLACK
6
CONTINUOUS
10
8.3386
20
-4.50882
11
8.3386
21
-4.50882
0
LINE
8
BLACK
6
CONTINUOUS
10
8.3386
20
-4.50882
11
8.34266
21
-4.51489
0
LINE
8
BLACK
6
CONTINUOUS
10
8.34266
20
-4.51489
11
8.34266
21
-4.51489
0
LINE
8
BLACK
6
CONTINUOUS
10
8.34266
20
-4.51489
11
8.34279
21
-4.51509
0
LINE
8
BLACK
6
CONTINUOUS
10
8.34279
20
-4.51509
11
8.3483
21
-4.52059
0
LINE
8
BLACK
6
CONTINUOUS
10
8.3483
20
-4.52059
11
8.3485
21
-4.52073
0
LINE
8
BLACK
6
CONTINUOUS
10
8.3485
20
-4.52073
11
8.3485
21
-4.52073
0
LINE
8
BLACK
6
CONTINUOUS
10
8.3485
20
-4.52073
11
8.35457
21
-4.52479
0
LINE
8
BLACK
6
CONTINUOUS
10
8.35457
20
-4.52479
11
8.35457
21
-4.52479
0
LINE
8
BLACK
6
CONTINUOUS
10
8.35457
20
-4.52479
11
8.35477
21
-4.52492
0
LINE
8
BLACK
6
CONTINUOUS
10
8.35477
20
-4.52492
11
8.36196
21
-4.52792
0
LINE
8
BLACK
6
CONTINUOUS
10
8.36196
20
-4.52792
11
8.36219
21
-4.52797
0
LINE
8
BLACK
6
CONTINUOUS
10
8.36219
20
-4.52797
11
8.3622
21
-4.52797
0
LINE
8
BLACK
6
CONTINUOUS
10
8.3622
20
-4.52797
11
8.36941
21
-4.52942
0
LINE
8
BLACK
6
CONTINUOUS
10
8.36941
20
-4.52942
11
8.36959
21
-4.52946
0
LINE
8
BLACK
6
CONTINUOUS
10
8.36959
20
-4.52946
11
8.36983
21
-4.52947
0
LINE
8
BLACK
6
CONTINUOUS
10
8.36983
20
-4.52947
11
8.41678
21
-4.52947
0
LINE
8
BLACK
6
CONTINUOUS
10
8.41678
20
-4.52947
11
8.41702
21
-4.52946
0
LINE
8
BLACK
6
CONTINUOUS
10
8.41702
20
-4.52946
11
8.4172
21
-4.52942
0
LINE
8
BLACK
6
CONTINUOUS
10
8.4172
20
-4.52942
11
8.42442
21
-4.52797
0
LINE
8
BLACK
6
CONTINUOUS
10
8.42442
20
-4.52797
11
8.42442
21
-4.52797
0
LINE
8
BLACK
6
CONTINUOUS
10
8.42442
20
-4.52797
11
8.42466
21
-4.52792
0
LINE
8
BLACK
6
CONTINUOUS
10
8.42466
20
-4.52792
11
8.43185
21
-4.52492
0
LINE
8
BLACK
6
CONTINUOUS
10
8.43185
20
-4.52492
11
8.43205
21
-4.52479
0
LINE
8
BLACK
6
CONTINUOUS
10
8.43205
20
-4.52479
11
8.43205
21
-4.52479
0
LINE
8
BLACK
6
CONTINUOUS
10
8.43205
20
-4.52479
11
8.43811
21
-4.52073
0
LINE
8
BLACK
6
CONTINUOUS
10
8.43811
20
-4.52073
11
8.43811
21
-4.52073
0
LINE
8
BLACK
6
CONTINUOUS
10
8.43811
20
-4.52073
11
8.43832
21
-4.52059
0
LINE
8
BLACK
6
CONTINUOUS
10
8.43832
20
-4.52059
11
8.44382
21
-4.51509
0
LINE
8
BLACK
6
CONTINUOUS
10
8.44382
20
-4.51509
11
8.44396
21
-4.51489
0
LINE
8
BLACK
6
CONTINUOUS
10
8.44396
20
-4.51489
11
8.44396
21
-4.51489
0
LINE
8
BLACK
6
CONTINUOUS
10
8.44396
20
-4.51489
11
8.44802
21
-4.50882
0
LINE
8
BLACK
6
CONTINUOUS
10
8.44802
20
-4.50882
11
8.44802
21
-4.50882
0
LINE
8
BLACK
6
CONTINUOUS
10
8.44802
20
-4.50882
11
8.44815
21
-4.50862
0
LINE
8
BLACK
6
CONTINUOUS
10
8.44815
20
-4.50862
11
8.45115
21
-4.50143
0
LINE
8
BLACK
6
CONTINUOUS
10
8.45115
20
-4.50143
11
8.45222
21
-4.49608
0
LINE
8
BLACK
6
CONTINUOUS
10
8.45222
20
-4.49608
11
8.45265
21
-4.49398
0
LINE
8
BLACK
6
CONTINUOUS
10
8.45265
20
-4.49398
11
8.45265
21
-4.49398
0
LINE
8
BLACK
6
CONTINUOUS
10
8.45265
20
-4.49398
11
8.45268
21
-4.4938
0
LINE
8
BLACK
6
CONTINUOUS
10
8.45268
20
-4.4938
11
8.4527
21
-4.49356
0
LINE
8
BLACK
6
CONTINUOUS
10
8.4527
20
-4.49356
11
8.4527
21
-4.4466
0
LINE
8
BLACK
6
CONTINUOUS
10
8.4527
20
-4.4466
11
8.45268
21
-4.44636
0
LINE
8
BLACK
6
CONTINUOUS
10
8.45268
20
-4.44636
11
8.45115
21
-4.43873
0
LINE
8
BLACK
6
CONTINUOUS
10
8.45115
20
-4.43873
11
8.44815
21
-4.43154
0
LINE
8
BLACK
6
CONTINUOUS
10
8.44815
20
-4.43154
11
8.44802
21
-4.43134
0
LINE
8
BLACK
6
CONTINUOUS
10
8.44802
20
-4.43134
11
8.44802
21
-4.43134
0
LINE
8
BLACK
6
CONTINUOUS
10
8.44802
20
-4.43134
11
8.44396
21
-4.42527
0
LINE
8
BLACK
6
CONTINUOUS
10
8.44396
20
-4.42527
11
8.44396
21
-4.42527
0
LINE
8
BLACK
6
CONTINUOUS
10
8.44396
20
-4.42527
11
8.44382
21
-4.42507
0
LINE
8
BLACK
6
CONTINUOUS
10
8.44382
20
-4.42507
11
8.44234
21
-4.42359
0
LINE
8
BLACK
6
CONTINUOUS
10
8.44234
20
-4.42359
11
8.441
21
-4.42113
0
LINE
8
BLACK
6
CONTINUOUS
10
8.441
20
-4.42113
11
8.4412
21
-4.41835
0
LINE
8
BLACK
6
CONTINUOUS
10
8.4412
20
-4.41835
11
8.44234
21
-4.41657
0
LINE
8
BLACK
6
CONTINUOUS
10
8.44234
20
-4.41657
11
8.44382
21
-4.41509
0
LINE
8
BLACK
6
CONTINUOUS
10
8.44382
20
-4.41509
11
8.44396
21
-4.41489
0
LINE
8
BLACK
6
CONTINUOUS
10
8.44396
20
-4.41489
11
8.44396
21
-4.41489
0
LINE
8
BLACK
6
CONTINUOUS
10
8.44396
20
-4.41489
11
8.44802
21
-4.40882
0
LINE
8
BLACK
6
CONTINUOUS
10
8.44802
20
-4.40882
11
8.44802
21
-4.40882
0
LINE
8
BLACK
6
CONTINUOUS
10
8.44802
20
-4.40882
11
8.44815
21
-4.40862
0
LINE
8
BLACK
6
CONTINUOUS
10
8.44815
20
-4.40862
11
8.44853
21
-4.40772
0
LINE
8
BLACK
6
CONTINUOUS
10
8.44853
20
-4.40772
11
8.45105
21
-4.40165
0
LINE
8
BLACK
6
CONTINUOUS
10
8.45105
20
-4.40165
11
8.45115
21
-4.40143
0
LINE
8
BLACK
6
CONTINUOUS
10
8.45115
20
-4.40143
11
8.45135
21
-4.40042
0
LINE
8
BLACK
6
CONTINUOUS
10
8.45135
20
-4.40042
11
8.45164
21
-4.399
0
LINE
8
BLACK
6
CONTINUOUS
10
8.45164
20
-4.399
11
8.45294
21
-4.39653
0
LINE
8
BLACK
6
CONTINUOUS
10
8.45294
20
-4.39653
11
8.45537
21
-4.39515
0
LINE
8
BLACK
6
CONTINUOUS
10
8.45537
20
-4.39515
11
8.4565
21
-4.39502
0
LINE
8
BLACK
6
CONTINUOUS
10
8.4565
20
-4.39502
11
8.63012
21
-4.39502
0
LINE
8
BLACK
6
CONTINUOUS
10
8.63012
20
-4.39502
11
8.6328
21
-4.39581
0
LINE
8
BLACK
6
CONTINUOUS
10
8.6328
20
-4.39581
11
8.63463
21
-4.39792
0
LINE
8
BLACK
6
CONTINUOUS
10
8.63463
20
-4.39792
11
8.63498
21
-4.399
0
LINE
8
BLACK
6
CONTINUOUS
10
8.63498
20
-4.399
11
8.63526
21
-4.40042
0
LINE
8
BLACK
6
CONTINUOUS
10
8.63526
20
-4.40042
11
8.63547
21
-4.40143
0
LINE
8
BLACK
6
CONTINUOUS
10
8.63547
20
-4.40143
11
8.63556
21
-4.40165
0
LINE
8
BLACK
6
CONTINUOUS
10
8.63556
20
-4.40165
11
8.63809
21
-4.40772
0
LINE
8
BLACK
6
CONTINUOUS
10
8.63809
20
-4.40772
11
8.63846
21
-4.40862
0
LINE
8
BLACK
6
CONTINUOUS
10
8.63846
20
-4.40862
11
8.6386
21
-4.40882
0
LINE
8
BLACK
6
CONTINUOUS
10
8.6386
20
-4.40882
11
8.6386
21
-4.40882
0
LINE
8
BLACK
6
CONTINUOUS
10
8.6386
20
-4.40882
11
8.64266
21
-4.41489
0
LINE
8
BLACK
6
CONTINUOUS
10
8.64266
20
-4.41489
11
8.64266
21
-4.41489
0
LINE
8
BLACK
6
CONTINUOUS
10
8.64266
20
-4.41489
11
8.64279
21
-4.41509
0
LINE
8
BLACK
6
CONTINUOUS
10
8.64279
20
-4.41509
11
8.64428
21
-4.41657
0
LINE
8
BLACK
6
CONTINUOUS
10
8.64428
20
-4.41657
11
8.64562
21
-4.41902
0
LINE
8
BLACK
6
CONTINUOUS
10
8.64562
20
-4.41902
11
8.64542
21
-4.42181
0
LINE
8
BLACK
6
CONTINUOUS
10
8.64542
20
-4.42181
11
8.64428
21
-4.42359
0
LINE
8
BLACK
6
CONTINUOUS
10
8.64428
20
-4.42359
11
8.64279
21
-4.42507
0
LINE
8
BLACK
6
CONTINUOUS
10
8.64279
20
-4.42507
11
8.64266
21
-4.42527
0
LINE
8
BLACK
6
CONTINUOUS
10
8.64266
20
-4.42527
11
8.64266
21
-4.42527
0
LINE
8
BLACK
6
CONTINUOUS
10
8.64266
20
-4.42527
11
8.6386
21
-4.43134
0
LINE
8
BLACK
6
CONTINUOUS
10
8.6386
20
-4.43134
11
8.6386
21
-4.43134
0
LINE
8
BLACK
6
CONTINUOUS
10
8.6386
20
-4.43134
11
8.63846
21
-4.43154
0
LINE
8
BLACK
6
CONTINUOUS
10
8.63846
20
-4.43154
11
8.63547
21
-4.43873
0
LINE
8
BLACK
6
CONTINUOUS
10
8.63547
20
-4.43873
11
8.63393
21
-4.44636
0
LINE
8
BLACK
6
CONTINUOUS
10
8.63393
20
-4.44636
11
8.63392
21
-4.4466
0
LINE
8
BLACK
6
CONTINUOUS
10
8.63392
20
-4.4466
11
8.63392
21
-4.49356
0
LINE
8
BLACK
6
CONTINUOUS
10
8.63392
20
-4.49356
11
8.63393
21
-4.4938
0
LINE
8
BLACK
6
CONTINUOUS
10
8.63393
20
-4.4938
11
8.63397
21
-4.49398
0
LINE
8
BLACK
6
CONTINUOUS
10
8.63397
20
-4.49398
11
8.63397
21
-4.49398
0
LINE
8
BLACK
6
CONTINUOUS
10
8.63397
20
-4.49398
11
8.63439
21
-4.49608
0
LINE
8
BLACK
6
CONTINUOUS
10
8.63439
20
-4.49608
11
8.63547
21
-4.50143
0
LINE
8
BLACK
6
CONTINUOUS
10
8.63547
20
-4.50143
11
8.63846
21
-4.50862
0
LINE
8
BLACK
6
CONTINUOUS
10
8.63846
20
-4.50862
11
8.6386
21
-4.50882
0
LINE
8
BLACK
6
CONTINUOUS
10
8.6386
20
-4.50882
11
8.6386
21
-4.50882
0
LINE
8
BLACK
6
CONTINUOUS
10
8.6386
20
-4.50882
11
8.64266
21
-4.51489
0
LINE
8
BLACK
6
CONTINUOUS
10
8.64266
20
-4.51489
11
8.64266
21
-4.51489
0
LINE
8
BLACK
6
CONTINUOUS
10
8.64266
20
-4.51489
11
8.64279
21
-4.51509
0
LINE
8
BLACK
6
CONTINUOUS
10
8.64279
20
-4.51509
11
8.6483
21
-4.52059
0
LINE
8
BLACK
6
CONTINUOUS
10
8.6483
20
-4.52059
11
8.6485
21
-4.52073
0
LINE
8
BLACK
6
CONTINUOUS
10
8.6485
20
-4.52073
11
8.6485
21
-4.52073
0
LINE
8
BLACK
6
CONTINUOUS
10
8.6485
20
-4.52073
11
8.65457
21
-4.52479
0
LINE
8
BLACK
6
CONTINUOUS
10
8.65457
20
-4.52479
11
8.65457
21
-4.52479
0
LINE
8
BLACK
6
CONTINUOUS
10
8.65457
20
-4.52479
11
8.65477
21
-4.52492
0
LINE
8
BLACK
6
CONTINUOUS
10
8.65477
20
-4.52492
11
8.66196
21
-4.52792
0
LINE
8
BLACK
6
CONTINUOUS
10
8.66196
20
-4.52792
11
8.66219
21
-4.52797
0
LINE
8
BLACK
6
CONTINUOUS
10
8.66219
20
-4.52797
11
8.6622
21
-4.52797
0
LINE
8
BLACK
6
CONTINUOUS
10
8.6622
20
-4.52797
11
8.66941
21
-4.52942
0
LINE
8
BLACK
6
CONTINUOUS
10
8.66941
20
-4.52942
11
8.66959
21
-4.52946
0
LINE
8
BLACK
6
CONTINUOUS
10
8.66959
20
-4.52946
11
8.66983
21
-4.52947
0
LINE
8
BLACK
6
CONTINUOUS
10
8.66983
20
-4.52947
11
8.71678
21
-4.52947
0
LINE
8
BLACK
6
CONTINUOUS
10
8.71678
20
-4.52947
11
8.71702
21
-4.52946
0
LINE
8
BLACK
6
CONTINUOUS
10
8.71702
20
-4.52946
11
8.7172
21
-4.52942
0
LINE
8
BLACK
6
CONTINUOUS
10
8.7172
20
-4.52942
11
8.72442
21
-4.52797
0
LINE
8
BLACK
6
CONTINUOUS
10
8.72442
20
-4.52797
11
8.72442
21
-4.52797
0
LINE
8
BLACK
6
CONTINUOUS
10
8.72442
20
-4.52797
11
8.72466
21
-4.52792
0
LINE
8
BLACK
6
CONTINUOUS
10
8.72466
20
-4.52792
11
8.73185
21
-4.52492
0
LINE
8
BLACK
6
CONTINUOUS
10
8.73185
20
-4.52492
11
8.73205
21
-4.52479
0
LINE
8
BLACK
6
CONTINUOUS
10
8.73205
20
-4.52479
11
8.73205
21
-4.52479
0
LINE
8
BLACK
6
CONTINUOUS
10
8.73205
20
-4.52479
11
8.73811
21
-4.52073
0
LINE
8
BLACK
6
CONTINUOUS
10
8.73811
20
-4.52073
11
8.73811
21
-4.52073
0
LINE
8
BLACK
6
CONTINUOUS
10
8.73811
20
-4.52073
11
8.73832
21
-4.52059
0
LINE
8
BLACK
6
CONTINUOUS
10
8.73832
20
-4.52059
11
8.74382
21
-4.51509
0
LINE
8
BLACK
6
CONTINUOUS
10
8.74382
20
-4.51509
11
8.74396
21
-4.51489
0
LINE
8
BLACK
6
CONTINUOUS
10
8.74396
20
-4.51489
11
8.74396
21
-4.51489
0
LINE
8
BLACK
6
CONTINUOUS
10
8.74396
20
-4.51489
11
8.74802
21
-4.50882
0
LINE
8
BLACK
6
CONTINUOUS
10
8.74802
20
-4.50882
11
8.74802
21
-4.50882
0
LINE
8
BLACK
6
CONTINUOUS
10
8.74802
20
-4.50882
11
8.74815
21
-4.50862
0
LINE
8
BLACK
6
CONTINUOUS
10
8.74815
20
-4.50862
11
8.75115
21
-4.50143
0
LINE
8
BLACK
6
CONTINUOUS
10
8.75115
20
-4.50143
11
8.75222
21
-4.49608
0
LINE
8
BLACK
6
CONTINUOUS
10
8.75222
20
-4.49608
11
8.75265
21
-4.49398
0
LINE
8
BLACK
6
CONTINUOUS
10
8.75265
20
-4.49398
11
8.75265
21
-4.49398
0
LINE
8
BLACK
6
CONTINUOUS
10
8.75265
20
-4.49398
11
8.75268
21
-4.4938
0
LINE
8
BLACK
6
CONTINUOUS
10
8.75268
20
-4.4938
11
8.7527
21
-4.49356
0
LINE
8
BLACK
6
CONTINUOUS
10
8.7527
20
-4.49356
11
8.7527
21
-4.4466
0
LINE
8
BLACK
6
CONTINUOUS
10
8.7527
20
-4.4466
11
8.75268
21
-4.44636
0
LINE
8
BLACK
6
CONTINUOUS
10
8.75268
20
-4.44636
11
8.75115
21
-4.43873
0
LINE
8
BLACK
6
CONTINUOUS
10
8.75115
20
-4.43873
11
8.74815
21
-4.43154
0
LINE
8
BLACK
6
CONTINUOUS
10
8.74815
20
-4.43154
11
8.74802
21
-4.43134
0
LINE
8
BLACK
6
CONTINUOUS
10
8.74802
20
-4.43134
11
8.74802
21
-4.43134
0
LINE
8
BLACK
6
CONTINUOUS
10
8.74802
20
-4.43134
11
8.74396
21
-4.42527
0
LINE
8
BLACK
6
CONTINUOUS
10
8.74396
20
-4.42527
11
8.74396
21
-4.42527
0
LINE
8
BLACK
6
CONTINUOUS
10
8.74396
20
-4.42527
11
8.74382
21
-4.42507
0
LINE
8
BLACK
6
CONTINUOUS
10
8.74382
20
-4.42507
11
8.74234
21
-4.42359
0
LINE
8
BLACK
6
CONTINUOUS
10
8.74234
20
-4.42359
11
8.741
21
-4.42113
0
LINE
8
BLACK
6
CONTINUOUS
10
8.741
20
-4.42113
11
8.7412
21
-4.41835
0
LINE
8
BLACK
6
CONTINUOUS
10
8.7412
20
-4.41835
11
8.74234
21
-4.41657
0
LINE
8
BLACK
6
CONTINUOUS
10
8.74234
20
-4.41657
11
8.74382
21
-4.41509
0
LINE
8
BLACK
6
CONTINUOUS
10
8.74382
20
-4.41509
11
8.74396
21
-4.41489
0
LINE
8
BLACK
6
CONTINUOUS
10
8.74396
20
-4.41489
11
8.74396
21
-4.41489
0
LINE
8
BLACK
6
CONTINUOUS
10
8.74396
20
-4.41489
11
8.74802
21
-4.40882
0
LINE
8
BLACK
6
CONTINUOUS
10
8.74802
20
-4.40882
11
8.74802
21
-4.40882
0
LINE
8
BLACK
6
CONTINUOUS
10
8.74802
20
-4.40882
11
8.74815
21
-4.40862
0
LINE
8
BLACK
6
CONTINUOUS
10
8.74815
20
-4.40862
11
8.74853
21
-4.40772
0
LINE
8
BLACK
6
CONTINUOUS
10
8.74853
20
-4.40772
11
8.75105
21
-4.40165
0
LINE
8
BLACK
6
CONTINUOUS
10
8.75105
20
-4.40165
11
8.75115
21
-4.40143
0
LINE
8
BLACK
6
CONTINUOUS
10
8.75115
20
-4.40143
11
8.75126
21
-4.40087
0
LINE
8
BLACK
6
CONTINUOUS
10
8.75126
20
-4.40087
11
8.75265
21
-4.39398
0
LINE
8
BLACK
6
CONTINUOUS
10
8.75265
20
-4.39398
11
8.75265
21
-4.39398
0
LINE
8
BLACK
6
CONTINUOUS
10
8.75265
20
-4.39398
11
8.75268
21
-4.3938
0
LINE
8
BLACK
6
CONTINUOUS
10
8.75268
20
-4.3938
11
8.7527
21
-4.39356
0
LINE
8
BLACK
6
CONTINUOUS
10
8.7527
20
-4.39356
11
8.7527
21
-4.3466
0
LINE
8
BLACK
6
CONTINUOUS
10
8.7527
20
-4.3466
11
8.75268
21
-4.34636
0
LINE
8
BLACK
6
CONTINUOUS
10
8.75268
20
-4.34636
11
8.75265
21
-4.34618
0
LINE
8
BLACK
6
CONTINUOUS
10
8.75265
20
-4.34618
11
8.75119
21
-4.33897
0
LINE
8
BLACK
6
CONTINUOUS
10
8.75119
20
-4.33897
11
8.75119
21
-4.33897
0
LINE
8
BLACK
6
CONTINUOUS
10
8.75119
20
-4.33897
11
8.75115
21
-4.33873
0
LINE
8
BLACK
6
CONTINUOUS
10
8.75115
20
-4.33873
11
8.74864
21
-4.33271
0
LINE
8
BLACK
6
CONTINUOUS
10
8.74864
20
-4.33271
11
8.74825
21
-4.33176
0
LINE
8
BLACK
6
CONTINUOUS
10
8.74825
20
-4.33176
11
8.74815
21
-4.33154
0
LINE
8
BLACK
6
CONTINUOUS
10
8.74815
20
-4.33154
11
8.74802
21
-4.33134
0
LINE
8
BLACK
6
CONTINUOUS
10
8.74802
20
-4.33134
11
8.74802
21
-4.33134
0
LINE
8
BLACK
6
CONTINUOUS
10
8.74802
20
-4.33134
11
8.74396
21
-4.32527
0
LINE
8
BLACK
6
CONTINUOUS
10
8.74396
20
-4.32527
11
8.74396
21
-4.32527
0
LINE
8
BLACK
6
CONTINUOUS
10
8.74396
20
-4.32527
11
8.74382
21
-4.32507
0
LINE
8
BLACK
6
CONTINUOUS
10
8.74382
20
-4.32507
11
8.74234
21
-4.32359
0
LINE
8
BLACK
6
CONTINUOUS
10
8.74234
20
-4.32359
11
8.741
21
-4.32113
0
LINE
8
BLACK
6
CONTINUOUS
10
8.741
20
-4.32113
11
8.7412
21
-4.31835
0
LINE
8
BLACK
6
CONTINUOUS
10
8.7412
20
-4.31835
11
8.74234
21
-4.31657
0
LINE
8
BLACK
6
CONTINUOUS
10
8.74234
20
-4.31657
11
8.74382
21
-4.31509
0
LINE
8
BLACK
6
CONTINUOUS
10
8.74382
20
-4.31509
11
8.74396
21
-4.31489
0
LINE
8
BLACK
6
CONTINUOUS
10
8.74396
20
-4.31489
11
8.74396
21
-4.31489
0
LINE
8
BLACK
6
CONTINUOUS
10
8.74396
20
-4.31489
11
8.74802
21
-4.30882
0
LINE
8
BLACK
6
CONTINUOUS
10
8.74802
20
-4.30882
11
8.74802
21
-4.30882
0
LINE
8
BLACK
6
CONTINUOUS
10
8.74802
20
-4.30882
11
8.74815
21
-4.30862
0
LINE
8
BLACK
6
CONTINUOUS
10
8.74815
20
-4.30862
11
8.75115
21
-4.30143
0
LINE
8
BLACK
6
CONTINUOUS
10
8.75115
20
-4.30143
11
8.75134
21
-4.30045
0
LINE
8
BLACK
6
CONTINUOUS
10
8.75134
20
-4.30045
11
8.75265
21
-4.29398
0
LINE
8
BLACK
6
CONTINUOUS
10
8.75265
20
-4.29398
11
8.75265
21
-4.29398
0
LINE
8
BLACK
6
CONTINUOUS
10
8.75265
20
-4.29398
11
8.75268
21
-4.2938
0
LINE
8
BLACK
6
CONTINUOUS
10
8.75268
20
-4.2938
11
8.7527
21
-4.29356
0
LINE
8
BLACK
6
CONTINUOUS
10
8.7527
20
-4.29356
11
8.7527
21
-4.2466
0
LINE
8
BLACK
6
CONTINUOUS
10
8.7527
20
-4.2466
11
8.75268
21
-4.24636
0
LINE
8
BLACK
6
CONTINUOUS
10
8.75268
20
-4.24636
11
8.75265
21
-4.24618
0
LINE
8
BLACK
6
CONTINUOUS
10
8.75265
20
-4.24618
11
8.75119
21
-4.23897
0
LINE
8
BLACK
6
CONTINUOUS
10
8.75119
20
-4.23897
11
8.75119
21
-4.23897
0
LINE
8
BLACK
6
CONTINUOUS
10
8.75119
20
-4.23897
11
8.75115
21
-4.23873
0
LINE
8
BLACK
6
CONTINUOUS
10
8.75115
20
-4.23873
11
8.74815
21
-4.23154
0
LINE
8
BLACK
6
CONTINUOUS
10
8.74815
20
-4.23154
11
8.74802
21
-4.23134
0
LINE
8
BLACK
6
CONTINUOUS
10
8.74802
20
-4.23134
11
8.74802
21
-4.23134
0
LINE
8
BLACK
6
CONTINUOUS
10
8.74802
20
-4.23134
11
8.74396
21
-4.22527
0
LINE
8
BLACK
6
CONTINUOUS
10
8.74396
20
-4.22527
11
8.74396
21
-4.22527
0
LINE
8
BLACK
6
CONTINUOUS
10
8.74396
20
-4.22527
11
8.74382
21
-4.22507
0
LINE
8
BLACK
6
CONTINUOUS
10
8.74382
20
-4.22507
11
8.73832
21
-4.21956
0
LINE
8
BLACK
6
CONTINUOUS
10
8.73832
20
-4.21956
11
8.73811
21
-4.21943
0
LINE
8
BLACK
6
CONTINUOUS
10
8.73811
20
-4.21943
11
8.73811
21
-4.21943
0
LINE
8
BLACK
6
CONTINUOUS
10
8.73811
20
-4.21943
11
8.73205
21
-4.21537
0
LINE
8
BLACK
6
CONTINUOUS
10
8.73205
20
-4.21537
11
8.73205
21
-4.21537
0
LINE
8
BLACK
6
CONTINUOUS
10
8.73205
20
-4.21537
11
8.73185
21
-4.21523
0
LINE
8
BLACK
6
CONTINUOUS
10
8.73185
20
-4.21523
11
8.72466
21
-4.21224
0
LINE
8
BLACK
6
CONTINUOUS
10
8.72466
20
-4.21224
11
8.72442
21
-4.21219
0
LINE
8
BLACK
6
CONTINUOUS
10
8.72442
20
-4.21219
11
8.72442
21
-4.21219
0
LINE
8
BLACK
6
CONTINUOUS
10
8.72442
20
-4.21219
11
8.7172
21
-4.21074
0
LINE
8
BLACK
6
CONTINUOUS
10
8.7172
20
-4.21074
11
8.7172
21
-4.21074
0
LINE
8
BLACK
6
CONTINUOUS
10
8.7172
20
-4.21074
11
8.71702
21
-4.2107
0
LINE
8
BLACK
6
CONTINUOUS
10
8.71702
20
-4.2107
11
8.71678
21
-4.21069
0
LINE
8
BLACK
6
CONTINUOUS
10
8.71678
20
-4.21069
11
8.66983
21
-4.21069
0
LINE
8
BLACK
6
CONTINUOUS
10
8.66983
20
-4.21069
11
8.66959
21
-4.2107
0
LINE
8
BLACK
6
CONTINUOUS
10
8.66959
20
-4.2107
11
8.66941
21
-4.21074
0
LINE
8
BLACK
6
CONTINUOUS
10
8.66941
20
-4.21074
11
8.66941
21
-4.21074
0
LINE
8
BLACK
6
CONTINUOUS
10
8.66941
20
-4.21074
11
8.6622
21
-4.21219
0
LINE
8
BLACK
6
CONTINUOUS
10
8.6622
20
-4.21219
11
8.66219
21
-4.21219
0
LINE
8
BLACK
6
CONTINUOUS
10
8.66219
20
-4.21219
11
8.66196
21
-4.21224
0
LINE
8
BLACK
6
CONTINUOUS
10
8.66196
20
-4.21224
11
8.65477
21
-4.21523
0
LINE
8
BLACK
6
CONTINUOUS
10
8.65477
20
-4.21523
11
8.65457
21
-4.21537
0
LINE
8
BLACK
6
CONTINUOUS
10
8.65457
20
-4.21537
11
8.65457
21
-4.21537
0
LINE
8
BLACK
6
CONTINUOUS
10
8.65457
20
-4.21537
11
8.6485
21
-4.21943
0
LINE
8
BLACK
6
CONTINUOUS
10
8.6485
20
-4.21943
11
8.6485
21
-4.21943
0
LINE
8
BLACK
6
CONTINUOUS
10
8.6485
20
-4.21943
11
8.6483
21
-4.21956
0
LINE
8
BLACK
6
CONTINUOUS
10
8.6483
20
-4.21956
11
8.64279
21
-4.22507
0
LINE
8
BLACK
6
CONTINUOUS
10
8.64279
20
-4.22507
11
8.64266
21
-4.22527
0
LINE
8
BLACK
6
CONTINUOUS
10
8.64266
20
-4.22527
11
8.64266
21
-4.22527
0
LINE
8
BLACK
6
CONTINUOUS
10
8.64266
20
-4.22527
11
8.6386
21
-4.23134
0
LINE
8
BLACK
6
CONTINUOUS
10
8.6386
20
-4.23134
11
8.6386
21
-4.23134
0
LINE
8
BLACK
6
CONTINUOUS
10
8.6386
20
-4.23134
11
8.63846
21
-4.23154
0
LINE
8
BLACK
6
CONTINUOUS
10
8.63846
20
-4.23154
11
8.63547
21
-4.23873
0
LINE
8
BLACK
6
CONTINUOUS
10
8.63547
20
-4.23873
11
8.63542
21
-4.23897
0
LINE
8
BLACK
6
CONTINUOUS
10
8.63542
20
-4.23897
11
8.63542
21
-4.23897
0
LINE
8
BLACK
6
CONTINUOUS
10
8.63542
20
-4.23897
11
8.63397
21
-4.24618
0
LINE
8
BLACK
6
CONTINUOUS
10
8.63397
20
-4.24618
11
8.63393
21
-4.24636
0
LINE
8
BLACK
6
CONTINUOUS
10
8.63393
20
-4.24636
11
8.63392
21
-4.2466
0
LINE
8
BLACK
6
CONTINUOUS
10
8.63392
20
-4.2466
11
8.63392
21
-4.29356
0
LINE
8
BLACK
6
CONTINUOUS
10
8.63392
20
-4.29356
11
8.63393
21
-4.2938
0
LINE
8
BLACK
6
CONTINUOUS
10
8.63393
20
-4.2938
11
8.63397
21
-4.29398
0
LINE
8
BLACK
6
CONTINUOUS
10
8.63397
20
-4.29398
11
8.63397
21
-4.29398
0
LINE
8
BLACK
6
CONTINUOUS
10
8.63397
20
-4.29398
11
8.63527
21
-4.30045
0
LINE
8
BLACK
6
CONTINUOUS
10
8.63527
20
-4.30045
11
8.63547
21
-4.30143
0
LINE
8
BLACK
6
CONTINUOUS
10
8.63547
20
-4.30143
11
8.63846
21
-4.30862
0
LINE
8
BLACK
6
CONTINUOUS
10
8.63846
20
-4.30862
11
8.6386
21
-4.30882
0
LINE
8
BLACK
6
CONTINUOUS
10
8.6386
20
-4.30882
11
8.6386
21
-4.30882
0
LINE
8
BLACK
6
CONTINUOUS
10
8.6386
20
-4.30882
11
8.64266
21
-4.31489
0
LINE
8
BLACK
6
CONTINUOUS
10
8.64266
20
-4.31489
11
8.64266
21
-4.31489
0
LINE
8
BLACK
6
CONTINUOUS
10
8.64266
20
-4.31489
11
8.64279
21
-4.31509
0
LINE
8
BLACK
6
CONTINUOUS
10
8.64279
20
-4.31509
11
8.64428
21
-4.31657
0
LINE
8
BLACK
6
CONTINUOUS
10
8.64428
20
-4.31657
11
8.64562
21
-4.31902
0
LINE
8
BLACK
6
CONTINUOUS
10
8.64562
20
-4.31902
11
8.64542
21
-4.32181
0
LINE
8
BLACK
6
CONTINUOUS
10
8.64542
20
-4.32181
11
8.64428
21
-4.32359
0
LINE
8
BLACK
6
CONTINUOUS
10
8.64428
20
-4.32359
11
8.64279
21
-4.32507
0
LINE
8
BLACK
6
CONTINUOUS
10
8.64279
20
-4.32507
11
8.64266
21
-4.32527
0
LINE
8
BLACK
6
CONTINUOUS
10
8.64266
20
-4.32527
11
8.64266
21
-4.32527
0
LINE
8
BLACK
6
CONTINUOUS
10
8.64266
20
-4.32527
11
8.6386
21
-4.33134
0
LINE
8
BLACK
6
CONTINUOUS
10
8.6386
20
-4.33134
11
8.6386
21
-4.33134
0
LINE
8
BLACK
6
CONTINUOUS
10
8.6386
20
-4.33134
11
8.63846
21
-4.33154
0
LINE
8
BLACK
6
CONTINUOUS
10
8.63846
20
-4.33154
11
8.63837
21
-4.33176
0
LINE
8
BLACK
6
CONTINUOUS
10
8.63837
20
-4.33176
11
8.63797
21
-4.33271
0
LINE
8
BLACK
6
CONTINUOUS
10
8.63797
20
-4.33271
11
8.63547
21
-4.33873
0
LINE
8
BLACK
6
CONTINUOUS
10
8.63547
20
-4.33873
11
8.63542
21
-4.33897
0
LINE
8
BLACK
6
CONTINUOUS
10
8.63542
20
-4.33897
11
8.63542
21
-4.33897
0
LINE
8
BLACK
6
CONTINUOUS
10
8.63542
20
-4.33897
11
8.63498
21
-4.34116
0
LINE
8
BLACK
6
CONTINUOUS
10
8.63498
20
-4.34116
11
8.63368
21
-4.34363
0
LINE
8
BLACK
6
CONTINUOUS
10
8.63368
20
-4.34363
11
8.63124
21
-4.34501
0
LINE
8
BLACK
6
CONTINUOUS
10
8.63124
20
-4.34501
11
8.63012
21
-4.34514
0
LINE
8
BLACK
6
CONTINUOUS
10
8.63012
20
-4.34514
11
8.4565
21
-4.34514
0
LINE
8
BLACK
6
CONTINUOUS
10
8.4565
20
-4.34514
11
8.45382
21
-4.34435
0
LINE
8
BLACK
6
CONTINUOUS
10
8.45382
20
-4.34435
11
8.45199
21
-4.34224
0
LINE
8
BLACK
6
CONTINUOUS
10
8.45199
20
-4.34224
11
8.45164
21
-4.34116
0
LINE
8
BLACK
6
CONTINUOUS
10
8.45164
20
-4.34116
11
8.45119
21
-4.33897
0
LINE
8
BLACK
6
CONTINUOUS
10
8.45119
20
-4.33897
11
8.45119
21
-4.33897
0
LINE
8
BLACK
6
CONTINUOUS
10
8.45119
20
-4.33897
11
8.45115
21
-4.33873
0
LINE
8
BLACK
6
CONTINUOUS
10
8.45115
20
-4.33873
11
8.44864
21
-4.33271
0
LINE
8
BLACK
6
CONTINUOUS
10
8.44864
20
-4.33271
11
8.44825
21
-4.33176
0
LINE
8
BLACK
6
CONTINUOUS
10
8.44825
20
-4.33176
11
8.44815
21
-4.33154
0
LINE
8
BLACK
6
CONTINUOUS
10
8.44815
20
-4.33154
11
8.4468
21
-4.32951
0
LINE
8
BLACK
6
CONTINUOUS
10
8.4468
20
-4.32951
11
8.44596
21
-4.32685
0
LINE
8
BLACK
6
CONTINUOUS
10
8.44596
20
-4.32685
11
8.4467
21
-4.32415
0
LINE
8
BLACK
6
CONTINUOUS
10
8.4467
20
-4.32415
11
8.447
21
-4.32377
0
LINE
8
BLACK
6
CONTINUOUS
10
8.447
20
-4.32377
11
8.44698
21
-4.32375
0
LINE
8
BLACK
6
CONTINUOUS
10
8.44698
20
-4.32375
11
8.44853
21
-4.32168
0
LINE
8
BLACK
6
CONTINUOUS
10
8.44853
20
-4.32168
11
8.45042
21
-4.31916
0
LINE
8
BLACK
6
CONTINUOUS
10
8.45042
20
-4.31916
11
8.45243
21
-4.31379
0
LINE
8
BLACK
6
CONTINUOUS
10
8.45243
20
-4.31379
11
8.4527
21
-4.31134
0
LINE
8
BLACK
6
CONTINUOUS
10
8.4527
20
-4.31134
11
8.4527
21
-4.22881
0
LINE
8
BLACK
6
CONTINUOUS
10
8.4527
20
-4.22881
11
8.45243
21
-4.22637
0
LINE
8
BLACK
6
CONTINUOUS
10
8.45243
20
-4.22637
11
8.45042
21
-4.221
0
LINE
8
BLACK
6
CONTINUOUS
10
8.45042
20
-4.221
11
8.44698
21
-4.21641
0
LINE
8
BLACK
6
CONTINUOUS
10
8.44698
20
-4.21641
11
8.44239
21
-4.21297
0
LINE
8
BLACK
6
CONTINUOUS
10
8.44239
20
-4.21297
11
8.43702
21
-4.21095
0
LINE
8
BLACK
6
CONTINUOUS
10
8.43702
20
-4.21095
11
8.43457
21
-4.21069
0
LINE
8
BLACK
6
CONTINUOUS
10
8.43457
20
-4.21069
11
8.35204
21
-4.21069
0
LINE
8
BLACK
6
CONTINUOUS
10
8.35204
20
-4.21069
11
8.34959
21
-4.21095
0
LINE
8
BLACK
6
CONTINUOUS
10
8.34959
20
-4.21095
11
8.34422
21
-4.21297
0
LINE
8
BLACK
6
CONTINUOUS
10
8.34422
20
-4.21297
11
8.33964
21
-4.21641
0
LINE
8
BLACK
6
CONTINUOUS
10
8.33964
20
-4.21641
11
8.3362
21
-4.221
0
LINE
8
BLACK
6
CONTINUOUS
10
8.3362
20
-4.221
11
8.33418
21
-4.22637
0
LINE
8
BLACK
6
CONTINUOUS
10
8.33418
20
-4.22637
11
8.33392
21
-4.22881
0
LINE
8
BLACK
6
CONTINUOUS
10
8.33392
20
-4.22881
11
8.33392
21
-4.30045
0
LINE
8
BLACK
6
CONTINUOUS
10
8.33392
20
-4.30045
11
8.33313
21
-4.30313
0
LINE
8
BLACK
6
CONTINUOUS
10
8.33313
20
-4.30313
11
8.33102
21
-4.30496
0
LINE
8
BLACK
6
CONTINUOUS
10
8.33102
20
-4.30496
11
8.32825
21
-4.30536
0
LINE
8
BLACK
6
CONTINUOUS
10
8.32825
20
-4.30536
11
8.32571
21
-4.3042
0
LINE
8
BLACK
6
CONTINUOUS
10
8.32571
20
-4.3042
11
8.32545
21
-4.30396
0
LINE
8
BLACK
6
CONTINUOUS
10
8.32545
20
-4.30396
11
8.28373
21
-4.26224
0
LINE
8
BLACK
6
CONTINUOUS
10
8.28373
20
-4.26224
11
8.23718
21
-4.21569
0
LINE
8
BLACK
6
CONTINUOUS
10
8.23718
20
-4.21569
11
8.23584
21
-4.21323
0
LINE
8
BLACK
6
CONTINUOUS
10
8.23584
20
-4.21323
11
8.23586
21
-4.21102
0
LINE
8
BLACK
6
CONTINUOUS
10
8.23586
20
-4.21102
11
8.23587
21
-4.21098
0
LINE
8
BLACK
6
CONTINUOUS
10
8.23587
20
-4.21098
11
8.23698
21
-4.20636
0
LINE
8
BLACK
6
CONTINUOUS
10
8.23698
20
-4.20636
11
8.23793
21
-4.20242
0
LINE
8
BLACK
6
CONTINUOUS
10
8.23793
20
-4.20242
11
8.23793
21
-4.20242
0
LINE
8
BLACK
6
CONTINUOUS
10
8.23793
20
-4.20242
11
8.23797
21
-4.20223
0
LINE
8
BLACK
6
CONTINUOUS
10
8.23797
20
-4.20223
11
8.23871
21
-4.19291
0
LINE
8
BLACK
6
CONTINUOUS
10
8.23871
20
-4.19291
11
8.23797
21
-4.18359
0
LINE
8
BLACK
6
CONTINUOUS
10
8.23797
20
-4.18359
11
8.23579
21
-4.1745
0
LINE
8
BLACK
6
CONTINUOUS
10
8.23579
20
-4.1745
11
8.23221
21
-4.16587
0
LINE
8
BLACK
6
CONTINUOUS
10
8.23221
20
-4.16587
11
8.23211
21
-4.1657
0
LINE
8
BLACK
6
CONTINUOUS
10
8.23211
20
-4.1657
11
8.22743
21
-4.15806
0
LINE
8
BLACK
6
CONTINUOUS
10
8.22743
20
-4.15806
11
8.22743
21
-4.15806
0
LINE
8
BLACK
6
CONTINUOUS
10
8.22743
20
-4.15806
11
8.22733
21
-4.1579
0
LINE
8
BLACK
6
CONTINUOUS
10
8.22733
20
-4.1579
11
8.22126
21
-4.15079
0
LINE
8
BLACK
6
CONTINUOUS
10
8.22126
20
-4.15079
11
8.21415
21
-4.14472
0
LINE
8
BLACK
6
CONTINUOUS
10
8.21415
20
-4.14472
11
8.21398
21
-4.14462
0
LINE
8
BLACK
6
CONTINUOUS
10
8.21398
20
-4.14462
11
8.21398
21
-4.14462
0
LINE
8
BLACK
6
CONTINUOUS
10
8.21398
20
-4.14462
11
8.20635
21
-4.13993
0
LINE
8
BLACK
6
CONTINUOUS
10
8.20635
20
-4.13993
11
8.20618
21
-4.13983
0
LINE
8
BLACK
6
CONTINUOUS
10
8.20618
20
-4.13983
11
8.206
21
-4.13976
0
LINE
8
BLACK
6
CONTINUOUS
10
8.206
20
-4.13976
11
8.206
21
-4.13976
0
LINE
8
BLACK
6
CONTINUOUS
10
8.206
20
-4.13976
11
8.19772
21
-4.13633
0
LINE
8
BLACK
6
CONTINUOUS
10
8.19772
20
-4.13633
11
8.19772
21
-4.13633
0
LINE
8
BLACK
6
CONTINUOUS
10
8.19772
20
-4.13633
11
8.19754
21
-4.13626
0
LINE
8
BLACK
6
CONTINUOUS
10
8.19754
20
-4.13626
11
8.19439
21
-4.1355
0
LINE
8
BLACK
6
CONTINUOUS
10
8.19439
20
-4.1355
11
8.18864
21
-4.13412
0
LINE
8
BLACK
6
CONTINUOUS
10
8.18864
20
-4.13412
11
8.18864
21
-4.13412
0
LINE
8
BLACK
6
CONTINUOUS
10
8.18864
20
-4.13412
11
8.18845
21
-4.13407
0
LINE
8
BLACK
6
CONTINUOUS
10
8.18845
20
-4.13407
11
8.17913
21
-4.13334
0
LINE
8
BLACK
6
CONTINUOUS
10
8.17913
20
-4.13334
11
8.16981
21
-4.13407
0
LINE
8
BLACK
6
CONTINUOUS
10
8.16981
20
-4.13407
11
8.16963
21
-4.13412
0
LINE
8
BLACK
6
CONTINUOUS
10
8.16963
20
-4.13412
11
8.16963
21
-4.13412
0
LINE
8
BLACK
6
CONTINUOUS
10
8.16963
20
-4.13412
11
8.16388
21
-4.1355
0
LINE
8
BLACK
6
CONTINUOUS
10
8.16388
20
-4.1355
11
8.16072
21
-4.13626
0
LINE
8
BLACK
6
CONTINUOUS
10
8.16072
20
-4.13626
11
8.16054
21
-4.13633
0
LINE
8
BLACK
6
CONTINUOUS
10
8.16054
20
-4.13633
11
8.16054
21
-4.13633
0
LINE
8
BLACK
6
CONTINUOUS
10
8.16054
20
-4.13633
11
8.15227
21
-4.13976
0
LINE
8
BLACK
6
CONTINUOUS
10
8.15227
20
-4.13976
11
8.15227
21
-4.13976
0
LINE
8
BLACK
6
CONTINUOUS
10
8.15227
20
-4.13976
11
8.15209
21
-4.13983
0
LINE
8
BLACK
6
CONTINUOUS
10
8.15209
20
-4.13983
11
8.15192
21
-4.13993
0
LINE
8
BLACK
6
CONTINUOUS
10
8.15192
20
-4.13993
11
8.14428
21
-4.14462
0
LINE
8
BLACK
6
CONTINUOUS
10
8.14428
20
-4.14462
11
8.14428
21
-4.14462
0
LINE
8
BLACK
6
CONTINUOUS
10
8.14428
20
-4.14462
11
8.14412
21
-4.14472
0
LINE
8
BLACK
6
CONTINUOUS
10
8.14412
20
-4.14472
11
8.13701
21
-4.15079
0
LINE
8
BLACK
6
CONTINUOUS
10
8.13701
20
-4.15079
11
8.13094
21
-4.1579
0
LINE
8
BLACK
6
CONTINUOUS
10
8.13094
20
-4.1579
11
8.13084
21
-4.15806
0
LINE
8
BLACK
6
CONTINUOUS
10
8.13084
20
-4.15806
11
8.13084
21
-4.15806
0
LINE
8
BLACK
6
CONTINUOUS
10
8.13084
20
-4.15806
11
8.12616
21
-4.1657
0
LINE
8
BLACK
6
CONTINUOUS
10
8.12616
20
-4.1657
11
8.12605
21
-4.16587
0
LINE
8
BLACK
6
CONTINUOUS
10
8.12605
20
-4.16587
11
8.12248
21
-4.1745
0
LINE
8
BLACK
6
CONTINUOUS
10
8.12248
20
-4.1745
11
8.12029
21
-4.18359
0
LINE
8
BLACK
6
CONTINUOUS
10
8.12029
20
-4.18359
11
8.11956
21
-4.19291
0
LINE
8
BLACK
6
CONTINUOUS
10
8.11956
20
-4.19291
11
8.12029
21
-4.20223
0
LINE
8
BLACK
6
CONTINUOUS
10
8.12029
20
-4.20223
11
8.12034
21
-4.20242
0
LINE
8
BLACK
6
CONTINUOUS
10
8.12034
20
-4.20242
11
8.12034
21
-4.20242
0
LINE
8
BLACK
6
CONTINUOUS
10
8.12034
20
-4.20242
11
8.12129
21
-4.20636
0
LINE
8
BLACK
6
CONTINUOUS
10
8.12129
20
-4.20636
11
8.12248
21
-4.21132
0
LINE
8
BLACK
6
CONTINUOUS
10
8.12248
20
-4.21132
11
8.12255
21
-4.2115
0
LINE
8
BLACK
6
CONTINUOUS
10
8.12255
20
-4.2115
11
8.12255
21
-4.2115
0
LINE
8
BLACK
6
CONTINUOUS
10
8.12255
20
-4.2115
11
8.12596
21
-4.21974
0
LINE
8
BLACK
6
CONTINUOUS
10
8.12596
20
-4.21974
11
8.12605
21
-4.21996
0
LINE
8
BLACK
6
CONTINUOUS
10
8.12605
20
-4.21996
11
8.12616
21
-4.22013
0
LINE
8
BLACK
6
CONTINUOUS
10
8.12616
20
-4.22013
11
8.13084
21
-4.22776
0
LINE
8
BLACK
6
CONTINUOUS
10
8.13084
20
-4.22776
11
8.13084
21
-4.22776
0
LINE
8
BLACK
6
CONTINUOUS
10
8.13084
20
-4.22776
11
8.13094
21
-4.22793
0
LINE
8
BLACK
6
CONTINUOUS
10
8.13094
20
-4.22793
11
8.13701
21
-4.23504
0
LINE
8
BLACK
6
CONTINUOUS
10
8.13701
20
-4.23504
11
8.13716
21
-4.23516
0
LINE
8
BLACK
6
CONTINUOUS
10
8.13716
20
-4.23516
11
8.13716
21
-4.23516
0
LINE
8
BLACK
6
CONTINUOUS
10
8.13716
20
-4.23516
11
8.14355
21
-4.24062
0
LINE
8
BLACK
6
CONTINUOUS
10
8.14355
20
-4.24062
11
8.14508
21
-4.24296
0
LINE
8
BLACK
6
CONTINUOUS
10
8.14508
20
-4.24296
11
8.1451
21
-4.24576
0
LINE
8
BLACK
6
CONTINUOUS
10
8.1451
20
-4.24576
11
8.1436
21
-4.24812
0
LINE
8
BLACK
6
CONTINUOUS
10
8.1436
20
-4.24812
11
8.14253
21
-4.24884
0
LINE
8
BLACK
6
CONTINUOUS
10
8.14253
20
-4.24884
11
8.13871
21
-4.25074
0
LINE
8
BLACK
6
CONTINUOUS
10
8.13871
20
-4.25074
11
8.13316
21
-4.2552
0
LINE
8
BLACK
6
CONTINUOUS
10
8.13316
20
-4.2552
11
8.12869
21
-4.26076
0
LINE
8
BLACK
6
CONTINUOUS
10
8.12869
20
-4.26076
11
8.12857
21
-4.261
0
LINE
8
BLACK
6
CONTINUOUS
10
8.12857
20
-4.261
11
8.12857
21
-4.261
0
LINE
8
BLACK
6
CONTINUOUS
10
8.12857
20
-4.261
11
8.12726
21
-4.26364
0
LINE
8
BLACK
6
CONTINUOUS
10
8.12726
20
-4.26364
11
8.12536
21
-4.26569
0
LINE
8
BLACK
6
CONTINUOUS
10
8.12536
20
-4.26569
11
8.12281
21
-4.2664
0
LINE
8
BLACK
6
CONTINUOUS
10
8.12281
20
-4.2664
11
8.07722
21
-4.2664
0
LINE
8
BLACK
6
CONTINUOUS
10
8.07722
20
-4.2664
11
8.07454
21
-4.26561
0
LINE
8
BLACK
6
CONTINUOUS
10
8.07454
20
-4.26561
11
8.07271
21
-4.2635
0
LINE
8
BLACK
6
CONTINUOUS
10
8.07271
20
-4.2635
11
8.07231
21
-4.26073
0
LINE
8
BLACK
6
CONTINUOUS
10
8.07231
20
-4.26073
11
8.07292
21
-4.25896
0
LINE
8
BLACK
6
CONTINUOUS
10
8.07292
20
-4.25896
11
8.07406
21
-4.25698
0
LINE
8
BLACK
6
CONTINUOUS
10
8.07406
20
-4.25698
11
8.07406
21
-4.25698
0
LINE
8
BLACK
6
CONTINUOUS
10
8.07406
20
-4.25698
11
8.07419
21
-4.25675
0
LINE
8
BLACK
6
CONTINUOUS
10
8.07419
20
-4.25675
11
8.07652
21
-4.2496
0
LINE
8
BLACK
6
CONTINUOUS
10
8.07652
20
-4.2496
11
8.0773
21
-4.24213
0
LINE
8
BLACK
6
CONTINUOUS
10
8.0773
20
-4.24213
11
8.07695
21
-4.23873
0
LINE
8
BLACK
6
CONTINUOUS
10
8.07695
20
-4.23873
11
8.07654
21
-4.23491
0
LINE
8
BLACK
6
CONTINUOUS
10
8.07654
20
-4.23491
11
8.07654
21
-4.23491
0
LINE
8
BLACK
6
CONTINUOUS
10
8.07654
20
-4.23491
11
8.07652
21
-4.23465
0
LINE
8
BLACK
6
CONTINUOUS
10
8.07652
20
-4.23465
11
8.07419
21
-4.2275
0
LINE
8
BLACK
6
CONTINUOUS
10
8.07419
20
-4.2275
11
8.07375
21
-4.22673
0
LINE
8
BLACK
6
CONTINUOUS
10
8.07375
20
-4.22673
11
8.07155
21
-4.22291
0
LINE
8
BLACK
6
CONTINUOUS
10
8.07155
20
-4.22291
11
8.07043
21
-4.22099
0
LINE
8
BLACK
6
CONTINUOUS
10
8.07043
20
-4.22099
11
8.0697
21
-4.22018
0
LINE
8
BLACK
6
CONTINUOUS
10
8.0697
20
-4.22018
11
8.06558
21
-4.21559
0
LINE
8
BLACK
6
CONTINUOUS
10
8.06558
20
-4.21559
11
8.06558
21
-4.21559
0
LINE
8
BLACK
6
CONTINUOUS
10
8.06558
20
-4.21559
11
8.0654
21
-4.2154
0
LINE
8
BLACK
6
CONTINUOUS
10
8.0654
20
-4.2154
11
8.05932
21
-4.21098
0
LINE
8
BLACK
6
CONTINUOUS
10
8.05932
20
-4.21098
11
8.05908
21
-4.21087
0
LINE
8
BLACK
6
CONTINUOUS
10
8.05908
20
-4.21087
11
8.05908
21
-4.21087
0
LINE
8
BLACK
6
CONTINUOUS
10
8.05908
20
-4.21087
11
8.05269
21
-4.20803
0
LINE
8
BLACK
6
CONTINUOUS
10
8.05269
20
-4.20803
11
8.05269
21
-4.20803
0
LINE
8
BLACK
6
CONTINUOUS
10
8.05269
20
-4.20803
11
8.05245
21
-4.20792
0
LINE
8
BLACK
6
CONTINUOUS
10
8.05245
20
-4.20792
11
8.04512
21
-4.20636
0
LINE
8
BLACK
6
CONTINUOUS
10
8.04512
20
-4.20636
11
8.04267
21
-4.20504
0
LINE
8
BLACK
6
CONTINUOUS
10
8.04267
20
-4.20504
11
8.04131
21
-4.20259
0
LINE
8
BLACK
6
CONTINUOUS
10
8.04131
20
-4.20259
11
8.04121
21
-4.20112
0
LINE
8
BLACK
6
CONTINUOUS
10
8.04121
20
-4.20112
11
8.04184
21
-4.19311
0
LINE
8
BLACK
6
CONTINUOUS
10
8.04184
20
-4.19311
11
8.04186
21
-4.19291
0
LINE
8
BLACK
6
CONTINUOUS
10
8.04186
20
-4.19291
11
8.04112
21
-4.18359
0
LINE
8
BLACK
6
CONTINUOUS
10
8.04112
20
-4.18359
11
8.03894
21
-4.1745
0
LINE
8
BLACK
6
CONTINUOUS
10
8.03894
20
-4.1745
11
8.03536
21
-4.16587
0
LINE
8
BLACK
6
CONTINUOUS
10
8.03536
20
-4.16587
11
8.03526
21
-4.1657
0
LINE
8
BLACK
6
CONTINUOUS
10
8.03526
20
-4.1657
11
8.03058
21
-4.15806
0
LINE
8
BLACK
6
CONTINUOUS
10
8.03058
20
-4.15806
11
8.03058
21
-4.15806
0
LINE
8
BLACK
6
CONTINUOUS
10
8.03058
20
-4.15806
11
8.03048
21
-4.1579
0
LINE
8
BLACK
6
CONTINUOUS
10
8.03048
20
-4.1579
11
8.02441
21
-4.15079
0
LINE
8
BLACK
6
CONTINUOUS
10
8.02441
20
-4.15079
11
8.0173
21
-4.14472
0
LINE
8
BLACK
6
CONTINUOUS
10
8.0173
20
-4.14472
11
8.01713
21
-4.14462
0
LINE
8
BLACK
6
CONTINUOUS
10
8.01713
20
-4.14462
11
8.01713
21
-4.14462
0
LINE
8
BLACK
6
CONTINUOUS
10
8.01713
20
-4.14462
11
8.0095
21
-4.13993
0
LINE
8
BLACK
6
CONTINUOUS
10
8.0095
20
-4.13993
11
8.00933
21
-4.13983
0
LINE
8
BLACK
6
CONTINUOUS
10
8.00933
20
-4.13983
11
8.00915
21
-4.13976
0
LINE
8
BLACK
6
CONTINUOUS
10
8.00915
20
-4.13976
11
8.00915
21
-4.13976
0
LINE
8
BLACK
6
CONTINUOUS
10
8.00915
20
-4.13976
11
8.00087
21
-4.13633
0
LINE
8
BLACK
6
CONTINUOUS
10
8.00087
20
-4.13633
11
8.00087
21
-4.13633
0
LINE
8
BLACK
6
CONTINUOUS
10
8.00087
20
-4.13633
11
8.00069
21
-4.13626
0
LINE
8
BLACK
6
CONTINUOUS
10
8.00069
20
-4.13626
11
7.99754
21
-4.1355
0
LINE
8
BLACK
6
CONTINUOUS
10
7.99754
20
-4.1355
11
7.99179
21
-4.13412
0
LINE
8
BLACK
6
CONTINUOUS
10
7.99179
20
-4.13412
11
7.99179
21
-4.13412
0
LINE
8
BLACK
6
CONTINUOUS
10
7.99179
20
-4.13412
11
7.9916
21
-4.13407
0
LINE
8
BLACK
6
CONTINUOUS
10
7.9916
20
-4.13407
11
7.98228
21
-4.13334
0
LINE
8
BLACK
6
CONTINUOUS
10
7.98228
20
-4.13334
11
7.97296
21
-4.13407
0
LINE
8
BLACK
6
CONTINUOUS
10
7.97296
20
-4.13407
11
7.97277
21
-4.13412
0
LINE
8
BLACK
6
CONTINUOUS
10
7.97277
20
-4.13412
11
7.97277
21
-4.13412
0
LINE
8
BLACK
6
CONTINUOUS
10
7.97277
20
-4.13412
11
7.96703
21
-4.1355
0
LINE
8
BLACK
6
CONTINUOUS
10
7.96703
20
-4.1355
11
7.96387
21
-4.13626
0
LINE
8
BLACK
6
CONTINUOUS
10
7.96387
20
-4.13626
11
7.96369
21
-4.13633
0
LINE
8
BLACK
6
CONTINUOUS
10
7.96369
20
-4.13633
11
7.96369
21
-4.13633
0
LINE
8
BLACK
6
CONTINUOUS
10
7.96369
20
-4.13633
11
7.95542
21
-4.13976
0
LINE
8
BLACK
6
CONTINUOUS
10
7.95542
20
-4.13976
11
7.95542
21
-4.13976
0
LINE
8
BLACK
6
CONTINUOUS
10
7.95542
20
-4.13976
11
7.95524
21
-4.13983
0
LINE
8
BLACK
6
CONTINUOUS
10
7.95524
20
-4.13983
11
7.95507
21
-4.13993
0
LINE
8
BLACK
6
CONTINUOUS
10
7.95507
20
-4.13993
11
7.94743
21
-4.14462
0
LINE
8
BLACK
6
CONTINUOUS
10
7.94743
20
-4.14462
11
7.94743
21
-4.14462
0
LINE
8
BLACK
6
CONTINUOUS
10
7.94743
20
-4.14462
11
7.94727
21
-4.14472
0
LINE
8
BLACK
6
CONTINUOUS
10
7.94727
20
-4.14472
11
7.94016
21
-4.15079
0
LINE
8
BLACK
6
CONTINUOUS
10
7.94016
20
-4.15079
11
7.93409
21
-4.1579
0
LINE
8
BLACK
6
CONTINUOUS
10
7.93409
20
-4.1579
11
7.93399
21
-4.15806
0
LINE
8
BLACK
6
CONTINUOUS
10
7.93399
20
-4.15806
11
7.93399
21
-4.15806
0
LINE
8
BLACK
6
CONTINUOUS
10
7.93399
20
-4.15806
11
7.9293
21
-4.1657
0
LINE
8
BLACK
6
CONTINUOUS
10
7.9293
20
-4.1657
11
7.9292
21
-4.16587
0
LINE
8
BLACK
6
CONTINUOUS
10
7.9292
20
-4.16587
11
7.92563
21
-4.1745
0
LINE
8
BLACK
6
CONTINUOUS
10
7.92563
20
-4.1745
11
7.92344
21
-4.18359
0
LINE
8
BLACK
6
CONTINUOUS
10
7.92344
20
-4.18359
11
7.92271
21
-4.19291
0
LINE
8
BLACK
6
CONTINUOUS
10
7.92271
20
-4.19291
11
7.92344
21
-4.20223
0
LINE
8
BLACK
6
CONTINUOUS
10
7.92344
20
-4.20223
11
7.92349
21
-4.20242
0
LINE
8
BLACK
6
CONTINUOUS
10
7.92349
20
-4.20242
11
7.92349
21
-4.20242
0
LINE
8
BLACK
6
CONTINUOUS
10
7.92349
20
-4.20242
11
7.92444
21
-4.20636
0
LINE
8
BLACK
6
CONTINUOUS
10
7.92444
20
-4.20636
11
7.92563
21
-4.21132
0
LINE
8
BLACK
6
CONTINUOUS
10
7.92563
20
-4.21132
11
7.9257
21
-4.2115
0
LINE
8
BLACK
6
CONTINUOUS
10
7.9257
20
-4.2115
11
7.9257
21
-4.2115
0
LINE
8
BLACK
6
CONTINUOUS
10
7.9257
20
-4.2115
11
7.92643
21
-4.21326
0
LINE
8
BLACK
6
CONTINUOUS
10
7.92643
20
-4.21326
11
7.92673
21
-4.21604
0
LINE
8
BLACK
6
CONTINUOUS
10
7.92673
20
-4.21604
11
7.92548
21
-4.21854
0
LINE
8
BLACK
6
CONTINUOUS
10
7.92548
20
-4.21854
11
7.92307
21
-4.21996
0
LINE
8
BLACK
6
CONTINUOUS
10
7.92307
20
-4.21996
11
7.92185
21
-4.22012
0
LINE
8
BLACK
6
CONTINUOUS
10
7.92185
20
-4.22012
11
7.87655
21
-4.22012
0
LINE
8
BLACK
6
CONTINUOUS
10
7.87655
20
-4.22012
11
7.87611
21
-4.2201
0
LINE
8
BLACK
6
CONTINUOUS
10
7.87611
20
-4.2201
11
7.87581
21
-4.22003
0
LINE
8
BLACK
6
CONTINUOUS
10
7.87581
20
-4.22003
11
7.8755
21
-4.22004
0
LINE
8
BLACK
6
CONTINUOUS
10
7.8755
20
-4.22004
11
7.8755
21
-4.22004
0
LINE
8
BLACK
6
CONTINUOUS
10
7.8755
20
-4.22004
11
7.87313
21
-4.22012
0
LINE
8
BLACK
6
CONTINUOUS
10
7.87313
20
-4.22012
11
7.87297
21
-4.22012
0
LINE
8
BLACK
6
CONTINUOUS
10
7.87297
20
-4.22012
11
7.87188
21
-4.22012
0
LINE
8
BLACK
6
CONTINUOUS
10
7.87188
20
-4.22012
11
7.87172
21
-4.22014
0
LINE
8
BLACK
6
CONTINUOUS
10
7.87172
20
-4.22014
11
7.87125
21
-4.22018
0
LINE
8
BLACK
6
CONTINUOUS
10
7.87125
20
-4.22018
11
7.86951
21
-4.22023
0
LINE
8
BLACK
6
CONTINUOUS
10
7.86951
20
-4.22023
11
7.86921
21
-4.22032
0
LINE
8
BLACK
6
CONTINUOUS
10
7.86921
20
-4.22032
11
7.86921
21
-4.22032
0
LINE
8
BLACK
6
CONTINUOUS
10
7.86921
20
-4.22032
11
7.86875
21
-4.22045
0
LINE
8
BLACK
6
CONTINUOUS
10
7.86875
20
-4.22045
11
7.86798
21
-4.22061
0
LINE
8
BLACK
6
CONTINUOUS
10
7.86798
20
-4.22061
11
7.86793
21
-4.22062
0
LINE
8
BLACK
6
CONTINUOUS
10
7.86793
20
-4.22062
11
7.86719
21
-4.22071
0
LINE
8
BLACK
6
CONTINUOUS
10
7.86719
20
-4.22071
11
7.8669
21
-4.22082
0
LINE
8
BLACK
6
CONTINUOUS
10
7.8669
20
-4.22082
11
7.8669
21
-4.22082
0
LINE
8
BLACK
6
CONTINUOUS
10
7.8669
20
-4.22082
11
7.86557
21
-4.22135
0
LINE
8
BLACK
6
CONTINUOUS
10
7.86557
20
-4.22135
11
7.86513
21
-4.2215
0
LINE
8
BLACK
6
CONTINUOUS
10
7.86513
20
-4.2215
11
7.86376
21
-4.2219
0
LINE
8
BLACK
6
CONTINUOUS
10
7.86376
20
-4.2219
11
7.86346
21
-4.22199
0
LINE
8
BLACK
6
CONTINUOUS
10
7.86346
20
-4.22199
11
7.86319
21
-4.22215
0
LINE
8
BLACK
6
CONTINUOUS
10
7.86319
20
-4.22215
11
7.86277
21
-4.22239
0
LINE
8
BLACK
6
CONTINUOUS
10
7.86277
20
-4.22239
11
7.86207
21
-4.22274
0
LINE
8
BLACK
6
CONTINUOUS
10
7.86207
20
-4.22274
11
7.86177
21
-4.22286
0
LINE
8
BLACK
6
CONTINUOUS
10
7.86177
20
-4.22286
11
7.86133
21
-4.22303
0
LINE
8
BLACK
6
CONTINUOUS
10
7.86133
20
-4.22303
11
7.86108
21
-4.22321
0
LINE
8
BLACK
6
CONTINUOUS
10
7.86108
20
-4.22321
11
7.85993
21
-4.22405
0
LINE
8
BLACK
6
CONTINUOUS
10
7.85993
20
-4.22405
11
7.85953
21
-4.22431
0
LINE
8
BLACK
6
CONTINUOUS
10
7.85953
20
-4.22431
11
7.85804
21
-4.2252
0
LINE
8
BLACK
6
CONTINUOUS
10
7.85804
20
-4.2252
11
7.85747
21
-4.22576
0
LINE
8
BLACK
6
CONTINUOUS
10
7.85747
20
-4.22576
11
7.85688
21
-4.22626
0
LINE
8
BLACK
6
CONTINUOUS
10
7.85688
20
-4.22626
11
7.85624
21
-4.22673
0
LINE
8
BLACK
6
CONTINUOUS
10
7.85624
20
-4.22673
11
7.85604
21
-4.22697
0
LINE
8
BLACK
6
CONTINUOUS
10
7.85604
20
-4.22697
11
7.85513
21
-4.22808
0
LINE
8
BLACK
6
CONTINUOUS
10
7.85513
20
-4.22808
11
7.85481
21
-4.22842
0
LINE
8
BLACK
6
CONTINUOUS
10
7.85481
20
-4.22842
11
7.81628
21
-4.26695
0
LINE
8
BLACK
6
CONTINUOUS
10
7.81628
20
-4.26695
11
7.81383
21
-4.26829
0
LINE
8
BLACK
6
CONTINUOUS
10
7.81383
20
-4.26829
11
7.81104
21
-4.26809
0
LINE
8
BLACK
6
CONTINUOUS
10
7.81104
20
-4.26809
11
7.8088
21
-4.26641
0
LINE
8
BLACK
6
CONTINUOUS
10
7.8088
20
-4.26641
11
7.80783
21
-4.2638
0
LINE
8
BLACK
6
CONTINUOUS
10
7.80783
20
-4.2638
11
7.80781
21
-4.26344
0
LINE
8
BLACK
6
CONTINUOUS
10
7.80781
20
-4.26344
11
7.80781
21
-4.2466
0
LINE
8
BLACK
6
CONTINUOUS
10
7.80781
20
-4.2466
11
7.8078
21
-4.24636
0
LINE
8
BLACK
6
CONTINUOUS
10
7.8078
20
-4.24636
11
7.80777
21
-4.24618
0
LINE
8
BLACK
6
CONTINUOUS
10
7.80777
20
-4.24618
11
7.80631
21
-4.23897
0
LINE
8
BLACK
6
CONTINUOUS
10
7.80631
20
-4.23897
11
7.80631
21
-4.23897
0
LINE
8
BLACK
6
CONTINUOUS
10
7.80631
20
-4.23897
11
7.80626
21
-4.23873
0
LINE
8
BLACK
6
CONTINUOUS
10
7.80626
20
-4.23873
11
7.80327
21
-4.23154
0
LINE
8
BLACK
6
CONTINUOUS
10
7.80327
20
-4.23154
11
7.80314
21
-4.23134
0
LINE
8
BLACK
6
CONTINUOUS
10
7.80314
20
-4.23134
11
7.80314
21
-4.23134
0
LINE
8
BLACK
6
CONTINUOUS
10
7.80314
20
-4.23134
11
7.79907
21
-4.22527
0
LINE
8
BLACK
6
CONTINUOUS
10
7.79907
20
-4.22527
11
7.79907
21
-4.22527
0
LINE
8
BLACK
6
CONTINUOUS
10
7.79907
20
-4.22527
11
7.79894
21
-4.22507
0
LINE
8
BLACK
6
CONTINUOUS
10
7.79894
20
-4.22507
11
7.79343
21
-4.21956
0
LINE
8
BLACK
6
CONTINUOUS
10
7.79343
20
-4.21956
11
7.79323
21
-4.21943
0
LINE
8
BLACK
6
CONTINUOUS
10
7.79323
20
-4.21943
11
7.79323
21
-4.21943
0
LINE
8
BLACK
6
CONTINUOUS
10
7.79323
20
-4.21943
11
7.78717
21
-4.21537
0
LINE
8
BLACK
6
CONTINUOUS
10
7.78717
20
-4.21537
11
7.78717
21
-4.21537
0
LINE
8
BLACK
6
CONTINUOUS
10
7.78717
20
-4.21537
11
7.78696
21
-4.21523
0
LINE
8
BLACK
6
CONTINUOUS
10
7.78696
20
-4.21523
11
7.77977
21
-4.21224
0
LINE
8
BLACK
6
CONTINUOUS
10
7.77977
20
-4.21224
11
7.77954
21
-4.21219
0
LINE
8
BLACK
6
CONTINUOUS
10
7.77954
20
-4.21219
11
7.77954
21
-4.21219
0
LINE
8
BLACK
6
CONTINUOUS
10
7.77954
20
-4.21219
11
7.77232
21
-4.21074
0
LINE
8
BLACK
6
CONTINUOUS
10
7.77232
20
-4.21074
11
7.77232
21
-4.21074
0
LINE
8
BLACK
6
CONTINUOUS
10
7.77232
20
-4.21074
11
7.77214
21
-4.2107
0
LINE
8
BLACK
6
CONTINUOUS
10
7.77214
20
-4.2107
11
7.7719
21
-4.21069
0
LINE
8
BLACK
6
CONTINUOUS
10
7.7719
20
-4.21069
11
7.72495
21
-4.21069
0
LINE
8
BLACK
6
CONTINUOUS
10
7.72495
20
-4.21069
11
7.72471
21
-4.2107
0
LINE
8
BLACK
6
CONTINUOUS
10
7.72471
20
-4.2107
11
7.72453
21
-4.21074
0
LINE
8
BLACK
6
CONTINUOUS
10
7.72453
20
-4.21074
11
7.72453
21
-4.21074
0
LINE
8
BLACK
6
CONTINUOUS
10
7.72453
20
-4.21074
11
7.71731
21
-4.21219
0
LINE
8
BLACK
6
CONTINUOUS
10
7.71731
20
-4.21219
11
7.71731
21
-4.21219
0
LINE
8
BLACK
6
CONTINUOUS
10
7.71731
20
-4.21219
11
7.71708
21
-4.21224
0
LINE
8
BLACK
6
CONTINUOUS
10
7.71708
20
-4.21224
11
7.70989
21
-4.21523
0
LINE
8
BLACK
6
CONTINUOUS
10
7.70989
20
-4.21523
11
7.70969
21
-4.21537
0
LINE
8
BLACK
6
CONTINUOUS
10
7.70969
20
-4.21537
11
7.70969
21
-4.21537
0
LINE
8
BLACK
6
CONTINUOUS
10
7.70969
20
-4.21537
11
7.70362
21
-4.21943
0
LINE
8
BLACK
6
CONTINUOUS
10
7.70362
20
-4.21943
11
7.70362
21
-4.21943
0
LINE
8
BLACK
6
CONTINUOUS
10
7.70362
20
-4.21943
11
7.70342
21
-4.21956
0
LINE
8
BLACK
6
CONTINUOUS
10
7.70342
20
-4.21956
11
7.69791
21
-4.22507
0
LINE
8
BLACK
6
CONTINUOUS
10
7.69791
20
-4.22507
11
7.69778
21
-4.22527
0
LINE
8
BLACK
6
CONTINUOUS
10
7.69778
20
-4.22527
11
7.69778
21
-4.22527
0
LINE
8
BLACK
6
CONTINUOUS
10
7.69778
20
-4.22527
11
7.69371
21
-4.23134
0
LINE
8
BLACK
6
CONTINUOUS
10
7.69371
20
-4.23134
11
7.69371
21
-4.23134
0
LINE
8
BLACK
6
CONTINUOUS
10
7.69371
20
-4.23134
11
7.69358
21
-4.23154
0
LINE
8
BLACK
6
CONTINUOUS
10
7.69358
20
-4.23154
11
7.69059
21
-4.23873
0
LINE
8
BLACK
6
CONTINUOUS
10
7.69059
20
-4.23873
11
7.69054
21
-4.23897
0
LINE
8
BLACK
6
CONTINUOUS
10
7.69054
20
-4.23897
11
7.69054
21
-4.23897
0
LINE
8
BLACK
6
CONTINUOUS
10
7.69054
20
-4.23897
11
7.68908
21
-4.24618
0
LINE
8
BLACK
6
CONTINUOUS
10
7.68908
20
-4.24618
11
7.68905
21
-4.24636
0
LINE
8
BLACK
6
CONTINUOUS
10
7.68905
20
-4.24636
11
7.68904
21
-4.2466
0
LINE
8
BLACK
6
CONTINUOUS
10
7.68904
20
-4.2466
11
7.68904
21
-4.29356
0
LINE
8
BLACK
6
CONTINUOUS
10
7.68904
20
-4.29356
11
7.68905
21
-4.2938
0
LINE
8
BLACK
6
CONTINUOUS
10
7.68905
20
-4.2938
11
7.68908
21
-4.29398
0
LINE
8
BLACK
6
CONTINUOUS
10
7.68908
20
-4.29398
11
7.68908
21
-4.29398
0
LINE
8
BLACK
6
CONTINUOUS
10
7.68908
20
-4.29398
11
7.69039
21
-4.30045
0
LINE
8
BLACK
6
CONTINUOUS
10
7.69039
20
-4.30045
11
7.69059
21
-4.30143
0
LINE
8
BLACK
6
CONTINUOUS
10
7.69059
20
-4.30143
11
7.69358
21
-4.30862
0
LINE
8
BLACK
6
CONTINUOUS
10
7.69358
20
-4.30862
11
7.69371
21
-4.30882
0
LINE
8
BLACK
6
CONTINUOUS
10
7.69371
20
-4.30882
11
7.69371
21
-4.30882
0
LINE
8
BLACK
6
CONTINUOUS
10
7.69371
20
-4.30882
11
7.69778
21
-4.31489
0
LINE
8
BLACK
6
CONTINUOUS
10
7.69778
20
-4.31489
11
7.69778
21
-4.31489
0
LINE
8
BLACK
6
CONTINUOUS
10
7.69778
20
-4.31489
11
7.69791
21
-4.31509
0
LINE
8
BLACK
6
CONTINUOUS
10
7.69791
20
-4.31509
11
7.69939
21
-4.31657
0
LINE
8
BLACK
6
CONTINUOUS
10
7.69939
20
-4.31657
11
7.70073
21
-4.31902
0
LINE
8
BLACK
6
CONTINUOUS
10
7.70073
20
-4.31902
11
7.70053
21
-4.32181
0
LINE
8
BLACK
6
CONTINUOUS
10
7.70053
20
-4.32181
11
7.69939
21
-4.32359
0
LINE
8
BLACK
6
CONTINUOUS
10
7.69939
20
-4.32359
11
7.69791
21
-4.32507
0
LINE
8
BLACK
6
CONTINUOUS
10
7.69791
20
-4.32507
11
7.69778
21
-4.32527
0
LINE
8
BLACK
6
CONTINUOUS
10
7.69778
20
-4.32527
11
7.69778
21
-4.32527
0
LINE
8
BLACK
6
CONTINUOUS
10
7.69778
20
-4.32527
11
7.69371
21
-4.33134
0
LINE
8
BLACK
6
CONTINUOUS
10
7.69371
20
-4.33134
11
7.69371
21
-4.33134
0
LINE
8
BLACK
6
CONTINUOUS
10
7.69371
20
-4.33134
11
7.69358
21
-4.33154
0
LINE
8
BLACK
6
CONTINUOUS
10
7.69358
20
-4.33154
11
7.69349
21
-4.33176
0
LINE
8
BLACK
6
CONTINUOUS
10
7.69349
20
-4.33176
11
7.69309
21
-4.33271
0
LINE
8
BLACK
6
CONTINUOUS
10
7.69309
20
-4.33271
11
7.69059
21
-4.33873
0
LINE
8
BLACK
6
CONTINUOUS
10
7.69059
20
-4.33873
11
7.69054
21
-4.33897
0
LINE
8
BLACK
6
CONTINUOUS
10
7.69054
20
-4.33897
11
7.69054
21
-4.33897
0
LINE
8
BLACK
6
CONTINUOUS
10
7.69054
20
-4.33897
11
7.6901
21
-4.34116
0
LINE
8
BLACK
6
CONTINUOUS
10
7.6901
20
-4.34116
11
7.68879
21
-4.34363
0
LINE
8
BLACK
6
CONTINUOUS
10
7.68879
20
-4.34363
11
7.68636
21
-4.34501
0
LINE
8
BLACK
6
CONTINUOUS
10
7.68636
20
-4.34501
11
7.68523
21
-4.34514
0
LINE
8
BLACK
6
CONTINUOUS
10
7.68523
20
-4.34514
11
7.51162
21
-4.34514
0
LINE
8
BLACK
6
CONTINUOUS
10
7.51162
20
-4.34514
11
7.50893
21
-4.34435
0
LINE
8
BLACK
6
CONTINUOUS
10
7.50893
20
-4.34435
11
7.5071
21
-4.34224
0
LINE
8
BLACK
6
CONTINUOUS
10
7.5071
20
-4.34224
11
7.50675
21
-4.34116
0
LINE
8
BLACK
6
CONTINUOUS
10
7.50675
20
-4.34116
11
7.50631
21
-4.33897
0
LINE
8
BLACK
6
CONTINUOUS
10
7.50631
20
-4.33897
11
7.50631
21
-4.33897
0
LINE
8
BLACK
6
CONTINUOUS
10
7.50631
20
-4.33897
11
7.50626
21
-4.33873
0
LINE
8
BLACK
6
CONTINUOUS
10
7.50626
20
-4.33873
11
7.50376
21
-4.33271
0
LINE
8
BLACK
6
CONTINUOUS
10
7.50376
20
-4.33271
11
7.50336
21
-4.33176
0
LINE
8
BLACK
6
CONTINUOUS
10
7.50336
20
-4.33176
11
7.50327
21
-4.33154
0
LINE
8
BLACK
6
CONTINUOUS
10
7.50327
20
-4.33154
11
7.50192
21
-4.32951
0
LINE
8
BLACK
6
CONTINUOUS
10
7.50192
20
-4.32951
11
7.50108
21
-4.32685
0
LINE
8
BLACK
6
CONTINUOUS
10
7.50108
20
-4.32685
11
7.50181
21
-4.32415
0
LINE
8
BLACK
6
CONTINUOUS
10
7.50181
20
-4.32415
11
7.50212
21
-4.32377
0
LINE
8
BLACK
6
CONTINUOUS
10
7.50212
20
-4.32377
11
7.5021
21
-4.32375
0
LINE
8
BLACK
6
CONTINUOUS
10
7.5021
20
-4.32375
11
7.50365
21
-4.32168
0
LINE
8
BLACK
6
CONTINUOUS
10
7.50365
20
-4.32168
11
7.50554
21
-4.31916
0
LINE
8
BLACK
6
CONTINUOUS
10
7.50554
20
-4.31916
11
7.50755
21
-4.31379
0
LINE
8
BLACK
6
CONTINUOUS
10
7.50755
20
-4.31379
11
7.50781
21
-4.31134
0
LINE
8
BLACK
6
CONTINUOUS
10
7.50781
20
-4.31134
11
7.50781
21
-4.22881
0
LINE
8
BLACK
6
CONTINUOUS
10
7.50781
20
-4.22881
11
7.50755
21
-4.22637
0
LINE
8
BLACK
6
CONTINUOUS
10
7.50755
20
-4.22637
11
7.50554
21
-4.221
0
LINE
8
BLACK
6
CONTINUOUS
10
7.50554
20
-4.221
11
7.5021
21
-4.21641
0
LINE
8
BLACK
6
CONTINUOUS
10
7.5021
20
-4.21641
11
7.49751
21
-4.21297
0
LINE
8
BLACK
6
CONTINUOUS
10
7.49751
20
-4.21297
11
7.49214
21
-4.21095
0
LINE
8
BLACK
6
CONTINUOUS
10
7.49214
20
-4.21095
11
7.48969
21
-4.21069
0
LINE
8
BLACK
6
CONTINUOUS
10
7.48969
20
-4.21069
11
7.40716
21
-4.21069
0
LINE
8
BLACK
6
CONTINUOUS
10
7.40716
20
-4.21069
11
7.40471
21
-4.21095
0
LINE
8
BLACK
6
CONTINUOUS
10
7.40471
20
-4.21095
11
7.39934
21
-4.21297
0
LINE
8
BLACK
6
CONTINUOUS
10
7.39934
20
-4.21297
11
7.39475
21
-4.21641
0
LINE
8
BLACK
6
CONTINUOUS
10
7.39475
20
-4.21641
11
7.39131
21
-4.221
0
LINE
8
BLACK
6
CONTINUOUS
10
7.39131
20
-4.221
11
7.3893
21
-4.22637
0
LINE
8
BLACK
6
CONTINUOUS
10
7.3893
20
-4.22637
11
7.38904
21
-4.22881
0
LINE
8
BLACK
6
CONTINUOUS
10
7.38904
20
-4.22881
11
7.38904
21
-4.31134
0
LINE
8
BLACK
6
CONTINUOUS
10
7.38904
20
-4.31134
11
7.3893
21
-4.31379
0
LINE
8
BLACK
6
CONTINUOUS
10
7.3893
20
-4.31379
11
7.39131
21
-4.31916
0
LINE
8
BLACK
6
CONTINUOUS
10
7.39131
20
-4.31916
11
7.3932
21
-4.32168
0
LINE
8
BLACK
6
CONTINUOUS
10
7.3932
20
-4.32168
11
7.39475
21
-4.32375
0
LINE
8
BLACK
6
CONTINUOUS
10
7.39475
20
-4.32375
11
7.39464
21
-4.32383
0
LINE
8
BLACK
6
CONTINUOUS
10
7.39464
20
-4.32383
11
7.39566
21
-4.3257
0
LINE
8
BLACK
6
CONTINUOUS
10
7.39566
20
-4.3257
11
7.39546
21
-4.32849
0
LINE
8
BLACK
6
CONTINUOUS
10
7.39546
20
-4.32849
11
7.39494
21
-4.32951
0
LINE
8
BLACK
6
CONTINUOUS
10
7.39494
20
-4.32951
11
7.39358
21
-4.33154
0
LINE
8
BLACK
6
CONTINUOUS
10
7.39358
20
-4.33154
11
7.39349
21
-4.33176
0
LINE
8
BLACK
6
CONTINUOUS
10
7.39349
20
-4.33176
11
7.39309
21
-4.33271
0
LINE
8
BLACK
6
CONTINUOUS
10
7.39309
20
-4.33271
11
7.39059
21
-4.33873
0
LINE
8
BLACK
6
CONTINUOUS
10
7.39059
20
-4.33873
11
7.39054
21
-4.33897
0
LINE
8
BLACK
6
CONTINUOUS
10
7.39054
20
-4.33897
11
7.39054
21
-4.33897
0
LINE
8
BLACK
6
CONTINUOUS
10
7.39054
20
-4.33897
11
7.38908
21
-4.34618
0
LINE
8
BLACK
6
CONTINUOUS
10
7.38908
20
-4.34618
11
7.38905
21
-4.34636
0
LINE
8
BLACK
6
CONTINUOUS
10
7.38905
20
-4.34636
11
7.38904
21
-4.3466
0
LINE
8
BLACK
6
CONTINUOUS
10
7.38904
20
-4.3466
11
7.38904
21
-4.39356
0
LINE
8
BLACK
6
CONTINUOUS
10
7.38904
20
-4.39356
11
7.38905
21
-4.3938
0
LINE
8
BLACK
6
CONTINUOUS
10
7.38905
20
-4.3938
11
7.38908
21
-4.39398
0
LINE
8
BLACK
6
CONTINUOUS
10
7.38908
20
-4.39398
11
7.38908
21
-4.39398
0
LINE
8
BLACK
6
CONTINUOUS
10
7.38908
20
-4.39398
11
7.39047
21
-4.40087
0
LINE
8
BLACK
6
CONTINUOUS
10
7.39047
20
-4.40087
11
7.39059
21
-4.40143
0
LINE
8
BLACK
6
CONTINUOUS
10
7.39059
20
-4.40143
11
7.39068
21
-4.40165
0
LINE
8
BLACK
6
CONTINUOUS
10
7.39068
20
-4.40165
11
7.3932
21
-4.40772
0
LINE
8
BLACK
6
CONTINUOUS
10
7.3932
20
-4.40772
11
7.39358
21
-4.40862
0
LINE
8
BLACK
6
CONTINUOUS
10
7.39358
20
-4.40862
11
7.39371
21
-4.40882
0
LINE
8
BLACK
6
CONTINUOUS
10
7.39371
20
-4.40882
11
7.39371
21
-4.40882
0
LINE
8
BLACK
6
CONTINUOUS
10
7.39371
20
-4.40882
11
7.39778
21
-4.41489
0
LINE
8
BLACK
6
CONTINUOUS
10
7.39778
20
-4.41489
11
7.39778
21
-4.41489
0
LINE
8
BLACK
6
CONTINUOUS
10
7.39778
20
-4.41489
11
7.39791
21
-4.41509
0
LINE
8
BLACK
6
CONTINUOUS
10
7.39791
20
-4.41509
11
7.39939
21
-4.41657
0
LINE
8
BLACK
6
CONTINUOUS
10
7.39939
20
-4.41657
11
7.40073
21
-4.41902
0
LINE
8
BLACK
6
CONTINUOUS
10
7.40073
20
-4.41902
11
7.40053
21
-4.42181
0
LINE
8
BLACK
6
CONTINUOUS
10
7.40053
20
-4.42181
11
7.39939
21
-4.42359
0
LINE
8
BLACK
6
CONTINUOUS
10
7.39939
20
-4.42359
11
7.39791
21
-4.42507
0
LINE
8
BLACK
6
CONTINUOUS
10
7.39791
20
-4.42507
11
7.39778
21
-4.42527
0
LINE
8
BLACK
6
CONTINUOUS
10
7.39778
20
-4.42527
11
7.39778
21
-4.42527
0
LINE
8
BLACK
6
CONTINUOUS
10
7.39778
20
-4.42527
11
7.39371
21
-4.43134
0
LINE
8
BLACK
6
CONTINUOUS
10
7.39371
20
-4.43134
11
7.39371
21
-4.43134
0
LINE
8
BLACK
6
CONTINUOUS
10
7.39371
20
-4.43134
11
7.39358
21
-4.43154
0
LINE
8
BLACK
6
CONTINUOUS
10
7.39358
20
-4.43154
11
7.39059
21
-4.43873
0
LINE
8
BLACK
6
CONTINUOUS
10
7.39059
20
-4.43873
11
7.38905
21
-4.44636
0
LINE
8
BLACK
6
CONTINUOUS
10
7.38905
20
-4.44636
11
7.38904
21
-4.4466
0
LINE
8
BLACK
6
CONTINUOUS
10
7.38904
20
-4.4466
11
7.38904
21
-4.49356
0
LINE
8
BLACK
6
CONTINUOUS
10
7.38904
20
-4.49356
11
7.38905
21
-4.4938
0
LINE
8
BLACK
6
CONTINUOUS
10
7.38905
20
-4.4938
11
7.38908
21
-4.49398
0
LINE
8
BLACK
6
CONTINUOUS
10
7.38908
20
-4.49398
11
7.38908
21
-4.49398
0
LINE
8
BLACK
6
CONTINUOUS
10
7.38908
20
-4.49398
11
7.38951
21
-4.49608
0
LINE
8
BLACK
6
CONTINUOUS
10
7.38951
20
-4.49608
11
7.39059
21
-4.50143
0
LINE
8
BLACK
6
CONTINUOUS
10
7.39059
20
-4.50143
11
7.39358
21
-4.50862
0
LINE
8
BLACK
6
CONTINUOUS
10
7.39358
20
-4.50862
11
7.39371
21
-4.50882
0
LINE
8
BLACK
6
CONTINUOUS
10
7.39371
20
-4.50882
11
7.39371
21
-4.50882
0
LINE
8
BLACK
6
CONTINUOUS
10
7.39371
20
-4.50882
11
7.39778
21
-4.51489
0
LINE
8
BLACK
6
CONTINUOUS
10
7.39778
20
-4.51489
11
7.39778
21
-4.51489
0
LINE
8
BLACK
6
CONTINUOUS
10
7.39778
20
-4.51489
11
7.39791
21
-4.51509
0
LINE
8
BLACK
6
CONTINUOUS
10
7.39791
20
-4.51509
11
7.40342
21
-4.52059
0
LINE
8
BLACK
6
CONTINUOUS
10
7.40342
20
-4.52059
11
7.40362
21
-4.52073
0
LINE
8
BLACK
6
CONTINUOUS
10
7.40362
20
-4.52073
11
7.40362
21
-4.52073
0
LINE
8
BLACK
6
CONTINUOUS
10
7.40362
20
-4.52073
11
7.40969
21
-4.52479
0
LINE
8
BLACK
6
CONTINUOUS
10
7.40969
20
-4.52479
11
7.40969
21
-4.52479
0
LINE
8
BLACK
6
CONTINUOUS
10
7.40969
20
-4.52479
11
7.40989
21
-4.52492
0
LINE
8
BLACK
6
CONTINUOUS
10
7.40989
20
-4.52492
11
7.41708
21
-4.52792
0
LINE
8
BLACK
6
CONTINUOUS
10
7.41708
20
-4.52792
11
7.41731
21
-4.52797
0
LINE
8
BLACK
6
CONTINUOUS
10
7.41731
20
-4.52797
11
7.41731
21
-4.52797
0
LINE
8
BLACK
6
CONTINUOUS
10
7.41731
20
-4.52797
11
7.42453
21
-4.52942
0
LINE
8
BLACK
6
CONTINUOUS
10
7.42453
20
-4.52942
11
7.42471
21
-4.52946
0
LINE
8
BLACK
6
CONTINUOUS
10
7.42471
20
-4.52946
11
7.42495
21
-4.52947
0
LINE
8
BLACK
6
CONTINUOUS
10
7.42495
20
-4.52947
11
7.4719
21
-4.52947
0
LINE
8
BLACK
6
CONTINUOUS
10
7.4719
20
-4.52947
11
7.47214
21
-4.52946
0
LINE
8
BLACK
6
CONTINUOUS
10
7.47214
20
-4.52946
11
7.47232
21
-4.52942
0
LINE
8
BLACK
6
CONTINUOUS
10
7.47232
20
-4.52942
11
7.47954
21
-4.52797
0
LINE
8
BLACK
6
CONTINUOUS
10
7.47954
20
-4.52797
11
7.47954
21
-4.52797
0
LINE
8
BLACK
6
CONTINUOUS
10
7.47954
20
-4.52797
11
7.47977
21
-4.52792
0
LINE
8
BLACK
6
CONTINUOUS
10
7.47977
20
-4.52792
11
7.48696
21
-4.52492
0
LINE
8
BLACK
6
CONTINUOUS
10
7.48696
20
-4.52492
11
7.48717
21
-4.52479
0
LINE
8
BLACK
6
CONTINUOUS
10
7.48717
20
-4.52479
11
7.48717
21
-4.52479
0
LINE
8
BLACK
6
CONTINUOUS
10
7.48717
20
-4.52479
11
7.49323
21
-4.52073
0
LINE
8
BLACK
6
CONTINUOUS
10
7.49323
20
-4.52073
11
7.49323
21
-4.52073
0
LINE
8
BLACK
6
CONTINUOUS
10
7.49323
20
-4.52073
11
7.49343
21
-4.52059
0
LINE
8
BLACK
6
CONTINUOUS
10
7.49343
20
-4.52059
11
7.49894
21
-4.51509
0
LINE
8
BLACK
6
CONTINUOUS
10
7.49894
20
-4.51509
11
7.49907
21
-4.51489
0
LINE
8
BLACK
6
CONTINUOUS
10
7.49907
20
-4.51489
11
7.49907
21
-4.51489
0
LINE
8
BLACK
6
CONTINUOUS
10
7.49907
20
-4.51489
11
7.50314
21
-4.50882
0
LINE
8
BLACK
6
CONTINUOUS
10
7.50314
20
-4.50882
11
7.50314
21
-4.50882
0
LINE
8
BLACK
6
CONTINUOUS
10
7.50314
20
-4.50882
11
7.50327
21
-4.50862
0
LINE
8
BLACK
6
CONTINUOUS
10
7.50327
20
-4.50862
11
7.50626
21
-4.50143
0
LINE
8
BLACK
6
CONTINUOUS
10
7.50626
20
-4.50143
11
7.50734
21
-4.49608
0
LINE
8
BLACK
6
CONTINUOUS
10
7.50734
20
-4.49608
11
7.50777
21
-4.49398
0
LINE
8
BLACK
6
CONTINUOUS
10
7.50777
20
-4.49398
11
7.50777
21
-4.49398
0
LINE
8
BLACK
6
CONTINUOUS
10
7.50777
20
-4.49398
11
7.5078
21
-4.4938
0
LINE
8
BLACK
6
CONTINUOUS
10
7.5078
20
-4.4938
11
7.50781
21
-4.49356
0
LINE
8
BLACK
6
CONTINUOUS
10
7.50781
20
-4.49356
11
7.50781
21
-4.4466
0
LINE
8
BLACK
6
CONTINUOUS
10
7.50781
20
-4.4466
11
7.5078
21
-4.44636
0
LINE
8
BLACK
6
CONTINUOUS
10
7.5078
20
-4.44636
11
7.50626
21
-4.43873
0
LINE
8
BLACK
6
CONTINUOUS
10
7.50626
20
-4.43873
11
7.50327
21
-4.43154
0
LINE
8
BLACK
6
CONTINUOUS
10
7.50327
20
-4.43154
11
7.50314
21
-4.43134
0
LINE
8
BLACK
6
CONTINUOUS
10
7.50314
20
-4.43134
11
7.50314
21
-4.43134
0
LINE
8
BLACK
6
CONTINUOUS
10
7.50314
20
-4.43134
11
7.49907
21
-4.42527
0
LINE
8
BLACK
6
CONTINUOUS
10
7.49907
20
-4.42527
11
7.49907
21
-4.42527
0
LINE
8
BLACK
6
CONTINUOUS
10
7.49907
20
-4.42527
11
7.49894
21
-4.42507
0
LINE
8
BLACK
6
CONTINUOUS
10
7.49894
20
-4.42507
11
7.49746
21
-4.42359
0
LINE
8
BLACK
6
CONTINUOUS
10
7.49746
20
-4.42359
11
7.49612
21
-4.42113
0
LINE
8
BLACK
6
CONTINUOUS
10
7.49612
20
-4.42113
11
7.49632
21
-4.41835
0
LINE
8
BLACK
6
CONTINUOUS
10
7.49632
20
-4.41835
11
7.49746
21
-4.41657
0
LINE
8
BLACK
6
CONTINUOUS
10
7.49746
20
-4.41657
11
7.49894
21
-4.41509
0
LINE
8
BLACK
6
CONTINUOUS
10
7.49894
20
-4.41509
11
7.49907
21
-4.41489
0
LINE
8
BLACK
6
CONTINUOUS
10
7.49907
20
-4.41489
11
7.49907
21
-4.41489
0
LINE
8
BLACK
6
CONTINUOUS
10
7.49907
20
-4.41489
11
7.50314
21
-4.40882
0
LINE
8
BLACK
6
CONTINUOUS
10
7.50314
20
-4.40882
11
7.50314
21
-4.40882
0
LINE
8
BLACK
6
CONTINUOUS
10
7.50314
20
-4.40882
11
7.50327
21
-4.40862
0
LINE
8
BLACK
6
CONTINUOUS
10
7.50327
20
-4.40862
11
7.50365
21
-4.40772
0
LINE
8
BLACK
6
CONTINUOUS
10
7.50365
20
-4.40772
11
7.50617
21
-4.40165
0
LINE
8
BLACK
6
CONTINUOUS
10
7.50617
20
-4.40165
11
7.50626
21
-4.40143
0
LINE
8
BLACK
6
CONTINUOUS
10
7.50626
20
-4.40143
11
7.50647
21
-4.40042
0
LINE
8
BLACK
6
CONTINUOUS
10
7.50647
20
-4.40042
11
7.50675
21
-4.399
0
LINE
8
BLACK
6
CONTINUOUS
10
7.50675
20
-4.399
11
7.50806
21
-4.39653
0
LINE
8
BLACK
6
CONTINUOUS
10
7.50806
20
-4.39653
11
7.51049
21
-4.39515
0
LINE
8
BLACK
6
CONTINUOUS
10
7.51049
20
-4.39515
11
7.51162
21
-4.39502
0
LINE
8
BLACK
6
CONTINUOUS
10
7.51162
20
-4.39502
11
7.68523
21
-4.39502
0
LINE
8
BLACK
6
CONTINUOUS
10
7.68523
20
-4.39502
11
7.68792
21
-4.39581
0
LINE
8
BLACK
6
CONTINUOUS
10
7.68792
20
-4.39581
11
7.68975
21
-4.39792
0
LINE
8
BLACK
6
CONTINUOUS
10
7.68975
20
-4.39792
11
7.6901
21
-4.399
0
LINE
8
BLACK
6
CONTINUOUS
10
7.6901
20
-4.399
11
7.69038
21
-4.40042
0
LINE
8
BLACK
6
CONTINUOUS
10
7.69038
20
-4.40042
11
7.69059
21
-4.40143
0
LINE
8
BLACK
6
CONTINUOUS
10
7.69059
20
-4.40143
11
7.69068
21
-4.40165
0
LINE
8
BLACK
6
CONTINUOUS
10
7.69068
20
-4.40165
11
7.6932
21
-4.40772
0
LINE
8
BLACK
6
CONTINUOUS
10
7.6932
20
-4.40772
11
7.69358
21
-4.40862
0
LINE
8
BLACK
6
CONTINUOUS
10
7.69358
20
-4.40862
11
7.69371
21
-4.40882
0
LINE
8
BLACK
6
CONTINUOUS
10
7.69371
20
-4.40882
11
7.69371
21
-4.40882
0
LINE
8
BLACK
6
CONTINUOUS
10
7.69371
20
-4.40882
11
7.69778
21
-4.41489
0
LINE
8
BLACK
6
CONTINUOUS
10
7.69778
20
-4.41489
11
7.69778
21
-4.41489
0
LINE
8
BLACK
6
CONTINUOUS
10
7.69778
20
-4.41489
11
7.69791
21
-4.41509
0
LINE
8
BLACK
6
CONTINUOUS
10
7.69791
20
-4.41509
11
7.69939
21
-4.41657
0
LINE
8
BLACK
6
CONTINUOUS
10
7.69939
20
-4.41657
11
7.70073
21
-4.41902
0
LINE
8
BLACK
6
CONTINUOUS
10
7.70073
20
-4.41902
11
7.70053
21
-4.42181
0
LINE
8
BLACK
6
CONTINUOUS
10
7.70053
20
-4.42181
11
7.69939
21
-4.42359
0
LINE
8
BLACK
6
CONTINUOUS
10
7.69939
20
-4.42359
11
7.69791
21
-4.42507
0
LINE
8
BLACK
6
CONTINUOUS
10
7.69791
20
-4.42507
11
7.69778
21
-4.42527
0
LINE
8
BLACK
6
CONTINUOUS
10
7.69778
20
-4.42527
11
7.69778
21
-4.42527
0
LINE
8
BLACK
6
CONTINUOUS
10
7.69778
20
-4.42527
11
7.69371
21
-4.43134
0
LINE
8
BLACK
6
CONTINUOUS
10
7.69371
20
-4.43134
11
7.69371
21
-4.43134
0
LINE
8
BLACK
6
CONTINUOUS
10
7.69371
20
-4.43134
11
7.69358
21
-4.43154
0
LINE
8
BLACK
6
CONTINUOUS
10
7.69358
20
-4.43154
11
7.69059
21
-4.43873
0
LINE
8
BLACK
6
CONTINUOUS
10
7.69059
20
-4.43873
11
7.68905
21
-4.44636
0
LINE
8
BLACK
6
CONTINUOUS
10
7.68905
20
-4.44636
11
7.68904
21
-4.4466
0
LINE
8
BLACK
6
CONTINUOUS
10
7.68904
20
-4.4466
11
7.68904
21
-4.49356
0
LINE
8
BLACK
6
CONTINUOUS
10
7.68904
20
-4.49356
11
7.68905
21
-4.4938
0
LINE
8
BLACK
6
CONTINUOUS
10
7.68905
20
-4.4938
11
7.68908
21
-4.49398
0
LINE
8
BLACK
6
CONTINUOUS
10
7.68908
20
-4.49398
11
7.68908
21
-4.49398
0
LINE
8
BLACK
6
CONTINUOUS
10
7.68908
20
-4.49398
11
7.68951
21
-4.49608
0
LINE
8
BLACK
6
CONTINUOUS
10
7.68951
20
-4.49608
11
7.69059
21
-4.50143
0
LINE
8
BLACK
6
CONTINUOUS
10
7.69059
20
-4.50143
11
7.69358
21
-4.50862
0
LINE
8
BLACK
6
CONTINUOUS
10
7.69358
20
-4.50862
11
7.69371
21
-4.50882
0
LINE
8
BLACK
6
CONTINUOUS
10
7.69371
20
-4.50882
11
7.69371
21
-4.50882
0
LINE
8
BLACK
6
CONTINUOUS
10
7.69371
20
-4.50882
11
7.69778
21
-4.51489
0
LINE
8
BLACK
6
CONTINUOUS
10
7.69778
20
-4.51489
11
7.69778
21
-4.51489
0
LINE
8
BLACK
6
CONTINUOUS
10
7.69778
20
-4.51489
11
7.69791
21
-4.51509
0
LINE
8
BLACK
6
CONTINUOUS
10
7.69791
20
-4.51509
11
7.70342
21
-4.52059
0
LINE
8
BLACK
6
CONTINUOUS
10
7.70342
20
-4.52059
11
7.70362
21
-4.52073
0
LINE
8
BLACK
6
CONTINUOUS
10
7.70362
20
-4.52073
11
7.70362
21
-4.52073
0
LINE
8
BLACK
6
CONTINUOUS
10
7.70362
20
-4.52073
11
7.70969
21
-4.52479
0
LINE
8
BLACK
6
CONTINUOUS
10
7.70969
20
-4.52479
11
7.70969
21
-4.52479
0
LINE
8
BLACK
6
CONTINUOUS
10
7.70969
20
-4.52479
11
7.70989
21
-4.52492
0
LINE
8
BLACK
6
CONTINUOUS
10
7.70989
20
-4.52492
11
7.71708
21
-4.52792
0
LINE
8
BLACK
6
CONTINUOUS
10
7.71708
20
-4.52792
11
7.71731
21
-4.52797
0
LINE
8
BLACK
6
CONTINUOUS
10
7.71731
20
-4.52797
11
7.71731
21
-4.52797
0
LINE
8
BLACK
6
CONTINUOUS
10
7.71731
20
-4.52797
11
7.72453
21
-4.52942
0
LINE
8
BLACK
6
CONTINUOUS
10
7.72453
20
-4.52942
11
7.72471
21
-4.52946
0
LINE
8
BLACK
6
CONTINUOUS
10
7.72471
20
-4.52946
11
7.72495
21
-4.52947
0
LINE
8
BLACK
6
CONTINUOUS
10
7.72495
20
-4.52947
11
7.7719
21
-4.52947
0
LINE
8
BLACK
6
CONTINUOUS
10
7.7719
20
-4.52947
11
7.77214
21
-4.52946
0
LINE
8
BLACK
6
CONTINUOUS
10
7.77214
20
-4.52946
11
7.77232
21
-4.52942
0
LINE
8
BLACK
6
CONTINUOUS
10
7.77232
20
-4.52942
11
7.77954
21
-4.52797
0
LINE
8
BLACK
6
CONTINUOUS
10
7.77954
20
-4.52797
11
7.77954
21
-4.52797
0
LINE
8
BLACK
6
CONTINUOUS
10
7.77954
20
-4.52797
11
7.77977
21
-4.52792
0
LINE
8
BLACK
6
CONTINUOUS
10
7.77977
20
-4.52792
11
7.78696
21
-4.52492
0
LINE
8
BLACK
6
CONTINUOUS
10
7.78696
20
-4.52492
11
7.78717
21
-4.52479
0
LINE
8
BLACK
6
CONTINUOUS
10
7.78717
20
-4.52479
11
7.78717
21
-4.52479
0
LINE
8
BLACK
6
CONTINUOUS
10
7.78717
20
-4.52479
11
7.79043
21
-4.5226
0
LINE
8
BLACK
6
CONTINUOUS
10
7.79043
20
-4.5226
11
7.7931
21
-4.52176
0
LINE
8
BLACK
6
CONTINUOUS
10
7.7931
20
-4.52176
11
7.7958
21
-4.5225
0
LINE
8
BLACK
6
CONTINUOUS
10
7.7958
20
-4.5225
11
7.79767
21
-4.52458
0
LINE
8
BLACK
6
CONTINUOUS
10
7.79767
20
-4.52458
11
7.79812
21
-4.52734
0
LINE
8
BLACK
6
CONTINUOUS
10
7.79812
20
-4.52734
11
7.797
21
-4.5299
0
LINE
8
BLACK
6
CONTINUOUS
10
7.797
20
-4.5299
11
7.7967
21
-4.53023
0
LINE
8
BLACK
6
CONTINUOUS
10
7.7967
20
-4.53023
11
7.75857
21
-4.56836
0
LINE
8
BLACK
6
CONTINUOUS
10
7.75857
20
-4.56836
11
7.75825
21
-4.56866
0
LINE
8
BLACK
6
CONTINUOUS
10
7.75825
20
-4.56866
11
7.75799
21
-4.56882
0
LINE
8
BLACK
6
CONTINUOUS
10
7.75799
20
-4.56882
11
7.75778
21
-4.56905
0
LINE
8
BLACK
6
CONTINUOUS
10
7.75778
20
-4.56905
11
7.75616
21
-4.57077
0
LINE
8
BLACK
6
CONTINUOUS
10
7.75616
20
-4.57077
11
7.75605
21
-4.57089
0
LINE
8
BLACK
6
CONTINUOUS
10
7.75605
20
-4.57089
11
7.75527
21
-4.57166
0
LINE
8
BLACK
6
CONTINUOUS
10
7.75527
20
-4.57166
11
7.75517
21
-4.57179
0
LINE
8
BLACK
6
CONTINUOUS
10
7.75517
20
-4.57179
11
7.75487
21
-4.57214
0
LINE
8
BLACK
6
CONTINUOUS
10
7.75487
20
-4.57214
11
7.75368
21
-4.57341
0
LINE
8
BLACK
6
CONTINUOUS
10
7.75368
20
-4.57341
11
7.75353
21
-4.57369
0
LINE
8
BLACK
6
CONTINUOUS
10
7.75353
20
-4.57369
11
7.75353
21
-4.57369
0
LINE
8
BLACK
6
CONTINUOUS
10
7.75353
20
-4.57369
11
7.75329
21
-4.57411
0
LINE
8
BLACK
6
CONTINUOUS
10
7.75329
20
-4.57411
11
7.75287
21
-4.57476
0
LINE
8
BLACK
6
CONTINUOUS
10
7.75287
20
-4.57476
11
7.75238
21
-4.57539
0
LINE
8
BLACK
6
CONTINUOUS
10
7.75238
20
-4.57539
11
7.75225
21
-4.57568
0
LINE
8
BLACK
6
CONTINUOUS
10
7.75225
20
-4.57568
11
7.75225
21
-4.57568
0
LINE
8
BLACK
6
CONTINUOUS
10
7.75225
20
-4.57568
11
7.75169
21
-4.57699
0
LINE
8
BLACK
6
CONTINUOUS
10
7.75169
20
-4.57699
11
7.75148
21
-4.57741
0
LINE
8
BLACK
6
CONTINUOUS
10
7.75148
20
-4.57741
11
7.75064
21
-4.57893
0
LINE
8
BLACK
6
CONTINUOUS
10
7.75064
20
-4.57893
11
7.75056
21
-4.57924
0
LINE
8
BLACK
6
CONTINUOUS
10
7.75056
20
-4.57924
11
7.75056
21
-4.57924
0
LINE
8
BLACK
6
CONTINUOUS
10
7.75056
20
-4.57924
11
7.75044
21
-4.57971
0
LINE
8
BLACK
6
CONTINUOUS
10
7.75044
20
-4.57971
11
7.75019
21
-4.58044
0
LINE
8
BLACK
6
CONTINUOUS
10
7.75019
20
-4.58044
11
7.74987
21
-4.58118
0
LINE
8
BLACK
6
CONTINUOUS
10
7.74987
20
-4.58118
11
7.74983
21
-4.58148
0
LINE
8
BLACK
6
CONTINUOUS
10
7.74983
20
-4.58148
11
7.74983
21
-4.58148
0
LINE
8
BLACK
6
CONTINUOUS
10
7.74983
20
-4.58148
11
7.7496
21
-4.58289
0
LINE
8
BLACK
6
CONTINUOUS
10
7.7496
20
-4.58289
11
7.74951
21
-4.58335
0
LINE
8
BLACK
6
CONTINUOUS
10
7.74951
20
-4.58335
11
7.74907
21
-4.58504
0
LINE
8
BLACK
6
CONTINUOUS
10
7.74907
20
-4.58504
11
7.74907
21
-4.58584
0
LINE
8
BLACK
6
CONTINUOUS
10
7.74907
20
-4.58584
11
7.74901
21
-4.58661
0
LINE
8
BLACK
6
CONTINUOUS
10
7.74901
20
-4.58661
11
7.74889
21
-4.5874
0
LINE
8
BLACK
6
CONTINUOUS
10
7.74889
20
-4.5874
11
7.74892
21
-4.58771
0
LINE
8
BLACK
6
CONTINUOUS
10
7.74892
20
-4.58771
11
7.74905
21
-4.58913
0
LINE
8
BLACK
6
CONTINUOUS
10
7.74905
20
-4.58913
11
7.74907
21
-4.5896
0
LINE
8
BLACK
6
CONTINUOUS
10
7.74907
20
-4.5896
11
7.74907
21
-4.60691
0
LINE
8
BLACK
6
CONTINUOUS
10
7.74907
20
-4.60691
11
7.74829
21
-4.60959
0
LINE
8
BLACK
6
CONTINUOUS
10
7.74829
20
-4.60959
11
7.74617
21
-4.61142
0
LINE
8
BLACK
6
CONTINUOUS
10
7.74617
20
-4.61142
11
7.74411
21
-4.61187
0
LINE
8
BLACK
6
CONTINUOUS
10
7.74411
20
-4.61187
11
7.73866
21
-4.61187
0
LINE
8
BLACK
6
CONTINUOUS
10
7.73866
20
-4.61187
11
7.73621
21
-4.61214
0
LINE
8
BLACK
6
CONTINUOUS
10
7.73621
20
-4.61214
11
7.73084
21
-4.61415
0
LINE
8
BLACK
6
CONTINUOUS
10
7.73084
20
-4.61415
11
7.72625
21
-4.61759
0
LINE
8
BLACK
6
CONTINUOUS
10
7.72625
20
-4.61759
11
7.72281
21
-4.62218
0
LINE
8
BLACK
6
CONTINUOUS
10
7.72281
20
-4.62218
11
7.7208
21
-4.62755
0
LINE
8
BLACK
6
CONTINUOUS
10
7.7208
20
-4.62755
11
7.72053
21
-4.62999
0
LINE
8
BLACK
6
CONTINUOUS
10
7.72053
20
-4.62999
11
7.72053
21
-4.70071
0
LINE
8
BLACK
6
CONTINUOUS
10
7.72053
20
-4.70071
11
7.7208
21
-4.70316
0
LINE
8
BLACK
6
CONTINUOUS
10
7.7208
20
-4.70316
11
7.72281
21
-4.70853
0
LINE
8
BLACK
6
CONTINUOUS
10
7.72281
20
-4.70853
11
7.72625
21
-4.71312
0
LINE
8
BLACK
6
CONTINUOUS
10
7.72625
20
-4.71312
11
7.73084
21
-4.71656
0
LINE
8
BLACK
6
CONTINUOUS
10
7.73084
20
-4.71656
11
7.73621
21
-4.71857
0
LINE
8
BLACK
6
CONTINUOUS
10
7.73621
20
-4.71857
11
7.73866
21
-4.71884
0
LINE
8
BLACK
6
CONTINUOUS
10
7.73866
20
-4.71884
11
7.80938
21
-4.71884
0
LINE
8
BLACK
6
CONTINUOUS
10
7.80938
20
-4.71884
11
7.81182
21
-4.71857
0
LINE
8
BLACK
6
CONTINUOUS
10
7.81182
20
-4.71857
11
7.81719
21
-4.71656
0
LINE
8
BLACK
6
CONTINUOUS
10
7.81719
20
-4.71656
11
7.82178
21
-4.71312
0
LINE
8
BLACK
6
CONTINUOUS
10
7.82178
20
-4.71312
11
7.82522
21
-4.70853
0
LINE
8
BLACK
6
CONTINUOUS
10
7.82522
20
-4.70853
11
7.82696
21
-4.70389
0
LINE
8
BLACK
6
CONTINUOUS
10
7.82696
20
-4.70389
11
7.82864
21
-4.70166
0
LINE
8
BLACK
6
CONTINUOUS
10
7.82864
20
-4.70166
11
7.83126
21
-4.70068
0
LINE
8
BLACK
6
CONTINUOUS
10
7.83126
20
-4.70068
11
7.83399
21
-4.70128
0
LINE
8
BLACK
6
CONTINUOUS
10
7.83399
20
-4.70128
11
7.83535
21
-4.70239
0
LINE
8
BLACK
6
CONTINUOUS
10
7.83535
20
-4.70239
11
7.83635
21
-4.70353
0
LINE
8
BLACK
6
CONTINUOUS
10
7.83635
20
-4.70353
11
7.83664
21
-4.70381
0
LINE
8
BLACK
6
CONTINUOUS
10
7.83664
20
-4.70381
11
7.84309
21
-4.70917
0
LINE
8
BLACK
6
CONTINUOUS
10
7.84309
20
-4.70917
11
7.84342
21
-4.7094
0
LINE
8
BLACK
6
CONTINUOUS
10
7.84342
20
-4.7094
11
7.85066
21
-4.71363
0
LINE
8
BLACK
6
CONTINUOUS
10
7.85066
20
-4.71363
11
7.85103
21
-4.71381
0
LINE
8
BLACK
6
CONTINUOUS
10
7.85103
20
-4.71381
11
7.85886
21
-4.7168
0
LINE
8
BLACK
6
CONTINUOUS
10
7.85886
20
-4.7168
11
7.85925
21
-4.71691
0
LINE
8
BLACK
6
CONTINUOUS
10
7.85925
20
-4.71691
11
7.86332
21
-4.71774
0
LINE
8
BLACK
6
CONTINUOUS
10
7.86332
20
-4.71774
11
7.86387
21
-4.71769
0
LINE
8
BLACK
6
CONTINUOUS
10
7.86387
20
-4.71769
11
7.86402
21
-4.71729
0
LINE
8
BLACK
6
CONTINUOUS
10
7.86402
20
-4.71729
11
7.86402
21
-4.69725
0
LINE
8
BLACK
6
CONTINUOUS
10
7.86402
20
-4.69725
11
7.86367
21
-4.69718
0
LINE
8
BLACK
6
CONTINUOUS
10
7.86367
20
-4.69718
11
7.85728
21
-4.69434
0
LINE
8
BLACK
6
CONTINUOUS
10
7.85728
20
-4.69434
11
7.85162
21
-4.69022
0
LINE
8
BLACK
6
CONTINUOUS
10
7.85162
20
-4.69022
11
7.84694
21
-4.68502
0
LINE
8
BLACK
6
CONTINUOUS
10
7.84694
20
-4.68502
11
7.84344
21
-4.67897
0
LINE
8
BLACK
6
CONTINUOUS
10
7.84344
20
-4.67897
11
7.84128
21
-4.67231
0
LINE
8
BLACK
6
CONTINUOUS
10
7.84128
20
-4.67231
11
7.84055
21
-4.66535
0
LINE
8
BLACK
6
CONTINUOUS
10
7.84055
20
-4.66535
11
7.84128
21
-4.6584
0
LINE
8
BLACK
6
CONTINUOUS
10
7.84128
20
-4.6584
11
7.84344
21
-4.65174
0
LINE
8
BLACK
6
CONTINUOUS
10
7.84344
20
-4.65174
11
7.84694
21
-4.64568
0
LINE
8
BLACK
6
CONTINUOUS
10
7.84694
20
-4.64568
11
7.85162
21
-4.64049
0
LINE
8
BLACK
6
CONTINUOUS
10
7.85162
20
-4.64049
11
7.85728
21
-4.63637
0
LINE
8
BLACK
6
CONTINUOUS
10
7.85728
20
-4.63637
11
7.86367
21
-4.63353
0
LINE
8
BLACK
6
CONTINUOUS
10
7.86367
20
-4.63353
11
7.86402
21
-4.63346
0
LINE
8
BLACK
6
CONTINUOUS
10
7.86402
20
-4.63346
11
7.86402
21
-4.61351
0
LINE
8
BLACK
6
CONTINUOUS
10
7.86402
20
-4.61351
11
7.86386
21
-4.61298
0
LINE
8
BLACK
6
CONTINUOUS
10
7.86386
20
-4.61298
11
7.8633
21
-4.6129
0
LINE
8
BLACK
6
CONTINUOUS
10
7.8633
20
-4.6129
11
7.86178
21
-4.61314
0
LINE
8
BLACK
6
CONTINUOUS
10
7.86178
20
-4.61314
11
7.86139
21
-4.61323
0
LINE
8
BLACK
6
CONTINUOUS
10
7.86139
20
-4.61323
11
7.85342
21
-4.61584
0
LINE
8
BLACK
6
CONTINUOUS
10
7.85342
20
-4.61584
11
7.85305
21
-4.61599
0
LINE
8
BLACK
6
CONTINUOUS
10
7.85305
20
-4.61599
11
7.84561
21
-4.61986
0
LINE
8
BLACK
6
CONTINUOUS
10
7.84561
20
-4.61986
11
7.84527
21
-4.62008
0
LINE
8
BLACK
6
CONTINUOUS
10
7.84527
20
-4.62008
11
7.83856
21
-4.62511
0
LINE
8
BLACK
6
CONTINUOUS
10
7.83856
20
-4.62511
11
7.83826
21
-4.62538
0
LINE
8
BLACK
6
CONTINUOUS
10
7.83826
20
-4.62538
11
7.83522
21
-4.62857
0
LINE
8
BLACK
6
CONTINUOUS
10
7.83522
20
-4.62857
11
7.83279
21
-4.62996
0
LINE
8
BLACK
6
CONTINUOUS
10
7.83279
20
-4.62996
11
7.83
21
-4.62983
0
LINE
8
BLACK
6
CONTINUOUS
10
7.83
20
-4.62983
11
7.82773
21
-4.6282
0
LINE
8
BLACK
6
CONTINUOUS
10
7.82773
20
-4.6282
11
7.82698
21
-4.62688
0
LINE
8
BLACK
6
CONTINUOUS
10
7.82698
20
-4.62688
11
7.82535
21
-4.62251
0
LINE
8
BLACK
6
CONTINUOUS
10
7.82535
20
-4.62251
11
7.82522
21
-4.62218
0
LINE
8
BLACK
6
CONTINUOUS
10
7.82522
20
-4.62218
11
7.82178
21
-4.61759
0
LINE
8
BLACK
6
CONTINUOUS
10
7.82178
20
-4.61759
11
7.81719
21
-4.61415
0
LINE
8
BLACK
6
CONTINUOUS
10
7.81719
20
-4.61415
11
7.81182
21
-4.61214
0
LINE
8
BLACK
6
CONTINUOUS
10
7.81182
20
-4.61214
11
7.80938
21
-4.61187
0
LINE
8
BLACK
6
CONTINUOUS
10
7.80938
20
-4.61187
11
7.80392
21
-4.61187
0
LINE
8
BLACK
6
CONTINUOUS
10
7.80392
20
-4.61187
11
7.80124
21
-4.61108
0
LINE
8
BLACK
6
CONTINUOUS
10
7.80124
20
-4.61108
11
7.7994
21
-4.60897
0
LINE
8
BLACK
6
CONTINUOUS
10
7.7994
20
-4.60897
11
7.79896
21
-4.60691
0
LINE
8
BLACK
6
CONTINUOUS
10
7.79896
20
-4.60691
11
7.79896
21
-4.60057
0
LINE
8
BLACK
6
CONTINUOUS
10
7.79896
20
-4.60057
11
7.79974
21
-4.59789
0
LINE
8
BLACK
6
CONTINUOUS
10
7.79974
20
-4.59789
11
7.80041
21
-4.59707
0
LINE
8
BLACK
6
CONTINUOUS
10
7.80041
20
-4.59707
11
7.93805
21
-4.45943
0
LINE
8
BLACK
6
CONTINUOUS
10
7.93805
20
-4.45943
11
7.9405
21
-4.45809
0
LINE
8
BLACK
6
CONTINUOUS
10
7.9405
20
-4.45809
11
7.94329
21
-4.45829
0
LINE
8
BLACK
6
CONTINUOUS
10
7.94329
20
-4.45829
11
7.94553
21
-4.45996
0
LINE
8
BLACK
6
CONTINUOUS
10
7.94553
20
-4.45996
11
7.9465
21
-4.46258
0
LINE
8
BLACK
6
CONTINUOUS
10
7.9465
20
-4.46258
11
7.94652
21
-4.46294
0
LINE
8
BLACK
6
CONTINUOUS
10
7.94652
20
-4.46294
11
7.94652
21
-4.46445
0
LINE
8
BLACK
6
CONTINUOUS
10
7.94652
20
-4.46445
11
7.94663
21
-4.46609
0
LINE
8
BLACK
6
CONTINUOUS
10
7.94663
20
-4.46609
11
7.94835
21
-4.47301
0
LINE
8
BLACK
6
CONTINUOUS
10
7.94835
20
-4.47301
11
7.94847
21
-4.47325
0
LINE
8
BLACK
6
CONTINUOUS
10
7.94847
20
-4.47325
11
7.94847
21
-4.47325
0
LINE
8
BLACK
6
CONTINUOUS
10
7.94847
20
-4.47325
11
7.94968
21
-4.47569
0
LINE
8
BLACK
6
CONTINUOUS
10
7.94968
20
-4.47569
11
7.95152
21
-4.4794
0
LINE
8
BLACK
6
CONTINUOUS
10
7.95152
20
-4.4794
11
7.95599
21
-4.48495
0
LINE
8
BLACK
6
CONTINUOUS
10
7.95599
20
-4.48495
11
7.96155
21
-4.48942
0
LINE
8
BLACK
6
CONTINUOUS
10
7.96155
20
-4.48942
11
7.96474
21
-4.49101
0
LINE
8
BLACK
6
CONTINUOUS
10
7.96474
20
-4.49101
11
7.96769
21
-4.49247
0
LINE
8
BLACK
6
CONTINUOUS
10
7.96769
20
-4.49247
11
7.96769
21
-4.49247
0
LINE
8
BLACK
6
CONTINUOUS
10
7.96769
20
-4.49247
11
7.96793
21
-4.49259
0
LINE
8
BLACK
6
CONTINUOUS
10
7.96793
20
-4.49259
11
7.97485
21
-4.49432
0
LINE
8
BLACK
6
CONTINUOUS
10
7.97485
20
-4.49432
11
7.97566
21
-4.49437
0
LINE
8
BLACK
6
CONTINUOUS
10
7.97566
20
-4.49437
11
7.97641
21
-4.49442
0
LINE
8
BLACK
6
CONTINUOUS
10
7.97641
20
-4.49442
11
7.97641
21
-4.49442
0
LINE
8
BLACK
6
CONTINUOUS
10
7.97641
20
-4.49442
11
7.97649
21
-4.49443
0
LINE
8
BLACK
6
CONTINUOUS
10
7.97649
20
-4.49443
11
7.99212
21
-4.49443
0
LINE
8
BLACK
6
CONTINUOUS
10
7.99212
20
-4.49443
11
8.00776
21
-4.49443
0
LINE
8
BLACK
6
CONTINUOUS
10
8.00776
20
-4.49443
11
8.00898
21
-4.49435
0
LINE
8
BLACK
6
CONTINUOUS
10
8.00898
20
-4.49435
11
8.00918
21
-4.49433
0
LINE
8
BLACK
6
CONTINUOUS
10
8.00918
20
-4.49433
11
8.00918
21
-4.49433
0
LINE
8
BLACK
6
CONTINUOUS
10
8.00918
20
-4.49433
11
8.0094
21
-4.49432
0
LINE
8
BLACK
6
CONTINUOUS
10
8.0094
20
-4.49432
11
8.01632
21
-4.49259
0
LINE
8
BLACK
6
CONTINUOUS
10
8.01632
20
-4.49259
11
8.01656
21
-4.49247
0
LINE
8
BLACK
6
CONTINUOUS
10
8.01656
20
-4.49247
11
8.01656
21
-4.49247
0
LINE
8
BLACK
6
CONTINUOUS
10
8.01656
20
-4.49247
11
8.01951
21
-4.49101
0
LINE
8
BLACK
6
CONTINUOUS
10
8.01951
20
-4.49101
11
8.02271
21
-4.48942
0
LINE
8
BLACK
6
CONTINUOUS
10
8.02271
20
-4.48942
11
8.02826
21
-4.48495
0
LINE
8
BLACK
6
CONTINUOUS
10
8.02826
20
-4.48495
11
8.03273
21
-4.4794
0
LINE
8
BLACK
6
CONTINUOUS
10
8.03273
20
-4.4794
11
8.03285
21
-4.47916
0
LINE
8
BLACK
6
CONTINUOUS
10
8.03285
20
-4.47916
11
8.03285
21
-4.47916
0
LINE
8
BLACK
6
CONTINUOUS
10
8.03285
20
-4.47916
11
8.03416
21
-4.47651
0
LINE
8
BLACK
6
CONTINUOUS
10
8.03416
20
-4.47651
11
8.03606
21
-4.47446
0
LINE
8
BLACK
6
CONTINUOUS
10
8.03606
20
-4.47446
11
8.0386
21
-4.47376
0
LINE
8
BLACK
6
CONTINUOUS
10
8.0386
20
-4.47376
11
8.12281
21
-4.47376
0
LINE
8
BLACK
6
CONTINUOUS
10
8.12281
20
-4.47376
11
8.1255
21
-4.47455
0
LINE
8
BLACK
6
CONTINUOUS
10
8.1255
20
-4.47455
11
8.12726
21
-4.47651
0
LINE
8
BLACK
6
CONTINUOUS
10
8.12726
20
-4.47651
11
8.12857
21
-4.47916
0
LINE
8
BLACK
6
CONTINUOUS
10
8.12857
20
-4.47916
11
8.12857
21
-4.47916
0
LINE
8
BLACK
6
CONTINUOUS
10
8.12857
20
-4.47916
11
8.12869
21
-4.4794
0
LINE
8
BLACK
6
CONTINUOUS
10
8.12869
20
-4.4794
11
8.13316
21
-4.48495
0
LINE
8
BLACK
6
CONTINUOUS
10
8.13316
20
-4.48495
11
8.13871
21
-4.48942
0
LINE
8
BLACK
6
CONTINUOUS
10
8.13871
20
-4.48942
11
8.13895
21
-4.48954
0
LINE
8
BLACK
6
CONTINUOUS
10
8.13895
20
-4.48954
11
8.13895
21
-4.48954
0
LINE
8
BLACK
6
CONTINUOUS
10
8.13895
20
-4.48954
11
8.14002
21
-4.49007
0
LINE
8
BLACK
6
CONTINUOUS
10
8.14002
20
-4.49007
11
8.14207
21
-4.49197
0
LINE
8
BLACK
6
CONTINUOUS
10
8.14207
20
-4.49197
11
8.14278
21
-4.49452
0
LINE
8
BLACK
6
CONTINUOUS
10
8.14278
20
-4.49452
11
8.14278
21
-4.60691
0
LINE
8
BLACK
6
CONTINUOUS
10
8.14278
20
-4.60691
11
8.14199
21
-4.60959
0
LINE
8
BLACK
6
CONTINUOUS
10
8.14199
20
-4.60959
11
8.13988
21
-4.61142
0
LINE
8
BLACK
6
CONTINUOUS
10
8.13988
20
-4.61142
11
8.13781
21
-4.61187
0
LINE
8
BLACK
6
CONTINUOUS
10
8.13781
20
-4.61187
11
8.13236
21
-4.61187
0
LINE
8
BLACK
6
CONTINUOUS
10
8.13236
20
-4.61187
11
8.12991
21
-4.61214
0
LINE
8
BLACK
6
CONTINUOUS
10
8.12991
20
-4.61214
11
8.12454
21
-4.61415
0
LINE
8
BLACK
6
CONTINUOUS
10
8.12454
20
-4.61415
11
8.11995
21
-4.61759
0
LINE
8
BLACK
6
CONTINUOUS
10
8.11995
20
-4.61759
11
8.11651
21
-4.62218
0
LINE
8
BLACK
6
CONTINUOUS
10
8.11651
20
-4.62218
11
8.1145
21
-4.62755
0
LINE
8
BLACK
6
CONTINUOUS
10
8.1145
20
-4.62755
11
8.11423
21
-4.62999
0
LINE
8
BLACK
6
CONTINUOUS
10
8.11423
20
-4.62999
11
8.11423
21
-4.68169
0
LINE
8
BLACK
6
CONTINUOUS
10
8.11423
20
-4.68169
11
8.11344
21
-4.68438
0
LINE
8
BLACK
6
CONTINUOUS
10
8.11344
20
-4.68438
11
8.11133
21
-4.68621
0
LINE
8
BLACK
6
CONTINUOUS
10
8.11133
20
-4.68621
11
8.10927
21
-4.68665
0
LINE
8
BLACK
6
CONTINUOUS
10
8.10927
20
-4.68665
11
8.0396
21
-4.68665
0
LINE
8
BLACK
6
CONTINUOUS
10
8.0396
20
-4.68665
11
8.03692
21
-4.68587
0
LINE
8
BLACK
6
CONTINUOUS
10
8.03692
20
-4.68587
11
8.03609
21
-4.6852
0
LINE
8
BLACK
6
CONTINUOUS
10
8.03609
20
-4.6852
11
8.02833
21
-4.67744
0
LINE
8
BLACK
6
CONTINUOUS
10
8.02833
20
-4.67744
11
8.02699
21
-4.67498
0
LINE
8
BLACK
6
CONTINUOUS
10
8.02699
20
-4.67498
11
8.02692
21
-4.67328
0
LINE
8
BLACK
6
CONTINUOUS
10
8.02692
20
-4.67328
11
8.02762
21
-4.66798
0
LINE
8
BLACK
6
CONTINUOUS
10
8.02762
20
-4.66798
11
8.02768
21
-4.66535
0
LINE
8
BLACK
6
CONTINUOUS
10
8.02768
20
-4.66535
11
8.02696
21
-4.65659
0
LINE
8
BLACK
6
CONTINUOUS
10
8.02696
20
-4.65659
11
8.02482
21
-4.64806
0
LINE
8
BLACK
6
CONTINUOUS
10
8.02482
20
-4.64806
11
8.02131
21
-4.63999
0
LINE
8
BLACK
6
CONTINUOUS
10
8.02131
20
-4.63999
11
8.01654
21
-4.63261
0
LINE
8
BLACK
6
CONTINUOUS
10
8.01654
20
-4.63261
11
8.01062
21
-4.6261
0
LINE
8
BLACK
6
CONTINUOUS
10
8.01062
20
-4.6261
11
8.01046
21
-4.62598
0
LINE
8
BLACK
6
CONTINUOUS
10
8.01046
20
-4.62598
11
8.01046
21
-4.62598
0
LINE
8
BLACK
6
CONTINUOUS
10
8.01046
20
-4.62598
11
8.00387
21
-4.62078
0
LINE
8
BLACK
6
CONTINUOUS
10
8.00387
20
-4.62078
11
8.00387
21
-4.62078
0
LINE
8
BLACK
6
CONTINUOUS
10
8.00387
20
-4.62078
11
8.00371
21
-4.62065
0
LINE
8
BLACK
6
CONTINUOUS
10
8.00371
20
-4.62065
11
8.00228
21
-4.61986
0
LINE
8
BLACK
6
CONTINUOUS
10
8.00228
20
-4.61986
11
8.00166
21
-4.61952
0
LINE
8
BLACK
6
CONTINUOUS
10
8.00166
20
-4.61952
11
7.99602
21
-4.6164
0
LINE
8
BLACK
6
CONTINUOUS
10
7.99602
20
-4.6164
11
7.99582
21
-4.61634
0
LINE
8
BLACK
6
CONTINUOUS
10
7.99582
20
-4.61634
11
7.99582
21
-4.61634
0
LINE
8
BLACK
6
CONTINUOUS
10
7.99582
20
-4.61634
11
7.98792
21
-4.61354
0
LINE
8
BLACK
6
CONTINUOUS
10
7.98792
20
-4.61354
11
7.98792
21
-4.61354
0
LINE
8
BLACK
6
CONTINUOUS
10
7.98792
20
-4.61354
11
7.98772
21
-4.61347
0
LINE
8
BLACK
6
CONTINUOUS
10
7.98772
20
-4.61347
11
7.98752
21
-4.61343
0
LINE
8
BLACK
6
CONTINUOUS
10
7.98752
20
-4.61343
11
7.98752
21
-4.61343
0
LINE
8
BLACK
6
CONTINUOUS
10
7.98752
20
-4.61343
11
7.97927
21
-4.61196
0
LINE
8
BLACK
6
CONTINUOUS
10
7.97927
20
-4.61196
11
7.97927
21
-4.61196
0
LINE
8
BLACK
6
CONTINUOUS
10
7.97927
20
-4.61196
11
7.97907
21
-4.61192
0
LINE
8
BLACK
6
CONTINUOUS
10
7.97907
20
-4.61192
11
7.97616
21
-4.61189
0
LINE
8
BLACK
6
CONTINUOUS
10
7.97616
20
-4.61189
11
7.97048
21
-4.61182
0
LINE
8
BLACK
6
CONTINUOUS
10
7.97048
20
-4.61182
11
7.97048
21
-4.61182
0
LINE
8
BLACK
6
CONTINUOUS
10
7.97048
20
-4.61182
11
7.97027
21
-4.61182
0
LINE
8
BLACK
6
CONTINUOUS
10
7.97027
20
-4.61182
11
7.96158
21
-4.61315
0
LINE
8
BLACK
6
CONTINUOUS
10
7.96158
20
-4.61315
11
7.95322
21
-4.61588
0
LINE
8
BLACK
6
CONTINUOUS
10
7.95322
20
-4.61588
11
7.94542
21
-4.61994
0
LINE
8
BLACK
6
CONTINUOUS
10
7.94542
20
-4.61994
11
7.94525
21
-4.62006
0
LINE
8
BLACK
6
CONTINUOUS
10
7.94525
20
-4.62006
11
7.94525
21
-4.62006
0
LINE
8
BLACK
6
CONTINUOUS
10
7.94525
20
-4.62006
11
7.93855
21
-4.6251
0
LINE
8
BLACK
6
CONTINUOUS
10
7.93855
20
-4.6251
11
7.93838
21
-4.62522
0
LINE
8
BLACK
6
CONTINUOUS
10
7.93838
20
-4.62522
11
7.93231
21
-4.63158
0
LINE
8
BLACK
6
CONTINUOUS
10
7.93231
20
-4.63158
11
7.93219
21
-4.63175
0
LINE
8
BLACK
6
CONTINUOUS
10
7.93219
20
-4.63175
11
7.93219
21
-4.63175
0
LINE
8
BLACK
6
CONTINUOUS
10
7.93219
20
-4.63175
11
7.92807
21
-4.6378
0
LINE
8
BLACK
6
CONTINUOUS
10
7.92807
20
-4.6378
11
7.92591
21
-4.63957
0
LINE
8
BLACK
6
CONTINUOUS
10
7.92591
20
-4.63957
11
7.92313
21
-4.63989
0
LINE
8
BLACK
6
CONTINUOUS
10
7.92313
20
-4.63989
11
7.92062
21
-4.63866
0
LINE
8
BLACK
6
CONTINUOUS
10
7.92062
20
-4.63866
11
7.9198
21
-4.6377
0
LINE
8
BLACK
6
CONTINUOUS
10
7.9198
20
-4.6377
11
7.91663
21
-4.63279
0
LINE
8
BLACK
6
CONTINUOUS
10
7.91663
20
-4.63279
11
7.91638
21
-4.63247
0
LINE
8
BLACK
6
CONTINUOUS
10
7.91638
20
-4.63247
11
7.91074
21
-4.62627
0
LINE
8
BLACK
6
CONTINUOUS
10
7.91074
20
-4.62627
11
7.91044
21
-4.62599
0
LINE
8
BLACK
6
CONTINUOUS
10
7.91044
20
-4.62599
11
7.90386
21
-4.6208
0
LINE
8
BLACK
6
CONTINUOUS
10
7.90386
20
-4.6208
11
7.90353
21
-4.62057
0
LINE
8
BLACK
6
CONTINUOUS
10
7.90353
20
-4.62057
11
7.89619
21
-4.61652
0
LINE
8
BLACK
6
CONTINUOUS
10
7.89619
20
-4.61652
11
7.89582
21
-4.61635
0
LINE
8
BLACK
6
CONTINUOUS
10
7.89582
20
-4.61635
11
7.88791
21
-4.61355
0
LINE
8
BLACK
6
CONTINUOUS
10
7.88791
20
-4.61355
11
7.88752
21
-4.61345
0
LINE
8
BLACK
6
CONTINUOUS
10
7.88752
20
-4.61345
11
7.88472
21
-4.61295
0
LINE
8
BLACK
6
CONTINUOUS
10
7.88472
20
-4.61295
11
7.88419
21
-4.61301
0
LINE
8
BLACK
6
CONTINUOUS
10
7.88419
20
-4.61301
11
7.88402
21
-4.61358
0
LINE
8
BLACK
6
CONTINUOUS
10
7.88402
20
-4.61358
11
7.88402
21
-4.63346
0
LINE
8
BLACK
6
CONTINUOUS
10
7.88402
20
-4.63346
11
7.88436
21
-4.63353
0
LINE
8
BLACK
6
CONTINUOUS
10
7.88436
20
-4.63353
11
7.89075
21
-4.63637
0
LINE
8
BLACK
6
CONTINUOUS
10
7.89075
20
-4.63637
11
7.89641
21
-4.64049
0
LINE
8
BLACK
6
CONTINUOUS
10
7.89641
20
-4.64049
11
7.90109
21
-4.64568
0
LINE
8
BLACK
6
CONTINUOUS
10
7.90109
20
-4.64568
11
7.90459
21
-4.65174
0
LINE
8
BLACK
6
CONTINUOUS
10
7.90459
20
-4.65174
11
7.90675
21
-4.6584
0
LINE
8
BLACK
6
CONTINUOUS
10
7.90675
20
-4.6584
11
7.90748
21
-4.66535
0
LINE
8
BLACK
6
CONTINUOUS
10
7.90748
20
-4.66535
11
7.90675
21
-4.67231
0
LINE
8
BLACK
6
CONTINUOUS
10
7.90675
20
-4.67231
11
7.90459
21
-4.67897
0
LINE
8
BLACK
6
CONTINUOUS
10
7.90459
20
-4.67897
11
7.90109
21
-4.68502
0
LINE
8
BLACK
6
CONTINUOUS
10
7.90109
20
-4.68502
11
7.89641
21
-4.69022
0
LINE
8
BLACK
6
CONTINUOUS
10
7.89641
20
-4.69022
11
7.89075
21
-4.69434
0
LINE
8
BLACK
6
CONTINUOUS
10
7.89075
20
-4.69434
11
7.88436
21
-4.69718
0
LINE
8
BLACK
6
CONTINUOUS
10
7.88436
20
-4.69718
11
7.88402
21
-4.69725
0
LINE
8
BLACK
6
CONTINUOUS
10
7.88402
20
-4.69725
11
7.88402
21
-4.71726
0
LINE
8
BLACK
6
CONTINUOUS
10
7.88402
20
-4.71726
11
7.88418
21
-4.71781
0
LINE
8
BLACK
6
CONTINUOUS
10
7.88418
20
-4.71781
11
7.8847
21
-4.71789
0
LINE
8
BLACK
6
CONTINUOUS
10
7.8847
20
-4.71789
11
7.88497
21
-4.71786
0
LINE
8
BLACK
6
CONTINUOUS
10
7.88497
20
-4.71786
11
7.88536
21
-4.71777
0
LINE
8
BLACK
6
CONTINUOUS
10
7.88536
20
-4.71777
11
7.8934
21
-4.71536
0
LINE
8
BLACK
6
CONTINUOUS
10
7.8934
20
-4.71536
11
7.89377
21
-4.71521
0
LINE
8
BLACK
6
CONTINUOUS
10
7.89377
20
-4.71521
11
7.9013
21
-4.71153
0
LINE
8
BLACK
6
CONTINUOUS
10
7.9013
20
-4.71153
11
7.90165
21
-4.71132
0
LINE
8
BLACK
6
CONTINUOUS
10
7.90165
20
-4.71132
11
7.90848
21
-4.70645
0
LINE
8
BLACK
6
CONTINUOUS
10
7.90848
20
-4.70645
11
7.90879
21
-4.70619
0
LINE
8
BLACK
6
CONTINUOUS
10
7.90879
20
-4.70619
11
7.91473
21
-4.70027
0
LINE
8
BLACK
6
CONTINUOUS
10
7.91473
20
-4.70027
11
7.91499
21
-4.69996
0
LINE
8
BLACK
6
CONTINUOUS
10
7.91499
20
-4.69996
11
7.92
21
-4.69299
0
LINE
8
BLACK
6
CONTINUOUS
10
7.92
20
-4.69299
11
7.92005
21
-4.69302
0
LINE
8
BLACK
6
CONTINUOUS
10
7.92005
20
-4.69302
11
7.9219
21
-4.69131
0
LINE
8
BLACK
6
CONTINUOUS
10
7.9219
20
-4.69131
11
7.92466
21
-4.69083
0
LINE
8
BLACK
6
CONTINUOUS
10
7.92466
20
-4.69083
11
7.92723
21
-4.69192
0
LINE
8
BLACK
6
CONTINUOUS
10
7.92723
20
-4.69192
11
7.92833
21
-4.69317
0
LINE
8
BLACK
6
CONTINUOUS
10
7.92833
20
-4.69317
11
7.93071
21
-4.69705
0
LINE
8
BLACK
6
CONTINUOUS
10
7.93071
20
-4.69705
11
7.93647
21
-4.7037
0
LINE
8
BLACK
6
CONTINUOUS
10
7.93647
20
-4.7037
11
7.94323
21
-4.70932
0
LINE
8
BLACK
6
CONTINUOUS
10
7.94323
20
-4.70932
11
7.95083
21
-4.71375
0
LINE
8
BLACK
6
CONTINUOUS
10
7.95083
20
-4.71375
11
7.95904
21
-4.71689
0
LINE
8
BLACK
6
CONTINUOUS
10
7.95904
20
-4.71689
11
7.95924
21
-4.71693
0
LINE
8
BLACK
6
CONTINUOUS
10
7.95924
20
-4.71693
11
7.95924
21
-4.71693
0
LINE
8
BLACK
6
CONTINUOUS
10
7.95924
20
-4.71693
11
7.96299
21
-4.71769
0
LINE
8
BLACK
6
CONTINUOUS
10
7.96299
20
-4.71769
11
7.96766
21
-4.71864
0
LINE
8
BLACK
6
CONTINUOUS
10
7.96766
20
-4.71864
11
7.96787
21
-4.71865
0
LINE
8
BLACK
6
CONTINUOUS
10
7.96787
20
-4.71865
11
7.96787
21
-4.71865
0
LINE
8
BLACK
6
CONTINUOUS
10
7.96787
20
-4.71865
11
7.97625
21
-4.71896
0
LINE
8
BLACK
6
CONTINUOUS
10
7.97625
20
-4.71896
11
7.97625
21
-4.71896
0
LINE
8
BLACK
6
CONTINUOUS
10
7.97625
20
-4.71896
11
7.97645
21
-4.71897
0
LINE
8
BLACK
6
CONTINUOUS
10
7.97645
20
-4.71897
11
7.98196
21
-4.71826
0
LINE
8
BLACK
6
CONTINUOUS
10
7.98196
20
-4.71826
11
7.98473
21
-4.7187
0
LINE
8
BLACK
6
CONTINUOUS
10
7.98473
20
-4.7187
11
7.9861
21
-4.71967
0
LINE
8
BLACK
6
CONTINUOUS
10
7.9861
20
-4.71967
11
8.00172
21
-4.73529
0
LINE
8
BLACK
6
CONTINUOUS
10
8.00172
20
-4.73529
11
8.00306
21
-4.73774
0
LINE
8
BLACK
6
CONTINUOUS
10
8.00306
20
-4.73774
11
8.00286
21
-4.74053
0
LINE
8
BLACK
6
CONTINUOUS
10
8.00286
20
-4.74053
11
8.00119
21
-4.74277
0
LINE
8
BLACK
6
CONTINUOUS
10
8.00119
20
-4.74277
11
7.99857
21
-4.74375
0
LINE
8
BLACK
6
CONTINUOUS
10
7.99857
20
-4.74375
11
7.99821
21
-4.74376
0
LINE
8
BLACK
6
CONTINUOUS
10
7.99821
20
-4.74376
11
7.20667
21
-4.74376
0
LINE
8
BLACK
6
CONTINUOUS
10
7.20667
20
-4.74376
11
7.2059
21
-4.7437
0
LINE
8
BLACK
6
CONTINUOUS
10
7.2059
20
-4.7437
11
7.20532
21
-4.74361
0
LINE
8
BLACK
6
CONTINUOUS
10
7.20532
20
-4.74361
11
7.20532
21
-4.74361
0
LINE
8
BLACK
6
CONTINUOUS
10
7.20532
20
-4.74361
11
7.20497
21
-4.74356
0
LINE
8
BLACK
6
CONTINUOUS
10
7.20497
20
-4.74356
11
7.20437
21
-4.74363
0
LINE
8
BLACK
6
CONTINUOUS
10
7.20437
20
-4.74363
11
7.20337
21
-4.74366
0
LINE
8
BLACK
6
CONTINUOUS
10
7.20337
20
-4.74366
11
7.19672
21
-4.74319
0
LINE
8
BLACK
6
CONTINUOUS
10
7.19672
20
-4.74319
11
7.19602
21
-4.74309
0
LINE
8
BLACK
6
CONTINUOUS
10
7.19602
20
-4.74309
11
7.18853
21
-4.74146
0
LINE
8
BLACK
6
CONTINUOUS
10
7.18853
20
-4.74146
11
7.18785
21
-4.74126
0
LINE
8
BLACK
6
CONTINUOUS
10
7.18785
20
-4.74126
11
7.18066
21
-4.73858
0
LINE
8
BLACK
6
CONTINUOUS
10
7.18066
20
-4.73858
11
7.18002
21
-4.73828
0
LINE
8
BLACK
6
CONTINUOUS
10
7.18002
20
-4.73828
11
7.17329
21
-4.73461
0
LINE
8
BLACK
6
CONTINUOUS
10
7.17329
20
-4.73461
11
7.17269
21
-4.73423
0
LINE
8
BLACK
6
CONTINUOUS
10
7.17269
20
-4.73423
11
7.16655
21
-4.72963
0
LINE
8
BLACK
6
CONTINUOUS
10
7.16655
20
-4.72963
11
7.16602
21
-4.72917
0
LINE
8
BLACK
6
CONTINUOUS
10
7.16602
20
-4.72917
11
7.1606
21
-4.72374
0
LINE
8
BLACK
6
CONTINUOUS
10
7.1606
20
-4.72374
11
7.16013
21
-4.72321
0
LINE
8
BLACK
6
CONTINUOUS
10
7.16013
20
-4.72321
11
7.15554
21
-4.71707
0
LINE
8
BLACK
6
CONTINUOUS
10
7.15554
20
-4.71707
11
7.15516
21
-4.71647
0
LINE
8
BLACK
6
CONTINUOUS
10
7.15516
20
-4.71647
11
7.15148
21
-4.70974
0
LINE
8
BLACK
6
CONTINUOUS
10
7.15148
20
-4.70974
11
7.15119
21
-4.7091
0
LINE
8
BLACK
6
CONTINUOUS
10
7.15119
20
-4.7091
11
7.14851
21
-4.70191
0
LINE
8
BLACK
6
CONTINUOUS
10
7.14851
20
-4.70191
11
7.14831
21
-4.70124
0
LINE
8
BLACK
6
CONTINUOUS
10
7.14831
20
-4.70124
11
7.14803
21
-4.69996
0
LINE
8
BLACK
6
CONTINUOUS
10
7.14803
20
-4.69996
11
7.14668
21
-4.69374
0
LINE
8
BLACK
6
CONTINUOUS
10
7.14668
20
-4.69374
11
7.14658
21
-4.69304
0
LINE
8
BLACK
6
CONTINUOUS
10
7.14658
20
-4.69304
11
7.14657
21
-4.69302
0
LINE
8
BLACK
6
CONTINUOUS
10
7.14657
20
-4.69302
11
7.14613
21
-4.68681
0
LINE
8
BLACK
6
CONTINUOUS
10
7.14613
20
-4.68681
11
7.14617
21
-4.68592
0
LINE
8
BLACK
6
CONTINUOUS
10
7.14617
20
-4.68592
11
7.14615
21
-4.68591
0
LINE
8
BLACK
6
CONTINUOUS
10
7.14615
20
-4.68591
11
7.14617
21
-4.68572
0
LINE
8
BLACK
6
CONTINUOUS
10
7.14617
20
-4.68572
11
7.1462
21
-4.68553
0
LINE
8
BLACK
6
CONTINUOUS
10
7.1462
20
-4.68553
11
7.14621
21
-4.68504
0
LINE
8
BLACK
6
CONTINUOUS
10
7.14621
20
-4.68504
11
7.14605
21
-4.68395
0
LINE
8
BLACK
6
CONTINUOUS
10
7.14605
20
-4.68395
11
7.146
21
-4.68325
0
LINE
8
BLACK
6
CONTINUOUS
10
7.146
20
-4.68325
11
7.146
21
-4.43528
0
LINE
8
BLACK
6
CONTINUOUS
10
7.146
20
-4.43528
11
7.14679
21
-4.4326
0
LINE
8
BLACK
6
CONTINUOUS
10
7.14679
20
-4.4326
11
7.1489
21
-4.43077
0
LINE
8
BLACK
6
CONTINUOUS
10
7.1489
20
-4.43077
11
7.15167
21
-4.43037
0
LINE
8
BLACK
6
CONTINUOUS
10
7.15167
20
-4.43037
11
7.15421
21
-4.43153
0
LINE
8
BLACK
6
CONTINUOUS
10
7.15421
20
-4.43153
11
7.15489
21
-4.43225
0
LINE
8
BLACK
6
CONTINUOUS
10
7.15489
20
-4.43225
11
7.16211
21
-4.4416
0
LINE
8
BLACK
6
CONTINUOUS
10
7.16211
20
-4.4416
11
7.16221
21
-4.44171
0
LINE
8
BLACK
6
CONTINUOUS
10
7.16221
20
-4.44171
11
7.16709
21
-4.44666
0
LINE
8
BLACK
6
CONTINUOUS
10
7.16709
20
-4.44666
11
7.17129
21
-4.45093
0
LINE
8
BLACK
6
CONTINUOUS
10
7.17129
20
-4.45093
11
7.17141
21
-4.45103
0
LINE
8
BLACK
6
CONTINUOUS
10
7.17141
20
-4.45103
11
7.18027
21
-4.45809
0
LINE
8
BLACK
6
CONTINUOUS
10
7.18027
20
-4.45809
11
7.18153
21
-4.45909
0
LINE
8
BLACK
6
CONTINUOUS
10
7.18153
20
-4.45909
11
7.19268
21
-4.46597
0
LINE
8
BLACK
6
CONTINUOUS
10
7.19268
20
-4.46597
11
7.20457
21
-4.47145
0
LINE
8
BLACK
6
CONTINUOUS
10
7.20457
20
-4.47145
11
7.20471
21
-4.47149
0
LINE
8
BLACK
6
CONTINUOUS
10
7.20471
20
-4.47149
11
7.20471
21
-4.47149
0
LINE
8
BLACK
6
CONTINUOUS
10
7.20471
20
-4.47149
11
7.21689
21
-4.47542
0
LINE
8
BLACK
6
CONTINUOUS
10
7.21689
20
-4.47542
11
7.21689
21
-4.47542
0
LINE
8
BLACK
6
CONTINUOUS
10
7.21689
20
-4.47542
11
7.21704
21
-4.47546
0
LINE
8
BLACK
6
CONTINUOUS
10
7.21704
20
-4.47546
11
7.21718
21
-4.47549
0
LINE
8
BLACK
6
CONTINUOUS
10
7.21718
20
-4.47549
11
7.21718
21
-4.47549
0
LINE
8
BLACK
6
CONTINUOUS
10
7.21718
20
-4.47549
11
7.22975
21
-4.47792
0
LINE
8
BLACK
6
CONTINUOUS
10
7.22975
20
-4.47792
11
7.22975
21
-4.47792
0
LINE
8
BLACK
6
CONTINUOUS
10
7.22975
20
-4.47792
11
7.22989
21
-4.47795
0
LINE
8
BLACK
6
CONTINUOUS
10
7.22989
20
-4.47795
11
7.23004
21
-4.47796
0
LINE
8
BLACK
6
CONTINUOUS
10
7.23004
20
-4.47796
11
7.23004
21
-4.47796
0
LINE
8
BLACK
6
CONTINUOUS
10
7.23004
20
-4.47796
11
7.23401
21
-4.47824
0
LINE
8
BLACK
6
CONTINUOUS
10
7.23401
20
-4.47824
11
7.24024
21
-4.47868
0
LINE
8
BLACK
6
CONTINUOUS
10
7.24024
20
-4.47868
11
7.24739
21
-4.47868
0
LINE
8
BLACK
6
CONTINUOUS
10
7.24739
20
-4.47868
11
7.24746
21
-4.47868
0
LINE
8
BLACK
6
CONTINUOUS
10
7.24746
20
-4.47868
11
7.24746
21
-4.47868
0
LINE
8
BLACK
6
CONTINUOUS
10
7.24746
20
-4.47868
11
7.25702
21
-4.4781
0
LINE
8
BLACK
6
CONTINUOUS
10
7.25702
20
-4.4781
11
7.25702
21
-4.4781
0
LINE
8
BLACK
6
CONTINUOUS
10
7.25702
20
-4.4781
11
7.25717
21
-4.47809
0
LINE
8
BLACK
6
CONTINUOUS
10
7.25717
20
-4.47809
11
7.2658
21
-4.47651
0
LINE
8
BLACK
6
CONTINUOUS
10
7.2658
20
-4.47651
11
7.2699
21
-4.47577
0
LINE
8
BLACK
6
CONTINUOUS
10
7.2699
20
-4.47577
11
7.2699
21
-4.47577
0
LINE
8
BLACK
6
CONTINUOUS
10
7.2699
20
-4.47577
11
7.27005
21
-4.47574
0
LINE
8
BLACK
6
CONTINUOUS
10
7.27005
20
-4.47574
11
7.27019
21
-4.47569
0
LINE
8
BLACK
6
CONTINUOUS
10
7.27019
20
-4.47569
11
7.27019
21
-4.47569
0
LINE
8
BLACK
6
CONTINUOUS
10
7.27019
20
-4.47569
11
7.27967
21
-4.47275
0
LINE
8
BLACK
6
CONTINUOUS
10
7.27967
20
-4.47275
11
7.28255
21
-4.47186
0
LINE
8
BLACK
6
CONTINUOUS
10
7.28255
20
-4.47186
11
7.2945
21
-4.4665
0
LINE
8
BLACK
6
CONTINUOUS
10
7.2945
20
-4.4665
11
7.30101
21
-4.46258
0
LINE
8
BLACK
6
CONTINUOUS
10
7.30101
20
-4.46258
11
7.30559
21
-4.45982
0
LINE
8
BLACK
6
CONTINUOUS
10
7.30559
20
-4.45982
11
7.30559
21
-4.45982
0
LINE
8
BLACK
6
CONTINUOUS
10
7.30559
20
-4.45982
11
7.30572
21
-4.45974
0
LINE
8
BLACK
6
CONTINUOUS
10
7.30572
20
-4.45974
11
7.30584
21
-4.45965
0
LINE
8
BLACK
6
CONTINUOUS
10
7.30584
20
-4.45965
11
7.30584
21
-4.45965
0
LINE
8
BLACK
6
CONTINUOUS
10
7.30584
20
-4.45965
11
7.31593
21
-4.45178
0
LINE
8
BLACK
6
CONTINUOUS
10
7.31593
20
-4.45178
11
7.31593
21
-4.45178
0
LINE
8
BLACK
6
CONTINUOUS
10
7.31593
20
-4.45178
11
7.31605
21
-4.45169
0
LINE
8
BLACK
6
CONTINUOUS
10
7.31605
20
-4.45169
11
7.32533
21
-4.44246
0
LINE
8
BLACK
6
CONTINUOUS
10
7.32533
20
-4.44246
11
7.33344
21
-4.43217
0
LINE
8
BLACK
6
CONTINUOUS
10
7.33344
20
-4.43217
11
7.34025
21
-4.42099
0
LINE
8
BLACK
6
CONTINUOUS
10
7.34025
20
-4.42099
11
7.34404
21
-4.41265
0
LINE
8
BLACK
6
CONTINUOUS
10
7.34404
20
-4.41265
11
7.34561
21
-4.40921
0
LINE
8
BLACK
6
CONTINUOUS
10
7.34561
20
-4.40921
11
7.34561
21
-4.40921
0
LINE
8
BLACK
6
CONTINUOUS
10
7.34561
20
-4.40921
11
7.34567
21
-4.40907
0
LINE
8
BLACK
6
CONTINUOUS
10
7.34567
20
-4.40907
11
7.34962
21
-4.39658
0
LINE
8
BLACK
6
CONTINUOUS
10
7.34962
20
-4.39658
11
7.35179
21
-4.38502
0
LINE
8
BLACK
6
CONTINUOUS
10
7.35179
20
-4.38502
11
7.35201
21
-4.38386
0
LINE
8
BLACK
6
CONTINUOUS
10
7.35201
20
-4.38386
11
7.35201
21
-4.38386
0
LINE
8
BLACK
6
CONTINUOUS
10
7.35201
20
-4.38386
11
7.35204
21
-4.38372
0
LINE
8
BLACK
6
CONTINUOUS
10
7.35204
20
-4.38372
11
7.35289
21
-4.37065
0
LINE
8
BLACK
6
CONTINUOUS
10
7.35289
20
-4.37065
11
7.35217
21
-4.35757
0
LINE
8
BLACK
6
CONTINUOUS
10
7.35217
20
-4.35757
11
7.35195
21
-4.3563
0
LINE
8
BLACK
6
CONTINUOUS
10
7.35195
20
-4.3563
11
7.34992
21
-4.34483
0
LINE
8
BLACK
6
CONTINUOUS
10
7.34992
20
-4.34483
11
7.34989
21
-4.34468
0
LINE
8
BLACK
6
CONTINUOUS
10
7.34989
20
-4.34468
11
7.34981
21
-4.34443
0
LINE
8
BLACK
6
CONTINUOUS
10
7.34981
20
-4.34443
11
7.34612
21
-4.3323
0
LINE
8
BLACK
6
CONTINUOUS
10
7.34612
20
-4.3323
11
7.34607
21
-4.33215
0
LINE
8
BLACK
6
CONTINUOUS
10
7.34607
20
-4.33215
11
7.34601
21
-4.33202
0
LINE
8
BLACK
6
CONTINUOUS
10
7.34601
20
-4.33202
11
7.34601
21
-4.33202
0
LINE
8
BLACK
6
CONTINUOUS
10
7.34601
20
-4.33202
11
7.34084
21
-4.32031
0
LINE
8
BLACK
6
CONTINUOUS
10
7.34084
20
-4.32031
11
7.34078
21
-4.32018
0
LINE
8
BLACK
6
CONTINUOUS
10
7.34078
20
-4.32018
11
7.34034
21
-4.31944
0
LINE
8
BLACK
6
CONTINUOUS
10
7.34034
20
-4.31944
11
7.33416
21
-4.30905
0
LINE
8
BLACK
6
CONTINUOUS
10
7.33416
20
-4.30905
11
7.33416
21
-4.30905
0
LINE
8
BLACK
6
CONTINUOUS
10
7.33416
20
-4.30905
11
7.33408
21
-4.30892
0
LINE
8
BLACK
6
CONTINUOUS
10
7.33408
20
-4.30892
11
7.33367
21
-4.3084
0
LINE
8
BLACK
6
CONTINUOUS
10
7.33367
20
-4.3084
11
7.32961
21
-4.30313
0
LINE
8
BLACK
6
CONTINUOUS
10
7.32961
20
-4.30313
11
7.32608
21
-4.29856
0
LINE
8
BLACK
6
CONTINUOUS
10
7.32608
20
-4.29856
11
7.32116
21
-4.29356
0
LINE
8
BLACK
6
CONTINUOUS
10
7.32116
20
-4.29356
11
7.317
21
-4.28933
0
LINE
8
BLACK
6
CONTINUOUS
10
7.317
20
-4.28933
11
7.317
21
-4.28933
0
LINE
8
BLACK
6
CONTINUOUS
10
7.317
20
-4.28933
11
7.3169
21
-4.28922
0
LINE
8
BLACK
6
CONTINUOUS
10
7.3169
20
-4.28922
11
7.30666
21
-4.28106
0
LINE
8
BLACK
6
CONTINUOUS
10
7.30666
20
-4.28106
11
7.29551
21
-4.27419
0
LINE
8
BLACK
6
CONTINUOUS
10
7.29551
20
-4.27419
11
7.28362
21
-4.26871
0
LINE
8
BLACK
6
CONTINUOUS
10
7.28362
20
-4.26871
11
7.28347
21
-4.26866
0
LINE
8
BLACK
6
CONTINUOUS
10
7.28347
20
-4.26866
11
7.28347
21
-4.26866
0
LINE
8
BLACK
6
CONTINUOUS
10
7.28347
20
-4.26866
11
7.27129
21
-4.26474
0
LINE
8
BLACK
6
CONTINUOUS
10
7.27129
20
-4.26474
11
7.27129
21
-4.26474
0
LINE
8
BLACK
6
CONTINUOUS
10
7.27129
20
-4.26474
11
7.27115
21
-4.2647
0
LINE
8
BLACK
6
CONTINUOUS
10
7.27115
20
-4.2647
11
7.27101
21
-4.26467
0
LINE
8
BLACK
6
CONTINUOUS
10
7.27101
20
-4.26467
11
7.27101
21
-4.26467
0
LINE
8
BLACK
6
CONTINUOUS
10
7.27101
20
-4.26467
11
7.25844
21
-4.26224
0
LINE
8
BLACK
6
CONTINUOUS
10
7.25844
20
-4.26224
11
7.25844
21
-4.26224
0
LINE
8
BLACK
6
CONTINUOUS
10
7.25844
20
-4.26224
11
7.2583
21
-4.26221
0
LINE
8
BLACK
6
CONTINUOUS
10
7.2583
20
-4.26221
11
7.25815
21
-4.2622
0
LINE
8
BLACK
6
CONTINUOUS
10
7.25815
20
-4.2622
11
7.25815
21
-4.2622
0
LINE
8
BLACK
6
CONTINUOUS
10
7.25815
20
-4.2622
11
7.25418
21
-4.26192
0
LINE
8
BLACK
6
CONTINUOUS
10
7.25418
20
-4.26192
11
7.24795
21
-4.26148
0
LINE
8
BLACK
6
CONTINUOUS
10
7.24795
20
-4.26148
11
7.2408
21
-4.26148
0
LINE
8
BLACK
6
CONTINUOUS
10
7.2408
20
-4.26148
11
7.24073
21
-4.26148
0
LINE
8
BLACK
6
CONTINUOUS
10
7.24073
20
-4.26148
11
7.24073
21
-4.26148
0
LINE
8
BLACK
6
CONTINUOUS
10
7.24073
20
-4.26148
11
7.23117
21
-4.26206
0
LINE
8
BLACK
6
CONTINUOUS
10
7.23117
20
-4.26206
11
7.23117
21
-4.26206
0
LINE
8
BLACK
6
CONTINUOUS
10
7.23117
20
-4.26206
11
7.23102
21
-4.26207
0
LINE
8
BLACK
6
CONTINUOUS
10
7.23102
20
-4.26207
11
7.22445
21
-4.26327
0
LINE
8
BLACK
6
CONTINUOUS
10
7.22445
20
-4.26327
11
7.21829
21
-4.26439
0
LINE
8
BLACK
6
CONTINUOUS
10
7.21829
20
-4.26439
11
7.21829
21
-4.26439
0
LINE
8
BLACK
6
CONTINUOUS
10
7.21829
20
-4.26439
11
7.21814
21
-4.26442
0
LINE
8
BLACK
6
CONTINUOUS
10
7.21814
20
-4.26442
11
7.218
21
-4.26446
0
LINE
8
BLACK
6
CONTINUOUS
10
7.218
20
-4.26446
11
7.218
21
-4.26446
0
LINE
8
BLACK
6
CONTINUOUS
10
7.218
20
-4.26446
11
7.2143
21
-4.26561
0
LINE
8
BLACK
6
CONTINUOUS
10
7.2143
20
-4.26561
11
7.20564
21
-4.2683
0
LINE
8
BLACK
6
CONTINUOUS
10
7.20564
20
-4.2683
11
7.19369
21
-4.27366
0
LINE
8
BLACK
6
CONTINUOUS
10
7.19369
20
-4.27366
11
7.18813
21
-4.277
0
LINE
8
BLACK
6
CONTINUOUS
10
7.18813
20
-4.277
11
7.1826
21
-4.28034
0
LINE
8
BLACK
6
CONTINUOUS
10
7.1826
20
-4.28034
11
7.1826
21
-4.28034
0
LINE
8
BLACK
6
CONTINUOUS
10
7.1826
20
-4.28034
11
7.18247
21
-4.28041
0
LINE
8
BLACK
6
CONTINUOUS
10
7.18247
20
-4.28041
11
7.18235
21
-4.2805
0
LINE
8
BLACK
6
CONTINUOUS
10
7.18235
20
-4.2805
11
7.18235
21
-4.2805
0
LINE
8
BLACK
6
CONTINUOUS
10
7.18235
20
-4.2805
11
7.17226
21
-4.28837
0
LINE
8
BLACK
6
CONTINUOUS
10
7.17226
20
-4.28837
11
7.17226
21
-4.28837
0
LINE
8
BLACK
6
CONTINUOUS
10
7.17226
20
-4.28837
11
7.17214
21
-4.28847
0
LINE
8
BLACK
6
CONTINUOUS
10
7.17214
20
-4.28847
11
7.16286
21
-4.2977
0
LINE
8
BLACK
6
CONTINUOUS
10
7.16286
20
-4.2977
11
7.15682
21
-4.30536
0
LINE
8
BLACK
6
CONTINUOUS
10
7.15682
20
-4.30536
11
7.15486
21
-4.30785
0
LINE
8
BLACK
6
CONTINUOUS
10
7.15486
20
-4.30785
11
7.15258
21
-4.30947
0
LINE
8
BLACK
6
CONTINUOUS
10
7.15258
20
-4.30947
11
7.14979
21
-4.3096
0
LINE
8
BLACK
6
CONTINUOUS
10
7.14979
20
-4.3096
11
7.14737
21
-4.3082
0
LINE
8
BLACK
6
CONTINUOUS
10
7.14737
20
-4.3082
11
7.14609
21
-4.30571
0
LINE
8
BLACK
6
CONTINUOUS
10
7.14609
20
-4.30571
11
7.146
21
-4.30478
0
LINE
8
BLACK
6
CONTINUOUS
10
7.146
20
-4.30478
11
7.146
21
-4.05721
0
LINE
8
BLACK
6
CONTINUOUS
10
7.146
20
-4.05721
11
7.14607
21
-4.05639
0
LINE
8
BLACK
6
CONTINUOUS
10
7.14607
20
-4.05639
11
7.14617
21
-4.0558
0
LINE
8
BLACK
6
CONTINUOUS
10
7.14617
20
-4.0558
11
7.14617
21
-4.0558
0
LINE
8
BLACK
6
CONTINUOUS
10
7.14617
20
-4.0558
11
7.1462
21
-4.05561
0
LINE
8
BLACK
6
CONTINUOUS
10
7.1462
20
-4.05561
11
7.14621
21
-4.05512
0
LINE
8
BLACK
6
CONTINUOUS
10
7.14621
20
-4.05512
11
7.14618
21
-4.05493
0
LINE
8
BLACK
6
CONTINUOUS
10
7.14618
20
-4.05493
11
7.14618
21
-4.05493
0
LINE
8
BLACK
6
CONTINUOUS
10
7.14618
20
-4.05493
11
7.14615
21
-4.05469
0
LINE
8
BLACK
6
CONTINUOUS
10
7.14615
20
-4.05469
11
7.14611
21
-4.05363
0
LINE
8
BLACK
6
CONTINUOUS
10
7.14611
20
-4.05363
11
7.14658
21
-4.04712
0
LINE
8
BLACK
6
CONTINUOUS
10
7.14658
20
-4.04712
11
7.14668
21
-4.04641
0
LINE
8
BLACK
6
CONTINUOUS
10
7.14668
20
-4.04641
11
7.14831
21
-4.03892
0
LINE
8
BLACK
6
CONTINUOUS
10
7.14831
20
-4.03892
11
7.14851
21
-4.03824
0
LINE
8
BLACK
6
CONTINUOUS
10
7.14851
20
-4.03824
11
7.15119
21
-4.03106
0
LINE
8
BLACK
6
CONTINUOUS
10
7.15119
20
-4.03106
11
7.15148
21
-4.03041
0
LINE
8
BLACK
6
CONTINUOUS
10
7.15148
20
-4.03041
11
7.15516
21
-4.02368
0
LINE
8
BLACK
6
CONTINUOUS
10
7.15516
20
-4.02368
11
7.15554
21
-4.02309
0
LINE
8
BLACK
6
CONTINUOUS
10
7.15554
20
-4.02309
11
7.16013
21
-4.01695
0
LINE
8
BLACK
6
CONTINUOUS
10
7.16013
20
-4.01695
11
7.1606
21
-4.01641
0
LINE
8
BLACK
6
CONTINUOUS
10
7.1606
20
-4.01641
11
7.16602
21
-4.01099
0
LINE
8
BLACK
6
CONTINUOUS
10
7.16602
20
-4.01099
11
7.16655
21
-4.01053
0
LINE
8
BLACK
6
CONTINUOUS
10
7.16655
20
-4.01053
11
7.17269
21
-4.00593
0
LINE
8
BLACK
6
CONTINUOUS
10
7.17269
20
-4.00593
11
7.17329
21
-4.00555
0
LINE
8
BLACK
6
CONTINUOUS
10
7.17329
20
-4.00555
11
7.18002
21
-4.00187
0
LINE
8
BLACK
6
CONTINUOUS
10
7.18002
20
-4.00187
11
7.18066
21
-4.00158
0
LINE
8
BLACK
6
CONTINUOUS
10
7.18066
20
-4.00158
11
7.18785
21
-3.9989
0
LINE
8
BLACK
6
CONTINUOUS
10
7.18785
20
-3.9989
11
7.18853
21
-3.9987
0
LINE
8
BLACK
6
CONTINUOUS
10
7.18853
20
-3.9987
11
7.19602
21
-3.99707
0
LINE
8
BLACK
6
CONTINUOUS
10
7.19602
20
-3.99707
11
7.19672
21
-3.99697
0
LINE
8
BLACK
6
CONTINUOUS
10
7.19672
20
-3.99697
11
7.20309
21
-3.99651
0
LINE
8
BLACK
6
CONTINUOUS
10
7.20309
20
-3.99651
11
7.2038
21
-3.99654
0
LINE
8
BLACK
6
CONTINUOUS
10
7.2038
20
-3.99654
11
7.20413
21
-3.99655
0
LINE
8
BLACK
6
CONTINUOUS
10
7.20413
20
-3.99655
11
7.20448
21
-3.9966
0
LINE
8
BLACK
6
CONTINUOUS
10
7.20448
20
-3.9966
11
7.20572
21
-3.99644
0
LINE
8
BLACK
6
CONTINUOUS
10
7.20572
20
-3.99644
11
7.20636
21
-3.9964
0
LINE
8
BLACK
6
CONTINUOUS
10
7.20636
20
-3.9964
11
8.93506
21
-3.9964
0
LINE
8
BLACK
6
CONTINUOUS
10
8.93506
20
-3.9964
11
8.93583
21
-3.99646
0
LINE
8
BLACK
6
CONTINUOUS
10
8.93583
20
-3.99646
11
8.93641
21
-3.99655
0
LINE
8
BLACK
6
CONTINUOUS
10
8.93641
20
-3.99655
11
8.93641
21
-3.99655
0
LINE
8
BLACK
6
CONTINUOUS
10
8.93641
20
-3.99655
11
8.93676
21
-3.9966
0
LINE
8
BLACK
6
CONTINUOUS
10
8.93676
20
-3.9966
11
8.93736
21
-3.99652
0
LINE
8
BLACK
6
CONTINUOUS
10
8.93736
20
-3.99652
11
8.93836
21
-3.99649
0
LINE
8
BLACK
6
CONTINUOUS
10
8.93836
20
-3.99649
11
8.94501
21
-3.99697
0
LINE
8
BLACK
6
CONTINUOUS
10
8.94501
20
-3.99697
11
8.94571
21
-3.99707
0
LINE
8
BLACK
6
CONTINUOUS
10
8.94571
20
-3.99707
11
8.9532
21
-3.9987
0
LINE
8
BLACK
6
CONTINUOUS
10
8.9532
20
-3.9987
11
8.95388
21
-3.9989
0
LINE
8
BLACK
6
CONTINUOUS
10
8.95388
20
-3.9989
11
8.96107
21
-4.00158
0
LINE
8
BLACK
6
CONTINUOUS
10
8.96107
20
-4.00158
11
8.96171
21
-4.00187
0
LINE
8
BLACK
6
CONTINUOUS
10
8.96171
20
-4.00187
11
8.96844
21
-4.00555
0
LINE
8
BLACK
6
CONTINUOUS
10
8.96844
20
-4.00555
11
8.96904
21
-4.00593
0
LINE
8
BLACK
6
CONTINUOUS
10
8.96904
20
-4.00593
11
8.97518
21
-4.01053
0
LINE
8
BLACK
6
CONTINUOUS
10
8.97518
20
-4.01053
11
8.97571
21
-4.01099
0
LINE
8
BLACK
6
CONTINUOUS
10
8.97571
20
-4.01099
11
8.98113
21
-4.01641
0
LINE
8
BLACK
6
CONTINUOUS
10
8.98113
20
-4.01641
11
8.9816
21
-4.01695
0
LINE
8
BLACK
6
CONTINUOUS
10
8.9816
20
-4.01695
11
8.98619
21
-4.02309
0
LINE
8
BLACK
6
CONTINUOUS
10
8.98619
20
-4.02309
11
8.98658
21
-4.02368
0
LINE
8
BLACK
6
CONTINUOUS
10
8.98658
20
-4.02368
11
8.99025
21
-4.03041
0
LINE
8
BLACK
6
CONTINUOUS
10
8.99025
20
-4.03041
11
8.99055
21
-4.03106
0
LINE
8
BLACK
6
CONTINUOUS
10
8.99055
20
-4.03106
11
8.99323
21
-4.03824
0
LINE
8
BLACK
6
CONTINUOUS
10
8.99323
20
-4.03824
11
8.99343
21
-4.03892
0
LINE
8
BLACK
6
CONTINUOUS
10
8.99343
20
-4.03892
11
8.99506
21
-4.04641
0
LINE
8
BLACK
6
CONTINUOUS
10
8.99506
20
-4.04641
11
8.99516
21
-4.04711
0
LINE
8
BLACK
6
CONTINUOUS
10
8.99516
20
-4.04711
11
8.99561
21
-4.05349
0
LINE
8
BLACK
6
CONTINUOUS
10
8.99561
20
-4.05349
11
8.99558
21
-4.0542
0
LINE
8
BLACK
6
CONTINUOUS
10
8.99558
20
-4.0542
11
8.99558
21
-4.05452
0
LINE
8
BLACK
6
CONTINUOUS
10
8.99558
20
-4.05452
11
8.99552
21
-4.05487
0
LINE
8
BLACK
6
CONTINUOUS
10
8.99552
20
-4.05487
11
8.99557
21
-4.05522
0
LINE
8
BLACK
6
CONTINUOUS
10
8.99557
20
-4.05522
11
8.99569
21
-4.05611
0
LINE
8
BLACK
6
CONTINUOUS
10
8.99569
20
-4.05611
11
8.99573
21
-4.05676
0
LINE
8
BLACK
6
CONTINUOUS
10
8.99573
20
-4.05676
11
8.99573
21
-4.30488
0
LINE
8
BLACK
6
CONTINUOUS
10
8.99573
20
-4.30488
11
8.99494
21
-4.30756
0
LINE
8
BLACK
6
CONTINUOUS
10
8.99494
20
-4.30756
11
8.99283
21
-4.30939
0
LINE
8
BLACK
6
CONTINUOUS
10
8.99283
20
-4.30939
11
8.99006
21
-4.30979
0
LINE
8
BLACK
6
CONTINUOUS
10
8.99006
20
-4.30979
11
8.98752
21
-4.30863
0
LINE
8
BLACK
6
CONTINUOUS
10
8.98752
20
-4.30863
11
8.98684
21
-4.30791
0
LINE
8
BLACK
6
CONTINUOUS
10
8.98684
20
-4.30791
11
8.98398
21
-4.3042
0
LINE
8
BLACK
6
CONTINUOUS
10
8.98398
20
-4.3042
11
8.97963
21
-4.29856
0
LINE
8
BLACK
6
CONTINUOUS
10
8.97963
20
-4.29856
11
8.9747
21
-4.29356
0
LINE
8
BLACK
6
CONTINUOUS
10
8.9747
20
-4.29356
11
8.97054
21
-4.28933
0
LINE
8
BLACK
6
CONTINUOUS
10
8.97054
20
-4.28933
11
8.97054
21
-4.28933
0
LINE
8
BLACK
6
CONTINUOUS
10
8.97054
20
-4.28933
11
8.97044
21
-4.28922
0
LINE
8
BLACK
6
CONTINUOUS
10
8.97044
20
-4.28922
11
8.9602
21
-4.28106
0
LINE
8
BLACK
6
CONTINUOUS
10
8.9602
20
-4.28106
11
8.94905
21
-4.27419
0
LINE
8
BLACK
6
CONTINUOUS
10
8.94905
20
-4.27419
11
8.93716
21
-4.26871
0
LINE
8
BLACK
6
CONTINUOUS
10
8.93716
20
-4.26871
11
8.93702
21
-4.26866
0
LINE
8
BLACK
6
CONTINUOUS
10
8.93702
20
-4.26866
11
8.93702
21
-4.26866
0
LINE
8
BLACK
6
CONTINUOUS
10
8.93702
20
-4.26866
11
8.92484
21
-4.26474
0
LINE
8
BLACK
6
CONTINUOUS
10
8.92484
20
-4.26474
11
8.92484
21
-4.26474
0
LINE
8
BLACK
6
CONTINUOUS
10
8.92484
20
-4.26474
11
8.9247
21
-4.2647
0
LINE
8
BLACK
6
CONTINUOUS
10
8.9247
20
-4.2647
11
8.92455
21
-4.26467
0
LINE
8
BLACK
6
CONTINUOUS
10
8.92455
20
-4.26467
11
8.92455
21
-4.26467
0
LINE
8
BLACK
6
CONTINUOUS
10
8.92455
20
-4.26467
11
8.91199
21
-4.26224
0
LINE
8
BLACK
6
CONTINUOUS
10
8.91199
20
-4.26224
11
8.91199
21
-4.26224
0
LINE
8
BLACK
6
CONTINUOUS
10
8.91199
20
-4.26224
11
8.91184
21
-4.26221
0
LINE
8
BLACK
6
CONTINUOUS
10
8.91184
20
-4.26221
11
8.91169
21
-4.2622
0
LINE
8
BLACK
6
CONTINUOUS
10
8.91169
20
-4.2622
11
8.91169
21
-4.2622
0
LINE
8
BLACK
6
CONTINUOUS
10
8.91169
20
-4.2622
11
8.90773
21
-4.26192
0
LINE
8
BLACK
6
CONTINUOUS
10
8.90773
20
-4.26192
11
8.9015
21
-4.26148
0
LINE
8
BLACK
6
CONTINUOUS
10
8.9015
20
-4.26148
11
8.89435
21
-4.26148
0
LINE
8
BLACK
6
CONTINUOUS
10
8.89435
20
-4.26148
11
8.89427
21
-4.26148
0
LINE
8
BLACK
6
CONTINUOUS
10
8.89427
20
-4.26148
11
8.89427
21
-4.26148
0
LINE
8
BLACK
6
CONTINUOUS
10
8.89427
20
-4.26148
11
8.88472
21
-4.26206
0
LINE
8
BLACK
6
CONTINUOUS
10
8.88472
20
-4.26206
11
8.88472
21
-4.26206
0
LINE
8
BLACK
6
CONTINUOUS
10
8.88472
20
-4.26206
11
8.88457
21
-4.26207
0
LINE
8
BLACK
6
CONTINUOUS
10
8.88457
20
-4.26207
11
8.878
21
-4.26327
0
LINE
8
BLACK
6
CONTINUOUS
10
8.878
20
-4.26327
11
8.87183
21
-4.26439
0
LINE
8
BLACK
6
CONTINUOUS
10
8.87183
20
-4.26439
11
8.87183
21
-4.26439
0
LINE
8
BLACK
6
CONTINUOUS
10
8.87183
20
-4.26439
11
8.87169
21
-4.26442
0
LINE
8
BLACK
6
CONTINUOUS
10
8.87169
20
-4.26442
11
8.87154
21
-4.26446
0
LINE
8
BLACK
6
CONTINUOUS
10
8.87154
20
-4.26446
11
8.87154
21
-4.26446
0
LINE
8
BLACK
6
CONTINUOUS
10
8.87154
20
-4.26446
11
8.86785
21
-4.26561
0
LINE
8
BLACK
6
CONTINUOUS
10
8.86785
20
-4.26561
11
8.85918
21
-4.2683
0
LINE
8
BLACK
6
CONTINUOUS
10
8.85918
20
-4.2683
11
8.84723
21
-4.27366
0
LINE
8
BLACK
6
CONTINUOUS
10
8.84723
20
-4.27366
11
8.84168
21
-4.277
0
LINE
8
BLACK
6
CONTINUOUS
10
8.84168
20
-4.277
11
8.83614
21
-4.28034
0
LINE
8
BLACK
6
CONTINUOUS
10
8.83614
20
-4.28034
11
8.83614
21
-4.28034
0
LINE
8
BLACK
6
CONTINUOUS
10
8.83614
20
-4.28034
11
8.83601
21
-4.28041
0
LINE
8
BLACK
6
CONTINUOUS
10
8.83601
20
-4.28041
11
8.83589
21
-4.2805
0
LINE
8
BLACK
6
CONTINUOUS
10
8.83589
20
-4.2805
11
8.83589
21
-4.2805
0
LINE
8
BLACK
6
CONTINUOUS
10
8.83589
20
-4.2805
11
8.8258
21
-4.28837
0
LINE
8
BLACK
6
CONTINUOUS
10
8.8258
20
-4.28837
11
8.8258
21
-4.28837
0
LINE
8
BLACK
6
CONTINUOUS
10
8.8258
20
-4.28837
11
8.82569
21
-4.28847
0
LINE
8
BLACK
6
CONTINUOUS
10
8.82569
20
-4.28847
11
8.8164
21
-4.2977
0
LINE
8
BLACK
6
CONTINUOUS
10
8.8164
20
-4.2977
11
8.8083
21
-4.30798
0
LINE
8
BLACK
6
CONTINUOUS
10
8.8083
20
-4.30798
11
8.80148
21
-4.31917
0
LINE
8
BLACK
6
CONTINUOUS
10
8.80148
20
-4.31917
11
8.80034
21
-4.32168
0
LINE
8
BLACK
6
CONTINUOUS
10
8.80034
20
-4.32168
11
8.79613
21
-4.33095
0
LINE
8
BLACK
6
CONTINUOUS
10
8.79613
20
-4.33095
11
8.79613
21
-4.33095
0
LINE
8
BLACK
6
CONTINUOUS
10
8.79613
20
-4.33095
11
8.79606
21
-4.33109
0
LINE
8
BLACK
6
CONTINUOUS
10
8.79606
20
-4.33109
11
8.79211
21
-4.34357
0
LINE
8
BLACK
6
CONTINUOUS
10
8.79211
20
-4.34357
11
8.78969
21
-4.35644
0
LINE
8
BLACK
6
CONTINUOUS
10
8.78969
20
-4.35644
11
8.78884
21
-4.36951
0
LINE
8
BLACK
6
CONTINUOUS
10
8.78884
20
-4.36951
11
8.78956
21
-4.38258
0
LINE
8
BLACK
6
CONTINUOUS
10
8.78956
20
-4.38258
11
8.78958
21
-4.38273
0
LINE
8
BLACK
6
CONTINUOUS
10
8.78958
20
-4.38273
11
8.78958
21
-4.38273
0
LINE
8
BLACK
6
CONTINUOUS
10
8.78958
20
-4.38273
11
8.7898
21
-4.38397
0
LINE
8
BLACK
6
CONTINUOUS
10
8.7898
20
-4.38397
11
8.79184
21
-4.39548
0
LINE
8
BLACK
6
CONTINUOUS
10
8.79184
20
-4.39548
11
8.79189
21
-4.39562
0
LINE
8
BLACK
6
CONTINUOUS
10
8.79189
20
-4.39562
11
8.79189
21
-4.39562
0
LINE
8
BLACK
6
CONTINUOUS
10
8.79189
20
-4.39562
11
8.79259
21
-4.39792
0
LINE
8
BLACK
6
CONTINUOUS
10
8.79259
20
-4.39792
11
8.79566
21
-4.408
0
LINE
8
BLACK
6
CONTINUOUS
10
8.79566
20
-4.408
11
8.79572
21
-4.40814
0
LINE
8
BLACK
6
CONTINUOUS
10
8.79572
20
-4.40814
11
8.79572
21
-4.40814
0
LINE
8
BLACK
6
CONTINUOUS
10
8.79572
20
-4.40814
11
8.7987
21
-4.41489
0
LINE
8
BLACK
6
CONTINUOUS
10
8.7987
20
-4.41489
11
8.80096
21
-4.41998
0
LINE
8
BLACK
6
CONTINUOUS
10
8.80096
20
-4.41998
11
8.80103
21
-4.42011
0
LINE
8
BLACK
6
CONTINUOUS
10
8.80103
20
-4.42011
11
8.80103
21
-4.42011
0
LINE
8
BLACK
6
CONTINUOUS
10
8.80103
20
-4.42011
11
8.80757
21
-4.43111
0
LINE
8
BLACK
6
CONTINUOUS
10
8.80757
20
-4.43111
11
8.80765
21
-4.43123
0
LINE
8
BLACK
6
CONTINUOUS
10
8.80765
20
-4.43123
11
8.80774
21
-4.43135
0
LINE
8
BLACK
6
CONTINUOUS
10
8.80774
20
-4.43135
11
8.80774
21
-4.43135
0
LINE
8
BLACK
6
CONTINUOUS
10
8.80774
20
-4.43135
11
8.80922
21
-4.43327
0
LINE
8
BLACK
6
CONTINUOUS
10
8.80922
20
-4.43327
11
8.81565
21
-4.4416
0
LINE
8
BLACK
6
CONTINUOUS
10
8.81565
20
-4.4416
11
8.81575
21
-4.44171
0
LINE
8
BLACK
6
CONTINUOUS
10
8.81575
20
-4.44171
11
8.82063
21
-4.44666
0
LINE
8
BLACK
6
CONTINUOUS
10
8.82063
20
-4.44666
11
8.82484
21
-4.45093
0
LINE
8
BLACK
6
CONTINUOUS
10
8.82484
20
-4.45093
11
8.82495
21
-4.45103
0
LINE
8
BLACK
6
CONTINUOUS
10
8.82495
20
-4.45103
11
8.83382
21
-4.45809
0
LINE
8
BLACK
6
CONTINUOUS
10
8.83382
20
-4.45809
11
8.83508
21
-4.45909
0
LINE
8
BLACK
6
CONTINUOUS
10
8.83508
20
-4.45909
11
8.84622
21
-4.46597
0
LINE
8
BLACK
6
CONTINUOUS
10
8.84622
20
-4.46597
11
8.85812
21
-4.47145
0
LINE
8
BLACK
6
CONTINUOUS
10
8.85812
20
-4.47145
11
8.85826
21
-4.47149
0
LINE
8
BLACK
6
CONTINUOUS
10
8.85826
20
-4.47149
11
8.85826
21
-4.47149
0
LINE
8
BLACK
6
CONTINUOUS
10
8.85826
20
-4.47149
11
8.87044
21
-4.47542
0
LINE
8
BLACK
6
CONTINUOUS
10
8.87044
20
-4.47542
11
8.87044
21
-4.47542
0
LINE
8
BLACK
6
CONTINUOUS
10
8.87044
20
-4.47542
11
8.87058
21
-4.47546
0
LINE
8
BLACK
6
CONTINUOUS
10
8.87058
20
-4.47546
11
8.87073
21
-4.47549
0
LINE
8
BLACK
6
CONTINUOUS
10
8.87073
20
-4.47549
11
8.87073
21
-4.47549
0
LINE
8
BLACK
6
CONTINUOUS
10
8.87073
20
-4.47549
11
8.88329
21
-4.47792
0
LINE
8
BLACK
6
CONTINUOUS
10
8.88329
20
-4.47792
11
8.88329
21
-4.47792
0
LINE
8
BLACK
6
CONTINUOUS
10
8.88329
20
-4.47792
11
8.88344
21
-4.47795
0
LINE
8
BLACK
6
CONTINUOUS
10
8.88344
20
-4.47795
11
8.88359
21
-4.47796
0
LINE
8
BLACK
6
CONTINUOUS
10
8.88359
20
-4.47796
11
8.88359
21
-4.47796
0
LINE
8
BLACK
6
CONTINUOUS
10
8.88359
20
-4.47796
11
8.88755
21
-4.47824
0
LINE
8
BLACK
6
CONTINUOUS
10
8.88755
20
-4.47824
11
8.89378
21
-4.47868
0
LINE
8
BLACK
6
CONTINUOUS
10
8.89378
20
-4.47868
11
8.90093
21
-4.47868
0
LINE
8
BLACK
6
CONTINUOUS
10
8.90093
20
-4.47868
11
8.901
21
-4.47868
0
LINE
8
BLACK
6
CONTINUOUS
10
8.901
20
-4.47868
11
8.901
21
-4.47868
0
LINE
8
BLACK
6
CONTINUOUS
10
8.901
20
-4.47868
11
8.91056
21
-4.4781
0
LINE
8
BLACK
6
CONTINUOUS
10
8.91056
20
-4.4781
11
8.91056
21
-4.4781
0
LINE
8
BLACK
6
CONTINUOUS
10
8.91056
20
-4.4781
11
8.91071
21
-4.47809
0
LINE
8
BLACK
6
CONTINUOUS
10
8.91071
20
-4.47809
11
8.91934
21
-4.47651
0
LINE
8
BLACK
6
CONTINUOUS
10
8.91934
20
-4.47651
11
8.92344
21
-4.47577
0
LINE
8
BLACK
6
CONTINUOUS
10
8.92344
20
-4.47577
11
8.92344
21
-4.47577
0
LINE
8
BLACK
6
CONTINUOUS
10
8.92344
20
-4.47577
11
8.92359
21
-4.47574
0
LINE
8
BLACK
6
CONTINUOUS
10
8.92359
20
-4.47574
11
8.92373
21
-4.47569
0
LINE
8
BLACK
6
CONTINUOUS
10
8.92373
20
-4.47569
11
8.92373
21
-4.47569
0
LINE
8
BLACK
6
CONTINUOUS
10
8.92373
20
-4.47569
11
8.93321
21
-4.47275
0
LINE
8
BLACK
6
CONTINUOUS
10
8.93321
20
-4.47275
11
8.9361
21
-4.47186
0
LINE
8
BLACK
6
CONTINUOUS
10
8.9361
20
-4.47186
11
8.94804
21
-4.4665
0
LINE
8
BLACK
6
CONTINUOUS
10
8.94804
20
-4.4665
11
8.95455
21
-4.46258
0
LINE
8
BLACK
6
CONTINUOUS
10
8.95455
20
-4.46258
11
8.95914
21
-4.45982
0
LINE
8
BLACK
6
CONTINUOUS
10
8.95914
20
-4.45982
11
8.95914
21
-4.45982
0
LINE
8
BLACK
6
CONTINUOUS
10
8.95914
20
-4.45982
11
8.95926
21
-4.45974
0
LINE
8
BLACK
6
CONTINUOUS
10
8.95926
20
-4.45974
11
8.95938
21
-4.45965
0
LINE
8
BLACK
6
CONTINUOUS
10
8.95938
20
-4.45965
11
8.95938
21
-4.45965
0
LINE
8
BLACK
6
CONTINUOUS
10
8.95938
20
-4.45965
11
8.96947
21
-4.45178
0
LINE
8
BLACK
6
CONTINUOUS
10
8.96947
20
-4.45178
11
8.96947
21
-4.45178
0
LINE
8
BLACK
6
CONTINUOUS
10
8.96947
20
-4.45178
11
8.96959
21
-4.45169
0
LINE
8
BLACK
6
CONTINUOUS
10
8.96959
20
-4.45169
11
8.97887
21
-4.44246
0
LINE
8
BLACK
6
CONTINUOUS
10
8.97887
20
-4.44246
11
8.98687
21
-4.43231
0
LINE
8
BLACK
6
CONTINUOUS
10
8.98687
20
-4.43231
11
8.98915
21
-4.43069
0
LINE
8
BLACK
6
CONTINUOUS
10
8.98915
20
-4.43069
11
8.99194
21
-4.43056
0
LINE
8
BLACK
6
CONTINUOUS
10
8.99194
20
-4.43056
11
8.99436
21
-4.43196
0
LINE
8
BLACK
6
CONTINUOUS
10
8.99436
20
-4.43196
11
8.99564
21
-4.43445
0
LINE
8
BLACK
6
CONTINUOUS
10
8.99564
20
-4.43445
11
8.99573
21
-4.43538
0
LINE
8
BLACK
6
CONTINUOUS
10
8.99573
20
-4.43538
11
8.99573
21
-4.6831
0
LINE
8
BLACK
6
CONTINUOUS
10
8.99573
20
-4.6831
11
8.99567
21
-4.68386
0
LINE
8
BLACK
6
CONTINUOUS
10
8.99567
20
-4.68386
11
8.99558
21
-4.68444
0
LINE
8
BLACK
6
CONTINUOUS
10
8.99558
20
-4.68444
11
8.99558
21
-4.68444
0
LINE
8
BLACK
6
CONTINUOUS
10
8.99558
20
-4.68444
11
8.99552
21
-4.68479
0
LINE
8
BLACK
6
CONTINUOUS
10
8.99552
20
-4.68479
11
8.99559
21
-4.68529
0
LINE
8
BLACK
6
CONTINUOUS
10
8.99559
20
-4.68529
11
8.9956
21
-4.68539
0
LINE
8
BLACK
6
CONTINUOUS
10
8.9956
20
-4.68539
11
8.99563
21
-4.68639
0
LINE
8
BLACK
6
CONTINUOUS
10
8.99563
20
-4.68639
11
8.99516
21
-4.69302
0
LINE
8
BLACK
6
CONTINUOUS
10
8.99516
20
-4.69302
11
8.99516
21
-4.69304
0
LINE
8
BLACK
6
CONTINUOUS
10
8.99516
20
-4.69304
11
8.99506
21
-4.69374
0
LINE
8
BLACK
6
CONTINUOUS
10
8.99506
20
-4.69374
11
8.9937
21
-4.69996
0
LINE
8
BLACK
6
CONTINUOUS
10
8.9937
20
-4.69996
11
8.99343
21
-4.70124
0
LINE
8
BLACK
6
CONTINUOUS
10
8.99343
20
-4.70124
11
8.99323
21
-4.70191
0
LINE
8
BLACK
6
CONTINUOUS
10
8.99323
20
-4.70191
11
8.99055
21
-4.7091
0
LINE
8
BLACK
6
CONTINUOUS
10
8.99055
20
-4.7091
11
8.99025
21
-4.70974
0
LINE
8
BLACK
6
CONTINUOUS
10
8.99025
20
-4.70974
11
8.98658
21
-4.71647
0
LINE
8
BLACK
6
CONTINUOUS
10
8.98658
20
-4.71647
11
8.98619
21
-4.71707
0
LINE
8
BLACK
6
CONTINUOUS
10
8.98619
20
-4.71707
11
8.9816
21
-4.72321
0
LINE
8
BLACK
6
CONTINUOUS
10
8.9816
20
-4.72321
11
8.98113
21
-4.72374
0
LINE
8
BLACK
6
CONTINUOUS
10
8.98113
20
-4.72374
11
8.97571
21
-4.72917
0
LINE
8
BLACK
6
CONTINUOUS
10
8.97571
20
-4.72917
11
8.97518
21
-4.72963
0
LINE
8
BLACK
6
CONTINUOUS
10
8.97518
20
-4.72963
11
8.96904
21
-4.73423
0
LINE
8
BLACK
6
CONTINUOUS
10
8.96904
20
-4.73423
11
8.96844
21
-4.73461
0
LINE
8
BLACK
6
CONTINUOUS
10
8.96844
20
-4.73461
11
8.96171
21
-4.73828
0
LINE
8
BLACK
6
CONTINUOUS
10
8.96171
20
-4.73828
11
8.96107
21
-4.73858
0
LINE
8
BLACK
6
CONTINUOUS
10
8.96107
20
-4.73858
11
8.95388
21
-4.74126
0
LINE
8
BLACK
6
CONTINUOUS
10
8.95388
20
-4.74126
11
8.9532
21
-4.74146
0
LINE
8
BLACK
6
CONTINUOUS
10
8.9532
20
-4.74146
11
8.94571
21
-4.74309
0
LINE
8
BLACK
6
CONTINUOUS
10
8.94571
20
-4.74309
11
8.94501
21
-4.74319
0
LINE
8
BLACK
6
CONTINUOUS
10
8.94501
20
-4.74319
11
8.93864
21
-4.74364
0
LINE
8
BLACK
6
CONTINUOUS
10
8.93864
20
-4.74364
11
8.93793
21
-4.74361
0
LINE
8
BLACK
6
CONTINUOUS
10
8.93793
20
-4.74361
11
8.9376
21
-4.74361
0
LINE
8
BLACK
6
CONTINUOUS
10
8.9376
20
-4.74361
11
8.93725
21
-4.74356
0
LINE
8
BLACK
6
CONTINUOUS
10
8.93725
20
-4.74356
11
8.93601
21
-4.74372
0
LINE
8
BLACK
6
CONTINUOUS
10
8.93601
20
-4.74372
11
8.93537
21
-4.74376
0
LINE
8
BLACK
6
CONTINUOUS
10
8.93537
20
-4.74376
11
8.34352
21
-4.74376
0
LINE
8
BLACK
6
CONTINUOUS
10
8.34352
20
-4.74376
11
8.34084
21
-4.74297
0
LINE
8
BLACK
6
CONTINUOUS
10
8.34084
20
-4.74297
11
8.33901
21
-4.74086
0
LINE
8
BLACK
6
CONTINUOUS
10
8.33901
20
-4.74086
11
8.33861
21
-4.73809
0
LINE
8
BLACK
6
CONTINUOUS
10
8.33861
20
-4.73809
11
8.33977
21
-4.73555
0
LINE
8
BLACK
6
CONTINUOUS
10
8.33977
20
-4.73555
11
8.34001
21
-4.73529
0
LINE
8
BLACK
6
CONTINUOUS
10
8.34001
20
-4.73529
11
8.35557
21
-4.71973
0
LINE
8
BLACK
6
CONTINUOUS
10
8.35557
20
-4.71973
11
8.35802
21
-4.71839
0
LINE
8
BLACK
6
CONTINUOUS
10
8.35802
20
-4.71839
11
8.36007
21
-4.71838
0
LINE
8
BLACK
6
CONTINUOUS
10
8.36007
20
-4.71838
11
8.36136
21
-4.71864
0
LINE
8
BLACK
6
CONTINUOUS
10
8.36136
20
-4.71864
11
8.36157
21
-4.71865
0
LINE
8
BLACK
6
CONTINUOUS
10
8.36157
20
-4.71865
11
8.36157
21
-4.71865
0
LINE
8
BLACK
6
CONTINUOUS
10
8.36157
20
-4.71865
11
8.36995
21
-4.71896
0
LINE
8
BLACK
6
CONTINUOUS
10
8.36995
20
-4.71896
11
8.36995
21
-4.71896
0
LINE
8
BLACK
6
CONTINUOUS
10
8.36995
20
-4.71896
11
8.37015
21
-4.71897
0
LINE
8
BLACK
6
CONTINUOUS
10
8.37015
20
-4.71897
11
8.37035
21
-4.71894
0
LINE
8
BLACK
6
CONTINUOUS
10
8.37035
20
-4.71894
11
8.37035
21
-4.71894
0
LINE
8
BLACK
6
CONTINUOUS
10
8.37035
20
-4.71894
11
8.37867
21
-4.71788
0
LINE
8
BLACK
6
CONTINUOUS
10
8.37867
20
-4.71788
11
8.37867
21
-4.71788
0
LINE
8
BLACK
6
CONTINUOUS
10
8.37867
20
-4.71788
11
8.37887
21
-4.71785
0
LINE
8
BLACK
6
CONTINUOUS
10
8.37887
20
-4.71785
11
8.37907
21
-4.71779
0
LINE
8
BLACK
6
CONTINUOUS
10
8.37907
20
-4.71779
11
8.3871
21
-4.71538
0
LINE
8
BLACK
6
CONTINUOUS
10
8.3871
20
-4.71538
11
8.3871
21
-4.71538
0
LINE
8
BLACK
6
CONTINUOUS
10
8.3871
20
-4.71538
11
8.3873
21
-4.71532
0
LINE
8
BLACK
6
CONTINUOUS
10
8.3873
20
-4.71532
11
8.3952
21
-4.71145
0
LINE
8
BLACK
6
CONTINUOUS
10
8.3952
20
-4.71145
11
8.40236
21
-4.70635
0
LINE
8
BLACK
6
CONTINUOUS
10
8.40236
20
-4.70635
11
8.40801
21
-4.70071
0
LINE
8
BLACK
6
CONTINUOUS
10
8.40801
20
-4.70071
11
8.40859
21
-4.70014
0
LINE
8
BLACK
6
CONTINUOUS
10
8.40859
20
-4.70014
11
8.41372
21
-4.693
0
LINE
8
BLACK
6
CONTINUOUS
10
8.86974
20
-4.71789
11
8.87001
21
-4.71786
0
LINE
8
BLACK
6
CONTINUOUS
10
8.87001
20
-4.71786
11
8.8704
21
-4.71777
0
LINE
8
BLACK
6
CONTINUOUS
10
8.8704
20
-4.71777
11
8.87844
21
-4.71536
0
LINE
8
BLACK
6
CONTINUOUS
10
8.87844
20
-4.71536
11
8.87881
21
-4.71521
0
LINE
8
BLACK
6
CONTINUOUS
10
8.87881
20
-4.71521
11
8.88634
21
-4.71153
0
LINE
8
BLACK
6
CONTINUOUS
10
8.88634
20
-4.71153
11
8.88669
21
-4.71132
0
LINE
8
BLACK
6
CONTINUOUS
10
8.88669
20
-4.71132
11
8.89352
21
-4.70645
0
LINE
8
BLACK
6
CONTINUOUS
10
8.89352
20
-4.70645
11
8.89383
21
-4.70619
0
LINE
8
BLACK
6
CONTINUOUS
10
8.89383
20
-4.70619
11
8.89977
21
-4.70027
0
LINE
8
BLACK
6
CONTINUOUS
10
8.89977
20
-4.70027
11
8.90003
21
-4.69996
0
LINE
8
BLACK
6
CONTINUOUS
10
8.90003
20
-4.69996
11
8.90492
21
-4.69315
0
LINE
8
BLACK
6
CONTINUOUS
10
8.90492
20
-4.69315
11
8.90513
21
-4.6928
0
LINE
8
BLACK
6
CONTINUOUS
10
8.90513
20
-4.6928
11
8.90885
21
-4.68529
0
LINE
8
BLACK
6
CONTINUOUS
10
8.90885
20
-4.68529
11
8.90899
21
-4.68491
0
LINE
8
BLACK
6
CONTINUOUS
10
8.90899
20
-4.68491
11
8.91143
21
-4.67689
0
LINE
8
BLACK
6
CONTINUOUS
10
8.91143
20
-4.67689
11
8.91152
21
-4.67649
0
LINE
8
BLACK
6
CONTINUOUS
10
8.91152
20
-4.67649
11
8.91157
21
-4.67606
0
LINE
8
BLACK
6
CONTINUOUS
10
8.91157
20
-4.67606
11
8.91149
21
-4.6755
0
LINE
8
BLACK
6
CONTINUOUS
10
8.91149
20
-4.6755
11
8.91097
21
-4.67535
0
LINE
8
BLACK
6
CONTINUOUS
10
8.91097
20
-4.67535
11
8.8908
21
-4.67535
0
LINE
8
BLACK
6
CONTINUOUS
10
8.8908
20
-4.67535
11
8.88963
21
-4.67897
0
LINE
8
BLACK
6
CONTINUOUS
10
8.88963
20
-4.67897
11
8.88613
21
-4.68502
0
LINE
8
BLACK
6
CONTINUOUS
10
8.88613
20
-4.68502
11
8.88145
21
-4.69022
0
LINE
8
BLACK
6
CONTINUOUS
10
8.88145
20
-4.69022
11
8.87579
21
-4.69434
0
LINE
8
BLACK
6
CONTINUOUS
10
8.87579
20
-4.69434
11
8.8694
21
-4.69718
0
LINE
8
BLACK
6
CONTINUOUS
10
8.8694
20
-4.69718
11
8.86906
21
-4.69725
0
LINE
8
BLACK
6
CONTINUOUS
10
8.86906
20
-4.69725
11
8.86906
21
-4.71726
0
LINE
8
BLACK
6
CONTINUOUS
10
8.86906
20
-4.71726
11
8.86922
21
-4.71781
0
LINE
8
BLACK
6
CONTINUOUS
10
8.86922
20
-4.71781
11
8.86974
21
-4.71789
0
LINE
8
BLACK
6
CONTINUOUS
10
8.86923
20
-4.61301
11
8.86906
21
-4.61358
0
LINE
8
BLACK
6
CONTINUOUS
10
8.86906
20
-4.61358
11
8.86906
21
-4.63346
0
LINE
8
BLACK
6
CONTINUOUS
10
8.86906
20
-4.63346
11
8.8694
21
-4.63353
0
LINE
8
BLACK
6
CONTINUOUS
10
8.8694
20
-4.63353
11
8.87579
21
-4.63637
0
LINE
8
BLACK
6
CONTINUOUS
10
8.87579
20
-4.63637
11
8.88145
21
-4.64049
0
LINE
8
BLACK
6
CONTINUOUS
10
8.88145
20
-4.64049
11
8.88613
21
-4.64568
0
LINE
8
BLACK
6
CONTINUOUS
10
8.88613
20
-4.64568
11
8.88963
21
-4.65174
0
LINE
8
BLACK
6
CONTINUOUS
10
8.88963
20
-4.65174
11
8.8908
21
-4.65535
0
LINE
8
BLACK
6
CONTINUOUS
10
8.8908
20
-4.65535
11
8.91096
21
-4.65535
0
LINE
8
BLACK
6
CONTINUOUS
10
8.91096
20
-4.65535
11
8.91149
21
-4.6552
0
LINE
8
BLACK
6
CONTINUOUS
10
8.91149
20
-4.6552
11
8.91154
21
-4.65484
0
LINE
8
BLACK
6
CONTINUOUS
10
8.91154
20
-4.65484
11
8.90989
21
-4.64826
0
LINE
8
BLACK
6
CONTINUOUS
10
8.90989
20
-4.64826
11
8.90976
21
-4.64788
0
LINE
8
BLACK
6
CONTINUOUS
10
8.90976
20
-4.64788
11
8.90642
21
-4.64019
0
LINE
8
BLACK
6
CONTINUOUS
10
8.90642
20
-4.64019
11
8.90622
21
-4.63983
0
LINE
8
BLACK
6
CONTINUOUS
10
8.90622
20
-4.63983
11
8.90167
21
-4.63279
0
LINE
8
BLACK
6
CONTINUOUS
10
8.90167
20
-4.63279
11
8.90142
21
-4.63247
0
LINE
8
BLACK
6
CONTINUOUS
10
8.90142
20
-4.63247
11
8.89578
21
-4.62627
0
LINE
8
BLACK
6
CONTINUOUS
10
8.89578
20
-4.62627
11
8.89548
21
-4.62599
0
LINE
8
BLACK
6
CONTINUOUS
10
8.89548
20
-4.62599
11
8.8889
21
-4.6208
0
LINE
8
BLACK
6
CONTINUOUS
10
8.8889
20
-4.6208
11
8.88857
21
-4.62057
0
LINE
8
BLACK
6
CONTINUOUS
10
8.88857
20
-4.62057
11
8.88123
21
-4.61652
0
LINE
8
BLACK
6
CONTINUOUS
10
8.88123
20
-4.61652
11
8.88085
21
-4.61635
0
LINE
8
BLACK
6
CONTINUOUS
10
8.88085
20
-4.61635
11
8.87295
21
-4.61355
0
LINE
8
BLACK
6
CONTINUOUS
10
8.87295
20
-4.61355
11
8.87256
21
-4.61345
0
LINE
8
BLACK
6
CONTINUOUS
10
8.87256
20
-4.61345
11
8.86976
21
-4.61295
0
LINE
8
BLACK
6
CONTINUOUS
10
8.86976
20
-4.61295
11
8.86923
21
-4.61301
0
LINE
8
BLACK
6
CONTINUOUS
10
8.84871
20
-4.69718
11
8.84232
21
-4.69434
0
LINE
8
BLACK
6
CONTINUOUS
10
8.84232
20
-4.69434
11
8.83666
21
-4.69022
0
LINE
8
BLACK
6
CONTINUOUS
10
8.83666
20
-4.69022
11
8.83198
21
-4.68502
0
LINE
8
BLACK
6
CONTINUOUS
10
8.83198
20
-4.68502
11
8.82848
21
-4.67897
0
LINE
8
BLACK
6
CONTINUOUS
10
8.82848
20
-4.67897
11
8.82632
21
-4.67231
0
LINE
8
BLACK
6
CONTINUOUS
10
8.82632
20
-4.67231
11
8.82559
21
-4.66535
0
LINE
8
BLACK
6
CONTINUOUS
10
8.82559
20
-4.66535
11
8.82632
21
-4.6584
0
LINE
8
BLACK
6
CONTINUOUS
10
8.82632
20
-4.6584
11
8.82848
21
-4.65174
0
LINE
8
BLACK
6
CONTINUOUS
10
8.82848
20
-4.65174
11
8.83198
21
-4.64568
0
LINE
8
BLACK
6
CONTINUOUS
10
8.83198
20
-4.64568
11
8.83666
21
-4.64049
0
LINE
8
BLACK
6
CONTINUOUS
10
8.83666
20
-4.64049
11
8.84232
21
-4.63637
0
LINE
8
BLACK
6
CONTINUOUS
10
8.84232
20
-4.63637
11
8.84871
21
-4.63353
0
LINE
8
BLACK
6
CONTINUOUS
10
8.84871
20
-4.63353
11
8.84906
21
-4.63346
0
LINE
8
BLACK
6
CONTINUOUS
10
8.84906
20
-4.63346
11
8.84906
21
-4.61351
0
LINE
8
BLACK
6
CONTINUOUS
10
8.84906
20
-4.61351
11
8.8489
21
-4.61298
0
LINE
8
BLACK
6
CONTINUOUS
10
8.8489
20
-4.61298
11
8.84834
21
-4.6129
0
LINE
8
BLACK
6
CONTINUOUS
10
8.84834
20
-4.6129
11
8.84682
21
-4.61314
0
LINE
8
BLACK
6
CONTINUOUS
10
8.84682
20
-4.61314
11
8.84643
21
-4.61323
0
LINE
8
BLACK
6
CONTINUOUS
10
8.84643
20
-4.61323
11
8.83846
21
-4.61584
0
LINE
8
BLACK
6
CONTINUOUS
10
8.83846
20
-4.61584
11
8.83808
21
-4.61599
0
LINE
8
BLACK
6
CONTINUOUS
10
8.83808
20
-4.61599
11
8.83065
21
-4.61986
0
LINE
8
BLACK
6
CONTINUOUS
10
8.83065
20
-4.61986
11
8.8303
21
-4.62008
0
LINE
8
BLACK
6
CONTINUOUS
10
8.8303
20
-4.62008
11
8.8236
21
-4.62511
0
LINE
8
BLACK
6
CONTINUOUS
10
8.8236
20
-4.62511
11
8.8233
21
-4.62538
0
LINE
8
BLACK
6
CONTINUOUS
10
8.8233
20
-4.62538
11
8.82026
21
-4.62857
0
LINE
8
BLACK
6
CONTINUOUS
10
8.82026
20
-4.62857
11
8.81783
21
-4.62996
0
LINE
8
BLACK
6
CONTINUOUS
10
8.81783
20
-4.62996
11
8.81504
21
-4.62983
0
LINE
8
BLACK
6
CONTINUOUS
10
8.81504
20
-4.62983
11
8.81277
21
-4.6282
0
LINE
8
BLACK
6
CONTINUOUS
10
8.81277
20
-4.6282
11
8.81202
21
-4.62688
0
LINE
8
BLACK
6
CONTINUOUS
10
8.81202
20
-4.62688
11
8.81038
21
-4.62251
0
LINE
8
BLACK
6
CONTINUOUS
10
8.81038
20
-4.62251
11
8.81026
21
-4.62218
0
LINE
8
BLACK
6
CONTINUOUS
10
8.81026
20
-4.62218
11
8.80682
21
-4.61759
0
LINE
8
BLACK
6
CONTINUOUS
10
8.80682
20
-4.61759
11
8.80223
21
-4.61415
0
LINE
8
BLACK
6
CONTINUOUS
10
8.80223
20
-4.61415
11
8.79686
21
-4.61214
0
LINE
8
BLACK
6
CONTINUOUS
10
8.79686
20
-4.61214
11
8.79441
21
-4.61187
0
LINE
8
BLACK
6
CONTINUOUS
10
8.79441
20
-4.61187
11
8.7237
21
-4.61187
0
LINE
8
BLACK
6
CONTINUOUS
10
8.7237
20
-4.61187
11
8.72125
21
-4.61214
0
LINE
8
BLACK
6
CONTINUOUS
10
8.72125
20
-4.61214
11
8.71588
21
-4.61415
0
LINE
8
BLACK
6
CONTINUOUS
10
8.71588
20
-4.61415
11
8.71129
21
-4.61759
0
LINE
8
BLACK
6
CONTINUOUS
10
8.71129
20
-4.61759
11
8.70785
21
-4.62218
0
LINE
8
BLACK
6
CONTINUOUS
10
8.70785
20
-4.62218
11
8.70584
21
-4.62755
0
LINE
8
BLACK
6
CONTINUOUS
10
8.70584
20
-4.62755
11
8.70557
21
-4.62999
0
LINE
8
BLACK
6
CONTINUOUS
10
8.70557
20
-4.62999
11
8.70557
21
-4.70071
0
LINE
8
BLACK
6
CONTINUOUS
10
8.70557
20
-4.70071
11
8.70584
21
-4.70316
0
LINE
8
BLACK
6
CONTINUOUS
10
8.70584
20
-4.70316
11
8.70785
21
-4.70853
0
LINE
8
BLACK
6
CONTINUOUS
10
8.70785
20
-4.70853
11
8.71129
21
-4.71312
0
LINE
8
BLACK
6
CONTINUOUS
10
8.71129
20
-4.71312
11
8.71588
21
-4.71656
0
LINE
8
BLACK
6
CONTINUOUS
10
8.71588
20
-4.71656
11
8.72125
21
-4.71857
0
LINE
8
BLACK
6
CONTINUOUS
10
8.72125
20
-4.71857
11
8.7237
21
-4.71884
0
LINE
8
BLACK
6
CONTINUOUS
10
8.7237
20
-4.71884
11
8.79441
21
-4.71884
0
LINE
8
BLACK
6
CONTINUOUS
10
8.79441
20
-4.71884
11
8.79686
21
-4.71857
0
LINE
8
BLACK
6
CONTINUOUS
10
8.79686
20
-4.71857
11
8.80223
21
-4.71656
0
LINE
8
BLACK
6
CONTINUOUS
10
8.80223
20
-4.71656
11
8.80682
21
-4.71312
0
LINE
8
BLACK
6
CONTINUOUS
10
8.80682
20
-4.71312
11
8.81026
21
-4.70853
0
LINE
8
BLACK
6
CONTINUOUS
10
8.81026
20
-4.70853
11
8.812
21
-4.70389
0
LINE
8
BLACK
6
CONTINUOUS
10
8.812
20
-4.70389
11
8.81368
21
-4.70166
0
LINE
8
BLACK
6
CONTINUOUS
10
8.81368
20
-4.70166
11
8.8163
21
-4.70068
0
LINE
8
BLACK
6
CONTINUOUS
10
8.8163
20
-4.70068
11
8.81903
21
-4.70128
0
LINE
8
BLACK
6
CONTINUOUS
10
8.81903
20
-4.70128
11
8.82039
21
-4.70239
0
LINE
8
BLACK
6
CONTINUOUS
10
8.82039
20
-4.70239
11
8.82139
21
-4.70353
0
LINE
8
BLACK
6
CONTINUOUS
10
8.82139
20
-4.70353
11
8.82168
21
-4.70381
0
LINE
8
BLACK
6
CONTINUOUS
10
8.82168
20
-4.70381
11
8.82813
21
-4.70917
0
LINE
8
BLACK
6
CONTINUOUS
10
8.82813
20
-4.70917
11
8.82846
21
-4.7094
0
LINE
8
BLACK
6
CONTINUOUS
10
8.82846
20
-4.7094
11
8.8357
21
-4.71363
0
LINE
8
BLACK
6
CONTINUOUS
10
8.8357
20
-4.71363
11
8.83606
21
-4.71381
0
LINE
8
BLACK
6
CONTINUOUS
10
8.83606
20
-4.71381
11
8.8439
21
-4.7168
0
LINE
8
BLACK
6
CONTINUOUS
10
8.8439
20
-4.7168
11
8.84429
21
-4.71691
0
LINE
8
BLACK
6
CONTINUOUS
10
8.84429
20
-4.71691
11
8.84836
21
-4.71774
0
LINE
8
BLACK
6
CONTINUOUS
10
8.84836
20
-4.71774
11
8.84891
21
-4.71769
0
LINE
8
BLACK
6
CONTINUOUS
10
8.84891
20
-4.71769
11
8.84906
21
-4.71729
0
LINE
8
BLACK
6
CONTINUOUS
10
8.84906
20
-4.71729
11
8.84906
21
-4.69725
0
LINE
8
BLACK
6
CONTINUOUS
10
8.84906
20
-4.69725
11
8.84871
21
-4.69718
0
LINE
8
BLACK
6
CONTINUOUS
10
8.00823
20
-4.34492
11
8.01226
21
-4.3468
0
LINE
8
BLACK
6
CONTINUOUS
10
8.01226
20
-4.3468
11
8.0154
21
-4.34994
0
LINE
8
BLACK
6
CONTINUOUS
10
8.0154
20
-4.34994
11
8.01728
21
-4.35397
0
LINE
8
BLACK
6
CONTINUOUS
10
8.01728
20
-4.35397
11
8.01772
21
-4.35728
0
LINE
8
BLACK
6
CONTINUOUS
10
8.01772
20
-4.35728
11
8.01772
21
-4.36516
0
LINE
8
BLACK
6
CONTINUOUS
10
8.01772
20
-4.36516
11
8.1437
21
-4.36516
0
LINE
8
BLACK
6
CONTINUOUS
10
8.1437
20
-4.36516
11
8.1437
21
-4.35728
0
LINE
8
BLACK
6
CONTINUOUS
10
8.1437
20
-4.35728
11
8.14414
21
-4.35397
0
LINE
8
BLACK
6
CONTINUOUS
10
8.14414
20
-4.35397
11
8.14601
21
-4.34994
0
LINE
8
BLACK
6
CONTINUOUS
10
8.14601
20
-4.34994
11
8.14916
21
-4.3468
0
LINE
8
BLACK
6
CONTINUOUS
10
8.14916
20
-4.3468
11
8.15318
21
-4.34492
0
LINE
8
BLACK
6
CONTINUOUS
10
8.15318
20
-4.34492
11
8.1565
21
-4.34449
0
LINE
8
BLACK
6
CONTINUOUS
10
8.1565
20
-4.34449
11
8.18209
21
-4.34449
0
LINE
8
BLACK
6
CONTINUOUS
10
8.18209
20
-4.34449
11
8.1854
21
-4.34492
0
LINE
8
BLACK
6
CONTINUOUS
10
8.1854
20
-4.34492
11
8.18943
21
-4.3468
0
LINE
8
BLACK
6
CONTINUOUS
10
8.18943
20
-4.3468
11
8.19257
21
-4.34994
0
LINE
8
BLACK
6
CONTINUOUS
10
8.19257
20
-4.34994
11
8.19445
21
-4.35397
0
LINE
8
BLACK
6
CONTINUOUS
10
8.19445
20
-4.35397
11
8.19488
21
-4.35728
0
LINE
8
BLACK
6
CONTINUOUS
10
8.19488
20
-4.35728
11
8.19488
21
-4.38287
0
LINE
8
BLACK
6
CONTINUOUS
10
8.19488
20
-4.38287
11
8.19445
21
-4.38619
0
LINE
8
BLACK
6
CONTINUOUS
10
8.19445
20
-4.38619
11
8.19257
21
-4.39021
0
LINE
8
BLACK
6
CONTINUOUS
10
8.19257
20
-4.39021
11
8.18943
21
-4.39336
0
LINE
8
BLACK
6
CONTINUOUS
10
8.18943
20
-4.39336
11
8.1854
21
-4.39523
0
LINE
8
BLACK
6
CONTINUOUS
10
8.1854
20
-4.39523
11
8.18209
21
-4.39567
0
LINE
8
BLACK
6
CONTINUOUS
10
8.18209
20
-4.39567
11
8.1565
21
-4.39567
0
LINE
8
BLACK
6
CONTINUOUS
10
8.1565
20
-4.39567
11
8.15318
21
-4.39523
0
LINE
8
BLACK
6
CONTINUOUS
10
8.15318
20
-4.39523
11
8.14916
21
-4.39336
0
LINE
8
BLACK
6
CONTINUOUS
10
8.14916
20
-4.39336
11
8.14601
21
-4.39021
0
LINE
8
BLACK
6
CONTINUOUS
10
8.14601
20
-4.39021
11
8.14414
21
-4.38619
0
LINE
8
BLACK
6
CONTINUOUS
10
8.14414
20
-4.38619
11
8.1437
21
-4.38287
0
LINE
8
BLACK
6
CONTINUOUS
10
8.1437
20
-4.38287
11
8.1437
21
-4.375
0
LINE
8
BLACK
6
CONTINUOUS
10
8.1437
20
-4.375
11
8.01772
21
-4.375
0
LINE
8
BLACK
6
CONTINUOUS
10
8.01772
20
-4.375
11
8.01772
21
-4.38287
0
LINE
8
BLACK
6
CONTINUOUS
10
8.01772
20
-4.38287
11
8.01728
21
-4.38619
0
LINE
8
BLACK
6
CONTINUOUS
10
8.01728
20
-4.38619
11
8.0154
21
-4.39021
0
LINE
8
BLACK
6
CONTINUOUS
10
8.0154
20
-4.39021
11
8.01226
21
-4.39336
0
LINE
8
BLACK
6
CONTINUOUS
10
8.01226
20
-4.39336
11
8.00823
21
-4.39523
0
LINE
8
BLACK
6
CONTINUOUS
10
8.00823
20
-4.39523
11
8.00492
21
-4.39567
0
LINE
8
BLACK
6
CONTINUOUS
10
8.00492
20
-4.39567
11
7.97933
21
-4.39567
0
LINE
8
BLACK
6
CONTINUOUS
10
7.97933
20
-4.39567
11
7.97602
21
-4.39523
0
LINE
8
BLACK
6
CONTINUOUS
10
7.97602
20
-4.39523
11
7.9746
21
-4.39457
0
LINE
8
BLACK
6
CONTINUOUS
10
7.9746
20
-4.39457
11
7.77894
21
-4.59023
0
LINE
8
BLACK
6
CONTINUOUS
10
7.77894
20
-4.59023
11
7.77894
21
-4.63189
0
LINE
8
BLACK
6
CONTINUOUS
10
7.77894
20
-4.63189
11
7.80748
21
-4.63189
0
LINE
8
BLACK
6
CONTINUOUS
10
7.80748
20
-4.63189
11
7.80748
21
-4.69882
0
LINE
8
BLACK
6
CONTINUOUS
10
7.80748
20
-4.69882
11
7.74055
21
-4.69882
0
LINE
8
BLACK
6
CONTINUOUS
10
7.74055
20
-4.69882
11
7.74055
21
-4.63189
0
LINE
8
BLACK
6
CONTINUOUS
10
7.74055
20
-4.63189
11
7.76909
21
-4.63189
0
LINE
8
BLACK
6
CONTINUOUS
10
7.76909
20
-4.63189
11
7.76909
21
-4.58819
0
LINE
8
BLACK
6
CONTINUOUS
10
7.76909
20
-4.58819
11
7.76922
21
-4.58732
0
LINE
8
BLACK
6
CONTINUOUS
10
7.76922
20
-4.58732
11
7.76921
21
-4.58714
0
LINE
8
BLACK
6
CONTINUOUS
10
7.76921
20
-4.58714
11
7.76926
21
-4.58704
0
LINE
8
BLACK
6
CONTINUOUS
10
7.76926
20
-4.58704
11
7.7693
21
-4.58679
0
LINE
8
BLACK
6
CONTINUOUS
10
7.7693
20
-4.58679
11
7.76995
21
-4.58577
0
LINE
8
BLACK
6
CONTINUOUS
10
7.76995
20
-4.58577
11
7.77054
21
-4.58471
0
LINE
8
BLACK
6
CONTINUOUS
10
7.77054
20
-4.58471
11
7.96764
21
-4.38761
0
LINE
8
BLACK
6
CONTINUOUS
10
7.96764
20
-4.38761
11
7.96697
21
-4.38619
0
LINE
8
BLACK
6
CONTINUOUS
10
7.96697
20
-4.38619
11
7.96654
21
-4.38287
0
LINE
8
BLACK
6
CONTINUOUS
10
7.96654
20
-4.38287
11
7.96654
21
-4.35728
0
LINE
8
BLACK
6
CONTINUOUS
10
7.96654
20
-4.35728
11
7.96697
21
-4.35397
0
LINE
8
BLACK
6
CONTINUOUS
10
7.96697
20
-4.35397
11
7.96885
21
-4.34994
0
LINE
8
BLACK
6
CONTINUOUS
10
7.96885
20
-4.34994
11
7.97199
21
-4.3468
0
LINE
8
BLACK
6
CONTINUOUS
10
7.97199
20
-4.3468
11
7.97602
21
-4.34492
0
LINE
8
BLACK
6
CONTINUOUS
10
7.97602
20
-4.34492
11
7.97933
21
-4.34449
0
LINE
8
BLACK
6
CONTINUOUS
10
7.97933
20
-4.34449
11
8.00492
21
-4.34449
0
LINE
8
BLACK
6
CONTINUOUS
10
8.00492
20
-4.34449
11
8.00823
21
-4.34492
0
LINE
8
BLACK
6
CONTINUOUS
10
7.77234
20
-4.43117
11
7.77756
21
-4.43313
0
LINE
8
BLACK
6
CONTINUOUS
10
7.77756
20
-4.43313
11
7.78203
21
-4.43647
0
LINE
8
BLACK
6
CONTINUOUS
10
7.78203
20
-4.43647
11
7.78538
21
-4.44094
0
LINE
8
BLACK
6
CONTINUOUS
10
7.78538
20
-4.44094
11
7.78734
21
-4.44617
0
LINE
8
BLACK
6
CONTINUOUS
10
7.78734
20
-4.44617
11
7.7878
21
-4.45039
0
LINE
8
BLACK
6
CONTINUOUS
10
7.7878
20
-4.45039
11
7.7878
21
-4.48976
0
LINE
8
BLACK
6
CONTINUOUS
10
7.7878
20
-4.48976
11
7.78734
21
-4.49399
0
LINE
8
BLACK
6
CONTINUOUS
10
7.78734
20
-4.49399
11
7.78538
21
-4.49922
0
LINE
8
BLACK
6
CONTINUOUS
10
7.78538
20
-4.49922
11
7.78203
21
-4.50368
0
LINE
8
BLACK
6
CONTINUOUS
10
7.78203
20
-4.50368
11
7.77756
21
-4.50703
0
LINE
8
BLACK
6
CONTINUOUS
10
7.77756
20
-4.50703
11
7.77234
21
-4.50899
0
LINE
8
BLACK
6
CONTINUOUS
10
7.77234
20
-4.50899
11
7.76811
21
-4.50945
0
LINE
8
BLACK
6
CONTINUOUS
10
7.76811
20
-4.50945
11
7.72874
21
-4.50945
0
LINE
8
BLACK
6
CONTINUOUS
10
7.72874
20
-4.50945
11
7.72451
21
-4.50899
0
LINE
8
BLACK
6
CONTINUOUS
10
7.72451
20
-4.50899
11
7.71929
21
-4.50703
0
LINE
8
BLACK
6
CONTINUOUS
10
7.71929
20
-4.50703
11
7.71482
21
-4.50368
0
LINE
8
BLACK
6
CONTINUOUS
10
7.71482
20
-4.50368
11
7.71147
21
-4.49922
0
LINE
8
BLACK
6
CONTINUOUS
10
7.71147
20
-4.49922
11
7.70951
21
-4.49399
0
LINE
8
BLACK
6
CONTINUOUS
10
7.70951
20
-4.49399
11
7.70906
21
-4.48976
0
LINE
8
BLACK
6
CONTINUOUS
10
7.70906
20
-4.48976
11
7.70906
21
-4.45039
0
LINE
8
BLACK
6
CONTINUOUS
10
7.70906
20
-4.45039
11
7.70951
21
-4.44617
0
LINE
8
BLACK
6
CONTINUOUS
10
7.70951
20
-4.44617
11
7.71147
21
-4.44094
0
LINE
8
BLACK
6
CONTINUOUS
10
7.71147
20
-4.44094
11
7.71482
21
-4.43647
0
LINE
8
BLACK
6
CONTINUOUS
10
7.71482
20
-4.43647
11
7.71929
21
-4.43313
0
LINE
8
BLACK
6
CONTINUOUS
10
7.71929
20
-4.43313
11
7.72451
21
-4.43117
0
LINE
8
BLACK
6
CONTINUOUS
10
7.72451
20
-4.43117
11
7.72874
21
-4.43071
0
LINE
8
BLACK
6
CONTINUOUS
10
7.72874
20
-4.43071
11
7.76811
21
-4.43071
0
LINE
8
BLACK
6
CONTINUOUS
10
7.76811
20
-4.43071
11
7.77234
21
-4.43117
0
LINE
8
BLACK
6
CONTINUOUS
10
7.47234
20
-4.43117
11
7.47756
21
-4.43313
0
LINE
8
BLACK
6
CONTINUOUS
10
7.47756
20
-4.43313
11
7.48203
21
-4.43647
0
LINE
8
BLACK
6
CONTINUOUS
10
7.48203
20
-4.43647
11
7.48538
21
-4.44094
0
LINE
8
BLACK
6
CONTINUOUS
10
7.48538
20
-4.44094
11
7.48734
21
-4.44617
0
LINE
8
BLACK
6
CONTINUOUS
10
7.48734
20
-4.44617
11
7.4878
21
-4.45039
0
LINE
8
BLACK
6
CONTINUOUS
10
7.4878
20
-4.45039
11
7.4878
21
-4.48976
0
LINE
8
BLACK
6
CONTINUOUS
10
7.4878
20
-4.48976
11
7.48734
21
-4.49399
0
LINE
8
BLACK
6
CONTINUOUS
10
7.48734
20
-4.49399
11
7.48538
21
-4.49922
0
LINE
8
BLACK
6
CONTINUOUS
10
7.48538
20
-4.49922
11
7.48203
21
-4.50368
0
LINE
8
BLACK
6
CONTINUOUS
10
7.48203
20
-4.50368
11
7.47756
21
-4.50703
0
LINE
8
BLACK
6
CONTINUOUS
10
7.47756
20
-4.50703
11
7.47234
21
-4.50899
0
LINE
8
BLACK
6
CONTINUOUS
10
7.47234
20
-4.50899
11
7.46811
21
-4.50945
0
LINE
8
BLACK
6
CONTINUOUS
10
7.46811
20
-4.50945
11
7.42874
21
-4.50945
0
LINE
8
BLACK
6
CONTINUOUS
10
7.42874
20
-4.50945
11
7.42451
21
-4.50899
0
LINE
8
BLACK
6
CONTINUOUS
10
7.42451
20
-4.50899
11
7.41929
21
-4.50703
0
LINE
8
BLACK
6
CONTINUOUS
10
7.41929
20
-4.50703
11
7.41482
21
-4.50368
0
LINE
8
BLACK
6
CONTINUOUS
10
7.41482
20
-4.50368
11
7.41147
21
-4.49922
0
LINE
8
BLACK
6
CONTINUOUS
10
7.41147
20
-4.49922
11
7.40951
21
-4.49399
0
LINE
8
BLACK
6
CONTINUOUS
10
7.40951
20
-4.49399
11
7.40906
21
-4.48976
0
LINE
8
BLACK
6
CONTINUOUS
10
7.40906
20
-4.48976
11
7.40906
21
-4.45039
0
LINE
8
BLACK
6
CONTINUOUS
10
7.40906
20
-4.45039
11
7.40951
21
-4.44617
0
LINE
8
BLACK
6
CONTINUOUS
10
7.40951
20
-4.44617
11
7.41147
21
-4.44094
0
LINE
8
BLACK
6
CONTINUOUS
10
7.41147
20
-4.44094
11
7.41482
21
-4.43647
0
LINE
8
BLACK
6
CONTINUOUS
10
7.41482
20
-4.43647
11
7.41929
21
-4.43313
0
LINE
8
BLACK
6
CONTINUOUS
10
7.41929
20
-4.43313
11
7.42451
21
-4.43117
0
LINE
8
BLACK
6
CONTINUOUS
10
7.42451
20
-4.43117
11
7.42874
21
-4.43071
0
LINE
8
BLACK
6
CONTINUOUS
10
7.42874
20
-4.43071
11
7.46811
21
-4.43071
0
LINE
8
BLACK
6
CONTINUOUS
10
7.46811
20
-4.43071
11
7.47234
21
-4.43117
0
LINE
8
BLACK
6
CONTINUOUS
10
8.71722
20
-4.43117
11
8.72245
21
-4.43313
0
LINE
8
BLACK
6
CONTINUOUS
10
8.72245
20
-4.43313
11
8.72691
21
-4.43647
0
LINE
8
BLACK
6
CONTINUOUS
10
8.72691
20
-4.43647
11
8.73026
21
-4.44094
0
LINE
8
BLACK
6
CONTINUOUS
10
8.73026
20
-4.44094
11
8.73222
21
-4.44617
0
LINE
8
BLACK
6
CONTINUOUS
10
8.73222
20
-4.44617
11
8.73268
21
-4.45039
0
LINE
8
BLACK
6
CONTINUOUS
10
8.73268
20
-4.45039
11
8.73268
21
-4.48976
0
LINE
8
BLACK
6
CONTINUOUS
10
8.73268
20
-4.48976
11
8.73222
21
-4.49399
0
LINE
8
BLACK
6
CONTINUOUS
10
8.73222
20
-4.49399
11
8.73026
21
-4.49922
0
LINE
8
BLACK
6
CONTINUOUS
10
8.73026
20
-4.49922
11
8.72691
21
-4.50368
0
LINE
8
BLACK
6
CONTINUOUS
10
8.72691
20
-4.50368
11
8.72245
21
-4.50703
0
LINE
8
BLACK
6
CONTINUOUS
10
8.72245
20
-4.50703
11
8.71722
21
-4.50899
0
LINE
8
BLACK
6
CONTINUOUS
10
8.71722
20
-4.50899
11
8.71299
21
-4.50945
0
LINE
8
BLACK
6
CONTINUOUS
10
8.71299
20
-4.50945
11
8.67362
21
-4.50945
0
LINE
8
BLACK
6
CONTINUOUS
10
8.67362
20
-4.50945
11
8.66939
21
-4.50899
0
LINE
8
BLACK
6
CONTINUOUS
10
8.66939
20
-4.50899
11
8.66417
21
-4.50703
0
LINE
8
BLACK
6
CONTINUOUS
10
8.66417
20
-4.50703
11
8.6597
21
-4.50368
0
LINE
8
BLACK
6
CONTINUOUS
10
8.6597
20
-4.50368
11
8.65636
21
-4.49922
0
LINE
8
BLACK
6
CONTINUOUS
10
8.65636
20
-4.49922
11
8.6544
21
-4.49399
0
LINE
8
BLACK
6
CONTINUOUS
10
8.6544
20
-4.49399
11
8.65394
21
-4.48976
0
LINE
8
BLACK
6
CONTINUOUS
10
8.65394
20
-4.48976
11
8.65394
21
-4.45039
0
LINE
8
BLACK
6
CONTINUOUS
10
8.65394
20
-4.45039
11
8.6544
21
-4.44617
0
LINE
8
BLACK
6
CONTINUOUS
10
8.6544
20
-4.44617
11
8.65636
21
-4.44094
0
LINE
8
BLACK
6
CONTINUOUS
10
8.65636
20
-4.44094
11
8.6597
21
-4.43647
0
LINE
8
BLACK
6
CONTINUOUS
10
8.6597
20
-4.43647
11
8.66417
21
-4.43313
0
LINE
8
BLACK
6
CONTINUOUS
10
8.66417
20
-4.43313
11
8.66939
21
-4.43117
0
LINE
8
BLACK
6
CONTINUOUS
10
8.66939
20
-4.43117
11
8.67362
21
-4.43071
0
LINE
8
BLACK
6
CONTINUOUS
10
8.67362
20
-4.43071
11
8.71299
21
-4.43071
0
LINE
8
BLACK
6
CONTINUOUS
10
8.71299
20
-4.43071
11
8.71722
21
-4.43117
0
LINE
8
BLACK
6
CONTINUOUS
10
8.41722
20
-4.43117
11
8.42245
21
-4.43313
0
LINE
8
BLACK
6
CONTINUOUS
10
8.42245
20
-4.43313
11
8.42691
21
-4.43647
0
LINE
8
BLACK
6
CONTINUOUS
10
8.42691
20
-4.43647
11
8.43026
21
-4.44094
0
LINE
8
BLACK
6
CONTINUOUS
10
8.43026
20
-4.44094
11
8.43222
21
-4.44617
0
LINE
8
BLACK
6
CONTINUOUS
10
8.43222
20
-4.44617
11
8.43268
21
-4.45039
0
LINE
8
BLACK
6
CONTINUOUS
10
8.43268
20
-4.45039
11
8.43268
21
-4.48976
0
LINE
8
BLACK
6
CONTINUOUS
10
8.43268
20
-4.48976
11
8.43222
21
-4.49399
0
LINE
8
BLACK
6
CONTINUOUS
10
8.43222
20
-4.49399
11
8.43026
21
-4.49922
0
LINE
8
BLACK
6
CONTINUOUS
10
8.43026
20
-4.49922
11
8.42691
21
-4.50368
0
LINE
8
BLACK
6
CONTINUOUS
10
8.42691
20
-4.50368
11
8.42245
21
-4.50703
0
LINE
8
BLACK
6
CONTINUOUS
10
8.42245
20
-4.50703
11
8.41722
21
-4.50899
0
LINE
8
BLACK
6
CONTINUOUS
10
8.41722
20
-4.50899
11
8.41299
21
-4.50945
0
LINE
8
BLACK
6
CONTINUOUS
10
8.41299
20
-4.50945
11
8.37362
21
-4.50945
0
LINE
8
BLACK
6
CONTINUOUS
10
8.37362
20
-4.50945
11
8.36939
21
-4.50899
0
LINE
8
BLACK
6
CONTINUOUS
10
8.36939
20
-4.50899
11
8.36417
21
-4.50703
0
LINE
8
BLACK
6
CONTINUOUS
10
8.36417
20
-4.50703
11
8.3597
21
-4.50368
0
LINE
8
BLACK
6
CONTINUOUS
10
8.3597
20
-4.50368
11
8.35636
21
-4.49922
0
LINE
8
BLACK
6
CONTINUOUS
10
8.35636
20
-4.49922
11
8.3544
21
-4.49399
0
LINE
8
BLACK
6
CONTINUOUS
10
8.3544
20
-4.49399
11
8.35394
21
-4.48976
0
LINE
8
BLACK
6
CONTINUOUS
10
8.35394
20
-4.48976
11
8.35394
21
-4.45039
0
LINE
8
BLACK
6
CONTINUOUS
10
8.35394
20
-4.45039
11
8.3544
21
-4.44617
0
LINE
8
BLACK
6
CONTINUOUS
10
8.3544
20
-4.44617
11
8.35636
21
-4.44094
0
LINE
8
BLACK
6
CONTINUOUS
10
8.35636
20
-4.44094
11
8.3597
21
-4.43647
0
LINE
8
BLACK
6
CONTINUOUS
10
8.3597
20
-4.43647
11
8.36417
21
-4.43313
0
LINE
8
BLACK
6
CONTINUOUS
10
8.36417
20
-4.43313
11
8.36939
21
-4.43117
0
LINE
8
BLACK
6
CONTINUOUS
10
8.36939
20
-4.43117
11
8.37362
21
-4.43071
0
LINE
8
BLACK
6
CONTINUOUS
10
8.37362
20
-4.43071
11
8.41299
21
-4.43071
0
LINE
8
BLACK
6
CONTINUOUS
10
8.41299
20
-4.43071
11
8.41722
21
-4.43117
0
LINE
8
BLACK
6
CONTINUOUS
10
8.04621
20
-4.22715
11
8.0506
21
-4.22939
0
LINE
8
BLACK
6
CONTINUOUS
10
8.0506
20
-4.22939
11
8.05408
21
-4.23287
0
LINE
8
BLACK
6
CONTINUOUS
10
8.05408
20
-4.23287
11
8.05632
21
-4.23726
0
LINE
8
BLACK
6
CONTINUOUS
10
8.05632
20
-4.23726
11
8.05709
21
-4.24213
0
LINE
8
BLACK
6
CONTINUOUS
10
8.05709
20
-4.24213
11
8.05632
21
-4.24699
0
LINE
8
BLACK
6
CONTINUOUS
10
8.05632
20
-4.24699
11
8.05408
21
-4.25138
0
LINE
8
BLACK
6
CONTINUOUS
10
8.05408
20
-4.25138
11
8.0506
21
-4.25487
0
LINE
8
BLACK
6
CONTINUOUS
10
8.0506
20
-4.25487
11
8.04621
21
-4.2571
0
LINE
8
BLACK
6
CONTINUOUS
10
8.04621
20
-4.2571
11
8.04134
21
-4.25787
0
LINE
8
BLACK
6
CONTINUOUS
10
8.04134
20
-4.25787
11
8.03647
21
-4.2571
0
LINE
8
BLACK
6
CONTINUOUS
10
8.03647
20
-4.2571
11
8.03208
21
-4.25487
0
LINE
8
BLACK
6
CONTINUOUS
10
8.03208
20
-4.25487
11
8.0286
21
-4.25138
0
LINE
8
BLACK
6
CONTINUOUS
10
8.0286
20
-4.25138
11
8.02788
21
-4.24998
0
LINE
8
BLACK
6
CONTINUOUS
10
8.02788
20
-4.24998
11
7.87548
21
-4.24998
0
LINE
8
BLACK
6
CONTINUOUS
10
7.87548
20
-4.24998
11
7.78501
21
-4.34045
0
LINE
8
BLACK
6
CONTINUOUS
10
7.78501
20
-4.34045
11
7.78538
21
-4.34094
0
LINE
8
BLACK
6
CONTINUOUS
10
7.78538
20
-4.34094
11
7.78734
21
-4.34617
0
LINE
8
BLACK
6
CONTINUOUS
10
7.78734
20
-4.34617
11
7.7878
21
-4.35039
0
LINE
8
BLACK
6
CONTINUOUS
10
7.7878
20
-4.35039
11
7.7878
21
-4.38976
0
LINE
8
BLACK
6
CONTINUOUS
10
7.7878
20
-4.38976
11
7.78734
21
-4.39399
0
LINE
8
BLACK
6
CONTINUOUS
10
7.78734
20
-4.39399
11
7.78538
21
-4.39922
0
LINE
8
BLACK
6
CONTINUOUS
10
7.78538
20
-4.39922
11
7.78203
21
-4.40368
0
LINE
8
BLACK
6
CONTINUOUS
10
7.78203
20
-4.40368
11
7.77756
21
-4.40703
0
LINE
8
BLACK
6
CONTINUOUS
10
7.77756
20
-4.40703
11
7.77234
21
-4.40899
0
LINE
8
BLACK
6
CONTINUOUS
10
7.77234
20
-4.40899
11
7.76811
21
-4.40945
0
LINE
8
BLACK
6
CONTINUOUS
10
7.76811
20
-4.40945
11
7.72874
21
-4.40945
0
LINE
8
BLACK
6
CONTINUOUS
10
7.72874
20
-4.40945
11
7.72451
21
-4.40899
0
LINE
8
BLACK
6
CONTINUOUS
10
7.72451
20
-4.40899
11
7.71929
21
-4.40703
0
LINE
8
BLACK
6
CONTINUOUS
10
7.71929
20
-4.40703
11
7.71482
21
-4.40368
0
LINE
8
BLACK
6
CONTINUOUS
10
7.71482
20
-4.40368
11
7.71147
21
-4.39922
0
LINE
8
BLACK
6
CONTINUOUS
10
7.71147
20
-4.39922
11
7.70951
21
-4.39399
0
LINE
8
BLACK
6
CONTINUOUS
10
7.70951
20
-4.39399
11
7.70906
21
-4.38976
0
LINE
8
BLACK
6
CONTINUOUS
10
7.70906
20
-4.38976
11
7.70906
21
-4.375
0
LINE
8
BLACK
6
CONTINUOUS
10
7.70906
20
-4.375
11
7.4878
21
-4.375
0
LINE
8
BLACK
6
CONTINUOUS
10
7.4878
20
-4.375
11
7.4878
21
-4.38976
0
LINE
8
BLACK
6
CONTINUOUS
10
7.4878
20
-4.38976
11
7.48734
21
-4.39399
0
LINE
8
BLACK
6
CONTINUOUS
10
7.48734
20
-4.39399
11
7.48538
21
-4.39922
0
LINE
8
BLACK
6
CONTINUOUS
10
7.48538
20
-4.39922
11
7.48203
21
-4.40368
0
LINE
8
BLACK
6
CONTINUOUS
10
7.48203
20
-4.40368
11
7.47756
21
-4.40703
0
LINE
8
BLACK
6
CONTINUOUS
10
7.47756
20
-4.40703
11
7.47234
21
-4.40899
0
LINE
8
BLACK
6
CONTINUOUS
10
7.47234
20
-4.40899
11
7.46811
21
-4.40945
0
LINE
8
BLACK
6
CONTINUOUS
10
7.46811
20
-4.40945
11
7.42874
21
-4.40945
0
LINE
8
BLACK
6
CONTINUOUS
10
7.42874
20
-4.40945
11
7.42451
21
-4.40899
0
LINE
8
BLACK
6
CONTINUOUS
10
7.42451
20
-4.40899
11
7.41929
21
-4.40703
0
LINE
8
BLACK
6
CONTINUOUS
10
7.41929
20
-4.40703
11
7.41482
21
-4.40368
0
LINE
8
BLACK
6
CONTINUOUS
10
7.41482
20
-4.40368
11
7.41147
21
-4.39922
0
LINE
8
BLACK
6
CONTINUOUS
10
7.41147
20
-4.39922
11
7.40951
21
-4.39399
0
LINE
8
BLACK
6
CONTINUOUS
10
7.40951
20
-4.39399
11
7.40906
21
-4.38976
0
LINE
8
BLACK
6
CONTINUOUS
10
7.40906
20
-4.38976
11
7.40906
21
-4.35039
0
LINE
8
BLACK
6
CONTINUOUS
10
7.40906
20
-4.35039
11
7.40951
21
-4.34617
0
LINE
8
BLACK
6
CONTINUOUS
10
7.40951
20
-4.34617
11
7.41147
21
-4.34094
0
LINE
8
BLACK
6
CONTINUOUS
10
7.41147
20
-4.34094
11
7.41482
21
-4.33647
0
LINE
8
BLACK
6
CONTINUOUS
10
7.41482
20
-4.33647
11
7.41929
21
-4.33313
0
LINE
8
BLACK
6
CONTINUOUS
10
7.41929
20
-4.33313
11
7.42451
21
-4.33117
0
LINE
8
BLACK
6
CONTINUOUS
10
7.42451
20
-4.33117
11
7.42874
21
-4.33071
0
LINE
8
BLACK
6
CONTINUOUS
10
7.42874
20
-4.33071
11
7.46811
21
-4.33071
0
LINE
8
BLACK
6
CONTINUOUS
10
7.46811
20
-4.33071
11
7.47234
21
-4.33117
0
LINE
8
BLACK
6
CONTINUOUS
10
7.47234
20
-4.33117
11
7.47756
21
-4.33313
0
LINE
8
BLACK
6
CONTINUOUS
10
7.47756
20
-4.33313
11
7.48203
21
-4.33647
0
LINE
8
BLACK
6
CONTINUOUS
10
7.48203
20
-4.33647
11
7.48538
21
-4.34094
0
LINE
8
BLACK
6
CONTINUOUS
10
7.48538
20
-4.34094
11
7.48734
21
-4.34617
0
LINE
8
BLACK
6
CONTINUOUS
10
7.48734
20
-4.34617
11
7.4878
21
-4.35039
0
LINE
8
BLACK
6
CONTINUOUS
10
7.4878
20
-4.35039
11
7.4878
21
-4.36516
0
LINE
8
BLACK
6
CONTINUOUS
10
7.4878
20
-4.36516
11
7.70906
21
-4.36516
0
LINE
8
BLACK
6
CONTINUOUS
10
7.70906
20
-4.36516
11
7.70906
21
-4.35039
0
LINE
8
BLACK
6
CONTINUOUS
10
7.70906
20
-4.35039
11
7.70951
21
-4.34617
0
LINE
8
BLACK
6
CONTINUOUS
10
7.70951
20
-4.34617
11
7.71147
21
-4.34094
0
LINE
8
BLACK
6
CONTINUOUS
10
7.71147
20
-4.34094
11
7.71482
21
-4.33647
0
LINE
8
BLACK
6
CONTINUOUS
10
7.71482
20
-4.33647
11
7.71929
21
-4.33313
0
LINE
8
BLACK
6
CONTINUOUS
10
7.71929
20
-4.33313
11
7.72451
21
-4.33117
0
LINE
8
BLACK
6
CONTINUOUS
10
7.72451
20
-4.33117
11
7.72874
21
-4.33071
0
LINE
8
BLACK
6
CONTINUOUS
10
7.72874
20
-4.33071
11
7.76811
21
-4.33071
0
LINE
8
BLACK
6
CONTINUOUS
10
7.76811
20
-4.33071
11
7.77234
21
-4.33117
0
LINE
8
BLACK
6
CONTINUOUS
10
7.77234
20
-4.33117
11
7.77756
21
-4.33313
0
LINE
8
BLACK
6
CONTINUOUS
10
7.77756
20
-4.33313
11
7.77805
21
-4.33349
0
LINE
8
BLACK
6
CONTINUOUS
10
7.77805
20
-4.33349
11
7.86996
21
-4.24158
0
LINE
8
BLACK
6
CONTINUOUS
10
7.86996
20
-4.24158
11
7.87067
21
-4.24106
0
LINE
8
BLACK
6
CONTINUOUS
10
7.87067
20
-4.24106
11
7.87079
21
-4.24092
0
LINE
8
BLACK
6
CONTINUOUS
10
7.87079
20
-4.24092
11
7.87089
21
-4.24089
0
LINE
8
BLACK
6
CONTINUOUS
10
7.87089
20
-4.24089
11
7.8711
21
-4.24073
0
LINE
8
BLACK
6
CONTINUOUS
10
7.8711
20
-4.24073
11
7.87228
21
-4.24048
0
LINE
8
BLACK
6
CONTINUOUS
10
7.87228
20
-4.24048
11
7.87344
21
-4.24014
0
LINE
8
BLACK
6
CONTINUOUS
10
7.87344
20
-4.24014
11
8.02591
21
-4.24014
0
LINE
8
BLACK
6
CONTINUOUS
10
8.02591
20
-4.24014
11
8.02636
21
-4.23726
0
LINE
8
BLACK
6
CONTINUOUS
10
8.02636
20
-4.23726
11
8.0286
21
-4.23287
0
LINE
8
BLACK
6
CONTINUOUS
10
8.0286
20
-4.23287
11
8.03208
21
-4.22939
0
LINE
8
BLACK
6
CONTINUOUS
10
8.03208
20
-4.22939
11
8.03647
21
-4.22715
0
LINE
8
BLACK
6
CONTINUOUS
10
8.03647
20
-4.22715
11
8.04134
21
-4.22638
0
LINE
8
BLACK
6
CONTINUOUS
10
8.04134
20
-4.22638
11
8.04621
21
-4.22715
0
LINE
8
BLACK
6
CONTINUOUS
10
8.18705
20
-4.15435
11
8.19439
21
-4.15662
0
LINE
8
BLACK
6
CONTINUOUS
10
8.19439
20
-4.15662
11
8.20115
21
-4.16027
0
LINE
8
BLACK
6
CONTINUOUS
10
8.20115
20
-4.16027
11
8.20707
21
-4.16517
0
LINE
8
BLACK
6
CONTINUOUS
10
8.20707
20
-4.16517
11
8.21193
21
-4.17113
0
LINE
8
BLACK
6
CONTINUOUS
10
8.21193
20
-4.17113
11
8.21553
21
-4.17791
0
LINE
8
BLACK
6
CONTINUOUS
10
8.21553
20
-4.17791
11
8.21775
21
-4.18527
0
LINE
8
BLACK
6
CONTINUOUS
10
8.21775
20
-4.18527
11
8.2185
21
-4.19291
0
LINE
8
BLACK
6
CONTINUOUS
10
8.2185
20
-4.19291
11
8.21849
21
-4.19401
0
LINE
8
BLACK
6
CONTINUOUS
10
8.21849
20
-4.19401
11
8.21753
21
-4.20164
0
LINE
8
BLACK
6
CONTINUOUS
10
8.21753
20
-4.20164
11
8.2151
21
-4.20893
0
LINE
8
BLACK
6
CONTINUOUS
10
8.2151
20
-4.20893
11
8.2113
21
-4.21561
0
LINE
8
BLACK
6
CONTINUOUS
10
8.2113
20
-4.21561
11
8.21014
21
-4.21696
0
LINE
8
BLACK
6
CONTINUOUS
10
8.21014
20
-4.21696
11
8.35394
21
-4.36076
0
LINE
8
BLACK
6
CONTINUOUS
10
8.35394
20
-4.36076
11
8.35394
21
-4.35039
0
LINE
8
BLACK
6
CONTINUOUS
10
8.35394
20
-4.35039
11
8.3544
21
-4.34617
0
LINE
8
BLACK
6
CONTINUOUS
10
8.3544
20
-4.34617
11
8.35636
21
-4.34094
0
LINE
8
BLACK
6
CONTINUOUS
10
8.35636
20
-4.34094
11
8.3597
21
-4.33647
0
LINE
8
BLACK
6
CONTINUOUS
10
8.3597
20
-4.33647
11
8.36417
21
-4.33313
0
LINE
8
BLACK
6
CONTINUOUS
10
8.36417
20
-4.33313
11
8.36939
21
-4.33117
0
LINE
8
BLACK
6
CONTINUOUS
10
8.36939
20
-4.33117
11
8.37362
21
-4.33071
0
LINE
8
BLACK
6
CONTINUOUS
10
8.37362
20
-4.33071
11
8.41299
21
-4.33071
0
LINE
8
BLACK
6
CONTINUOUS
10
8.41299
20
-4.33071
11
8.41722
21
-4.33117
0
LINE
8
BLACK
6
CONTINUOUS
10
8.41722
20
-4.33117
11
8.42245
21
-4.33313
0
LINE
8
BLACK
6
CONTINUOUS
10
8.42245
20
-4.33313
11
8.42691
21
-4.33647
0
LINE
8
BLACK
6
CONTINUOUS
10
8.42691
20
-4.33647
11
8.43026
21
-4.34094
0
LINE
8
BLACK
6
CONTINUOUS
10
8.43026
20
-4.34094
11
8.43222
21
-4.34617
0
LINE
8
BLACK
6
CONTINUOUS
10
8.43222
20
-4.34617
11
8.43268
21
-4.35039
0
LINE
8
BLACK
6
CONTINUOUS
10
8.43268
20
-4.35039
11
8.43268
21
-4.36516
0
LINE
8
BLACK
6
CONTINUOUS
10
8.43268
20
-4.36516
11
8.65394
21
-4.36516
0
LINE
8
BLACK
6
CONTINUOUS
10
8.65394
20
-4.36516
11
8.65394
21
-4.35039
0
LINE
8
BLACK
6
CONTINUOUS
10
8.65394
20
-4.35039
11
8.6544
21
-4.34617
0
LINE
8
BLACK
6
CONTINUOUS
10
8.6544
20
-4.34617
11
8.65636
21
-4.34094
0
LINE
8
BLACK
6
CONTINUOUS
10
8.65636
20
-4.34094
11
8.6597
21
-4.33647
0
LINE
8
BLACK
6
CONTINUOUS
10
8.6597
20
-4.33647
11
8.66417
21
-4.33313
0
LINE
8
BLACK
6
CONTINUOUS
10
8.66417
20
-4.33313
11
8.66939
21
-4.33117
0
LINE
8
BLACK
6
CONTINUOUS
10
8.66939
20
-4.33117
11
8.67362
21
-4.33071
0
LINE
8
BLACK
6
CONTINUOUS
10
8.67362
20
-4.33071
11
8.71299
21
-4.33071
0
LINE
8
BLACK
6
CONTINUOUS
10
8.71299
20
-4.33071
11
8.71722
21
-4.33117
0
LINE
8
BLACK
6
CONTINUOUS
10
8.71722
20
-4.33117
11
8.72245
21
-4.33313
0
LINE
8
BLACK
6
CONTINUOUS
10
8.72245
20
-4.33313
11
8.72691
21
-4.33647
0
LINE
8
BLACK
6
CONTINUOUS
10
8.72691
20
-4.33647
11
8.73026
21
-4.34094
0
LINE
8
BLACK
6
CONTINUOUS
10
8.73026
20
-4.34094
11
8.73222
21
-4.34617
0
LINE
8
BLACK
6
CONTINUOUS
10
8.73222
20
-4.34617
11
8.73268
21
-4.35039
0
LINE
8
BLACK
6
CONTINUOUS
10
8.73268
20
-4.35039
11
8.73268
21
-4.38976
0
LINE
8
BLACK
6
CONTINUOUS
10
8.73268
20
-4.38976
11
8.73222
21
-4.39399
0
LINE
8
BLACK
6
CONTINUOUS
10
8.73222
20
-4.39399
11
8.73026
21
-4.39922
0
LINE
8
BLACK
6
CONTINUOUS
10
8.73026
20
-4.39922
11
8.72691
21
-4.40368
0
LINE
8
BLACK
6
CONTINUOUS
10
8.72691
20
-4.40368
11
8.72245
21
-4.40703
0
LINE
8
BLACK
6
CONTINUOUS
10
8.72245
20
-4.40703
11
8.71722
21
-4.40899
0
LINE
8
BLACK
6
CONTINUOUS
10
8.71722
20
-4.40899
11
8.71299
21
-4.40945
0
LINE
8
BLACK
6
CONTINUOUS
10
8.71299
20
-4.40945
11
8.67362
21
-4.40945
0
LINE
8
BLACK
6
CONTINUOUS
10
8.67362
20
-4.40945
11
8.66939
21
-4.40899
0
LINE
8
BLACK
6
CONTINUOUS
10
8.66939
20
-4.40899
11
8.66417
21
-4.40703
0
LINE
8
BLACK
6
CONTINUOUS
10
8.66417
20
-4.40703
11
8.6597
21
-4.40368
0
LINE
8
BLACK
6
CONTINUOUS
10
8.6597
20
-4.40368
11
8.65636
21
-4.39922
0
LINE
8
BLACK
6
CONTINUOUS
10
8.65636
20
-4.39922
11
8.6544
21
-4.39399
0
LINE
8
BLACK
6
CONTINUOUS
10
8.6544
20
-4.39399
11
8.65394
21
-4.38976
0
LINE
8
BLACK
6
CONTINUOUS
10
8.65394
20
-4.38976
11
8.65394
21
-4.375
0
LINE
8
BLACK
6
CONTINUOUS
10
8.65394
20
-4.375
11
8.43268
21
-4.375
0
LINE
8
BLACK
6
CONTINUOUS
10
8.43268
20
-4.375
11
8.43268
21
-4.38976
0
LINE
8
BLACK
6
CONTINUOUS
10
8.43268
20
-4.38976
11
8.43222
21
-4.39399
0
LINE
8
BLACK
6
CONTINUOUS
10
8.43222
20
-4.39399
11
8.43026
21
-4.39922
0
LINE
8
BLACK
6
CONTINUOUS
10
8.43026
20
-4.39922
11
8.42691
21
-4.40368
0
LINE
8
BLACK
6
CONTINUOUS
10
8.42691
20
-4.40368
11
8.42245
21
-4.40703
0
LINE
8
BLACK
6
CONTINUOUS
10
8.42245
20
-4.40703
11
8.41722
21
-4.40899
0
LINE
8
BLACK
6
CONTINUOUS
10
8.41722
20
-4.40899
11
8.41299
21
-4.40945
0
LINE
8
BLACK
6
CONTINUOUS
10
8.41299
20
-4.40945
11
8.37362
21
-4.40945
0
LINE
8
BLACK
6
CONTINUOUS
10
8.37362
20
-4.40945
11
8.36939
21
-4.40899
0
LINE
8
BLACK
6
CONTINUOUS
10
8.36939
20
-4.40899
11
8.36417
21
-4.40703
0
LINE
8
BLACK
6
CONTINUOUS
10
8.36417
20
-4.40703
11
8.3597
21
-4.40368
0
LINE
8
BLACK
6
CONTINUOUS
10
8.3597
20
-4.40368
11
8.35636
21
-4.39922
0
LINE
8
BLACK
6
CONTINUOUS
10
8.35636
20
-4.39922
11
8.3544
21
-4.39399
0
LINE
8
BLACK
6
CONTINUOUS
10
8.3544
20
-4.39399
11
8.35394
21
-4.38976
0
LINE
8
BLACK
6
CONTINUOUS
10
8.35394
20
-4.38976
11
8.35394
21
-4.37417
0
LINE
8
BLACK
6
CONTINUOUS
10
8.35394
20
-4.37417
11
8.35388
21
-4.37414
0
LINE
8
BLACK
6
CONTINUOUS
10
8.35388
20
-4.37414
11
8.35282
21
-4.37356
0
LINE
8
BLACK
6
CONTINUOUS
10
8.35282
20
-4.37356
11
8.20314
21
-4.22388
0
LINE
8
BLACK
6
CONTINUOUS
10
8.20314
20
-4.22388
11
8.20023
21
-4.22615
0
LINE
8
BLACK
6
CONTINUOUS
10
8.20023
20
-4.22615
11
8.19337
21
-4.22962
0
LINE
8
BLACK
6
CONTINUOUS
10
8.19337
20
-4.22962
11
8.18597
21
-4.23169
0
LINE
8
BLACK
6
CONTINUOUS
10
8.18597
20
-4.23169
11
8.17831
21
-4.23227
0
LINE
8
BLACK
6
CONTINUOUS
10
8.17831
20
-4.23227
11
8.17068
21
-4.23137
0
LINE
8
BLACK
6
CONTINUOUS
10
8.17068
20
-4.23137
11
8.16337
21
-4.22899
0
LINE
8
BLACK
6
CONTINUOUS
10
8.16337
20
-4.22899
11
8.15666
21
-4.22524
0
LINE
8
BLACK
6
CONTINUOUS
10
8.15666
20
-4.22524
11
8.15081
21
-4.22026
0
LINE
8
BLACK
6
CONTINUOUS
10
8.15081
20
-4.22026
11
8.14604
21
-4.21424
0
LINE
8
BLACK
6
CONTINUOUS
10
8.14604
20
-4.21424
11
8.14253
21
-4.20741
0
LINE
8
BLACK
6
CONTINUOUS
10
8.14253
20
-4.20741
11
8.14041
21
-4.20002
0
LINE
8
BLACK
6
CONTINUOUS
10
8.14041
20
-4.20002
11
8.13977
21
-4.19236
0
LINE
8
BLACK
6
CONTINUOUS
10
8.13977
20
-4.19236
11
8.14062
21
-4.18473
0
LINE
8
BLACK
6
CONTINUOUS
10
8.14062
20
-4.18473
11
8.14295
21
-4.1774
0
LINE
8
BLACK
6
CONTINUOUS
10
8.14295
20
-4.1774
11
8.14665
21
-4.17067
0
LINE
8
BLACK
6
CONTINUOUS
10
8.14665
20
-4.17067
11
8.15159
21
-4.16478
0
LINE
8
BLACK
6
CONTINUOUS
10
8.15159
20
-4.16478
11
8.15758
21
-4.15997
0
LINE
8
BLACK
6
CONTINUOUS
10
8.15758
20
-4.15997
11
8.16439
21
-4.15641
0
LINE
8
BLACK
6
CONTINUOUS
10
8.16439
20
-4.15641
11
8.17176
21
-4.15424
0
LINE
8
BLACK
6
CONTINUOUS
10
8.17176
20
-4.15424
11
8.17941
21
-4.15354
0
LINE
8
BLACK
6
CONTINUOUS
10
8.17941
20
-4.15354
11
8.18705
21
-4.15435
0
LINE
8
BLACK
6
CONTINUOUS
10
8.43268
20
-4.30945
11
8.35394
21
-4.30945
0
LINE
8
BLACK
6
CONTINUOUS
10
8.35394
20
-4.30945
11
8.35394
21
-4.23071
0
LINE
8
BLACK
6
CONTINUOUS
10
8.35394
20
-4.23071
11
8.43268
21
-4.23071
0
LINE
8
BLACK
6
CONTINUOUS
10
8.43268
20
-4.23071
11
8.43268
21
-4.30945
0
LINE
8
BLACK
6
CONTINUOUS
10
8.71722
20
-4.23117
11
8.72245
21
-4.23313
0
LINE
8
BLACK
6
CONTINUOUS
10
8.72245
20
-4.23313
11
8.72691
21
-4.23647
0
LINE
8
BLACK
6
CONTINUOUS
10
8.72691
20
-4.23647
11
8.73026
21
-4.24094
0
LINE
8
BLACK
6
CONTINUOUS
10
8.73026
20
-4.24094
11
8.73222
21
-4.24617
0
LINE
8
BLACK
6
CONTINUOUS
10
8.73222
20
-4.24617
11
8.73268
21
-4.25039
0
LINE
8
BLACK
6
CONTINUOUS
10
8.73268
20
-4.25039
11
8.73268
21
-4.28976
0
LINE
8
BLACK
6
CONTINUOUS
10
8.73268
20
-4.28976
11
8.73222
21
-4.29399
0
LINE
8
BLACK
6
CONTINUOUS
10
8.73222
20
-4.29399
11
8.73026
21
-4.29922
0
LINE
8
BLACK
6
CONTINUOUS
10
8.73026
20
-4.29922
11
8.72691
21
-4.30368
0
LINE
8
BLACK
6
CONTINUOUS
10
8.72691
20
-4.30368
11
8.72245
21
-4.30703
0
LINE
8
BLACK
6
CONTINUOUS
10
8.72245
20
-4.30703
11
8.71722
21
-4.30899
0
LINE
8
BLACK
6
CONTINUOUS
10
8.71722
20
-4.30899
11
8.71299
21
-4.30945
0
LINE
8
BLACK
6
CONTINUOUS
10
8.71299
20
-4.30945
11
8.67362
21
-4.30945
0
LINE
8
BLACK
6
CONTINUOUS
10
8.67362
20
-4.30945
11
8.66939
21
-4.30899
0
LINE
8
BLACK
6
CONTINUOUS
10
8.66939
20
-4.30899
11
8.66417
21
-4.30703
0
LINE
8
BLACK
6
CONTINUOUS
10
8.66417
20
-4.30703
11
8.6597
21
-4.30368
0
LINE
8
BLACK
6
CONTINUOUS
10
8.6597
20
-4.30368
11
8.65636
21
-4.29922
0
LINE
8
BLACK
6
CONTINUOUS
10
8.65636
20
-4.29922
11
8.6544
21
-4.29399
0
LINE
8
BLACK
6
CONTINUOUS
10
8.6544
20
-4.29399
11
8.65394
21
-4.28976
0
LINE
8
BLACK
6
CONTINUOUS
10
8.65394
20
-4.28976
11
8.65394
21
-4.25039
0
LINE
8
BLACK
6
CONTINUOUS
10
8.65394
20
-4.25039
11
8.6544
21
-4.24617
0
LINE
8
BLACK
6
CONTINUOUS
10
8.6544
20
-4.24617
11
8.65636
21
-4.24094
0
LINE
8
BLACK
6
CONTINUOUS
10
8.65636
20
-4.24094
11
8.6597
21
-4.23647
0
LINE
8
BLACK
6
CONTINUOUS
10
8.6597
20
-4.23647
11
8.66417
21
-4.23313
0
LINE
8
BLACK
6
CONTINUOUS
10
8.66417
20
-4.23313
11
8.66939
21
-4.23117
0
LINE
8
BLACK
6
CONTINUOUS
10
8.66939
20
-4.23117
11
8.67362
21
-4.23071
0
LINE
8
BLACK
6
CONTINUOUS
10
8.67362
20
-4.23071
11
8.71299
21
-4.23071
0
LINE
8
BLACK
6
CONTINUOUS
10
8.71299
20
-4.23071
11
8.71722
21
-4.23117
0
LINE
8
BLACK
6
CONTINUOUS
10
8.79252
20
-4.69882
11
8.72559
21
-4.69882
0
LINE
8
BLACK
6
CONTINUOUS
10
8.72559
20
-4.69882
11
8.72559
21
-4.63189
0
LINE
8
BLACK
6
CONTINUOUS
10
8.72559
20
-4.63189
11
8.79252
21
-4.63189
0
LINE
8
BLACK
6
CONTINUOUS
10
8.79252
20
-4.63189
11
8.79252
21
-4.69882
0
CIRCLE
8
BLACK
10
7.74606
20
-4.13386
40
0.00787402
0
CIRCLE
8
BLACK
10
7.74606
20
-4.01575
40
0.00787402
0
CIRCLE
8
BLACK
10
7.74606
20
-4.0748
40
0.00787402
0
CIRCLE
8
BLACK
10
7.90354
20
-4.20276
40
0.00787402
0
CIRCLE
8
BLACK
10
8.04134
20
-4.24213
40
0.00787402
  0
ENDSEC
  0
EOF
