  0
SECTION
  2
HEADER
  9
$ANGBASE
  50
0.0
  9
$ANGDIR
  70
1
  9
$MEASUREMENT
  70
0
  0
ENDSEC
  0
SECTION
  2
TABLES
  0
TABLE
  2
LTYPE
  70
4
  0
LTYPE
  5
40F
  2
CONTINUOUS
  70
0
  3
Solid line
  72
65
  73
0
  40
0.0
  0
LTYPE
  5
410
  2
DASHDOT
 70
0
  3
Dash Dot ____ _ ____ _
 72
65
 73
4
 40
2.0
 49
1.25
 49
-0.25
 49
0.25
 49
-0.25
  0
LTYPE
  5
411
  2
DASHED
 70
0
  3
Dashed __ __ __ __ __
 72
65
 73
2
 40
0.75
 49
0.5
 49
-0.25
  0
LTYPE
  5
43B
  2
DOTTED
 70
0
  3
Dotted .  .  .  .
 72
65
 73
2
 40
0.2
 49
0.0
 49
-0.2
  0
ENDTAB
  0
TABLE
  2
STYLE
  70
4
  0
STYLE
  2
KICAD
  70
0
  40
0
  41
1
  42
1
  50
0
  71
0
  3
isocp.shx
  0
STYLE
  2
KICADB
  70
0
  40
0
  41
1
  42
1
  50
0
  71
0
  3
isocp.shx
  0
STYLE
  2
KICADI
  70
0
  40
0
  41
1
  42
1
  50
15
  71
0
  3
isocp.shx
  0
STYLE
  2
KICADBI
  70
0
  40
0
  41
1
  42
1
  50
15
  71
0
  3
isocp.shx
  0
ENDTAB
  0
TABLE
  2
LAYER
  70
1
  0
LAYER
  2
BLACK
  70
0
  62
7
  6
CONTINUOUS
  0
ENDTAB
  0
ENDSEC
  0
SECTION
  2
ENTITIES
0
LINE
8
BLACK
6
CONTINUOUS
10
7.19432
20
-4.76408
11
7.18409
21
-4.76205
0
LINE
8
BLACK
6
CONTINUOUS
10
7.18409
20
-4.76205
11
7.17422
21
-4.7587
0
LINE
8
BLACK
6
CONTINUOUS
10
7.17422
20
-4.7587
11
7.16486
21
-4.75408
0
LINE
8
BLACK
6
CONTINUOUS
10
7.16486
20
-4.75408
11
7.15619
21
-4.74829
0
LINE
8
BLACK
6
CONTINUOUS
10
7.15619
20
-4.74829
11
7.14835
21
-4.74141
0
LINE
8
BLACK
6
CONTINUOUS
10
7.14835
20
-4.74141
11
7.14147
21
-4.73357
0
LINE
8
BLACK
6
CONTINUOUS
10
7.14147
20
-4.73357
11
7.13568
21
-4.7249
0
LINE
8
BLACK
6
CONTINUOUS
10
7.13568
20
-4.7249
11
7.13107
21
-4.71555
0
LINE
8
BLACK
6
CONTINUOUS
10
7.13107
20
-4.71555
11
7.12772
21
-4.70567
0
LINE
8
BLACK
6
CONTINUOUS
10
7.12772
20
-4.70567
11
7.12568
21
-4.69545
0
LINE
8
BLACK
6
CONTINUOUS
10
7.12568
20
-4.69545
11
7.125
21
-4.68504
0
LINE
8
BLACK
6
CONTINUOUS
10
7.125
20
-4.68504
11
7.125
21
-4.05512
0
LINE
8
BLACK
6
CONTINUOUS
10
7.125
20
-4.05512
11
7.12568
21
-4.04471
0
LINE
8
BLACK
6
CONTINUOUS
10
7.12568
20
-4.04471
11
7.12772
21
-4.03448
0
LINE
8
BLACK
6
CONTINUOUS
10
7.12772
20
-4.03448
11
7.13107
21
-4.02461
0
LINE
8
BLACK
6
CONTINUOUS
10
7.13107
20
-4.02461
11
7.13568
21
-4.01526
0
LINE
8
BLACK
6
CONTINUOUS
10
7.13568
20
-4.01526
11
7.14147
21
-4.00658
0
LINE
8
BLACK
6
CONTINUOUS
10
7.14147
20
-4.00658
11
7.14835
21
-3.99874
0
LINE
8
BLACK
6
CONTINUOUS
10
7.14835
20
-3.99874
11
7.15619
21
-3.99187
0
LINE
8
BLACK
6
CONTINUOUS
10
7.15619
20
-3.99187
11
7.16486
21
-3.98607
0
LINE
8
BLACK
6
CONTINUOUS
10
7.16486
20
-3.98607
11
7.17422
21
-3.98146
0
LINE
8
BLACK
6
CONTINUOUS
10
7.17422
20
-3.98146
11
7.18409
21
-3.97811
0
LINE
8
BLACK
6
CONTINUOUS
10
7.18409
20
-3.97811
11
7.19432
21
-3.97608
0
LINE
8
BLACK
6
CONTINUOUS
10
7.19432
20
-3.97608
11
7.20472
21
-3.97539
0
LINE
8
BLACK
6
CONTINUOUS
10
7.20472
20
-3.97539
11
8.93701
21
-3.97539
0
LINE
8
BLACK
6
CONTINUOUS
10
8.93701
20
-3.97539
11
8.94741
21
-3.97608
0
LINE
8
BLACK
6
CONTINUOUS
10
8.94741
20
-3.97608
11
8.95764
21
-3.97811
0
LINE
8
BLACK
6
CONTINUOUS
10
8.95764
20
-3.97811
11
8.96752
21
-3.98146
0
LINE
8
BLACK
6
CONTINUOUS
10
8.96752
20
-3.98146
11
8.97687
21
-3.98607
0
LINE
8
BLACK
6
CONTINUOUS
10
8.97687
20
-3.98607
11
8.98554
21
-3.99187
0
LINE
8
BLACK
6
CONTINUOUS
10
8.98554
20
-3.99187
11
8.99338
21
-3.99874
0
LINE
8
BLACK
6
CONTINUOUS
10
8.99338
20
-3.99874
11
9.00026
21
-4.00658
0
LINE
8
BLACK
6
CONTINUOUS
10
9.00026
20
-4.00658
11
9.00605
21
-4.01526
0
LINE
8
BLACK
6
CONTINUOUS
10
9.00605
20
-4.01526
11
9.01066
21
-4.02461
0
LINE
8
BLACK
6
CONTINUOUS
10
9.01066
20
-4.02461
11
9.01402
21
-4.03448
0
LINE
8
BLACK
6
CONTINUOUS
10
9.01402
20
-4.03448
11
9.01605
21
-4.04471
0
LINE
8
BLACK
6
CONTINUOUS
10
9.01605
20
-4.04471
11
9.01673
21
-4.05512
0
LINE
8
BLACK
6
CONTINUOUS
10
9.01673
20
-4.05512
11
9.01673
21
-4.68504
0
LINE
8
BLACK
6
CONTINUOUS
10
9.01673
20
-4.68504
11
9.01605
21
-4.69545
0
LINE
8
BLACK
6
CONTINUOUS
10
9.01605
20
-4.69545
11
9.01402
21
-4.70567
0
LINE
8
BLACK
6
CONTINUOUS
10
9.01402
20
-4.70567
11
9.01066
21
-4.71555
0
LINE
8
BLACK
6
CONTINUOUS
10
9.01066
20
-4.71555
11
9.00605
21
-4.7249
0
LINE
8
BLACK
6
CONTINUOUS
10
9.00605
20
-4.7249
11
9.00026
21
-4.73357
0
LINE
8
BLACK
6
CONTINUOUS
10
9.00026
20
-4.73357
11
8.99338
21
-4.74141
0
LINE
8
BLACK
6
CONTINUOUS
10
8.99338
20
-4.74141
11
8.98554
21
-4.74829
0
LINE
8
BLACK
6
CONTINUOUS
10
8.98554
20
-4.74829
11
8.97687
21
-4.75408
0
LINE
8
BLACK
6
CONTINUOUS
10
8.97687
20
-4.75408
11
8.96752
21
-4.7587
0
LINE
8
BLACK
6
CONTINUOUS
10
8.96752
20
-4.7587
11
8.95764
21
-4.76205
0
LINE
8
BLACK
6
CONTINUOUS
10
8.95764
20
-4.76205
11
8.94741
21
-4.76408
0
LINE
8
BLACK
6
CONTINUOUS
10
8.94741
20
-4.76408
11
8.93701
21
-4.76476
0
LINE
8
BLACK
6
CONTINUOUS
10
8.93701
20
-4.76476
11
7.20472
21
-4.76476
0
LINE
8
BLACK
6
CONTINUOUS
10
7.20472
20
-4.76476
11
7.19432
21
-4.76408
0
LINE
8
BLACK
6
CONTINUOUS
10
7.20438
20
-3.97722
11
7.19455
21
-3.97786
0
LINE
8
BLACK
6
CONTINUOUS
10
7.19455
20
-3.97786
11
7.18456
21
-3.97985
0
LINE
8
BLACK
6
CONTINUOUS
10
7.18456
20
-3.97985
11
7.1749
21
-3.98313
0
LINE
8
BLACK
6
CONTINUOUS
10
7.1749
20
-3.98313
11
7.16576
21
-3.98764
0
LINE
8
BLACK
6
CONTINUOUS
10
7.16576
20
-3.98764
11
7.15729
21
-3.9933
0
LINE
8
BLACK
6
CONTINUOUS
10
7.15729
20
-3.9933
11
7.14962
21
-4.00002
0
LINE
8
BLACK
6
CONTINUOUS
10
7.14962
20
-4.00002
11
7.1429
21
-4.00768
0
LINE
8
BLACK
6
CONTINUOUS
10
7.1429
20
-4.00768
11
7.13724
21
-4.01616
0
LINE
8
BLACK
6
CONTINUOUS
10
7.13724
20
-4.01616
11
7.13273
21
-4.0253
0
LINE
8
BLACK
6
CONTINUOUS
10
7.13273
20
-4.0253
11
7.12946
21
-4.03495
0
LINE
8
BLACK
6
CONTINUOUS
10
7.12946
20
-4.03495
11
7.12747
21
-4.04495
0
LINE
8
BLACK
6
CONTINUOUS
10
7.12747
20
-4.04495
11
7.12682
21
-4.05477
0
LINE
8
BLACK
6
CONTINUOUS
10
7.12682
20
-4.05477
11
7.12697
21
-4.05512
0
LINE
8
BLACK
6
CONTINUOUS
10
7.12697
20
-4.05512
11
7.12697
21
-4.68504
0
LINE
8
BLACK
6
CONTINUOUS
10
7.12697
20
-4.68504
11
7.12682
21
-4.68539
0
LINE
8
BLACK
6
CONTINUOUS
10
7.12682
20
-4.68539
11
7.12747
21
-4.69521
0
LINE
8
BLACK
6
CONTINUOUS
10
7.12747
20
-4.69521
11
7.12946
21
-4.70521
0
LINE
8
BLACK
6
CONTINUOUS
10
7.12946
20
-4.70521
11
7.13273
21
-4.71486
0
LINE
8
BLACK
6
CONTINUOUS
10
7.13273
20
-4.71486
11
7.13724
21
-4.724
0
LINE
8
BLACK
6
CONTINUOUS
10
7.13724
20
-4.724
11
7.1429
21
-4.73248
0
LINE
8
BLACK
6
CONTINUOUS
10
7.1429
20
-4.73248
11
7.14962
21
-4.74014
0
LINE
8
BLACK
6
CONTINUOUS
10
7.14962
20
-4.74014
11
7.15729
21
-4.74686
0
LINE
8
BLACK
6
CONTINUOUS
10
7.15729
20
-4.74686
11
7.16576
21
-4.75252
0
LINE
8
BLACK
6
CONTINUOUS
10
7.16576
20
-4.75252
11
7.1749
21
-4.75703
0
LINE
8
BLACK
6
CONTINUOUS
10
7.1749
20
-4.75703
11
7.18456
21
-4.76031
0
LINE
8
BLACK
6
CONTINUOUS
10
7.18456
20
-4.76031
11
7.19455
21
-4.7623
0
LINE
8
BLACK
6
CONTINUOUS
10
7.19455
20
-4.7623
11
7.20438
21
-4.76294
0
LINE
8
BLACK
6
CONTINUOUS
10
7.20438
20
-4.76294
11
7.20472
21
-4.7628
0
LINE
8
BLACK
6
CONTINUOUS
10
7.20472
20
-4.7628
11
8.93701
21
-4.7628
0
LINE
8
BLACK
6
CONTINUOUS
10
8.93701
20
-4.7628
11
8.93736
21
-4.76294
0
LINE
8
BLACK
6
CONTINUOUS
10
8.93736
20
-4.76294
11
8.94718
21
-4.7623
0
LINE
8
BLACK
6
CONTINUOUS
10
8.94718
20
-4.7623
11
8.95718
21
-4.76031
0
LINE
8
BLACK
6
CONTINUOUS
10
8.95718
20
-4.76031
11
8.96683
21
-4.75703
0
LINE
8
BLACK
6
CONTINUOUS
10
8.96683
20
-4.75703
11
8.97597
21
-4.75252
0
LINE
8
BLACK
6
CONTINUOUS
10
8.97597
20
-4.75252
11
8.98444
21
-4.74686
0
LINE
8
BLACK
6
CONTINUOUS
10
8.98444
20
-4.74686
11
8.99211
21
-4.74014
0
LINE
8
BLACK
6
CONTINUOUS
10
8.99211
20
-4.74014
11
8.99883
21
-4.73248
0
LINE
8
BLACK
6
CONTINUOUS
10
8.99883
20
-4.73248
11
9.00449
21
-4.724
0
LINE
8
BLACK
6
CONTINUOUS
10
9.00449
20
-4.724
11
9.009
21
-4.71486
0
LINE
8
BLACK
6
CONTINUOUS
10
9.009
20
-4.71486
11
9.01228
21
-4.70521
0
LINE
8
BLACK
6
CONTINUOUS
10
9.01228
20
-4.70521
11
9.01426
21
-4.69521
0
LINE
8
BLACK
6
CONTINUOUS
10
9.01426
20
-4.69521
11
9.01491
21
-4.68539
0
LINE
8
BLACK
6
CONTINUOUS
10
9.01491
20
-4.68539
11
9.01476
21
-4.68504
0
LINE
8
BLACK
6
CONTINUOUS
10
9.01476
20
-4.68504
11
9.01476
21
-4.05512
0
LINE
8
BLACK
6
CONTINUOUS
10
9.01476
20
-4.05512
11
9.01491
21
-4.05477
0
LINE
8
BLACK
6
CONTINUOUS
10
9.01491
20
-4.05477
11
9.01426
21
-4.04495
0
LINE
8
BLACK
6
CONTINUOUS
10
9.01426
20
-4.04495
11
9.01228
21
-4.03495
0
LINE
8
BLACK
6
CONTINUOUS
10
9.01228
20
-4.03495
11
9.009
21
-4.0253
0
LINE
8
BLACK
6
CONTINUOUS
10
9.009
20
-4.0253
11
9.00449
21
-4.01616
0
LINE
8
BLACK
6
CONTINUOUS
10
9.00449
20
-4.01616
11
8.99883
21
-4.00768
0
LINE
8
BLACK
6
CONTINUOUS
10
8.99883
20
-4.00768
11
8.99211
21
-4.00002
0
LINE
8
BLACK
6
CONTINUOUS
10
8.99211
20
-4.00002
11
8.98444
21
-3.9933
0
LINE
8
BLACK
6
CONTINUOUS
10
8.98444
20
-3.9933
11
8.97597
21
-3.98764
0
LINE
8
BLACK
6
CONTINUOUS
10
8.97597
20
-3.98764
11
8.96683
21
-3.98313
0
LINE
8
BLACK
6
CONTINUOUS
10
8.96683
20
-3.98313
11
8.95718
21
-3.97985
0
LINE
8
BLACK
6
CONTINUOUS
10
8.95718
20
-3.97985
11
8.94718
21
-3.97786
0
LINE
8
BLACK
6
CONTINUOUS
10
8.94718
20
-3.97786
11
8.93736
21
-3.97722
0
LINE
8
BLACK
6
CONTINUOUS
10
8.93736
20
-3.97722
11
8.93701
21
-3.97736
0
LINE
8
BLACK
6
CONTINUOUS
10
8.93701
20
-3.97736
11
7.20472
21
-3.97736
0
LINE
8
BLACK
6
CONTINUOUS
10
7.20472
20
-3.97736
11
7.20438
21
-3.97722
  0
ENDSEC
  0
EOF
