  0
SECTION
  2
HEADER
  9
$ANGBASE
  50
0.0
  9
$ANGDIR
  70
1
  9
$MEASUREMENT
  70
0
  0
ENDSEC
  0
SECTION
  2
TABLES
  0
TABLE
  2
LTYPE
  70
4
  0
LTYPE
  5
40F
  2
CONTINUOUS
  70
0
  3
Solid line
  72
65
  73
0
  40
0.0
  0
LTYPE
  5
410
  2
DASHDOT
 70
0
  3
Dash Dot ____ _ ____ _
 72
65
 73
4
 40
2.0
 49
1.25
 49
-0.25
 49
0.25
 49
-0.25
  0
LTYPE
  5
411
  2
DASHED
 70
0
  3
Dashed __ __ __ __ __
 72
65
 73
2
 40
0.75
 49
0.5
 49
-0.25
  0
LTYPE
  5
43B
  2
DOTTED
 70
0
  3
Dotted .  .  .  .
 72
65
 73
2
 40
0.2
 49
0.0
 49
-0.2
  0
ENDTAB
  0
TABLE
  2
STYLE
  70
4
  0
STYLE
  2
KICAD
  70
0
  40
0
  41
1
  42
1
  50
0
  71
0
  3
isocp.shx
  0
STYLE
  2
KICADB
  70
0
  40
0
  41
1
  42
1
  50
0
  71
0
  3
isocp.shx
  0
STYLE
  2
KICADI
  70
0
  40
0
  41
1
  42
1
  50
15
  71
0
  3
isocp.shx
  0
STYLE
  2
KICADBI
  70
0
  40
0
  41
1
  42
1
  50
15
  71
0
  3
isocp.shx
  0
ENDTAB
  0
TABLE
  2
LAYER
  70
1
  0
LAYER
  2
BLACK
  70
0
  62
7
  6
CONTINUOUS
  0
ENDTAB
  0
ENDSEC
  0
SECTION
  2
ENTITIES
0
LINE
8
BLACK
6
CONTINUOUS
10
7.51459
20
-4.67595
11
7.51779
21
-4.67808
0
LINE
8
BLACK
6
CONTINUOUS
10
7.51779
20
-4.67808
11
7.51992
21
-4.68127
0
LINE
8
BLACK
6
CONTINUOUS
10
7.51992
20
-4.68127
11
7.52067
21
-4.68504
0
LINE
8
BLACK
6
CONTINUOUS
10
7.52067
20
-4.68504
11
7.52067
21
-4.70472
0
LINE
8
BLACK
6
CONTINUOUS
10
7.52067
20
-4.70472
11
7.51992
21
-4.70849
0
LINE
8
BLACK
6
CONTINUOUS
10
7.51992
20
-4.70849
11
7.51779
21
-4.71168
0
LINE
8
BLACK
6
CONTINUOUS
10
7.51779
20
-4.71168
11
7.51459
21
-4.71382
0
LINE
8
BLACK
6
CONTINUOUS
10
7.51459
20
-4.71382
11
7.51083
21
-4.71457
0
LINE
8
BLACK
6
CONTINUOUS
10
7.51083
20
-4.71457
11
7.47343
21
-4.71457
0
LINE
8
BLACK
6
CONTINUOUS
10
7.47343
20
-4.71457
11
7.46966
21
-4.71382
0
LINE
8
BLACK
6
CONTINUOUS
10
7.46966
20
-4.71382
11
7.46647
21
-4.71168
0
LINE
8
BLACK
6
CONTINUOUS
10
7.46647
20
-4.71168
11
7.46433
21
-4.70849
0
LINE
8
BLACK
6
CONTINUOUS
10
7.46433
20
-4.70849
11
7.46358
21
-4.70472
0
LINE
8
BLACK
6
CONTINUOUS
10
7.46358
20
-4.70472
11
7.46358
21
-4.68504
0
LINE
8
BLACK
6
CONTINUOUS
10
7.46358
20
-4.68504
11
7.46433
21
-4.68127
0
LINE
8
BLACK
6
CONTINUOUS
10
7.46433
20
-4.68127
11
7.46647
21
-4.67808
0
LINE
8
BLACK
6
CONTINUOUS
10
7.46647
20
-4.67808
11
7.46966
21
-4.67595
0
LINE
8
BLACK
6
CONTINUOUS
10
7.46966
20
-4.67595
11
7.47343
21
-4.6752
0
LINE
8
BLACK
6
CONTINUOUS
10
7.47343
20
-4.6752
11
7.51083
21
-4.6752
0
LINE
8
BLACK
6
CONTINUOUS
10
7.51083
20
-4.6752
11
7.51459
21
-4.67595
0
LINE
8
BLACK
6
CONTINUOUS
10
7.59478
20
-4.68352
11
7.5967
21
-4.6848
0
LINE
8
BLACK
6
CONTINUOUS
10
7.5967
20
-4.6848
11
7.59798
21
-4.68672
0
LINE
8
BLACK
6
CONTINUOUS
10
7.59798
20
-4.68672
11
7.59843
21
-4.68898
0
LINE
8
BLACK
6
CONTINUOUS
10
7.59843
20
-4.68898
11
7.59843
21
-4.70079
0
LINE
8
BLACK
6
CONTINUOUS
10
7.59843
20
-4.70079
11
7.59798
21
-4.70305
0
LINE
8
BLACK
6
CONTINUOUS
10
7.59798
20
-4.70305
11
7.5967
21
-4.70496
0
LINE
8
BLACK
6
CONTINUOUS
10
7.5967
20
-4.70496
11
7.59478
21
-4.70624
0
LINE
8
BLACK
6
CONTINUOUS
10
7.59478
20
-4.70624
11
7.59252
21
-4.70669
0
LINE
8
BLACK
6
CONTINUOUS
10
7.59252
20
-4.70669
11
7.54626
21
-4.70669
0
LINE
8
BLACK
6
CONTINUOUS
10
7.54626
20
-4.70669
11
7.544
21
-4.70624
0
LINE
8
BLACK
6
CONTINUOUS
10
7.544
20
-4.70624
11
7.54208
21
-4.70496
0
LINE
8
BLACK
6
CONTINUOUS
10
7.54208
20
-4.70496
11
7.5408
21
-4.70305
0
LINE
8
BLACK
6
CONTINUOUS
10
7.5408
20
-4.70305
11
7.54035
21
-4.70079
0
LINE
8
BLACK
6
CONTINUOUS
10
7.54035
20
-4.70079
11
7.54035
21
-4.68898
0
LINE
8
BLACK
6
CONTINUOUS
10
7.54035
20
-4.68898
11
7.5408
21
-4.68672
0
LINE
8
BLACK
6
CONTINUOUS
10
7.5408
20
-4.68672
11
7.54208
21
-4.6848
0
LINE
8
BLACK
6
CONTINUOUS
10
7.54208
20
-4.6848
11
7.544
21
-4.68352
0
LINE
8
BLACK
6
CONTINUOUS
10
7.544
20
-4.68352
11
7.54626
21
-4.68307
0
LINE
8
BLACK
6
CONTINUOUS
10
7.54626
20
-4.68307
11
7.59252
21
-4.68307
0
LINE
8
BLACK
6
CONTINUOUS
10
7.59252
20
-4.68307
11
7.59478
21
-4.68352
0
LINE
8
BLACK
6
CONTINUOUS
10
8.20118
20
-4.69882
11
8.13425
21
-4.69882
0
LINE
8
BLACK
6
CONTINUOUS
10
8.13425
20
-4.69882
11
8.13425
21
-4.63189
0
LINE
8
BLACK
6
CONTINUOUS
10
8.13425
20
-4.63189
11
8.20118
21
-4.63189
0
LINE
8
BLACK
6
CONTINUOUS
10
8.20118
20
-4.63189
11
8.20118
21
-4.69882
0
LINE
8
BLACK
6
CONTINUOUS
10
8.79252
20
-4.69882
11
8.72559
21
-4.69882
0
LINE
8
BLACK
6
CONTINUOUS
10
8.72559
20
-4.69882
11
8.72559
21
-4.63189
0
LINE
8
BLACK
6
CONTINUOUS
10
8.72559
20
-4.63189
11
8.79252
21
-4.63189
0
LINE
8
BLACK
6
CONTINUOUS
10
8.79252
20
-4.63189
11
8.79252
21
-4.69882
0
LINE
8
BLACK
6
CONTINUOUS
10
7.80748
20
-4.69882
11
7.74055
21
-4.69882
0
LINE
8
BLACK
6
CONTINUOUS
10
7.74055
20
-4.69882
11
7.74055
21
-4.63189
0
LINE
8
BLACK
6
CONTINUOUS
10
7.74055
20
-4.63189
11
7.80748
21
-4.63189
0
LINE
8
BLACK
6
CONTINUOUS
10
7.80748
20
-4.63189
11
7.80748
21
-4.69882
0
LINE
8
BLACK
6
CONTINUOUS
10
8.8694
20
-4.63353
11
8.87579
21
-4.63637
0
LINE
8
BLACK
6
CONTINUOUS
10
8.87579
20
-4.63637
11
8.88145
21
-4.64049
0
LINE
8
BLACK
6
CONTINUOUS
10
8.88145
20
-4.64049
11
8.88613
21
-4.64568
0
LINE
8
BLACK
6
CONTINUOUS
10
8.88613
20
-4.64568
11
8.88963
21
-4.65174
0
LINE
8
BLACK
6
CONTINUOUS
10
8.88963
20
-4.65174
11
8.89179
21
-4.6584
0
LINE
8
BLACK
6
CONTINUOUS
10
8.89179
20
-4.6584
11
8.89252
21
-4.66535
0
LINE
8
BLACK
6
CONTINUOUS
10
8.89252
20
-4.66535
11
8.89179
21
-4.67231
0
LINE
8
BLACK
6
CONTINUOUS
10
8.89179
20
-4.67231
11
8.88963
21
-4.67897
0
LINE
8
BLACK
6
CONTINUOUS
10
8.88963
20
-4.67897
11
8.88613
21
-4.68502
0
LINE
8
BLACK
6
CONTINUOUS
10
8.88613
20
-4.68502
11
8.88145
21
-4.69022
0
LINE
8
BLACK
6
CONTINUOUS
10
8.88145
20
-4.69022
11
8.87579
21
-4.69434
0
LINE
8
BLACK
6
CONTINUOUS
10
8.87579
20
-4.69434
11
8.8694
21
-4.69718
0
LINE
8
BLACK
6
CONTINUOUS
10
8.8694
20
-4.69718
11
8.86255
21
-4.69864
0
LINE
8
BLACK
6
CONTINUOUS
10
8.86255
20
-4.69864
11
8.85556
21
-4.69864
0
LINE
8
BLACK
6
CONTINUOUS
10
8.85556
20
-4.69864
11
8.84871
21
-4.69718
0
LINE
8
BLACK
6
CONTINUOUS
10
8.84871
20
-4.69718
11
8.84232
21
-4.69434
0
LINE
8
BLACK
6
CONTINUOUS
10
8.84232
20
-4.69434
11
8.83666
21
-4.69022
0
LINE
8
BLACK
6
CONTINUOUS
10
8.83666
20
-4.69022
11
8.83198
21
-4.68502
0
LINE
8
BLACK
6
CONTINUOUS
10
8.83198
20
-4.68502
11
8.82848
21
-4.67897
0
LINE
8
BLACK
6
CONTINUOUS
10
8.82848
20
-4.67897
11
8.82632
21
-4.67231
0
LINE
8
BLACK
6
CONTINUOUS
10
8.82632
20
-4.67231
11
8.82559
21
-4.66535
0
LINE
8
BLACK
6
CONTINUOUS
10
8.82559
20
-4.66535
11
8.82632
21
-4.6584
0
LINE
8
BLACK
6
CONTINUOUS
10
8.82632
20
-4.6584
11
8.82848
21
-4.65174
0
LINE
8
BLACK
6
CONTINUOUS
10
8.82848
20
-4.65174
11
8.83198
21
-4.64568
0
LINE
8
BLACK
6
CONTINUOUS
10
8.83198
20
-4.64568
11
8.83666
21
-4.64049
0
LINE
8
BLACK
6
CONTINUOUS
10
8.83666
20
-4.64049
11
8.84232
21
-4.63637
0
LINE
8
BLACK
6
CONTINUOUS
10
8.84232
20
-4.63637
11
8.84871
21
-4.63353
0
LINE
8
BLACK
6
CONTINUOUS
10
8.84871
20
-4.63353
11
8.85556
21
-4.63207
0
LINE
8
BLACK
6
CONTINUOUS
10
8.85556
20
-4.63207
11
8.86255
21
-4.63207
0
LINE
8
BLACK
6
CONTINUOUS
10
8.86255
20
-4.63207
11
8.8694
21
-4.63353
0
LINE
8
BLACK
6
CONTINUOUS
10
8.27806
20
-4.63353
11
8.28445
21
-4.63637
0
LINE
8
BLACK
6
CONTINUOUS
10
8.28445
20
-4.63637
11
8.29011
21
-4.64049
0
LINE
8
BLACK
6
CONTINUOUS
10
8.29011
20
-4.64049
11
8.29479
21
-4.64568
0
LINE
8
BLACK
6
CONTINUOUS
10
8.29479
20
-4.64568
11
8.29829
21
-4.65174
0
LINE
8
BLACK
6
CONTINUOUS
10
8.29829
20
-4.65174
11
8.30045
21
-4.6584
0
LINE
8
BLACK
6
CONTINUOUS
10
8.30045
20
-4.6584
11
8.30118
21
-4.66535
0
LINE
8
BLACK
6
CONTINUOUS
10
8.30118
20
-4.66535
11
8.30045
21
-4.67231
0
LINE
8
BLACK
6
CONTINUOUS
10
8.30045
20
-4.67231
11
8.29829
21
-4.67897
0
LINE
8
BLACK
6
CONTINUOUS
10
8.29829
20
-4.67897
11
8.29479
21
-4.68502
0
LINE
8
BLACK
6
CONTINUOUS
10
8.29479
20
-4.68502
11
8.29011
21
-4.69022
0
LINE
8
BLACK
6
CONTINUOUS
10
8.29011
20
-4.69022
11
8.28445
21
-4.69434
0
LINE
8
BLACK
6
CONTINUOUS
10
8.28445
20
-4.69434
11
8.27806
21
-4.69718
0
LINE
8
BLACK
6
CONTINUOUS
10
8.27806
20
-4.69718
11
8.27121
21
-4.69864
0
LINE
8
BLACK
6
CONTINUOUS
10
8.27121
20
-4.69864
11
8.26422
21
-4.69864
0
LINE
8
BLACK
6
CONTINUOUS
10
8.26422
20
-4.69864
11
8.25738
21
-4.69718
0
LINE
8
BLACK
6
CONTINUOUS
10
8.25738
20
-4.69718
11
8.25098
21
-4.69434
0
LINE
8
BLACK
6
CONTINUOUS
10
8.25098
20
-4.69434
11
8.24532
21
-4.69022
0
LINE
8
BLACK
6
CONTINUOUS
10
8.24532
20
-4.69022
11
8.24064
21
-4.68502
0
LINE
8
BLACK
6
CONTINUOUS
10
8.24064
20
-4.68502
11
8.23715
21
-4.67897
0
LINE
8
BLACK
6
CONTINUOUS
10
8.23715
20
-4.67897
11
8.23498
21
-4.67231
0
LINE
8
BLACK
6
CONTINUOUS
10
8.23498
20
-4.67231
11
8.23425
21
-4.66535
0
LINE
8
BLACK
6
CONTINUOUS
10
8.23425
20
-4.66535
11
8.23498
21
-4.6584
0
LINE
8
BLACK
6
CONTINUOUS
10
8.23498
20
-4.6584
11
8.23715
21
-4.65174
0
LINE
8
BLACK
6
CONTINUOUS
10
8.23715
20
-4.65174
11
8.24064
21
-4.64568
0
LINE
8
BLACK
6
CONTINUOUS
10
8.24064
20
-4.64568
11
8.24532
21
-4.64049
0
LINE
8
BLACK
6
CONTINUOUS
10
8.24532
20
-4.64049
11
8.25098
21
-4.63637
0
LINE
8
BLACK
6
CONTINUOUS
10
8.25098
20
-4.63637
11
8.25738
21
-4.63353
0
LINE
8
BLACK
6
CONTINUOUS
10
8.25738
20
-4.63353
11
8.26422
21
-4.63207
0
LINE
8
BLACK
6
CONTINUOUS
10
8.26422
20
-4.63207
11
8.27121
21
-4.63207
0
LINE
8
BLACK
6
CONTINUOUS
10
8.27121
20
-4.63207
11
8.27806
21
-4.63353
0
LINE
8
BLACK
6
CONTINUOUS
10
8.37806
20
-4.63353
11
8.38445
21
-4.63637
0
LINE
8
BLACK
6
CONTINUOUS
10
8.38445
20
-4.63637
11
8.39011
21
-4.64049
0
LINE
8
BLACK
6
CONTINUOUS
10
8.39011
20
-4.64049
11
8.39479
21
-4.64568
0
LINE
8
BLACK
6
CONTINUOUS
10
8.39479
20
-4.64568
11
8.39829
21
-4.65174
0
LINE
8
BLACK
6
CONTINUOUS
10
8.39829
20
-4.65174
11
8.40045
21
-4.6584
0
LINE
8
BLACK
6
CONTINUOUS
10
8.40045
20
-4.6584
11
8.40118
21
-4.66535
0
LINE
8
BLACK
6
CONTINUOUS
10
8.40118
20
-4.66535
11
8.40045
21
-4.67231
0
LINE
8
BLACK
6
CONTINUOUS
10
8.40045
20
-4.67231
11
8.39829
21
-4.67897
0
LINE
8
BLACK
6
CONTINUOUS
10
8.39829
20
-4.67897
11
8.39479
21
-4.68502
0
LINE
8
BLACK
6
CONTINUOUS
10
8.39479
20
-4.68502
11
8.39011
21
-4.69022
0
LINE
8
BLACK
6
CONTINUOUS
10
8.39011
20
-4.69022
11
8.38445
21
-4.69434
0
LINE
8
BLACK
6
CONTINUOUS
10
8.38445
20
-4.69434
11
8.37806
21
-4.69718
0
LINE
8
BLACK
6
CONTINUOUS
10
8.37806
20
-4.69718
11
8.37121
21
-4.69864
0
LINE
8
BLACK
6
CONTINUOUS
10
8.37121
20
-4.69864
11
8.36422
21
-4.69864
0
LINE
8
BLACK
6
CONTINUOUS
10
8.36422
20
-4.69864
11
8.35738
21
-4.69718
0
LINE
8
BLACK
6
CONTINUOUS
10
8.35738
20
-4.69718
11
8.35098
21
-4.69434
0
LINE
8
BLACK
6
CONTINUOUS
10
8.35098
20
-4.69434
11
8.34532
21
-4.69022
0
LINE
8
BLACK
6
CONTINUOUS
10
8.34532
20
-4.69022
11
8.34064
21
-4.68502
0
LINE
8
BLACK
6
CONTINUOUS
10
8.34064
20
-4.68502
11
8.33715
21
-4.67897
0
LINE
8
BLACK
6
CONTINUOUS
10
8.33715
20
-4.67897
11
8.33498
21
-4.67231
0
LINE
8
BLACK
6
CONTINUOUS
10
8.33498
20
-4.67231
11
8.33425
21
-4.66535
0
LINE
8
BLACK
6
CONTINUOUS
10
8.33425
20
-4.66535
11
8.33498
21
-4.6584
0
LINE
8
BLACK
6
CONTINUOUS
10
8.33498
20
-4.6584
11
8.33715
21
-4.65174
0
LINE
8
BLACK
6
CONTINUOUS
10
8.33715
20
-4.65174
11
8.34064
21
-4.64568
0
LINE
8
BLACK
6
CONTINUOUS
10
8.34064
20
-4.64568
11
8.34532
21
-4.64049
0
LINE
8
BLACK
6
CONTINUOUS
10
8.34532
20
-4.64049
11
8.35098
21
-4.63637
0
LINE
8
BLACK
6
CONTINUOUS
10
8.35098
20
-4.63637
11
8.35738
21
-4.63353
0
LINE
8
BLACK
6
CONTINUOUS
10
8.35738
20
-4.63353
11
8.36422
21
-4.63207
0
LINE
8
BLACK
6
CONTINUOUS
10
8.36422
20
-4.63207
11
8.37121
21
-4.63207
0
LINE
8
BLACK
6
CONTINUOUS
10
8.37121
20
-4.63207
11
8.37806
21
-4.63353
0
LINE
8
BLACK
6
CONTINUOUS
10
7.88436
20
-4.63353
11
7.89075
21
-4.63637
0
LINE
8
BLACK
6
CONTINUOUS
10
7.89075
20
-4.63637
11
7.89641
21
-4.64049
0
LINE
8
BLACK
6
CONTINUOUS
10
7.89641
20
-4.64049
11
7.90109
21
-4.64568
0
LINE
8
BLACK
6
CONTINUOUS
10
7.90109
20
-4.64568
11
7.90459
21
-4.65174
0
LINE
8
BLACK
6
CONTINUOUS
10
7.90459
20
-4.65174
11
7.90675
21
-4.6584
0
LINE
8
BLACK
6
CONTINUOUS
10
7.90675
20
-4.6584
11
7.90748
21
-4.66535
0
LINE
8
BLACK
6
CONTINUOUS
10
7.90748
20
-4.66535
11
7.90675
21
-4.67231
0
LINE
8
BLACK
6
CONTINUOUS
10
7.90675
20
-4.67231
11
7.90459
21
-4.67897
0
LINE
8
BLACK
6
CONTINUOUS
10
7.90459
20
-4.67897
11
7.90109
21
-4.68502
0
LINE
8
BLACK
6
CONTINUOUS
10
7.90109
20
-4.68502
11
7.89641
21
-4.69022
0
LINE
8
BLACK
6
CONTINUOUS
10
7.89641
20
-4.69022
11
7.89075
21
-4.69434
0
LINE
8
BLACK
6
CONTINUOUS
10
7.89075
20
-4.69434
11
7.88436
21
-4.69718
0
LINE
8
BLACK
6
CONTINUOUS
10
7.88436
20
-4.69718
11
7.87751
21
-4.69864
0
LINE
8
BLACK
6
CONTINUOUS
10
7.87751
20
-4.69864
11
7.87052
21
-4.69864
0
LINE
8
BLACK
6
CONTINUOUS
10
7.87052
20
-4.69864
11
7.86367
21
-4.69718
0
LINE
8
BLACK
6
CONTINUOUS
10
7.86367
20
-4.69718
11
7.85728
21
-4.69434
0
LINE
8
BLACK
6
CONTINUOUS
10
7.85728
20
-4.69434
11
7.85162
21
-4.69022
0
LINE
8
BLACK
6
CONTINUOUS
10
7.85162
20
-4.69022
11
7.84694
21
-4.68502
0
LINE
8
BLACK
6
CONTINUOUS
10
7.84694
20
-4.68502
11
7.84344
21
-4.67897
0
LINE
8
BLACK
6
CONTINUOUS
10
7.84344
20
-4.67897
11
7.84128
21
-4.67231
0
LINE
8
BLACK
6
CONTINUOUS
10
7.84128
20
-4.67231
11
7.84055
21
-4.66535
0
LINE
8
BLACK
6
CONTINUOUS
10
7.84055
20
-4.66535
11
7.84128
21
-4.6584
0
LINE
8
BLACK
6
CONTINUOUS
10
7.84128
20
-4.6584
11
7.84344
21
-4.65174
0
LINE
8
BLACK
6
CONTINUOUS
10
7.84344
20
-4.65174
11
7.84694
21
-4.64568
0
LINE
8
BLACK
6
CONTINUOUS
10
7.84694
20
-4.64568
11
7.85162
21
-4.64049
0
LINE
8
BLACK
6
CONTINUOUS
10
7.85162
20
-4.64049
11
7.85728
21
-4.63637
0
LINE
8
BLACK
6
CONTINUOUS
10
7.85728
20
-4.63637
11
7.86367
21
-4.63353
0
LINE
8
BLACK
6
CONTINUOUS
10
7.86367
20
-4.63353
11
7.87052
21
-4.63207
0
LINE
8
BLACK
6
CONTINUOUS
10
7.87052
20
-4.63207
11
7.87751
21
-4.63207
0
LINE
8
BLACK
6
CONTINUOUS
10
7.87751
20
-4.63207
11
7.88436
21
-4.63353
0
LINE
8
BLACK
6
CONTINUOUS
10
7.98436
20
-4.63353
11
7.99075
21
-4.63637
0
LINE
8
BLACK
6
CONTINUOUS
10
7.99075
20
-4.63637
11
7.99641
21
-4.64049
0
LINE
8
BLACK
6
CONTINUOUS
10
7.99641
20
-4.64049
11
8.00109
21
-4.64568
0
LINE
8
BLACK
6
CONTINUOUS
10
8.00109
20
-4.64568
11
8.00459
21
-4.65174
0
LINE
8
BLACK
6
CONTINUOUS
10
8.00459
20
-4.65174
11
8.00675
21
-4.6584
0
LINE
8
BLACK
6
CONTINUOUS
10
8.00675
20
-4.6584
11
8.00748
21
-4.66535
0
LINE
8
BLACK
6
CONTINUOUS
10
8.00748
20
-4.66535
11
8.00675
21
-4.67231
0
LINE
8
BLACK
6
CONTINUOUS
10
8.00675
20
-4.67231
11
8.00459
21
-4.67897
0
LINE
8
BLACK
6
CONTINUOUS
10
8.00459
20
-4.67897
11
8.00109
21
-4.68502
0
LINE
8
BLACK
6
CONTINUOUS
10
8.00109
20
-4.68502
11
7.99641
21
-4.69022
0
LINE
8
BLACK
6
CONTINUOUS
10
7.99641
20
-4.69022
11
7.99075
21
-4.69434
0
LINE
8
BLACK
6
CONTINUOUS
10
7.99075
20
-4.69434
11
7.98436
21
-4.69718
0
LINE
8
BLACK
6
CONTINUOUS
10
7.98436
20
-4.69718
11
7.97751
21
-4.69864
0
LINE
8
BLACK
6
CONTINUOUS
10
7.97751
20
-4.69864
11
7.97052
21
-4.69864
0
LINE
8
BLACK
6
CONTINUOUS
10
7.97052
20
-4.69864
11
7.96367
21
-4.69718
0
LINE
8
BLACK
6
CONTINUOUS
10
7.96367
20
-4.69718
11
7.95728
21
-4.69434
0
LINE
8
BLACK
6
CONTINUOUS
10
7.95728
20
-4.69434
11
7.95162
21
-4.69022
0
LINE
8
BLACK
6
CONTINUOUS
10
7.95162
20
-4.69022
11
7.94694
21
-4.68502
0
LINE
8
BLACK
6
CONTINUOUS
10
7.94694
20
-4.68502
11
7.94344
21
-4.67897
0
LINE
8
BLACK
6
CONTINUOUS
10
7.94344
20
-4.67897
11
7.94128
21
-4.67231
0
LINE
8
BLACK
6
CONTINUOUS
10
7.94128
20
-4.67231
11
7.94055
21
-4.66535
0
LINE
8
BLACK
6
CONTINUOUS
10
7.94055
20
-4.66535
11
7.94128
21
-4.6584
0
LINE
8
BLACK
6
CONTINUOUS
10
7.94128
20
-4.6584
11
7.94344
21
-4.65174
0
LINE
8
BLACK
6
CONTINUOUS
10
7.94344
20
-4.65174
11
7.94694
21
-4.64568
0
LINE
8
BLACK
6
CONTINUOUS
10
7.94694
20
-4.64568
11
7.95162
21
-4.64049
0
LINE
8
BLACK
6
CONTINUOUS
10
7.95162
20
-4.64049
11
7.95728
21
-4.63637
0
LINE
8
BLACK
6
CONTINUOUS
10
7.95728
20
-4.63637
11
7.96367
21
-4.63353
0
LINE
8
BLACK
6
CONTINUOUS
10
7.96367
20
-4.63353
11
7.97052
21
-4.63207
0
LINE
8
BLACK
6
CONTINUOUS
10
7.97052
20
-4.63207
11
7.97751
21
-4.63207
0
LINE
8
BLACK
6
CONTINUOUS
10
7.97751
20
-4.63207
11
7.98436
21
-4.63353
0
LINE
8
BLACK
6
CONTINUOUS
10
7.6686
20
-4.64612
11
7.67051
21
-4.6474
0
LINE
8
BLACK
6
CONTINUOUS
10
7.67051
20
-4.6474
11
7.67179
21
-4.64931
0
LINE
8
BLACK
6
CONTINUOUS
10
7.67179
20
-4.64931
11
7.67224
21
-4.65157
0
LINE
8
BLACK
6
CONTINUOUS
10
7.67224
20
-4.65157
11
7.67224
21
-4.66339
0
LINE
8
BLACK
6
CONTINUOUS
10
7.67224
20
-4.66339
11
7.67179
21
-4.66565
0
LINE
8
BLACK
6
CONTINUOUS
10
7.67179
20
-4.66565
11
7.67051
21
-4.66756
0
LINE
8
BLACK
6
CONTINUOUS
10
7.67051
20
-4.66756
11
7.6686
21
-4.66884
0
LINE
8
BLACK
6
CONTINUOUS
10
7.6686
20
-4.66884
11
7.66634
21
-4.66929
0
LINE
8
BLACK
6
CONTINUOUS
10
7.66634
20
-4.66929
11
7.62008
21
-4.66929
0
LINE
8
BLACK
6
CONTINUOUS
10
7.62008
20
-4.66929
11
7.61782
21
-4.66884
0
LINE
8
BLACK
6
CONTINUOUS
10
7.61782
20
-4.66884
11
7.6159
21
-4.66756
0
LINE
8
BLACK
6
CONTINUOUS
10
7.6159
20
-4.66756
11
7.61462
21
-4.66565
0
LINE
8
BLACK
6
CONTINUOUS
10
7.61462
20
-4.66565
11
7.61417
21
-4.66339
0
LINE
8
BLACK
6
CONTINUOUS
10
7.61417
20
-4.66339
11
7.61417
21
-4.65157
0
LINE
8
BLACK
6
CONTINUOUS
10
7.61417
20
-4.65157
11
7.61462
21
-4.64931
0
LINE
8
BLACK
6
CONTINUOUS
10
7.61462
20
-4.64931
11
7.6159
21
-4.6474
0
LINE
8
BLACK
6
CONTINUOUS
10
7.6159
20
-4.6474
11
7.61782
21
-4.64612
0
LINE
8
BLACK
6
CONTINUOUS
10
7.61782
20
-4.64612
11
7.62008
21
-4.64567
0
LINE
8
BLACK
6
CONTINUOUS
10
7.62008
20
-4.64567
11
7.66634
21
-4.64567
0
LINE
8
BLACK
6
CONTINUOUS
10
7.66634
20
-4.64567
11
7.6686
21
-4.64612
0
LINE
8
BLACK
6
CONTINUOUS
10
7.51459
20
-4.60114
11
7.51779
21
-4.60328
0
LINE
8
BLACK
6
CONTINUOUS
10
7.51779
20
-4.60328
11
7.51992
21
-4.60647
0
LINE
8
BLACK
6
CONTINUOUS
10
7.51992
20
-4.60647
11
7.52067
21
-4.61024
0
LINE
8
BLACK
6
CONTINUOUS
10
7.52067
20
-4.61024
11
7.52067
21
-4.62992
0
LINE
8
BLACK
6
CONTINUOUS
10
7.52067
20
-4.62992
11
7.51992
21
-4.63369
0
LINE
8
BLACK
6
CONTINUOUS
10
7.51992
20
-4.63369
11
7.51779
21
-4.63688
0
LINE
8
BLACK
6
CONTINUOUS
10
7.51779
20
-4.63688
11
7.51459
21
-4.63901
0
LINE
8
BLACK
6
CONTINUOUS
10
7.51459
20
-4.63901
11
7.51083
21
-4.63976
0
LINE
8
BLACK
6
CONTINUOUS
10
7.51083
20
-4.63976
11
7.47343
21
-4.63976
0
LINE
8
BLACK
6
CONTINUOUS
10
7.47343
20
-4.63976
11
7.46966
21
-4.63901
0
LINE
8
BLACK
6
CONTINUOUS
10
7.46966
20
-4.63901
11
7.46647
21
-4.63688
0
LINE
8
BLACK
6
CONTINUOUS
10
7.46647
20
-4.63688
11
7.46433
21
-4.63369
0
LINE
8
BLACK
6
CONTINUOUS
10
7.46433
20
-4.63369
11
7.46358
21
-4.62992
0
LINE
8
BLACK
6
CONTINUOUS
10
7.46358
20
-4.62992
11
7.46358
21
-4.61024
0
LINE
8
BLACK
6
CONTINUOUS
10
7.46358
20
-4.61024
11
7.46433
21
-4.60647
0
LINE
8
BLACK
6
CONTINUOUS
10
7.46433
20
-4.60647
11
7.46647
21
-4.60328
0
LINE
8
BLACK
6
CONTINUOUS
10
7.46647
20
-4.60328
11
7.46966
21
-4.60114
0
LINE
8
BLACK
6
CONTINUOUS
10
7.46966
20
-4.60114
11
7.47343
21
-4.60039
0
LINE
8
BLACK
6
CONTINUOUS
10
7.47343
20
-4.60039
11
7.51083
21
-4.60039
0
LINE
8
BLACK
6
CONTINUOUS
10
7.51083
20
-4.60039
11
7.51459
21
-4.60114
0
LINE
8
BLACK
6
CONTINUOUS
10
7.59478
20
-4.60872
11
7.5967
21
-4.61
0
LINE
8
BLACK
6
CONTINUOUS
10
7.5967
20
-4.61
11
7.59798
21
-4.61191
0
LINE
8
BLACK
6
CONTINUOUS
10
7.59798
20
-4.61191
11
7.59843
21
-4.61417
0
LINE
8
BLACK
6
CONTINUOUS
10
7.59843
20
-4.61417
11
7.59843
21
-4.62598
0
LINE
8
BLACK
6
CONTINUOUS
10
7.59843
20
-4.62598
11
7.59798
21
-4.62824
0
LINE
8
BLACK
6
CONTINUOUS
10
7.59798
20
-4.62824
11
7.5967
21
-4.63016
0
LINE
8
BLACK
6
CONTINUOUS
10
7.5967
20
-4.63016
11
7.59478
21
-4.63144
0
LINE
8
BLACK
6
CONTINUOUS
10
7.59478
20
-4.63144
11
7.59252
21
-4.63189
0
LINE
8
BLACK
6
CONTINUOUS
10
7.59252
20
-4.63189
11
7.54626
21
-4.63189
0
LINE
8
BLACK
6
CONTINUOUS
10
7.54626
20
-4.63189
11
7.544
21
-4.63144
0
LINE
8
BLACK
6
CONTINUOUS
10
7.544
20
-4.63144
11
7.54208
21
-4.63016
0
LINE
8
BLACK
6
CONTINUOUS
10
7.54208
20
-4.63016
11
7.5408
21
-4.62824
0
LINE
8
BLACK
6
CONTINUOUS
10
7.5408
20
-4.62824
11
7.54035
21
-4.62598
0
LINE
8
BLACK
6
CONTINUOUS
10
7.54035
20
-4.62598
11
7.54035
21
-4.61417
0
LINE
8
BLACK
6
CONTINUOUS
10
7.54035
20
-4.61417
11
7.5408
21
-4.61191
0
LINE
8
BLACK
6
CONTINUOUS
10
7.5408
20
-4.61191
11
7.54208
21
-4.61
0
LINE
8
BLACK
6
CONTINUOUS
10
7.54208
20
-4.61
11
7.544
21
-4.60872
0
LINE
8
BLACK
6
CONTINUOUS
10
7.544
20
-4.60872
11
7.54626
21
-4.60827
0
LINE
8
BLACK
6
CONTINUOUS
10
7.54626
20
-4.60827
11
7.59252
21
-4.60827
0
LINE
8
BLACK
6
CONTINUOUS
10
7.59252
20
-4.60827
11
7.59478
21
-4.60872
0
LINE
8
BLACK
6
CONTINUOUS
10
7.36559
20
-4.57056
11
7.36847
21
-4.57248
0
LINE
8
BLACK
6
CONTINUOUS
10
7.36847
20
-4.57248
11
7.37039
21
-4.57535
0
LINE
8
BLACK
6
CONTINUOUS
10
7.37039
20
-4.57535
11
7.37106
21
-4.57874
0
LINE
8
BLACK
6
CONTINUOUS
10
7.37106
20
-4.57874
11
7.37106
21
-4.59646
0
LINE
8
BLACK
6
CONTINUOUS
10
7.37106
20
-4.59646
11
7.37039
21
-4.59985
0
LINE
8
BLACK
6
CONTINUOUS
10
7.37039
20
-4.59985
11
7.36847
21
-4.60272
0
LINE
8
BLACK
6
CONTINUOUS
10
7.36847
20
-4.60272
11
7.36559
21
-4.60464
0
LINE
8
BLACK
6
CONTINUOUS
10
7.36559
20
-4.60464
11
7.3622
21
-4.60531
0
LINE
8
BLACK
6
CONTINUOUS
10
7.3622
20
-4.60531
11
7.34252
21
-4.60531
0
LINE
8
BLACK
6
CONTINUOUS
10
7.34252
20
-4.60531
11
7.33913
21
-4.60464
0
LINE
8
BLACK
6
CONTINUOUS
10
7.33913
20
-4.60464
11
7.33626
21
-4.60272
0
LINE
8
BLACK
6
CONTINUOUS
10
7.33626
20
-4.60272
11
7.33434
21
-4.59985
0
LINE
8
BLACK
6
CONTINUOUS
10
7.33434
20
-4.59985
11
7.33366
21
-4.59646
0
LINE
8
BLACK
6
CONTINUOUS
10
7.33366
20
-4.59646
11
7.33366
21
-4.57874
0
LINE
8
BLACK
6
CONTINUOUS
10
7.33366
20
-4.57874
11
7.33434
21
-4.57535
0
LINE
8
BLACK
6
CONTINUOUS
10
7.33434
20
-4.57535
11
7.33626
21
-4.57248
0
LINE
8
BLACK
6
CONTINUOUS
10
7.33626
20
-4.57248
11
7.33913
21
-4.57056
0
LINE
8
BLACK
6
CONTINUOUS
10
7.33913
20
-4.57056
11
7.34252
21
-4.56988
0
LINE
8
BLACK
6
CONTINUOUS
10
7.34252
20
-4.56988
11
7.3622
21
-4.56988
0
LINE
8
BLACK
6
CONTINUOUS
10
7.3622
20
-4.56988
11
7.36559
21
-4.57056
0
LINE
8
BLACK
6
CONTINUOUS
10
7.36559
20
-4.50953
11
7.36847
21
-4.51145
0
LINE
8
BLACK
6
CONTINUOUS
10
7.36847
20
-4.51145
11
7.37039
21
-4.51433
0
LINE
8
BLACK
6
CONTINUOUS
10
7.37039
20
-4.51433
11
7.37106
21
-4.51772
0
LINE
8
BLACK
6
CONTINUOUS
10
7.37106
20
-4.51772
11
7.37106
21
-4.53543
0
LINE
8
BLACK
6
CONTINUOUS
10
7.37106
20
-4.53543
11
7.37039
21
-4.53882
0
LINE
8
BLACK
6
CONTINUOUS
10
7.37039
20
-4.53882
11
7.36847
21
-4.5417
0
LINE
8
BLACK
6
CONTINUOUS
10
7.36847
20
-4.5417
11
7.36559
21
-4.54362
0
LINE
8
BLACK
6
CONTINUOUS
10
7.36559
20
-4.54362
11
7.3622
21
-4.54429
0
LINE
8
BLACK
6
CONTINUOUS
10
7.3622
20
-4.54429
11
7.34252
21
-4.54429
0
LINE
8
BLACK
6
CONTINUOUS
10
7.34252
20
-4.54429
11
7.33913
21
-4.54362
0
LINE
8
BLACK
6
CONTINUOUS
10
7.33913
20
-4.54362
11
7.33626
21
-4.5417
0
LINE
8
BLACK
6
CONTINUOUS
10
7.33626
20
-4.5417
11
7.33434
21
-4.53882
0
LINE
8
BLACK
6
CONTINUOUS
10
7.33434
20
-4.53882
11
7.33366
21
-4.53543
0
LINE
8
BLACK
6
CONTINUOUS
10
7.33366
20
-4.53543
11
7.33366
21
-4.51772
0
LINE
8
BLACK
6
CONTINUOUS
10
7.33366
20
-4.51772
11
7.33434
21
-4.51433
0
LINE
8
BLACK
6
CONTINUOUS
10
7.33434
20
-4.51433
11
7.33626
21
-4.51145
0
LINE
8
BLACK
6
CONTINUOUS
10
7.33626
20
-4.51145
11
7.33913
21
-4.50953
0
LINE
8
BLACK
6
CONTINUOUS
10
7.33913
20
-4.50953
11
7.34252
21
-4.50886
0
LINE
8
BLACK
6
CONTINUOUS
10
7.34252
20
-4.50886
11
7.3622
21
-4.50886
0
LINE
8
BLACK
6
CONTINUOUS
10
7.3622
20
-4.50886
11
7.36559
21
-4.50953
0
LINE
8
BLACK
6
CONTINUOUS
10
8.46759
20
-4.50355
11
8.46931
21
-4.50471
0
LINE
8
BLACK
6
CONTINUOUS
10
8.46931
20
-4.50471
11
8.47046
21
-4.50643
0
LINE
8
BLACK
6
CONTINUOUS
10
8.47046
20
-4.50643
11
8.47087
21
-4.50846
0
LINE
8
BLACK
6
CONTINUOUS
10
8.47087
20
-4.50846
11
8.47087
21
-4.52303
0
LINE
8
BLACK
6
CONTINUOUS
10
8.47087
20
-4.52303
11
8.47046
21
-4.52507
0
LINE
8
BLACK
6
CONTINUOUS
10
8.47046
20
-4.52507
11
8.46931
21
-4.52679
0
LINE
8
BLACK
6
CONTINUOUS
10
8.46931
20
-4.52679
11
8.46759
21
-4.52794
0
LINE
8
BLACK
6
CONTINUOUS
10
8.46759
20
-4.52794
11
8.46555
21
-4.52835
0
LINE
8
BLACK
6
CONTINUOUS
10
8.46555
20
-4.52835
11
8.45492
21
-4.52835
0
LINE
8
BLACK
6
CONTINUOUS
10
8.45492
20
-4.52835
11
8.45289
21
-4.52794
0
LINE
8
BLACK
6
CONTINUOUS
10
8.45289
20
-4.52794
11
8.45116
21
-4.52679
0
LINE
8
BLACK
6
CONTINUOUS
10
8.45116
20
-4.52679
11
8.45001
21
-4.52507
0
LINE
8
BLACK
6
CONTINUOUS
10
8.45001
20
-4.52507
11
8.44961
21
-4.52303
0
LINE
8
BLACK
6
CONTINUOUS
10
8.44961
20
-4.52303
11
8.44961
21
-4.50846
0
LINE
8
BLACK
6
CONTINUOUS
10
8.44961
20
-4.50846
11
8.45001
21
-4.50643
0
LINE
8
BLACK
6
CONTINUOUS
10
8.45001
20
-4.50643
11
8.45116
21
-4.50471
0
LINE
8
BLACK
6
CONTINUOUS
10
8.45116
20
-4.50471
11
8.45289
21
-4.50355
0
LINE
8
BLACK
6
CONTINUOUS
10
8.45289
20
-4.50355
11
8.45492
21
-4.50315
0
LINE
8
BLACK
6
CONTINUOUS
10
8.45492
20
-4.50315
11
8.46555
21
-4.50315
0
LINE
8
BLACK
6
CONTINUOUS
10
8.46555
20
-4.50315
11
8.46759
21
-4.50355
0
LINE
8
BLACK
6
CONTINUOUS
10
8.50774
20
-4.50355
11
8.50947
21
-4.50471
0
LINE
8
BLACK
6
CONTINUOUS
10
8.50947
20
-4.50471
11
8.51062
21
-4.50643
0
LINE
8
BLACK
6
CONTINUOUS
10
8.51062
20
-4.50643
11
8.51102
21
-4.50846
0
LINE
8
BLACK
6
CONTINUOUS
10
8.51102
20
-4.50846
11
8.51102
21
-4.52303
0
LINE
8
BLACK
6
CONTINUOUS
10
8.51102
20
-4.52303
11
8.51062
21
-4.52507
0
LINE
8
BLACK
6
CONTINUOUS
10
8.51062
20
-4.52507
11
8.50947
21
-4.52679
0
LINE
8
BLACK
6
CONTINUOUS
10
8.50947
20
-4.52679
11
8.50774
21
-4.52794
0
LINE
8
BLACK
6
CONTINUOUS
10
8.50774
20
-4.52794
11
8.50571
21
-4.52835
0
LINE
8
BLACK
6
CONTINUOUS
10
8.50571
20
-4.52835
11
8.49508
21
-4.52835
0
LINE
8
BLACK
6
CONTINUOUS
10
8.49508
20
-4.52835
11
8.49304
21
-4.52794
0
LINE
8
BLACK
6
CONTINUOUS
10
8.49304
20
-4.52794
11
8.49132
21
-4.52679
0
LINE
8
BLACK
6
CONTINUOUS
10
8.49132
20
-4.52679
11
8.49017
21
-4.52507
0
LINE
8
BLACK
6
CONTINUOUS
10
8.49017
20
-4.52507
11
8.48976
21
-4.52303
0
LINE
8
BLACK
6
CONTINUOUS
10
8.48976
20
-4.52303
11
8.48976
21
-4.50846
0
LINE
8
BLACK
6
CONTINUOUS
10
8.48976
20
-4.50846
11
8.49017
21
-4.50643
0
LINE
8
BLACK
6
CONTINUOUS
10
8.49017
20
-4.50643
11
8.49132
21
-4.50471
0
LINE
8
BLACK
6
CONTINUOUS
10
8.49132
20
-4.50471
11
8.49304
21
-4.50355
0
LINE
8
BLACK
6
CONTINUOUS
10
8.49304
20
-4.50355
11
8.49508
21
-4.50315
0
LINE
8
BLACK
6
CONTINUOUS
10
8.49508
20
-4.50315
11
8.50571
21
-4.50315
0
LINE
8
BLACK
6
CONTINUOUS
10
8.50571
20
-4.50315
11
8.50774
21
-4.50355
0
LINE
8
BLACK
6
CONTINUOUS
10
7.77234
20
-4.43117
11
7.77756
21
-4.43313
0
LINE
8
BLACK
6
CONTINUOUS
10
7.77756
20
-4.43313
11
7.78203
21
-4.43647
0
LINE
8
BLACK
6
CONTINUOUS
10
7.78203
20
-4.43647
11
7.78538
21
-4.44094
0
LINE
8
BLACK
6
CONTINUOUS
10
7.78538
20
-4.44094
11
7.78734
21
-4.44617
0
LINE
8
BLACK
6
CONTINUOUS
10
7.78734
20
-4.44617
11
7.7878
21
-4.45039
0
LINE
8
BLACK
6
CONTINUOUS
10
7.7878
20
-4.45039
11
7.7878
21
-4.48976
0
LINE
8
BLACK
6
CONTINUOUS
10
7.7878
20
-4.48976
11
7.78734
21
-4.49399
0
LINE
8
BLACK
6
CONTINUOUS
10
7.78734
20
-4.49399
11
7.78538
21
-4.49922
0
LINE
8
BLACK
6
CONTINUOUS
10
7.78538
20
-4.49922
11
7.78203
21
-4.50368
0
LINE
8
BLACK
6
CONTINUOUS
10
7.78203
20
-4.50368
11
7.77756
21
-4.50703
0
LINE
8
BLACK
6
CONTINUOUS
10
7.77756
20
-4.50703
11
7.77234
21
-4.50899
0
LINE
8
BLACK
6
CONTINUOUS
10
7.77234
20
-4.50899
11
7.76811
21
-4.50945
0
LINE
8
BLACK
6
CONTINUOUS
10
7.76811
20
-4.50945
11
7.72874
21
-4.50945
0
LINE
8
BLACK
6
CONTINUOUS
10
7.72874
20
-4.50945
11
7.72451
21
-4.50899
0
LINE
8
BLACK
6
CONTINUOUS
10
7.72451
20
-4.50899
11
7.71929
21
-4.50703
0
LINE
8
BLACK
6
CONTINUOUS
10
7.71929
20
-4.50703
11
7.71482
21
-4.50368
0
LINE
8
BLACK
6
CONTINUOUS
10
7.71482
20
-4.50368
11
7.71147
21
-4.49922
0
LINE
8
BLACK
6
CONTINUOUS
10
7.71147
20
-4.49922
11
7.70951
21
-4.49399
0
LINE
8
BLACK
6
CONTINUOUS
10
7.70951
20
-4.49399
11
7.70906
21
-4.48976
0
LINE
8
BLACK
6
CONTINUOUS
10
7.70906
20
-4.48976
11
7.70906
21
-4.45039
0
LINE
8
BLACK
6
CONTINUOUS
10
7.70906
20
-4.45039
11
7.70951
21
-4.44617
0
LINE
8
BLACK
6
CONTINUOUS
10
7.70951
20
-4.44617
11
7.71147
21
-4.44094
0
LINE
8
BLACK
6
CONTINUOUS
10
7.71147
20
-4.44094
11
7.71482
21
-4.43647
0
LINE
8
BLACK
6
CONTINUOUS
10
7.71482
20
-4.43647
11
7.71929
21
-4.43313
0
LINE
8
BLACK
6
CONTINUOUS
10
7.71929
20
-4.43313
11
7.72451
21
-4.43117
0
LINE
8
BLACK
6
CONTINUOUS
10
7.72451
20
-4.43117
11
7.72874
21
-4.43071
0
LINE
8
BLACK
6
CONTINUOUS
10
7.72874
20
-4.43071
11
7.76811
21
-4.43071
0
LINE
8
BLACK
6
CONTINUOUS
10
7.76811
20
-4.43071
11
7.77234
21
-4.43117
0
LINE
8
BLACK
6
CONTINUOUS
10
7.47234
20
-4.43117
11
7.47756
21
-4.43313
0
LINE
8
BLACK
6
CONTINUOUS
10
7.47756
20
-4.43313
11
7.48203
21
-4.43647
0
LINE
8
BLACK
6
CONTINUOUS
10
7.48203
20
-4.43647
11
7.48538
21
-4.44094
0
LINE
8
BLACK
6
CONTINUOUS
10
7.48538
20
-4.44094
11
7.48734
21
-4.44617
0
LINE
8
BLACK
6
CONTINUOUS
10
7.48734
20
-4.44617
11
7.4878
21
-4.45039
0
LINE
8
BLACK
6
CONTINUOUS
10
7.4878
20
-4.45039
11
7.4878
21
-4.48976
0
LINE
8
BLACK
6
CONTINUOUS
10
7.4878
20
-4.48976
11
7.48734
21
-4.49399
0
LINE
8
BLACK
6
CONTINUOUS
10
7.48734
20
-4.49399
11
7.48538
21
-4.49922
0
LINE
8
BLACK
6
CONTINUOUS
10
7.48538
20
-4.49922
11
7.48203
21
-4.50368
0
LINE
8
BLACK
6
CONTINUOUS
10
7.48203
20
-4.50368
11
7.47756
21
-4.50703
0
LINE
8
BLACK
6
CONTINUOUS
10
7.47756
20
-4.50703
11
7.47234
21
-4.50899
0
LINE
8
BLACK
6
CONTINUOUS
10
7.47234
20
-4.50899
11
7.46811
21
-4.50945
0
LINE
8
BLACK
6
CONTINUOUS
10
7.46811
20
-4.50945
11
7.42874
21
-4.50945
0
LINE
8
BLACK
6
CONTINUOUS
10
7.42874
20
-4.50945
11
7.42451
21
-4.50899
0
LINE
8
BLACK
6
CONTINUOUS
10
7.42451
20
-4.50899
11
7.41929
21
-4.50703
0
LINE
8
BLACK
6
CONTINUOUS
10
7.41929
20
-4.50703
11
7.41482
21
-4.50368
0
LINE
8
BLACK
6
CONTINUOUS
10
7.41482
20
-4.50368
11
7.41147
21
-4.49922
0
LINE
8
BLACK
6
CONTINUOUS
10
7.41147
20
-4.49922
11
7.40951
21
-4.49399
0
LINE
8
BLACK
6
CONTINUOUS
10
7.40951
20
-4.49399
11
7.40906
21
-4.48976
0
LINE
8
BLACK
6
CONTINUOUS
10
7.40906
20
-4.48976
11
7.40906
21
-4.45039
0
LINE
8
BLACK
6
CONTINUOUS
10
7.40906
20
-4.45039
11
7.40951
21
-4.44617
0
LINE
8
BLACK
6
CONTINUOUS
10
7.40951
20
-4.44617
11
7.41147
21
-4.44094
0
LINE
8
BLACK
6
CONTINUOUS
10
7.41147
20
-4.44094
11
7.41482
21
-4.43647
0
LINE
8
BLACK
6
CONTINUOUS
10
7.41482
20
-4.43647
11
7.41929
21
-4.43313
0
LINE
8
BLACK
6
CONTINUOUS
10
7.41929
20
-4.43313
11
7.42451
21
-4.43117
0
LINE
8
BLACK
6
CONTINUOUS
10
7.42451
20
-4.43117
11
7.42874
21
-4.43071
0
LINE
8
BLACK
6
CONTINUOUS
10
7.42874
20
-4.43071
11
7.46811
21
-4.43071
0
LINE
8
BLACK
6
CONTINUOUS
10
7.46811
20
-4.43071
11
7.47234
21
-4.43117
0
LINE
8
BLACK
6
CONTINUOUS
10
8.71722
20
-4.43117
11
8.72245
21
-4.43313
0
LINE
8
BLACK
6
CONTINUOUS
10
8.72245
20
-4.43313
11
8.72691
21
-4.43647
0
LINE
8
BLACK
6
CONTINUOUS
10
8.72691
20
-4.43647
11
8.73026
21
-4.44094
0
LINE
8
BLACK
6
CONTINUOUS
10
8.73026
20
-4.44094
11
8.73222
21
-4.44617
0
LINE
8
BLACK
6
CONTINUOUS
10
8.73222
20
-4.44617
11
8.73268
21
-4.45039
0
LINE
8
BLACK
6
CONTINUOUS
10
8.73268
20
-4.45039
11
8.73268
21
-4.48976
0
LINE
8
BLACK
6
CONTINUOUS
10
8.73268
20
-4.48976
11
8.73222
21
-4.49399
0
LINE
8
BLACK
6
CONTINUOUS
10
8.73222
20
-4.49399
11
8.73026
21
-4.49922
0
LINE
8
BLACK
6
CONTINUOUS
10
8.73026
20
-4.49922
11
8.72691
21
-4.50368
0
LINE
8
BLACK
6
CONTINUOUS
10
8.72691
20
-4.50368
11
8.72245
21
-4.50703
0
LINE
8
BLACK
6
CONTINUOUS
10
8.72245
20
-4.50703
11
8.71722
21
-4.50899
0
LINE
8
BLACK
6
CONTINUOUS
10
8.71722
20
-4.50899
11
8.71299
21
-4.50945
0
LINE
8
BLACK
6
CONTINUOUS
10
8.71299
20
-4.50945
11
8.67362
21
-4.50945
0
LINE
8
BLACK
6
CONTINUOUS
10
8.67362
20
-4.50945
11
8.66939
21
-4.50899
0
LINE
8
BLACK
6
CONTINUOUS
10
8.66939
20
-4.50899
11
8.66417
21
-4.50703
0
LINE
8
BLACK
6
CONTINUOUS
10
8.66417
20
-4.50703
11
8.6597
21
-4.50368
0
LINE
8
BLACK
6
CONTINUOUS
10
8.6597
20
-4.50368
11
8.65636
21
-4.49922
0
LINE
8
BLACK
6
CONTINUOUS
10
8.65636
20
-4.49922
11
8.6544
21
-4.49399
0
LINE
8
BLACK
6
CONTINUOUS
10
8.6544
20
-4.49399
11
8.65394
21
-4.48976
0
LINE
8
BLACK
6
CONTINUOUS
10
8.65394
20
-4.48976
11
8.65394
21
-4.45039
0
LINE
8
BLACK
6
CONTINUOUS
10
8.65394
20
-4.45039
11
8.6544
21
-4.44617
0
LINE
8
BLACK
6
CONTINUOUS
10
8.6544
20
-4.44617
11
8.65636
21
-4.44094
0
LINE
8
BLACK
6
CONTINUOUS
10
8.65636
20
-4.44094
11
8.6597
21
-4.43647
0
LINE
8
BLACK
6
CONTINUOUS
10
8.6597
20
-4.43647
11
8.66417
21
-4.43313
0
LINE
8
BLACK
6
CONTINUOUS
10
8.66417
20
-4.43313
11
8.66939
21
-4.43117
0
LINE
8
BLACK
6
CONTINUOUS
10
8.66939
20
-4.43117
11
8.67362
21
-4.43071
0
LINE
8
BLACK
6
CONTINUOUS
10
8.67362
20
-4.43071
11
8.71299
21
-4.43071
0
LINE
8
BLACK
6
CONTINUOUS
10
8.71299
20
-4.43071
11
8.71722
21
-4.43117
0
LINE
8
BLACK
6
CONTINUOUS
10
8.41722
20
-4.43117
11
8.42245
21
-4.43313
0
LINE
8
BLACK
6
CONTINUOUS
10
8.42245
20
-4.43313
11
8.42691
21
-4.43647
0
LINE
8
BLACK
6
CONTINUOUS
10
8.42691
20
-4.43647
11
8.43026
21
-4.44094
0
LINE
8
BLACK
6
CONTINUOUS
10
8.43026
20
-4.44094
11
8.43222
21
-4.44617
0
LINE
8
BLACK
6
CONTINUOUS
10
8.43222
20
-4.44617
11
8.43268
21
-4.45039
0
LINE
8
BLACK
6
CONTINUOUS
10
8.43268
20
-4.45039
11
8.43268
21
-4.48976
0
LINE
8
BLACK
6
CONTINUOUS
10
8.43268
20
-4.48976
11
8.43222
21
-4.49399
0
LINE
8
BLACK
6
CONTINUOUS
10
8.43222
20
-4.49399
11
8.43026
21
-4.49922
0
LINE
8
BLACK
6
CONTINUOUS
10
8.43026
20
-4.49922
11
8.42691
21
-4.50368
0
LINE
8
BLACK
6
CONTINUOUS
10
8.42691
20
-4.50368
11
8.42245
21
-4.50703
0
LINE
8
BLACK
6
CONTINUOUS
10
8.42245
20
-4.50703
11
8.41722
21
-4.50899
0
LINE
8
BLACK
6
CONTINUOUS
10
8.41722
20
-4.50899
11
8.41299
21
-4.50945
0
LINE
8
BLACK
6
CONTINUOUS
10
8.41299
20
-4.50945
11
8.37362
21
-4.50945
0
LINE
8
BLACK
6
CONTINUOUS
10
8.37362
20
-4.50945
11
8.36939
21
-4.50899
0
LINE
8
BLACK
6
CONTINUOUS
10
8.36939
20
-4.50899
11
8.36417
21
-4.50703
0
LINE
8
BLACK
6
CONTINUOUS
10
8.36417
20
-4.50703
11
8.3597
21
-4.50368
0
LINE
8
BLACK
6
CONTINUOUS
10
8.3597
20
-4.50368
11
8.35636
21
-4.49922
0
LINE
8
BLACK
6
CONTINUOUS
10
8.35636
20
-4.49922
11
8.3544
21
-4.49399
0
LINE
8
BLACK
6
CONTINUOUS
10
8.3544
20
-4.49399
11
8.35394
21
-4.48976
0
LINE
8
BLACK
6
CONTINUOUS
10
8.35394
20
-4.48976
11
8.35394
21
-4.45039
0
LINE
8
BLACK
6
CONTINUOUS
10
8.35394
20
-4.45039
11
8.3544
21
-4.44617
0
LINE
8
BLACK
6
CONTINUOUS
10
8.3544
20
-4.44617
11
8.35636
21
-4.44094
0
LINE
8
BLACK
6
CONTINUOUS
10
8.35636
20
-4.44094
11
8.3597
21
-4.43647
0
LINE
8
BLACK
6
CONTINUOUS
10
8.3597
20
-4.43647
11
8.36417
21
-4.43313
0
LINE
8
BLACK
6
CONTINUOUS
10
8.36417
20
-4.43313
11
8.36939
21
-4.43117
0
LINE
8
BLACK
6
CONTINUOUS
10
8.36939
20
-4.43117
11
8.37362
21
-4.43071
0
LINE
8
BLACK
6
CONTINUOUS
10
8.37362
20
-4.43071
11
8.41299
21
-4.43071
0
LINE
8
BLACK
6
CONTINUOUS
10
8.41299
20
-4.43071
11
8.41722
21
-4.43117
0
LINE
8
BLACK
6
CONTINUOUS
10
8.63373
20
-4.48387
11
8.63545
21
-4.48502
0
LINE
8
BLACK
6
CONTINUOUS
10
8.63545
20
-4.48502
11
8.6366
21
-4.48675
0
LINE
8
BLACK
6
CONTINUOUS
10
8.6366
20
-4.48675
11
8.63701
21
-4.48878
0
LINE
8
BLACK
6
CONTINUOUS
10
8.63701
20
-4.48878
11
8.63701
21
-4.50335
0
LINE
8
BLACK
6
CONTINUOUS
10
8.63701
20
-4.50335
11
8.6366
21
-4.50538
0
LINE
8
BLACK
6
CONTINUOUS
10
8.6366
20
-4.50538
11
8.63545
21
-4.5071
0
LINE
8
BLACK
6
CONTINUOUS
10
8.63545
20
-4.5071
11
8.63373
21
-4.50826
0
LINE
8
BLACK
6
CONTINUOUS
10
8.63373
20
-4.50826
11
8.63169
21
-4.50866
0
LINE
8
BLACK
6
CONTINUOUS
10
8.63169
20
-4.50866
11
8.62106
21
-4.50866
0
LINE
8
BLACK
6
CONTINUOUS
10
8.62106
20
-4.50866
11
8.61903
21
-4.50826
0
LINE
8
BLACK
6
CONTINUOUS
10
8.61903
20
-4.50826
11
8.6173
21
-4.5071
0
LINE
8
BLACK
6
CONTINUOUS
10
8.6173
20
-4.5071
11
8.61615
21
-4.50538
0
LINE
8
BLACK
6
CONTINUOUS
10
8.61615
20
-4.50538
11
8.61575
21
-4.50335
0
LINE
8
BLACK
6
CONTINUOUS
10
8.61575
20
-4.50335
11
8.61575
21
-4.48878
0
LINE
8
BLACK
6
CONTINUOUS
10
8.61575
20
-4.48878
11
8.61615
21
-4.48675
0
LINE
8
BLACK
6
CONTINUOUS
10
8.61615
20
-4.48675
11
8.6173
21
-4.48502
0
LINE
8
BLACK
6
CONTINUOUS
10
8.6173
20
-4.48502
11
8.61903
21
-4.48387
0
LINE
8
BLACK
6
CONTINUOUS
10
8.61903
20
-4.48387
11
8.62106
21
-4.48346
0
LINE
8
BLACK
6
CONTINUOUS
10
8.62106
20
-4.48346
11
8.63169
21
-4.48346
0
LINE
8
BLACK
6
CONTINUOUS
10
8.63169
20
-4.48346
11
8.63373
21
-4.48387
0
LINE
8
BLACK
6
CONTINUOUS
10
8.59357
20
-4.48387
11
8.59529
21
-4.48502
0
LINE
8
BLACK
6
CONTINUOUS
10
8.59529
20
-4.48502
11
8.59645
21
-4.48675
0
LINE
8
BLACK
6
CONTINUOUS
10
8.59645
20
-4.48675
11
8.59685
21
-4.48878
0
LINE
8
BLACK
6
CONTINUOUS
10
8.59685
20
-4.48878
11
8.59685
21
-4.50335
0
LINE
8
BLACK
6
CONTINUOUS
10
8.59685
20
-4.50335
11
8.59645
21
-4.50538
0
LINE
8
BLACK
6
CONTINUOUS
10
8.59645
20
-4.50538
11
8.59529
21
-4.5071
0
LINE
8
BLACK
6
CONTINUOUS
10
8.59529
20
-4.5071
11
8.59357
21
-4.50826
0
LINE
8
BLACK
6
CONTINUOUS
10
8.59357
20
-4.50826
11
8.59154
21
-4.50866
0
LINE
8
BLACK
6
CONTINUOUS
10
8.59154
20
-4.50866
11
8.58091
21
-4.50866
0
LINE
8
BLACK
6
CONTINUOUS
10
8.58091
20
-4.50866
11
8.57887
21
-4.50826
0
LINE
8
BLACK
6
CONTINUOUS
10
8.57887
20
-4.50826
11
8.57715
21
-4.5071
0
LINE
8
BLACK
6
CONTINUOUS
10
8.57715
20
-4.5071
11
8.576
21
-4.50538
0
LINE
8
BLACK
6
CONTINUOUS
10
8.576
20
-4.50538
11
8.57559
21
-4.50335
0
LINE
8
BLACK
6
CONTINUOUS
10
8.57559
20
-4.50335
11
8.57559
21
-4.48878
0
LINE
8
BLACK
6
CONTINUOUS
10
8.57559
20
-4.48878
11
8.576
21
-4.48675
0
LINE
8
BLACK
6
CONTINUOUS
10
8.576
20
-4.48675
11
8.57715
21
-4.48502
0
LINE
8
BLACK
6
CONTINUOUS
10
8.57715
20
-4.48502
11
8.57887
21
-4.48387
0
LINE
8
BLACK
6
CONTINUOUS
10
8.57887
20
-4.48387
11
8.58091
21
-4.48346
0
LINE
8
BLACK
6
CONTINUOUS
10
8.58091
20
-4.48346
11
8.59154
21
-4.48346
0
LINE
8
BLACK
6
CONTINUOUS
10
8.59154
20
-4.48346
11
8.59357
21
-4.48387
0
LINE
8
BLACK
6
CONTINUOUS
10
7.88872
20
-4.48428
11
7.89051
21
-4.48547
0
LINE
8
BLACK
6
CONTINUOUS
10
7.89051
20
-4.48547
11
7.89171
21
-4.48726
0
LINE
8
BLACK
6
CONTINUOUS
10
7.89171
20
-4.48726
11
7.89213
21
-4.48937
0
LINE
8
BLACK
6
CONTINUOUS
10
7.89213
20
-4.48937
11
7.89213
21
-4.50276
0
LINE
8
BLACK
6
CONTINUOUS
10
7.89213
20
-4.50276
11
7.89171
21
-4.50487
0
LINE
8
BLACK
6
CONTINUOUS
10
7.89171
20
-4.50487
11
7.89051
21
-4.50665
0
LINE
8
BLACK
6
CONTINUOUS
10
7.89051
20
-4.50665
11
7.88872
21
-4.50785
0
LINE
8
BLACK
6
CONTINUOUS
10
7.88872
20
-4.50785
11
7.88661
21
-4.50827
0
LINE
8
BLACK
6
CONTINUOUS
10
7.88661
20
-4.50827
11
7.87559
21
-4.50827
0
LINE
8
BLACK
6
CONTINUOUS
10
7.87559
20
-4.50827
11
7.87348
21
-4.50785
0
LINE
8
BLACK
6
CONTINUOUS
10
7.87348
20
-4.50785
11
7.87169
21
-4.50665
0
LINE
8
BLACK
6
CONTINUOUS
10
7.87169
20
-4.50665
11
7.8705
21
-4.50487
0
LINE
8
BLACK
6
CONTINUOUS
10
7.8705
20
-4.50487
11
7.87008
21
-4.50276
0
LINE
8
BLACK
6
CONTINUOUS
10
7.87008
20
-4.50276
11
7.87008
21
-4.48937
0
LINE
8
BLACK
6
CONTINUOUS
10
7.87008
20
-4.48937
11
7.8705
21
-4.48726
0
LINE
8
BLACK
6
CONTINUOUS
10
7.8705
20
-4.48726
11
7.87169
21
-4.48547
0
LINE
8
BLACK
6
CONTINUOUS
10
7.87169
20
-4.48547
11
7.87348
21
-4.48428
0
LINE
8
BLACK
6
CONTINUOUS
10
7.87348
20
-4.48428
11
7.87559
21
-4.48386
0
LINE
8
BLACK
6
CONTINUOUS
10
7.87559
20
-4.48386
11
7.88661
21
-4.48386
0
LINE
8
BLACK
6
CONTINUOUS
10
7.88661
20
-4.48386
11
7.88872
21
-4.48428
0
LINE
8
BLACK
6
CONTINUOUS
10
7.85093
20
-4.48428
11
7.85272
21
-4.48547
0
LINE
8
BLACK
6
CONTINUOUS
10
7.85272
20
-4.48547
11
7.85391
21
-4.48726
0
LINE
8
BLACK
6
CONTINUOUS
10
7.85391
20
-4.48726
11
7.85433
21
-4.48937
0
LINE
8
BLACK
6
CONTINUOUS
10
7.85433
20
-4.48937
11
7.85433
21
-4.50276
0
LINE
8
BLACK
6
CONTINUOUS
10
7.85433
20
-4.50276
11
7.85391
21
-4.50487
0
LINE
8
BLACK
6
CONTINUOUS
10
7.85391
20
-4.50487
11
7.85272
21
-4.50665
0
LINE
8
BLACK
6
CONTINUOUS
10
7.85272
20
-4.50665
11
7.85093
21
-4.50785
0
LINE
8
BLACK
6
CONTINUOUS
10
7.85093
20
-4.50785
11
7.84882
21
-4.50827
0
LINE
8
BLACK
6
CONTINUOUS
10
7.84882
20
-4.50827
11
7.8378
21
-4.50827
0
LINE
8
BLACK
6
CONTINUOUS
10
7.8378
20
-4.50827
11
7.83569
21
-4.50785
0
LINE
8
BLACK
6
CONTINUOUS
10
7.83569
20
-4.50785
11
7.8339
21
-4.50665
0
LINE
8
BLACK
6
CONTINUOUS
10
7.8339
20
-4.50665
11
7.8327
21
-4.50487
0
LINE
8
BLACK
6
CONTINUOUS
10
7.8327
20
-4.50487
11
7.83228
21
-4.50276
0
LINE
8
BLACK
6
CONTINUOUS
10
7.83228
20
-4.50276
11
7.83228
21
-4.48937
0
LINE
8
BLACK
6
CONTINUOUS
10
7.83228
20
-4.48937
11
7.8327
21
-4.48726
0
LINE
8
BLACK
6
CONTINUOUS
10
7.8327
20
-4.48726
11
7.8339
21
-4.48547
0
LINE
8
BLACK
6
CONTINUOUS
10
7.8339
20
-4.48547
11
7.83569
21
-4.48428
0
LINE
8
BLACK
6
CONTINUOUS
10
7.83569
20
-4.48428
11
7.8378
21
-4.48386
0
LINE
8
BLACK
6
CONTINUOUS
10
7.8378
20
-4.48386
11
7.84882
21
-4.48386
0
LINE
8
BLACK
6
CONTINUOUS
10
7.84882
20
-4.48386
11
7.85093
21
-4.48428
0
LINE
8
BLACK
6
CONTINUOUS
10
7.67662
20
-4.45441
11
7.67949
21
-4.45633
0
LINE
8
BLACK
6
CONTINUOUS
10
7.67949
20
-4.45633
11
7.68141
21
-4.45921
0
LINE
8
BLACK
6
CONTINUOUS
10
7.68141
20
-4.45921
11
7.68209
21
-4.4626
0
LINE
8
BLACK
6
CONTINUOUS
10
7.68209
20
-4.4626
11
7.68209
21
-4.48228
0
LINE
8
BLACK
6
CONTINUOUS
10
7.68209
20
-4.48228
11
7.68141
21
-4.48567
0
LINE
8
BLACK
6
CONTINUOUS
10
7.68141
20
-4.48567
11
7.67949
21
-4.48855
0
LINE
8
BLACK
6
CONTINUOUS
10
7.67949
20
-4.48855
11
7.67662
21
-4.49047
0
LINE
8
BLACK
6
CONTINUOUS
10
7.67662
20
-4.49047
11
7.67323
21
-4.49114
0
LINE
8
BLACK
6
CONTINUOUS
10
7.67323
20
-4.49114
11
7.65551
21
-4.49114
0
LINE
8
BLACK
6
CONTINUOUS
10
7.65551
20
-4.49114
11
7.65212
21
-4.49047
0
LINE
8
BLACK
6
CONTINUOUS
10
7.65212
20
-4.49047
11
7.64925
21
-4.48855
0
LINE
8
BLACK
6
CONTINUOUS
10
7.64925
20
-4.48855
11
7.64733
21
-4.48567
0
LINE
8
BLACK
6
CONTINUOUS
10
7.64733
20
-4.48567
11
7.64665
21
-4.48228
0
LINE
8
BLACK
6
CONTINUOUS
10
7.64665
20
-4.48228
11
7.64665
21
-4.4626
0
LINE
8
BLACK
6
CONTINUOUS
10
7.64665
20
-4.4626
11
7.64733
21
-4.45921
0
LINE
8
BLACK
6
CONTINUOUS
10
7.64733
20
-4.45921
11
7.64925
21
-4.45633
0
LINE
8
BLACK
6
CONTINUOUS
10
7.64925
20
-4.45633
11
7.65212
21
-4.45441
0
LINE
8
BLACK
6
CONTINUOUS
10
7.65212
20
-4.45441
11
7.65551
21
-4.45374
0
LINE
8
BLACK
6
CONTINUOUS
10
7.65551
20
-4.45374
11
7.67323
21
-4.45374
0
LINE
8
BLACK
6
CONTINUOUS
10
7.67323
20
-4.45374
11
7.67662
21
-4.45441
0
LINE
8
BLACK
6
CONTINUOUS
10
7.61559
20
-4.45441
11
7.61847
21
-4.45633
0
LINE
8
BLACK
6
CONTINUOUS
10
7.61847
20
-4.45633
11
7.62039
21
-4.45921
0
LINE
8
BLACK
6
CONTINUOUS
10
7.62039
20
-4.45921
11
7.62106
21
-4.4626
0
LINE
8
BLACK
6
CONTINUOUS
10
7.62106
20
-4.4626
11
7.62106
21
-4.48228
0
LINE
8
BLACK
6
CONTINUOUS
10
7.62106
20
-4.48228
11
7.62039
21
-4.48567
0
LINE
8
BLACK
6
CONTINUOUS
10
7.62039
20
-4.48567
11
7.61847
21
-4.48855
0
LINE
8
BLACK
6
CONTINUOUS
10
7.61847
20
-4.48855
11
7.61559
21
-4.49047
0
LINE
8
BLACK
6
CONTINUOUS
10
7.61559
20
-4.49047
11
7.6122
21
-4.49114
0
LINE
8
BLACK
6
CONTINUOUS
10
7.6122
20
-4.49114
11
7.59449
21
-4.49114
0
LINE
8
BLACK
6
CONTINUOUS
10
7.59449
20
-4.49114
11
7.5911
21
-4.49047
0
LINE
8
BLACK
6
CONTINUOUS
10
7.5911
20
-4.49047
11
7.58822
21
-4.48855
0
LINE
8
BLACK
6
CONTINUOUS
10
7.58822
20
-4.48855
11
7.5863
21
-4.48567
0
LINE
8
BLACK
6
CONTINUOUS
10
7.5863
20
-4.48567
11
7.58563
21
-4.48228
0
LINE
8
BLACK
6
CONTINUOUS
10
7.58563
20
-4.48228
11
7.58563
21
-4.4626
0
LINE
8
BLACK
6
CONTINUOUS
10
7.58563
20
-4.4626
11
7.5863
21
-4.45921
0
LINE
8
BLACK
6
CONTINUOUS
10
7.5863
20
-4.45921
11
7.58822
21
-4.45633
0
LINE
8
BLACK
6
CONTINUOUS
10
7.58822
20
-4.45633
11
7.5911
21
-4.45441
0
LINE
8
BLACK
6
CONTINUOUS
10
7.5911
20
-4.45441
11
7.59449
21
-4.45374
0
LINE
8
BLACK
6
CONTINUOUS
10
7.59449
20
-4.45374
11
7.6122
21
-4.45374
0
LINE
8
BLACK
6
CONTINUOUS
10
7.6122
20
-4.45374
11
7.61559
21
-4.45441
0
LINE
8
BLACK
6
CONTINUOUS
10
8.50774
20
-4.46025
11
8.50947
21
-4.4614
0
LINE
8
BLACK
6
CONTINUOUS
10
8.50947
20
-4.4614
11
8.51062
21
-4.46312
0
LINE
8
BLACK
6
CONTINUOUS
10
8.51062
20
-4.46312
11
8.51102
21
-4.46516
0
LINE
8
BLACK
6
CONTINUOUS
10
8.51102
20
-4.46516
11
8.51102
21
-4.47972
0
LINE
8
BLACK
6
CONTINUOUS
10
8.51102
20
-4.47972
11
8.51062
21
-4.48176
0
LINE
8
BLACK
6
CONTINUOUS
10
8.51062
20
-4.48176
11
8.50947
21
-4.48348
0
LINE
8
BLACK
6
CONTINUOUS
10
8.50947
20
-4.48348
11
8.50774
21
-4.48463
0
LINE
8
BLACK
6
CONTINUOUS
10
8.50774
20
-4.48463
11
8.50571
21
-4.48504
0
LINE
8
BLACK
6
CONTINUOUS
10
8.50571
20
-4.48504
11
8.49508
21
-4.48504
0
LINE
8
BLACK
6
CONTINUOUS
10
8.49508
20
-4.48504
11
8.49304
21
-4.48463
0
LINE
8
BLACK
6
CONTINUOUS
10
8.49304
20
-4.48463
11
8.49132
21
-4.48348
0
LINE
8
BLACK
6
CONTINUOUS
10
8.49132
20
-4.48348
11
8.49017
21
-4.48176
0
LINE
8
BLACK
6
CONTINUOUS
10
8.49017
20
-4.48176
11
8.48976
21
-4.47972
0
LINE
8
BLACK
6
CONTINUOUS
10
8.48976
20
-4.47972
11
8.48976
21
-4.46516
0
LINE
8
BLACK
6
CONTINUOUS
10
8.48976
20
-4.46516
11
8.49017
21
-4.46312
0
LINE
8
BLACK
6
CONTINUOUS
10
8.49017
20
-4.46312
11
8.49132
21
-4.4614
0
LINE
8
BLACK
6
CONTINUOUS
10
8.49132
20
-4.4614
11
8.49304
21
-4.46025
0
LINE
8
BLACK
6
CONTINUOUS
10
8.49304
20
-4.46025
11
8.49508
21
-4.45984
0
LINE
8
BLACK
6
CONTINUOUS
10
8.49508
20
-4.45984
11
8.50571
21
-4.45984
0
LINE
8
BLACK
6
CONTINUOUS
10
8.50571
20
-4.45984
11
8.50774
21
-4.46025
0
LINE
8
BLACK
6
CONTINUOUS
10
8.46759
20
-4.46025
11
8.46931
21
-4.4614
0
LINE
8
BLACK
6
CONTINUOUS
10
8.46931
20
-4.4614
11
8.47046
21
-4.46312
0
LINE
8
BLACK
6
CONTINUOUS
10
8.47046
20
-4.46312
11
8.47087
21
-4.46516
0
LINE
8
BLACK
6
CONTINUOUS
10
8.47087
20
-4.46516
11
8.47087
21
-4.47972
0
LINE
8
BLACK
6
CONTINUOUS
10
8.47087
20
-4.47972
11
8.47046
21
-4.48176
0
LINE
8
BLACK
6
CONTINUOUS
10
8.47046
20
-4.48176
11
8.46931
21
-4.48348
0
LINE
8
BLACK
6
CONTINUOUS
10
8.46931
20
-4.48348
11
8.46759
21
-4.48463
0
LINE
8
BLACK
6
CONTINUOUS
10
8.46759
20
-4.48463
11
8.46555
21
-4.48504
0
LINE
8
BLACK
6
CONTINUOUS
10
8.46555
20
-4.48504
11
8.45492
21
-4.48504
0
LINE
8
BLACK
6
CONTINUOUS
10
8.45492
20
-4.48504
11
8.45289
21
-4.48463
0
LINE
8
BLACK
6
CONTINUOUS
10
8.45289
20
-4.48463
11
8.45116
21
-4.48348
0
LINE
8
BLACK
6
CONTINUOUS
10
8.45116
20
-4.48348
11
8.45001
21
-4.48176
0
LINE
8
BLACK
6
CONTINUOUS
10
8.45001
20
-4.48176
11
8.44961
21
-4.47972
0
LINE
8
BLACK
6
CONTINUOUS
10
8.44961
20
-4.47972
11
8.44961
21
-4.46516
0
LINE
8
BLACK
6
CONTINUOUS
10
8.44961
20
-4.46516
11
8.45001
21
-4.46312
0
LINE
8
BLACK
6
CONTINUOUS
10
8.45001
20
-4.46312
11
8.45116
21
-4.4614
0
LINE
8
BLACK
6
CONTINUOUS
10
8.45116
20
-4.4614
11
8.45289
21
-4.46025
0
LINE
8
BLACK
6
CONTINUOUS
10
8.45289
20
-4.46025
11
8.45492
21
-4.45984
0
LINE
8
BLACK
6
CONTINUOUS
10
8.45492
20
-4.45984
11
8.46555
21
-4.45984
0
LINE
8
BLACK
6
CONTINUOUS
10
8.46555
20
-4.45984
11
8.46759
21
-4.46025
0
LINE
8
BLACK
6
CONTINUOUS
10
8.06444
20
-4.45867
11
8.06616
21
-4.45982
0
LINE
8
BLACK
6
CONTINUOUS
10
8.06616
20
-4.45982
11
8.06731
21
-4.46155
0
LINE
8
BLACK
6
CONTINUOUS
10
8.06731
20
-4.46155
11
8.06772
21
-4.46358
0
LINE
8
BLACK
6
CONTINUOUS
10
8.06772
20
-4.46358
11
8.06772
21
-4.47421
0
LINE
8
BLACK
6
CONTINUOUS
10
8.06772
20
-4.47421
11
8.06731
21
-4.47625
0
LINE
8
BLACK
6
CONTINUOUS
10
8.06731
20
-4.47625
11
8.06616
21
-4.47797
0
LINE
8
BLACK
6
CONTINUOUS
10
8.06616
20
-4.47797
11
8.06444
21
-4.47912
0
LINE
8
BLACK
6
CONTINUOUS
10
8.06444
20
-4.47912
11
8.0624
21
-4.47953
0
LINE
8
BLACK
6
CONTINUOUS
10
8.0624
20
-4.47953
11
8.04783
21
-4.47953
0
LINE
8
BLACK
6
CONTINUOUS
10
8.04783
20
-4.47953
11
8.0458
21
-4.47912
0
LINE
8
BLACK
6
CONTINUOUS
10
8.0458
20
-4.47912
11
8.04408
21
-4.47797
0
LINE
8
BLACK
6
CONTINUOUS
10
8.04408
20
-4.47797
11
8.04292
21
-4.47625
0
LINE
8
BLACK
6
CONTINUOUS
10
8.04292
20
-4.47625
11
8.04252
21
-4.47421
0
LINE
8
BLACK
6
CONTINUOUS
10
8.04252
20
-4.47421
11
8.04252
21
-4.46358
0
LINE
8
BLACK
6
CONTINUOUS
10
8.04252
20
-4.46358
11
8.04292
21
-4.46155
0
LINE
8
BLACK
6
CONTINUOUS
10
8.04292
20
-4.46155
11
8.04408
21
-4.45982
0
LINE
8
BLACK
6
CONTINUOUS
10
8.04408
20
-4.45982
11
8.0458
21
-4.45867
0
LINE
8
BLACK
6
CONTINUOUS
10
8.0458
20
-4.45867
11
8.04783
21
-4.45827
0
LINE
8
BLACK
6
CONTINUOUS
10
8.04783
20
-4.45827
11
8.0624
21
-4.45827
0
LINE
8
BLACK
6
CONTINUOUS
10
8.0624
20
-4.45827
11
8.06444
21
-4.45867
0
LINE
8
BLACK
6
CONTINUOUS
10
8.29018
20
-4.43579
11
8.29338
21
-4.43792
0
LINE
8
BLACK
6
CONTINUOUS
10
8.29338
20
-4.43792
11
8.29551
21
-4.44112
0
LINE
8
BLACK
6
CONTINUOUS
10
8.29551
20
-4.44112
11
8.29626
21
-4.44488
0
LINE
8
BLACK
6
CONTINUOUS
10
8.29626
20
-4.44488
11
8.29626
21
-4.46457
0
LINE
8
BLACK
6
CONTINUOUS
10
8.29626
20
-4.46457
11
8.29551
21
-4.46833
0
LINE
8
BLACK
6
CONTINUOUS
10
8.29551
20
-4.46833
11
8.29338
21
-4.47153
0
LINE
8
BLACK
6
CONTINUOUS
10
8.29338
20
-4.47153
11
8.29018
21
-4.47366
0
LINE
8
BLACK
6
CONTINUOUS
10
8.29018
20
-4.47366
11
8.28642
21
-4.47441
0
LINE
8
BLACK
6
CONTINUOUS
10
8.28642
20
-4.47441
11
8.24902
21
-4.47441
0
LINE
8
BLACK
6
CONTINUOUS
10
8.24902
20
-4.47441
11
8.24525
21
-4.47366
0
LINE
8
BLACK
6
CONTINUOUS
10
8.24525
20
-4.47366
11
8.24206
21
-4.47153
0
LINE
8
BLACK
6
CONTINUOUS
10
8.24206
20
-4.47153
11
8.23992
21
-4.46833
0
LINE
8
BLACK
6
CONTINUOUS
10
8.23992
20
-4.46833
11
8.23917
21
-4.46457
0
LINE
8
BLACK
6
CONTINUOUS
10
8.23917
20
-4.46457
11
8.23917
21
-4.44488
0
LINE
8
BLACK
6
CONTINUOUS
10
8.23917
20
-4.44488
11
8.23992
21
-4.44112
0
LINE
8
BLACK
6
CONTINUOUS
10
8.23992
20
-4.44112
11
8.24206
21
-4.43792
0
LINE
8
BLACK
6
CONTINUOUS
10
8.24206
20
-4.43792
11
8.24525
21
-4.43579
0
LINE
8
BLACK
6
CONTINUOUS
10
8.24525
20
-4.43579
11
8.24902
21
-4.43504
0
LINE
8
BLACK
6
CONTINUOUS
10
8.24902
20
-4.43504
11
8.28642
21
-4.43504
0
LINE
8
BLACK
6
CONTINUOUS
10
8.28642
20
-4.43504
11
8.29018
21
-4.43579
0
LINE
8
BLACK
6
CONTINUOUS
10
8.00823
20
-4.42366
11
8.01226
21
-4.42554
0
LINE
8
BLACK
6
CONTINUOUS
10
8.01226
20
-4.42554
11
8.0154
21
-4.42868
0
LINE
8
BLACK
6
CONTINUOUS
10
8.0154
20
-4.42868
11
8.01728
21
-4.43271
0
LINE
8
BLACK
6
CONTINUOUS
10
8.01728
20
-4.43271
11
8.01772
21
-4.43602
0
LINE
8
BLACK
6
CONTINUOUS
10
8.01772
20
-4.43602
11
8.01772
21
-4.46161
0
LINE
8
BLACK
6
CONTINUOUS
10
8.01772
20
-4.46161
11
8.01728
21
-4.46493
0
LINE
8
BLACK
6
CONTINUOUS
10
8.01728
20
-4.46493
11
8.0154
21
-4.46895
0
LINE
8
BLACK
6
CONTINUOUS
10
8.0154
20
-4.46895
11
8.01226
21
-4.4721
0
LINE
8
BLACK
6
CONTINUOUS
10
8.01226
20
-4.4721
11
8.00823
21
-4.47397
0
LINE
8
BLACK
6
CONTINUOUS
10
8.00823
20
-4.47397
11
8.00492
21
-4.47441
0
LINE
8
BLACK
6
CONTINUOUS
10
8.00492
20
-4.47441
11
7.97933
21
-4.47441
0
LINE
8
BLACK
6
CONTINUOUS
10
7.97933
20
-4.47441
11
7.97602
21
-4.47397
0
LINE
8
BLACK
6
CONTINUOUS
10
7.97602
20
-4.47397
11
7.97199
21
-4.4721
0
LINE
8
BLACK
6
CONTINUOUS
10
7.97199
20
-4.4721
11
7.96885
21
-4.46895
0
LINE
8
BLACK
6
CONTINUOUS
10
7.96885
20
-4.46895
11
7.96697
21
-4.46493
0
LINE
8
BLACK
6
CONTINUOUS
10
7.96697
20
-4.46493
11
7.96654
21
-4.46161
0
LINE
8
BLACK
6
CONTINUOUS
10
7.96654
20
-4.46161
11
7.96654
21
-4.43602
0
LINE
8
BLACK
6
CONTINUOUS
10
7.96654
20
-4.43602
11
7.96697
21
-4.43271
0
LINE
8
BLACK
6
CONTINUOUS
10
7.96697
20
-4.43271
11
7.96885
21
-4.42868
0
LINE
8
BLACK
6
CONTINUOUS
10
7.96885
20
-4.42868
11
7.97199
21
-4.42554
0
LINE
8
BLACK
6
CONTINUOUS
10
7.97199
20
-4.42554
11
7.97602
21
-4.42366
0
LINE
8
BLACK
6
CONTINUOUS
10
7.97602
20
-4.42366
11
7.97933
21
-4.42323
0
LINE
8
BLACK
6
CONTINUOUS
10
7.97933
20
-4.42323
11
8.00492
21
-4.42323
0
LINE
8
BLACK
6
CONTINUOUS
10
8.00492
20
-4.42323
11
8.00823
21
-4.42366
0
LINE
8
BLACK
6
CONTINUOUS
10
8.1854
20
-4.42366
11
8.18943
21
-4.42554
0
LINE
8
BLACK
6
CONTINUOUS
10
8.18943
20
-4.42554
11
8.19257
21
-4.42868
0
LINE
8
BLACK
6
CONTINUOUS
10
8.19257
20
-4.42868
11
8.19445
21
-4.43271
0
LINE
8
BLACK
6
CONTINUOUS
10
8.19445
20
-4.43271
11
8.19488
21
-4.43602
0
LINE
8
BLACK
6
CONTINUOUS
10
8.19488
20
-4.43602
11
8.19488
21
-4.46161
0
LINE
8
BLACK
6
CONTINUOUS
10
8.19488
20
-4.46161
11
8.19445
21
-4.46493
0
LINE
8
BLACK
6
CONTINUOUS
10
8.19445
20
-4.46493
11
8.19257
21
-4.46895
0
LINE
8
BLACK
6
CONTINUOUS
10
8.19257
20
-4.46895
11
8.18943
21
-4.4721
0
LINE
8
BLACK
6
CONTINUOUS
10
8.18943
20
-4.4721
11
8.1854
21
-4.47397
0
LINE
8
BLACK
6
CONTINUOUS
10
8.1854
20
-4.47397
11
8.18209
21
-4.47441
0
LINE
8
BLACK
6
CONTINUOUS
10
8.18209
20
-4.47441
11
8.1565
21
-4.47441
0
LINE
8
BLACK
6
CONTINUOUS
10
8.1565
20
-4.47441
11
8.15318
21
-4.47397
0
LINE
8
BLACK
6
CONTINUOUS
10
8.15318
20
-4.47397
11
8.14916
21
-4.4721
0
LINE
8
BLACK
6
CONTINUOUS
10
8.14916
20
-4.4721
11
8.14601
21
-4.46895
0
LINE
8
BLACK
6
CONTINUOUS
10
8.14601
20
-4.46895
11
8.14414
21
-4.46493
0
LINE
8
BLACK
6
CONTINUOUS
10
8.14414
20
-4.46493
11
8.1437
21
-4.46161
0
LINE
8
BLACK
6
CONTINUOUS
10
8.1437
20
-4.46161
11
8.1437
21
-4.43602
0
LINE
8
BLACK
6
CONTINUOUS
10
8.1437
20
-4.43602
11
8.14414
21
-4.43271
0
LINE
8
BLACK
6
CONTINUOUS
10
8.14414
20
-4.43271
11
8.14601
21
-4.42868
0
LINE
8
BLACK
6
CONTINUOUS
10
8.14601
20
-4.42868
11
8.14916
21
-4.42554
0
LINE
8
BLACK
6
CONTINUOUS
10
8.14916
20
-4.42554
11
8.15318
21
-4.42366
0
LINE
8
BLACK
6
CONTINUOUS
10
8.15318
20
-4.42366
11
8.1565
21
-4.42323
0
LINE
8
BLACK
6
CONTINUOUS
10
8.1565
20
-4.42323
11
8.18209
21
-4.42323
0
LINE
8
BLACK
6
CONTINUOUS
10
8.18209
20
-4.42323
11
8.1854
21
-4.42366
0
LINE
8
BLACK
6
CONTINUOUS
10
8.58609
20
-4.43663
11
8.58781
21
-4.43778
0
LINE
8
BLACK
6
CONTINUOUS
10
8.58781
20
-4.43778
11
8.58897
21
-4.4395
0
LINE
8
BLACK
6
CONTINUOUS
10
8.58897
20
-4.4395
11
8.58937
21
-4.44154
0
LINE
8
BLACK
6
CONTINUOUS
10
8.58937
20
-4.44154
11
8.58937
21
-4.4561
0
LINE
8
BLACK
6
CONTINUOUS
10
8.58937
20
-4.4561
11
8.58897
21
-4.45814
0
LINE
8
BLACK
6
CONTINUOUS
10
8.58897
20
-4.45814
11
8.58781
21
-4.45986
0
LINE
8
BLACK
6
CONTINUOUS
10
8.58781
20
-4.45986
11
8.58609
21
-4.46101
0
LINE
8
BLACK
6
CONTINUOUS
10
8.58609
20
-4.46101
11
8.58406
21
-4.46142
0
LINE
8
BLACK
6
CONTINUOUS
10
8.58406
20
-4.46142
11
8.57343
21
-4.46142
0
LINE
8
BLACK
6
CONTINUOUS
10
8.57343
20
-4.46142
11
8.57139
21
-4.46101
0
LINE
8
BLACK
6
CONTINUOUS
10
8.57139
20
-4.46101
11
8.56967
21
-4.45986
0
LINE
8
BLACK
6
CONTINUOUS
10
8.56967
20
-4.45986
11
8.56851
21
-4.45814
0
LINE
8
BLACK
6
CONTINUOUS
10
8.56851
20
-4.45814
11
8.56811
21
-4.4561
0
LINE
8
BLACK
6
CONTINUOUS
10
8.56811
20
-4.4561
11
8.56811
21
-4.44154
0
LINE
8
BLACK
6
CONTINUOUS
10
8.56811
20
-4.44154
11
8.56851
21
-4.4395
0
LINE
8
BLACK
6
CONTINUOUS
10
8.56851
20
-4.4395
11
8.56967
21
-4.43778
0
LINE
8
BLACK
6
CONTINUOUS
10
8.56967
20
-4.43778
11
8.57139
21
-4.43663
0
LINE
8
BLACK
6
CONTINUOUS
10
8.57139
20
-4.43663
11
8.57343
21
-4.43622
0
LINE
8
BLACK
6
CONTINUOUS
10
8.57343
20
-4.43622
11
8.58406
21
-4.43622
0
LINE
8
BLACK
6
CONTINUOUS
10
8.58406
20
-4.43622
11
8.58609
21
-4.43663
0
LINE
8
BLACK
6
CONTINUOUS
10
7.84947
20
-4.43663
11
7.8512
21
-4.43778
0
LINE
8
BLACK
6
CONTINUOUS
10
7.8512
20
-4.43778
11
7.85235
21
-4.4395
0
LINE
8
BLACK
6
CONTINUOUS
10
7.85235
20
-4.4395
11
7.85276
21
-4.44154
0
LINE
8
BLACK
6
CONTINUOUS
10
7.85276
20
-4.44154
11
7.85276
21
-4.4561
0
LINE
8
BLACK
6
CONTINUOUS
10
7.85276
20
-4.4561
11
7.85235
21
-4.45814
0
LINE
8
BLACK
6
CONTINUOUS
10
7.85235
20
-4.45814
11
7.8512
21
-4.45986
0
LINE
8
BLACK
6
CONTINUOUS
10
7.8512
20
-4.45986
11
7.84947
21
-4.46101
0
LINE
8
BLACK
6
CONTINUOUS
10
7.84947
20
-4.46101
11
7.84744
21
-4.46142
0
LINE
8
BLACK
6
CONTINUOUS
10
7.84744
20
-4.46142
11
7.83681
21
-4.46142
0
LINE
8
BLACK
6
CONTINUOUS
10
7.83681
20
-4.46142
11
7.83478
21
-4.46101
0
LINE
8
BLACK
6
CONTINUOUS
10
7.83478
20
-4.46101
11
7.83305
21
-4.45986
0
LINE
8
BLACK
6
CONTINUOUS
10
7.83305
20
-4.45986
11
7.8319
21
-4.45814
0
LINE
8
BLACK
6
CONTINUOUS
10
7.8319
20
-4.45814
11
7.8315
21
-4.4561
0
LINE
8
BLACK
6
CONTINUOUS
10
7.8315
20
-4.4561
11
7.8315
21
-4.44154
0
LINE
8
BLACK
6
CONTINUOUS
10
7.8315
20
-4.44154
11
7.8319
21
-4.4395
0
LINE
8
BLACK
6
CONTINUOUS
10
7.8319
20
-4.4395
11
7.83305
21
-4.43778
0
LINE
8
BLACK
6
CONTINUOUS
10
7.83305
20
-4.43778
11
7.83478
21
-4.43663
0
LINE
8
BLACK
6
CONTINUOUS
10
7.83478
20
-4.43663
11
7.83681
21
-4.43622
0
LINE
8
BLACK
6
CONTINUOUS
10
7.83681
20
-4.43622
11
7.84744
21
-4.43622
0
LINE
8
BLACK
6
CONTINUOUS
10
7.84744
20
-4.43622
11
7.84947
21
-4.43663
0
LINE
8
BLACK
6
CONTINUOUS
10
7.88963
20
-4.43663
11
7.89136
21
-4.43778
0
LINE
8
BLACK
6
CONTINUOUS
10
7.89136
20
-4.43778
11
7.89251
21
-4.4395
0
LINE
8
BLACK
6
CONTINUOUS
10
7.89251
20
-4.4395
11
7.89291
21
-4.44154
0
LINE
8
BLACK
6
CONTINUOUS
10
7.89291
20
-4.44154
11
7.89291
21
-4.4561
0
LINE
8
BLACK
6
CONTINUOUS
10
7.89291
20
-4.4561
11
7.89251
21
-4.45814
0
LINE
8
BLACK
6
CONTINUOUS
10
7.89251
20
-4.45814
11
7.89136
21
-4.45986
0
LINE
8
BLACK
6
CONTINUOUS
10
7.89136
20
-4.45986
11
7.88963
21
-4.46101
0
LINE
8
BLACK
6
CONTINUOUS
10
7.88963
20
-4.46101
11
7.8876
21
-4.46142
0
LINE
8
BLACK
6
CONTINUOUS
10
7.8876
20
-4.46142
11
7.87697
21
-4.46142
0
LINE
8
BLACK
6
CONTINUOUS
10
7.87697
20
-4.46142
11
7.87493
21
-4.46101
0
LINE
8
BLACK
6
CONTINUOUS
10
7.87493
20
-4.46101
11
7.87321
21
-4.45986
0
LINE
8
BLACK
6
CONTINUOUS
10
7.87321
20
-4.45986
11
7.87206
21
-4.45814
0
LINE
8
BLACK
6
CONTINUOUS
10
7.87206
20
-4.45814
11
7.87165
21
-4.4561
0
LINE
8
BLACK
6
CONTINUOUS
10
7.87165
20
-4.4561
11
7.87165
21
-4.44154
0
LINE
8
BLACK
6
CONTINUOUS
10
7.87165
20
-4.44154
11
7.87206
21
-4.4395
0
LINE
8
BLACK
6
CONTINUOUS
10
7.87206
20
-4.4395
11
7.87321
21
-4.43778
0
LINE
8
BLACK
6
CONTINUOUS
10
7.87321
20
-4.43778
11
7.87493
21
-4.43663
0
LINE
8
BLACK
6
CONTINUOUS
10
7.87493
20
-4.43663
11
7.87697
21
-4.43622
0
LINE
8
BLACK
6
CONTINUOUS
10
7.87697
20
-4.43622
11
7.8876
21
-4.43622
0
LINE
8
BLACK
6
CONTINUOUS
10
7.8876
20
-4.43622
11
7.88963
21
-4.43663
0
LINE
8
BLACK
6
CONTINUOUS
10
8.54593
20
-4.43663
11
8.54766
21
-4.43778
0
LINE
8
BLACK
6
CONTINUOUS
10
8.54766
20
-4.43778
11
8.54881
21
-4.4395
0
LINE
8
BLACK
6
CONTINUOUS
10
8.54881
20
-4.4395
11
8.54921
21
-4.44154
0
LINE
8
BLACK
6
CONTINUOUS
10
8.54921
20
-4.44154
11
8.54921
21
-4.4561
0
LINE
8
BLACK
6
CONTINUOUS
10
8.54921
20
-4.4561
11
8.54881
21
-4.45814
0
LINE
8
BLACK
6
CONTINUOUS
10
8.54881
20
-4.45814
11
8.54766
21
-4.45986
0
LINE
8
BLACK
6
CONTINUOUS
10
8.54766
20
-4.45986
11
8.54593
21
-4.46101
0
LINE
8
BLACK
6
CONTINUOUS
10
8.54593
20
-4.46101
11
8.5439
21
-4.46142
0
LINE
8
BLACK
6
CONTINUOUS
10
8.5439
20
-4.46142
11
8.53327
21
-4.46142
0
LINE
8
BLACK
6
CONTINUOUS
10
8.53327
20
-4.46142
11
8.53123
21
-4.46101
0
LINE
8
BLACK
6
CONTINUOUS
10
8.53123
20
-4.46101
11
8.52951
21
-4.45986
0
LINE
8
BLACK
6
CONTINUOUS
10
8.52951
20
-4.45986
11
8.52836
21
-4.45814
0
LINE
8
BLACK
6
CONTINUOUS
10
8.52836
20
-4.45814
11
8.52795
21
-4.4561
0
LINE
8
BLACK
6
CONTINUOUS
10
8.52795
20
-4.4561
11
8.52795
21
-4.44154
0
LINE
8
BLACK
6
CONTINUOUS
10
8.52795
20
-4.44154
11
8.52836
21
-4.4395
0
LINE
8
BLACK
6
CONTINUOUS
10
8.52836
20
-4.4395
11
8.52951
21
-4.43778
0
LINE
8
BLACK
6
CONTINUOUS
10
8.52951
20
-4.43778
11
8.53123
21
-4.43663
0
LINE
8
BLACK
6
CONTINUOUS
10
8.53123
20
-4.43663
11
8.53327
21
-4.43622
0
LINE
8
BLACK
6
CONTINUOUS
10
8.53327
20
-4.43622
11
8.5439
21
-4.43622
0
LINE
8
BLACK
6
CONTINUOUS
10
8.5439
20
-4.43622
11
8.54593
21
-4.43663
0
LINE
8
BLACK
6
CONTINUOUS
10
7.25566
20
-4.28225
11
7.26702
21
-4.28451
0
LINE
8
BLACK
6
CONTINUOUS
10
7.26702
20
-4.28451
11
7.27799
21
-4.28824
0
LINE
8
BLACK
6
CONTINUOUS
10
7.27799
20
-4.28824
11
7.28839
21
-4.29336
0
LINE
8
BLACK
6
CONTINUOUS
10
7.28839
20
-4.29336
11
7.29802
21
-4.2998
0
LINE
8
BLACK
6
CONTINUOUS
10
7.29802
20
-4.2998
11
7.30673
21
-4.30744
0
LINE
8
BLACK
6
CONTINUOUS
10
7.30673
20
-4.30744
11
7.31437
21
-4.31615
0
LINE
8
BLACK
6
CONTINUOUS
10
7.31437
20
-4.31615
11
7.32081
21
-4.32579
0
LINE
8
BLACK
6
CONTINUOUS
10
7.32081
20
-4.32579
11
7.32593
21
-4.33618
0
LINE
8
BLACK
6
CONTINUOUS
10
7.32593
20
-4.33618
11
7.32966
21
-4.34715
0
LINE
8
BLACK
6
CONTINUOUS
10
7.32966
20
-4.34715
11
7.33192
21
-4.35852
0
LINE
8
BLACK
6
CONTINUOUS
10
7.33192
20
-4.35852
11
7.33268
21
-4.37008
0
LINE
8
BLACK
6
CONTINUOUS
10
7.33268
20
-4.37008
11
7.33192
21
-4.38164
0
LINE
8
BLACK
6
CONTINUOUS
10
7.33192
20
-4.38164
11
7.32966
21
-4.39301
0
LINE
8
BLACK
6
CONTINUOUS
10
7.32966
20
-4.39301
11
7.32593
21
-4.40398
0
LINE
8
BLACK
6
CONTINUOUS
10
7.32593
20
-4.40398
11
7.32081
21
-4.41437
0
LINE
8
BLACK
6
CONTINUOUS
10
7.32081
20
-4.41437
11
7.31437
21
-4.424
0
LINE
8
BLACK
6
CONTINUOUS
10
7.31437
20
-4.424
11
7.30673
21
-4.43272
0
LINE
8
BLACK
6
CONTINUOUS
10
7.30673
20
-4.43272
11
7.29802
21
-4.44036
0
LINE
8
BLACK
6
CONTINUOUS
10
7.29802
20
-4.44036
11
7.28839
21
-4.44679
0
LINE
8
BLACK
6
CONTINUOUS
10
7.28839
20
-4.44679
11
7.27799
21
-4.45192
0
LINE
8
BLACK
6
CONTINUOUS
10
7.27799
20
-4.45192
11
7.26702
21
-4.45564
0
LINE
8
BLACK
6
CONTINUOUS
10
7.26702
20
-4.45564
11
7.25566
21
-4.4579
0
LINE
8
BLACK
6
CONTINUOUS
10
7.25566
20
-4.4579
11
7.24409
21
-4.45866
0
LINE
8
BLACK
6
CONTINUOUS
10
7.24409
20
-4.45866
11
7.23253
21
-4.4579
0
LINE
8
BLACK
6
CONTINUOUS
10
7.23253
20
-4.4579
11
7.22117
21
-4.45564
0
LINE
8
BLACK
6
CONTINUOUS
10
7.22117
20
-4.45564
11
7.2102
21
-4.45192
0
LINE
8
BLACK
6
CONTINUOUS
10
7.2102
20
-4.45192
11
7.1998
21
-4.44679
0
LINE
8
BLACK
6
CONTINUOUS
10
7.1998
20
-4.44679
11
7.19017
21
-4.44036
0
LINE
8
BLACK
6
CONTINUOUS
10
7.19017
20
-4.44036
11
7.18146
21
-4.43272
0
LINE
8
BLACK
6
CONTINUOUS
10
7.18146
20
-4.43272
11
7.17382
21
-4.424
0
LINE
8
BLACK
6
CONTINUOUS
10
7.17382
20
-4.424
11
7.16738
21
-4.41437
0
LINE
8
BLACK
6
CONTINUOUS
10
7.16738
20
-4.41437
11
7.16225
21
-4.40398
0
LINE
8
BLACK
6
CONTINUOUS
10
7.16225
20
-4.40398
11
7.15853
21
-4.39301
0
LINE
8
BLACK
6
CONTINUOUS
10
7.15853
20
-4.39301
11
7.15627
21
-4.38164
0
LINE
8
BLACK
6
CONTINUOUS
10
7.15627
20
-4.38164
11
7.15551
21
-4.37008
0
LINE
8
BLACK
6
CONTINUOUS
10
7.15551
20
-4.37008
11
7.15627
21
-4.35852
0
LINE
8
BLACK
6
CONTINUOUS
10
7.15627
20
-4.35852
11
7.15853
21
-4.34715
0
LINE
8
BLACK
6
CONTINUOUS
10
7.15853
20
-4.34715
11
7.16225
21
-4.33618
0
LINE
8
BLACK
6
CONTINUOUS
10
7.16225
20
-4.33618
11
7.16738
21
-4.32579
0
LINE
8
BLACK
6
CONTINUOUS
10
7.16738
20
-4.32579
11
7.17382
21
-4.31615
0
LINE
8
BLACK
6
CONTINUOUS
10
7.17382
20
-4.31615
11
7.18146
21
-4.30744
0
LINE
8
BLACK
6
CONTINUOUS
10
7.18146
20
-4.30744
11
7.19017
21
-4.2998
0
LINE
8
BLACK
6
CONTINUOUS
10
7.19017
20
-4.2998
11
7.1998
21
-4.29336
0
LINE
8
BLACK
6
CONTINUOUS
10
7.1998
20
-4.29336
11
7.2102
21
-4.28824
0
LINE
8
BLACK
6
CONTINUOUS
10
7.2102
20
-4.28824
11
7.22117
21
-4.28451
0
LINE
8
BLACK
6
CONTINUOUS
10
7.22117
20
-4.28451
11
7.23253
21
-4.28225
0
LINE
8
BLACK
6
CONTINUOUS
10
7.23253
20
-4.28225
11
7.24409
21
-4.2815
0
LINE
8
BLACK
6
CONTINUOUS
10
7.24409
20
-4.2815
11
7.25566
21
-4.28225
0
LINE
8
BLACK
6
CONTINUOUS
10
8.9092
20
-4.28225
11
8.92056
21
-4.28451
0
LINE
8
BLACK
6
CONTINUOUS
10
8.92056
20
-4.28451
11
8.93154
21
-4.28824
0
LINE
8
BLACK
6
CONTINUOUS
10
8.93154
20
-4.28824
11
8.94193
21
-4.29336
0
LINE
8
BLACK
6
CONTINUOUS
10
8.94193
20
-4.29336
11
8.95156
21
-4.2998
0
LINE
8
BLACK
6
CONTINUOUS
10
8.95156
20
-4.2998
11
8.96028
21
-4.30744
0
LINE
8
BLACK
6
CONTINUOUS
10
8.96028
20
-4.30744
11
8.96792
21
-4.31615
0
LINE
8
BLACK
6
CONTINUOUS
10
8.96792
20
-4.31615
11
8.97435
21
-4.32579
0
LINE
8
BLACK
6
CONTINUOUS
10
8.97435
20
-4.32579
11
8.97948
21
-4.33618
0
LINE
8
BLACK
6
CONTINUOUS
10
8.97948
20
-4.33618
11
8.9832
21
-4.34715
0
LINE
8
BLACK
6
CONTINUOUS
10
8.9832
20
-4.34715
11
8.98546
21
-4.35852
0
LINE
8
BLACK
6
CONTINUOUS
10
8.98546
20
-4.35852
11
8.98622
21
-4.37008
0
LINE
8
BLACK
6
CONTINUOUS
10
8.98622
20
-4.37008
11
8.98546
21
-4.38164
0
LINE
8
BLACK
6
CONTINUOUS
10
8.98546
20
-4.38164
11
8.9832
21
-4.39301
0
LINE
8
BLACK
6
CONTINUOUS
10
8.9832
20
-4.39301
11
8.97948
21
-4.40398
0
LINE
8
BLACK
6
CONTINUOUS
10
8.97948
20
-4.40398
11
8.97435
21
-4.41437
0
LINE
8
BLACK
6
CONTINUOUS
10
8.97435
20
-4.41437
11
8.96792
21
-4.424
0
LINE
8
BLACK
6
CONTINUOUS
10
8.96792
20
-4.424
11
8.96028
21
-4.43272
0
LINE
8
BLACK
6
CONTINUOUS
10
8.96028
20
-4.43272
11
8.95156
21
-4.44036
0
LINE
8
BLACK
6
CONTINUOUS
10
8.95156
20
-4.44036
11
8.94193
21
-4.44679
0
LINE
8
BLACK
6
CONTINUOUS
10
8.94193
20
-4.44679
11
8.93154
21
-4.45192
0
LINE
8
BLACK
6
CONTINUOUS
10
8.93154
20
-4.45192
11
8.92056
21
-4.45564
0
LINE
8
BLACK
6
CONTINUOUS
10
8.92056
20
-4.45564
11
8.9092
21
-4.4579
0
LINE
8
BLACK
6
CONTINUOUS
10
8.9092
20
-4.4579
11
8.89764
21
-4.45866
0
LINE
8
BLACK
6
CONTINUOUS
10
8.89764
20
-4.45866
11
8.88608
21
-4.4579
0
LINE
8
BLACK
6
CONTINUOUS
10
8.88608
20
-4.4579
11
8.87471
21
-4.45564
0
LINE
8
BLACK
6
CONTINUOUS
10
8.87471
20
-4.45564
11
8.86374
21
-4.45192
0
LINE
8
BLACK
6
CONTINUOUS
10
8.86374
20
-4.45192
11
8.85335
21
-4.44679
0
LINE
8
BLACK
6
CONTINUOUS
10
8.85335
20
-4.44679
11
8.84371
21
-4.44036
0
LINE
8
BLACK
6
CONTINUOUS
10
8.84371
20
-4.44036
11
8.835
21
-4.43272
0
LINE
8
BLACK
6
CONTINUOUS
10
8.835
20
-4.43272
11
8.82736
21
-4.424
0
LINE
8
BLACK
6
CONTINUOUS
10
8.82736
20
-4.424
11
8.82092
21
-4.41437
0
LINE
8
BLACK
6
CONTINUOUS
10
8.82092
20
-4.41437
11
8.8158
21
-4.40398
0
LINE
8
BLACK
6
CONTINUOUS
10
8.8158
20
-4.40398
11
8.81207
21
-4.39301
0
LINE
8
BLACK
6
CONTINUOUS
10
8.81207
20
-4.39301
11
8.80981
21
-4.38164
0
LINE
8
BLACK
6
CONTINUOUS
10
8.80981
20
-4.38164
11
8.80906
21
-4.37008
0
LINE
8
BLACK
6
CONTINUOUS
10
8.80906
20
-4.37008
11
8.80981
21
-4.35852
0
LINE
8
BLACK
6
CONTINUOUS
10
8.80981
20
-4.35852
11
8.81207
21
-4.34715
0
LINE
8
BLACK
6
CONTINUOUS
10
8.81207
20
-4.34715
11
8.8158
21
-4.33618
0
LINE
8
BLACK
6
CONTINUOUS
10
8.8158
20
-4.33618
11
8.82092
21
-4.32579
0
LINE
8
BLACK
6
CONTINUOUS
10
8.82092
20
-4.32579
11
8.82736
21
-4.31615
0
LINE
8
BLACK
6
CONTINUOUS
10
8.82736
20
-4.31615
11
8.835
21
-4.30744
0
LINE
8
BLACK
6
CONTINUOUS
10
8.835
20
-4.30744
11
8.84371
21
-4.2998
0
LINE
8
BLACK
6
CONTINUOUS
10
8.84371
20
-4.2998
11
8.85335
21
-4.29336
0
LINE
8
BLACK
6
CONTINUOUS
10
8.85335
20
-4.29336
11
8.86374
21
-4.28824
0
LINE
8
BLACK
6
CONTINUOUS
10
8.86374
20
-4.28824
11
8.87471
21
-4.28451
0
LINE
8
BLACK
6
CONTINUOUS
10
8.87471
20
-4.28451
11
8.88608
21
-4.28225
0
LINE
8
BLACK
6
CONTINUOUS
10
8.88608
20
-4.28225
11
8.89764
21
-4.2815
0
LINE
8
BLACK
6
CONTINUOUS
10
8.89764
20
-4.2815
11
8.9092
21
-4.28225
0
LINE
8
BLACK
6
CONTINUOUS
10
8.06444
20
-4.41851
11
8.06616
21
-4.41967
0
LINE
8
BLACK
6
CONTINUOUS
10
8.06616
20
-4.41967
11
8.06731
21
-4.42139
0
LINE
8
BLACK
6
CONTINUOUS
10
8.06731
20
-4.42139
11
8.06772
21
-4.42343
0
LINE
8
BLACK
6
CONTINUOUS
10
8.06772
20
-4.42343
11
8.06772
21
-4.43406
0
LINE
8
BLACK
6
CONTINUOUS
10
8.06772
20
-4.43406
11
8.06731
21
-4.43609
0
LINE
8
BLACK
6
CONTINUOUS
10
8.06731
20
-4.43609
11
8.06616
21
-4.43781
0
LINE
8
BLACK
6
CONTINUOUS
10
8.06616
20
-4.43781
11
8.06444
21
-4.43897
0
LINE
8
BLACK
6
CONTINUOUS
10
8.06444
20
-4.43897
11
8.0624
21
-4.43937
0
LINE
8
BLACK
6
CONTINUOUS
10
8.0624
20
-4.43937
11
8.04783
21
-4.43937
0
LINE
8
BLACK
6
CONTINUOUS
10
8.04783
20
-4.43937
11
8.0458
21
-4.43897
0
LINE
8
BLACK
6
CONTINUOUS
10
8.0458
20
-4.43897
11
8.04408
21
-4.43781
0
LINE
8
BLACK
6
CONTINUOUS
10
8.04408
20
-4.43781
11
8.04292
21
-4.43609
0
LINE
8
BLACK
6
CONTINUOUS
10
8.04292
20
-4.43609
11
8.04252
21
-4.43406
0
LINE
8
BLACK
6
CONTINUOUS
10
8.04252
20
-4.43406
11
8.04252
21
-4.42343
0
LINE
8
BLACK
6
CONTINUOUS
10
8.04252
20
-4.42343
11
8.04292
21
-4.42139
0
LINE
8
BLACK
6
CONTINUOUS
10
8.04292
20
-4.42139
11
8.04408
21
-4.41967
0
LINE
8
BLACK
6
CONTINUOUS
10
8.04408
20
-4.41967
11
8.0458
21
-4.41851
0
LINE
8
BLACK
6
CONTINUOUS
10
8.0458
20
-4.41851
11
8.04783
21
-4.41811
0
LINE
8
BLACK
6
CONTINUOUS
10
8.04783
20
-4.41811
11
8.0624
21
-4.41811
0
LINE
8
BLACK
6
CONTINUOUS
10
8.0624
20
-4.41811
11
8.06444
21
-4.41851
0
LINE
8
BLACK
6
CONTINUOUS
10
7.67467
20
-4.41537
11
7.6764
21
-4.41652
0
LINE
8
BLACK
6
CONTINUOUS
10
7.6764
20
-4.41652
11
7.67755
21
-4.41824
0
LINE
8
BLACK
6
CONTINUOUS
10
7.67755
20
-4.41824
11
7.67795
21
-4.42028
0
LINE
8
BLACK
6
CONTINUOUS
10
7.67795
20
-4.42028
11
7.67795
21
-4.43091
0
LINE
8
BLACK
6
CONTINUOUS
10
7.67795
20
-4.43091
11
7.67755
21
-4.43294
0
LINE
8
BLACK
6
CONTINUOUS
10
7.67755
20
-4.43294
11
7.6764
21
-4.43466
0
LINE
8
BLACK
6
CONTINUOUS
10
7.6764
20
-4.43466
11
7.67467
21
-4.43582
0
LINE
8
BLACK
6
CONTINUOUS
10
7.67467
20
-4.43582
11
7.67264
21
-4.43622
0
LINE
8
BLACK
6
CONTINUOUS
10
7.67264
20
-4.43622
11
7.65807
21
-4.43622
0
LINE
8
BLACK
6
CONTINUOUS
10
7.65807
20
-4.43622
11
7.65604
21
-4.43582
0
LINE
8
BLACK
6
CONTINUOUS
10
7.65604
20
-4.43582
11
7.65431
21
-4.43466
0
LINE
8
BLACK
6
CONTINUOUS
10
7.65431
20
-4.43466
11
7.65316
21
-4.43294
0
LINE
8
BLACK
6
CONTINUOUS
10
7.65316
20
-4.43294
11
7.65276
21
-4.43091
0
LINE
8
BLACK
6
CONTINUOUS
10
7.65276
20
-4.43091
11
7.65276
21
-4.42028
0
LINE
8
BLACK
6
CONTINUOUS
10
7.65276
20
-4.42028
11
7.65316
21
-4.41824
0
LINE
8
BLACK
6
CONTINUOUS
10
7.65316
20
-4.41824
11
7.65431
21
-4.41652
0
LINE
8
BLACK
6
CONTINUOUS
10
7.65431
20
-4.41652
11
7.65604
21
-4.41537
0
LINE
8
BLACK
6
CONTINUOUS
10
7.65604
20
-4.41537
11
7.65807
21
-4.41496
0
LINE
8
BLACK
6
CONTINUOUS
10
7.65807
20
-4.41496
11
7.67264
21
-4.41496
0
LINE
8
BLACK
6
CONTINUOUS
10
7.67264
20
-4.41496
11
7.67467
21
-4.41537
0
LINE
8
BLACK
6
CONTINUOUS
10
7.6215
20
-4.39142
11
7.62437
21
-4.39334
0
LINE
8
BLACK
6
CONTINUOUS
10
7.62437
20
-4.39334
11
7.62629
21
-4.39622
0
LINE
8
BLACK
6
CONTINUOUS
10
7.62629
20
-4.39622
11
7.62697
21
-4.39961
0
LINE
8
BLACK
6
CONTINUOUS
10
7.62697
20
-4.39961
11
7.62697
21
-4.41929
0
LINE
8
BLACK
6
CONTINUOUS
10
7.62697
20
-4.41929
11
7.62629
21
-4.42268
0
LINE
8
BLACK
6
CONTINUOUS
10
7.62629
20
-4.42268
11
7.62437
21
-4.42556
0
LINE
8
BLACK
6
CONTINUOUS
10
7.62437
20
-4.42556
11
7.6215
21
-4.42748
0
LINE
8
BLACK
6
CONTINUOUS
10
7.6215
20
-4.42748
11
7.61811
21
-4.42815
0
LINE
8
BLACK
6
CONTINUOUS
10
7.61811
20
-4.42815
11
7.60039
21
-4.42815
0
LINE
8
BLACK
6
CONTINUOUS
10
7.60039
20
-4.42815
11
7.597
21
-4.42748
0
LINE
8
BLACK
6
CONTINUOUS
10
7.597
20
-4.42748
11
7.59413
21
-4.42556
0
LINE
8
BLACK
6
CONTINUOUS
10
7.59413
20
-4.42556
11
7.59221
21
-4.42268
0
LINE
8
BLACK
6
CONTINUOUS
10
7.59221
20
-4.42268
11
7.59154
21
-4.41929
0
LINE
8
BLACK
6
CONTINUOUS
10
7.59154
20
-4.41929
11
7.59154
21
-4.39961
0
LINE
8
BLACK
6
CONTINUOUS
10
7.59154
20
-4.39961
11
7.59221
21
-4.39622
0
LINE
8
BLACK
6
CONTINUOUS
10
7.59221
20
-4.39622
11
7.59413
21
-4.39334
0
LINE
8
BLACK
6
CONTINUOUS
10
7.59413
20
-4.39334
11
7.597
21
-4.39142
0
LINE
8
BLACK
6
CONTINUOUS
10
7.597
20
-4.39142
11
7.60039
21
-4.39075
0
LINE
8
BLACK
6
CONTINUOUS
10
7.60039
20
-4.39075
11
7.61811
21
-4.39075
0
LINE
8
BLACK
6
CONTINUOUS
10
7.61811
20
-4.39075
11
7.6215
21
-4.39142
0
LINE
8
BLACK
6
CONTINUOUS
10
7.56048
20
-4.39142
11
7.56335
21
-4.39334
0
LINE
8
BLACK
6
CONTINUOUS
10
7.56335
20
-4.39334
11
7.56527
21
-4.39622
0
LINE
8
BLACK
6
CONTINUOUS
10
7.56527
20
-4.39622
11
7.56594
21
-4.39961
0
LINE
8
BLACK
6
CONTINUOUS
10
7.56594
20
-4.39961
11
7.56594
21
-4.41929
0
LINE
8
BLACK
6
CONTINUOUS
10
7.56594
20
-4.41929
11
7.56527
21
-4.42268
0
LINE
8
BLACK
6
CONTINUOUS
10
7.56527
20
-4.42268
11
7.56335
21
-4.42556
0
LINE
8
BLACK
6
CONTINUOUS
10
7.56335
20
-4.42556
11
7.56048
21
-4.42748
0
LINE
8
BLACK
6
CONTINUOUS
10
7.56048
20
-4.42748
11
7.55709
21
-4.42815
0
LINE
8
BLACK
6
CONTINUOUS
10
7.55709
20
-4.42815
11
7.53937
21
-4.42815
0
LINE
8
BLACK
6
CONTINUOUS
10
7.53937
20
-4.42815
11
7.53598
21
-4.42748
0
LINE
8
BLACK
6
CONTINUOUS
10
7.53598
20
-4.42748
11
7.53311
21
-4.42556
0
LINE
8
BLACK
6
CONTINUOUS
10
7.53311
20
-4.42556
11
7.53119
21
-4.42268
0
LINE
8
BLACK
6
CONTINUOUS
10
7.53119
20
-4.42268
11
7.53051
21
-4.41929
0
LINE
8
BLACK
6
CONTINUOUS
10
7.53051
20
-4.41929
11
7.53051
21
-4.39961
0
LINE
8
BLACK
6
CONTINUOUS
10
7.53051
20
-4.39961
11
7.53119
21
-4.39622
0
LINE
8
BLACK
6
CONTINUOUS
10
7.53119
20
-4.39622
11
7.53311
21
-4.39334
0
LINE
8
BLACK
6
CONTINUOUS
10
7.53311
20
-4.39334
11
7.53598
21
-4.39142
0
LINE
8
BLACK
6
CONTINUOUS
10
7.53598
20
-4.39142
11
7.53937
21
-4.39075
0
LINE
8
BLACK
6
CONTINUOUS
10
7.53937
20
-4.39075
11
7.55709
21
-4.39075
0
LINE
8
BLACK
6
CONTINUOUS
10
7.55709
20
-4.39075
11
7.56048
21
-4.39142
0
LINE
8
BLACK
6
CONTINUOUS
10
8.58648
20
-4.39332
11
8.58821
21
-4.39447
0
LINE
8
BLACK
6
CONTINUOUS
10
8.58821
20
-4.39447
11
8.58936
21
-4.39619
0
LINE
8
BLACK
6
CONTINUOUS
10
8.58936
20
-4.39619
11
8.58976
21
-4.39823
0
LINE
8
BLACK
6
CONTINUOUS
10
8.58976
20
-4.39823
11
8.58976
21
-4.4128
0
LINE
8
BLACK
6
CONTINUOUS
10
8.58976
20
-4.4128
11
8.58936
21
-4.41483
0
LINE
8
BLACK
6
CONTINUOUS
10
8.58936
20
-4.41483
11
8.58821
21
-4.41655
0
LINE
8
BLACK
6
CONTINUOUS
10
8.58821
20
-4.41655
11
8.58648
21
-4.41771
0
LINE
8
BLACK
6
CONTINUOUS
10
8.58648
20
-4.41771
11
8.58445
21
-4.41811
0
LINE
8
BLACK
6
CONTINUOUS
10
8.58445
20
-4.41811
11
8.57382
21
-4.41811
0
LINE
8
BLACK
6
CONTINUOUS
10
8.57382
20
-4.41811
11
8.57178
21
-4.41771
0
LINE
8
BLACK
6
CONTINUOUS
10
8.57178
20
-4.41771
11
8.57006
21
-4.41655
0
LINE
8
BLACK
6
CONTINUOUS
10
8.57006
20
-4.41655
11
8.56891
21
-4.41483
0
LINE
8
BLACK
6
CONTINUOUS
10
8.56891
20
-4.41483
11
8.5685
21
-4.4128
0
LINE
8
BLACK
6
CONTINUOUS
10
8.5685
20
-4.4128
11
8.5685
21
-4.39823
0
LINE
8
BLACK
6
CONTINUOUS
10
8.5685
20
-4.39823
11
8.56891
21
-4.39619
0
LINE
8
BLACK
6
CONTINUOUS
10
8.56891
20
-4.39619
11
8.57006
21
-4.39447
0
LINE
8
BLACK
6
CONTINUOUS
10
8.57006
20
-4.39447
11
8.57178
21
-4.39332
0
LINE
8
BLACK
6
CONTINUOUS
10
8.57178
20
-4.39332
11
8.57382
21
-4.39291
0
LINE
8
BLACK
6
CONTINUOUS
10
8.57382
20
-4.39291
11
8.58445
21
-4.39291
0
LINE
8
BLACK
6
CONTINUOUS
10
8.58445
20
-4.39291
11
8.58648
21
-4.39332
0
LINE
8
BLACK
6
CONTINUOUS
10
8.54633
20
-4.39332
11
8.54805
21
-4.39447
0
LINE
8
BLACK
6
CONTINUOUS
10
8.54805
20
-4.39447
11
8.5492
21
-4.39619
0
LINE
8
BLACK
6
CONTINUOUS
10
8.5492
20
-4.39619
11
8.54961
21
-4.39823
0
LINE
8
BLACK
6
CONTINUOUS
10
8.54961
20
-4.39823
11
8.54961
21
-4.4128
0
LINE
8
BLACK
6
CONTINUOUS
10
8.54961
20
-4.4128
11
8.5492
21
-4.41483
0
LINE
8
BLACK
6
CONTINUOUS
10
8.5492
20
-4.41483
11
8.54805
21
-4.41655
0
LINE
8
BLACK
6
CONTINUOUS
10
8.54805
20
-4.41655
11
8.54633
21
-4.41771
0
LINE
8
BLACK
6
CONTINUOUS
10
8.54633
20
-4.41771
11
8.54429
21
-4.41811
0
LINE
8
BLACK
6
CONTINUOUS
10
8.54429
20
-4.41811
11
8.53366
21
-4.41811
0
LINE
8
BLACK
6
CONTINUOUS
10
8.53366
20
-4.41811
11
8.53163
21
-4.41771
0
LINE
8
BLACK
6
CONTINUOUS
10
8.53163
20
-4.41771
11
8.5299
21
-4.41655
0
LINE
8
BLACK
6
CONTINUOUS
10
8.5299
20
-4.41655
11
8.52875
21
-4.41483
0
LINE
8
BLACK
6
CONTINUOUS
10
8.52875
20
-4.41483
11
8.52835
21
-4.4128
0
LINE
8
BLACK
6
CONTINUOUS
10
8.52835
20
-4.4128
11
8.52835
21
-4.39823
0
LINE
8
BLACK
6
CONTINUOUS
10
8.52835
20
-4.39823
11
8.52875
21
-4.39619
0
LINE
8
BLACK
6
CONTINUOUS
10
8.52875
20
-4.39619
11
8.5299
21
-4.39447
0
LINE
8
BLACK
6
CONTINUOUS
10
8.5299
20
-4.39447
11
8.53163
21
-4.39332
0
LINE
8
BLACK
6
CONTINUOUS
10
8.53163
20
-4.39332
11
8.53366
21
-4.39291
0
LINE
8
BLACK
6
CONTINUOUS
10
8.53366
20
-4.39291
11
8.54429
21
-4.39291
0
LINE
8
BLACK
6
CONTINUOUS
10
8.54429
20
-4.39291
11
8.54633
21
-4.39332
0
LINE
8
BLACK
6
CONTINUOUS
10
7.47234
20
-4.33117
11
7.47756
21
-4.33313
0
LINE
8
BLACK
6
CONTINUOUS
10
7.47756
20
-4.33313
11
7.48203
21
-4.33647
0
LINE
8
BLACK
6
CONTINUOUS
10
7.48203
20
-4.33647
11
7.48538
21
-4.34094
0
LINE
8
BLACK
6
CONTINUOUS
10
7.48538
20
-4.34094
11
7.48734
21
-4.34617
0
LINE
8
BLACK
6
CONTINUOUS
10
7.48734
20
-4.34617
11
7.4878
21
-4.35039
0
LINE
8
BLACK
6
CONTINUOUS
10
7.4878
20
-4.35039
11
7.4878
21
-4.38976
0
LINE
8
BLACK
6
CONTINUOUS
10
7.4878
20
-4.38976
11
7.48734
21
-4.39399
0
LINE
8
BLACK
6
CONTINUOUS
10
7.48734
20
-4.39399
11
7.48538
21
-4.39922
0
LINE
8
BLACK
6
CONTINUOUS
10
7.48538
20
-4.39922
11
7.48203
21
-4.40368
0
LINE
8
BLACK
6
CONTINUOUS
10
7.48203
20
-4.40368
11
7.47756
21
-4.40703
0
LINE
8
BLACK
6
CONTINUOUS
10
7.47756
20
-4.40703
11
7.47234
21
-4.40899
0
LINE
8
BLACK
6
CONTINUOUS
10
7.47234
20
-4.40899
11
7.46811
21
-4.40945
0
LINE
8
BLACK
6
CONTINUOUS
10
7.46811
20
-4.40945
11
7.42874
21
-4.40945
0
LINE
8
BLACK
6
CONTINUOUS
10
7.42874
20
-4.40945
11
7.42451
21
-4.40899
0
LINE
8
BLACK
6
CONTINUOUS
10
7.42451
20
-4.40899
11
7.41929
21
-4.40703
0
LINE
8
BLACK
6
CONTINUOUS
10
7.41929
20
-4.40703
11
7.41482
21
-4.40368
0
LINE
8
BLACK
6
CONTINUOUS
10
7.41482
20
-4.40368
11
7.41147
21
-4.39922
0
LINE
8
BLACK
6
CONTINUOUS
10
7.41147
20
-4.39922
11
7.40951
21
-4.39399
0
LINE
8
BLACK
6
CONTINUOUS
10
7.40951
20
-4.39399
11
7.40906
21
-4.38976
0
LINE
8
BLACK
6
CONTINUOUS
10
7.40906
20
-4.38976
11
7.40906
21
-4.35039
0
LINE
8
BLACK
6
CONTINUOUS
10
7.40906
20
-4.35039
11
7.40951
21
-4.34617
0
LINE
8
BLACK
6
CONTINUOUS
10
7.40951
20
-4.34617
11
7.41147
21
-4.34094
0
LINE
8
BLACK
6
CONTINUOUS
10
7.41147
20
-4.34094
11
7.41482
21
-4.33647
0
LINE
8
BLACK
6
CONTINUOUS
10
7.41482
20
-4.33647
11
7.41929
21
-4.33313
0
LINE
8
BLACK
6
CONTINUOUS
10
7.41929
20
-4.33313
11
7.42451
21
-4.33117
0
LINE
8
BLACK
6
CONTINUOUS
10
7.42451
20
-4.33117
11
7.42874
21
-4.33071
0
LINE
8
BLACK
6
CONTINUOUS
10
7.42874
20
-4.33071
11
7.46811
21
-4.33071
0
LINE
8
BLACK
6
CONTINUOUS
10
7.46811
20
-4.33071
11
7.47234
21
-4.33117
0
LINE
8
BLACK
6
CONTINUOUS
10
7.77234
20
-4.33117
11
7.77756
21
-4.33313
0
LINE
8
BLACK
6
CONTINUOUS
10
7.77756
20
-4.33313
11
7.78203
21
-4.33647
0
LINE
8
BLACK
6
CONTINUOUS
10
7.78203
20
-4.33647
11
7.78538
21
-4.34094
0
LINE
8
BLACK
6
CONTINUOUS
10
7.78538
20
-4.34094
11
7.78734
21
-4.34617
0
LINE
8
BLACK
6
CONTINUOUS
10
7.78734
20
-4.34617
11
7.7878
21
-4.35039
0
LINE
8
BLACK
6
CONTINUOUS
10
7.7878
20
-4.35039
11
7.7878
21
-4.38976
0
LINE
8
BLACK
6
CONTINUOUS
10
7.7878
20
-4.38976
11
7.78734
21
-4.39399
0
LINE
8
BLACK
6
CONTINUOUS
10
7.78734
20
-4.39399
11
7.78538
21
-4.39922
0
LINE
8
BLACK
6
CONTINUOUS
10
7.78538
20
-4.39922
11
7.78203
21
-4.40368
0
LINE
8
BLACK
6
CONTINUOUS
10
7.78203
20
-4.40368
11
7.77756
21
-4.40703
0
LINE
8
BLACK
6
CONTINUOUS
10
7.77756
20
-4.40703
11
7.77234
21
-4.40899
0
LINE
8
BLACK
6
CONTINUOUS
10
7.77234
20
-4.40899
11
7.76811
21
-4.40945
0
LINE
8
BLACK
6
CONTINUOUS
10
7.76811
20
-4.40945
11
7.72874
21
-4.40945
0
LINE
8
BLACK
6
CONTINUOUS
10
7.72874
20
-4.40945
11
7.72451
21
-4.40899
0
LINE
8
BLACK
6
CONTINUOUS
10
7.72451
20
-4.40899
11
7.71929
21
-4.40703
0
LINE
8
BLACK
6
CONTINUOUS
10
7.71929
20
-4.40703
11
7.71482
21
-4.40368
0
LINE
8
BLACK
6
CONTINUOUS
10
7.71482
20
-4.40368
11
7.71147
21
-4.39922
0
LINE
8
BLACK
6
CONTINUOUS
10
7.71147
20
-4.39922
11
7.70951
21
-4.39399
0
LINE
8
BLACK
6
CONTINUOUS
10
7.70951
20
-4.39399
11
7.70906
21
-4.38976
0
LINE
8
BLACK
6
CONTINUOUS
10
7.70906
20
-4.38976
11
7.70906
21
-4.35039
0
LINE
8
BLACK
6
CONTINUOUS
10
7.70906
20
-4.35039
11
7.70951
21
-4.34617
0
LINE
8
BLACK
6
CONTINUOUS
10
7.70951
20
-4.34617
11
7.71147
21
-4.34094
0
LINE
8
BLACK
6
CONTINUOUS
10
7.71147
20
-4.34094
11
7.71482
21
-4.33647
0
LINE
8
BLACK
6
CONTINUOUS
10
7.71482
20
-4.33647
11
7.71929
21
-4.33313
0
LINE
8
BLACK
6
CONTINUOUS
10
7.71929
20
-4.33313
11
7.72451
21
-4.33117
0
LINE
8
BLACK
6
CONTINUOUS
10
7.72451
20
-4.33117
11
7.72874
21
-4.33071
0
LINE
8
BLACK
6
CONTINUOUS
10
7.72874
20
-4.33071
11
7.76811
21
-4.33071
0
LINE
8
BLACK
6
CONTINUOUS
10
7.76811
20
-4.33071
11
7.77234
21
-4.33117
0
LINE
8
BLACK
6
CONTINUOUS
10
8.71722
20
-4.33117
11
8.72245
21
-4.33313
0
LINE
8
BLACK
6
CONTINUOUS
10
8.72245
20
-4.33313
11
8.72691
21
-4.33647
0
LINE
8
BLACK
6
CONTINUOUS
10
8.72691
20
-4.33647
11
8.73026
21
-4.34094
0
LINE
8
BLACK
6
CONTINUOUS
10
8.73026
20
-4.34094
11
8.73222
21
-4.34617
0
LINE
8
BLACK
6
CONTINUOUS
10
8.73222
20
-4.34617
11
8.73268
21
-4.35039
0
LINE
8
BLACK
6
CONTINUOUS
10
8.73268
20
-4.35039
11
8.73268
21
-4.38976
0
LINE
8
BLACK
6
CONTINUOUS
10
8.73268
20
-4.38976
11
8.73222
21
-4.39399
0
LINE
8
BLACK
6
CONTINUOUS
10
8.73222
20
-4.39399
11
8.73026
21
-4.39922
0
LINE
8
BLACK
6
CONTINUOUS
10
8.73026
20
-4.39922
11
8.72691
21
-4.40368
0
LINE
8
BLACK
6
CONTINUOUS
10
8.72691
20
-4.40368
11
8.72245
21
-4.40703
0
LINE
8
BLACK
6
CONTINUOUS
10
8.72245
20
-4.40703
11
8.71722
21
-4.40899
0
LINE
8
BLACK
6
CONTINUOUS
10
8.71722
20
-4.40899
11
8.71299
21
-4.40945
0
LINE
8
BLACK
6
CONTINUOUS
10
8.71299
20
-4.40945
11
8.67362
21
-4.40945
0
LINE
8
BLACK
6
CONTINUOUS
10
8.67362
20
-4.40945
11
8.66939
21
-4.40899
0
LINE
8
BLACK
6
CONTINUOUS
10
8.66939
20
-4.40899
11
8.66417
21
-4.40703
0
LINE
8
BLACK
6
CONTINUOUS
10
8.66417
20
-4.40703
11
8.6597
21
-4.40368
0
LINE
8
BLACK
6
CONTINUOUS
10
8.6597
20
-4.40368
11
8.65636
21
-4.39922
0
LINE
8
BLACK
6
CONTINUOUS
10
8.65636
20
-4.39922
11
8.6544
21
-4.39399
0
LINE
8
BLACK
6
CONTINUOUS
10
8.6544
20
-4.39399
11
8.65394
21
-4.38976
0
LINE
8
BLACK
6
CONTINUOUS
10
8.65394
20
-4.38976
11
8.65394
21
-4.35039
0
LINE
8
BLACK
6
CONTINUOUS
10
8.65394
20
-4.35039
11
8.6544
21
-4.34617
0
LINE
8
BLACK
6
CONTINUOUS
10
8.6544
20
-4.34617
11
8.65636
21
-4.34094
0
LINE
8
BLACK
6
CONTINUOUS
10
8.65636
20
-4.34094
11
8.6597
21
-4.33647
0
LINE
8
BLACK
6
CONTINUOUS
10
8.6597
20
-4.33647
11
8.66417
21
-4.33313
0
LINE
8
BLACK
6
CONTINUOUS
10
8.66417
20
-4.33313
11
8.66939
21
-4.33117
0
LINE
8
BLACK
6
CONTINUOUS
10
8.66939
20
-4.33117
11
8.67362
21
-4.33071
0
LINE
8
BLACK
6
CONTINUOUS
10
8.67362
20
-4.33071
11
8.71299
21
-4.33071
0
LINE
8
BLACK
6
CONTINUOUS
10
8.71299
20
-4.33071
11
8.71722
21
-4.33117
0
LINE
8
BLACK
6
CONTINUOUS
10
8.41722
20
-4.33117
11
8.42245
21
-4.33313
0
LINE
8
BLACK
6
CONTINUOUS
10
8.42245
20
-4.33313
11
8.42691
21
-4.33647
0
LINE
8
BLACK
6
CONTINUOUS
10
8.42691
20
-4.33647
11
8.43026
21
-4.34094
0
LINE
8
BLACK
6
CONTINUOUS
10
8.43026
20
-4.34094
11
8.43222
21
-4.34617
0
LINE
8
BLACK
6
CONTINUOUS
10
8.43222
20
-4.34617
11
8.43268
21
-4.35039
0
LINE
8
BLACK
6
CONTINUOUS
10
8.43268
20
-4.35039
11
8.43268
21
-4.38976
0
LINE
8
BLACK
6
CONTINUOUS
10
8.43268
20
-4.38976
11
8.43222
21
-4.39399
0
LINE
8
BLACK
6
CONTINUOUS
10
8.43222
20
-4.39399
11
8.43026
21
-4.39922
0
LINE
8
BLACK
6
CONTINUOUS
10
8.43026
20
-4.39922
11
8.42691
21
-4.40368
0
LINE
8
BLACK
6
CONTINUOUS
10
8.42691
20
-4.40368
11
8.42245
21
-4.40703
0
LINE
8
BLACK
6
CONTINUOUS
10
8.42245
20
-4.40703
11
8.41722
21
-4.40899
0
LINE
8
BLACK
6
CONTINUOUS
10
8.41722
20
-4.40899
11
8.41299
21
-4.40945
0
LINE
8
BLACK
6
CONTINUOUS
10
8.41299
20
-4.40945
11
8.37362
21
-4.40945
0
LINE
8
BLACK
6
CONTINUOUS
10
8.37362
20
-4.40945
11
8.36939
21
-4.40899
0
LINE
8
BLACK
6
CONTINUOUS
10
8.36939
20
-4.40899
11
8.36417
21
-4.40703
0
LINE
8
BLACK
6
CONTINUOUS
10
8.36417
20
-4.40703
11
8.3597
21
-4.40368
0
LINE
8
BLACK
6
CONTINUOUS
10
8.3597
20
-4.40368
11
8.35636
21
-4.39922
0
LINE
8
BLACK
6
CONTINUOUS
10
8.35636
20
-4.39922
11
8.3544
21
-4.39399
0
LINE
8
BLACK
6
CONTINUOUS
10
8.3544
20
-4.39399
11
8.35394
21
-4.38976
0
LINE
8
BLACK
6
CONTINUOUS
10
8.35394
20
-4.38976
11
8.35394
21
-4.35039
0
LINE
8
BLACK
6
CONTINUOUS
10
8.35394
20
-4.35039
11
8.3544
21
-4.34617
0
LINE
8
BLACK
6
CONTINUOUS
10
8.3544
20
-4.34617
11
8.35636
21
-4.34094
0
LINE
8
BLACK
6
CONTINUOUS
10
8.35636
20
-4.34094
11
8.3597
21
-4.33647
0
LINE
8
BLACK
6
CONTINUOUS
10
8.3597
20
-4.33647
11
8.36417
21
-4.33313
0
LINE
8
BLACK
6
CONTINUOUS
10
8.36417
20
-4.33313
11
8.36939
21
-4.33117
0
LINE
8
BLACK
6
CONTINUOUS
10
8.36939
20
-4.33117
11
8.37362
21
-4.33071
0
LINE
8
BLACK
6
CONTINUOUS
10
8.37362
20
-4.33071
11
8.41299
21
-4.33071
0
LINE
8
BLACK
6
CONTINUOUS
10
8.41299
20
-4.33071
11
8.41722
21
-4.33117
0
LINE
8
BLACK
6
CONTINUOUS
10
7.85265
20
-4.3538
11
7.85457
21
-4.35508
0
LINE
8
BLACK
6
CONTINUOUS
10
7.85457
20
-4.35508
11
7.85585
21
-4.35699
0
LINE
8
BLACK
6
CONTINUOUS
10
7.85585
20
-4.35699
11
7.8563
21
-4.35925
0
LINE
8
BLACK
6
CONTINUOUS
10
7.8563
20
-4.35925
11
7.8563
21
-4.39961
0
LINE
8
BLACK
6
CONTINUOUS
10
7.8563
20
-4.39961
11
7.85585
21
-4.40187
0
LINE
8
BLACK
6
CONTINUOUS
10
7.85585
20
-4.40187
11
7.85457
21
-4.40378
0
LINE
8
BLACK
6
CONTINUOUS
10
7.85457
20
-4.40378
11
7.85265
21
-4.40506
0
LINE
8
BLACK
6
CONTINUOUS
10
7.85265
20
-4.40506
11
7.85039
21
-4.40551
0
LINE
8
BLACK
6
CONTINUOUS
10
7.85039
20
-4.40551
11
7.83858
21
-4.40551
0
LINE
8
BLACK
6
CONTINUOUS
10
7.83858
20
-4.40551
11
7.83632
21
-4.40506
0
LINE
8
BLACK
6
CONTINUOUS
10
7.83632
20
-4.40506
11
7.83441
21
-4.40378
0
LINE
8
BLACK
6
CONTINUOUS
10
7.83441
20
-4.40378
11
7.83313
21
-4.40187
0
LINE
8
BLACK
6
CONTINUOUS
10
7.83313
20
-4.40187
11
7.83268
21
-4.39961
0
LINE
8
BLACK
6
CONTINUOUS
10
7.83268
20
-4.39961
11
7.83268
21
-4.35925
0
LINE
8
BLACK
6
CONTINUOUS
10
7.83268
20
-4.35925
11
7.83313
21
-4.35699
0
LINE
8
BLACK
6
CONTINUOUS
10
7.83313
20
-4.35699
11
7.83441
21
-4.35508
0
LINE
8
BLACK
6
CONTINUOUS
10
7.83441
20
-4.35508
11
7.83632
21
-4.3538
0
LINE
8
BLACK
6
CONTINUOUS
10
7.83632
20
-4.3538
11
7.83858
21
-4.35335
0
LINE
8
BLACK
6
CONTINUOUS
10
7.83858
20
-4.35335
11
7.85039
21
-4.35335
0
LINE
8
BLACK
6
CONTINUOUS
10
7.85039
20
-4.35335
11
7.85265
21
-4.3538
0
LINE
8
BLACK
6
CONTINUOUS
10
7.92746
20
-4.3538
11
7.92937
21
-4.35508
0
LINE
8
BLACK
6
CONTINUOUS
10
7.92937
20
-4.35508
11
7.93065
21
-4.35699
0
LINE
8
BLACK
6
CONTINUOUS
10
7.93065
20
-4.35699
11
7.9311
21
-4.35925
0
LINE
8
BLACK
6
CONTINUOUS
10
7.9311
20
-4.35925
11
7.9311
21
-4.39961
0
LINE
8
BLACK
6
CONTINUOUS
10
7.9311
20
-4.39961
11
7.93065
21
-4.40187
0
LINE
8
BLACK
6
CONTINUOUS
10
7.93065
20
-4.40187
11
7.92937
21
-4.40378
0
LINE
8
BLACK
6
CONTINUOUS
10
7.92937
20
-4.40378
11
7.92746
21
-4.40506
0
LINE
8
BLACK
6
CONTINUOUS
10
7.92746
20
-4.40506
11
7.9252
21
-4.40551
0
LINE
8
BLACK
6
CONTINUOUS
10
7.9252
20
-4.40551
11
7.91339
21
-4.40551
0
LINE
8
BLACK
6
CONTINUOUS
10
7.91339
20
-4.40551
11
7.91113
21
-4.40506
0
LINE
8
BLACK
6
CONTINUOUS
10
7.91113
20
-4.40506
11
7.90921
21
-4.40378
0
LINE
8
BLACK
6
CONTINUOUS
10
7.90921
20
-4.40378
11
7.90793
21
-4.40187
0
LINE
8
BLACK
6
CONTINUOUS
10
7.90793
20
-4.40187
11
7.90748
21
-4.39961
0
LINE
8
BLACK
6
CONTINUOUS
10
7.90748
20
-4.39961
11
7.90748
21
-4.35925
0
LINE
8
BLACK
6
CONTINUOUS
10
7.90748
20
-4.35925
11
7.90793
21
-4.35699
0
LINE
8
BLACK
6
CONTINUOUS
10
7.90793
20
-4.35699
11
7.90921
21
-4.35508
0
LINE
8
BLACK
6
CONTINUOUS
10
7.90921
20
-4.35508
11
7.91113
21
-4.3538
0
LINE
8
BLACK
6
CONTINUOUS
10
7.91113
20
-4.3538
11
7.91339
21
-4.35335
0
LINE
8
BLACK
6
CONTINUOUS
10
7.91339
20
-4.35335
11
7.9252
21
-4.35335
0
LINE
8
BLACK
6
CONTINUOUS
10
7.9252
20
-4.35335
11
7.92746
21
-4.3538
0
LINE
8
BLACK
6
CONTINUOUS
10
8.29018
20
-4.36099
11
8.29338
21
-4.36312
0
LINE
8
BLACK
6
CONTINUOUS
10
8.29338
20
-4.36312
11
8.29551
21
-4.36631
0
LINE
8
BLACK
6
CONTINUOUS
10
8.29551
20
-4.36631
11
8.29626
21
-4.37008
0
LINE
8
BLACK
6
CONTINUOUS
10
8.29626
20
-4.37008
11
8.29626
21
-4.38976
0
LINE
8
BLACK
6
CONTINUOUS
10
8.29626
20
-4.38976
11
8.29551
21
-4.39353
0
LINE
8
BLACK
6
CONTINUOUS
10
8.29551
20
-4.39353
11
8.29338
21
-4.39672
0
LINE
8
BLACK
6
CONTINUOUS
10
8.29338
20
-4.39672
11
8.29018
21
-4.39886
0
LINE
8
BLACK
6
CONTINUOUS
10
8.29018
20
-4.39886
11
8.28642
21
-4.39961
0
LINE
8
BLACK
6
CONTINUOUS
10
8.28642
20
-4.39961
11
8.24902
21
-4.39961
0
LINE
8
BLACK
6
CONTINUOUS
10
8.24902
20
-4.39961
11
8.24525
21
-4.39886
0
LINE
8
BLACK
6
CONTINUOUS
10
8.24525
20
-4.39886
11
8.24206
21
-4.39672
0
LINE
8
BLACK
6
CONTINUOUS
10
8.24206
20
-4.39672
11
8.23992
21
-4.39353
0
LINE
8
BLACK
6
CONTINUOUS
10
8.23992
20
-4.39353
11
8.23917
21
-4.38976
0
LINE
8
BLACK
6
CONTINUOUS
10
8.23917
20
-4.38976
11
8.23917
21
-4.37008
0
LINE
8
BLACK
6
CONTINUOUS
10
8.23917
20
-4.37008
11
8.23992
21
-4.36631
0
LINE
8
BLACK
6
CONTINUOUS
10
8.23992
20
-4.36631
11
8.24206
21
-4.36312
0
LINE
8
BLACK
6
CONTINUOUS
10
8.24206
20
-4.36312
11
8.24525
21
-4.36099
0
LINE
8
BLACK
6
CONTINUOUS
10
8.24525
20
-4.36099
11
8.24902
21
-4.36024
0
LINE
8
BLACK
6
CONTINUOUS
10
8.24902
20
-4.36024
11
8.28642
21
-4.36024
0
LINE
8
BLACK
6
CONTINUOUS
10
8.28642
20
-4.36024
11
8.29018
21
-4.36099
0
LINE
8
BLACK
6
CONTINUOUS
10
7.67467
20
-4.37521
11
7.6764
21
-4.37636
0
LINE
8
BLACK
6
CONTINUOUS
10
7.6764
20
-4.37636
11
7.67755
21
-4.37808
0
LINE
8
BLACK
6
CONTINUOUS
10
7.67755
20
-4.37808
11
7.67795
21
-4.38012
0
LINE
8
BLACK
6
CONTINUOUS
10
7.67795
20
-4.38012
11
7.67795
21
-4.39075
0
LINE
8
BLACK
6
CONTINUOUS
10
7.67795
20
-4.39075
11
7.67755
21
-4.39278
0
LINE
8
BLACK
6
CONTINUOUS
10
7.67755
20
-4.39278
11
7.6764
21
-4.39451
0
LINE
8
BLACK
6
CONTINUOUS
10
7.6764
20
-4.39451
11
7.67467
21
-4.39566
0
LINE
8
BLACK
6
CONTINUOUS
10
7.67467
20
-4.39566
11
7.67264
21
-4.39606
0
LINE
8
BLACK
6
CONTINUOUS
10
7.67264
20
-4.39606
11
7.65807
21
-4.39606
0
LINE
8
BLACK
6
CONTINUOUS
10
7.65807
20
-4.39606
11
7.65604
21
-4.39566
0
LINE
8
BLACK
6
CONTINUOUS
10
7.65604
20
-4.39566
11
7.65431
21
-4.39451
0
LINE
8
BLACK
6
CONTINUOUS
10
7.65431
20
-4.39451
11
7.65316
21
-4.39278
0
LINE
8
BLACK
6
CONTINUOUS
10
7.65316
20
-4.39278
11
7.65276
21
-4.39075
0
LINE
8
BLACK
6
CONTINUOUS
10
7.65276
20
-4.39075
11
7.65276
21
-4.38012
0
LINE
8
BLACK
6
CONTINUOUS
10
7.65276
20
-4.38012
11
7.65316
21
-4.37808
0
LINE
8
BLACK
6
CONTINUOUS
10
7.65316
20
-4.37808
11
7.65431
21
-4.37636
0
LINE
8
BLACK
6
CONTINUOUS
10
7.65431
20
-4.37636
11
7.65604
21
-4.37521
0
LINE
8
BLACK
6
CONTINUOUS
10
7.65604
20
-4.37521
11
7.65807
21
-4.3748
0
LINE
8
BLACK
6
CONTINUOUS
10
7.65807
20
-4.3748
11
7.67264
21
-4.3748
0
LINE
8
BLACK
6
CONTINUOUS
10
7.67264
20
-4.3748
11
7.67467
21
-4.37521
0
LINE
8
BLACK
6
CONTINUOUS
10
8.00823
20
-4.34492
11
8.01226
21
-4.3468
0
LINE
8
BLACK
6
CONTINUOUS
10
8.01226
20
-4.3468
11
8.0154
21
-4.34994
0
LINE
8
BLACK
6
CONTINUOUS
10
8.0154
20
-4.34994
11
8.01728
21
-4.35397
0
LINE
8
BLACK
6
CONTINUOUS
10
8.01728
20
-4.35397
11
8.01772
21
-4.35728
0
LINE
8
BLACK
6
CONTINUOUS
10
8.01772
20
-4.35728
11
8.01772
21
-4.38287
0
LINE
8
BLACK
6
CONTINUOUS
10
8.01772
20
-4.38287
11
8.01728
21
-4.38619
0
LINE
8
BLACK
6
CONTINUOUS
10
8.01728
20
-4.38619
11
8.0154
21
-4.39021
0
LINE
8
BLACK
6
CONTINUOUS
10
8.0154
20
-4.39021
11
8.01226
21
-4.39336
0
LINE
8
BLACK
6
CONTINUOUS
10
8.01226
20
-4.39336
11
8.00823
21
-4.39523
0
LINE
8
BLACK
6
CONTINUOUS
10
8.00823
20
-4.39523
11
8.00492
21
-4.39567
0
LINE
8
BLACK
6
CONTINUOUS
10
8.00492
20
-4.39567
11
7.97933
21
-4.39567
0
LINE
8
BLACK
6
CONTINUOUS
10
7.97933
20
-4.39567
11
7.97602
21
-4.39523
0
LINE
8
BLACK
6
CONTINUOUS
10
7.97602
20
-4.39523
11
7.97199
21
-4.39336
0
LINE
8
BLACK
6
CONTINUOUS
10
7.97199
20
-4.39336
11
7.96885
21
-4.39021
0
LINE
8
BLACK
6
CONTINUOUS
10
7.96885
20
-4.39021
11
7.96697
21
-4.38619
0
LINE
8
BLACK
6
CONTINUOUS
10
7.96697
20
-4.38619
11
7.96654
21
-4.38287
0
LINE
8
BLACK
6
CONTINUOUS
10
7.96654
20
-4.38287
11
7.96654
21
-4.35728
0
LINE
8
BLACK
6
CONTINUOUS
10
7.96654
20
-4.35728
11
7.96697
21
-4.35397
0
LINE
8
BLACK
6
CONTINUOUS
10
7.96697
20
-4.35397
11
7.96885
21
-4.34994
0
LINE
8
BLACK
6
CONTINUOUS
10
7.96885
20
-4.34994
11
7.97199
21
-4.3468
0
LINE
8
BLACK
6
CONTINUOUS
10
7.97199
20
-4.3468
11
7.97602
21
-4.34492
0
LINE
8
BLACK
6
CONTINUOUS
10
7.97602
20
-4.34492
11
7.97933
21
-4.34449
0
LINE
8
BLACK
6
CONTINUOUS
10
7.97933
20
-4.34449
11
8.00492
21
-4.34449
0
LINE
8
BLACK
6
CONTINUOUS
10
8.00492
20
-4.34449
11
8.00823
21
-4.34492
0
LINE
8
BLACK
6
CONTINUOUS
10
8.1854
20
-4.34492
11
8.18943
21
-4.3468
0
LINE
8
BLACK
6
CONTINUOUS
10
8.18943
20
-4.3468
11
8.19257
21
-4.34994
0
LINE
8
BLACK
6
CONTINUOUS
10
8.19257
20
-4.34994
11
8.19445
21
-4.35397
0
LINE
8
BLACK
6
CONTINUOUS
10
8.19445
20
-4.35397
11
8.19488
21
-4.35728
0
LINE
8
BLACK
6
CONTINUOUS
10
8.19488
20
-4.35728
11
8.19488
21
-4.38287
0
LINE
8
BLACK
6
CONTINUOUS
10
8.19488
20
-4.38287
11
8.19445
21
-4.38619
0
LINE
8
BLACK
6
CONTINUOUS
10
8.19445
20
-4.38619
11
8.19257
21
-4.39021
0
LINE
8
BLACK
6
CONTINUOUS
10
8.19257
20
-4.39021
11
8.18943
21
-4.39336
0
LINE
8
BLACK
6
CONTINUOUS
10
8.18943
20
-4.39336
11
8.1854
21
-4.39523
0
LINE
8
BLACK
6
CONTINUOUS
10
8.1854
20
-4.39523
11
8.18209
21
-4.39567
0
LINE
8
BLACK
6
CONTINUOUS
10
8.18209
20
-4.39567
11
8.1565
21
-4.39567
0
LINE
8
BLACK
6
CONTINUOUS
10
8.1565
20
-4.39567
11
8.15318
21
-4.39523
0
LINE
8
BLACK
6
CONTINUOUS
10
8.15318
20
-4.39523
11
8.14916
21
-4.39336
0
LINE
8
BLACK
6
CONTINUOUS
10
8.14916
20
-4.39336
11
8.14601
21
-4.39021
0
LINE
8
BLACK
6
CONTINUOUS
10
8.14601
20
-4.39021
11
8.14414
21
-4.38619
0
LINE
8
BLACK
6
CONTINUOUS
10
8.14414
20
-4.38619
11
8.1437
21
-4.38287
0
LINE
8
BLACK
6
CONTINUOUS
10
8.1437
20
-4.38287
11
8.1437
21
-4.35728
0
LINE
8
BLACK
6
CONTINUOUS
10
8.1437
20
-4.35728
11
8.14414
21
-4.35397
0
LINE
8
BLACK
6
CONTINUOUS
10
8.14414
20
-4.35397
11
8.14601
21
-4.34994
0
LINE
8
BLACK
6
CONTINUOUS
10
8.14601
20
-4.34994
11
8.14916
21
-4.3468
0
LINE
8
BLACK
6
CONTINUOUS
10
8.14916
20
-4.3468
11
8.15318
21
-4.34492
0
LINE
8
BLACK
6
CONTINUOUS
10
8.15318
20
-4.34492
11
8.1565
21
-4.34449
0
LINE
8
BLACK
6
CONTINUOUS
10
8.1565
20
-4.34449
11
8.18209
21
-4.34449
0
LINE
8
BLACK
6
CONTINUOUS
10
8.18209
20
-4.34449
11
8.1854
21
-4.34492
0
LINE
8
BLACK
6
CONTINUOUS
10
8.58648
20
-4.35001
11
8.58821
21
-4.35116
0
LINE
8
BLACK
6
CONTINUOUS
10
8.58821
20
-4.35116
11
8.58936
21
-4.35289
0
LINE
8
BLACK
6
CONTINUOUS
10
8.58936
20
-4.35289
11
8.58976
21
-4.35492
0
LINE
8
BLACK
6
CONTINUOUS
10
8.58976
20
-4.35492
11
8.58976
21
-4.36949
0
LINE
8
BLACK
6
CONTINUOUS
10
8.58976
20
-4.36949
11
8.58936
21
-4.37152
0
LINE
8
BLACK
6
CONTINUOUS
10
8.58936
20
-4.37152
11
8.58821
21
-4.37325
0
LINE
8
BLACK
6
CONTINUOUS
10
8.58821
20
-4.37325
11
8.58648
21
-4.3744
0
LINE
8
BLACK
6
CONTINUOUS
10
8.58648
20
-4.3744
11
8.58445
21
-4.3748
0
LINE
8
BLACK
6
CONTINUOUS
10
8.58445
20
-4.3748
11
8.57382
21
-4.3748
0
LINE
8
BLACK
6
CONTINUOUS
10
8.57382
20
-4.3748
11
8.57178
21
-4.3744
0
LINE
8
BLACK
6
CONTINUOUS
10
8.57178
20
-4.3744
11
8.57006
21
-4.37325
0
LINE
8
BLACK
6
CONTINUOUS
10
8.57006
20
-4.37325
11
8.56891
21
-4.37152
0
LINE
8
BLACK
6
CONTINUOUS
10
8.56891
20
-4.37152
11
8.5685
21
-4.36949
0
LINE
8
BLACK
6
CONTINUOUS
10
8.5685
20
-4.36949
11
8.5685
21
-4.35492
0
LINE
8
BLACK
6
CONTINUOUS
10
8.5685
20
-4.35492
11
8.56891
21
-4.35289
0
LINE
8
BLACK
6
CONTINUOUS
10
8.56891
20
-4.35289
11
8.57006
21
-4.35116
0
LINE
8
BLACK
6
CONTINUOUS
10
8.57006
20
-4.35116
11
8.57178
21
-4.35001
0
LINE
8
BLACK
6
CONTINUOUS
10
8.57178
20
-4.35001
11
8.57382
21
-4.34961
0
LINE
8
BLACK
6
CONTINUOUS
10
8.57382
20
-4.34961
11
8.58445
21
-4.34961
0
LINE
8
BLACK
6
CONTINUOUS
10
8.58445
20
-4.34961
11
8.58648
21
-4.35001
0
LINE
8
BLACK
6
CONTINUOUS
10
8.54633
20
-4.35001
11
8.54805
21
-4.35116
0
LINE
8
BLACK
6
CONTINUOUS
10
8.54805
20
-4.35116
11
8.5492
21
-4.35289
0
LINE
8
BLACK
6
CONTINUOUS
10
8.5492
20
-4.35289
11
8.54961
21
-4.35492
0
LINE
8
BLACK
6
CONTINUOUS
10
8.54961
20
-4.35492
11
8.54961
21
-4.36949
0
LINE
8
BLACK
6
CONTINUOUS
10
8.54961
20
-4.36949
11
8.5492
21
-4.37152
0
LINE
8
BLACK
6
CONTINUOUS
10
8.5492
20
-4.37152
11
8.54805
21
-4.37325
0
LINE
8
BLACK
6
CONTINUOUS
10
8.54805
20
-4.37325
11
8.54633
21
-4.3744
0
LINE
8
BLACK
6
CONTINUOUS
10
8.54633
20
-4.3744
11
8.54429
21
-4.3748
0
LINE
8
BLACK
6
CONTINUOUS
10
8.54429
20
-4.3748
11
8.53366
21
-4.3748
0
LINE
8
BLACK
6
CONTINUOUS
10
8.53366
20
-4.3748
11
8.53163
21
-4.3744
0
LINE
8
BLACK
6
CONTINUOUS
10
8.53163
20
-4.3744
11
8.5299
21
-4.37325
0
LINE
8
BLACK
6
CONTINUOUS
10
8.5299
20
-4.37325
11
8.52875
21
-4.37152
0
LINE
8
BLACK
6
CONTINUOUS
10
8.52875
20
-4.37152
11
8.52835
21
-4.36949
0
LINE
8
BLACK
6
CONTINUOUS
10
8.52835
20
-4.36949
11
8.52835
21
-4.35492
0
LINE
8
BLACK
6
CONTINUOUS
10
8.52835
20
-4.35492
11
8.52875
21
-4.35289
0
LINE
8
BLACK
6
CONTINUOUS
10
8.52875
20
-4.35289
11
8.5299
21
-4.35116
0
LINE
8
BLACK
6
CONTINUOUS
10
8.5299
20
-4.35116
11
8.53163
21
-4.35001
0
LINE
8
BLACK
6
CONTINUOUS
10
8.53163
20
-4.35001
11
8.53366
21
-4.34961
0
LINE
8
BLACK
6
CONTINUOUS
10
8.53366
20
-4.34961
11
8.54429
21
-4.34961
0
LINE
8
BLACK
6
CONTINUOUS
10
8.54429
20
-4.34961
11
8.54633
21
-4.35001
0
LINE
8
BLACK
6
CONTINUOUS
10
7.61559
20
-4.31662
11
7.61847
21
-4.31854
0
LINE
8
BLACK
6
CONTINUOUS
10
7.61847
20
-4.31854
11
7.62039
21
-4.32141
0
LINE
8
BLACK
6
CONTINUOUS
10
7.62039
20
-4.32141
11
7.62106
21
-4.3248
0
LINE
8
BLACK
6
CONTINUOUS
10
7.62106
20
-4.3248
11
7.62106
21
-4.34449
0
LINE
8
BLACK
6
CONTINUOUS
10
7.62106
20
-4.34449
11
7.62039
21
-4.34788
0
LINE
8
BLACK
6
CONTINUOUS
10
7.62039
20
-4.34788
11
7.61847
21
-4.35075
0
LINE
8
BLACK
6
CONTINUOUS
10
7.61847
20
-4.35075
11
7.61559
21
-4.35267
0
LINE
8
BLACK
6
CONTINUOUS
10
7.61559
20
-4.35267
11
7.6122
21
-4.35335
0
LINE
8
BLACK
6
CONTINUOUS
10
7.6122
20
-4.35335
11
7.59449
21
-4.35335
0
LINE
8
BLACK
6
CONTINUOUS
10
7.59449
20
-4.35335
11
7.5911
21
-4.35267
0
LINE
8
BLACK
6
CONTINUOUS
10
7.5911
20
-4.35267
11
7.58822
21
-4.35075
0
LINE
8
BLACK
6
CONTINUOUS
10
7.58822
20
-4.35075
11
7.5863
21
-4.34788
0
LINE
8
BLACK
6
CONTINUOUS
10
7.5863
20
-4.34788
11
7.58563
21
-4.34449
0
LINE
8
BLACK
6
CONTINUOUS
10
7.58563
20
-4.34449
11
7.58563
21
-4.3248
0
LINE
8
BLACK
6
CONTINUOUS
10
7.58563
20
-4.3248
11
7.5863
21
-4.32141
0
LINE
8
BLACK
6
CONTINUOUS
10
7.5863
20
-4.32141
11
7.58822
21
-4.31854
0
LINE
8
BLACK
6
CONTINUOUS
10
7.58822
20
-4.31854
11
7.5911
21
-4.31662
0
LINE
8
BLACK
6
CONTINUOUS
10
7.5911
20
-4.31662
11
7.59449
21
-4.31594
0
LINE
8
BLACK
6
CONTINUOUS
10
7.59449
20
-4.31594
11
7.6122
21
-4.31594
0
LINE
8
BLACK
6
CONTINUOUS
10
7.6122
20
-4.31594
11
7.61559
21
-4.31662
0
LINE
8
BLACK
6
CONTINUOUS
10
7.67662
20
-4.31662
11
7.67949
21
-4.31854
0
LINE
8
BLACK
6
CONTINUOUS
10
7.67949
20
-4.31854
11
7.68141
21
-4.32141
0
LINE
8
BLACK
6
CONTINUOUS
10
7.68141
20
-4.32141
11
7.68209
21
-4.3248
0
LINE
8
BLACK
6
CONTINUOUS
10
7.68209
20
-4.3248
11
7.68209
21
-4.34449
0
LINE
8
BLACK
6
CONTINUOUS
10
7.68209
20
-4.34449
11
7.68141
21
-4.34788
0
LINE
8
BLACK
6
CONTINUOUS
10
7.68141
20
-4.34788
11
7.67949
21
-4.35075
0
LINE
8
BLACK
6
CONTINUOUS
10
7.67949
20
-4.35075
11
7.67662
21
-4.35267
0
LINE
8
BLACK
6
CONTINUOUS
10
7.67662
20
-4.35267
11
7.67323
21
-4.35335
0
LINE
8
BLACK
6
CONTINUOUS
10
7.67323
20
-4.35335
11
7.65551
21
-4.35335
0
LINE
8
BLACK
6
CONTINUOUS
10
7.65551
20
-4.35335
11
7.65212
21
-4.35267
0
LINE
8
BLACK
6
CONTINUOUS
10
7.65212
20
-4.35267
11
7.64925
21
-4.35075
0
LINE
8
BLACK
6
CONTINUOUS
10
7.64925
20
-4.35075
11
7.64733
21
-4.34788
0
LINE
8
BLACK
6
CONTINUOUS
10
7.64733
20
-4.34788
11
7.64665
21
-4.34449
0
LINE
8
BLACK
6
CONTINUOUS
10
7.64665
20
-4.34449
11
7.64665
21
-4.3248
0
LINE
8
BLACK
6
CONTINUOUS
10
7.64665
20
-4.3248
11
7.64733
21
-4.32141
0
LINE
8
BLACK
6
CONTINUOUS
10
7.64733
20
-4.32141
11
7.64925
21
-4.31854
0
LINE
8
BLACK
6
CONTINUOUS
10
7.64925
20
-4.31854
11
7.65212
21
-4.31662
0
LINE
8
BLACK
6
CONTINUOUS
10
7.65212
20
-4.31662
11
7.65551
21
-4.31594
0
LINE
8
BLACK
6
CONTINUOUS
10
7.65551
20
-4.31594
11
7.67323
21
-4.31594
0
LINE
8
BLACK
6
CONTINUOUS
10
7.67323
20
-4.31594
11
7.67662
21
-4.31662
0
LINE
8
BLACK
6
CONTINUOUS
10
8.58648
20
-4.3067
11
8.58821
21
-4.30786
0
LINE
8
BLACK
6
CONTINUOUS
10
8.58821
20
-4.30786
11
8.58936
21
-4.30958
0
LINE
8
BLACK
6
CONTINUOUS
10
8.58936
20
-4.30958
11
8.58976
21
-4.31161
0
LINE
8
BLACK
6
CONTINUOUS
10
8.58976
20
-4.31161
11
8.58976
21
-4.32618
0
LINE
8
BLACK
6
CONTINUOUS
10
8.58976
20
-4.32618
11
8.58936
21
-4.32822
0
LINE
8
BLACK
6
CONTINUOUS
10
8.58936
20
-4.32822
11
8.58821
21
-4.32994
0
LINE
8
BLACK
6
CONTINUOUS
10
8.58821
20
-4.32994
11
8.58648
21
-4.33109
0
LINE
8
BLACK
6
CONTINUOUS
10
8.58648
20
-4.33109
11
8.58445
21
-4.3315
0
LINE
8
BLACK
6
CONTINUOUS
10
8.58445
20
-4.3315
11
8.57382
21
-4.3315
0
LINE
8
BLACK
6
CONTINUOUS
10
8.57382
20
-4.3315
11
8.57178
21
-4.33109
0
LINE
8
BLACK
6
CONTINUOUS
10
8.57178
20
-4.33109
11
8.57006
21
-4.32994
0
LINE
8
BLACK
6
CONTINUOUS
10
8.57006
20
-4.32994
11
8.56891
21
-4.32822
0
LINE
8
BLACK
6
CONTINUOUS
10
8.56891
20
-4.32822
11
8.5685
21
-4.32618
0
LINE
8
BLACK
6
CONTINUOUS
10
8.5685
20
-4.32618
11
8.5685
21
-4.31161
0
LINE
8
BLACK
6
CONTINUOUS
10
8.5685
20
-4.31161
11
8.56891
21
-4.30958
0
LINE
8
BLACK
6
CONTINUOUS
10
8.56891
20
-4.30958
11
8.57006
21
-4.30786
0
LINE
8
BLACK
6
CONTINUOUS
10
8.57006
20
-4.30786
11
8.57178
21
-4.3067
0
LINE
8
BLACK
6
CONTINUOUS
10
8.57178
20
-4.3067
11
8.57382
21
-4.3063
0
LINE
8
BLACK
6
CONTINUOUS
10
8.57382
20
-4.3063
11
8.58445
21
-4.3063
0
LINE
8
BLACK
6
CONTINUOUS
10
8.58445
20
-4.3063
11
8.58648
21
-4.3067
0
LINE
8
BLACK
6
CONTINUOUS
10
8.54633
20
-4.3067
11
8.54805
21
-4.30786
0
LINE
8
BLACK
6
CONTINUOUS
10
8.54805
20
-4.30786
11
8.5492
21
-4.30958
0
LINE
8
BLACK
6
CONTINUOUS
10
8.5492
20
-4.30958
11
8.54961
21
-4.31161
0
LINE
8
BLACK
6
CONTINUOUS
10
8.54961
20
-4.31161
11
8.54961
21
-4.32618
0
LINE
8
BLACK
6
CONTINUOUS
10
8.54961
20
-4.32618
11
8.5492
21
-4.32822
0
LINE
8
BLACK
6
CONTINUOUS
10
8.5492
20
-4.32822
11
8.54805
21
-4.32994
0
LINE
8
BLACK
6
CONTINUOUS
10
8.54805
20
-4.32994
11
8.54633
21
-4.33109
0
LINE
8
BLACK
6
CONTINUOUS
10
8.54633
20
-4.33109
11
8.54429
21
-4.3315
0
LINE
8
BLACK
6
CONTINUOUS
10
8.54429
20
-4.3315
11
8.53366
21
-4.3315
0
LINE
8
BLACK
6
CONTINUOUS
10
8.53366
20
-4.3315
11
8.53163
21
-4.33109
0
LINE
8
BLACK
6
CONTINUOUS
10
8.53163
20
-4.33109
11
8.5299
21
-4.32994
0
LINE
8
BLACK
6
CONTINUOUS
10
8.5299
20
-4.32994
11
8.52875
21
-4.32822
0
LINE
8
BLACK
6
CONTINUOUS
10
8.52875
20
-4.32822
11
8.52835
21
-4.32618
0
LINE
8
BLACK
6
CONTINUOUS
10
8.52835
20
-4.32618
11
8.52835
21
-4.31161
0
LINE
8
BLACK
6
CONTINUOUS
10
8.52835
20
-4.31161
11
8.52875
21
-4.30958
0
LINE
8
BLACK
6
CONTINUOUS
10
8.52875
20
-4.30958
11
8.5299
21
-4.30786
0
LINE
8
BLACK
6
CONTINUOUS
10
8.5299
20
-4.30786
11
8.53163
21
-4.3067
0
LINE
8
BLACK
6
CONTINUOUS
10
8.53163
20
-4.3067
11
8.53366
21
-4.3063
0
LINE
8
BLACK
6
CONTINUOUS
10
8.53366
20
-4.3063
11
8.54429
21
-4.3063
0
LINE
8
BLACK
6
CONTINUOUS
10
8.54429
20
-4.3063
11
8.54633
21
-4.3067
0
LINE
8
BLACK
6
CONTINUOUS
10
8.23766
20
-4.30119
11
8.23939
21
-4.30234
0
LINE
8
BLACK
6
CONTINUOUS
10
8.23939
20
-4.30234
11
8.24054
21
-4.30407
0
LINE
8
BLACK
6
CONTINUOUS
10
8.24054
20
-4.30407
11
8.24094
21
-4.3061
0
LINE
8
BLACK
6
CONTINUOUS
10
8.24094
20
-4.3061
11
8.24094
21
-4.31673
0
LINE
8
BLACK
6
CONTINUOUS
10
8.24094
20
-4.31673
11
8.24054
21
-4.31877
0
LINE
8
BLACK
6
CONTINUOUS
10
8.24054
20
-4.31877
11
8.23939
21
-4.32049
0
LINE
8
BLACK
6
CONTINUOUS
10
8.23939
20
-4.32049
11
8.23766
21
-4.32164
0
LINE
8
BLACK
6
CONTINUOUS
10
8.23766
20
-4.32164
11
8.23563
21
-4.32205
0
LINE
8
BLACK
6
CONTINUOUS
10
8.23563
20
-4.32205
11
8.22106
21
-4.32205
0
LINE
8
BLACK
6
CONTINUOUS
10
8.22106
20
-4.32205
11
8.21903
21
-4.32164
0
LINE
8
BLACK
6
CONTINUOUS
10
8.21903
20
-4.32164
11
8.2173
21
-4.32049
0
LINE
8
BLACK
6
CONTINUOUS
10
8.2173
20
-4.32049
11
8.21615
21
-4.31877
0
LINE
8
BLACK
6
CONTINUOUS
10
8.21615
20
-4.31877
11
8.21575
21
-4.31673
0
LINE
8
BLACK
6
CONTINUOUS
10
8.21575
20
-4.31673
11
8.21575
21
-4.3061
0
LINE
8
BLACK
6
CONTINUOUS
10
8.21575
20
-4.3061
11
8.21615
21
-4.30407
0
LINE
8
BLACK
6
CONTINUOUS
10
8.21615
20
-4.30407
11
8.2173
21
-4.30234
0
LINE
8
BLACK
6
CONTINUOUS
10
8.2173
20
-4.30234
11
8.21903
21
-4.30119
0
LINE
8
BLACK
6
CONTINUOUS
10
8.21903
20
-4.30119
11
8.22106
21
-4.30079
0
LINE
8
BLACK
6
CONTINUOUS
10
8.22106
20
-4.30079
11
8.23563
21
-4.30079
0
LINE
8
BLACK
6
CONTINUOUS
10
8.23563
20
-4.30079
11
8.23766
21
-4.30119
0
LINE
8
BLACK
6
CONTINUOUS
10
8.1854
20
-4.26618
11
8.18943
21
-4.26806
0
LINE
8
BLACK
6
CONTINUOUS
10
8.18943
20
-4.26806
11
8.19257
21
-4.2712
0
LINE
8
BLACK
6
CONTINUOUS
10
8.19257
20
-4.2712
11
8.19445
21
-4.27523
0
LINE
8
BLACK
6
CONTINUOUS
10
8.19445
20
-4.27523
11
8.19488
21
-4.27854
0
LINE
8
BLACK
6
CONTINUOUS
10
8.19488
20
-4.27854
11
8.19488
21
-4.30413
0
LINE
8
BLACK
6
CONTINUOUS
10
8.19488
20
-4.30413
11
8.19445
21
-4.30745
0
LINE
8
BLACK
6
CONTINUOUS
10
8.19445
20
-4.30745
11
8.19257
21
-4.31147
0
LINE
8
BLACK
6
CONTINUOUS
10
8.19257
20
-4.31147
11
8.18943
21
-4.31462
0
LINE
8
BLACK
6
CONTINUOUS
10
8.18943
20
-4.31462
11
8.1854
21
-4.31649
0
LINE
8
BLACK
6
CONTINUOUS
10
8.1854
20
-4.31649
11
8.18209
21
-4.31693
0
LINE
8
BLACK
6
CONTINUOUS
10
8.18209
20
-4.31693
11
8.1565
21
-4.31693
0
LINE
8
BLACK
6
CONTINUOUS
10
8.1565
20
-4.31693
11
8.15318
21
-4.31649
0
LINE
8
BLACK
6
CONTINUOUS
10
8.15318
20
-4.31649
11
8.14916
21
-4.31462
0
LINE
8
BLACK
6
CONTINUOUS
10
8.14916
20
-4.31462
11
8.14601
21
-4.31147
0
LINE
8
BLACK
6
CONTINUOUS
10
8.14601
20
-4.31147
11
8.14414
21
-4.30745
0
LINE
8
BLACK
6
CONTINUOUS
10
8.14414
20
-4.30745
11
8.1437
21
-4.30413
0
LINE
8
BLACK
6
CONTINUOUS
10
8.1437
20
-4.30413
11
8.1437
21
-4.27854
0
LINE
8
BLACK
6
CONTINUOUS
10
8.1437
20
-4.27854
11
8.14414
21
-4.27523
0
LINE
8
BLACK
6
CONTINUOUS
10
8.14414
20
-4.27523
11
8.14601
21
-4.2712
0
LINE
8
BLACK
6
CONTINUOUS
10
8.14601
20
-4.2712
11
8.14916
21
-4.26806
0
LINE
8
BLACK
6
CONTINUOUS
10
8.14916
20
-4.26806
11
8.15318
21
-4.26618
0
LINE
8
BLACK
6
CONTINUOUS
10
8.15318
20
-4.26618
11
8.1565
21
-4.26575
0
LINE
8
BLACK
6
CONTINUOUS
10
8.1565
20
-4.26575
11
8.18209
21
-4.26575
0
LINE
8
BLACK
6
CONTINUOUS
10
8.18209
20
-4.26575
11
8.1854
21
-4.26618
0
LINE
8
BLACK
6
CONTINUOUS
10
8.00823
20
-4.26618
11
8.01226
21
-4.26806
0
LINE
8
BLACK
6
CONTINUOUS
10
8.01226
20
-4.26806
11
8.0154
21
-4.2712
0
LINE
8
BLACK
6
CONTINUOUS
10
8.0154
20
-4.2712
11
8.01728
21
-4.27523
0
LINE
8
BLACK
6
CONTINUOUS
10
8.01728
20
-4.27523
11
8.01772
21
-4.27854
0
LINE
8
BLACK
6
CONTINUOUS
10
8.01772
20
-4.27854
11
8.01772
21
-4.30413
0
LINE
8
BLACK
6
CONTINUOUS
10
8.01772
20
-4.30413
11
8.01728
21
-4.30745
0
LINE
8
BLACK
6
CONTINUOUS
10
8.01728
20
-4.30745
11
8.0154
21
-4.31147
0
LINE
8
BLACK
6
CONTINUOUS
10
8.0154
20
-4.31147
11
8.01226
21
-4.31462
0
LINE
8
BLACK
6
CONTINUOUS
10
8.01226
20
-4.31462
11
8.00823
21
-4.31649
0
LINE
8
BLACK
6
CONTINUOUS
10
8.00823
20
-4.31649
11
8.00492
21
-4.31693
0
LINE
8
BLACK
6
CONTINUOUS
10
8.00492
20
-4.31693
11
7.97933
21
-4.31693
0
LINE
8
BLACK
6
CONTINUOUS
10
7.97933
20
-4.31693
11
7.97602
21
-4.31649
0
LINE
8
BLACK
6
CONTINUOUS
10
7.97602
20
-4.31649
11
7.97199
21
-4.31462
0
LINE
8
BLACK
6
CONTINUOUS
10
7.97199
20
-4.31462
11
7.96885
21
-4.31147
0
LINE
8
BLACK
6
CONTINUOUS
10
7.96885
20
-4.31147
11
7.96697
21
-4.30745
0
LINE
8
BLACK
6
CONTINUOUS
10
7.96697
20
-4.30745
11
7.96654
21
-4.30413
0
LINE
8
BLACK
6
CONTINUOUS
10
7.96654
20
-4.30413
11
7.96654
21
-4.27854
0
LINE
8
BLACK
6
CONTINUOUS
10
7.96654
20
-4.27854
11
7.96697
21
-4.27523
0
LINE
8
BLACK
6
CONTINUOUS
10
7.96697
20
-4.27523
11
7.96885
21
-4.2712
0
LINE
8
BLACK
6
CONTINUOUS
10
7.96885
20
-4.2712
11
7.97199
21
-4.26806
0
LINE
8
BLACK
6
CONTINUOUS
10
7.97199
20
-4.26806
11
7.97602
21
-4.26618
0
LINE
8
BLACK
6
CONTINUOUS
10
7.97602
20
-4.26618
11
7.97933
21
-4.26575
0
LINE
8
BLACK
6
CONTINUOUS
10
7.97933
20
-4.26575
11
8.00492
21
-4.26575
0
LINE
8
BLACK
6
CONTINUOUS
10
8.00492
20
-4.26575
11
8.00823
21
-4.26618
0
LINE
8
BLACK
6
CONTINUOUS
10
7.85265
20
-4.26423
11
7.85457
21
-4.26551
0
LINE
8
BLACK
6
CONTINUOUS
10
7.85457
20
-4.26551
11
7.85585
21
-4.26743
0
LINE
8
BLACK
6
CONTINUOUS
10
7.85585
20
-4.26743
11
7.8563
21
-4.26969
0
LINE
8
BLACK
6
CONTINUOUS
10
7.8563
20
-4.26969
11
7.8563
21
-4.31004
0
LINE
8
BLACK
6
CONTINUOUS
10
7.8563
20
-4.31004
11
7.85585
21
-4.3123
0
LINE
8
BLACK
6
CONTINUOUS
10
7.85585
20
-4.3123
11
7.85457
21
-4.31422
0
LINE
8
BLACK
6
CONTINUOUS
10
7.85457
20
-4.31422
11
7.85265
21
-4.3155
0
LINE
8
BLACK
6
CONTINUOUS
10
7.85265
20
-4.3155
11
7.85039
21
-4.31594
0
LINE
8
BLACK
6
CONTINUOUS
10
7.85039
20
-4.31594
11
7.83858
21
-4.31594
0
LINE
8
BLACK
6
CONTINUOUS
10
7.83858
20
-4.31594
11
7.83632
21
-4.3155
0
LINE
8
BLACK
6
CONTINUOUS
10
7.83632
20
-4.3155
11
7.83441
21
-4.31422
0
LINE
8
BLACK
6
CONTINUOUS
10
7.83441
20
-4.31422
11
7.83313
21
-4.3123
0
LINE
8
BLACK
6
CONTINUOUS
10
7.83313
20
-4.3123
11
7.83268
21
-4.31004
0
LINE
8
BLACK
6
CONTINUOUS
10
7.83268
20
-4.31004
11
7.83268
21
-4.26969
0
LINE
8
BLACK
6
CONTINUOUS
10
7.83268
20
-4.26969
11
7.83313
21
-4.26743
0
LINE
8
BLACK
6
CONTINUOUS
10
7.83313
20
-4.26743
11
7.83441
21
-4.26551
0
LINE
8
BLACK
6
CONTINUOUS
10
7.83441
20
-4.26551
11
7.83632
21
-4.26423
0
LINE
8
BLACK
6
CONTINUOUS
10
7.83632
20
-4.26423
11
7.83858
21
-4.26378
0
LINE
8
BLACK
6
CONTINUOUS
10
7.83858
20
-4.26378
11
7.85039
21
-4.26378
0
LINE
8
BLACK
6
CONTINUOUS
10
7.85039
20
-4.26378
11
7.85265
21
-4.26423
0
LINE
8
BLACK
6
CONTINUOUS
10
7.89006
20
-4.26423
11
7.89197
21
-4.26551
0
LINE
8
BLACK
6
CONTINUOUS
10
7.89197
20
-4.26551
11
7.89325
21
-4.26743
0
LINE
8
BLACK
6
CONTINUOUS
10
7.89325
20
-4.26743
11
7.8937
21
-4.26969
0
LINE
8
BLACK
6
CONTINUOUS
10
7.8937
20
-4.26969
11
7.8937
21
-4.31004
0
LINE
8
BLACK
6
CONTINUOUS
10
7.8937
20
-4.31004
11
7.89325
21
-4.3123
0
LINE
8
BLACK
6
CONTINUOUS
10
7.89325
20
-4.3123
11
7.89197
21
-4.31422
0
LINE
8
BLACK
6
CONTINUOUS
10
7.89197
20
-4.31422
11
7.89006
21
-4.3155
0
LINE
8
BLACK
6
CONTINUOUS
10
7.89006
20
-4.3155
11
7.8878
21
-4.31594
0
LINE
8
BLACK
6
CONTINUOUS
10
7.8878
20
-4.31594
11
7.87598
21
-4.31594
0
LINE
8
BLACK
6
CONTINUOUS
10
7.87598
20
-4.31594
11
7.87372
21
-4.3155
0
LINE
8
BLACK
6
CONTINUOUS
10
7.87372
20
-4.3155
11
7.87181
21
-4.31422
0
LINE
8
BLACK
6
CONTINUOUS
10
7.87181
20
-4.31422
11
7.87053
21
-4.3123
0
LINE
8
BLACK
6
CONTINUOUS
10
7.87053
20
-4.3123
11
7.87008
21
-4.31004
0
LINE
8
BLACK
6
CONTINUOUS
10
7.87008
20
-4.31004
11
7.87008
21
-4.26969
0
LINE
8
BLACK
6
CONTINUOUS
10
7.87008
20
-4.26969
11
7.87053
21
-4.26743
0
LINE
8
BLACK
6
CONTINUOUS
10
7.87053
20
-4.26743
11
7.87181
21
-4.26551
0
LINE
8
BLACK
6
CONTINUOUS
10
7.87181
20
-4.26551
11
7.87372
21
-4.26423
0
LINE
8
BLACK
6
CONTINUOUS
10
7.87372
20
-4.26423
11
7.87598
21
-4.26378
0
LINE
8
BLACK
6
CONTINUOUS
10
7.87598
20
-4.26378
11
7.8878
21
-4.26378
0
LINE
8
BLACK
6
CONTINUOUS
10
7.8878
20
-4.26378
11
7.89006
21
-4.26423
0
LINE
8
BLACK
6
CONTINUOUS
10
7.92746
20
-4.26423
11
7.92937
21
-4.26551
0
LINE
8
BLACK
6
CONTINUOUS
10
7.92937
20
-4.26551
11
7.93065
21
-4.26743
0
LINE
8
BLACK
6
CONTINUOUS
10
7.93065
20
-4.26743
11
7.9311
21
-4.26969
0
LINE
8
BLACK
6
CONTINUOUS
10
7.9311
20
-4.26969
11
7.9311
21
-4.31004
0
LINE
8
BLACK
6
CONTINUOUS
10
7.9311
20
-4.31004
11
7.93065
21
-4.3123
0
LINE
8
BLACK
6
CONTINUOUS
10
7.93065
20
-4.3123
11
7.92937
21
-4.31422
0
LINE
8
BLACK
6
CONTINUOUS
10
7.92937
20
-4.31422
11
7.92746
21
-4.3155
0
LINE
8
BLACK
6
CONTINUOUS
10
7.92746
20
-4.3155
11
7.9252
21
-4.31594
0
LINE
8
BLACK
6
CONTINUOUS
10
7.9252
20
-4.31594
11
7.91339
21
-4.31594
0
LINE
8
BLACK
6
CONTINUOUS
10
7.91339
20
-4.31594
11
7.91113
21
-4.3155
0
LINE
8
BLACK
6
CONTINUOUS
10
7.91113
20
-4.3155
11
7.90921
21
-4.31422
0
LINE
8
BLACK
6
CONTINUOUS
10
7.90921
20
-4.31422
11
7.90793
21
-4.3123
0
LINE
8
BLACK
6
CONTINUOUS
10
7.90793
20
-4.3123
11
7.90748
21
-4.31004
0
LINE
8
BLACK
6
CONTINUOUS
10
7.90748
20
-4.31004
11
7.90748
21
-4.26969
0
LINE
8
BLACK
6
CONTINUOUS
10
7.90748
20
-4.26969
11
7.90793
21
-4.26743
0
LINE
8
BLACK
6
CONTINUOUS
10
7.90793
20
-4.26743
11
7.90921
21
-4.26551
0
LINE
8
BLACK
6
CONTINUOUS
10
7.90921
20
-4.26551
11
7.91113
21
-4.26423
0
LINE
8
BLACK
6
CONTINUOUS
10
7.91113
20
-4.26423
11
7.91339
21
-4.26378
0
LINE
8
BLACK
6
CONTINUOUS
10
7.91339
20
-4.26378
11
7.9252
21
-4.26378
0
LINE
8
BLACK
6
CONTINUOUS
10
7.9252
20
-4.26378
11
7.92746
21
-4.26423
0
LINE
8
BLACK
6
CONTINUOUS
10
7.4878
20
-4.30945
11
7.40906
21
-4.30945
0
LINE
8
BLACK
6
CONTINUOUS
10
7.40906
20
-4.30945
11
7.40906
21
-4.23071
0
LINE
8
BLACK
6
CONTINUOUS
10
7.40906
20
-4.23071
11
7.4878
21
-4.23071
0
LINE
8
BLACK
6
CONTINUOUS
10
7.4878
20
-4.23071
11
7.4878
21
-4.30945
0
LINE
8
BLACK
6
CONTINUOUS
10
8.71722
20
-4.23117
11
8.72245
21
-4.23313
0
LINE
8
BLACK
6
CONTINUOUS
10
8.72245
20
-4.23313
11
8.72691
21
-4.23647
0
LINE
8
BLACK
6
CONTINUOUS
10
8.72691
20
-4.23647
11
8.73026
21
-4.24094
0
LINE
8
BLACK
6
CONTINUOUS
10
8.73026
20
-4.24094
11
8.73222
21
-4.24617
0
LINE
8
BLACK
6
CONTINUOUS
10
8.73222
20
-4.24617
11
8.73268
21
-4.25039
0
LINE
8
BLACK
6
CONTINUOUS
10
8.73268
20
-4.25039
11
8.73268
21
-4.28976
0
LINE
8
BLACK
6
CONTINUOUS
10
8.73268
20
-4.28976
11
8.73222
21
-4.29399
0
LINE
8
BLACK
6
CONTINUOUS
10
8.73222
20
-4.29399
11
8.73026
21
-4.29922
0
LINE
8
BLACK
6
CONTINUOUS
10
8.73026
20
-4.29922
11
8.72691
21
-4.30368
0
LINE
8
BLACK
6
CONTINUOUS
10
8.72691
20
-4.30368
11
8.72245
21
-4.30703
0
LINE
8
BLACK
6
CONTINUOUS
10
8.72245
20
-4.30703
11
8.71722
21
-4.30899
0
LINE
8
BLACK
6
CONTINUOUS
10
8.71722
20
-4.30899
11
8.71299
21
-4.30945
0
LINE
8
BLACK
6
CONTINUOUS
10
8.71299
20
-4.30945
11
8.67362
21
-4.30945
0
LINE
8
BLACK
6
CONTINUOUS
10
8.67362
20
-4.30945
11
8.66939
21
-4.30899
0
LINE
8
BLACK
6
CONTINUOUS
10
8.66939
20
-4.30899
11
8.66417
21
-4.30703
0
LINE
8
BLACK
6
CONTINUOUS
10
8.66417
20
-4.30703
11
8.6597
21
-4.30368
0
LINE
8
BLACK
6
CONTINUOUS
10
8.6597
20
-4.30368
11
8.65636
21
-4.29922
0
LINE
8
BLACK
6
CONTINUOUS
10
8.65636
20
-4.29922
11
8.6544
21
-4.29399
0
LINE
8
BLACK
6
CONTINUOUS
10
8.6544
20
-4.29399
11
8.65394
21
-4.28976
0
LINE
8
BLACK
6
CONTINUOUS
10
8.65394
20
-4.28976
11
8.65394
21
-4.25039
0
LINE
8
BLACK
6
CONTINUOUS
10
8.65394
20
-4.25039
11
8.6544
21
-4.24617
0
LINE
8
BLACK
6
CONTINUOUS
10
8.6544
20
-4.24617
11
8.65636
21
-4.24094
0
LINE
8
BLACK
6
CONTINUOUS
10
8.65636
20
-4.24094
11
8.6597
21
-4.23647
0
LINE
8
BLACK
6
CONTINUOUS
10
8.6597
20
-4.23647
11
8.66417
21
-4.23313
0
LINE
8
BLACK
6
CONTINUOUS
10
8.66417
20
-4.23313
11
8.66939
21
-4.23117
0
LINE
8
BLACK
6
CONTINUOUS
10
8.66939
20
-4.23117
11
8.67362
21
-4.23071
0
LINE
8
BLACK
6
CONTINUOUS
10
8.67362
20
-4.23071
11
8.71299
21
-4.23071
0
LINE
8
BLACK
6
CONTINUOUS
10
8.71299
20
-4.23071
11
8.71722
21
-4.23117
0
LINE
8
BLACK
6
CONTINUOUS
10
8.43268
20
-4.30945
11
8.35394
21
-4.30945
0
LINE
8
BLACK
6
CONTINUOUS
10
8.35394
20
-4.30945
11
8.35394
21
-4.23071
0
LINE
8
BLACK
6
CONTINUOUS
10
8.35394
20
-4.23071
11
8.43268
21
-4.23071
0
LINE
8
BLACK
6
CONTINUOUS
10
8.43268
20
-4.23071
11
8.43268
21
-4.30945
0
LINE
8
BLACK
6
CONTINUOUS
10
7.77234
20
-4.23117
11
7.77756
21
-4.23313
0
LINE
8
BLACK
6
CONTINUOUS
10
7.77756
20
-4.23313
11
7.78203
21
-4.23647
0
LINE
8
BLACK
6
CONTINUOUS
10
7.78203
20
-4.23647
11
7.78538
21
-4.24094
0
LINE
8
BLACK
6
CONTINUOUS
10
7.78538
20
-4.24094
11
7.78734
21
-4.24617
0
LINE
8
BLACK
6
CONTINUOUS
10
7.78734
20
-4.24617
11
7.7878
21
-4.25039
0
LINE
8
BLACK
6
CONTINUOUS
10
7.7878
20
-4.25039
11
7.7878
21
-4.28976
0
LINE
8
BLACK
6
CONTINUOUS
10
7.7878
20
-4.28976
11
7.78734
21
-4.29399
0
LINE
8
BLACK
6
CONTINUOUS
10
7.78734
20
-4.29399
11
7.78538
21
-4.29922
0
LINE
8
BLACK
6
CONTINUOUS
10
7.78538
20
-4.29922
11
7.78203
21
-4.30368
0
LINE
8
BLACK
6
CONTINUOUS
10
7.78203
20
-4.30368
11
7.77756
21
-4.30703
0
LINE
8
BLACK
6
CONTINUOUS
10
7.77756
20
-4.30703
11
7.77234
21
-4.30899
0
LINE
8
BLACK
6
CONTINUOUS
10
7.77234
20
-4.30899
11
7.76811
21
-4.30945
0
LINE
8
BLACK
6
CONTINUOUS
10
7.76811
20
-4.30945
11
7.72874
21
-4.30945
0
LINE
8
BLACK
6
CONTINUOUS
10
7.72874
20
-4.30945
11
7.72451
21
-4.30899
0
LINE
8
BLACK
6
CONTINUOUS
10
7.72451
20
-4.30899
11
7.71929
21
-4.30703
0
LINE
8
BLACK
6
CONTINUOUS
10
7.71929
20
-4.30703
11
7.71482
21
-4.30368
0
LINE
8
BLACK
6
CONTINUOUS
10
7.71482
20
-4.30368
11
7.71147
21
-4.29922
0
LINE
8
BLACK
6
CONTINUOUS
10
7.71147
20
-4.29922
11
7.70951
21
-4.29399
0
LINE
8
BLACK
6
CONTINUOUS
10
7.70951
20
-4.29399
11
7.70906
21
-4.28976
0
LINE
8
BLACK
6
CONTINUOUS
10
7.70906
20
-4.28976
11
7.70906
21
-4.25039
0
LINE
8
BLACK
6
CONTINUOUS
10
7.70906
20
-4.25039
11
7.70951
21
-4.24617
0
LINE
8
BLACK
6
CONTINUOUS
10
7.70951
20
-4.24617
11
7.71147
21
-4.24094
0
LINE
8
BLACK
6
CONTINUOUS
10
7.71147
20
-4.24094
11
7.71482
21
-4.23647
0
LINE
8
BLACK
6
CONTINUOUS
10
7.71482
20
-4.23647
11
7.71929
21
-4.23313
0
LINE
8
BLACK
6
CONTINUOUS
10
7.71929
20
-4.23313
11
7.72451
21
-4.23117
0
LINE
8
BLACK
6
CONTINUOUS
10
7.72451
20
-4.23117
11
7.72874
21
-4.23071
0
LINE
8
BLACK
6
CONTINUOUS
10
7.72874
20
-4.23071
11
7.76811
21
-4.23071
0
LINE
8
BLACK
6
CONTINUOUS
10
7.76811
20
-4.23071
11
7.77234
21
-4.23117
0
LINE
8
BLACK
6
CONTINUOUS
10
7.61559
20
-4.25363
11
7.61847
21
-4.25555
0
LINE
8
BLACK
6
CONTINUOUS
10
7.61847
20
-4.25555
11
7.62039
21
-4.25842
0
LINE
8
BLACK
6
CONTINUOUS
10
7.62039
20
-4.25842
11
7.62106
21
-4.26181
0
LINE
8
BLACK
6
CONTINUOUS
10
7.62106
20
-4.26181
11
7.62106
21
-4.2815
0
LINE
8
BLACK
6
CONTINUOUS
10
7.62106
20
-4.2815
11
7.62039
21
-4.28489
0
LINE
8
BLACK
6
CONTINUOUS
10
7.62039
20
-4.28489
11
7.61847
21
-4.28776
0
LINE
8
BLACK
6
CONTINUOUS
10
7.61847
20
-4.28776
11
7.61559
21
-4.28968
0
LINE
8
BLACK
6
CONTINUOUS
10
7.61559
20
-4.28968
11
7.6122
21
-4.29035
0
LINE
8
BLACK
6
CONTINUOUS
10
7.6122
20
-4.29035
11
7.59449
21
-4.29035
0
LINE
8
BLACK
6
CONTINUOUS
10
7.59449
20
-4.29035
11
7.5911
21
-4.28968
0
LINE
8
BLACK
6
CONTINUOUS
10
7.5911
20
-4.28968
11
7.58822
21
-4.28776
0
LINE
8
BLACK
6
CONTINUOUS
10
7.58822
20
-4.28776
11
7.5863
21
-4.28489
0
LINE
8
BLACK
6
CONTINUOUS
10
7.5863
20
-4.28489
11
7.58563
21
-4.2815
0
LINE
8
BLACK
6
CONTINUOUS
10
7.58563
20
-4.2815
11
7.58563
21
-4.26181
0
LINE
8
BLACK
6
CONTINUOUS
10
7.58563
20
-4.26181
11
7.5863
21
-4.25842
0
LINE
8
BLACK
6
CONTINUOUS
10
7.5863
20
-4.25842
11
7.58822
21
-4.25555
0
LINE
8
BLACK
6
CONTINUOUS
10
7.58822
20
-4.25555
11
7.5911
21
-4.25363
0
LINE
8
BLACK
6
CONTINUOUS
10
7.5911
20
-4.25363
11
7.59449
21
-4.25295
0
LINE
8
BLACK
6
CONTINUOUS
10
7.59449
20
-4.25295
11
7.6122
21
-4.25295
0
LINE
8
BLACK
6
CONTINUOUS
10
7.6122
20
-4.25295
11
7.61559
21
-4.25363
0
LINE
8
BLACK
6
CONTINUOUS
10
7.67662
20
-4.25363
11
7.67949
21
-4.25555
0
LINE
8
BLACK
6
CONTINUOUS
10
7.67949
20
-4.25555
11
7.68141
21
-4.25842
0
LINE
8
BLACK
6
CONTINUOUS
10
7.68141
20
-4.25842
11
7.68209
21
-4.26181
0
LINE
8
BLACK
6
CONTINUOUS
10
7.68209
20
-4.26181
11
7.68209
21
-4.2815
0
LINE
8
BLACK
6
CONTINUOUS
10
7.68209
20
-4.2815
11
7.68141
21
-4.28489
0
LINE
8
BLACK
6
CONTINUOUS
10
7.68141
20
-4.28489
11
7.67949
21
-4.28776
0
LINE
8
BLACK
6
CONTINUOUS
10
7.67949
20
-4.28776
11
7.67662
21
-4.28968
0
LINE
8
BLACK
6
CONTINUOUS
10
7.67662
20
-4.28968
11
7.67323
21
-4.29035
0
LINE
8
BLACK
6
CONTINUOUS
10
7.67323
20
-4.29035
11
7.65551
21
-4.29035
0
LINE
8
BLACK
6
CONTINUOUS
10
7.65551
20
-4.29035
11
7.65212
21
-4.28968
0
LINE
8
BLACK
6
CONTINUOUS
10
7.65212
20
-4.28968
11
7.64925
21
-4.28776
0
LINE
8
BLACK
6
CONTINUOUS
10
7.64925
20
-4.28776
11
7.64733
21
-4.28489
0
LINE
8
BLACK
6
CONTINUOUS
10
7.64733
20
-4.28489
11
7.64665
21
-4.2815
0
LINE
8
BLACK
6
CONTINUOUS
10
7.64665
20
-4.2815
11
7.64665
21
-4.26181
0
LINE
8
BLACK
6
CONTINUOUS
10
7.64665
20
-4.26181
11
7.64733
21
-4.25842
0
LINE
8
BLACK
6
CONTINUOUS
10
7.64733
20
-4.25842
11
7.64925
21
-4.25555
0
LINE
8
BLACK
6
CONTINUOUS
10
7.64925
20
-4.25555
11
7.65212
21
-4.25363
0
LINE
8
BLACK
6
CONTINUOUS
10
7.65212
20
-4.25363
11
7.65551
21
-4.25295
0
LINE
8
BLACK
6
CONTINUOUS
10
7.65551
20
-4.25295
11
7.67323
21
-4.25295
0
LINE
8
BLACK
6
CONTINUOUS
10
7.67323
20
-4.25295
11
7.67662
21
-4.25363
0
LINE
8
BLACK
6
CONTINUOUS
10
8.50774
20
-4.25946
11
8.50947
21
-4.26061
0
LINE
8
BLACK
6
CONTINUOUS
10
8.50947
20
-4.26061
11
8.51062
21
-4.26234
0
LINE
8
BLACK
6
CONTINUOUS
10
8.51062
20
-4.26234
11
8.51102
21
-4.26437
0
LINE
8
BLACK
6
CONTINUOUS
10
8.51102
20
-4.26437
11
8.51102
21
-4.27894
0
LINE
8
BLACK
6
CONTINUOUS
10
8.51102
20
-4.27894
11
8.51062
21
-4.28097
0
LINE
8
BLACK
6
CONTINUOUS
10
8.51062
20
-4.28097
11
8.50947
21
-4.2827
0
LINE
8
BLACK
6
CONTINUOUS
10
8.50947
20
-4.2827
11
8.50774
21
-4.28385
0
LINE
8
BLACK
6
CONTINUOUS
10
8.50774
20
-4.28385
11
8.50571
21
-4.28425
0
LINE
8
BLACK
6
CONTINUOUS
10
8.50571
20
-4.28425
11
8.49508
21
-4.28425
0
LINE
8
BLACK
6
CONTINUOUS
10
8.49508
20
-4.28425
11
8.49304
21
-4.28385
0
LINE
8
BLACK
6
CONTINUOUS
10
8.49304
20
-4.28385
11
8.49132
21
-4.2827
0
LINE
8
BLACK
6
CONTINUOUS
10
8.49132
20
-4.2827
11
8.49017
21
-4.28097
0
LINE
8
BLACK
6
CONTINUOUS
10
8.49017
20
-4.28097
11
8.48976
21
-4.27894
0
LINE
8
BLACK
6
CONTINUOUS
10
8.48976
20
-4.27894
11
8.48976
21
-4.26437
0
LINE
8
BLACK
6
CONTINUOUS
10
8.48976
20
-4.26437
11
8.49017
21
-4.26234
0
LINE
8
BLACK
6
CONTINUOUS
10
8.49017
20
-4.26234
11
8.49132
21
-4.26061
0
LINE
8
BLACK
6
CONTINUOUS
10
8.49132
20
-4.26061
11
8.49304
21
-4.25946
0
LINE
8
BLACK
6
CONTINUOUS
10
8.49304
20
-4.25946
11
8.49508
21
-4.25906
0
LINE
8
BLACK
6
CONTINUOUS
10
8.49508
20
-4.25906
11
8.50571
21
-4.25906
0
LINE
8
BLACK
6
CONTINUOUS
10
8.50571
20
-4.25906
11
8.50774
21
-4.25946
0
LINE
8
BLACK
6
CONTINUOUS
10
8.54633
20
-4.25946
11
8.54805
21
-4.26061
0
LINE
8
BLACK
6
CONTINUOUS
10
8.54805
20
-4.26061
11
8.5492
21
-4.26234
0
LINE
8
BLACK
6
CONTINUOUS
10
8.5492
20
-4.26234
11
8.54961
21
-4.26437
0
LINE
8
BLACK
6
CONTINUOUS
10
8.54961
20
-4.26437
11
8.54961
21
-4.27894
0
LINE
8
BLACK
6
CONTINUOUS
10
8.54961
20
-4.27894
11
8.5492
21
-4.28097
0
LINE
8
BLACK
6
CONTINUOUS
10
8.5492
20
-4.28097
11
8.54805
21
-4.2827
0
LINE
8
BLACK
6
CONTINUOUS
10
8.54805
20
-4.2827
11
8.54633
21
-4.28385
0
LINE
8
BLACK
6
CONTINUOUS
10
8.54633
20
-4.28385
11
8.54429
21
-4.28425
0
LINE
8
BLACK
6
CONTINUOUS
10
8.54429
20
-4.28425
11
8.53366
21
-4.28425
0
LINE
8
BLACK
6
CONTINUOUS
10
8.53366
20
-4.28425
11
8.53163
21
-4.28385
0
LINE
8
BLACK
6
CONTINUOUS
10
8.53163
20
-4.28385
11
8.5299
21
-4.2827
0
LINE
8
BLACK
6
CONTINUOUS
10
8.5299
20
-4.2827
11
8.52875
21
-4.28097
0
LINE
8
BLACK
6
CONTINUOUS
10
8.52875
20
-4.28097
11
8.52835
21
-4.27894
0
LINE
8
BLACK
6
CONTINUOUS
10
8.52835
20
-4.27894
11
8.52835
21
-4.26437
0
LINE
8
BLACK
6
CONTINUOUS
10
8.52835
20
-4.26437
11
8.52875
21
-4.26234
0
LINE
8
BLACK
6
CONTINUOUS
10
8.52875
20
-4.26234
11
8.5299
21
-4.26061
0
LINE
8
BLACK
6
CONTINUOUS
10
8.5299
20
-4.26061
11
8.53163
21
-4.25946
0
LINE
8
BLACK
6
CONTINUOUS
10
8.53163
20
-4.25946
11
8.53366
21
-4.25906
0
LINE
8
BLACK
6
CONTINUOUS
10
8.53366
20
-4.25906
11
8.54429
21
-4.25906
0
LINE
8
BLACK
6
CONTINUOUS
10
8.54429
20
-4.25906
11
8.54633
21
-4.25946
0
LINE
8
BLACK
6
CONTINUOUS
10
8.58648
20
-4.25946
11
8.58821
21
-4.26061
0
LINE
8
BLACK
6
CONTINUOUS
10
8.58821
20
-4.26061
11
8.58936
21
-4.26234
0
LINE
8
BLACK
6
CONTINUOUS
10
8.58936
20
-4.26234
11
8.58976
21
-4.26437
0
LINE
8
BLACK
6
CONTINUOUS
10
8.58976
20
-4.26437
11
8.58976
21
-4.27894
0
LINE
8
BLACK
6
CONTINUOUS
10
8.58976
20
-4.27894
11
8.58936
21
-4.28097
0
LINE
8
BLACK
6
CONTINUOUS
10
8.58936
20
-4.28097
11
8.58821
21
-4.2827
0
LINE
8
BLACK
6
CONTINUOUS
10
8.58821
20
-4.2827
11
8.58648
21
-4.28385
0
LINE
8
BLACK
6
CONTINUOUS
10
8.58648
20
-4.28385
11
8.58445
21
-4.28425
0
LINE
8
BLACK
6
CONTINUOUS
10
8.58445
20
-4.28425
11
8.57382
21
-4.28425
0
LINE
8
BLACK
6
CONTINUOUS
10
8.57382
20
-4.28425
11
8.57178
21
-4.28385
0
LINE
8
BLACK
6
CONTINUOUS
10
8.57178
20
-4.28385
11
8.57006
21
-4.2827
0
LINE
8
BLACK
6
CONTINUOUS
10
8.57006
20
-4.2827
11
8.56891
21
-4.28097
0
LINE
8
BLACK
6
CONTINUOUS
10
8.56891
20
-4.28097
11
8.5685
21
-4.27894
0
LINE
8
BLACK
6
CONTINUOUS
10
8.5685
20
-4.27894
11
8.5685
21
-4.26437
0
LINE
8
BLACK
6
CONTINUOUS
10
8.5685
20
-4.26437
11
8.56891
21
-4.26234
0
LINE
8
BLACK
6
CONTINUOUS
10
8.56891
20
-4.26234
11
8.57006
21
-4.26061
0
LINE
8
BLACK
6
CONTINUOUS
10
8.57006
20
-4.26061
11
8.57178
21
-4.25946
0
LINE
8
BLACK
6
CONTINUOUS
10
8.57178
20
-4.25946
11
8.57382
21
-4.25906
0
LINE
8
BLACK
6
CONTINUOUS
10
8.57382
20
-4.25906
11
8.58445
21
-4.25906
0
LINE
8
BLACK
6
CONTINUOUS
10
8.58445
20
-4.25906
11
8.58648
21
-4.25946
0
LINE
8
BLACK
6
CONTINUOUS
10
8.46759
20
-4.25946
11
8.46931
21
-4.26061
0
LINE
8
BLACK
6
CONTINUOUS
10
8.46931
20
-4.26061
11
8.47046
21
-4.26234
0
LINE
8
BLACK
6
CONTINUOUS
10
8.47046
20
-4.26234
11
8.47087
21
-4.26437
0
LINE
8
BLACK
6
CONTINUOUS
10
8.47087
20
-4.26437
11
8.47087
21
-4.27894
0
LINE
8
BLACK
6
CONTINUOUS
10
8.47087
20
-4.27894
11
8.47046
21
-4.28097
0
LINE
8
BLACK
6
CONTINUOUS
10
8.47046
20
-4.28097
11
8.46931
21
-4.2827
0
LINE
8
BLACK
6
CONTINUOUS
10
8.46931
20
-4.2827
11
8.46759
21
-4.28385
0
LINE
8
BLACK
6
CONTINUOUS
10
8.46759
20
-4.28385
11
8.46555
21
-4.28425
0
LINE
8
BLACK
6
CONTINUOUS
10
8.46555
20
-4.28425
11
8.45492
21
-4.28425
0
LINE
8
BLACK
6
CONTINUOUS
10
8.45492
20
-4.28425
11
8.45289
21
-4.28385
0
LINE
8
BLACK
6
CONTINUOUS
10
8.45289
20
-4.28385
11
8.45116
21
-4.2827
0
LINE
8
BLACK
6
CONTINUOUS
10
8.45116
20
-4.2827
11
8.45001
21
-4.28097
0
LINE
8
BLACK
6
CONTINUOUS
10
8.45001
20
-4.28097
11
8.44961
21
-4.27894
0
LINE
8
BLACK
6
CONTINUOUS
10
8.44961
20
-4.27894
11
8.44961
21
-4.26437
0
LINE
8
BLACK
6
CONTINUOUS
10
8.44961
20
-4.26437
11
8.45001
21
-4.26234
0
LINE
8
BLACK
6
CONTINUOUS
10
8.45001
20
-4.26234
11
8.45116
21
-4.26061
0
LINE
8
BLACK
6
CONTINUOUS
10
8.45116
20
-4.26061
11
8.45289
21
-4.25946
0
LINE
8
BLACK
6
CONTINUOUS
10
8.45289
20
-4.25946
11
8.45492
21
-4.25906
0
LINE
8
BLACK
6
CONTINUOUS
10
8.45492
20
-4.25906
11
8.46555
21
-4.25906
0
LINE
8
BLACK
6
CONTINUOUS
10
8.46555
20
-4.25906
11
8.46759
21
-4.25946
0
LINE
8
BLACK
6
CONTINUOUS
10
8.23766
20
-4.26103
11
8.23939
21
-4.26219
0
LINE
8
BLACK
6
CONTINUOUS
10
8.23939
20
-4.26219
11
8.24054
21
-4.26391
0
LINE
8
BLACK
6
CONTINUOUS
10
8.24054
20
-4.26391
11
8.24094
21
-4.26594
0
LINE
8
BLACK
6
CONTINUOUS
10
8.24094
20
-4.26594
11
8.24094
21
-4.27657
0
LINE
8
BLACK
6
CONTINUOUS
10
8.24094
20
-4.27657
11
8.24054
21
-4.27861
0
LINE
8
BLACK
6
CONTINUOUS
10
8.24054
20
-4.27861
11
8.23939
21
-4.28033
0
LINE
8
BLACK
6
CONTINUOUS
10
8.23939
20
-4.28033
11
8.23766
21
-4.28149
0
LINE
8
BLACK
6
CONTINUOUS
10
8.23766
20
-4.28149
11
8.23563
21
-4.28189
0
LINE
8
BLACK
6
CONTINUOUS
10
8.23563
20
-4.28189
11
8.22106
21
-4.28189
0
LINE
8
BLACK
6
CONTINUOUS
10
8.22106
20
-4.28189
11
8.21903
21
-4.28149
0
LINE
8
BLACK
6
CONTINUOUS
10
8.21903
20
-4.28149
11
8.2173
21
-4.28033
0
LINE
8
BLACK
6
CONTINUOUS
10
8.2173
20
-4.28033
11
8.21615
21
-4.27861
0
LINE
8
BLACK
6
CONTINUOUS
10
8.21615
20
-4.27861
11
8.21575
21
-4.27657
0
LINE
8
BLACK
6
CONTINUOUS
10
8.21575
20
-4.27657
11
8.21575
21
-4.26594
0
LINE
8
BLACK
6
CONTINUOUS
10
8.21575
20
-4.26594
11
8.21615
21
-4.26391
0
LINE
8
BLACK
6
CONTINUOUS
10
8.21615
20
-4.26391
11
8.2173
21
-4.26219
0
LINE
8
BLACK
6
CONTINUOUS
10
8.2173
20
-4.26219
11
8.21903
21
-4.26103
0
LINE
8
BLACK
6
CONTINUOUS
10
8.21903
20
-4.26103
11
8.22106
21
-4.26063
0
LINE
8
BLACK
6
CONTINUOUS
10
8.22106
20
-4.26063
11
8.23563
21
-4.26063
0
LINE
8
BLACK
6
CONTINUOUS
10
8.23563
20
-4.26063
11
8.23766
21
-4.26103
0
LINE
8
BLACK
6
CONTINUOUS
10
8.18705
20
-4.15435
11
8.19439
21
-4.15662
0
LINE
8
BLACK
6
CONTINUOUS
10
8.19439
20
-4.15662
11
8.20115
21
-4.16027
0
LINE
8
BLACK
6
CONTINUOUS
10
8.20115
20
-4.16027
11
8.20707
21
-4.16517
0
LINE
8
BLACK
6
CONTINUOUS
10
8.20707
20
-4.16517
11
8.21193
21
-4.17113
0
LINE
8
BLACK
6
CONTINUOUS
10
8.21193
20
-4.17113
11
8.21553
21
-4.17791
0
LINE
8
BLACK
6
CONTINUOUS
10
8.21553
20
-4.17791
11
8.21775
21
-4.18527
0
LINE
8
BLACK
6
CONTINUOUS
10
8.21775
20
-4.18527
11
8.2185
21
-4.19291
0
LINE
8
BLACK
6
CONTINUOUS
10
8.2185
20
-4.19291
11
8.21849
21
-4.19401
0
LINE
8
BLACK
6
CONTINUOUS
10
8.21849
20
-4.19401
11
8.21753
21
-4.20164
0
LINE
8
BLACK
6
CONTINUOUS
10
8.21753
20
-4.20164
11
8.2151
21
-4.20893
0
LINE
8
BLACK
6
CONTINUOUS
10
8.2151
20
-4.20893
11
8.2113
21
-4.21561
0
LINE
8
BLACK
6
CONTINUOUS
10
8.2113
20
-4.21561
11
8.20628
21
-4.22142
0
LINE
8
BLACK
6
CONTINUOUS
10
8.20628
20
-4.22142
11
8.20023
21
-4.22615
0
LINE
8
BLACK
6
CONTINUOUS
10
8.20023
20
-4.22615
11
8.19337
21
-4.22962
0
LINE
8
BLACK
6
CONTINUOUS
10
8.19337
20
-4.22962
11
8.18597
21
-4.23169
0
LINE
8
BLACK
6
CONTINUOUS
10
8.18597
20
-4.23169
11
8.17831
21
-4.23227
0
LINE
8
BLACK
6
CONTINUOUS
10
8.17831
20
-4.23227
11
8.17068
21
-4.23137
0
LINE
8
BLACK
6
CONTINUOUS
10
8.17068
20
-4.23137
11
8.16337
21
-4.22899
0
LINE
8
BLACK
6
CONTINUOUS
10
8.16337
20
-4.22899
11
8.15666
21
-4.22524
0
LINE
8
BLACK
6
CONTINUOUS
10
8.15666
20
-4.22524
11
8.15081
21
-4.22026
0
LINE
8
BLACK
6
CONTINUOUS
10
8.15081
20
-4.22026
11
8.14604
21
-4.21424
0
LINE
8
BLACK
6
CONTINUOUS
10
8.14604
20
-4.21424
11
8.14253
21
-4.20741
0
LINE
8
BLACK
6
CONTINUOUS
10
8.14253
20
-4.20741
11
8.14041
21
-4.20002
0
LINE
8
BLACK
6
CONTINUOUS
10
8.14041
20
-4.20002
11
8.13977
21
-4.19236
0
LINE
8
BLACK
6
CONTINUOUS
10
8.13977
20
-4.19236
11
8.14062
21
-4.18473
0
LINE
8
BLACK
6
CONTINUOUS
10
8.14062
20
-4.18473
11
8.14295
21
-4.1774
0
LINE
8
BLACK
6
CONTINUOUS
10
8.14295
20
-4.1774
11
8.14665
21
-4.17067
0
LINE
8
BLACK
6
CONTINUOUS
10
8.14665
20
-4.17067
11
8.15159
21
-4.16478
0
LINE
8
BLACK
6
CONTINUOUS
10
8.15159
20
-4.16478
11
8.15758
21
-4.15997
0
LINE
8
BLACK
6
CONTINUOUS
10
8.15758
20
-4.15997
11
8.16439
21
-4.15641
0
LINE
8
BLACK
6
CONTINUOUS
10
8.16439
20
-4.15641
11
8.17176
21
-4.15424
0
LINE
8
BLACK
6
CONTINUOUS
10
8.17176
20
-4.15424
11
8.17941
21
-4.15354
0
LINE
8
BLACK
6
CONTINUOUS
10
8.17941
20
-4.15354
11
8.18705
21
-4.15435
0
LINE
8
BLACK
6
CONTINUOUS
10
7.9902
20
-4.15435
11
7.99754
21
-4.15662
0
LINE
8
BLACK
6
CONTINUOUS
10
7.99754
20
-4.15662
11
8.0043
21
-4.16027
0
LINE
8
BLACK
6
CONTINUOUS
10
8.0043
20
-4.16027
11
8.01022
21
-4.16517
0
LINE
8
BLACK
6
CONTINUOUS
10
8.01022
20
-4.16517
11
8.01508
21
-4.17113
0
LINE
8
BLACK
6
CONTINUOUS
10
8.01508
20
-4.17113
11
8.01868
21
-4.17791
0
LINE
8
BLACK
6
CONTINUOUS
10
8.01868
20
-4.17791
11
8.0209
21
-4.18527
0
LINE
8
BLACK
6
CONTINUOUS
10
8.0209
20
-4.18527
11
8.02165
21
-4.19291
0
LINE
8
BLACK
6
CONTINUOUS
10
8.02165
20
-4.19291
11
8.02164
21
-4.19401
0
LINE
8
BLACK
6
CONTINUOUS
10
8.02164
20
-4.19401
11
8.02068
21
-4.20164
0
LINE
8
BLACK
6
CONTINUOUS
10
8.02068
20
-4.20164
11
8.01825
21
-4.20893
0
LINE
8
BLACK
6
CONTINUOUS
10
8.01825
20
-4.20893
11
8.01445
21
-4.21561
0
LINE
8
BLACK
6
CONTINUOUS
10
8.01445
20
-4.21561
11
8.00943
21
-4.22142
0
LINE
8
BLACK
6
CONTINUOUS
10
8.00943
20
-4.22142
11
8.00338
21
-4.22615
0
LINE
8
BLACK
6
CONTINUOUS
10
8.00338
20
-4.22615
11
7.99652
21
-4.22962
0
LINE
8
BLACK
6
CONTINUOUS
10
7.99652
20
-4.22962
11
7.98912
21
-4.23169
0
LINE
8
BLACK
6
CONTINUOUS
10
7.98912
20
-4.23169
11
7.98146
21
-4.23227
0
LINE
8
BLACK
6
CONTINUOUS
10
7.98146
20
-4.23227
11
7.97383
21
-4.23137
0
LINE
8
BLACK
6
CONTINUOUS
10
7.97383
20
-4.23137
11
7.96652
21
-4.22899
0
LINE
8
BLACK
6
CONTINUOUS
10
7.96652
20
-4.22899
11
7.95981
21
-4.22524
0
LINE
8
BLACK
6
CONTINUOUS
10
7.95981
20
-4.22524
11
7.95396
21
-4.22026
0
LINE
8
BLACK
6
CONTINUOUS
10
7.95396
20
-4.22026
11
7.94919
21
-4.21424
0
LINE
8
BLACK
6
CONTINUOUS
10
7.94919
20
-4.21424
11
7.94568
21
-4.20741
0
LINE
8
BLACK
6
CONTINUOUS
10
7.94568
20
-4.20741
11
7.94356
21
-4.20002
0
LINE
8
BLACK
6
CONTINUOUS
10
7.94356
20
-4.20002
11
7.94292
21
-4.19236
0
LINE
8
BLACK
6
CONTINUOUS
10
7.94292
20
-4.19236
11
7.94377
21
-4.18473
0
LINE
8
BLACK
6
CONTINUOUS
10
7.94377
20
-4.18473
11
7.9461
21
-4.1774
0
LINE
8
BLACK
6
CONTINUOUS
10
7.9461
20
-4.1774
11
7.9498
21
-4.17067
0
LINE
8
BLACK
6
CONTINUOUS
10
7.9498
20
-4.17067
11
7.95474
21
-4.16478
0
LINE
8
BLACK
6
CONTINUOUS
10
7.95474
20
-4.16478
11
7.96073
21
-4.15997
0
LINE
8
BLACK
6
CONTINUOUS
10
7.96073
20
-4.15997
11
7.96754
21
-4.15641
0
LINE
8
BLACK
6
CONTINUOUS
10
7.96754
20
-4.15641
11
7.97491
21
-4.15424
0
LINE
8
BLACK
6
CONTINUOUS
10
7.97491
20
-4.15424
11
7.98256
21
-4.15354
0
LINE
8
BLACK
6
CONTINUOUS
10
7.98256
20
-4.15354
11
7.9902
21
-4.15435
0
LINE
8
BLACK
6
CONTINUOUS
10
7.48174
20
-4.17095
11
7.48461
21
-4.17287
0
LINE
8
BLACK
6
CONTINUOUS
10
7.48461
20
-4.17287
11
7.48653
21
-4.17574
0
LINE
8
BLACK
6
CONTINUOUS
10
7.48653
20
-4.17574
11
7.4872
21
-4.17913
0
LINE
8
BLACK
6
CONTINUOUS
10
7.4872
20
-4.17913
11
7.4872
21
-4.19882
0
LINE
8
BLACK
6
CONTINUOUS
10
7.4872
20
-4.19882
11
7.48653
21
-4.20221
0
LINE
8
BLACK
6
CONTINUOUS
10
7.48653
20
-4.20221
11
7.48461
21
-4.20508
0
LINE
8
BLACK
6
CONTINUOUS
10
7.48461
20
-4.20508
11
7.48174
21
-4.207
0
LINE
8
BLACK
6
CONTINUOUS
10
7.48174
20
-4.207
11
7.47835
21
-4.20768
0
LINE
8
BLACK
6
CONTINUOUS
10
7.47835
20
-4.20768
11
7.46063
21
-4.20768
0
LINE
8
BLACK
6
CONTINUOUS
10
7.46063
20
-4.20768
11
7.45724
21
-4.207
0
LINE
8
BLACK
6
CONTINUOUS
10
7.45724
20
-4.207
11
7.45437
21
-4.20508
0
LINE
8
BLACK
6
CONTINUOUS
10
7.45437
20
-4.20508
11
7.45245
21
-4.20221
0
LINE
8
BLACK
6
CONTINUOUS
10
7.45245
20
-4.20221
11
7.45177
21
-4.19882
0
LINE
8
BLACK
6
CONTINUOUS
10
7.45177
20
-4.19882
11
7.45177
21
-4.17913
0
LINE
8
BLACK
6
CONTINUOUS
10
7.45177
20
-4.17913
11
7.45245
21
-4.17574
0
LINE
8
BLACK
6
CONTINUOUS
10
7.45245
20
-4.17574
11
7.45437
21
-4.17287
0
LINE
8
BLACK
6
CONTINUOUS
10
7.45437
20
-4.17287
11
7.45724
21
-4.17095
0
LINE
8
BLACK
6
CONTINUOUS
10
7.45724
20
-4.17095
11
7.46063
21
-4.17028
0
LINE
8
BLACK
6
CONTINUOUS
10
7.46063
20
-4.17028
11
7.47835
21
-4.17028
0
LINE
8
BLACK
6
CONTINUOUS
10
7.47835
20
-4.17028
11
7.48174
21
-4.17095
0
LINE
8
BLACK
6
CONTINUOUS
10
7.54276
20
-4.17095
11
7.54563
21
-4.17287
0
LINE
8
BLACK
6
CONTINUOUS
10
7.54563
20
-4.17287
11
7.54755
21
-4.17574
0
LINE
8
BLACK
6
CONTINUOUS
10
7.54755
20
-4.17574
11
7.54823
21
-4.17913
0
LINE
8
BLACK
6
CONTINUOUS
10
7.54823
20
-4.17913
11
7.54823
21
-4.19882
0
LINE
8
BLACK
6
CONTINUOUS
10
7.54823
20
-4.19882
11
7.54755
21
-4.20221
0
LINE
8
BLACK
6
CONTINUOUS
10
7.54755
20
-4.20221
11
7.54563
21
-4.20508
0
LINE
8
BLACK
6
CONTINUOUS
10
7.54563
20
-4.20508
11
7.54276
21
-4.207
0
LINE
8
BLACK
6
CONTINUOUS
10
7.54276
20
-4.207
11
7.53937
21
-4.20768
0
LINE
8
BLACK
6
CONTINUOUS
10
7.53937
20
-4.20768
11
7.52165
21
-4.20768
0
LINE
8
BLACK
6
CONTINUOUS
10
7.52165
20
-4.20768
11
7.51826
21
-4.207
0
LINE
8
BLACK
6
CONTINUOUS
10
7.51826
20
-4.207
11
7.51539
21
-4.20508
0
LINE
8
BLACK
6
CONTINUOUS
10
7.51539
20
-4.20508
11
7.51347
21
-4.20221
0
LINE
8
BLACK
6
CONTINUOUS
10
7.51347
20
-4.20221
11
7.5128
21
-4.19882
0
LINE
8
BLACK
6
CONTINUOUS
10
7.5128
20
-4.19882
11
7.5128
21
-4.17913
0
LINE
8
BLACK
6
CONTINUOUS
10
7.5128
20
-4.17913
11
7.51347
21
-4.17574
0
LINE
8
BLACK
6
CONTINUOUS
10
7.51347
20
-4.17574
11
7.51539
21
-4.17287
0
LINE
8
BLACK
6
CONTINUOUS
10
7.51539
20
-4.17287
11
7.51826
21
-4.17095
0
LINE
8
BLACK
6
CONTINUOUS
10
7.51826
20
-4.17095
11
7.52165
21
-4.17028
0
LINE
8
BLACK
6
CONTINUOUS
10
7.52165
20
-4.17028
11
7.53937
21
-4.17028
0
LINE
8
BLACK
6
CONTINUOUS
10
7.53937
20
-4.17028
11
7.54276
21
-4.17095
0
LINE
8
BLACK
6
CONTINUOUS
10
7.35969
20
-4.17095
11
7.36256
21
-4.17287
0
LINE
8
BLACK
6
CONTINUOUS
10
7.36256
20
-4.17287
11
7.36448
21
-4.17574
0
LINE
8
BLACK
6
CONTINUOUS
10
7.36448
20
-4.17574
11
7.36516
21
-4.17913
0
LINE
8
BLACK
6
CONTINUOUS
10
7.36516
20
-4.17913
11
7.36516
21
-4.19882
0
LINE
8
BLACK
6
CONTINUOUS
10
7.36516
20
-4.19882
11
7.36448
21
-4.20221
0
LINE
8
BLACK
6
CONTINUOUS
10
7.36448
20
-4.20221
11
7.36256
21
-4.20508
0
LINE
8
BLACK
6
CONTINUOUS
10
7.36256
20
-4.20508
11
7.35969
21
-4.207
0
LINE
8
BLACK
6
CONTINUOUS
10
7.35969
20
-4.207
11
7.3563
21
-4.20768
0
LINE
8
BLACK
6
CONTINUOUS
10
7.3563
20
-4.20768
11
7.33858
21
-4.20768
0
LINE
8
BLACK
6
CONTINUOUS
10
7.33858
20
-4.20768
11
7.33519
21
-4.207
0
LINE
8
BLACK
6
CONTINUOUS
10
7.33519
20
-4.207
11
7.33232
21
-4.20508
0
LINE
8
BLACK
6
CONTINUOUS
10
7.33232
20
-4.20508
11
7.3304
21
-4.20221
0
LINE
8
BLACK
6
CONTINUOUS
10
7.3304
20
-4.20221
11
7.32972
21
-4.19882
0
LINE
8
BLACK
6
CONTINUOUS
10
7.32972
20
-4.19882
11
7.32972
21
-4.17913
0
LINE
8
BLACK
6
CONTINUOUS
10
7.32972
20
-4.17913
11
7.3304
21
-4.17574
0
LINE
8
BLACK
6
CONTINUOUS
10
7.3304
20
-4.17574
11
7.33232
21
-4.17287
0
LINE
8
BLACK
6
CONTINUOUS
10
7.33232
20
-4.17287
11
7.33519
21
-4.17095
0
LINE
8
BLACK
6
CONTINUOUS
10
7.33519
20
-4.17095
11
7.33858
21
-4.17028
0
LINE
8
BLACK
6
CONTINUOUS
10
7.33858
20
-4.17028
11
7.3563
21
-4.17028
0
LINE
8
BLACK
6
CONTINUOUS
10
7.3563
20
-4.17028
11
7.35969
21
-4.17095
0
LINE
8
BLACK
6
CONTINUOUS
10
7.42071
20
-4.17095
11
7.42359
21
-4.17287
0
LINE
8
BLACK
6
CONTINUOUS
10
7.42359
20
-4.17287
11
7.42551
21
-4.17574
0
LINE
8
BLACK
6
CONTINUOUS
10
7.42551
20
-4.17574
11
7.42618
21
-4.17913
0
LINE
8
BLACK
6
CONTINUOUS
10
7.42618
20
-4.17913
11
7.42618
21
-4.19882
0
LINE
8
BLACK
6
CONTINUOUS
10
7.42618
20
-4.19882
11
7.42551
21
-4.20221
0
LINE
8
BLACK
6
CONTINUOUS
10
7.42551
20
-4.20221
11
7.42359
21
-4.20508
0
LINE
8
BLACK
6
CONTINUOUS
10
7.42359
20
-4.20508
11
7.42071
21
-4.207
0
LINE
8
BLACK
6
CONTINUOUS
10
7.42071
20
-4.207
11
7.41732
21
-4.20768
0
LINE
8
BLACK
6
CONTINUOUS
10
7.41732
20
-4.20768
11
7.39961
21
-4.20768
0
LINE
8
BLACK
6
CONTINUOUS
10
7.39961
20
-4.20768
11
7.39622
21
-4.207
0
LINE
8
BLACK
6
CONTINUOUS
10
7.39622
20
-4.207
11
7.39334
21
-4.20508
0
LINE
8
BLACK
6
CONTINUOUS
10
7.39334
20
-4.20508
11
7.39142
21
-4.20221
0
LINE
8
BLACK
6
CONTINUOUS
10
7.39142
20
-4.20221
11
7.39075
21
-4.19882
0
LINE
8
BLACK
6
CONTINUOUS
10
7.39075
20
-4.19882
11
7.39075
21
-4.17913
0
LINE
8
BLACK
6
CONTINUOUS
10
7.39075
20
-4.17913
11
7.39142
21
-4.17574
0
LINE
8
BLACK
6
CONTINUOUS
10
7.39142
20
-4.17574
11
7.39334
21
-4.17287
0
LINE
8
BLACK
6
CONTINUOUS
10
7.39334
20
-4.17287
11
7.39622
21
-4.17095
0
LINE
8
BLACK
6
CONTINUOUS
10
7.39622
20
-4.17095
11
7.39961
21
-4.17028
0
LINE
8
BLACK
6
CONTINUOUS
10
7.39961
20
-4.17028
11
7.41732
21
-4.17028
0
LINE
8
BLACK
6
CONTINUOUS
10
7.41732
20
-4.17028
11
7.42071
21
-4.17095
0
LINE
8
BLACK
6
CONTINUOUS
10
7.60378
20
-4.17095
11
7.60666
21
-4.17287
0
LINE
8
BLACK
6
CONTINUOUS
10
7.60666
20
-4.17287
11
7.60858
21
-4.17574
0
LINE
8
BLACK
6
CONTINUOUS
10
7.60858
20
-4.17574
11
7.60925
21
-4.17913
0
LINE
8
BLACK
6
CONTINUOUS
10
7.60925
20
-4.17913
11
7.60925
21
-4.19882
0
LINE
8
BLACK
6
CONTINUOUS
10
7.60925
20
-4.19882
11
7.60858
21
-4.20221
0
LINE
8
BLACK
6
CONTINUOUS
10
7.60858
20
-4.20221
11
7.60666
21
-4.20508
0
LINE
8
BLACK
6
CONTINUOUS
10
7.60666
20
-4.20508
11
7.60378
21
-4.207
0
LINE
8
BLACK
6
CONTINUOUS
10
7.60378
20
-4.207
11
7.60039
21
-4.20768
0
LINE
8
BLACK
6
CONTINUOUS
10
7.60039
20
-4.20768
11
7.58268
21
-4.20768
0
LINE
8
BLACK
6
CONTINUOUS
10
7.58268
20
-4.20768
11
7.57929
21
-4.207
0
LINE
8
BLACK
6
CONTINUOUS
10
7.57929
20
-4.207
11
7.57641
21
-4.20508
0
LINE
8
BLACK
6
CONTINUOUS
10
7.57641
20
-4.20508
11
7.57449
21
-4.20221
0
LINE
8
BLACK
6
CONTINUOUS
10
7.57449
20
-4.20221
11
7.57382
21
-4.19882
0
LINE
8
BLACK
6
CONTINUOUS
10
7.57382
20
-4.19882
11
7.57382
21
-4.17913
0
LINE
8
BLACK
6
CONTINUOUS
10
7.57382
20
-4.17913
11
7.57449
21
-4.17574
0
LINE
8
BLACK
6
CONTINUOUS
10
7.57449
20
-4.17574
11
7.57641
21
-4.17287
0
LINE
8
BLACK
6
CONTINUOUS
10
7.57641
20
-4.17287
11
7.57929
21
-4.17095
0
LINE
8
BLACK
6
CONTINUOUS
10
7.57929
20
-4.17095
11
7.58268
21
-4.17028
0
LINE
8
BLACK
6
CONTINUOUS
10
7.58268
20
-4.17028
11
7.60039
21
-4.17028
0
LINE
8
BLACK
6
CONTINUOUS
10
7.60039
20
-4.17028
11
7.60378
21
-4.17095
0
LINE
8
BLACK
6
CONTINUOUS
10
7.66481
20
-4.17095
11
7.66768
21
-4.17287
0
LINE
8
BLACK
6
CONTINUOUS
10
7.66768
20
-4.17287
11
7.6696
21
-4.17574
0
LINE
8
BLACK
6
CONTINUOUS
10
7.6696
20
-4.17574
11
7.67028
21
-4.17913
0
LINE
8
BLACK
6
CONTINUOUS
10
7.67028
20
-4.17913
11
7.67028
21
-4.19882
0
LINE
8
BLACK
6
CONTINUOUS
10
7.67028
20
-4.19882
11
7.6696
21
-4.20221
0
LINE
8
BLACK
6
CONTINUOUS
10
7.6696
20
-4.20221
11
7.66768
21
-4.20508
0
LINE
8
BLACK
6
CONTINUOUS
10
7.66768
20
-4.20508
11
7.66481
21
-4.207
0
LINE
8
BLACK
6
CONTINUOUS
10
7.66481
20
-4.207
11
7.66142
21
-4.20768
0
LINE
8
BLACK
6
CONTINUOUS
10
7.66142
20
-4.20768
11
7.6437
21
-4.20768
0
LINE
8
BLACK
6
CONTINUOUS
10
7.6437
20
-4.20768
11
7.64031
21
-4.207
0
LINE
8
BLACK
6
CONTINUOUS
10
7.64031
20
-4.207
11
7.63744
21
-4.20508
0
LINE
8
BLACK
6
CONTINUOUS
10
7.63744
20
-4.20508
11
7.63552
21
-4.20221
0
LINE
8
BLACK
6
CONTINUOUS
10
7.63552
20
-4.20221
11
7.63484
21
-4.19882
0
LINE
8
BLACK
6
CONTINUOUS
10
7.63484
20
-4.19882
11
7.63484
21
-4.17913
0
LINE
8
BLACK
6
CONTINUOUS
10
7.63484
20
-4.17913
11
7.63552
21
-4.17574
0
LINE
8
BLACK
6
CONTINUOUS
10
7.63552
20
-4.17574
11
7.63744
21
-4.17287
0
LINE
8
BLACK
6
CONTINUOUS
10
7.63744
20
-4.17287
11
7.64031
21
-4.17095
0
LINE
8
BLACK
6
CONTINUOUS
10
7.64031
20
-4.17095
11
7.6437
21
-4.17028
0
LINE
8
BLACK
6
CONTINUOUS
10
7.6437
20
-4.17028
11
7.66142
21
-4.17028
0
LINE
8
BLACK
6
CONTINUOUS
10
7.66142
20
-4.17028
11
7.66481
21
-4.17095
0
LINE
8
BLACK
6
CONTINUOUS
10
7.72583
20
-4.17095
11
7.7287
21
-4.17287
0
LINE
8
BLACK
6
CONTINUOUS
10
7.7287
20
-4.17287
11
7.73062
21
-4.17574
0
LINE
8
BLACK
6
CONTINUOUS
10
7.73062
20
-4.17574
11
7.7313
21
-4.17913
0
LINE
8
BLACK
6
CONTINUOUS
10
7.7313
20
-4.17913
11
7.7313
21
-4.19882
0
LINE
8
BLACK
6
CONTINUOUS
10
7.7313
20
-4.19882
11
7.73062
21
-4.20221
0
LINE
8
BLACK
6
CONTINUOUS
10
7.73062
20
-4.20221
11
7.7287
21
-4.20508
0
LINE
8
BLACK
6
CONTINUOUS
10
7.7287
20
-4.20508
11
7.72583
21
-4.207
0
LINE
8
BLACK
6
CONTINUOUS
10
7.72583
20
-4.207
11
7.72244
21
-4.20768
0
LINE
8
BLACK
6
CONTINUOUS
10
7.72244
20
-4.20768
11
7.70472
21
-4.20768
0
LINE
8
BLACK
6
CONTINUOUS
10
7.70472
20
-4.20768
11
7.70133
21
-4.207
0
LINE
8
BLACK
6
CONTINUOUS
10
7.70133
20
-4.207
11
7.69846
21
-4.20508
0
LINE
8
BLACK
6
CONTINUOUS
10
7.69846
20
-4.20508
11
7.69654
21
-4.20221
0
LINE
8
BLACK
6
CONTINUOUS
10
7.69654
20
-4.20221
11
7.69587
21
-4.19882
0
LINE
8
BLACK
6
CONTINUOUS
10
7.69587
20
-4.19882
11
7.69587
21
-4.17913
0
LINE
8
BLACK
6
CONTINUOUS
10
7.69587
20
-4.17913
11
7.69654
21
-4.17574
0
LINE
8
BLACK
6
CONTINUOUS
10
7.69654
20
-4.17574
11
7.69846
21
-4.17287
0
LINE
8
BLACK
6
CONTINUOUS
10
7.69846
20
-4.17287
11
7.70133
21
-4.17095
0
LINE
8
BLACK
6
CONTINUOUS
10
7.70133
20
-4.17095
11
7.70472
21
-4.17028
0
LINE
8
BLACK
6
CONTINUOUS
10
7.70472
20
-4.17028
11
7.72244
21
-4.17028
0
LINE
8
BLACK
6
CONTINUOUS
10
7.72244
20
-4.17028
11
7.72583
21
-4.17095
0
LINE
8
BLACK
6
CONTINUOUS
10
7.78685
20
-4.17095
11
7.78973
21
-4.17287
0
LINE
8
BLACK
6
CONTINUOUS
10
7.78973
20
-4.17287
11
7.79165
21
-4.17574
0
LINE
8
BLACK
6
CONTINUOUS
10
7.79165
20
-4.17574
11
7.79232
21
-4.17913
0
LINE
8
BLACK
6
CONTINUOUS
10
7.79232
20
-4.17913
11
7.79232
21
-4.19882
0
LINE
8
BLACK
6
CONTINUOUS
10
7.79232
20
-4.19882
11
7.79165
21
-4.20221
0
LINE
8
BLACK
6
CONTINUOUS
10
7.79165
20
-4.20221
11
7.78973
21
-4.20508
0
LINE
8
BLACK
6
CONTINUOUS
10
7.78973
20
-4.20508
11
7.78685
21
-4.207
0
LINE
8
BLACK
6
CONTINUOUS
10
7.78685
20
-4.207
11
7.78346
21
-4.20768
0
LINE
8
BLACK
6
CONTINUOUS
10
7.78346
20
-4.20768
11
7.76575
21
-4.20768
0
LINE
8
BLACK
6
CONTINUOUS
10
7.76575
20
-4.20768
11
7.76236
21
-4.207
0
LINE
8
BLACK
6
CONTINUOUS
10
7.76236
20
-4.207
11
7.75948
21
-4.20508
0
LINE
8
BLACK
6
CONTINUOUS
10
7.75948
20
-4.20508
11
7.75756
21
-4.20221
0
LINE
8
BLACK
6
CONTINUOUS
10
7.75756
20
-4.20221
11
7.75689
21
-4.19882
0
LINE
8
BLACK
6
CONTINUOUS
10
7.75689
20
-4.19882
11
7.75689
21
-4.17913
0
LINE
8
BLACK
6
CONTINUOUS
10
7.75689
20
-4.17913
11
7.75756
21
-4.17574
0
LINE
8
BLACK
6
CONTINUOUS
10
7.75756
20
-4.17574
11
7.75948
21
-4.17287
0
LINE
8
BLACK
6
CONTINUOUS
10
7.75948
20
-4.17287
11
7.76236
21
-4.17095
0
LINE
8
BLACK
6
CONTINUOUS
10
7.76236
20
-4.17095
11
7.76575
21
-4.17028
0
LINE
8
BLACK
6
CONTINUOUS
10
7.76575
20
-4.17028
11
7.78346
21
-4.17028
0
LINE
8
BLACK
6
CONTINUOUS
10
7.78346
20
-4.17028
11
7.78685
21
-4.17095
0
LINE
8
BLACK
6
CONTINUOUS
10
8.65341
20
-4.16891
11
8.65514
21
-4.17006
0
LINE
8
BLACK
6
CONTINUOUS
10
8.65514
20
-4.17006
11
8.65629
21
-4.17178
0
LINE
8
BLACK
6
CONTINUOUS
10
8.65629
20
-4.17178
11
8.65669
21
-4.17382
0
LINE
8
BLACK
6
CONTINUOUS
10
8.65669
20
-4.17382
11
8.65669
21
-4.18839
0
LINE
8
BLACK
6
CONTINUOUS
10
8.65669
20
-4.18839
11
8.65629
21
-4.19042
0
LINE
8
BLACK
6
CONTINUOUS
10
8.65629
20
-4.19042
11
8.65514
21
-4.19214
0
LINE
8
BLACK
6
CONTINUOUS
10
8.65514
20
-4.19214
11
8.65341
21
-4.1933
0
LINE
8
BLACK
6
CONTINUOUS
10
8.65341
20
-4.1933
11
8.65138
21
-4.1937
0
LINE
8
BLACK
6
CONTINUOUS
10
8.65138
20
-4.1937
11
8.64075
21
-4.1937
0
LINE
8
BLACK
6
CONTINUOUS
10
8.64075
20
-4.1937
11
8.63871
21
-4.1933
0
LINE
8
BLACK
6
CONTINUOUS
10
8.63871
20
-4.1933
11
8.63699
21
-4.19214
0
LINE
8
BLACK
6
CONTINUOUS
10
8.63699
20
-4.19214
11
8.63584
21
-4.19042
0
LINE
8
BLACK
6
CONTINUOUS
10
8.63584
20
-4.19042
11
8.63543
21
-4.18839
0
LINE
8
BLACK
6
CONTINUOUS
10
8.63543
20
-4.18839
11
8.63543
21
-4.17382
0
LINE
8
BLACK
6
CONTINUOUS
10
8.63543
20
-4.17382
11
8.63584
21
-4.17178
0
LINE
8
BLACK
6
CONTINUOUS
10
8.63584
20
-4.17178
11
8.63699
21
-4.17006
0
LINE
8
BLACK
6
CONTINUOUS
10
8.63699
20
-4.17006
11
8.63871
21
-4.16891
0
LINE
8
BLACK
6
CONTINUOUS
10
8.63871
20
-4.16891
11
8.64075
21
-4.1685
0
LINE
8
BLACK
6
CONTINUOUS
10
8.64075
20
-4.1685
11
8.65138
21
-4.1685
0
LINE
8
BLACK
6
CONTINUOUS
10
8.65138
20
-4.1685
11
8.65341
21
-4.16891
0
LINE
8
BLACK
6
CONTINUOUS
10
8.61325
20
-4.16891
11
8.61498
21
-4.17006
0
LINE
8
BLACK
6
CONTINUOUS
10
8.61498
20
-4.17006
11
8.61613
21
-4.17178
0
LINE
8
BLACK
6
CONTINUOUS
10
8.61613
20
-4.17178
11
8.61654
21
-4.17382
0
LINE
8
BLACK
6
CONTINUOUS
10
8.61654
20
-4.17382
11
8.61654
21
-4.18839
0
LINE
8
BLACK
6
CONTINUOUS
10
8.61654
20
-4.18839
11
8.61613
21
-4.19042
0
LINE
8
BLACK
6
CONTINUOUS
10
8.61613
20
-4.19042
11
8.61498
21
-4.19214
0
LINE
8
BLACK
6
CONTINUOUS
10
8.61498
20
-4.19214
11
8.61325
21
-4.1933
0
LINE
8
BLACK
6
CONTINUOUS
10
8.61325
20
-4.1933
11
8.61122
21
-4.1937
0
LINE
8
BLACK
6
CONTINUOUS
10
8.61122
20
-4.1937
11
8.60059
21
-4.1937
0
LINE
8
BLACK
6
CONTINUOUS
10
8.60059
20
-4.1937
11
8.59856
21
-4.1933
0
LINE
8
BLACK
6
CONTINUOUS
10
8.59856
20
-4.1933
11
8.59683
21
-4.19214
0
LINE
8
BLACK
6
CONTINUOUS
10
8.59683
20
-4.19214
11
8.59568
21
-4.19042
0
LINE
8
BLACK
6
CONTINUOUS
10
8.59568
20
-4.19042
11
8.59528
21
-4.18839
0
LINE
8
BLACK
6
CONTINUOUS
10
8.59528
20
-4.18839
11
8.59528
21
-4.17382
0
LINE
8
BLACK
6
CONTINUOUS
10
8.59528
20
-4.17382
11
8.59568
21
-4.17178
0
LINE
8
BLACK
6
CONTINUOUS
10
8.59568
20
-4.17178
11
8.59683
21
-4.17006
0
LINE
8
BLACK
6
CONTINUOUS
10
8.59683
20
-4.17006
11
8.59856
21
-4.16891
0
LINE
8
BLACK
6
CONTINUOUS
10
8.59856
20
-4.16891
11
8.60059
21
-4.1685
0
LINE
8
BLACK
6
CONTINUOUS
10
8.60059
20
-4.1685
11
8.61122
21
-4.1685
0
LINE
8
BLACK
6
CONTINUOUS
10
8.61122
20
-4.1685
11
8.61325
21
-4.16891
0
LINE
8
BLACK
6
CONTINUOUS
10
8.57467
20
-4.16891
11
8.5764
21
-4.17006
0
LINE
8
BLACK
6
CONTINUOUS
10
8.5764
20
-4.17006
11
8.57755
21
-4.17178
0
LINE
8
BLACK
6
CONTINUOUS
10
8.57755
20
-4.17178
11
8.57795
21
-4.17382
0
LINE
8
BLACK
6
CONTINUOUS
10
8.57795
20
-4.17382
11
8.57795
21
-4.18839
0
LINE
8
BLACK
6
CONTINUOUS
10
8.57795
20
-4.18839
11
8.57755
21
-4.19042
0
LINE
8
BLACK
6
CONTINUOUS
10
8.57755
20
-4.19042
11
8.5764
21
-4.19214
0
LINE
8
BLACK
6
CONTINUOUS
10
8.5764
20
-4.19214
11
8.57467
21
-4.1933
0
LINE
8
BLACK
6
CONTINUOUS
10
8.57467
20
-4.1933
11
8.57264
21
-4.1937
0
LINE
8
BLACK
6
CONTINUOUS
10
8.57264
20
-4.1937
11
8.56201
21
-4.1937
0
LINE
8
BLACK
6
CONTINUOUS
10
8.56201
20
-4.1937
11
8.55997
21
-4.1933
0
LINE
8
BLACK
6
CONTINUOUS
10
8.55997
20
-4.1933
11
8.55825
21
-4.19214
0
LINE
8
BLACK
6
CONTINUOUS
10
8.55825
20
-4.19214
11
8.5571
21
-4.19042
0
LINE
8
BLACK
6
CONTINUOUS
10
8.5571
20
-4.19042
11
8.55669
21
-4.18839
0
LINE
8
BLACK
6
CONTINUOUS
10
8.55669
20
-4.18839
11
8.55669
21
-4.17382
0
LINE
8
BLACK
6
CONTINUOUS
10
8.55669
20
-4.17382
11
8.5571
21
-4.17178
0
LINE
8
BLACK
6
CONTINUOUS
10
8.5571
20
-4.17178
11
8.55825
21
-4.17006
0
LINE
8
BLACK
6
CONTINUOUS
10
8.55825
20
-4.17006
11
8.55997
21
-4.16891
0
LINE
8
BLACK
6
CONTINUOUS
10
8.55997
20
-4.16891
11
8.56201
21
-4.1685
0
LINE
8
BLACK
6
CONTINUOUS
10
8.56201
20
-4.1685
11
8.57264
21
-4.1685
0
LINE
8
BLACK
6
CONTINUOUS
10
8.57264
20
-4.1685
11
8.57467
21
-4.16891
0
LINE
8
BLACK
6
CONTINUOUS
10
8.53451
20
-4.16891
11
8.53624
21
-4.17006
0
LINE
8
BLACK
6
CONTINUOUS
10
8.53624
20
-4.17006
11
8.53739
21
-4.17178
0
LINE
8
BLACK
6
CONTINUOUS
10
8.53739
20
-4.17178
11
8.5378
21
-4.17382
0
LINE
8
BLACK
6
CONTINUOUS
10
8.5378
20
-4.17382
11
8.5378
21
-4.18839
0
LINE
8
BLACK
6
CONTINUOUS
10
8.5378
20
-4.18839
11
8.53739
21
-4.19042
0
LINE
8
BLACK
6
CONTINUOUS
10
8.53739
20
-4.19042
11
8.53624
21
-4.19214
0
LINE
8
BLACK
6
CONTINUOUS
10
8.53624
20
-4.19214
11
8.53451
21
-4.1933
0
LINE
8
BLACK
6
CONTINUOUS
10
8.53451
20
-4.1933
11
8.53248
21
-4.1937
0
LINE
8
BLACK
6
CONTINUOUS
10
8.53248
20
-4.1937
11
8.52185
21
-4.1937
0
LINE
8
BLACK
6
CONTINUOUS
10
8.52185
20
-4.1937
11
8.51982
21
-4.1933
0
LINE
8
BLACK
6
CONTINUOUS
10
8.51982
20
-4.1933
11
8.51809
21
-4.19214
0
LINE
8
BLACK
6
CONTINUOUS
10
8.51809
20
-4.19214
11
8.51694
21
-4.19042
0
LINE
8
BLACK
6
CONTINUOUS
10
8.51694
20
-4.19042
11
8.51654
21
-4.18839
0
LINE
8
BLACK
6
CONTINUOUS
10
8.51654
20
-4.18839
11
8.51654
21
-4.17382
0
LINE
8
BLACK
6
CONTINUOUS
10
8.51654
20
-4.17382
11
8.51694
21
-4.17178
0
LINE
8
BLACK
6
CONTINUOUS
10
8.51694
20
-4.17178
11
8.51809
21
-4.17006
0
LINE
8
BLACK
6
CONTINUOUS
10
8.51809
20
-4.17006
11
8.51982
21
-4.16891
0
LINE
8
BLACK
6
CONTINUOUS
10
8.51982
20
-4.16891
11
8.52185
21
-4.1685
0
LINE
8
BLACK
6
CONTINUOUS
10
8.52185
20
-4.1685
11
8.53248
21
-4.1685
0
LINE
8
BLACK
6
CONTINUOUS
10
8.53248
20
-4.1685
11
8.53451
21
-4.16891
0
LINE
8
BLACK
6
CONTINUOUS
10
8.49593
20
-4.16891
11
8.49766
21
-4.17006
0
LINE
8
BLACK
6
CONTINUOUS
10
8.49766
20
-4.17006
11
8.49881
21
-4.17178
0
LINE
8
BLACK
6
CONTINUOUS
10
8.49881
20
-4.17178
11
8.49921
21
-4.17382
0
LINE
8
BLACK
6
CONTINUOUS
10
8.49921
20
-4.17382
11
8.49921
21
-4.18839
0
LINE
8
BLACK
6
CONTINUOUS
10
8.49921
20
-4.18839
11
8.49881
21
-4.19042
0
LINE
8
BLACK
6
CONTINUOUS
10
8.49881
20
-4.19042
11
8.49766
21
-4.19214
0
LINE
8
BLACK
6
CONTINUOUS
10
8.49766
20
-4.19214
11
8.49593
21
-4.1933
0
LINE
8
BLACK
6
CONTINUOUS
10
8.49593
20
-4.1933
11
8.4939
21
-4.1937
0
LINE
8
BLACK
6
CONTINUOUS
10
8.4939
20
-4.1937
11
8.48327
21
-4.1937
0
LINE
8
BLACK
6
CONTINUOUS
10
8.48327
20
-4.1937
11
8.48123
21
-4.1933
0
LINE
8
BLACK
6
CONTINUOUS
10
8.48123
20
-4.1933
11
8.47951
21
-4.19214
0
LINE
8
BLACK
6
CONTINUOUS
10
8.47951
20
-4.19214
11
8.47836
21
-4.19042
0
LINE
8
BLACK
6
CONTINUOUS
10
8.47836
20
-4.19042
11
8.47795
21
-4.18839
0
LINE
8
BLACK
6
CONTINUOUS
10
8.47795
20
-4.18839
11
8.47795
21
-4.17382
0
LINE
8
BLACK
6
CONTINUOUS
10
8.47795
20
-4.17382
11
8.47836
21
-4.17178
0
LINE
8
BLACK
6
CONTINUOUS
10
8.47836
20
-4.17178
11
8.47951
21
-4.17006
0
LINE
8
BLACK
6
CONTINUOUS
10
8.47951
20
-4.17006
11
8.48123
21
-4.16891
0
LINE
8
BLACK
6
CONTINUOUS
10
8.48123
20
-4.16891
11
8.48327
21
-4.1685
0
LINE
8
BLACK
6
CONTINUOUS
10
8.48327
20
-4.1685
11
8.4939
21
-4.1685
0
LINE
8
BLACK
6
CONTINUOUS
10
8.4939
20
-4.1685
11
8.49593
21
-4.16891
0
LINE
8
BLACK
6
CONTINUOUS
10
8.45577
20
-4.16891
11
8.4575
21
-4.17006
0
LINE
8
BLACK
6
CONTINUOUS
10
8.4575
20
-4.17006
11
8.45865
21
-4.17178
0
LINE
8
BLACK
6
CONTINUOUS
10
8.45865
20
-4.17178
11
8.45906
21
-4.17382
0
LINE
8
BLACK
6
CONTINUOUS
10
8.45906
20
-4.17382
11
8.45906
21
-4.18839
0
LINE
8
BLACK
6
CONTINUOUS
10
8.45906
20
-4.18839
11
8.45865
21
-4.19042
0
LINE
8
BLACK
6
CONTINUOUS
10
8.45865
20
-4.19042
11
8.4575
21
-4.19214
0
LINE
8
BLACK
6
CONTINUOUS
10
8.4575
20
-4.19214
11
8.45577
21
-4.1933
0
LINE
8
BLACK
6
CONTINUOUS
10
8.45577
20
-4.1933
11
8.45374
21
-4.1937
0
LINE
8
BLACK
6
CONTINUOUS
10
8.45374
20
-4.1937
11
8.44311
21
-4.1937
0
LINE
8
BLACK
6
CONTINUOUS
10
8.44311
20
-4.1937
11
8.44108
21
-4.1933
0
LINE
8
BLACK
6
CONTINUOUS
10
8.44108
20
-4.1933
11
8.43935
21
-4.19214
0
LINE
8
BLACK
6
CONTINUOUS
10
8.43935
20
-4.19214
11
8.4382
21
-4.19042
0
LINE
8
BLACK
6
CONTINUOUS
10
8.4382
20
-4.19042
11
8.4378
21
-4.18839
0
LINE
8
BLACK
6
CONTINUOUS
10
8.4378
20
-4.18839
11
8.4378
21
-4.17382
0
LINE
8
BLACK
6
CONTINUOUS
10
8.4378
20
-4.17382
11
8.4382
21
-4.17178
0
LINE
8
BLACK
6
CONTINUOUS
10
8.4382
20
-4.17178
11
8.43935
21
-4.17006
0
LINE
8
BLACK
6
CONTINUOUS
10
8.43935
20
-4.17006
11
8.44108
21
-4.16891
0
LINE
8
BLACK
6
CONTINUOUS
10
8.44108
20
-4.16891
11
8.44311
21
-4.1685
0
LINE
8
BLACK
6
CONTINUOUS
10
8.44311
20
-4.1685
11
8.45374
21
-4.1685
0
LINE
8
BLACK
6
CONTINUOUS
10
8.45374
20
-4.1685
11
8.45577
21
-4.16891
0
LINE
8
BLACK
6
CONTINUOUS
10
8.41719
20
-4.16891
11
8.41892
21
-4.17006
0
LINE
8
BLACK
6
CONTINUOUS
10
8.41892
20
-4.17006
11
8.42007
21
-4.17178
0
LINE
8
BLACK
6
CONTINUOUS
10
8.42007
20
-4.17178
11
8.42047
21
-4.17382
0
LINE
8
BLACK
6
CONTINUOUS
10
8.42047
20
-4.17382
11
8.42047
21
-4.18839
0
LINE
8
BLACK
6
CONTINUOUS
10
8.42047
20
-4.18839
11
8.42007
21
-4.19042
0
LINE
8
BLACK
6
CONTINUOUS
10
8.42007
20
-4.19042
11
8.41892
21
-4.19214
0
LINE
8
BLACK
6
CONTINUOUS
10
8.41892
20
-4.19214
11
8.41719
21
-4.1933
0
LINE
8
BLACK
6
CONTINUOUS
10
8.41719
20
-4.1933
11
8.41516
21
-4.1937
0
LINE
8
BLACK
6
CONTINUOUS
10
8.41516
20
-4.1937
11
8.40453
21
-4.1937
0
LINE
8
BLACK
6
CONTINUOUS
10
8.40453
20
-4.1937
11
8.40249
21
-4.1933
0
LINE
8
BLACK
6
CONTINUOUS
10
8.40249
20
-4.1933
11
8.40077
21
-4.19214
0
LINE
8
BLACK
6
CONTINUOUS
10
8.40077
20
-4.19214
11
8.39962
21
-4.19042
0
LINE
8
BLACK
6
CONTINUOUS
10
8.39962
20
-4.19042
11
8.39921
21
-4.18839
0
LINE
8
BLACK
6
CONTINUOUS
10
8.39921
20
-4.18839
11
8.39921
21
-4.17382
0
LINE
8
BLACK
6
CONTINUOUS
10
8.39921
20
-4.17382
11
8.39962
21
-4.17178
0
LINE
8
BLACK
6
CONTINUOUS
10
8.39962
20
-4.17178
11
8.40077
21
-4.17006
0
LINE
8
BLACK
6
CONTINUOUS
10
8.40077
20
-4.17006
11
8.40249
21
-4.16891
0
LINE
8
BLACK
6
CONTINUOUS
10
8.40249
20
-4.16891
11
8.40453
21
-4.1685
0
LINE
8
BLACK
6
CONTINUOUS
10
8.40453
20
-4.1685
11
8.41516
21
-4.1685
0
LINE
8
BLACK
6
CONTINUOUS
10
8.41516
20
-4.1685
11
8.41719
21
-4.16891
0
LINE
8
BLACK
6
CONTINUOUS
10
8.37703
20
-4.16891
11
8.37876
21
-4.17006
0
LINE
8
BLACK
6
CONTINUOUS
10
8.37876
20
-4.17006
11
8.37991
21
-4.17178
0
LINE
8
BLACK
6
CONTINUOUS
10
8.37991
20
-4.17178
11
8.38031
21
-4.17382
0
LINE
8
BLACK
6
CONTINUOUS
10
8.38031
20
-4.17382
11
8.38031
21
-4.18839
0
LINE
8
BLACK
6
CONTINUOUS
10
8.38031
20
-4.18839
11
8.37991
21
-4.19042
0
LINE
8
BLACK
6
CONTINUOUS
10
8.37991
20
-4.19042
11
8.37876
21
-4.19214
0
LINE
8
BLACK
6
CONTINUOUS
10
8.37876
20
-4.19214
11
8.37703
21
-4.1933
0
LINE
8
BLACK
6
CONTINUOUS
10
8.37703
20
-4.1933
11
8.375
21
-4.1937
0
LINE
8
BLACK
6
CONTINUOUS
10
8.375
20
-4.1937
11
8.36437
21
-4.1937
0
LINE
8
BLACK
6
CONTINUOUS
10
8.36437
20
-4.1937
11
8.36234
21
-4.1933
0
LINE
8
BLACK
6
CONTINUOUS
10
8.36234
20
-4.1933
11
8.36061
21
-4.19214
0
LINE
8
BLACK
6
CONTINUOUS
10
8.36061
20
-4.19214
11
8.35946
21
-4.19042
0
LINE
8
BLACK
6
CONTINUOUS
10
8.35946
20
-4.19042
11
8.35906
21
-4.18839
0
LINE
8
BLACK
6
CONTINUOUS
10
8.35906
20
-4.18839
11
8.35906
21
-4.17382
0
LINE
8
BLACK
6
CONTINUOUS
10
8.35906
20
-4.17382
11
8.35946
21
-4.17178
0
LINE
8
BLACK
6
CONTINUOUS
10
8.35946
20
-4.17178
11
8.36061
21
-4.17006
0
LINE
8
BLACK
6
CONTINUOUS
10
8.36061
20
-4.17006
11
8.36234
21
-4.16891
0
LINE
8
BLACK
6
CONTINUOUS
10
8.36234
20
-4.16891
11
8.36437
21
-4.1685
0
LINE
8
BLACK
6
CONTINUOUS
10
8.36437
20
-4.1685
11
8.375
21
-4.1685
0
LINE
8
BLACK
6
CONTINUOUS
10
8.375
20
-4.1685
11
8.37703
21
-4.16891
0
LINE
8
BLACK
6
CONTINUOUS
10
7.83743
20
-4.09327
11
7.84062
21
-4.0954
0
LINE
8
BLACK
6
CONTINUOUS
10
7.84062
20
-4.0954
11
7.84275
21
-4.0986
0
LINE
8
BLACK
6
CONTINUOUS
10
7.84275
20
-4.0986
11
7.8435
21
-4.10236
0
LINE
8
BLACK
6
CONTINUOUS
10
7.8435
20
-4.10236
11
7.8435
21
-4.12205
0
LINE
8
BLACK
6
CONTINUOUS
10
7.8435
20
-4.12205
11
7.84275
21
-4.12581
0
LINE
8
BLACK
6
CONTINUOUS
10
7.84275
20
-4.12581
11
7.84062
21
-4.12901
0
LINE
8
BLACK
6
CONTINUOUS
10
7.84062
20
-4.12901
11
7.83743
21
-4.13114
0
LINE
8
BLACK
6
CONTINUOUS
10
7.83743
20
-4.13114
11
7.83366
21
-4.13189
0
LINE
8
BLACK
6
CONTINUOUS
10
7.83366
20
-4.13189
11
7.79626
21
-4.13189
0
LINE
8
BLACK
6
CONTINUOUS
10
7.79626
20
-4.13189
11
7.79249
21
-4.13114
0
LINE
8
BLACK
6
CONTINUOUS
10
7.79249
20
-4.13114
11
7.7893
21
-4.12901
0
LINE
8
BLACK
6
CONTINUOUS
10
7.7893
20
-4.12901
11
7.78717
21
-4.12581
0
LINE
8
BLACK
6
CONTINUOUS
10
7.78717
20
-4.12581
11
7.78642
21
-4.12205
0
LINE
8
BLACK
6
CONTINUOUS
10
7.78642
20
-4.12205
11
7.78642
21
-4.10236
0
LINE
8
BLACK
6
CONTINUOUS
10
7.78642
20
-4.10236
11
7.78717
21
-4.0986
0
LINE
8
BLACK
6
CONTINUOUS
10
7.78717
20
-4.0986
11
7.7893
21
-4.0954
0
LINE
8
BLACK
6
CONTINUOUS
10
7.7893
20
-4.0954
11
7.79249
21
-4.09327
0
LINE
8
BLACK
6
CONTINUOUS
10
7.79249
20
-4.09327
11
7.79626
21
-4.09252
0
LINE
8
BLACK
6
CONTINUOUS
10
7.79626
20
-4.09252
11
7.83366
21
-4.09252
0
LINE
8
BLACK
6
CONTINUOUS
10
7.83366
20
-4.09252
11
7.83743
21
-4.09327
0
LINE
8
BLACK
6
CONTINUOUS
10
7.83743
20
-4.01847
11
7.84062
21
-4.0206
0
LINE
8
BLACK
6
CONTINUOUS
10
7.84062
20
-4.0206
11
7.84275
21
-4.02379
0
LINE
8
BLACK
6
CONTINUOUS
10
7.84275
20
-4.02379
11
7.8435
21
-4.02756
0
LINE
8
BLACK
6
CONTINUOUS
10
7.8435
20
-4.02756
11
7.8435
21
-4.04724
0
LINE
8
BLACK
6
CONTINUOUS
10
7.8435
20
-4.04724
11
7.84275
21
-4.05101
0
LINE
8
BLACK
6
CONTINUOUS
10
7.84275
20
-4.05101
11
7.84062
21
-4.0542
0
LINE
8
BLACK
6
CONTINUOUS
10
7.84062
20
-4.0542
11
7.83743
21
-4.05634
0
LINE
8
BLACK
6
CONTINUOUS
10
7.83743
20
-4.05634
11
7.83366
21
-4.05709
0
LINE
8
BLACK
6
CONTINUOUS
10
7.83366
20
-4.05709
11
7.79626
21
-4.05709
0
LINE
8
BLACK
6
CONTINUOUS
10
7.79626
20
-4.05709
11
7.79249
21
-4.05634
0
LINE
8
BLACK
6
CONTINUOUS
10
7.79249
20
-4.05634
11
7.7893
21
-4.0542
0
LINE
8
BLACK
6
CONTINUOUS
10
7.7893
20
-4.0542
11
7.78717
21
-4.05101
0
LINE
8
BLACK
6
CONTINUOUS
10
7.78717
20
-4.05101
11
7.78642
21
-4.04724
0
LINE
8
BLACK
6
CONTINUOUS
10
7.78642
20
-4.04724
11
7.78642
21
-4.02756
0
LINE
8
BLACK
6
CONTINUOUS
10
7.78642
20
-4.02756
11
7.78717
21
-4.02379
0
LINE
8
BLACK
6
CONTINUOUS
10
7.78717
20
-4.02379
11
7.7893
21
-4.0206
0
LINE
8
BLACK
6
CONTINUOUS
10
7.7893
20
-4.0206
11
7.79249
21
-4.01847
0
LINE
8
BLACK
6
CONTINUOUS
10
7.79249
20
-4.01847
11
7.79626
21
-4.01772
0
LINE
8
BLACK
6
CONTINUOUS
10
7.79626
20
-4.01772
11
7.83366
21
-4.01772
0
LINE
8
BLACK
6
CONTINUOUS
10
7.83366
20
-4.01772
11
7.83743
21
-4.01847
  0
ENDSEC
  0
EOF
