<?xml version="1.0" standalone="no"?>
 <!DOCTYPE svg PUBLIC "-//W3C//DTD SVG 1.1//EN" 
 "http://www.w3.org/Graphics/SVG/1.1/DTD/svg11.dtd"> 
<svg
  xmlns:svg="http://www.w3.org/2000/svg"
  xmlns="http://www.w3.org/2000/svg"
  xmlns:xlink="http://www.w3.org/1999/xlink"
  version="1.1"
  width="5.019040cm" height="2.024380cm" viewBox="0 0 19760 7970">
<title>SVG Picture created as tone_block-B_Cu.svg date 2021/09/10 18:00:40 </title>
  <desc>Picture generated by PCBNEW </desc>
<g style="fill:#000000; fill-opacity:1;stroke:#000000; stroke-opacity:1;
stroke-linecap:round; stroke-linejoin:round;"
 transform="translate(0 0) scale(1 1)">
</g>
<g style="fill:#000000; fill-opacity:0.0; 
stroke:#000000; stroke-width:-0.000393701; stroke-opacity:1; 
stroke-linecap:round; stroke-linejoin:round;">
<g >
</g>
<g >
</g>
<g >
</g>
<g style="fill:#000000; fill-opacity:0.0; 
stroke:#000000; stroke-width:-0.000393701; stroke-opacity:1; 
stroke-linecap:round; stroke-linejoin:round;">
</g>
<g style="fill:#000000; fill-opacity:1.0; 
stroke:#000000; stroke-width:0; stroke-opacity:1; 
stroke-linecap:round; stroke-linejoin:round;">
<circle cx="7849.92" cy="5597.44" r="334.646" /> 
<circle cx="7849.92" cy="6597.44" r="334.646" /> 
<circle cx="8849.92" cy="5597.44" r="334.646" /> 
<circle cx="8849.92" cy="6597.44" r="334.646" /> 
<circle cx="9849.92" cy="5597.44" r="334.646" /> 
<circle cx="9849.92" cy="6597.44" r="334.646" /> 
<circle cx="10849.9" cy="5597.44" r="334.646" /> 
<circle cx="10849.9" cy="6597.44" r="334.646" /> 
<circle cx="11849.9" cy="5597.44" r="334.646" /> 
<path style="fill:#000000; fill-opacity:1.0; 
stroke:#000000; stroke-width:0; stroke-opacity:1; 
stroke-linecap:round; stroke-linejoin:round;fill-rule:evenodd;"
d="M 12184.6,6932.09
11515.3,6932.09
11515.3,6262.8
12184.6,6262.8
Z" /> 
</g>
<g >
</g>
<g >
</g>
<g >
</g>
<g style="fill:#000000; fill-opacity:1.0; 
stroke:#000000; stroke-width:0; stroke-opacity:1; 
stroke-linecap:round; stroke-linejoin:round;">
<path style="fill:#000000; fill-opacity:1.0; 
stroke:#000000; stroke-width:0; stroke-opacity:1; 
stroke-linecap:round; stroke-linejoin:round;fill-rule:evenodd;"
d="M 4823.83,2637.08
4829.18,2637.87
4834.43,2639.18
4839.52,2641.01
4844.41,2643.32
4849.05,2646.1
4853.4,2649.32
4857.4,2652.95
4861.04,2656.96
4864.26,2661.31
4867.04,2665.95
4869.35,2670.84
4871.17,2675.93
4872.49,2681.18
4873.28,2686.53
4873.55,2691.93
4873.55,2825.79
4873.28,2831.19
4872.49,2836.54
4871.17,2841.79
4869.35,2846.88
4867.04,2851.77
4864.26,2856.41
4861.04,2860.75
4857.4,2864.76
4853.4,2868.39
4849.05,2871.62
4844.41,2874.4
4839.52,2876.71
4834.43,2878.53
4829.18,2879.85
4823.83,2880.64
4818.43,2880.91
4708.19,2880.91
4702.79,2880.64
4697.44,2879.85
4692.19,2878.53
4687.1,2876.71
4682.21,2874.4
4677.57,2871.62
4673.23,2868.39
4669.22,2864.76
4665.59,2860.75
4662.36,2856.41
4659.58,2851.77
4657.27,2846.88
4655.45,2841.79
4654.13,2836.54
4653.34,2831.19
4653.07,2825.79
4653.07,2691.93
4653.34,2686.53
4654.13,2681.18
4655.45,2675.93
4657.27,2670.84
4659.58,2665.95
4662.36,2661.31
4665.59,2656.96
4669.22,2652.95
4673.23,2649.32
4677.57,2646.1
4682.21,2643.32
4687.1,2641.01
4692.19,2639.18
4697.44,2637.87
4702.79,2637.08
4708.19,2636.81
4818.43,2636.81
Z" /> 
<path style="fill:#000000; fill-opacity:1.0; 
stroke:#000000; stroke-width:0; stroke-opacity:1; 
stroke-linecap:round; stroke-linejoin:round;fill-rule:evenodd;"
d="M 4445.88,2637.08
4451.23,2637.87
4456.48,2639.18
4461.57,2641.01
4466.46,2643.32
4471.1,2646.1
4475.44,2649.32
4479.45,2652.95
4483.08,2656.96
4486.31,2661.31
4489.09,2665.95
4491.4,2670.84
4493.22,2675.93
4494.54,2681.18
4495.33,2686.53
4495.59,2691.93
4495.59,2825.79
4495.33,2831.19
4494.54,2836.54
4493.22,2841.79
4491.4,2846.88
4489.09,2851.77
4486.31,2856.41
4483.08,2860.75
4479.45,2864.76
4475.44,2868.39
4471.1,2871.62
4466.46,2874.4
4461.57,2876.71
4456.48,2878.53
4451.23,2879.85
4445.88,2880.64
4440.48,2880.91
4330.24,2880.91
4324.84,2880.64
4319.49,2879.85
4314.24,2878.53
4309.15,2876.71
4304.26,2874.4
4299.62,2871.62
4295.27,2868.39
4291.27,2864.76
4287.63,2860.75
4284.41,2856.41
4281.63,2851.77
4279.32,2846.88
4277.49,2841.79
4276.18,2836.54
4275.39,2831.19
4275.12,2825.79
4275.12,2691.93
4275.39,2686.53
4276.18,2681.18
4277.49,2675.93
4279.32,2670.84
4281.63,2665.95
4284.41,2661.31
4287.63,2656.96
4291.27,2652.95
4295.27,2649.32
4299.62,2646.1
4304.26,2643.32
4309.15,2641.01
4314.24,2639.18
4319.49,2637.87
4324.84,2637.08
4330.24,2636.81
4440.48,2636.81
Z" /> 
</g>
<g >
</g>
<g style="fill:#000000; fill-opacity:1.0; 
stroke:#000000; stroke-width:0; stroke-opacity:1; 
stroke-linecap:round; stroke-linejoin:round;">
<path style="fill:#000000; fill-opacity:1.0; 
stroke:#000000; stroke-width:0; stroke-opacity:1; 
stroke-linecap:round; stroke-linejoin:round;fill-rule:evenodd;"
d="M 5997.06,5196.13
6002.41,5196.93
6007.66,5198.24
6012.75,5200.06
6017.64,5202.37
6022.28,5205.16
6026.62,5208.38
6030.63,5212.01
6034.26,5216.02
6037.49,5220.36
6040.27,5225
6042.58,5229.89
6044.4,5234.98
6045.72,5240.23
6046.51,5245.58
6046.78,5250.98
6046.78,5384.84
6046.51,5390.24
6045.72,5395.6
6044.4,5400.84
6042.58,5405.94
6040.27,5410.83
6037.49,5415.46
6034.26,5419.81
6030.63,5423.82
6026.62,5427.45
6022.28,5430.67
6017.64,5433.45
6012.75,5435.76
6007.66,5437.59
6002.41,5438.9
5997.06,5439.7
5991.66,5439.96
5881.42,5439.96
5876.02,5439.7
5870.67,5438.9
5865.42,5437.59
5860.33,5435.76
5855.44,5433.45
5850.8,5430.67
5846.45,5427.45
5842.45,5423.82
5838.81,5419.81
5835.59,5415.46
5832.81,5410.83
5830.5,5405.94
5828.68,5400.84
5827.36,5395.6
5826.57,5390.24
5826.3,5384.84
5826.3,5250.98
5826.57,5245.58
5827.36,5240.23
5828.68,5234.98
5830.5,5229.89
5832.81,5225
5835.59,5220.36
5838.81,5216.02
5842.45,5212.01
5846.45,5208.38
5850.8,5205.16
5855.44,5202.37
5860.33,5200.06
5865.42,5198.24
5870.67,5196.93
5876.02,5196.13
5881.42,5195.87
5991.66,5195.87
Z" /> 
<path style="fill:#000000; fill-opacity:1.0; 
stroke:#000000; stroke-width:0; stroke-opacity:1; 
stroke-linecap:round; stroke-linejoin:round;fill-rule:evenodd;"
d="M 5619.11,5196.13
5624.46,5196.93
5629.7,5198.24
5634.8,5200.06
5639.69,5202.37
5644.33,5205.16
5648.67,5208.38
5652.68,5212.01
5656.31,5216.02
5659.53,5220.36
5662.31,5225
5664.63,5229.89
5666.45,5234.98
5667.76,5240.23
5668.56,5245.58
5668.82,5250.98
5668.82,5384.84
5668.56,5390.24
5667.76,5395.6
5666.45,5400.84
5664.63,5405.94
5662.31,5410.83
5659.53,5415.46
5656.31,5419.81
5652.68,5423.82
5648.67,5427.45
5644.33,5430.67
5639.69,5433.45
5634.8,5435.76
5629.7,5437.59
5624.46,5438.9
5619.11,5439.7
5613.7,5439.96
5503.47,5439.96
5498.07,5439.7
5492.71,5438.9
5487.47,5437.59
5482.38,5435.76
5477.49,5433.45
5472.85,5430.67
5468.5,5427.45
5464.49,5423.82
5460.86,5419.81
5457.64,5415.46
5454.86,5410.83
5452.55,5405.94
5450.72,5400.84
5449.41,5395.6
5448.62,5390.24
5448.35,5384.84
5448.35,5250.98
5448.62,5245.58
5449.41,5240.23
5450.72,5234.98
5452.55,5229.89
5454.86,5225
5457.64,5220.36
5460.86,5216.02
5464.49,5212.01
5468.5,5208.38
5472.85,5205.16
5477.49,5202.37
5482.38,5200.06
5487.47,5198.24
5492.71,5196.93
5498.07,5196.13
5503.47,5195.87
5613.7,5195.87
Z" /> 
</g>
<g >
</g>
<g style="fill:#000000; fill-opacity:1.0; 
stroke:#000000; stroke-width:0; stroke-opacity:1; 
stroke-linecap:round; stroke-linejoin:round;">
<path style="fill:#000000; fill-opacity:1.0; 
stroke:#000000; stroke-width:0; stroke-opacity:1; 
stroke-linecap:round; stroke-linejoin:round;fill-rule:evenodd;"
d="M 4445.88,5196.13
4451.23,5196.93
4456.48,5198.24
4461.57,5200.06
4466.46,5202.37
4471.1,5205.16
4475.44,5208.38
4479.45,5212.01
4483.08,5216.02
4486.31,5220.36
4489.09,5225
4491.4,5229.89
4493.22,5234.98
4494.54,5240.23
4495.33,5245.58
4495.59,5250.98
4495.59,5384.84
4495.33,5390.24
4494.54,5395.6
4493.22,5400.84
4491.4,5405.94
4489.09,5410.83
4486.31,5415.46
4483.08,5419.81
4479.45,5423.82
4475.44,5427.45
4471.1,5430.67
4466.46,5433.45
4461.57,5435.76
4456.48,5437.59
4451.23,5438.9
4445.88,5439.7
4440.48,5439.96
4330.24,5439.96
4324.84,5439.7
4319.49,5438.9
4314.24,5437.59
4309.15,5435.76
4304.26,5433.45
4299.62,5430.67
4295.27,5427.45
4291.27,5423.82
4287.63,5419.81
4284.41,5415.46
4281.63,5410.83
4279.32,5405.94
4277.49,5400.84
4276.18,5395.6
4275.39,5390.24
4275.12,5384.84
4275.12,5250.98
4275.39,5245.58
4276.18,5240.23
4277.49,5234.98
4279.32,5229.89
4281.63,5225
4284.41,5220.36
4287.63,5216.02
4291.27,5212.01
4295.27,5208.38
4299.62,5205.16
4304.26,5202.37
4309.15,5200.06
4314.24,5198.24
4319.49,5196.93
4324.84,5196.13
4330.24,5195.87
4440.48,5195.87
Z" /> 
<path style="fill:#000000; fill-opacity:1.0; 
stroke:#000000; stroke-width:0; stroke-opacity:1; 
stroke-linecap:round; stroke-linejoin:round;fill-rule:evenodd;"
d="M 4823.83,5196.13
4829.18,5196.93
4834.43,5198.24
4839.52,5200.06
4844.41,5202.37
4849.05,5205.16
4853.4,5208.38
4857.4,5212.01
4861.04,5216.02
4864.26,5220.36
4867.04,5225
4869.35,5229.89
4871.17,5234.98
4872.49,5240.23
4873.28,5245.58
4873.55,5250.98
4873.55,5384.84
4873.28,5390.24
4872.49,5395.6
4871.17,5400.84
4869.35,5405.94
4867.04,5410.83
4864.26,5415.46
4861.04,5419.81
4857.4,5423.82
4853.4,5427.45
4849.05,5430.67
4844.41,5433.45
4839.52,5435.76
4834.43,5437.59
4829.18,5438.9
4823.83,5439.7
4818.43,5439.96
4708.19,5439.96
4702.79,5439.7
4697.44,5438.9
4692.19,5437.59
4687.1,5435.76
4682.21,5433.45
4677.57,5430.67
4673.23,5427.45
4669.22,5423.82
4665.59,5419.81
4662.36,5415.46
4659.58,5410.83
4657.27,5405.94
4655.45,5400.84
4654.13,5395.6
4653.34,5390.24
4653.07,5384.84
4653.07,5250.98
4653.34,5245.58
4654.13,5240.23
4655.45,5234.98
4657.27,5229.89
4659.58,5225
4662.36,5220.36
4665.59,5216.02
4669.22,5212.01
4673.23,5208.38
4677.57,5205.16
4682.21,5202.37
4687.1,5200.06
4692.19,5198.24
4697.44,5196.93
4702.79,5196.13
4708.19,5195.87
4818.43,5195.87
Z" /> 
</g>
<g >
</g>
<g style="fill:#000000; fill-opacity:1.0; 
stroke:#000000; stroke-width:0; stroke-opacity:1; 
stroke-linecap:round; stroke-linejoin:round;">
<path style="fill:#000000; fill-opacity:1.0; 
stroke:#000000; stroke-width:0; stroke-opacity:1; 
stroke-linecap:round; stroke-linejoin:round;fill-rule:evenodd;"
d="M 5997.06,2637.08
6002.41,2637.87
6007.66,2639.18
6012.75,2641.01
6017.64,2643.32
6022.28,2646.1
6026.62,2649.32
6030.63,2652.95
6034.26,2656.96
6037.49,2661.31
6040.27,2665.95
6042.58,2670.84
6044.4,2675.93
6045.72,2681.18
6046.51,2686.53
6046.78,2691.93
6046.78,2825.79
6046.51,2831.19
6045.72,2836.54
6044.4,2841.79
6042.58,2846.88
6040.27,2851.77
6037.49,2856.41
6034.26,2860.75
6030.63,2864.76
6026.62,2868.39
6022.28,2871.62
6017.64,2874.4
6012.75,2876.71
6007.66,2878.53
6002.41,2879.85
5997.06,2880.64
5991.66,2880.91
5881.42,2880.91
5876.02,2880.64
5870.67,2879.85
5865.42,2878.53
5860.33,2876.71
5855.44,2874.4
5850.8,2871.62
5846.45,2868.39
5842.45,2864.76
5838.81,2860.75
5835.59,2856.41
5832.81,2851.77
5830.5,2846.88
5828.68,2841.79
5827.36,2836.54
5826.57,2831.19
5826.3,2825.79
5826.3,2691.93
5826.57,2686.53
5827.36,2681.18
5828.68,2675.93
5830.5,2670.84
5832.81,2665.95
5835.59,2661.31
5838.81,2656.96
5842.45,2652.95
5846.45,2649.32
5850.8,2646.1
5855.44,2643.32
5860.33,2641.01
5865.42,2639.18
5870.67,2637.87
5876.02,2637.08
5881.42,2636.81
5991.66,2636.81
Z" /> 
<path style="fill:#000000; fill-opacity:1.0; 
stroke:#000000; stroke-width:0; stroke-opacity:1; 
stroke-linecap:round; stroke-linejoin:round;fill-rule:evenodd;"
d="M 5619.11,2637.08
5624.46,2637.87
5629.7,2639.18
5634.8,2641.01
5639.69,2643.32
5644.33,2646.1
5648.67,2649.32
5652.68,2652.95
5656.31,2656.96
5659.53,2661.31
5662.31,2665.95
5664.63,2670.84
5666.45,2675.93
5667.76,2681.18
5668.56,2686.53
5668.82,2691.93
5668.82,2825.79
5668.56,2831.19
5667.76,2836.54
5666.45,2841.79
5664.63,2846.88
5662.31,2851.77
5659.53,2856.41
5656.31,2860.75
5652.68,2864.76
5648.67,2868.39
5644.33,2871.62
5639.69,2874.4
5634.8,2876.71
5629.7,2878.53
5624.46,2879.85
5619.11,2880.64
5613.7,2880.91
5503.47,2880.91
5498.07,2880.64
5492.71,2879.85
5487.47,2878.53
5482.38,2876.71
5477.49,2874.4
5472.85,2871.62
5468.5,2868.39
5464.49,2864.76
5460.86,2860.75
5457.64,2856.41
5454.86,2851.77
5452.55,2846.88
5450.72,2841.79
5449.41,2836.54
5448.62,2831.19
5448.35,2825.79
5448.35,2691.93
5448.62,2686.53
5449.41,2681.18
5450.72,2675.93
5452.55,2670.84
5454.86,2665.95
5457.64,2661.31
5460.86,2656.96
5464.49,2652.95
5468.5,2649.32
5472.85,2646.1
5477.49,2643.32
5482.38,2641.01
5487.47,2639.18
5492.71,2637.87
5498.07,2637.08
5503.47,2636.81
5613.7,2636.81
Z" /> 
</g>
<g >
</g>
<g style="fill:#000000; fill-opacity:1.0; 
stroke:#000000; stroke-width:0; stroke-opacity:1; 
stroke-linecap:round; stroke-linejoin:round;">
<circle cx="10865.7" cy="2660.43" r="393.701" /> 
</g>
<g style="fill:#000000; fill-opacity:1.0; 
stroke:#000000; stroke-width:39.3701; stroke-opacity:1; 
stroke-linecap:round; stroke-linejoin:round;">
</g>
<g style="fill:#000000; fill-opacity:1.0; 
stroke:#000000; stroke-width:0; stroke-opacity:1; 
stroke-linecap:round; stroke-linejoin:round;">
<circle cx="8897.17" cy="2660.43" r="393.701" /> 
</g>
<g style="fill:#000000; fill-opacity:1.0; 
stroke:#000000; stroke-width:39.3701; stroke-opacity:1; 
stroke-linecap:round; stroke-linejoin:round;">
</g>
<g >
</g>
<g style="fill:#000000; fill-opacity:1.0; 
stroke:#000000; stroke-width:39.3701; stroke-opacity:1; 
stroke-linecap:round; stroke-linejoin:round;">
</g>
<g style="fill:#000000; fill-opacity:1.0; 
stroke:#000000; stroke-width:0; stroke-opacity:1; 
stroke-linecap:round; stroke-linejoin:round;">
<path style="fill:#000000; fill-opacity:1.0; 
stroke:#000000; stroke-width:0; stroke-opacity:1; 
stroke-linecap:round; stroke-linejoin:round;fill-rule:evenodd;"
d="M 15459.5,4306.36
15464.6,4307.12
15469.7,4308.39
15474.6,4310.15
15479.3,4312.38
15483.8,4315.06
15488,4318.17
15491.8,4321.67
15495.3,4325.53
15498.4,4329.72
15501.1,4334.2
15503.4,4338.91
15505.1,4343.82
15506.4,4348.88
15507.1,4354.04
15507.4,4359.25
15507.4,4504.92
15507.1,4510.13
15506.4,4515.29
15505.1,4520.35
15503.4,4525.26
15501.1,4529.98
15498.4,4534.45
15495.3,4538.64
15491.8,4542.5
15488,4546.01
15483.8,4549.11
15479.3,4551.79
15474.6,4554.03
15469.7,4555.78
15464.6,4557.05
15459.5,4557.81
15454.3,4558.07
15348,4558.07
15342.7,4557.81
15337.6,4557.05
15332.5,4555.78
15327.6,4554.03
15322.9,4551.79
15318.4,4549.11
15314.2,4546.01
15310.4,4542.5
15306.9,4538.64
15303.8,4534.45
15301.1,4529.98
15298.9,4525.26
15297.1,4520.35
15295.8,4515.29
15295.1,4510.13
15294.8,4504.92
15294.8,4359.25
15295.1,4354.04
15295.8,4348.88
15297.1,4343.82
15298.9,4338.91
15301.1,4334.2
15303.8,4329.72
15306.9,4325.53
15310.4,4321.67
15314.2,4318.17
15318.4,4315.06
15322.9,4312.38
15327.6,4310.15
15332.5,4308.39
15337.6,4307.12
15342.7,4306.36
15348,4306.1
15454.3,4306.1
Z" /> 
<path style="fill:#000000; fill-opacity:1.0; 
stroke:#000000; stroke-width:0; stroke-opacity:1; 
stroke-linecap:round; stroke-linejoin:round;fill-rule:evenodd;"
d="M 15057.9,4306.36
15063,4307.12
15068.1,4308.39
15073,4310.15
15077.7,4312.38
15082.2,4315.06
15086.4,4318.17
15090.3,4321.67
15093.8,4325.53
15096.9,4329.72
15099.6,4334.2
15101.8,4338.91
15103.5,4343.82
15104.8,4348.88
15105.6,4354.04
15105.8,4359.25
15105.8,4504.92
15105.6,4510.13
15104.8,4515.29
15103.5,4520.35
15101.8,4525.26
15099.6,4529.98
15096.9,4534.45
15093.8,4538.64
15090.3,4542.5
15086.4,4546.01
15082.2,4549.11
15077.7,4551.79
15073,4554.03
15068.1,4555.78
15063,4557.05
15057.9,4557.81
15052.7,4558.07
14946.4,4558.07
14941.2,4557.81
14936,4557.05
14931,4555.78
14926,4554.03
14921.3,4551.79
14916.9,4549.11
14912.7,4546.01
14908.8,4542.5
14905.3,4538.64
14902.2,4534.45
14899.5,4529.98
14897.3,4525.26
14895.5,4520.35
14894.3,4515.29
14893.5,4510.13
14893.2,4504.92
14893.2,4359.25
14893.5,4354.04
14894.3,4348.88
14895.5,4343.82
14897.3,4338.91
14899.5,4334.2
14902.2,4329.72
14905.3,4325.53
14908.8,4321.67
14912.7,4318.17
14916.9,4315.06
14921.3,4312.38
14926,4310.15
14931,4308.39
14936,4307.12
14941.2,4306.36
14946.4,4306.1
15052.7,4306.1
Z" /> 
</g>
<g >
</g>
<g style="fill:#000000; fill-opacity:1.0; 
stroke:#000000; stroke-width:0; stroke-opacity:1; 
stroke-linecap:round; stroke-linejoin:round;">
<path style="fill:#000000; fill-opacity:1.0; 
stroke:#000000; stroke-width:0; stroke-opacity:1; 
stroke-linecap:round; stroke-linejoin:round;fill-rule:evenodd;"
d="M 13872.9,2633.13
13878,2633.9
13883.1,2635.16
13888,2636.92
13892.7,2639.15
13897.2,2641.83
13901.4,2644.94
13905.2,2648.44
13908.7,2652.31
13911.8,2656.5
13914.5,2660.97
13916.7,2665.68
13918.5,2670.6
13919.8,2675.65
13920.5,2680.81
13920.8,2686.02
13920.8,2831.69
13920.5,2836.9
13919.8,2842.06
13918.5,2847.12
13916.7,2852.03
13914.5,2856.75
13911.8,2861.22
13908.7,2865.41
13905.2,2869.28
13901.4,2872.78
13897.2,2875.89
13892.7,2878.57
13888,2880.8
13883.1,2882.55
13878,2883.82
13872.9,2884.59
13867.6,2884.84
13761.3,2884.84
13756.1,2884.59
13751,2883.82
13745.9,2882.55
13741,2880.8
13736.3,2878.57
13731.8,2875.89
13727.6,2872.78
13723.8,2869.28
13720.3,2865.41
13717.1,2861.22
13714.5,2856.75
13712.2,2852.03
13710.5,2847.12
13709.2,2842.06
13708.4,2836.9
13708.2,2831.69
13708.2,2686.02
13708.4,2680.81
13709.2,2675.65
13710.5,2670.6
13712.2,2665.68
13714.5,2660.97
13717.1,2656.5
13720.3,2652.31
13723.8,2648.44
13727.6,2644.94
13731.8,2641.83
13736.3,2639.15
13741,2636.92
13745.9,2635.16
13751,2633.9
13756.1,2633.13
13761.3,2632.87
13867.6,2632.87
Z" /> 
<path style="fill:#000000; fill-opacity:1.0; 
stroke:#000000; stroke-width:0; stroke-opacity:1; 
stroke-linecap:round; stroke-linejoin:round;fill-rule:evenodd;"
d="M 14274.4,2633.13
14279.6,2633.9
14284.6,2635.16
14289.6,2636.92
14294.3,2639.15
14298.7,2641.83
14302.9,2644.94
14306.8,2648.44
14310.3,2652.31
14313.4,2656.5
14316.1,2660.97
14318.3,2665.68
14320.1,2670.6
14321.3,2675.65
14322.1,2680.81
14322.4,2686.02
14322.4,2831.69
14322.1,2836.9
14321.3,2842.06
14320.1,2847.12
14318.3,2852.03
14316.1,2856.75
14313.4,2861.22
14310.3,2865.41
14306.8,2869.28
14302.9,2872.78
14298.7,2875.89
14294.3,2878.57
14289.6,2880.8
14284.6,2882.55
14279.6,2883.82
14274.4,2884.59
14269.2,2884.84
14162.9,2884.84
14157.7,2884.59
14152.5,2883.82
14147.5,2882.55
14142.6,2880.8
14137.9,2878.57
14133.4,2875.89
14129.2,2872.78
14125.3,2869.28
14121.8,2865.41
14118.7,2861.22
14116,2856.75
14113.8,2852.03
14112.1,2847.12
14110.8,2842.06
14110,2836.9
14109.8,2831.69
14109.8,2686.02
14110,2680.81
14110.8,2675.65
14112.1,2670.6
14113.8,2665.68
14116,2660.97
14118.7,2656.5
14121.8,2652.31
14125.3,2648.44
14129.2,2644.94
14133.4,2641.83
14137.9,2639.15
14142.6,2636.92
14147.5,2635.16
14152.5,2633.9
14157.7,2633.13
14162.9,2632.87
14269.2,2632.87
Z" /> 
</g>
<g >
</g>
<g style="fill:#000000; fill-opacity:1.0; 
stroke:#000000; stroke-width:0; stroke-opacity:1; 
stroke-linecap:round; stroke-linejoin:round;">
<path style="fill:#000000; fill-opacity:1.0; 
stroke:#000000; stroke-width:0; stroke-opacity:1; 
stroke-linecap:round; stroke-linejoin:round;fill-rule:evenodd;"
d="M 15455.5,5192.19
15460.7,5192.95
15465.7,5194.22
15470.7,5195.97
15475.4,5198.21
15479.8,5200.89
15484,5203.99
15487.9,5207.5
15491.4,5211.36
15494.5,5215.55
15497.2,5220.02
15499.4,5224.74
15501.2,5229.65
15502.4,5234.71
15503.2,5239.87
15503.5,5245.08
15503.5,5390.75
15503.2,5395.96
15502.4,5401.12
15501.2,5406.18
15499.4,5411.09
15497.2,5415.8
15494.5,5420.28
15491.4,5424.47
15487.9,5428.33
15484,5431.83
15479.8,5434.94
15475.4,5437.62
15470.7,5439.85
15465.7,5441.61
15460.7,5442.88
15455.5,5443.64
15450.3,5443.9
15344,5443.9
15338.8,5443.64
15333.7,5442.88
15328.6,5441.61
15323.7,5439.85
15319,5437.62
15314.5,5434.94
15310.3,5431.83
15306.4,5428.33
15302.9,5424.47
15299.8,5420.28
15297.1,5415.8
15294.9,5411.09
15293.2,5406.18
15291.9,5401.12
15291.1,5395.96
15290.9,5390.75
15290.9,5245.08
15291.1,5239.87
15291.9,5234.71
15293.2,5229.65
15294.9,5224.74
15297.1,5220.02
15299.8,5215.55
15302.9,5211.36
15306.4,5207.5
15310.3,5203.99
15314.5,5200.89
15319,5198.21
15323.7,5195.97
15328.6,5194.22
15333.7,5192.95
15338.8,5192.19
15344,5191.93
15450.3,5191.93
Z" /> 
<path style="fill:#000000; fill-opacity:1.0; 
stroke:#000000; stroke-width:0; stroke-opacity:1; 
stroke-linecap:round; stroke-linejoin:round;fill-rule:evenodd;"
d="M 15054,5192.19
15059.1,5192.95
15064.2,5194.22
15069.1,5195.97
15073.8,5198.21
15078.3,5200.89
15082.5,5203.99
15086.3,5207.5
15089.8,5211.36
15092.9,5215.55
15095.6,5220.02
15097.8,5224.74
15099.6,5229.65
15100.9,5234.71
15101.6,5239.87
15101.9,5245.08
15101.9,5390.75
15101.6,5395.96
15100.9,5401.12
15099.6,5406.18
15097.8,5411.09
15095.6,5415.8
15092.9,5420.28
15089.8,5424.47
15086.3,5428.33
15082.5,5431.83
15078.3,5434.94
15073.8,5437.62
15069.1,5439.85
15064.2,5441.61
15059.1,5442.88
15054,5443.64
15048.7,5443.9
14942.4,5443.9
14937.2,5443.64
14932.1,5442.88
14927,5441.61
14922.1,5439.85
14917.4,5437.62
14912.9,5434.94
14908.7,5431.83
14904.9,5428.33
14901.4,5424.47
14898.3,5420.28
14895.6,5415.8
14893.3,5411.09
14891.6,5406.18
14890.3,5401.12
14889.6,5395.96
14889.3,5390.75
14889.3,5245.08
14889.6,5239.87
14890.3,5234.71
14891.6,5229.65
14893.3,5224.74
14895.6,5220.02
14898.3,5215.55
14901.4,5211.36
14904.9,5207.5
14908.7,5203.99
14912.9,5200.89
14917.4,5198.21
14922.1,5195.97
14927,5194.22
14932.1,5192.95
14937.2,5192.19
14942.4,5191.93
15048.7,5191.93
Z" /> 
</g>
<g >
</g>
<g style="fill:#000000; fill-opacity:1.0; 
stroke:#000000; stroke-width:0; stroke-opacity:1; 
stroke-linecap:round; stroke-linejoin:round;">
<path style="fill:#000000; fill-opacity:1.0; 
stroke:#000000; stroke-width:0; stroke-opacity:1; 
stroke-linecap:round; stroke-linejoin:round;fill-rule:evenodd;"
d="M 13868.9,5192.19
13874.1,5192.95
13879.1,5194.22
13884,5195.97
13888.8,5198.21
13893.2,5200.89
13897.4,5203.99
13901.3,5207.5
13904.8,5211.36
13907.9,5215.55
13910.6,5220.02
13912.8,5224.74
13914.6,5229.65
13915.8,5234.71
13916.6,5239.87
13916.9,5245.08
13916.9,5390.75
13916.6,5395.96
13915.8,5401.12
13914.6,5406.18
13912.8,5411.09
13910.6,5415.8
13907.9,5420.28
13904.8,5424.47
13901.3,5428.33
13897.4,5431.83
13893.2,5434.94
13888.8,5437.62
13884,5439.85
13879.1,5441.61
13874.1,5442.88
13868.9,5443.64
13863.7,5443.9
13757.4,5443.9
13752.2,5443.64
13747,5442.88
13742,5441.61
13737.1,5439.85
13732.4,5437.62
13727.9,5434.94
13723.7,5431.83
13719.8,5428.33
13716.3,5424.47
13713.2,5420.28
13710.5,5415.8
13708.3,5411.09
13706.5,5406.18
13705.3,5401.12
13704.5,5395.96
13704.3,5390.75
13704.3,5245.08
13704.5,5239.87
13705.3,5234.71
13706.5,5229.65
13708.3,5224.74
13710.5,5220.02
13713.2,5215.55
13716.3,5211.36
13719.8,5207.5
13723.7,5203.99
13727.9,5200.89
13732.4,5198.21
13737.1,5195.97
13742,5194.22
13747,5192.95
13752.2,5192.19
13757.4,5191.93
13863.7,5191.93
Z" /> 
<path style="fill:#000000; fill-opacity:1.0; 
stroke:#000000; stroke-width:0; stroke-opacity:1; 
stroke-linecap:round; stroke-linejoin:round;fill-rule:evenodd;"
d="M 14270.5,5192.19
14275.6,5192.95
14280.7,5194.22
14285.6,5195.97
14290.3,5198.21
14294.8,5200.89
14299,5203.99
14302.9,5207.5
14306.4,5211.36
14309.5,5215.55
14312.2,5220.02
14314.4,5224.74
14316.1,5229.65
14317.4,5234.71
14318.2,5239.87
14318.4,5245.08
14318.4,5390.75
14318.2,5395.96
14317.4,5401.12
14316.1,5406.18
14314.4,5411.09
14312.2,5415.8
14309.5,5420.28
14306.4,5424.47
14302.9,5428.33
14299,5431.83
14294.8,5434.94
14290.3,5437.62
14285.6,5439.85
14280.7,5441.61
14275.6,5442.88
14270.5,5443.64
14265.3,5443.9
14159,5443.9
14153.8,5443.64
14148.6,5442.88
14143.6,5441.61
14138.6,5439.85
14133.9,5437.62
14129.5,5434.94
14125.3,5431.83
14121.4,5428.33
14117.9,5424.47
14114.8,5420.28
14112.1,5415.8
14109.9,5411.09
14108.1,5406.18
14106.9,5401.12
14106.1,5395.96
14105.8,5390.75
14105.8,5245.08
14106.1,5239.87
14106.9,5234.71
14108.1,5229.65
14109.9,5224.74
14112.1,5220.02
14114.8,5215.55
14117.9,5211.36
14121.4,5207.5
14125.3,5203.99
14129.5,5200.89
14133.9,5198.21
14138.6,5195.97
14143.6,5194.22
14148.6,5192.95
14153.8,5192.19
14159,5191.93
14265.3,5191.93
Z" /> 
</g>
<g >
</g>
<g style="fill:#000000; fill-opacity:1.0; 
stroke:#000000; stroke-width:0; stroke-opacity:1; 
stroke-linecap:round; stroke-linejoin:round;">
<path style="fill:#000000; fill-opacity:1.0; 
stroke:#000000; stroke-width:0; stroke-opacity:1; 
stroke-linecap:round; stroke-linejoin:round;fill-rule:evenodd;"
d="M 15455.5,2633.13
15460.7,2633.9
15465.7,2635.16
15470.7,2636.92
15475.4,2639.15
15479.8,2641.83
15484,2644.94
15487.9,2648.44
15491.4,2652.31
15494.5,2656.5
15497.2,2660.97
15499.4,2665.68
15501.2,2670.6
15502.4,2675.65
15503.2,2680.81
15503.5,2686.02
15503.5,2831.69
15503.2,2836.9
15502.4,2842.06
15501.2,2847.12
15499.4,2852.03
15497.2,2856.75
15494.5,2861.22
15491.4,2865.41
15487.9,2869.28
15484,2872.78
15479.8,2875.89
15475.4,2878.57
15470.7,2880.8
15465.7,2882.55
15460.7,2883.82
15455.5,2884.59
15450.3,2884.84
15344,2884.84
15338.8,2884.59
15333.7,2883.82
15328.6,2882.55
15323.7,2880.8
15319,2878.57
15314.5,2875.89
15310.3,2872.78
15306.4,2869.28
15302.9,2865.41
15299.8,2861.22
15297.1,2856.75
15294.9,2852.03
15293.2,2847.12
15291.9,2842.06
15291.1,2836.9
15290.9,2831.69
15290.9,2686.02
15291.1,2680.81
15291.9,2675.65
15293.2,2670.6
15294.9,2665.68
15297.1,2660.97
15299.8,2656.5
15302.9,2652.31
15306.4,2648.44
15310.3,2644.94
15314.5,2641.83
15319,2639.15
15323.7,2636.92
15328.6,2635.16
15333.7,2633.9
15338.8,2633.13
15344,2632.87
15450.3,2632.87
Z" /> 
<path style="fill:#000000; fill-opacity:1.0; 
stroke:#000000; stroke-width:0; stroke-opacity:1; 
stroke-linecap:round; stroke-linejoin:round;fill-rule:evenodd;"
d="M 15054,2633.13
15059.1,2633.9
15064.2,2635.16
15069.1,2636.92
15073.8,2639.15
15078.3,2641.83
15082.5,2644.94
15086.3,2648.44
15089.8,2652.31
15092.9,2656.5
15095.6,2660.97
15097.8,2665.68
15099.6,2670.6
15100.9,2675.65
15101.6,2680.81
15101.9,2686.02
15101.9,2831.69
15101.6,2836.9
15100.9,2842.06
15099.6,2847.12
15097.8,2852.03
15095.6,2856.75
15092.9,2861.22
15089.8,2865.41
15086.3,2869.28
15082.5,2872.78
15078.3,2875.89
15073.8,2878.57
15069.1,2880.8
15064.2,2882.55
15059.1,2883.82
15054,2884.59
15048.7,2884.84
14942.4,2884.84
14937.2,2884.59
14932.1,2883.82
14927,2882.55
14922.1,2880.8
14917.4,2878.57
14912.9,2875.89
14908.7,2872.78
14904.9,2869.28
14901.4,2865.41
14898.3,2861.22
14895.6,2856.75
14893.3,2852.03
14891.6,2847.12
14890.3,2842.06
14889.6,2836.9
14889.3,2831.69
14889.3,2686.02
14889.6,2680.81
14890.3,2675.65
14891.6,2670.6
14893.3,2665.68
14895.6,2660.97
14898.3,2656.5
14901.4,2652.31
14904.9,2648.44
14908.7,2644.94
14912.9,2641.83
14917.4,2639.15
14922.1,2636.92
14927,2635.16
14932.1,2633.9
14937.2,2633.13
14942.4,2632.87
15048.7,2632.87
Z" /> 
</g>
<g >
</g>
<g style="fill:#000000; fill-opacity:1.0; 
stroke:#000000; stroke-width:0; stroke-opacity:1; 
stroke-linecap:round; stroke-linejoin:round;">
<path style="fill:#000000; fill-opacity:1.0; 
stroke:#000000; stroke-width:0; stroke-opacity:1; 
stroke-linecap:round; stroke-linejoin:round;fill-rule:evenodd;"
d="M 11707.5,4503.21
11712.7,4503.97
11717.7,4505.24
11722.6,4507
11727.3,4509.23
11731.8,4511.91
11736,4515.02
11739.9,4518.52
11743.4,4522.38
11746.5,4526.57
11749.2,4531.05
11751.4,4535.76
11753.1,4540.67
11754.4,4545.73
11755.2,4550.89
11755.4,4556.1
11755.4,4701.77
11755.2,4706.98
11754.4,4712.14
11753.1,4717.2
11751.4,4722.11
11749.2,4726.83
11746.5,4731.3
11743.4,4735.49
11739.9,4739.35
11736,4742.86
11731.8,4745.96
11727.3,4748.65
11722.6,4750.88
11717.7,4752.63
11712.7,4753.9
11707.5,4754.67
11702.3,4754.92
11596,4754.92
11590.8,4754.67
11585.6,4753.9
11580.6,4752.63
11575.6,4750.88
11570.9,4748.65
11566.5,4745.96
11562.3,4742.86
11558.4,4739.35
11554.9,4735.49
11551.8,4731.3
11549.1,4726.83
11546.9,4722.11
11545.1,4717.2
11543.9,4712.14
11543.1,4706.98
11542.8,4701.77
11542.8,4556.1
11543.1,4550.89
11543.9,4545.73
11545.1,4540.67
11546.9,4535.76
11549.1,4531.05
11551.8,4526.57
11554.9,4522.38
11558.4,4518.52
11562.3,4515.02
11566.5,4511.91
11570.9,4509.23
11575.6,4507
11580.6,4505.24
11585.6,4503.97
11590.8,4503.21
11596,4502.95
11702.3,4502.95
Z" /> 
<path style="fill:#000000; fill-opacity:1.0; 
stroke:#000000; stroke-width:0; stroke-opacity:1; 
stroke-linecap:round; stroke-linejoin:round;fill-rule:evenodd;"
d="M 12109.1,4503.21
12114.2,4503.97
12119.3,4505.24
12124.2,4507
12128.9,4509.23
12133.4,4511.91
12137.6,4515.02
12141.4,4518.52
12144.9,4522.38
12148.1,4526.57
12150.7,4531.05
12153,4535.76
12154.7,4540.67
12156,4545.73
12156.8,4550.89
12157,4556.1
12157,4701.77
12156.8,4706.98
12156,4712.14
12154.7,4717.2
12153,4722.11
12150.7,4726.83
12148.1,4731.3
12144.9,4735.49
12141.4,4739.35
12137.6,4742.86
12133.4,4745.96
12128.9,4748.65
12124.2,4750.88
12119.3,4752.63
12114.2,4753.9
12109.1,4754.67
12103.9,4754.92
11997.6,4754.92
11992.4,4754.67
11987.2,4753.9
11982.1,4752.63
11977.2,4750.88
11972.5,4748.65
11968,4745.96
11963.8,4742.86
11960,4739.35
11956.5,4735.49
11953.4,4731.3
11950.7,4726.83
11948.5,4722.11
11946.7,4717.2
11945.4,4712.14
11944.7,4706.98
11944.4,4701.77
11944.4,4556.1
11944.7,4550.89
11945.4,4545.73
11946.7,4540.67
11948.5,4535.76
11950.7,4531.05
11953.4,4526.57
11956.5,4522.38
11960,4518.52
11963.8,4515.02
11968,4511.91
11972.5,4509.23
11977.2,4507
11982.1,4505.24
11987.2,4503.97
11992.4,4503.21
11997.6,4502.95
12103.9,4502.95
Z" /> 
</g>
<g >
</g>
<g style="fill:#000000; fill-opacity:1.0; 
stroke:#000000; stroke-width:0; stroke-opacity:1; 
stroke-linecap:round; stroke-linejoin:round;">
<path style="fill:#000000; fill-opacity:1.0; 
stroke:#000000; stroke-width:0; stroke-opacity:1; 
stroke-linecap:round; stroke-linejoin:round;fill-rule:evenodd;"
d="M 12712.1,3432.09
12712.1,2644.69
13499.5,2644.69
13499.5,3432.09
Z" /> 
<path style="fill:#000000; fill-opacity:1.0; 
stroke:#000000; stroke-width:0; stroke-opacity:1; 
stroke-linecap:round; stroke-linejoin:round;fill-rule:evenodd;"
d="M 16322,2645.63
16341.1,2648.47
16359.8,2653.16
16378,2659.67
16395.5,2667.93
16412,2677.86
16427.6,2689.37
16441.9,2702.34
16454.8,2716.65
16466.4,2732.17
16476.3,2748.74
16484.5,2766.2
16491.1,2784.39
16495.7,2803.13
16498.6,2822.24
16499.5,2841.54
16499.5,3235.24
16498.6,3254.53
16495.7,3273.64
16491.1,3292.38
16484.5,3310.57
16476.3,3328.03
16466.4,3344.6
16454.8,3360.12
16441.9,3374.43
16427.6,3387.4
16412,3398.91
16395.5,3408.84
16378,3417.1
16359.8,3423.61
16341.1,3428.3
16322,3431.14
16302.7,3432.09
15909,3432.09
15889.7,3431.14
15870.6,3428.3
15851.8,3423.61
15833.6,3417.1
15816.2,3408.84
15799.6,3398.91
15784.1,3387.4
15769.8,3374.43
15756.8,3360.12
15745.3,3344.6
15735.4,3328.03
15727.1,3310.57
15720.6,3292.38
15715.9,3273.64
15713.1,3254.53
15712.1,3235.24
15712.1,2841.54
15713.1,2822.24
15715.9,2803.13
15720.6,2784.39
15727.1,2766.2
15735.4,2748.74
15745.3,2732.17
15756.8,2716.65
15769.8,2702.34
15784.1,2689.37
15799.6,2677.86
15816.2,2667.93
15833.6,2659.67
15851.8,2653.16
15870.6,2648.47
15889.7,2645.63
15909,2644.69
16302.7,2644.69
Z" /> 
<path style="fill:#000000; fill-opacity:1.0; 
stroke:#000000; stroke-width:0; stroke-opacity:1; 
stroke-linecap:round; stroke-linejoin:round;fill-rule:evenodd;"
d="M 16322,3645.63
16341.1,3648.47
16359.8,3653.16
16378,3659.67
16395.5,3667.93
16412,3677.86
16427.6,3689.37
16441.9,3702.34
16454.8,3716.65
16466.4,3732.17
16476.3,3748.74
16484.5,3766.2
16491.1,3784.39
16495.7,3803.13
16498.6,3822.24
16499.5,3841.54
16499.5,4235.24
16498.6,4254.53
16495.7,4273.64
16491.1,4292.38
16484.5,4310.57
16476.3,4328.03
16466.4,4344.6
16454.8,4360.12
16441.9,4374.43
16427.6,4387.4
16412,4398.91
16395.5,4408.84
16378,4417.1
16359.8,4423.61
16341.1,4428.3
16322,4431.14
16302.7,4432.09
15909,4432.09
15889.7,4431.14
15870.6,4428.3
15851.8,4423.61
15833.6,4417.1
15816.2,4408.84
15799.6,4398.91
15784.1,4387.4
15769.8,4374.43
15756.8,4360.12
15745.3,4344.6
15735.4,4328.03
15727.1,4310.57
15720.6,4292.38
15715.9,4273.64
15713.1,4254.53
15712.1,4235.24
15712.1,3841.54
15713.1,3822.24
15715.9,3803.13
15720.6,3784.39
15727.1,3766.2
15735.4,3748.74
15745.3,3732.17
15756.8,3716.65
15769.8,3702.34
15784.1,3689.37
15799.6,3677.86
15816.2,3667.93
15833.6,3659.67
15851.8,3653.16
15870.6,3648.47
15889.7,3645.63
15909,3644.69
16302.7,3644.69
Z" /> 
<path style="fill:#000000; fill-opacity:1.0; 
stroke:#000000; stroke-width:0; stroke-opacity:1; 
stroke-linecap:round; stroke-linejoin:round;fill-rule:evenodd;"
d="M 16322,4645.63
16341.1,4648.47
16359.8,4653.16
16378,4659.67
16395.5,4667.93
16412,4677.86
16427.6,4689.37
16441.9,4702.34
16454.8,4716.65
16466.4,4732.17
16476.3,4748.74
16484.5,4766.2
16491.1,4784.39
16495.7,4803.13
16498.6,4822.24
16499.5,4841.54
16499.5,5235.24
16498.6,5254.53
16495.7,5273.64
16491.1,5292.38
16484.5,5310.57
16476.3,5328.03
16466.4,5344.6
16454.8,5360.12
16441.9,5374.43
16427.6,5387.4
16412,5398.91
16395.5,5408.84
16378,5417.1
16359.8,5423.61
16341.1,5428.3
16322,5431.14
16302.7,5432.09
15909,5432.09
15889.7,5431.14
15870.6,5428.3
15851.8,5423.61
15833.6,5417.1
15816.2,5408.84
15799.6,5398.91
15784.1,5387.4
15769.8,5374.43
15756.8,5360.12
15745.3,5344.6
15735.4,5328.03
15727.1,5310.57
15720.6,5292.38
15715.9,5273.64
15713.1,5254.53
15712.1,5235.24
15712.1,4841.54
15713.1,4822.24
15715.9,4803.13
15720.6,4784.39
15727.1,4766.2
15735.4,4748.74
15745.3,4732.17
15756.8,4716.65
15769.8,4702.34
15784.1,4689.37
15799.6,4677.86
15816.2,4667.93
15833.6,4659.67
15851.8,4653.16
15870.6,4648.47
15889.7,4645.63
15909,4644.69
16302.7,4644.69
Z" /> 
<path style="fill:#000000; fill-opacity:1.0; 
stroke:#000000; stroke-width:0; stroke-opacity:1; 
stroke-linecap:round; stroke-linejoin:round;fill-rule:evenodd;"
d="M 13322,4645.63
13341.1,4648.47
13359.8,4653.16
13378,4659.67
13395.5,4667.93
13412,4677.86
13427.6,4689.37
13441.9,4702.34
13454.8,4716.65
13466.4,4732.17
13476.3,4748.74
13484.5,4766.2
13491.1,4784.39
13495.7,4803.13
13498.6,4822.24
13499.5,4841.54
13499.5,5235.24
13498.6,5254.53
13495.7,5273.64
13491.1,5292.38
13484.5,5310.57
13476.3,5328.03
13466.4,5344.6
13454.8,5360.12
13441.9,5374.43
13427.6,5387.4
13412,5398.91
13395.5,5408.84
13378,5417.1
13359.8,5423.61
13341.1,5428.3
13322,5431.14
13302.7,5432.09
12909,5432.09
12889.7,5431.14
12870.6,5428.3
12851.8,5423.61
12833.6,5417.1
12816.2,5408.84
12799.6,5398.91
12784.1,5387.4
12769.8,5374.43
12756.8,5360.12
12745.3,5344.6
12735.4,5328.03
12727.1,5310.57
12720.6,5292.38
12715.9,5273.64
12713.1,5254.53
12712.1,5235.24
12712.1,4841.54
12713.1,4822.24
12715.9,4803.13
12720.6,4784.39
12727.1,4766.2
12735.4,4748.74
12745.3,4732.17
12756.8,4716.65
12769.8,4702.34
12784.1,4689.37
12799.6,4677.86
12816.2,4667.93
12833.6,4659.67
12851.8,4653.16
12870.6,4648.47
12889.7,4645.63
12909,4644.69
13302.7,4644.69
Z" /> 
<path style="fill:#000000; fill-opacity:1.0; 
stroke:#000000; stroke-width:0; stroke-opacity:1; 
stroke-linecap:round; stroke-linejoin:round;fill-rule:evenodd;"
d="M 13322,3645.63
13341.1,3648.47
13359.8,3653.16
13378,3659.67
13395.5,3667.93
13412,3677.86
13427.6,3689.37
13441.9,3702.34
13454.8,3716.65
13466.4,3732.17
13476.3,3748.74
13484.5,3766.2
13491.1,3784.39
13495.7,3803.13
13498.6,3822.24
13499.5,3841.54
13499.5,4235.24
13498.6,4254.53
13495.7,4273.64
13491.1,4292.38
13484.5,4310.57
13476.3,4328.03
13466.4,4344.6
13454.8,4360.12
13441.9,4374.43
13427.6,4387.4
13412,4398.91
13395.5,4408.84
13378,4417.1
13359.8,4423.61
13341.1,4428.3
13322,4431.14
13302.7,4432.09
12909,4432.09
12889.7,4431.14
12870.6,4428.3
12851.8,4423.61
12833.6,4417.1
12816.2,4408.84
12799.6,4398.91
12784.1,4387.4
12769.8,4374.43
12756.8,4360.12
12745.3,4344.6
12735.4,4328.03
12727.1,4310.57
12720.6,4292.38
12715.9,4273.64
12713.1,4254.53
12712.1,4235.24
12712.1,3841.54
12713.1,3822.24
12715.9,3803.13
12720.6,3784.39
12727.1,3766.2
12735.4,3748.74
12745.3,3732.17
12756.8,3716.65
12769.8,3702.34
12784.1,3689.37
12799.6,3677.86
12816.2,3667.93
12833.6,3659.67
12851.8,3653.16
12870.6,3648.47
12889.7,3645.63
12909,3644.69
13302.7,3644.69
Z" /> 
</g>
<g >
</g>
<g style="fill:#000000; fill-opacity:1.0; 
stroke:#000000; stroke-width:0; stroke-opacity:1; 
stroke-linecap:round; stroke-linejoin:round;">
<path style="fill:#000000; fill-opacity:1.0; 
stroke:#000000; stroke-width:0; stroke-opacity:1; 
stroke-linecap:round; stroke-linejoin:round;fill-rule:evenodd;"
d="M 3263.31,3432.09
3263.31,2644.69
4050.71,2644.69
4050.71,3432.09
Z" /> 
<path style="fill:#000000; fill-opacity:1.0; 
stroke:#000000; stroke-width:0; stroke-opacity:1; 
stroke-linecap:round; stroke-linejoin:round;fill-rule:evenodd;"
d="M 6873.16,2645.63
6892.27,2648.47
6911,2653.16
6929.19,2659.67
6946.66,2667.93
6963.23,2677.86
6978.74,2689.37
6993.06,2702.34
7006.03,2716.65
7017.54,2732.17
7027.47,2748.74
7035.73,2766.2
7042.24,2784.39
7046.93,2803.13
7049.76,2822.24
7050.71,2841.54
7050.71,3235.24
7049.76,3254.53
7046.93,3273.64
7042.24,3292.38
7035.73,3310.57
7027.47,3328.03
7017.54,3344.6
7006.03,3360.12
6993.06,3374.43
6978.74,3387.4
6963.23,3398.91
6946.66,3408.84
6929.19,3417.1
6911,3423.61
6892.27,3428.3
6873.16,3431.14
6853.86,3432.09
6460.16,3432.09
6440.87,3431.14
6421.76,3428.3
6403.02,3423.61
6384.83,3417.1
6367.37,3408.84
6350.8,3398.91
6335.28,3387.4
6320.97,3374.43
6307.99,3360.12
6296.49,3344.6
6286.55,3328.03
6278.29,3310.57
6271.79,3292.38
6267.09,3273.64
6264.26,3254.53
6263.31,3235.24
6263.31,2841.54
6264.26,2822.24
6267.09,2803.13
6271.79,2784.39
6278.29,2766.2
6286.55,2748.74
6296.49,2732.17
6307.99,2716.65
6320.97,2702.34
6335.28,2689.37
6350.8,2677.86
6367.37,2667.93
6384.83,2659.67
6403.02,2653.16
6421.76,2648.47
6440.87,2645.63
6460.16,2644.69
6853.86,2644.69
Z" /> 
<path style="fill:#000000; fill-opacity:1.0; 
stroke:#000000; stroke-width:0; stroke-opacity:1; 
stroke-linecap:round; stroke-linejoin:round;fill-rule:evenodd;"
d="M 6873.16,3645.63
6892.27,3648.47
6911,3653.16
6929.19,3659.67
6946.66,3667.93
6963.23,3677.86
6978.74,3689.37
6993.06,3702.34
7006.03,3716.65
7017.54,3732.17
7027.47,3748.74
7035.73,3766.2
7042.24,3784.39
7046.93,3803.13
7049.76,3822.24
7050.71,3841.54
7050.71,4235.24
7049.76,4254.53
7046.93,4273.64
7042.24,4292.38
7035.73,4310.57
7027.47,4328.03
7017.54,4344.6
7006.03,4360.12
6993.06,4374.43
6978.74,4387.4
6963.23,4398.91
6946.66,4408.84
6929.19,4417.1
6911,4423.61
6892.27,4428.3
6873.16,4431.14
6853.86,4432.09
6460.16,4432.09
6440.87,4431.14
6421.76,4428.3
6403.02,4423.61
6384.83,4417.1
6367.37,4408.84
6350.8,4398.91
6335.28,4387.4
6320.97,4374.43
6307.99,4360.12
6296.49,4344.6
6286.55,4328.03
6278.29,4310.57
6271.79,4292.38
6267.09,4273.64
6264.26,4254.53
6263.31,4235.24
6263.31,3841.54
6264.26,3822.24
6267.09,3803.13
6271.79,3784.39
6278.29,3766.2
6286.55,3748.74
6296.49,3732.17
6307.99,3716.65
6320.97,3702.34
6335.28,3689.37
6350.8,3677.86
6367.37,3667.93
6384.83,3659.67
6403.02,3653.16
6421.76,3648.47
6440.87,3645.63
6460.16,3644.69
6853.86,3644.69
Z" /> 
<path style="fill:#000000; fill-opacity:1.0; 
stroke:#000000; stroke-width:0; stroke-opacity:1; 
stroke-linecap:round; stroke-linejoin:round;fill-rule:evenodd;"
d="M 6873.16,4645.63
6892.27,4648.47
6911,4653.16
6929.19,4659.67
6946.66,4667.93
6963.23,4677.86
6978.74,4689.37
6993.06,4702.34
7006.03,4716.65
7017.54,4732.17
7027.47,4748.74
7035.73,4766.2
7042.24,4784.39
7046.93,4803.13
7049.76,4822.24
7050.71,4841.54
7050.71,5235.24
7049.76,5254.53
7046.93,5273.64
7042.24,5292.38
7035.73,5310.57
7027.47,5328.03
7017.54,5344.6
7006.03,5360.12
6993.06,5374.43
6978.74,5387.4
6963.23,5398.91
6946.66,5408.84
6929.19,5417.1
6911,5423.61
6892.27,5428.3
6873.16,5431.14
6853.86,5432.09
6460.16,5432.09
6440.87,5431.14
6421.76,5428.3
6403.02,5423.61
6384.83,5417.1
6367.37,5408.84
6350.8,5398.91
6335.28,5387.4
6320.97,5374.43
6307.99,5360.12
6296.49,5344.6
6286.55,5328.03
6278.29,5310.57
6271.79,5292.38
6267.09,5273.64
6264.26,5254.53
6263.31,5235.24
6263.31,4841.54
6264.26,4822.24
6267.09,4803.13
6271.79,4784.39
6278.29,4766.2
6286.55,4748.74
6296.49,4732.17
6307.99,4716.65
6320.97,4702.34
6335.28,4689.37
6350.8,4677.86
6367.37,4667.93
6384.83,4659.67
6403.02,4653.16
6421.76,4648.47
6440.87,4645.63
6460.16,4644.69
6853.86,4644.69
Z" /> 
<path style="fill:#000000; fill-opacity:1.0; 
stroke:#000000; stroke-width:0; stroke-opacity:1; 
stroke-linecap:round; stroke-linejoin:round;fill-rule:evenodd;"
d="M 3873.16,4645.63
3892.27,4648.47
3911,4653.16
3929.19,4659.67
3946.66,4667.93
3963.23,4677.86
3978.74,4689.37
3993.06,4702.34
4006.03,4716.65
4017.54,4732.17
4027.47,4748.74
4035.73,4766.2
4042.24,4784.39
4046.93,4803.13
4049.76,4822.24
4050.71,4841.54
4050.71,5235.24
4049.76,5254.53
4046.93,5273.64
4042.24,5292.38
4035.73,5310.57
4027.47,5328.03
4017.54,5344.6
4006.03,5360.12
3993.06,5374.43
3978.74,5387.4
3963.23,5398.91
3946.66,5408.84
3929.19,5417.1
3911,5423.61
3892.27,5428.3
3873.16,5431.14
3853.86,5432.09
3460.16,5432.09
3440.87,5431.14
3421.76,5428.3
3403.02,5423.61
3384.83,5417.1
3367.37,5408.84
3350.8,5398.91
3335.28,5387.4
3320.97,5374.43
3307.99,5360.12
3296.49,5344.6
3286.55,5328.03
3278.29,5310.57
3271.79,5292.38
3267.09,5273.64
3264.26,5254.53
3263.31,5235.24
3263.31,4841.54
3264.26,4822.24
3267.09,4803.13
3271.79,4784.39
3278.29,4766.2
3286.55,4748.74
3296.49,4732.17
3307.99,4716.65
3320.97,4702.34
3335.28,4689.37
3350.8,4677.86
3367.37,4667.93
3384.83,4659.67
3403.02,4653.16
3421.76,4648.47
3440.87,4645.63
3460.16,4644.69
3853.86,4644.69
Z" /> 
<path style="fill:#000000; fill-opacity:1.0; 
stroke:#000000; stroke-width:0; stroke-opacity:1; 
stroke-linecap:round; stroke-linejoin:round;fill-rule:evenodd;"
d="M 3873.16,3645.63
3892.27,3648.47
3911,3653.16
3929.19,3659.67
3946.66,3667.93
3963.23,3677.86
3978.74,3689.37
3993.06,3702.34
4006.03,3716.65
4017.54,3732.17
4027.47,3748.74
4035.73,3766.2
4042.24,3784.39
4046.93,3803.13
4049.76,3822.24
4050.71,3841.54
4050.71,4235.24
4049.76,4254.53
4046.93,4273.64
4042.24,4292.38
4035.73,4310.57
4027.47,4328.03
4017.54,4344.6
4006.03,4360.12
3993.06,4374.43
3978.74,4387.4
3963.23,4398.91
3946.66,4408.84
3929.19,4417.1
3911,4423.61
3892.27,4428.3
3873.16,4431.14
3853.86,4432.09
3460.16,4432.09
3440.87,4431.14
3421.76,4428.3
3403.02,4423.61
3384.83,4417.1
3367.37,4408.84
3350.8,4398.91
3335.28,4387.4
3320.97,4374.43
3307.99,4360.12
3296.49,4344.6
3286.55,4328.03
3278.29,4310.57
3271.79,4292.38
3267.09,4273.64
3264.26,4254.53
3263.31,4235.24
3263.31,3841.54
3264.26,3822.24
3267.09,3803.13
3271.79,3784.39
3278.29,3766.2
3286.55,3748.74
3296.49,3732.17
3307.99,3716.65
3320.97,3702.34
3335.28,3689.37
3350.8,3677.86
3367.37,3667.93
3384.83,3659.67
3403.02,3653.16
3421.76,3648.47
3440.87,3645.63
3460.16,3644.69
3853.86,3644.69
Z" /> 
</g>
<g >
</g>
<g >
</g>
<g style="fill:#000000; fill-opacity:1.0; 
stroke:#000000; stroke-width:0; stroke-opacity:1; 
stroke-linecap:round; stroke-linejoin:round;">
</g>
<g style="fill:#000000; fill-opacity:1.0; 
stroke:#000000; stroke-width:78.7402; stroke-opacity:1; 
stroke-linecap:round; stroke-linejoin:round;">
</g>
<g style="fill:#000000; fill-opacity:0.0; 
stroke:#000000; stroke-width:78.7402; stroke-opacity:1; 
stroke-linecap:round; stroke-linejoin:round;">
<path d="M5558 5317
L4763 5317
" />
<path d="M4763 5317
L4763 2758
" />
<path d="M4763 2758
L5558 2758
" />
</g>
<g style="fill:#000000; fill-opacity:0.0; 
stroke:#000000; stroke-width:393.701; stroke-opacity:1; 
stroke-linecap:round; stroke-linejoin:round;">
<path d="M8849 5597
L8849 6597
" />
</g>
<g style="fill:#000000; fill-opacity:0.0; 
stroke:#000000; stroke-width:78.7402; stroke-opacity:1; 
stroke-linecap:round; stroke-linejoin:round;">
<path d="M14216 2758
L14995 2758
" />
<path d="M14995 5317
L14212 5317
" />
<path d="M14212 2762
L14216 2758
" />
<path d="M14212 5317
L14212 2762
" />
<path d="M6657 4038
L6731 4038
" />
<path d="M11849 5597
L12259 6006
" />
<path d="M12259 6006
L13818 6006
" />
<path d="M13818 6006
L14212 5613
" />
<path d="M14212 5613
L14212 5317
" />
<path d="M14999 5313
L14995 5317
" />
<path d="M14999 4432
L14999 5313
" />
<path d="M12050 5396
L11849 5597
" />
<path d="M12050 4628
L12050 5396
" />
<path d="M6657 4038
L11456 4038
" />
<path d="M12046 4628
L12050 4628
" />
<path d="M11456 4038
L12046 4628
" />
<path d="M10849 6597
L11849 5597
" />
<path d="M6637 5317
L6657 5298
" />
</g>
<g style="fill:#000000; fill-opacity:0.0; 
stroke:#000000; stroke-width:98.4252; stroke-opacity:1; 
stroke-linecap:round; stroke-linejoin:round;">
<path d="M6377 5317
L6657 5038
" />
<path d="M5936 5317
L6377 5317
" />
</g>
<g style="fill:#000000; fill-opacity:0.0; 
stroke:#000000; stroke-width:78.7402; stroke-opacity:1; 
stroke-linecap:round; stroke-linejoin:round;">
<path d="M3716 5317
L3657 5258
" />
</g>
<g style="fill:#000000; fill-opacity:0.0; 
stroke:#000000; stroke-width:98.4252; stroke-opacity:1; 
stroke-linecap:round; stroke-linejoin:round;">
<path d="M3936 5317
L3657 5038
" />
<path d="M4385 5317
L3936 5317
" />
</g>
<g style="fill:#000000; fill-opacity:0.0; 
stroke:#000000; stroke-width:78.7402; stroke-opacity:1; 
stroke-linecap:round; stroke-linejoin:round;">
<path d="M6597 2758
L6657 2699
" />
</g>
<g style="fill:#000000; fill-opacity:0.0; 
stroke:#000000; stroke-width:98.4252; stroke-opacity:1; 
stroke-linecap:round; stroke-linejoin:round;">
<path d="M6377 2758
L6657 3038
" />
<path d="M5936 2758
L6377 2758
" />
</g>
<g style="fill:#000000; fill-opacity:0.0; 
stroke:#000000; stroke-width:393.701; stroke-opacity:1; 
stroke-linecap:round; stroke-linejoin:round;">
<path d="M7849 5597
L7849 6597
" />
</g>
<g style="fill:#000000; fill-opacity:0.0; 
stroke:#000000; stroke-width:78.7402; stroke-opacity:1; 
stroke-linecap:round; stroke-linejoin:round;">
<path d="M9849 5597
L10849 5597
" />
<path d="M11649 4798
L11649 4628
" />
<path d="M10849 5597
L11649 4798
" />
<path d="M15712 4432
L16105 4038
" />
<path d="M15401 4432
L15712 4432
" />
<path d="M13125 2758
L13105 2739
" />
</g>
<g style="fill:#000000; fill-opacity:0.0; 
stroke:#000000; stroke-width:98.4252; stroke-opacity:1; 
stroke-linecap:round; stroke-linejoin:round;">
<path d="M13385 2758
L13105 3038
" />
<path d="M13814 2758
L13385 2758
" />
</g>
<g style="fill:#000000; fill-opacity:0.0; 
stroke:#000000; stroke-width:78.7402; stroke-opacity:1; 
stroke-linecap:round; stroke-linejoin:round;">
<path d="M16046 2758
L16105 2699
" />
</g>
<g style="fill:#000000; fill-opacity:0.0; 
stroke:#000000; stroke-width:98.4252; stroke-opacity:1; 
stroke-linecap:round; stroke-linejoin:round;">
<path d="M15826 2758
L16105 3038
" />
<path d="M15397 2758
L15826 2758
" />
</g>
<g style="fill:#000000; fill-opacity:0.0; 
stroke:#000000; stroke-width:78.7402; stroke-opacity:1; 
stroke-linecap:round; stroke-linejoin:round;">
<path d="M16086 5317
L16105 5298
" />
</g>
<g style="fill:#000000; fill-opacity:0.0; 
stroke:#000000; stroke-width:98.4252; stroke-opacity:1; 
stroke-linecap:round; stroke-linejoin:round;">
<path d="M15826 5317
L16105 5038
" />
<path d="M15397 5317
L15826 5317
" />
</g>
<g style="fill:#000000; fill-opacity:0.0; 
stroke:#000000; stroke-width:78.7402; stroke-opacity:1; 
stroke-linecap:round; stroke-linejoin:round;">
<path d="M13164 5317
L13105 5258
" />
</g>
<g style="fill:#000000; fill-opacity:0.0; 
stroke:#000000; stroke-width:98.4252; stroke-opacity:1; 
stroke-linecap:round; stroke-linejoin:round;">
<path d="M13385 5317
L13105 5038
" />
<path d="M13810 5317
L13385 5317
" />
</g>
<g style="fill:#000000; fill-opacity:0.0; 
stroke:#000000; stroke-width:78.7402; stroke-opacity:1; 
stroke-linecap:round; stroke-linejoin:round;">
<path d="M3676 2758
L3657 2739
" />
</g>
<g style="fill:#000000; fill-opacity:0.0; 
stroke:#000000; stroke-width:98.4252; stroke-opacity:1; 
stroke-linecap:round; stroke-linejoin:round;">
<path d="M3936 2758
L3657 3038
" />
<path d="M4385 2758
L3936 2758
" />
</g>
<g >
</g>
<g style="fill:#000000; fill-opacity:0.0; 
stroke:#000000; stroke-width:98.4252; stroke-opacity:1; 
stroke-linecap:round; stroke-linejoin:round;">
<g >
</g>
<g style="fill:#000000; fill-opacity:1.0; 
stroke:#000000; stroke-width:100; stroke-opacity:1; 
stroke-linecap:round; stroke-linejoin:round;">
<path style="fill:#000000; fill-opacity:1.0; 
stroke:#000000; stroke-width:100; stroke-opacity:1; 
stroke-linecap:round; stroke-linejoin:round;fill-rule:evenodd;"
d="M 17267.1,766.191
17365.4,795.88
17456.1,844.103
17535.7,909.024
17601.2,988.169
17650.1,1078.53
17680.4,1176.65
17692.4,1290.78
17692.4,2476.35
17696.2,2514.52
17711.1,2563.5
17735.2,2608.64
17767.7,2648.21
17807.2,2680.68
17852.4,2704.81
17901.3,2719.67
17910.8,2720.59
18172.3,2779.66
18408.9,2884.61
18620.5,3033.5
18799.2,3220.67
18938.2,3438.99
19032.1,3680.13
19077.4,3934.93
19072.3,4193.66
19017,4446.48
18913.8,4683.76
18766.3,4896.45
18580.4,5076.46
18363.1,5216.93
18120.2,5313.46
17913.3,5355.93
17901.3,5357.11
17852.4,5371.96
17807.2,5396.09
17767.7,5428.56
17735.2,5468.13
17711.1,5513.27
17696.2,5562.25
17692.4,5600.43
17692.4,6781.58
17681.2,6896.52
17651.5,6994.85
17603.3,7085.55
17538.3,7165.15
17459.2,7230.63
17368.8,7279.48
17270.7,7309.85
17156.6,7321.85
2610.66,7321.85
2495.73,7310.58
2397.39,7280.89
2306.7,7232.67
2227.1,7167.75
2161.62,7088.6
2112.77,6998.25
2082.39,6900.12
2070.4,6785.99
2070.4,5600.43
2066.64,5562.25
2051.78,5513.27
2027.65,5468.13
1995.18,5428.56
1955.61,5396.09
1910.47,5371.96
1861.49,5357.11
1852.07,5356.18
1590.51,5297.11
1353.96,5192.17
1142.3,5043.27
963.596,4856.1
824.647,4637.79
730.748,4396.64
685.478,4141.84
689.706,3926.52
871.578,3926.52
871.578,4150.26
915.228,4369.69
1000.85,4576.4
1125.15,4762.43
1283.36,4920.64
1469.39,5044.94
1676.1,5130.56
1895.54,5174.21
2119.27,5174.21
2338.71,5130.56
2545.42,5044.94
2731.45,4920.64
2889.66,4762.43
3013.96,4576.4
3067.64,4446.8
3087.61,4484.16
3132.11,4538.39
3087.61,4592.61
3046.21,4670.07
3020.71,4754.12
3012.1,4841.54
3012.1,5235.24
3020.71,5322.65
3046.21,5406.7
3087.61,5484.16
3143.34,5552.06
3211.23,5607.78
3288.7,5649.19
3372.75,5674.69
3460.16,5683.3
3853.86,5683.3
3941.27,5674.69
4025.33,5649.19
4085.31,5617.13
4132.74,5617.13
4160.05,5639.54
4213.01,5667.85
4270.48,5685.28
4330.24,5691.17
4440.48,5691.17
4500.24,5685.28
4557.7,5667.85
4610.66,5639.54
4657.08,5601.45
4695.18,5555.03
4723.49,5502.07
4740.92,5444.6
4746.8,5384.84
4746.8,5250.98
4740.92,5191.22
4723.49,5133.76
4695.18,5080.8
4657.08,5034.38
4610.66,4996.28
4557.7,4967.97
4500.24,4950.54
4440.48,4944.66
4330.24,4944.66
4301.92,4947.45
4301.92,4841.54
4293.31,4754.12
4267.81,4670.07
4226.41,4592.61
4181.91,4538.39
4226.41,4484.16
4267.81,4406.7
4293.31,4322.65
4301.92,4235.24
4301.92,3841.54
4293.31,3754.12
4267.81,3670.07
4232.71,3604.4
4259.59,3571.65
4282.8,3528.22
4297.09,3481.1
4301.92,3432.09
4301.92,3129.33
4330.24,3132.11
4440.48,3132.11
4500.24,3126.23
4557.7,3108.8
4610.66,3080.49
4657.08,3042.39
4695.18,2995.97
4723.49,2943.01
4740.92,2885.55
4746.8,2825.79
4746.8,2691.93
5575.09,2691.93
5575.09,2825.79
5580.98,2885.55
5598.41,2943.01
5626.72,2995.97
5664.81,3042.39
5711.23,3080.49
5764.19,3108.8
5821.66,3126.23
5881.42,3132.11
5991.66,3132.11
6012.1,3130.1
6012.1,3235.24
6020.71,3322.65
6046.21,3406.7
6087.61,3484.16
6132.11,3538.39
6087.61,3592.61
6046.21,3670.07
6020.71,3754.12
6012.1,3841.54
6012.1,4235.24
6020.71,4322.65
6046.21,4406.7
6087.61,4484.16
6132.11,4538.39
6087.61,4592.61
6046.21,4670.07
6020.71,4754.12
6012.1,4841.54
6012.1,4946.67
5991.66,4944.66
5881.42,4944.66
5821.66,4950.54
5764.19,4967.97
5711.23,4996.28
5664.81,5034.38
5626.72,5080.8
5598.41,5133.76
5580.98,5191.22
5575.09,5250.98
5575.09,5384.84
5580.98,5444.6
5598.41,5502.07
5626.72,5555.03
5664.81,5601.45
5711.23,5639.54
5764.19,5667.85
5821.66,5685.28
5881.42,5691.17
5991.66,5691.17
6051.42,5685.28
6108.88,5667.85
6161.84,5639.54
6189.16,5617.13
6228.71,5617.13
6288.7,5649.19
6372.75,5674.69
6460.16,5683.3
6853.86,5683.3
6941.27,5674.69
7025.33,5649.19
7102.79,5607.78
7170.69,5552.06
7180.7,5539.86
7265.28,5539.86
7265.28,5655.02
7287.75,5767.98
7331.82,5874.37
7395.8,5970.13
7403.07,5977.4
7403.07,6217.48
7395.8,6224.75
7331.82,6320.51
7287.75,6426.91
7265.28,6539.86
7265.28,6655.02
7287.75,6767.98
7331.82,6874.37
7395.8,6970.13
7477.24,7051.56
7572.99,7115.55
7679.39,7159.62
7792.34,7182.09
7907.51,7182.09
8020.46,7159.62
8126.86,7115.55
8222.61,7051.56
8304.05,6970.13
8368.03,6874.37
8412.1,6767.98
8434.57,6655.02
8434.57,6539.86
8412.1,6426.91
8368.03,6320.51
8304.05,6224.75
8296.78,6217.48
8296.78,5977.4
8304.05,5970.13
8368.03,5874.37
8412.1,5767.98
8434.57,5655.02
8434.57,5539.86
8412.1,5426.91
8368.03,5320.51
8304.05,5224.75
8222.61,5143.32
8126.86,5079.33
8020.46,5035.26
7907.51,5012.8
7792.34,5012.8
7679.39,5035.26
7572.99,5079.33
7477.24,5143.32
7395.8,5224.75
7331.82,5320.51
7287.75,5426.91
7265.28,5539.86
7180.7,5539.86
7226.41,5484.16
7267.81,5406.7
7293.31,5322.65
7301.92,5235.24
7301.92,4841.54
7293.31,4754.12
7267.81,4670.07
7226.41,4592.61
7181.91,4538.39
7226.41,4484.16
7267.81,4406.7
7291.76,4327.76
11336.4,4327.76
11366.7,4358.07
11342.9,4387.01
11314.8,4439.63
11297.5,4496.72
11291.6,4556.1
11291.6,4701.77
11295.6,4742.5
11005.8,5032.34
10907.5,5012.8
10792.3,5012.8
10679.4,5035.26
10573,5079.33
10477.2,5143.32
10395.8,5224.75
10349.9,5293.41
10304,5224.75
10222.6,5143.32
10126.9,5079.33
10020.5,5035.26
9907.51,5012.8
9792.34,5012.8
9679.39,5035.26
9572.99,5079.33
9477.24,5143.32
9395.8,5224.75
9331.82,5320.51
9287.75,5426.91
9265.28,5539.86
9265.28,5655.02
9287.75,5767.98
9331.82,5874.37
9395.8,5970.13
9477.24,6051.56
9545.89,6097.44
9477.24,6143.32
9395.8,6224.75
9331.82,6320.51
9287.75,6426.91
9265.28,6539.86
9265.28,6655.02
9287.75,6767.98
9331.82,6874.37
9395.8,6970.13
9477.24,7051.56
9572.99,7115.55
9679.39,7159.62
9792.34,7182.09
9907.51,7182.09
10020.5,7159.62
10126.9,7115.55
10222.6,7051.56
10304,6970.13
10349.9,6901.47
10395.8,6970.13
10477.2,7051.56
10573,7115.55
10679.4,7159.62
10792.3,7182.09
10907.5,7182.09
11020.5,7159.62
11126.9,7115.55
11222.6,7051.56
11304,6970.13
11368,6874.37
11412.1,6767.98
11434.6,6655.02
11434.6,6539.86
11415,6441.58
11694.1,6162.54
11792.3,6182.09
11907.5,6182.09
12005.8,6162.54
12044.7,6201.45
12053.8,6212.5
12097.8,6248.66
12148.1,6275.53
12186.1,6287.05
12202.6,6292.07
12208.2,6292.62
12245.2,6296.26
12245.2,6296.26
12259.4,6297.66
12273.6,6296.26
13804.2,6296.26
13818.4,6297.66
13832.6,6296.26
13875.2,6292.07
13929.7,6275.53
13980,6248.66
14024,6212.5
14033.1,6201.45
14406.7,5827.85
14417.7,5818.79
14426.8,5807.75
14426.8,5807.75
14453.9,5774.73
14480.8,5724.46
14497.3,5669.92
14502.9,5613.19
14502.3,5607.28
14728.8,5607.28
14773.4,5643.81
14826,5671.94
14883.1,5689.26
14942.4,5695.11
15048.7,5695.11
15108.1,5689.26
15165.2,5671.94
15196.4,5655.28
15227.5,5671.94
15284.6,5689.26
15344,5695.11
15450.3,5695.11
15509.7,5689.26
15566.8,5671.94
15619.4,5643.81
15651.9,5617.13
15677.5,5617.13
15737.5,5649.19
15821.6,5674.69
15909,5683.3
16302.7,5683.3
16390.1,5674.69
16474.1,5649.19
16551.6,5607.78
16619.5,5552.06
16675.2,5484.16
16716.6,5406.7
16742.1,5322.65
16750.7,5235.24
16750.7,4841.54
16742.1,4754.12
16716.6,4670.07
16675.2,4592.61
16630.7,4538.39
16675.2,4484.16
16695.2,4446.8
16748.9,4576.4
16873.2,4762.43
17031.4,4920.64
17217.4,5044.94
17424.1,5130.56
17643.6,5174.21
17867.3,5174.21
18086.7,5130.56
18293.5,5044.94
18479.5,4920.64
18637.7,4762.43
18762,4576.4
18847.6,4369.69
18891.3,4150.26
18891.3,3926.52
18847.6,3707.08
18762,3500.37
18637.7,3314.34
18479.5,3156.13
18293.5,3031.83
18086.7,2946.21
17867.3,2902.56
17643.6,2902.56
17424.1,2946.21
17217.4,3031.83
17031.4,3156.13
16873.2,3314.34
16748.9,3500.37
16695.2,3629.97
16675.2,3592.61
16630.7,3538.39
16675.2,3484.16
16716.6,3406.7
16742.1,3322.65
16750.7,3235.24
16750.7,2841.54
16742.1,2754.12
16716.6,2670.07
16675.2,2592.61
16619.5,2524.71
16551.6,2468.99
16474.1,2427.58
16390.1,2402.09
16302.7,2393.48
15909,2393.48
15821.6,2402.09
15737.5,2427.58
15677.5,2459.65
15651.9,2459.65
15619.4,2432.96
15566.8,2404.83
15509.7,2387.51
15450.3,2381.66
15344,2381.66
15284.6,2387.51
15227.5,2404.83
15196.4,2421.49
15165.2,2404.83
15108.1,2387.51
15048.7,2381.66
14942.4,2381.66
14883.1,2387.51
14826,2404.83
14773.4,2432.96
14728.8,2469.49
14482.8,2469.49
14438.3,2432.96
14385.7,2404.83
14328.6,2387.51
14269.2,2381.66
14162.9,2381.66
14103.5,2387.51
14046.4,2404.83
14015.3,2421.49
13984.1,2404.83
13927,2387.51
13867.6,2381.66
13761.3,2381.66
13702,2387.51
13644.9,2404.83
13613,2421.87
13595.7,2412.6
13548.5,2398.3
13499.5,2393.48
12712.1,2393.48
12663.1,2398.3
12616,2412.6
12572.6,2435.81
12534.5,2467.05
12503.3,2505.12
12480,2548.55
12465.7,2595.68
12460.9,2644.69
12460.9,3432.09
12465.7,3481.1
12480,3528.22
12503.3,3571.65
12530.1,3604.4
12495,3670.07
12469.5,3754.12
12460.9,3841.54
12460.9,4235.24
12469.5,4322.65
12495,4406.7
12536.4,4484.16
12580.9,4538.39
12536.4,4592.61
12495,4670.07
12469.5,4754.12
12460.9,4841.54
12460.9,5235.24
12469.5,5322.65
12495,5406.7
12536.4,5484.16
12592.2,5552.06
12660.1,5607.78
12737.5,5649.19
12821.6,5674.69
12909,5683.3
13302.7,5683.3
13390.1,5674.69
13474.1,5649.19
13534.1,5617.13
13555.8,5617.13
13588.3,5643.81
13640.9,5671.94
13698,5689.26
13724.2,5691.84
13698.6,5717.52
12422.1,5717.52
12434.6,5655.02
12434.6,5539.86
12412.1,5426.91
12368,5320.51
12340.1,5278.68
12340.1,4891.39
12356.9,4870.86
12385.1,4818.24
12402.4,4761.15
12408.2,4701.77
12408.2,4556.1
12402.4,4496.72
12385.1,4439.63
12356.9,4387.01
12319.1,4340.89
12273,4303.04
12220.3,4274.91
12163.2,4257.59
12103.9,4251.74
12078.8,4251.74
11670.9,3843.82
11661.8,3832.78
11617.8,3796.62
11567.5,3769.75
11513,3753.2
11470.4,3749.02
11456.2,3747.62
11442,3749.02
7291.76,3749.02
7267.81,3670.07
7226.41,3592.61
7181.91,3538.39
7226.41,3484.16
7267.81,3406.7
7293.31,3322.65
7301.92,3235.24
7301.92,2841.54
7293.31,2754.12
7267.81,2670.07
7228.78,2597.03
8253.47,2597.03
8253.47,2723.83
8278.21,2848.19
8326.73,2965.34
8397.17,3070.77
8486.83,3160.43
8592.26,3230.87
8709.41,3279.4
8833.77,3304.13
8960.57,3304.13
9084.93,3279.4
9202.08,3230.87
9307.5,3160.43
9397.16,3070.77
9467.61,2965.34
9516.13,2848.19
9540.87,2723.83
9540.87,2597.03
10222,2597.03
10222,2723.83
10246.7,2848.19
10295.2,2965.34
10365.7,3070.77
10455.3,3160.43
10560.8,3230.87
10677.9,3279.4
10802.3,3304.13
10929.1,3304.13
11053.4,3279.4
11170.6,3230.87
11276,3160.43
11365.7,3070.77
11436.1,2965.34
11484.6,2848.19
11509.4,2723.83
11509.4,2597.03
11484.6,2472.67
11436.1,2355.53
11365.7,2250.1
11276,2160.44
11170.6,2089.99
11053.4,2041.47
10929.1,2016.73
10802.3,2016.73
10677.9,2041.47
10560.8,2089.99
10455.3,2160.44
10365.7,2250.1
10295.2,2355.53
10246.7,2472.67
10222,2597.03
9540.87,2597.03
9516.13,2472.67
9467.61,2355.53
9397.16,2250.1
9307.5,2160.44
9202.08,2089.99
9084.93,2041.47
8960.57,2016.73
8833.77,2016.73
8709.41,2041.47
8592.26,2089.99
8486.83,2160.44
8397.17,2250.1
8326.73,2355.53
8278.21,2472.67
8253.47,2597.03
7228.78,2597.03
7226.41,2592.61
7170.69,2524.71
7102.79,2468.99
7025.33,2427.58
6941.27,2402.09
6853.86,2393.48
6460.16,2393.48
6372.75,2402.09
6288.7,2427.58
6228.71,2459.65
6189.16,2459.65
6161.84,2437.23
6108.88,2408.92
6051.42,2391.49
5991.66,2385.6
5881.42,2385.6
5821.66,2391.49
5764.19,2408.92
5711.23,2437.23
5664.81,2475.32
5626.72,2521.74
5598.41,2574.7
5580.98,2632.17
5575.09,2691.93
4746.8,2691.93
4740.92,2632.17
4723.49,2574.7
4695.18,2521.74
4657.08,2475.32
4610.66,2437.23
4557.7,2408.92
4500.24,2391.49
4440.48,2385.6
4330.24,2385.6
4270.48,2391.49
4213.01,2408.92
4176.49,2428.44
4146.85,2412.6
4099.72,2398.3
4050.71,2393.48
3263.31,2393.48
3214.3,2398.3
3167.18,2412.6
3123.75,2435.81
3085.68,2467.05
3054.44,2505.12
3031.22,2548.55
3016.93,2595.68
3012.1,2644.69
3012.1,3432.09
3016.93,3481.1
3031.22,3528.22
3054.44,3571.65
3081.31,3604.4
3067.64,3629.97
3013.96,3500.37
2889.66,3314.34
2731.45,3156.13
2545.42,3031.83
2338.71,2946.21
2119.27,2902.56
1895.54,2902.56
1676.1,2946.21
1469.39,3031.83
1283.36,3156.13
1125.15,3314.34
1000.85,3500.37
915.228,3707.08
871.578,3926.52
689.706,3926.52
690.558,3883.11
745.797,3630.29
849.091,3393.01
996.504,3180.32
1182.42,3000.31
1399.76,2859.84
1642.64,2763.31
1849.52,2720.84
1861.49,2719.67
1910.47,2704.81
1955.61,2680.68
1995.18,2648.21
2027.65,2608.64
2051.78,2563.5
2066.64,2514.52
2070.4,2476.35
2070.4,1295.19
2081.67,1180.25
2111.36,1081.92
2159.58,991.224
2224.5,911.622
2303.65,846.147
2394,797.292
2492.13,766.917
2606.26,754.921
17152.2,754.921
Z" /> 
</g>
</g>
</g>
<g style="fill:#FFFFFF; fill-opacity:1.0; 
stroke:#FFFFFF; stroke-width:100; stroke-opacity:1; 
stroke-linecap:round; stroke-linejoin:round;">
</g>
<g style="fill:#FFFFFF; fill-opacity:1.0; 
stroke:#FFFFFF; stroke-width:0; stroke-opacity:1; 
stroke-linecap:round; stroke-linejoin:round;">
<circle cx="7849.92" cy="5597.44" r="196.85" /> 
</g>
<g style="fill:#FFFFFF; fill-opacity:1.0; 
stroke:#FFFFFF; stroke-width:39.3701; stroke-opacity:1; 
stroke-linecap:round; stroke-linejoin:round;">
</g>
<g style="fill:#FFFFFF; fill-opacity:1.0; 
stroke:#FFFFFF; stroke-width:0; stroke-opacity:1; 
stroke-linecap:round; stroke-linejoin:round;">
<circle cx="7849.92" cy="6597.44" r="196.85" /> 
</g>
<g style="fill:#FFFFFF; fill-opacity:1.0; 
stroke:#FFFFFF; stroke-width:39.3701; stroke-opacity:1; 
stroke-linecap:round; stroke-linejoin:round;">
</g>
<g style="fill:#FFFFFF; fill-opacity:1.0; 
stroke:#FFFFFF; stroke-width:0; stroke-opacity:1; 
stroke-linecap:round; stroke-linejoin:round;">
<circle cx="8849.92" cy="5597.44" r="196.85" /> 
</g>
<g style="fill:#FFFFFF; fill-opacity:1.0; 
stroke:#FFFFFF; stroke-width:39.3701; stroke-opacity:1; 
stroke-linecap:round; stroke-linejoin:round;">
</g>
<g style="fill:#FFFFFF; fill-opacity:1.0; 
stroke:#FFFFFF; stroke-width:0; stroke-opacity:1; 
stroke-linecap:round; stroke-linejoin:round;">
<circle cx="8849.92" cy="6597.44" r="196.85" /> 
</g>
<g style="fill:#FFFFFF; fill-opacity:1.0; 
stroke:#FFFFFF; stroke-width:39.3701; stroke-opacity:1; 
stroke-linecap:round; stroke-linejoin:round;">
</g>
<g style="fill:#FFFFFF; fill-opacity:1.0; 
stroke:#FFFFFF; stroke-width:0; stroke-opacity:1; 
stroke-linecap:round; stroke-linejoin:round;">
<circle cx="9849.92" cy="5597.44" r="196.85" /> 
</g>
<g style="fill:#FFFFFF; fill-opacity:1.0; 
stroke:#FFFFFF; stroke-width:39.3701; stroke-opacity:1; 
stroke-linecap:round; stroke-linejoin:round;">
</g>
<g style="fill:#FFFFFF; fill-opacity:1.0; 
stroke:#FFFFFF; stroke-width:0; stroke-opacity:1; 
stroke-linecap:round; stroke-linejoin:round;">
<circle cx="9849.92" cy="6597.44" r="196.85" /> 
</g>
<g style="fill:#FFFFFF; fill-opacity:1.0; 
stroke:#FFFFFF; stroke-width:39.3701; stroke-opacity:1; 
stroke-linecap:round; stroke-linejoin:round;">
</g>
<g style="fill:#FFFFFF; fill-opacity:1.0; 
stroke:#FFFFFF; stroke-width:0; stroke-opacity:1; 
stroke-linecap:round; stroke-linejoin:round;">
<circle cx="10849.9" cy="5597.44" r="196.85" /> 
</g>
<g style="fill:#FFFFFF; fill-opacity:1.0; 
stroke:#FFFFFF; stroke-width:39.3701; stroke-opacity:1; 
stroke-linecap:round; stroke-linejoin:round;">
</g>
<g style="fill:#FFFFFF; fill-opacity:1.0; 
stroke:#FFFFFF; stroke-width:0; stroke-opacity:1; 
stroke-linecap:round; stroke-linejoin:round;">
<circle cx="10849.9" cy="6597.44" r="196.85" /> 
</g>
<g style="fill:#FFFFFF; fill-opacity:1.0; 
stroke:#FFFFFF; stroke-width:39.3701; stroke-opacity:1; 
stroke-linecap:round; stroke-linejoin:round;">
</g>
<g style="fill:#FFFFFF; fill-opacity:1.0; 
stroke:#FFFFFF; stroke-width:0; stroke-opacity:1; 
stroke-linecap:round; stroke-linejoin:round;">
<circle cx="11849.9" cy="5597.44" r="196.85" /> 
</g>
<g style="fill:#FFFFFF; fill-opacity:1.0; 
stroke:#FFFFFF; stroke-width:39.3701; stroke-opacity:1; 
stroke-linecap:round; stroke-linejoin:round;">
</g>
<g style="fill:#FFFFFF; fill-opacity:1.0; 
stroke:#FFFFFF; stroke-width:0; stroke-opacity:1; 
stroke-linecap:round; stroke-linejoin:round;">
<circle cx="11849.9" cy="6597.44" r="196.85" /> 
</g>
<g style="fill:#FFFFFF; fill-opacity:1.0; 
stroke:#FFFFFF; stroke-width:39.3701; stroke-opacity:1; 
stroke-linecap:round; stroke-linejoin:round;">
</g>
<g style="fill:#FFFFFF; fill-opacity:1.0; 
stroke:#FFFFFF; stroke-width:0; stroke-opacity:1; 
stroke-linecap:round; stroke-linejoin:round;">
<circle cx="17755.4" cy="4038.39" r="885.827" /> 
</g>
<g style="fill:#FFFFFF; fill-opacity:1.0; 
stroke:#FFFFFF; stroke-width:39.3701; stroke-opacity:1; 
stroke-linecap:round; stroke-linejoin:round;">
</g>
<g style="fill:#FFFFFF; fill-opacity:1.0; 
stroke:#FFFFFF; stroke-width:0; stroke-opacity:1; 
stroke-linecap:round; stroke-linejoin:round;">
<circle cx="2007.41" cy="4038.39" r="885.827" /> 
</g>
<g style="fill:#FFFFFF; fill-opacity:1.0; 
stroke:#FFFFFF; stroke-width:39.3701; stroke-opacity:1; 
stroke-linecap:round; stroke-linejoin:round;">
</g>
<g style="fill:#FFFFFF; fill-opacity:1.0; 
stroke:#FFFFFF; stroke-width:0; stroke-opacity:1; 
stroke-linecap:round; stroke-linejoin:round;">
<circle cx="10865.7" cy="2660.43" r="157.48" /> 
</g>
<g style="fill:#FFFFFF; fill-opacity:1.0; 
stroke:#FFFFFF; stroke-width:39.3701; stroke-opacity:1; 
stroke-linecap:round; stroke-linejoin:round;">
</g>
<g style="fill:#FFFFFF; fill-opacity:1.0; 
stroke:#FFFFFF; stroke-width:0; stroke-opacity:1; 
stroke-linecap:round; stroke-linejoin:round;">
<circle cx="8897.17" cy="2660.43" r="157.48" /> 
</g>
<g style="fill:#FFFFFF; fill-opacity:1.0; 
stroke:#FFFFFF; stroke-width:39.3701; stroke-opacity:1; 
stroke-linecap:round; stroke-linejoin:round;">
</g>
<g style="fill:#FFFFFF; fill-opacity:1.0; 
stroke:#FFFFFF; stroke-width:0; stroke-opacity:1; 
stroke-linecap:round; stroke-linejoin:round;">
<circle cx="13105.8" cy="3038.39" r="157.48" /> 
</g>
<g style="fill:#FFFFFF; fill-opacity:1.0; 
stroke:#FFFFFF; stroke-width:39.3701; stroke-opacity:1; 
stroke-linecap:round; stroke-linejoin:round;">
</g>
<g style="fill:#FFFFFF; fill-opacity:1.0; 
stroke:#FFFFFF; stroke-width:0; stroke-opacity:1; 
stroke-linecap:round; stroke-linejoin:round;">
<circle cx="16105.8" cy="3038.39" r="157.48" /> 
</g>
<g style="fill:#FFFFFF; fill-opacity:1.0; 
stroke:#FFFFFF; stroke-width:39.3701; stroke-opacity:1; 
stroke-linecap:round; stroke-linejoin:round;">
</g>
<g style="fill:#FFFFFF; fill-opacity:1.0; 
stroke:#FFFFFF; stroke-width:0; stroke-opacity:1; 
stroke-linecap:round; stroke-linejoin:round;">
<circle cx="16105.8" cy="4038.39" r="157.48" /> 
</g>
<g style="fill:#FFFFFF; fill-opacity:1.0; 
stroke:#FFFFFF; stroke-width:39.3701; stroke-opacity:1; 
stroke-linecap:round; stroke-linejoin:round;">
</g>
<g style="fill:#FFFFFF; fill-opacity:1.0; 
stroke:#FFFFFF; stroke-width:0; stroke-opacity:1; 
stroke-linecap:round; stroke-linejoin:round;">
<circle cx="16105.8" cy="5038.39" r="157.48" /> 
</g>
<g style="fill:#FFFFFF; fill-opacity:1.0; 
stroke:#FFFFFF; stroke-width:39.3701; stroke-opacity:1; 
stroke-linecap:round; stroke-linejoin:round;">
</g>
<g style="fill:#FFFFFF; fill-opacity:1.0; 
stroke:#FFFFFF; stroke-width:0; stroke-opacity:1; 
stroke-linecap:round; stroke-linejoin:round;">
<circle cx="13105.8" cy="5038.39" r="157.48" /> 
</g>
<g style="fill:#FFFFFF; fill-opacity:1.0; 
stroke:#FFFFFF; stroke-width:39.3701; stroke-opacity:1; 
stroke-linecap:round; stroke-linejoin:round;">
</g>
<g style="fill:#FFFFFF; fill-opacity:1.0; 
stroke:#FFFFFF; stroke-width:0; stroke-opacity:1; 
stroke-linecap:round; stroke-linejoin:round;">
<circle cx="13105.8" cy="4038.39" r="157.48" /> 
</g>
<g style="fill:#FFFFFF; fill-opacity:1.0; 
stroke:#FFFFFF; stroke-width:39.3701; stroke-opacity:1; 
stroke-linecap:round; stroke-linejoin:round;">
</g>
<g style="fill:#FFFFFF; fill-opacity:1.0; 
stroke:#FFFFFF; stroke-width:0; stroke-opacity:1; 
stroke-linecap:round; stroke-linejoin:round;">
<circle cx="3657.01" cy="3038.39" r="157.48" /> 
</g>
<g style="fill:#FFFFFF; fill-opacity:1.0; 
stroke:#FFFFFF; stroke-width:39.3701; stroke-opacity:1; 
stroke-linecap:round; stroke-linejoin:round;">
</g>
<g style="fill:#FFFFFF; fill-opacity:1.0; 
stroke:#FFFFFF; stroke-width:0; stroke-opacity:1; 
stroke-linecap:round; stroke-linejoin:round;">
<circle cx="6657.01" cy="3038.39" r="157.48" /> 
</g>
<g style="fill:#FFFFFF; fill-opacity:1.0; 
stroke:#FFFFFF; stroke-width:39.3701; stroke-opacity:1; 
stroke-linecap:round; stroke-linejoin:round;">
</g>
<g style="fill:#FFFFFF; fill-opacity:1.0; 
stroke:#FFFFFF; stroke-width:0; stroke-opacity:1; 
stroke-linecap:round; stroke-linejoin:round;">
<circle cx="6657.01" cy="4038.39" r="157.48" /> 
</g>
<g style="fill:#FFFFFF; fill-opacity:1.0; 
stroke:#FFFFFF; stroke-width:39.3701; stroke-opacity:1; 
stroke-linecap:round; stroke-linejoin:round;">
</g>
<g style="fill:#FFFFFF; fill-opacity:1.0; 
stroke:#FFFFFF; stroke-width:0; stroke-opacity:1; 
stroke-linecap:round; stroke-linejoin:round;">
<circle cx="6657.01" cy="5038.39" r="157.48" /> 
</g>
<g style="fill:#FFFFFF; fill-opacity:1.0; 
stroke:#FFFFFF; stroke-width:39.3701; stroke-opacity:1; 
stroke-linecap:round; stroke-linejoin:round;">
</g>
<g style="fill:#FFFFFF; fill-opacity:1.0; 
stroke:#FFFFFF; stroke-width:0; stroke-opacity:1; 
stroke-linecap:round; stroke-linejoin:round;">
<circle cx="3657.01" cy="5038.39" r="157.48" /> 
</g>
<g style="fill:#FFFFFF; fill-opacity:1.0; 
stroke:#FFFFFF; stroke-width:39.3701; stroke-opacity:1; 
stroke-linecap:round; stroke-linejoin:round;">
</g>
<g style="fill:#FFFFFF; fill-opacity:1.0; 
stroke:#FFFFFF; stroke-width:0; stroke-opacity:1; 
stroke-linecap:round; stroke-linejoin:round;">
<circle cx="3657.01" cy="4038.39" r="157.48" /> 
</g>
<g style="fill:#FFFFFF; fill-opacity:1.0; 
stroke:#FFFFFF; stroke-width:39.3701; stroke-opacity:1; 
stroke-linecap:round; stroke-linejoin:round;">
</g>
<g style="fill:#000000; fill-opacity:1.0; 
stroke:#000000; stroke-width:39.3701; stroke-opacity:1; 
stroke-linecap:round; stroke-linejoin:round;">
</g>
<g style="fill:#000000; fill-opacity:1.0; 
stroke:#000000; stroke-width:19.685; stroke-opacity:1; 
stroke-linecap:round; stroke-linejoin:round;">
</g>
<g style="fill:#000000; fill-opacity:0.0; 
stroke:#000000; stroke-width:19.685; stroke-opacity:1; 
stroke-linecap:round; stroke-linejoin:round;">
<path d="M1810 6794
L1810 5613
" />
<path d="M1810 1282
L1810 2463
" />
<path d="M17952 5613
L17952 6794
" />
<path d="M17952 1282
L17952 2463
" />
<path d="M17952.3 5613.19 A1587.06 1587.06 0.0 0 0 17952.3 2463.58" />
<path d="M1810.55 2463.58 A1587.06 1587.06 0.0 0 0 1810.56 5613.19" />
<path d="M17164 7581
L2597 7581
" />
<path d="M2597 495
L17164 495
" />
<path d="M17952.3 1282.48 A787.402 787.402 0.0 0 0 17164.9 495.079" />
<path d="M17164.9 7581.69 A787.402 787.402 0.0 0 0 17952.3 6794.29" />
<path d="M1810.55 6794.29 A787.402 787.402 0.0 0 0 2597.96 7581.69" />
<path d="M2597.96 495.079 A787.402 787.402 0.0 0 0 1810.55 1282.48" />
<g >
</g>
<g >
</g>
<g >
</g>
<g >
</g>
<g >
</g>
<g >
</g>
<g >
</g>
<g >
</g>
<g >
</g>
<g >
</g>
<g >
</g>
<g >
</g>
<g >
</g>
<g >
</g>
<g >
</g>
<g >
</g>
<g >
</g>
<g >
</g>
<g >
</g>
</g> 
</svg>
