  0
SECTION
  2
HEADER
  9
$ANGBASE
  50
0.0
  9
$ANGDIR
  70
1
  9
$MEASUREMENT
  70
0
  0
ENDSEC
  0
SECTION
  2
TABLES
  0
TABLE
  2
LTYPE
  70
4
  0
LTYPE
  5
40F
  2
CONTINUOUS
  70
0
  3
Solid line
  72
65
  73
0
  40
0.0
  0
LTYPE
  5
410
  2
DASHDOT
 70
0
  3
Dash Dot ____ _ ____ _
 72
65
 73
4
 40
2.0
 49
1.25
 49
-0.25
 49
0.25
 49
-0.25
  0
LTYPE
  5
411
  2
DASHED
 70
0
  3
Dashed __ __ __ __ __
 72
65
 73
2
 40
0.75
 49
0.5
 49
-0.25
  0
LTYPE
  5
43B
  2
DOTTED
 70
0
  3
Dotted .  .  .  .
 72
65
 73
2
 40
0.2
 49
0.0
 49
-0.2
  0
ENDTAB
  0
TABLE
  2
STYLE
  70
4
  0
STYLE
  2
KICAD
  70
0
  40
0
  41
1
  42
1
  50
0
  71
0
  3
isocp.shx
  0
STYLE
  2
KICADB
  70
0
  40
0
  41
1
  42
1
  50
0
  71
0
  3
isocp.shx
  0
STYLE
  2
KICADI
  70
0
  40
0
  41
1
  42
1
  50
15
  71
0
  3
isocp.shx
  0
STYLE
  2
KICADBI
  70
0
  40
0
  41
1
  42
1
  50
15
  71
0
  3
isocp.shx
  0
ENDTAB
  0
TABLE
  2
LAYER
  70
1
  0
LAYER
  2
BLACK
  70
0
  62
7
  6
CONTINUOUS
  0
ENDTAB
  0
ENDSEC
  0
SECTION
  2
ENTITIES
0
LINE
8
BLACK
6
CONTINUOUS
10
8.20118
20
-4.69882
11
8.13425
21
-4.69882
0
LINE
8
BLACK
6
CONTINUOUS
10
8.13425
20
-4.69882
11
8.13425
21
-4.63189
0
LINE
8
BLACK
6
CONTINUOUS
10
8.13425
20
-4.63189
11
8.20118
21
-4.63189
0
LINE
8
BLACK
6
CONTINUOUS
10
8.20118
20
-4.63189
11
8.20118
21
-4.69882
0
LINE
8
BLACK
6
CONTINUOUS
10
7.80748
20
-4.69882
11
7.74055
21
-4.69882
0
LINE
8
BLACK
6
CONTINUOUS
10
7.74055
20
-4.69882
11
7.74055
21
-4.63189
0
LINE
8
BLACK
6
CONTINUOUS
10
7.74055
20
-4.63189
11
7.80748
21
-4.63189
0
LINE
8
BLACK
6
CONTINUOUS
10
7.80748
20
-4.63189
11
7.80748
21
-4.69882
0
LINE
8
BLACK
6
CONTINUOUS
10
8.79252
20
-4.69882
11
8.72559
21
-4.69882
0
LINE
8
BLACK
6
CONTINUOUS
10
8.72559
20
-4.69882
11
8.72559
21
-4.63189
0
LINE
8
BLACK
6
CONTINUOUS
10
8.72559
20
-4.63189
11
8.79252
21
-4.63189
0
LINE
8
BLACK
6
CONTINUOUS
10
8.79252
20
-4.63189
11
8.79252
21
-4.69882
0
LINE
8
BLACK
6
CONTINUOUS
10
8.27806
20
-4.63353
11
8.28445
21
-4.63637
0
LINE
8
BLACK
6
CONTINUOUS
10
8.28445
20
-4.63637
11
8.29011
21
-4.64049
0
LINE
8
BLACK
6
CONTINUOUS
10
8.29011
20
-4.64049
11
8.29479
21
-4.64568
0
LINE
8
BLACK
6
CONTINUOUS
10
8.29479
20
-4.64568
11
8.29829
21
-4.65174
0
LINE
8
BLACK
6
CONTINUOUS
10
8.29829
20
-4.65174
11
8.30045
21
-4.6584
0
LINE
8
BLACK
6
CONTINUOUS
10
8.30045
20
-4.6584
11
8.30118
21
-4.66535
0
LINE
8
BLACK
6
CONTINUOUS
10
8.30118
20
-4.66535
11
8.30045
21
-4.67231
0
LINE
8
BLACK
6
CONTINUOUS
10
8.30045
20
-4.67231
11
8.29829
21
-4.67897
0
LINE
8
BLACK
6
CONTINUOUS
10
8.29829
20
-4.67897
11
8.29479
21
-4.68502
0
LINE
8
BLACK
6
CONTINUOUS
10
8.29479
20
-4.68502
11
8.29011
21
-4.69022
0
LINE
8
BLACK
6
CONTINUOUS
10
8.29011
20
-4.69022
11
8.28445
21
-4.69434
0
LINE
8
BLACK
6
CONTINUOUS
10
8.28445
20
-4.69434
11
8.27806
21
-4.69718
0
LINE
8
BLACK
6
CONTINUOUS
10
8.27806
20
-4.69718
11
8.27121
21
-4.69864
0
LINE
8
BLACK
6
CONTINUOUS
10
8.27121
20
-4.69864
11
8.26422
21
-4.69864
0
LINE
8
BLACK
6
CONTINUOUS
10
8.26422
20
-4.69864
11
8.25738
21
-4.69718
0
LINE
8
BLACK
6
CONTINUOUS
10
8.25738
20
-4.69718
11
8.25098
21
-4.69434
0
LINE
8
BLACK
6
CONTINUOUS
10
8.25098
20
-4.69434
11
8.24532
21
-4.69022
0
LINE
8
BLACK
6
CONTINUOUS
10
8.24532
20
-4.69022
11
8.24064
21
-4.68502
0
LINE
8
BLACK
6
CONTINUOUS
10
8.24064
20
-4.68502
11
8.23715
21
-4.67897
0
LINE
8
BLACK
6
CONTINUOUS
10
8.23715
20
-4.67897
11
8.23498
21
-4.67231
0
LINE
8
BLACK
6
CONTINUOUS
10
8.23498
20
-4.67231
11
8.23425
21
-4.66535
0
LINE
8
BLACK
6
CONTINUOUS
10
8.23425
20
-4.66535
11
8.23498
21
-4.6584
0
LINE
8
BLACK
6
CONTINUOUS
10
8.23498
20
-4.6584
11
8.23715
21
-4.65174
0
LINE
8
BLACK
6
CONTINUOUS
10
8.23715
20
-4.65174
11
8.24064
21
-4.64568
0
LINE
8
BLACK
6
CONTINUOUS
10
8.24064
20
-4.64568
11
8.24532
21
-4.64049
0
LINE
8
BLACK
6
CONTINUOUS
10
8.24532
20
-4.64049
11
8.25098
21
-4.63637
0
LINE
8
BLACK
6
CONTINUOUS
10
8.25098
20
-4.63637
11
8.25738
21
-4.63353
0
LINE
8
BLACK
6
CONTINUOUS
10
8.25738
20
-4.63353
11
8.26422
21
-4.63207
0
LINE
8
BLACK
6
CONTINUOUS
10
8.26422
20
-4.63207
11
8.27121
21
-4.63207
0
LINE
8
BLACK
6
CONTINUOUS
10
8.27121
20
-4.63207
11
8.27806
21
-4.63353
0
LINE
8
BLACK
6
CONTINUOUS
10
8.37806
20
-4.63353
11
8.38445
21
-4.63637
0
LINE
8
BLACK
6
CONTINUOUS
10
8.38445
20
-4.63637
11
8.39011
21
-4.64049
0
LINE
8
BLACK
6
CONTINUOUS
10
8.39011
20
-4.64049
11
8.39479
21
-4.64568
0
LINE
8
BLACK
6
CONTINUOUS
10
8.39479
20
-4.64568
11
8.39829
21
-4.65174
0
LINE
8
BLACK
6
CONTINUOUS
10
8.39829
20
-4.65174
11
8.40045
21
-4.6584
0
LINE
8
BLACK
6
CONTINUOUS
10
8.40045
20
-4.6584
11
8.40118
21
-4.66535
0
LINE
8
BLACK
6
CONTINUOUS
10
8.40118
20
-4.66535
11
8.40045
21
-4.67231
0
LINE
8
BLACK
6
CONTINUOUS
10
8.40045
20
-4.67231
11
8.39829
21
-4.67897
0
LINE
8
BLACK
6
CONTINUOUS
10
8.39829
20
-4.67897
11
8.39479
21
-4.68502
0
LINE
8
BLACK
6
CONTINUOUS
10
8.39479
20
-4.68502
11
8.39011
21
-4.69022
0
LINE
8
BLACK
6
CONTINUOUS
10
8.39011
20
-4.69022
11
8.38445
21
-4.69434
0
LINE
8
BLACK
6
CONTINUOUS
10
8.38445
20
-4.69434
11
8.37806
21
-4.69718
0
LINE
8
BLACK
6
CONTINUOUS
10
8.37806
20
-4.69718
11
8.37121
21
-4.69864
0
LINE
8
BLACK
6
CONTINUOUS
10
8.37121
20
-4.69864
11
8.36422
21
-4.69864
0
LINE
8
BLACK
6
CONTINUOUS
10
8.36422
20
-4.69864
11
8.35738
21
-4.69718
0
LINE
8
BLACK
6
CONTINUOUS
10
8.35738
20
-4.69718
11
8.35098
21
-4.69434
0
LINE
8
BLACK
6
CONTINUOUS
10
8.35098
20
-4.69434
11
8.34532
21
-4.69022
0
LINE
8
BLACK
6
CONTINUOUS
10
8.34532
20
-4.69022
11
8.34064
21
-4.68502
0
LINE
8
BLACK
6
CONTINUOUS
10
8.34064
20
-4.68502
11
8.33715
21
-4.67897
0
LINE
8
BLACK
6
CONTINUOUS
10
8.33715
20
-4.67897
11
8.33498
21
-4.67231
0
LINE
8
BLACK
6
CONTINUOUS
10
8.33498
20
-4.67231
11
8.33425
21
-4.66535
0
LINE
8
BLACK
6
CONTINUOUS
10
8.33425
20
-4.66535
11
8.33498
21
-4.6584
0
LINE
8
BLACK
6
CONTINUOUS
10
8.33498
20
-4.6584
11
8.33715
21
-4.65174
0
LINE
8
BLACK
6
CONTINUOUS
10
8.33715
20
-4.65174
11
8.34064
21
-4.64568
0
LINE
8
BLACK
6
CONTINUOUS
10
8.34064
20
-4.64568
11
8.34532
21
-4.64049
0
LINE
8
BLACK
6
CONTINUOUS
10
8.34532
20
-4.64049
11
8.35098
21
-4.63637
0
LINE
8
BLACK
6
CONTINUOUS
10
8.35098
20
-4.63637
11
8.35738
21
-4.63353
0
LINE
8
BLACK
6
CONTINUOUS
10
8.35738
20
-4.63353
11
8.36422
21
-4.63207
0
LINE
8
BLACK
6
CONTINUOUS
10
8.36422
20
-4.63207
11
8.37121
21
-4.63207
0
LINE
8
BLACK
6
CONTINUOUS
10
8.37121
20
-4.63207
11
8.37806
21
-4.63353
0
LINE
8
BLACK
6
CONTINUOUS
10
7.88436
20
-4.63353
11
7.89075
21
-4.63637
0
LINE
8
BLACK
6
CONTINUOUS
10
7.89075
20
-4.63637
11
7.89641
21
-4.64049
0
LINE
8
BLACK
6
CONTINUOUS
10
7.89641
20
-4.64049
11
7.90109
21
-4.64568
0
LINE
8
BLACK
6
CONTINUOUS
10
7.90109
20
-4.64568
11
7.90459
21
-4.65174
0
LINE
8
BLACK
6
CONTINUOUS
10
7.90459
20
-4.65174
11
7.90675
21
-4.6584
0
LINE
8
BLACK
6
CONTINUOUS
10
7.90675
20
-4.6584
11
7.90748
21
-4.66535
0
LINE
8
BLACK
6
CONTINUOUS
10
7.90748
20
-4.66535
11
7.90675
21
-4.67231
0
LINE
8
BLACK
6
CONTINUOUS
10
7.90675
20
-4.67231
11
7.90459
21
-4.67897
0
LINE
8
BLACK
6
CONTINUOUS
10
7.90459
20
-4.67897
11
7.90109
21
-4.68502
0
LINE
8
BLACK
6
CONTINUOUS
10
7.90109
20
-4.68502
11
7.89641
21
-4.69022
0
LINE
8
BLACK
6
CONTINUOUS
10
7.89641
20
-4.69022
11
7.89075
21
-4.69434
0
LINE
8
BLACK
6
CONTINUOUS
10
7.89075
20
-4.69434
11
7.88436
21
-4.69718
0
LINE
8
BLACK
6
CONTINUOUS
10
7.88436
20
-4.69718
11
7.87751
21
-4.69864
0
LINE
8
BLACK
6
CONTINUOUS
10
7.87751
20
-4.69864
11
7.87052
21
-4.69864
0
LINE
8
BLACK
6
CONTINUOUS
10
7.87052
20
-4.69864
11
7.86367
21
-4.69718
0
LINE
8
BLACK
6
CONTINUOUS
10
7.86367
20
-4.69718
11
7.85728
21
-4.69434
0
LINE
8
BLACK
6
CONTINUOUS
10
7.85728
20
-4.69434
11
7.85162
21
-4.69022
0
LINE
8
BLACK
6
CONTINUOUS
10
7.85162
20
-4.69022
11
7.84694
21
-4.68502
0
LINE
8
BLACK
6
CONTINUOUS
10
7.84694
20
-4.68502
11
7.84344
21
-4.67897
0
LINE
8
BLACK
6
CONTINUOUS
10
7.84344
20
-4.67897
11
7.84128
21
-4.67231
0
LINE
8
BLACK
6
CONTINUOUS
10
7.84128
20
-4.67231
11
7.84055
21
-4.66535
0
LINE
8
BLACK
6
CONTINUOUS
10
7.84055
20
-4.66535
11
7.84128
21
-4.6584
0
LINE
8
BLACK
6
CONTINUOUS
10
7.84128
20
-4.6584
11
7.84344
21
-4.65174
0
LINE
8
BLACK
6
CONTINUOUS
10
7.84344
20
-4.65174
11
7.84694
21
-4.64568
0
LINE
8
BLACK
6
CONTINUOUS
10
7.84694
20
-4.64568
11
7.85162
21
-4.64049
0
LINE
8
BLACK
6
CONTINUOUS
10
7.85162
20
-4.64049
11
7.85728
21
-4.63637
0
LINE
8
BLACK
6
CONTINUOUS
10
7.85728
20
-4.63637
11
7.86367
21
-4.63353
0
LINE
8
BLACK
6
CONTINUOUS
10
7.86367
20
-4.63353
11
7.87052
21
-4.63207
0
LINE
8
BLACK
6
CONTINUOUS
10
7.87052
20
-4.63207
11
7.87751
21
-4.63207
0
LINE
8
BLACK
6
CONTINUOUS
10
7.87751
20
-4.63207
11
7.88436
21
-4.63353
0
LINE
8
BLACK
6
CONTINUOUS
10
7.98436
20
-4.63353
11
7.99075
21
-4.63637
0
LINE
8
BLACK
6
CONTINUOUS
10
7.99075
20
-4.63637
11
7.99641
21
-4.64049
0
LINE
8
BLACK
6
CONTINUOUS
10
7.99641
20
-4.64049
11
8.00109
21
-4.64568
0
LINE
8
BLACK
6
CONTINUOUS
10
8.00109
20
-4.64568
11
8.00459
21
-4.65174
0
LINE
8
BLACK
6
CONTINUOUS
10
8.00459
20
-4.65174
11
8.00675
21
-4.6584
0
LINE
8
BLACK
6
CONTINUOUS
10
8.00675
20
-4.6584
11
8.00748
21
-4.66535
0
LINE
8
BLACK
6
CONTINUOUS
10
8.00748
20
-4.66535
11
8.00675
21
-4.67231
0
LINE
8
BLACK
6
CONTINUOUS
10
8.00675
20
-4.67231
11
8.00459
21
-4.67897
0
LINE
8
BLACK
6
CONTINUOUS
10
8.00459
20
-4.67897
11
8.00109
21
-4.68502
0
LINE
8
BLACK
6
CONTINUOUS
10
8.00109
20
-4.68502
11
7.99641
21
-4.69022
0
LINE
8
BLACK
6
CONTINUOUS
10
7.99641
20
-4.69022
11
7.99075
21
-4.69434
0
LINE
8
BLACK
6
CONTINUOUS
10
7.99075
20
-4.69434
11
7.98436
21
-4.69718
0
LINE
8
BLACK
6
CONTINUOUS
10
7.98436
20
-4.69718
11
7.97751
21
-4.69864
0
LINE
8
BLACK
6
CONTINUOUS
10
7.97751
20
-4.69864
11
7.97052
21
-4.69864
0
LINE
8
BLACK
6
CONTINUOUS
10
7.97052
20
-4.69864
11
7.96367
21
-4.69718
0
LINE
8
BLACK
6
CONTINUOUS
10
7.96367
20
-4.69718
11
7.95728
21
-4.69434
0
LINE
8
BLACK
6
CONTINUOUS
10
7.95728
20
-4.69434
11
7.95162
21
-4.69022
0
LINE
8
BLACK
6
CONTINUOUS
10
7.95162
20
-4.69022
11
7.94694
21
-4.68502
0
LINE
8
BLACK
6
CONTINUOUS
10
7.94694
20
-4.68502
11
7.94344
21
-4.67897
0
LINE
8
BLACK
6
CONTINUOUS
10
7.94344
20
-4.67897
11
7.94128
21
-4.67231
0
LINE
8
BLACK
6
CONTINUOUS
10
7.94128
20
-4.67231
11
7.94055
21
-4.66535
0
LINE
8
BLACK
6
CONTINUOUS
10
7.94055
20
-4.66535
11
7.94128
21
-4.6584
0
LINE
8
BLACK
6
CONTINUOUS
10
7.94128
20
-4.6584
11
7.94344
21
-4.65174
0
LINE
8
BLACK
6
CONTINUOUS
10
7.94344
20
-4.65174
11
7.94694
21
-4.64568
0
LINE
8
BLACK
6
CONTINUOUS
10
7.94694
20
-4.64568
11
7.95162
21
-4.64049
0
LINE
8
BLACK
6
CONTINUOUS
10
7.95162
20
-4.64049
11
7.95728
21
-4.63637
0
LINE
8
BLACK
6
CONTINUOUS
10
7.95728
20
-4.63637
11
7.96367
21
-4.63353
0
LINE
8
BLACK
6
CONTINUOUS
10
7.96367
20
-4.63353
11
7.97052
21
-4.63207
0
LINE
8
BLACK
6
CONTINUOUS
10
7.97052
20
-4.63207
11
7.97751
21
-4.63207
0
LINE
8
BLACK
6
CONTINUOUS
10
7.97751
20
-4.63207
11
7.98436
21
-4.63353
0
LINE
8
BLACK
6
CONTINUOUS
10
8.8694
20
-4.63353
11
8.87579
21
-4.63637
0
LINE
8
BLACK
6
CONTINUOUS
10
8.87579
20
-4.63637
11
8.88145
21
-4.64049
0
LINE
8
BLACK
6
CONTINUOUS
10
8.88145
20
-4.64049
11
8.88613
21
-4.64568
0
LINE
8
BLACK
6
CONTINUOUS
10
8.88613
20
-4.64568
11
8.88963
21
-4.65174
0
LINE
8
BLACK
6
CONTINUOUS
10
8.88963
20
-4.65174
11
8.89179
21
-4.6584
0
LINE
8
BLACK
6
CONTINUOUS
10
8.89179
20
-4.6584
11
8.89252
21
-4.66535
0
LINE
8
BLACK
6
CONTINUOUS
10
8.89252
20
-4.66535
11
8.89179
21
-4.67231
0
LINE
8
BLACK
6
CONTINUOUS
10
8.89179
20
-4.67231
11
8.88963
21
-4.67897
0
LINE
8
BLACK
6
CONTINUOUS
10
8.88963
20
-4.67897
11
8.88613
21
-4.68502
0
LINE
8
BLACK
6
CONTINUOUS
10
8.88613
20
-4.68502
11
8.88145
21
-4.69022
0
LINE
8
BLACK
6
CONTINUOUS
10
8.88145
20
-4.69022
11
8.87579
21
-4.69434
0
LINE
8
BLACK
6
CONTINUOUS
10
8.87579
20
-4.69434
11
8.8694
21
-4.69718
0
LINE
8
BLACK
6
CONTINUOUS
10
8.8694
20
-4.69718
11
8.86255
21
-4.69864
0
LINE
8
BLACK
6
CONTINUOUS
10
8.86255
20
-4.69864
11
8.85556
21
-4.69864
0
LINE
8
BLACK
6
CONTINUOUS
10
8.85556
20
-4.69864
11
8.84871
21
-4.69718
0
LINE
8
BLACK
6
CONTINUOUS
10
8.84871
20
-4.69718
11
8.84232
21
-4.69434
0
LINE
8
BLACK
6
CONTINUOUS
10
8.84232
20
-4.69434
11
8.83666
21
-4.69022
0
LINE
8
BLACK
6
CONTINUOUS
10
8.83666
20
-4.69022
11
8.83198
21
-4.68502
0
LINE
8
BLACK
6
CONTINUOUS
10
8.83198
20
-4.68502
11
8.82848
21
-4.67897
0
LINE
8
BLACK
6
CONTINUOUS
10
8.82848
20
-4.67897
11
8.82632
21
-4.67231
0
LINE
8
BLACK
6
CONTINUOUS
10
8.82632
20
-4.67231
11
8.82559
21
-4.66535
0
LINE
8
BLACK
6
CONTINUOUS
10
8.82559
20
-4.66535
11
8.82632
21
-4.6584
0
LINE
8
BLACK
6
CONTINUOUS
10
8.82632
20
-4.6584
11
8.82848
21
-4.65174
0
LINE
8
BLACK
6
CONTINUOUS
10
8.82848
20
-4.65174
11
8.83198
21
-4.64568
0
LINE
8
BLACK
6
CONTINUOUS
10
8.83198
20
-4.64568
11
8.83666
21
-4.64049
0
LINE
8
BLACK
6
CONTINUOUS
10
8.83666
20
-4.64049
11
8.84232
21
-4.63637
0
LINE
8
BLACK
6
CONTINUOUS
10
8.84232
20
-4.63637
11
8.84871
21
-4.63353
0
LINE
8
BLACK
6
CONTINUOUS
10
8.84871
20
-4.63353
11
8.85556
21
-4.63207
0
LINE
8
BLACK
6
CONTINUOUS
10
8.85556
20
-4.63207
11
8.86255
21
-4.63207
0
LINE
8
BLACK
6
CONTINUOUS
10
8.86255
20
-4.63207
11
8.8694
21
-4.63353
0
LINE
8
BLACK
6
CONTINUOUS
10
7.77234
20
-4.43117
11
7.77756
21
-4.43313
0
LINE
8
BLACK
6
CONTINUOUS
10
7.77756
20
-4.43313
11
7.78203
21
-4.43647
0
LINE
8
BLACK
6
CONTINUOUS
10
7.78203
20
-4.43647
11
7.78538
21
-4.44094
0
LINE
8
BLACK
6
CONTINUOUS
10
7.78538
20
-4.44094
11
7.78734
21
-4.44617
0
LINE
8
BLACK
6
CONTINUOUS
10
7.78734
20
-4.44617
11
7.7878
21
-4.45039
0
LINE
8
BLACK
6
CONTINUOUS
10
7.7878
20
-4.45039
11
7.7878
21
-4.48976
0
LINE
8
BLACK
6
CONTINUOUS
10
7.7878
20
-4.48976
11
7.78734
21
-4.49399
0
LINE
8
BLACK
6
CONTINUOUS
10
7.78734
20
-4.49399
11
7.78538
21
-4.49922
0
LINE
8
BLACK
6
CONTINUOUS
10
7.78538
20
-4.49922
11
7.78203
21
-4.50368
0
LINE
8
BLACK
6
CONTINUOUS
10
7.78203
20
-4.50368
11
7.77756
21
-4.50703
0
LINE
8
BLACK
6
CONTINUOUS
10
7.77756
20
-4.50703
11
7.77234
21
-4.50899
0
LINE
8
BLACK
6
CONTINUOUS
10
7.77234
20
-4.50899
11
7.76811
21
-4.50945
0
LINE
8
BLACK
6
CONTINUOUS
10
7.76811
20
-4.50945
11
7.72874
21
-4.50945
0
LINE
8
BLACK
6
CONTINUOUS
10
7.72874
20
-4.50945
11
7.72451
21
-4.50899
0
LINE
8
BLACK
6
CONTINUOUS
10
7.72451
20
-4.50899
11
7.71929
21
-4.50703
0
LINE
8
BLACK
6
CONTINUOUS
10
7.71929
20
-4.50703
11
7.71482
21
-4.50368
0
LINE
8
BLACK
6
CONTINUOUS
10
7.71482
20
-4.50368
11
7.71147
21
-4.49922
0
LINE
8
BLACK
6
CONTINUOUS
10
7.71147
20
-4.49922
11
7.70951
21
-4.49399
0
LINE
8
BLACK
6
CONTINUOUS
10
7.70951
20
-4.49399
11
7.70906
21
-4.48976
0
LINE
8
BLACK
6
CONTINUOUS
10
7.70906
20
-4.48976
11
7.70906
21
-4.45039
0
LINE
8
BLACK
6
CONTINUOUS
10
7.70906
20
-4.45039
11
7.70951
21
-4.44617
0
LINE
8
BLACK
6
CONTINUOUS
10
7.70951
20
-4.44617
11
7.71147
21
-4.44094
0
LINE
8
BLACK
6
CONTINUOUS
10
7.71147
20
-4.44094
11
7.71482
21
-4.43647
0
LINE
8
BLACK
6
CONTINUOUS
10
7.71482
20
-4.43647
11
7.71929
21
-4.43313
0
LINE
8
BLACK
6
CONTINUOUS
10
7.71929
20
-4.43313
11
7.72451
21
-4.43117
0
LINE
8
BLACK
6
CONTINUOUS
10
7.72451
20
-4.43117
11
7.72874
21
-4.43071
0
LINE
8
BLACK
6
CONTINUOUS
10
7.72874
20
-4.43071
11
7.76811
21
-4.43071
0
LINE
8
BLACK
6
CONTINUOUS
10
7.76811
20
-4.43071
11
7.77234
21
-4.43117
0
LINE
8
BLACK
6
CONTINUOUS
10
7.47234
20
-4.43117
11
7.47756
21
-4.43313
0
LINE
8
BLACK
6
CONTINUOUS
10
7.47756
20
-4.43313
11
7.48203
21
-4.43647
0
LINE
8
BLACK
6
CONTINUOUS
10
7.48203
20
-4.43647
11
7.48538
21
-4.44094
0
LINE
8
BLACK
6
CONTINUOUS
10
7.48538
20
-4.44094
11
7.48734
21
-4.44617
0
LINE
8
BLACK
6
CONTINUOUS
10
7.48734
20
-4.44617
11
7.4878
21
-4.45039
0
LINE
8
BLACK
6
CONTINUOUS
10
7.4878
20
-4.45039
11
7.4878
21
-4.48976
0
LINE
8
BLACK
6
CONTINUOUS
10
7.4878
20
-4.48976
11
7.48734
21
-4.49399
0
LINE
8
BLACK
6
CONTINUOUS
10
7.48734
20
-4.49399
11
7.48538
21
-4.49922
0
LINE
8
BLACK
6
CONTINUOUS
10
7.48538
20
-4.49922
11
7.48203
21
-4.50368
0
LINE
8
BLACK
6
CONTINUOUS
10
7.48203
20
-4.50368
11
7.47756
21
-4.50703
0
LINE
8
BLACK
6
CONTINUOUS
10
7.47756
20
-4.50703
11
7.47234
21
-4.50899
0
LINE
8
BLACK
6
CONTINUOUS
10
7.47234
20
-4.50899
11
7.46811
21
-4.50945
0
LINE
8
BLACK
6
CONTINUOUS
10
7.46811
20
-4.50945
11
7.42874
21
-4.50945
0
LINE
8
BLACK
6
CONTINUOUS
10
7.42874
20
-4.50945
11
7.42451
21
-4.50899
0
LINE
8
BLACK
6
CONTINUOUS
10
7.42451
20
-4.50899
11
7.41929
21
-4.50703
0
LINE
8
BLACK
6
CONTINUOUS
10
7.41929
20
-4.50703
11
7.41482
21
-4.50368
0
LINE
8
BLACK
6
CONTINUOUS
10
7.41482
20
-4.50368
11
7.41147
21
-4.49922
0
LINE
8
BLACK
6
CONTINUOUS
10
7.41147
20
-4.49922
11
7.40951
21
-4.49399
0
LINE
8
BLACK
6
CONTINUOUS
10
7.40951
20
-4.49399
11
7.40906
21
-4.48976
0
LINE
8
BLACK
6
CONTINUOUS
10
7.40906
20
-4.48976
11
7.40906
21
-4.45039
0
LINE
8
BLACK
6
CONTINUOUS
10
7.40906
20
-4.45039
11
7.40951
21
-4.44617
0
LINE
8
BLACK
6
CONTINUOUS
10
7.40951
20
-4.44617
11
7.41147
21
-4.44094
0
LINE
8
BLACK
6
CONTINUOUS
10
7.41147
20
-4.44094
11
7.41482
21
-4.43647
0
LINE
8
BLACK
6
CONTINUOUS
10
7.41482
20
-4.43647
11
7.41929
21
-4.43313
0
LINE
8
BLACK
6
CONTINUOUS
10
7.41929
20
-4.43313
11
7.42451
21
-4.43117
0
LINE
8
BLACK
6
CONTINUOUS
10
7.42451
20
-4.43117
11
7.42874
21
-4.43071
0
LINE
8
BLACK
6
CONTINUOUS
10
7.42874
20
-4.43071
11
7.46811
21
-4.43071
0
LINE
8
BLACK
6
CONTINUOUS
10
7.46811
20
-4.43071
11
7.47234
21
-4.43117
0
LINE
8
BLACK
6
CONTINUOUS
10
8.71722
20
-4.43117
11
8.72245
21
-4.43313
0
LINE
8
BLACK
6
CONTINUOUS
10
8.72245
20
-4.43313
11
8.72691
21
-4.43647
0
LINE
8
BLACK
6
CONTINUOUS
10
8.72691
20
-4.43647
11
8.73026
21
-4.44094
0
LINE
8
BLACK
6
CONTINUOUS
10
8.73026
20
-4.44094
11
8.73222
21
-4.44617
0
LINE
8
BLACK
6
CONTINUOUS
10
8.73222
20
-4.44617
11
8.73268
21
-4.45039
0
LINE
8
BLACK
6
CONTINUOUS
10
8.73268
20
-4.45039
11
8.73268
21
-4.48976
0
LINE
8
BLACK
6
CONTINUOUS
10
8.73268
20
-4.48976
11
8.73222
21
-4.49399
0
LINE
8
BLACK
6
CONTINUOUS
10
8.73222
20
-4.49399
11
8.73026
21
-4.49922
0
LINE
8
BLACK
6
CONTINUOUS
10
8.73026
20
-4.49922
11
8.72691
21
-4.50368
0
LINE
8
BLACK
6
CONTINUOUS
10
8.72691
20
-4.50368
11
8.72245
21
-4.50703
0
LINE
8
BLACK
6
CONTINUOUS
10
8.72245
20
-4.50703
11
8.71722
21
-4.50899
0
LINE
8
BLACK
6
CONTINUOUS
10
8.71722
20
-4.50899
11
8.71299
21
-4.50945
0
LINE
8
BLACK
6
CONTINUOUS
10
8.71299
20
-4.50945
11
8.67362
21
-4.50945
0
LINE
8
BLACK
6
CONTINUOUS
10
8.67362
20
-4.50945
11
8.66939
21
-4.50899
0
LINE
8
BLACK
6
CONTINUOUS
10
8.66939
20
-4.50899
11
8.66417
21
-4.50703
0
LINE
8
BLACK
6
CONTINUOUS
10
8.66417
20
-4.50703
11
8.6597
21
-4.50368
0
LINE
8
BLACK
6
CONTINUOUS
10
8.6597
20
-4.50368
11
8.65636
21
-4.49922
0
LINE
8
BLACK
6
CONTINUOUS
10
8.65636
20
-4.49922
11
8.6544
21
-4.49399
0
LINE
8
BLACK
6
CONTINUOUS
10
8.6544
20
-4.49399
11
8.65394
21
-4.48976
0
LINE
8
BLACK
6
CONTINUOUS
10
8.65394
20
-4.48976
11
8.65394
21
-4.45039
0
LINE
8
BLACK
6
CONTINUOUS
10
8.65394
20
-4.45039
11
8.6544
21
-4.44617
0
LINE
8
BLACK
6
CONTINUOUS
10
8.6544
20
-4.44617
11
8.65636
21
-4.44094
0
LINE
8
BLACK
6
CONTINUOUS
10
8.65636
20
-4.44094
11
8.6597
21
-4.43647
0
LINE
8
BLACK
6
CONTINUOUS
10
8.6597
20
-4.43647
11
8.66417
21
-4.43313
0
LINE
8
BLACK
6
CONTINUOUS
10
8.66417
20
-4.43313
11
8.66939
21
-4.43117
0
LINE
8
BLACK
6
CONTINUOUS
10
8.66939
20
-4.43117
11
8.67362
21
-4.43071
0
LINE
8
BLACK
6
CONTINUOUS
10
8.67362
20
-4.43071
11
8.71299
21
-4.43071
0
LINE
8
BLACK
6
CONTINUOUS
10
8.71299
20
-4.43071
11
8.71722
21
-4.43117
0
LINE
8
BLACK
6
CONTINUOUS
10
8.41722
20
-4.43117
11
8.42245
21
-4.43313
0
LINE
8
BLACK
6
CONTINUOUS
10
8.42245
20
-4.43313
11
8.42691
21
-4.43647
0
LINE
8
BLACK
6
CONTINUOUS
10
8.42691
20
-4.43647
11
8.43026
21
-4.44094
0
LINE
8
BLACK
6
CONTINUOUS
10
8.43026
20
-4.44094
11
8.43222
21
-4.44617
0
LINE
8
BLACK
6
CONTINUOUS
10
8.43222
20
-4.44617
11
8.43268
21
-4.45039
0
LINE
8
BLACK
6
CONTINUOUS
10
8.43268
20
-4.45039
11
8.43268
21
-4.48976
0
LINE
8
BLACK
6
CONTINUOUS
10
8.43268
20
-4.48976
11
8.43222
21
-4.49399
0
LINE
8
BLACK
6
CONTINUOUS
10
8.43222
20
-4.49399
11
8.43026
21
-4.49922
0
LINE
8
BLACK
6
CONTINUOUS
10
8.43026
20
-4.49922
11
8.42691
21
-4.50368
0
LINE
8
BLACK
6
CONTINUOUS
10
8.42691
20
-4.50368
11
8.42245
21
-4.50703
0
LINE
8
BLACK
6
CONTINUOUS
10
8.42245
20
-4.50703
11
8.41722
21
-4.50899
0
LINE
8
BLACK
6
CONTINUOUS
10
8.41722
20
-4.50899
11
8.41299
21
-4.50945
0
LINE
8
BLACK
6
CONTINUOUS
10
8.41299
20
-4.50945
11
8.37362
21
-4.50945
0
LINE
8
BLACK
6
CONTINUOUS
10
8.37362
20
-4.50945
11
8.36939
21
-4.50899
0
LINE
8
BLACK
6
CONTINUOUS
10
8.36939
20
-4.50899
11
8.36417
21
-4.50703
0
LINE
8
BLACK
6
CONTINUOUS
10
8.36417
20
-4.50703
11
8.3597
21
-4.50368
0
LINE
8
BLACK
6
CONTINUOUS
10
8.3597
20
-4.50368
11
8.35636
21
-4.49922
0
LINE
8
BLACK
6
CONTINUOUS
10
8.35636
20
-4.49922
11
8.3544
21
-4.49399
0
LINE
8
BLACK
6
CONTINUOUS
10
8.3544
20
-4.49399
11
8.35394
21
-4.48976
0
LINE
8
BLACK
6
CONTINUOUS
10
8.35394
20
-4.48976
11
8.35394
21
-4.45039
0
LINE
8
BLACK
6
CONTINUOUS
10
8.35394
20
-4.45039
11
8.3544
21
-4.44617
0
LINE
8
BLACK
6
CONTINUOUS
10
8.3544
20
-4.44617
11
8.35636
21
-4.44094
0
LINE
8
BLACK
6
CONTINUOUS
10
8.35636
20
-4.44094
11
8.3597
21
-4.43647
0
LINE
8
BLACK
6
CONTINUOUS
10
8.3597
20
-4.43647
11
8.36417
21
-4.43313
0
LINE
8
BLACK
6
CONTINUOUS
10
8.36417
20
-4.43313
11
8.36939
21
-4.43117
0
LINE
8
BLACK
6
CONTINUOUS
10
8.36939
20
-4.43117
11
8.37362
21
-4.43071
0
LINE
8
BLACK
6
CONTINUOUS
10
8.37362
20
-4.43071
11
8.41299
21
-4.43071
0
LINE
8
BLACK
6
CONTINUOUS
10
8.41299
20
-4.43071
11
8.41722
21
-4.43117
0
LINE
8
BLACK
6
CONTINUOUS
10
8.1854
20
-4.42366
11
8.18943
21
-4.42554
0
LINE
8
BLACK
6
CONTINUOUS
10
8.18943
20
-4.42554
11
8.19257
21
-4.42868
0
LINE
8
BLACK
6
CONTINUOUS
10
8.19257
20
-4.42868
11
8.19445
21
-4.43271
0
LINE
8
BLACK
6
CONTINUOUS
10
8.19445
20
-4.43271
11
8.19488
21
-4.43602
0
LINE
8
BLACK
6
CONTINUOUS
10
8.19488
20
-4.43602
11
8.19488
21
-4.46161
0
LINE
8
BLACK
6
CONTINUOUS
10
8.19488
20
-4.46161
11
8.19445
21
-4.46493
0
LINE
8
BLACK
6
CONTINUOUS
10
8.19445
20
-4.46493
11
8.19257
21
-4.46895
0
LINE
8
BLACK
6
CONTINUOUS
10
8.19257
20
-4.46895
11
8.18943
21
-4.4721
0
LINE
8
BLACK
6
CONTINUOUS
10
8.18943
20
-4.4721
11
8.1854
21
-4.47397
0
LINE
8
BLACK
6
CONTINUOUS
10
8.1854
20
-4.47397
11
8.18209
21
-4.47441
0
LINE
8
BLACK
6
CONTINUOUS
10
8.18209
20
-4.47441
11
8.1565
21
-4.47441
0
LINE
8
BLACK
6
CONTINUOUS
10
8.1565
20
-4.47441
11
8.15318
21
-4.47397
0
LINE
8
BLACK
6
CONTINUOUS
10
8.15318
20
-4.47397
11
8.14916
21
-4.4721
0
LINE
8
BLACK
6
CONTINUOUS
10
8.14916
20
-4.4721
11
8.14601
21
-4.46895
0
LINE
8
BLACK
6
CONTINUOUS
10
8.14601
20
-4.46895
11
8.14414
21
-4.46493
0
LINE
8
BLACK
6
CONTINUOUS
10
8.14414
20
-4.46493
11
8.1437
21
-4.46161
0
LINE
8
BLACK
6
CONTINUOUS
10
8.1437
20
-4.46161
11
8.1437
21
-4.43602
0
LINE
8
BLACK
6
CONTINUOUS
10
8.1437
20
-4.43602
11
8.14414
21
-4.43271
0
LINE
8
BLACK
6
CONTINUOUS
10
8.14414
20
-4.43271
11
8.14601
21
-4.42868
0
LINE
8
BLACK
6
CONTINUOUS
10
8.14601
20
-4.42868
11
8.14916
21
-4.42554
0
LINE
8
BLACK
6
CONTINUOUS
10
8.14916
20
-4.42554
11
8.15318
21
-4.42366
0
LINE
8
BLACK
6
CONTINUOUS
10
8.15318
20
-4.42366
11
8.1565
21
-4.42323
0
LINE
8
BLACK
6
CONTINUOUS
10
8.1565
20
-4.42323
11
8.18209
21
-4.42323
0
LINE
8
BLACK
6
CONTINUOUS
10
8.18209
20
-4.42323
11
8.1854
21
-4.42366
0
LINE
8
BLACK
6
CONTINUOUS
10
8.00823
20
-4.42366
11
8.01226
21
-4.42554
0
LINE
8
BLACK
6
CONTINUOUS
10
8.01226
20
-4.42554
11
8.0154
21
-4.42868
0
LINE
8
BLACK
6
CONTINUOUS
10
8.0154
20
-4.42868
11
8.01728
21
-4.43271
0
LINE
8
BLACK
6
CONTINUOUS
10
8.01728
20
-4.43271
11
8.01772
21
-4.43602
0
LINE
8
BLACK
6
CONTINUOUS
10
8.01772
20
-4.43602
11
8.01772
21
-4.46161
0
LINE
8
BLACK
6
CONTINUOUS
10
8.01772
20
-4.46161
11
8.01728
21
-4.46493
0
LINE
8
BLACK
6
CONTINUOUS
10
8.01728
20
-4.46493
11
8.0154
21
-4.46895
0
LINE
8
BLACK
6
CONTINUOUS
10
8.0154
20
-4.46895
11
8.01226
21
-4.4721
0
LINE
8
BLACK
6
CONTINUOUS
10
8.01226
20
-4.4721
11
8.00823
21
-4.47397
0
LINE
8
BLACK
6
CONTINUOUS
10
8.00823
20
-4.47397
11
8.00492
21
-4.47441
0
LINE
8
BLACK
6
CONTINUOUS
10
8.00492
20
-4.47441
11
7.97933
21
-4.47441
0
LINE
8
BLACK
6
CONTINUOUS
10
7.97933
20
-4.47441
11
7.97602
21
-4.47397
0
LINE
8
BLACK
6
CONTINUOUS
10
7.97602
20
-4.47397
11
7.97199
21
-4.4721
0
LINE
8
BLACK
6
CONTINUOUS
10
7.97199
20
-4.4721
11
7.96885
21
-4.46895
0
LINE
8
BLACK
6
CONTINUOUS
10
7.96885
20
-4.46895
11
7.96697
21
-4.46493
0
LINE
8
BLACK
6
CONTINUOUS
10
7.96697
20
-4.46493
11
7.96654
21
-4.46161
0
LINE
8
BLACK
6
CONTINUOUS
10
7.96654
20
-4.46161
11
7.96654
21
-4.43602
0
LINE
8
BLACK
6
CONTINUOUS
10
7.96654
20
-4.43602
11
7.96697
21
-4.43271
0
LINE
8
BLACK
6
CONTINUOUS
10
7.96697
20
-4.43271
11
7.96885
21
-4.42868
0
LINE
8
BLACK
6
CONTINUOUS
10
7.96885
20
-4.42868
11
7.97199
21
-4.42554
0
LINE
8
BLACK
6
CONTINUOUS
10
7.97199
20
-4.42554
11
7.97602
21
-4.42366
0
LINE
8
BLACK
6
CONTINUOUS
10
7.97602
20
-4.42366
11
7.97933
21
-4.42323
0
LINE
8
BLACK
6
CONTINUOUS
10
7.97933
20
-4.42323
11
8.00492
21
-4.42323
0
LINE
8
BLACK
6
CONTINUOUS
10
8.00492
20
-4.42323
11
8.00823
21
-4.42366
0
LINE
8
BLACK
6
CONTINUOUS
10
7.25566
20
-4.28225
11
7.26702
21
-4.28451
0
LINE
8
BLACK
6
CONTINUOUS
10
7.26702
20
-4.28451
11
7.27799
21
-4.28824
0
LINE
8
BLACK
6
CONTINUOUS
10
7.27799
20
-4.28824
11
7.28839
21
-4.29336
0
LINE
8
BLACK
6
CONTINUOUS
10
7.28839
20
-4.29336
11
7.29802
21
-4.2998
0
LINE
8
BLACK
6
CONTINUOUS
10
7.29802
20
-4.2998
11
7.30673
21
-4.30744
0
LINE
8
BLACK
6
CONTINUOUS
10
7.30673
20
-4.30744
11
7.31437
21
-4.31615
0
LINE
8
BLACK
6
CONTINUOUS
10
7.31437
20
-4.31615
11
7.32081
21
-4.32579
0
LINE
8
BLACK
6
CONTINUOUS
10
7.32081
20
-4.32579
11
7.32593
21
-4.33618
0
LINE
8
BLACK
6
CONTINUOUS
10
7.32593
20
-4.33618
11
7.32966
21
-4.34715
0
LINE
8
BLACK
6
CONTINUOUS
10
7.32966
20
-4.34715
11
7.33192
21
-4.35852
0
LINE
8
BLACK
6
CONTINUOUS
10
7.33192
20
-4.35852
11
7.33268
21
-4.37008
0
LINE
8
BLACK
6
CONTINUOUS
10
7.33268
20
-4.37008
11
7.33192
21
-4.38164
0
LINE
8
BLACK
6
CONTINUOUS
10
7.33192
20
-4.38164
11
7.32966
21
-4.39301
0
LINE
8
BLACK
6
CONTINUOUS
10
7.32966
20
-4.39301
11
7.32593
21
-4.40398
0
LINE
8
BLACK
6
CONTINUOUS
10
7.32593
20
-4.40398
11
7.32081
21
-4.41437
0
LINE
8
BLACK
6
CONTINUOUS
10
7.32081
20
-4.41437
11
7.31437
21
-4.424
0
LINE
8
BLACK
6
CONTINUOUS
10
7.31437
20
-4.424
11
7.30673
21
-4.43272
0
LINE
8
BLACK
6
CONTINUOUS
10
7.30673
20
-4.43272
11
7.29802
21
-4.44036
0
LINE
8
BLACK
6
CONTINUOUS
10
7.29802
20
-4.44036
11
7.28839
21
-4.44679
0
LINE
8
BLACK
6
CONTINUOUS
10
7.28839
20
-4.44679
11
7.27799
21
-4.45192
0
LINE
8
BLACK
6
CONTINUOUS
10
7.27799
20
-4.45192
11
7.26702
21
-4.45564
0
LINE
8
BLACK
6
CONTINUOUS
10
7.26702
20
-4.45564
11
7.25566
21
-4.4579
0
LINE
8
BLACK
6
CONTINUOUS
10
7.25566
20
-4.4579
11
7.24409
21
-4.45866
0
LINE
8
BLACK
6
CONTINUOUS
10
7.24409
20
-4.45866
11
7.23253
21
-4.4579
0
LINE
8
BLACK
6
CONTINUOUS
10
7.23253
20
-4.4579
11
7.22117
21
-4.45564
0
LINE
8
BLACK
6
CONTINUOUS
10
7.22117
20
-4.45564
11
7.2102
21
-4.45192
0
LINE
8
BLACK
6
CONTINUOUS
10
7.2102
20
-4.45192
11
7.1998
21
-4.44679
0
LINE
8
BLACK
6
CONTINUOUS
10
7.1998
20
-4.44679
11
7.19017
21
-4.44036
0
LINE
8
BLACK
6
CONTINUOUS
10
7.19017
20
-4.44036
11
7.18146
21
-4.43272
0
LINE
8
BLACK
6
CONTINUOUS
10
7.18146
20
-4.43272
11
7.17382
21
-4.424
0
LINE
8
BLACK
6
CONTINUOUS
10
7.17382
20
-4.424
11
7.16738
21
-4.41437
0
LINE
8
BLACK
6
CONTINUOUS
10
7.16738
20
-4.41437
11
7.16225
21
-4.40398
0
LINE
8
BLACK
6
CONTINUOUS
10
7.16225
20
-4.40398
11
7.15853
21
-4.39301
0
LINE
8
BLACK
6
CONTINUOUS
10
7.15853
20
-4.39301
11
7.15627
21
-4.38164
0
LINE
8
BLACK
6
CONTINUOUS
10
7.15627
20
-4.38164
11
7.15551
21
-4.37008
0
LINE
8
BLACK
6
CONTINUOUS
10
7.15551
20
-4.37008
11
7.15627
21
-4.35852
0
LINE
8
BLACK
6
CONTINUOUS
10
7.15627
20
-4.35852
11
7.15853
21
-4.34715
0
LINE
8
BLACK
6
CONTINUOUS
10
7.15853
20
-4.34715
11
7.16225
21
-4.33618
0
LINE
8
BLACK
6
CONTINUOUS
10
7.16225
20
-4.33618
11
7.16738
21
-4.32579
0
LINE
8
BLACK
6
CONTINUOUS
10
7.16738
20
-4.32579
11
7.17382
21
-4.31615
0
LINE
8
BLACK
6
CONTINUOUS
10
7.17382
20
-4.31615
11
7.18146
21
-4.30744
0
LINE
8
BLACK
6
CONTINUOUS
10
7.18146
20
-4.30744
11
7.19017
21
-4.2998
0
LINE
8
BLACK
6
CONTINUOUS
10
7.19017
20
-4.2998
11
7.1998
21
-4.29336
0
LINE
8
BLACK
6
CONTINUOUS
10
7.1998
20
-4.29336
11
7.2102
21
-4.28824
0
LINE
8
BLACK
6
CONTINUOUS
10
7.2102
20
-4.28824
11
7.22117
21
-4.28451
0
LINE
8
BLACK
6
CONTINUOUS
10
7.22117
20
-4.28451
11
7.23253
21
-4.28225
0
LINE
8
BLACK
6
CONTINUOUS
10
7.23253
20
-4.28225
11
7.24409
21
-4.2815
0
LINE
8
BLACK
6
CONTINUOUS
10
7.24409
20
-4.2815
11
7.25566
21
-4.28225
0
LINE
8
BLACK
6
CONTINUOUS
10
8.9092
20
-4.28225
11
8.92056
21
-4.28451
0
LINE
8
BLACK
6
CONTINUOUS
10
8.92056
20
-4.28451
11
8.93154
21
-4.28824
0
LINE
8
BLACK
6
CONTINUOUS
10
8.93154
20
-4.28824
11
8.94193
21
-4.29336
0
LINE
8
BLACK
6
CONTINUOUS
10
8.94193
20
-4.29336
11
8.95156
21
-4.2998
0
LINE
8
BLACK
6
CONTINUOUS
10
8.95156
20
-4.2998
11
8.96028
21
-4.30744
0
LINE
8
BLACK
6
CONTINUOUS
10
8.96028
20
-4.30744
11
8.96792
21
-4.31615
0
LINE
8
BLACK
6
CONTINUOUS
10
8.96792
20
-4.31615
11
8.97435
21
-4.32579
0
LINE
8
BLACK
6
CONTINUOUS
10
8.97435
20
-4.32579
11
8.97948
21
-4.33618
0
LINE
8
BLACK
6
CONTINUOUS
10
8.97948
20
-4.33618
11
8.9832
21
-4.34715
0
LINE
8
BLACK
6
CONTINUOUS
10
8.9832
20
-4.34715
11
8.98546
21
-4.35852
0
LINE
8
BLACK
6
CONTINUOUS
10
8.98546
20
-4.35852
11
8.98622
21
-4.37008
0
LINE
8
BLACK
6
CONTINUOUS
10
8.98622
20
-4.37008
11
8.98546
21
-4.38164
0
LINE
8
BLACK
6
CONTINUOUS
10
8.98546
20
-4.38164
11
8.9832
21
-4.39301
0
LINE
8
BLACK
6
CONTINUOUS
10
8.9832
20
-4.39301
11
8.97948
21
-4.40398
0
LINE
8
BLACK
6
CONTINUOUS
10
8.97948
20
-4.40398
11
8.97435
21
-4.41437
0
LINE
8
BLACK
6
CONTINUOUS
10
8.97435
20
-4.41437
11
8.96792
21
-4.424
0
LINE
8
BLACK
6
CONTINUOUS
10
8.96792
20
-4.424
11
8.96028
21
-4.43272
0
LINE
8
BLACK
6
CONTINUOUS
10
8.96028
20
-4.43272
11
8.95156
21
-4.44036
0
LINE
8
BLACK
6
CONTINUOUS
10
8.95156
20
-4.44036
11
8.94193
21
-4.44679
0
LINE
8
BLACK
6
CONTINUOUS
10
8.94193
20
-4.44679
11
8.93154
21
-4.45192
0
LINE
8
BLACK
6
CONTINUOUS
10
8.93154
20
-4.45192
11
8.92056
21
-4.45564
0
LINE
8
BLACK
6
CONTINUOUS
10
8.92056
20
-4.45564
11
8.9092
21
-4.4579
0
LINE
8
BLACK
6
CONTINUOUS
10
8.9092
20
-4.4579
11
8.89764
21
-4.45866
0
LINE
8
BLACK
6
CONTINUOUS
10
8.89764
20
-4.45866
11
8.88608
21
-4.4579
0
LINE
8
BLACK
6
CONTINUOUS
10
8.88608
20
-4.4579
11
8.87471
21
-4.45564
0
LINE
8
BLACK
6
CONTINUOUS
10
8.87471
20
-4.45564
11
8.86374
21
-4.45192
0
LINE
8
BLACK
6
CONTINUOUS
10
8.86374
20
-4.45192
11
8.85335
21
-4.44679
0
LINE
8
BLACK
6
CONTINUOUS
10
8.85335
20
-4.44679
11
8.84371
21
-4.44036
0
LINE
8
BLACK
6
CONTINUOUS
10
8.84371
20
-4.44036
11
8.835
21
-4.43272
0
LINE
8
BLACK
6
CONTINUOUS
10
8.835
20
-4.43272
11
8.82736
21
-4.424
0
LINE
8
BLACK
6
CONTINUOUS
10
8.82736
20
-4.424
11
8.82092
21
-4.41437
0
LINE
8
BLACK
6
CONTINUOUS
10
8.82092
20
-4.41437
11
8.8158
21
-4.40398
0
LINE
8
BLACK
6
CONTINUOUS
10
8.8158
20
-4.40398
11
8.81207
21
-4.39301
0
LINE
8
BLACK
6
CONTINUOUS
10
8.81207
20
-4.39301
11
8.80981
21
-4.38164
0
LINE
8
BLACK
6
CONTINUOUS
10
8.80981
20
-4.38164
11
8.80906
21
-4.37008
0
LINE
8
BLACK
6
CONTINUOUS
10
8.80906
20
-4.37008
11
8.80981
21
-4.35852
0
LINE
8
BLACK
6
CONTINUOUS
10
8.80981
20
-4.35852
11
8.81207
21
-4.34715
0
LINE
8
BLACK
6
CONTINUOUS
10
8.81207
20
-4.34715
11
8.8158
21
-4.33618
0
LINE
8
BLACK
6
CONTINUOUS
10
8.8158
20
-4.33618
11
8.82092
21
-4.32579
0
LINE
8
BLACK
6
CONTINUOUS
10
8.82092
20
-4.32579
11
8.82736
21
-4.31615
0
LINE
8
BLACK
6
CONTINUOUS
10
8.82736
20
-4.31615
11
8.835
21
-4.30744
0
LINE
8
BLACK
6
CONTINUOUS
10
8.835
20
-4.30744
11
8.84371
21
-4.2998
0
LINE
8
BLACK
6
CONTINUOUS
10
8.84371
20
-4.2998
11
8.85335
21
-4.29336
0
LINE
8
BLACK
6
CONTINUOUS
10
8.85335
20
-4.29336
11
8.86374
21
-4.28824
0
LINE
8
BLACK
6
CONTINUOUS
10
8.86374
20
-4.28824
11
8.87471
21
-4.28451
0
LINE
8
BLACK
6
CONTINUOUS
10
8.87471
20
-4.28451
11
8.88608
21
-4.28225
0
LINE
8
BLACK
6
CONTINUOUS
10
8.88608
20
-4.28225
11
8.89764
21
-4.2815
0
LINE
8
BLACK
6
CONTINUOUS
10
8.89764
20
-4.2815
11
8.9092
21
-4.28225
0
LINE
8
BLACK
6
CONTINUOUS
10
7.47234
20
-4.33117
11
7.47756
21
-4.33313
0
LINE
8
BLACK
6
CONTINUOUS
10
7.47756
20
-4.33313
11
7.48203
21
-4.33647
0
LINE
8
BLACK
6
CONTINUOUS
10
7.48203
20
-4.33647
11
7.48538
21
-4.34094
0
LINE
8
BLACK
6
CONTINUOUS
10
7.48538
20
-4.34094
11
7.48734
21
-4.34617
0
LINE
8
BLACK
6
CONTINUOUS
10
7.48734
20
-4.34617
11
7.4878
21
-4.35039
0
LINE
8
BLACK
6
CONTINUOUS
10
7.4878
20
-4.35039
11
7.4878
21
-4.38976
0
LINE
8
BLACK
6
CONTINUOUS
10
7.4878
20
-4.38976
11
7.48734
21
-4.39399
0
LINE
8
BLACK
6
CONTINUOUS
10
7.48734
20
-4.39399
11
7.48538
21
-4.39922
0
LINE
8
BLACK
6
CONTINUOUS
10
7.48538
20
-4.39922
11
7.48203
21
-4.40368
0
LINE
8
BLACK
6
CONTINUOUS
10
7.48203
20
-4.40368
11
7.47756
21
-4.40703
0
LINE
8
BLACK
6
CONTINUOUS
10
7.47756
20
-4.40703
11
7.47234
21
-4.40899
0
LINE
8
BLACK
6
CONTINUOUS
10
7.47234
20
-4.40899
11
7.46811
21
-4.40945
0
LINE
8
BLACK
6
CONTINUOUS
10
7.46811
20
-4.40945
11
7.42874
21
-4.40945
0
LINE
8
BLACK
6
CONTINUOUS
10
7.42874
20
-4.40945
11
7.42451
21
-4.40899
0
LINE
8
BLACK
6
CONTINUOUS
10
7.42451
20
-4.40899
11
7.41929
21
-4.40703
0
LINE
8
BLACK
6
CONTINUOUS
10
7.41929
20
-4.40703
11
7.41482
21
-4.40368
0
LINE
8
BLACK
6
CONTINUOUS
10
7.41482
20
-4.40368
11
7.41147
21
-4.39922
0
LINE
8
BLACK
6
CONTINUOUS
10
7.41147
20
-4.39922
11
7.40951
21
-4.39399
0
LINE
8
BLACK
6
CONTINUOUS
10
7.40951
20
-4.39399
11
7.40906
21
-4.38976
0
LINE
8
BLACK
6
CONTINUOUS
10
7.40906
20
-4.38976
11
7.40906
21
-4.35039
0
LINE
8
BLACK
6
CONTINUOUS
10
7.40906
20
-4.35039
11
7.40951
21
-4.34617
0
LINE
8
BLACK
6
CONTINUOUS
10
7.40951
20
-4.34617
11
7.41147
21
-4.34094
0
LINE
8
BLACK
6
CONTINUOUS
10
7.41147
20
-4.34094
11
7.41482
21
-4.33647
0
LINE
8
BLACK
6
CONTINUOUS
10
7.41482
20
-4.33647
11
7.41929
21
-4.33313
0
LINE
8
BLACK
6
CONTINUOUS
10
7.41929
20
-4.33313
11
7.42451
21
-4.33117
0
LINE
8
BLACK
6
CONTINUOUS
10
7.42451
20
-4.33117
11
7.42874
21
-4.33071
0
LINE
8
BLACK
6
CONTINUOUS
10
7.42874
20
-4.33071
11
7.46811
21
-4.33071
0
LINE
8
BLACK
6
CONTINUOUS
10
7.46811
20
-4.33071
11
7.47234
21
-4.33117
0
LINE
8
BLACK
6
CONTINUOUS
10
7.77234
20
-4.33117
11
7.77756
21
-4.33313
0
LINE
8
BLACK
6
CONTINUOUS
10
7.77756
20
-4.33313
11
7.78203
21
-4.33647
0
LINE
8
BLACK
6
CONTINUOUS
10
7.78203
20
-4.33647
11
7.78538
21
-4.34094
0
LINE
8
BLACK
6
CONTINUOUS
10
7.78538
20
-4.34094
11
7.78734
21
-4.34617
0
LINE
8
BLACK
6
CONTINUOUS
10
7.78734
20
-4.34617
11
7.7878
21
-4.35039
0
LINE
8
BLACK
6
CONTINUOUS
10
7.7878
20
-4.35039
11
7.7878
21
-4.38976
0
LINE
8
BLACK
6
CONTINUOUS
10
7.7878
20
-4.38976
11
7.78734
21
-4.39399
0
LINE
8
BLACK
6
CONTINUOUS
10
7.78734
20
-4.39399
11
7.78538
21
-4.39922
0
LINE
8
BLACK
6
CONTINUOUS
10
7.78538
20
-4.39922
11
7.78203
21
-4.40368
0
LINE
8
BLACK
6
CONTINUOUS
10
7.78203
20
-4.40368
11
7.77756
21
-4.40703
0
LINE
8
BLACK
6
CONTINUOUS
10
7.77756
20
-4.40703
11
7.77234
21
-4.40899
0
LINE
8
BLACK
6
CONTINUOUS
10
7.77234
20
-4.40899
11
7.76811
21
-4.40945
0
LINE
8
BLACK
6
CONTINUOUS
10
7.76811
20
-4.40945
11
7.72874
21
-4.40945
0
LINE
8
BLACK
6
CONTINUOUS
10
7.72874
20
-4.40945
11
7.72451
21
-4.40899
0
LINE
8
BLACK
6
CONTINUOUS
10
7.72451
20
-4.40899
11
7.71929
21
-4.40703
0
LINE
8
BLACK
6
CONTINUOUS
10
7.71929
20
-4.40703
11
7.71482
21
-4.40368
0
LINE
8
BLACK
6
CONTINUOUS
10
7.71482
20
-4.40368
11
7.71147
21
-4.39922
0
LINE
8
BLACK
6
CONTINUOUS
10
7.71147
20
-4.39922
11
7.70951
21
-4.39399
0
LINE
8
BLACK
6
CONTINUOUS
10
7.70951
20
-4.39399
11
7.70906
21
-4.38976
0
LINE
8
BLACK
6
CONTINUOUS
10
7.70906
20
-4.38976
11
7.70906
21
-4.35039
0
LINE
8
BLACK
6
CONTINUOUS
10
7.70906
20
-4.35039
11
7.70951
21
-4.34617
0
LINE
8
BLACK
6
CONTINUOUS
10
7.70951
20
-4.34617
11
7.71147
21
-4.34094
0
LINE
8
BLACK
6
CONTINUOUS
10
7.71147
20
-4.34094
11
7.71482
21
-4.33647
0
LINE
8
BLACK
6
CONTINUOUS
10
7.71482
20
-4.33647
11
7.71929
21
-4.33313
0
LINE
8
BLACK
6
CONTINUOUS
10
7.71929
20
-4.33313
11
7.72451
21
-4.33117
0
LINE
8
BLACK
6
CONTINUOUS
10
7.72451
20
-4.33117
11
7.72874
21
-4.33071
0
LINE
8
BLACK
6
CONTINUOUS
10
7.72874
20
-4.33071
11
7.76811
21
-4.33071
0
LINE
8
BLACK
6
CONTINUOUS
10
7.76811
20
-4.33071
11
7.77234
21
-4.33117
0
LINE
8
BLACK
6
CONTINUOUS
10
8.71722
20
-4.33117
11
8.72245
21
-4.33313
0
LINE
8
BLACK
6
CONTINUOUS
10
8.72245
20
-4.33313
11
8.72691
21
-4.33647
0
LINE
8
BLACK
6
CONTINUOUS
10
8.72691
20
-4.33647
11
8.73026
21
-4.34094
0
LINE
8
BLACK
6
CONTINUOUS
10
8.73026
20
-4.34094
11
8.73222
21
-4.34617
0
LINE
8
BLACK
6
CONTINUOUS
10
8.73222
20
-4.34617
11
8.73268
21
-4.35039
0
LINE
8
BLACK
6
CONTINUOUS
10
8.73268
20
-4.35039
11
8.73268
21
-4.38976
0
LINE
8
BLACK
6
CONTINUOUS
10
8.73268
20
-4.38976
11
8.73222
21
-4.39399
0
LINE
8
BLACK
6
CONTINUOUS
10
8.73222
20
-4.39399
11
8.73026
21
-4.39922
0
LINE
8
BLACK
6
CONTINUOUS
10
8.73026
20
-4.39922
11
8.72691
21
-4.40368
0
LINE
8
BLACK
6
CONTINUOUS
10
8.72691
20
-4.40368
11
8.72245
21
-4.40703
0
LINE
8
BLACK
6
CONTINUOUS
10
8.72245
20
-4.40703
11
8.71722
21
-4.40899
0
LINE
8
BLACK
6
CONTINUOUS
10
8.71722
20
-4.40899
11
8.71299
21
-4.40945
0
LINE
8
BLACK
6
CONTINUOUS
10
8.71299
20
-4.40945
11
8.67362
21
-4.40945
0
LINE
8
BLACK
6
CONTINUOUS
10
8.67362
20
-4.40945
11
8.66939
21
-4.40899
0
LINE
8
BLACK
6
CONTINUOUS
10
8.66939
20
-4.40899
11
8.66417
21
-4.40703
0
LINE
8
BLACK
6
CONTINUOUS
10
8.66417
20
-4.40703
11
8.6597
21
-4.40368
0
LINE
8
BLACK
6
CONTINUOUS
10
8.6597
20
-4.40368
11
8.65636
21
-4.39922
0
LINE
8
BLACK
6
CONTINUOUS
10
8.65636
20
-4.39922
11
8.6544
21
-4.39399
0
LINE
8
BLACK
6
CONTINUOUS
10
8.6544
20
-4.39399
11
8.65394
21
-4.38976
0
LINE
8
BLACK
6
CONTINUOUS
10
8.65394
20
-4.38976
11
8.65394
21
-4.35039
0
LINE
8
BLACK
6
CONTINUOUS
10
8.65394
20
-4.35039
11
8.6544
21
-4.34617
0
LINE
8
BLACK
6
CONTINUOUS
10
8.6544
20
-4.34617
11
8.65636
21
-4.34094
0
LINE
8
BLACK
6
CONTINUOUS
10
8.65636
20
-4.34094
11
8.6597
21
-4.33647
0
LINE
8
BLACK
6
CONTINUOUS
10
8.6597
20
-4.33647
11
8.66417
21
-4.33313
0
LINE
8
BLACK
6
CONTINUOUS
10
8.66417
20
-4.33313
11
8.66939
21
-4.33117
0
LINE
8
BLACK
6
CONTINUOUS
10
8.66939
20
-4.33117
11
8.67362
21
-4.33071
0
LINE
8
BLACK
6
CONTINUOUS
10
8.67362
20
-4.33071
11
8.71299
21
-4.33071
0
LINE
8
BLACK
6
CONTINUOUS
10
8.71299
20
-4.33071
11
8.71722
21
-4.33117
0
LINE
8
BLACK
6
CONTINUOUS
10
8.41722
20
-4.33117
11
8.42245
21
-4.33313
0
LINE
8
BLACK
6
CONTINUOUS
10
8.42245
20
-4.33313
11
8.42691
21
-4.33647
0
LINE
8
BLACK
6
CONTINUOUS
10
8.42691
20
-4.33647
11
8.43026
21
-4.34094
0
LINE
8
BLACK
6
CONTINUOUS
10
8.43026
20
-4.34094
11
8.43222
21
-4.34617
0
LINE
8
BLACK
6
CONTINUOUS
10
8.43222
20
-4.34617
11
8.43268
21
-4.35039
0
LINE
8
BLACK
6
CONTINUOUS
10
8.43268
20
-4.35039
11
8.43268
21
-4.38976
0
LINE
8
BLACK
6
CONTINUOUS
10
8.43268
20
-4.38976
11
8.43222
21
-4.39399
0
LINE
8
BLACK
6
CONTINUOUS
10
8.43222
20
-4.39399
11
8.43026
21
-4.39922
0
LINE
8
BLACK
6
CONTINUOUS
10
8.43026
20
-4.39922
11
8.42691
21
-4.40368
0
LINE
8
BLACK
6
CONTINUOUS
10
8.42691
20
-4.40368
11
8.42245
21
-4.40703
0
LINE
8
BLACK
6
CONTINUOUS
10
8.42245
20
-4.40703
11
8.41722
21
-4.40899
0
LINE
8
BLACK
6
CONTINUOUS
10
8.41722
20
-4.40899
11
8.41299
21
-4.40945
0
LINE
8
BLACK
6
CONTINUOUS
10
8.41299
20
-4.40945
11
8.37362
21
-4.40945
0
LINE
8
BLACK
6
CONTINUOUS
10
8.37362
20
-4.40945
11
8.36939
21
-4.40899
0
LINE
8
BLACK
6
CONTINUOUS
10
8.36939
20
-4.40899
11
8.36417
21
-4.40703
0
LINE
8
BLACK
6
CONTINUOUS
10
8.36417
20
-4.40703
11
8.3597
21
-4.40368
0
LINE
8
BLACK
6
CONTINUOUS
10
8.3597
20
-4.40368
11
8.35636
21
-4.39922
0
LINE
8
BLACK
6
CONTINUOUS
10
8.35636
20
-4.39922
11
8.3544
21
-4.39399
0
LINE
8
BLACK
6
CONTINUOUS
10
8.3544
20
-4.39399
11
8.35394
21
-4.38976
0
LINE
8
BLACK
6
CONTINUOUS
10
8.35394
20
-4.38976
11
8.35394
21
-4.35039
0
LINE
8
BLACK
6
CONTINUOUS
10
8.35394
20
-4.35039
11
8.3544
21
-4.34617
0
LINE
8
BLACK
6
CONTINUOUS
10
8.3544
20
-4.34617
11
8.35636
21
-4.34094
0
LINE
8
BLACK
6
CONTINUOUS
10
8.35636
20
-4.34094
11
8.3597
21
-4.33647
0
LINE
8
BLACK
6
CONTINUOUS
10
8.3597
20
-4.33647
11
8.36417
21
-4.33313
0
LINE
8
BLACK
6
CONTINUOUS
10
8.36417
20
-4.33313
11
8.36939
21
-4.33117
0
LINE
8
BLACK
6
CONTINUOUS
10
8.36939
20
-4.33117
11
8.37362
21
-4.33071
0
LINE
8
BLACK
6
CONTINUOUS
10
8.37362
20
-4.33071
11
8.41299
21
-4.33071
0
LINE
8
BLACK
6
CONTINUOUS
10
8.41299
20
-4.33071
11
8.41722
21
-4.33117
0
LINE
8
BLACK
6
CONTINUOUS
10
8.1854
20
-4.34492
11
8.18943
21
-4.3468
0
LINE
8
BLACK
6
CONTINUOUS
10
8.18943
20
-4.3468
11
8.19257
21
-4.34994
0
LINE
8
BLACK
6
CONTINUOUS
10
8.19257
20
-4.34994
11
8.19445
21
-4.35397
0
LINE
8
BLACK
6
CONTINUOUS
10
8.19445
20
-4.35397
11
8.19488
21
-4.35728
0
LINE
8
BLACK
6
CONTINUOUS
10
8.19488
20
-4.35728
11
8.19488
21
-4.38287
0
LINE
8
BLACK
6
CONTINUOUS
10
8.19488
20
-4.38287
11
8.19445
21
-4.38619
0
LINE
8
BLACK
6
CONTINUOUS
10
8.19445
20
-4.38619
11
8.19257
21
-4.39021
0
LINE
8
BLACK
6
CONTINUOUS
10
8.19257
20
-4.39021
11
8.18943
21
-4.39336
0
LINE
8
BLACK
6
CONTINUOUS
10
8.18943
20
-4.39336
11
8.1854
21
-4.39523
0
LINE
8
BLACK
6
CONTINUOUS
10
8.1854
20
-4.39523
11
8.18209
21
-4.39567
0
LINE
8
BLACK
6
CONTINUOUS
10
8.18209
20
-4.39567
11
8.1565
21
-4.39567
0
LINE
8
BLACK
6
CONTINUOUS
10
8.1565
20
-4.39567
11
8.15318
21
-4.39523
0
LINE
8
BLACK
6
CONTINUOUS
10
8.15318
20
-4.39523
11
8.14916
21
-4.39336
0
LINE
8
BLACK
6
CONTINUOUS
10
8.14916
20
-4.39336
11
8.14601
21
-4.39021
0
LINE
8
BLACK
6
CONTINUOUS
10
8.14601
20
-4.39021
11
8.14414
21
-4.38619
0
LINE
8
BLACK
6
CONTINUOUS
10
8.14414
20
-4.38619
11
8.1437
21
-4.38287
0
LINE
8
BLACK
6
CONTINUOUS
10
8.1437
20
-4.38287
11
8.1437
21
-4.35728
0
LINE
8
BLACK
6
CONTINUOUS
10
8.1437
20
-4.35728
11
8.14414
21
-4.35397
0
LINE
8
BLACK
6
CONTINUOUS
10
8.14414
20
-4.35397
11
8.14601
21
-4.34994
0
LINE
8
BLACK
6
CONTINUOUS
10
8.14601
20
-4.34994
11
8.14916
21
-4.3468
0
LINE
8
BLACK
6
CONTINUOUS
10
8.14916
20
-4.3468
11
8.15318
21
-4.34492
0
LINE
8
BLACK
6
CONTINUOUS
10
8.15318
20
-4.34492
11
8.1565
21
-4.34449
0
LINE
8
BLACK
6
CONTINUOUS
10
8.1565
20
-4.34449
11
8.18209
21
-4.34449
0
LINE
8
BLACK
6
CONTINUOUS
10
8.18209
20
-4.34449
11
8.1854
21
-4.34492
0
LINE
8
BLACK
6
CONTINUOUS
10
8.00823
20
-4.34492
11
8.01226
21
-4.3468
0
LINE
8
BLACK
6
CONTINUOUS
10
8.01226
20
-4.3468
11
8.0154
21
-4.34994
0
LINE
8
BLACK
6
CONTINUOUS
10
8.0154
20
-4.34994
11
8.01728
21
-4.35397
0
LINE
8
BLACK
6
CONTINUOUS
10
8.01728
20
-4.35397
11
8.01772
21
-4.35728
0
LINE
8
BLACK
6
CONTINUOUS
10
8.01772
20
-4.35728
11
8.01772
21
-4.38287
0
LINE
8
BLACK
6
CONTINUOUS
10
8.01772
20
-4.38287
11
8.01728
21
-4.38619
0
LINE
8
BLACK
6
CONTINUOUS
10
8.01728
20
-4.38619
11
8.0154
21
-4.39021
0
LINE
8
BLACK
6
CONTINUOUS
10
8.0154
20
-4.39021
11
8.01226
21
-4.39336
0
LINE
8
BLACK
6
CONTINUOUS
10
8.01226
20
-4.39336
11
8.00823
21
-4.39523
0
LINE
8
BLACK
6
CONTINUOUS
10
8.00823
20
-4.39523
11
8.00492
21
-4.39567
0
LINE
8
BLACK
6
CONTINUOUS
10
8.00492
20
-4.39567
11
7.97933
21
-4.39567
0
LINE
8
BLACK
6
CONTINUOUS
10
7.97933
20
-4.39567
11
7.97602
21
-4.39523
0
LINE
8
BLACK
6
CONTINUOUS
10
7.97602
20
-4.39523
11
7.97199
21
-4.39336
0
LINE
8
BLACK
6
CONTINUOUS
10
7.97199
20
-4.39336
11
7.96885
21
-4.39021
0
LINE
8
BLACK
6
CONTINUOUS
10
7.96885
20
-4.39021
11
7.96697
21
-4.38619
0
LINE
8
BLACK
6
CONTINUOUS
10
7.96697
20
-4.38619
11
7.96654
21
-4.38287
0
LINE
8
BLACK
6
CONTINUOUS
10
7.96654
20
-4.38287
11
7.96654
21
-4.35728
0
LINE
8
BLACK
6
CONTINUOUS
10
7.96654
20
-4.35728
11
7.96697
21
-4.35397
0
LINE
8
BLACK
6
CONTINUOUS
10
7.96697
20
-4.35397
11
7.96885
21
-4.34994
0
LINE
8
BLACK
6
CONTINUOUS
10
7.96885
20
-4.34994
11
7.97199
21
-4.3468
0
LINE
8
BLACK
6
CONTINUOUS
10
7.97199
20
-4.3468
11
7.97602
21
-4.34492
0
LINE
8
BLACK
6
CONTINUOUS
10
7.97602
20
-4.34492
11
7.97933
21
-4.34449
0
LINE
8
BLACK
6
CONTINUOUS
10
7.97933
20
-4.34449
11
8.00492
21
-4.34449
0
LINE
8
BLACK
6
CONTINUOUS
10
8.00492
20
-4.34449
11
8.00823
21
-4.34492
0
LINE
8
BLACK
6
CONTINUOUS
10
8.1854
20
-4.26618
11
8.18943
21
-4.26806
0
LINE
8
BLACK
6
CONTINUOUS
10
8.18943
20
-4.26806
11
8.19257
21
-4.2712
0
LINE
8
BLACK
6
CONTINUOUS
10
8.19257
20
-4.2712
11
8.19445
21
-4.27523
0
LINE
8
BLACK
6
CONTINUOUS
10
8.19445
20
-4.27523
11
8.19488
21
-4.27854
0
LINE
8
BLACK
6
CONTINUOUS
10
8.19488
20
-4.27854
11
8.19488
21
-4.30413
0
LINE
8
BLACK
6
CONTINUOUS
10
8.19488
20
-4.30413
11
8.19445
21
-4.30745
0
LINE
8
BLACK
6
CONTINUOUS
10
8.19445
20
-4.30745
11
8.19257
21
-4.31147
0
LINE
8
BLACK
6
CONTINUOUS
10
8.19257
20
-4.31147
11
8.18943
21
-4.31462
0
LINE
8
BLACK
6
CONTINUOUS
10
8.18943
20
-4.31462
11
8.1854
21
-4.31649
0
LINE
8
BLACK
6
CONTINUOUS
10
8.1854
20
-4.31649
11
8.18209
21
-4.31693
0
LINE
8
BLACK
6
CONTINUOUS
10
8.18209
20
-4.31693
11
8.1565
21
-4.31693
0
LINE
8
BLACK
6
CONTINUOUS
10
8.1565
20
-4.31693
11
8.15318
21
-4.31649
0
LINE
8
BLACK
6
CONTINUOUS
10
8.15318
20
-4.31649
11
8.14916
21
-4.31462
0
LINE
8
BLACK
6
CONTINUOUS
10
8.14916
20
-4.31462
11
8.14601
21
-4.31147
0
LINE
8
BLACK
6
CONTINUOUS
10
8.14601
20
-4.31147
11
8.14414
21
-4.30745
0
LINE
8
BLACK
6
CONTINUOUS
10
8.14414
20
-4.30745
11
8.1437
21
-4.30413
0
LINE
8
BLACK
6
CONTINUOUS
10
8.1437
20
-4.30413
11
8.1437
21
-4.27854
0
LINE
8
BLACK
6
CONTINUOUS
10
8.1437
20
-4.27854
11
8.14414
21
-4.27523
0
LINE
8
BLACK
6
CONTINUOUS
10
8.14414
20
-4.27523
11
8.14601
21
-4.2712
0
LINE
8
BLACK
6
CONTINUOUS
10
8.14601
20
-4.2712
11
8.14916
21
-4.26806
0
LINE
8
BLACK
6
CONTINUOUS
10
8.14916
20
-4.26806
11
8.15318
21
-4.26618
0
LINE
8
BLACK
6
CONTINUOUS
10
8.15318
20
-4.26618
11
8.1565
21
-4.26575
0
LINE
8
BLACK
6
CONTINUOUS
10
8.1565
20
-4.26575
11
8.18209
21
-4.26575
0
LINE
8
BLACK
6
CONTINUOUS
10
8.18209
20
-4.26575
11
8.1854
21
-4.26618
0
LINE
8
BLACK
6
CONTINUOUS
10
8.00823
20
-4.26618
11
8.01226
21
-4.26806
0
LINE
8
BLACK
6
CONTINUOUS
10
8.01226
20
-4.26806
11
8.0154
21
-4.2712
0
LINE
8
BLACK
6
CONTINUOUS
10
8.0154
20
-4.2712
11
8.01728
21
-4.27523
0
LINE
8
BLACK
6
CONTINUOUS
10
8.01728
20
-4.27523
11
8.01772
21
-4.27854
0
LINE
8
BLACK
6
CONTINUOUS
10
8.01772
20
-4.27854
11
8.01772
21
-4.30413
0
LINE
8
BLACK
6
CONTINUOUS
10
8.01772
20
-4.30413
11
8.01728
21
-4.30745
0
LINE
8
BLACK
6
CONTINUOUS
10
8.01728
20
-4.30745
11
8.0154
21
-4.31147
0
LINE
8
BLACK
6
CONTINUOUS
10
8.0154
20
-4.31147
11
8.01226
21
-4.31462
0
LINE
8
BLACK
6
CONTINUOUS
10
8.01226
20
-4.31462
11
8.00823
21
-4.31649
0
LINE
8
BLACK
6
CONTINUOUS
10
8.00823
20
-4.31649
11
8.00492
21
-4.31693
0
LINE
8
BLACK
6
CONTINUOUS
10
8.00492
20
-4.31693
11
7.97933
21
-4.31693
0
LINE
8
BLACK
6
CONTINUOUS
10
7.97933
20
-4.31693
11
7.97602
21
-4.31649
0
LINE
8
BLACK
6
CONTINUOUS
10
7.97602
20
-4.31649
11
7.97199
21
-4.31462
0
LINE
8
BLACK
6
CONTINUOUS
10
7.97199
20
-4.31462
11
7.96885
21
-4.31147
0
LINE
8
BLACK
6
CONTINUOUS
10
7.96885
20
-4.31147
11
7.96697
21
-4.30745
0
LINE
8
BLACK
6
CONTINUOUS
10
7.96697
20
-4.30745
11
7.96654
21
-4.30413
0
LINE
8
BLACK
6
CONTINUOUS
10
7.96654
20
-4.30413
11
7.96654
21
-4.27854
0
LINE
8
BLACK
6
CONTINUOUS
10
7.96654
20
-4.27854
11
7.96697
21
-4.27523
0
LINE
8
BLACK
6
CONTINUOUS
10
7.96697
20
-4.27523
11
7.96885
21
-4.2712
0
LINE
8
BLACK
6
CONTINUOUS
10
7.96885
20
-4.2712
11
7.97199
21
-4.26806
0
LINE
8
BLACK
6
CONTINUOUS
10
7.97199
20
-4.26806
11
7.97602
21
-4.26618
0
LINE
8
BLACK
6
CONTINUOUS
10
7.97602
20
-4.26618
11
7.97933
21
-4.26575
0
LINE
8
BLACK
6
CONTINUOUS
10
7.97933
20
-4.26575
11
8.00492
21
-4.26575
0
LINE
8
BLACK
6
CONTINUOUS
10
8.00492
20
-4.26575
11
8.00823
21
-4.26618
0
LINE
8
BLACK
6
CONTINUOUS
10
7.4878
20
-4.30945
11
7.40906
21
-4.30945
0
LINE
8
BLACK
6
CONTINUOUS
10
7.40906
20
-4.30945
11
7.40906
21
-4.23071
0
LINE
8
BLACK
6
CONTINUOUS
10
7.40906
20
-4.23071
11
7.4878
21
-4.23071
0
LINE
8
BLACK
6
CONTINUOUS
10
7.4878
20
-4.23071
11
7.4878
21
-4.30945
0
LINE
8
BLACK
6
CONTINUOUS
10
7.77234
20
-4.23117
11
7.77756
21
-4.23313
0
LINE
8
BLACK
6
CONTINUOUS
10
7.77756
20
-4.23313
11
7.78203
21
-4.23647
0
LINE
8
BLACK
6
CONTINUOUS
10
7.78203
20
-4.23647
11
7.78538
21
-4.24094
0
LINE
8
BLACK
6
CONTINUOUS
10
7.78538
20
-4.24094
11
7.78734
21
-4.24617
0
LINE
8
BLACK
6
CONTINUOUS
10
7.78734
20
-4.24617
11
7.7878
21
-4.25039
0
LINE
8
BLACK
6
CONTINUOUS
10
7.7878
20
-4.25039
11
7.7878
21
-4.28976
0
LINE
8
BLACK
6
CONTINUOUS
10
7.7878
20
-4.28976
11
7.78734
21
-4.29399
0
LINE
8
BLACK
6
CONTINUOUS
10
7.78734
20
-4.29399
11
7.78538
21
-4.29922
0
LINE
8
BLACK
6
CONTINUOUS
10
7.78538
20
-4.29922
11
7.78203
21
-4.30368
0
LINE
8
BLACK
6
CONTINUOUS
10
7.78203
20
-4.30368
11
7.77756
21
-4.30703
0
LINE
8
BLACK
6
CONTINUOUS
10
7.77756
20
-4.30703
11
7.77234
21
-4.30899
0
LINE
8
BLACK
6
CONTINUOUS
10
7.77234
20
-4.30899
11
7.76811
21
-4.30945
0
LINE
8
BLACK
6
CONTINUOUS
10
7.76811
20
-4.30945
11
7.72874
21
-4.30945
0
LINE
8
BLACK
6
CONTINUOUS
10
7.72874
20
-4.30945
11
7.72451
21
-4.30899
0
LINE
8
BLACK
6
CONTINUOUS
10
7.72451
20
-4.30899
11
7.71929
21
-4.30703
0
LINE
8
BLACK
6
CONTINUOUS
10
7.71929
20
-4.30703
11
7.71482
21
-4.30368
0
LINE
8
BLACK
6
CONTINUOUS
10
7.71482
20
-4.30368
11
7.71147
21
-4.29922
0
LINE
8
BLACK
6
CONTINUOUS
10
7.71147
20
-4.29922
11
7.70951
21
-4.29399
0
LINE
8
BLACK
6
CONTINUOUS
10
7.70951
20
-4.29399
11
7.70906
21
-4.28976
0
LINE
8
BLACK
6
CONTINUOUS
10
7.70906
20
-4.28976
11
7.70906
21
-4.25039
0
LINE
8
BLACK
6
CONTINUOUS
10
7.70906
20
-4.25039
11
7.70951
21
-4.24617
0
LINE
8
BLACK
6
CONTINUOUS
10
7.70951
20
-4.24617
11
7.71147
21
-4.24094
0
LINE
8
BLACK
6
CONTINUOUS
10
7.71147
20
-4.24094
11
7.71482
21
-4.23647
0
LINE
8
BLACK
6
CONTINUOUS
10
7.71482
20
-4.23647
11
7.71929
21
-4.23313
0
LINE
8
BLACK
6
CONTINUOUS
10
7.71929
20
-4.23313
11
7.72451
21
-4.23117
0
LINE
8
BLACK
6
CONTINUOUS
10
7.72451
20
-4.23117
11
7.72874
21
-4.23071
0
LINE
8
BLACK
6
CONTINUOUS
10
7.72874
20
-4.23071
11
7.76811
21
-4.23071
0
LINE
8
BLACK
6
CONTINUOUS
10
7.76811
20
-4.23071
11
7.77234
21
-4.23117
0
LINE
8
BLACK
6
CONTINUOUS
10
8.43268
20
-4.30945
11
8.35394
21
-4.30945
0
LINE
8
BLACK
6
CONTINUOUS
10
8.35394
20
-4.30945
11
8.35394
21
-4.23071
0
LINE
8
BLACK
6
CONTINUOUS
10
8.35394
20
-4.23071
11
8.43268
21
-4.23071
0
LINE
8
BLACK
6
CONTINUOUS
10
8.43268
20
-4.23071
11
8.43268
21
-4.30945
0
LINE
8
BLACK
6
CONTINUOUS
10
8.71722
20
-4.23117
11
8.72245
21
-4.23313
0
LINE
8
BLACK
6
CONTINUOUS
10
8.72245
20
-4.23313
11
8.72691
21
-4.23647
0
LINE
8
BLACK
6
CONTINUOUS
10
8.72691
20
-4.23647
11
8.73026
21
-4.24094
0
LINE
8
BLACK
6
CONTINUOUS
10
8.73026
20
-4.24094
11
8.73222
21
-4.24617
0
LINE
8
BLACK
6
CONTINUOUS
10
8.73222
20
-4.24617
11
8.73268
21
-4.25039
0
LINE
8
BLACK
6
CONTINUOUS
10
8.73268
20
-4.25039
11
8.73268
21
-4.28976
0
LINE
8
BLACK
6
CONTINUOUS
10
8.73268
20
-4.28976
11
8.73222
21
-4.29399
0
LINE
8
BLACK
6
CONTINUOUS
10
8.73222
20
-4.29399
11
8.73026
21
-4.29922
0
LINE
8
BLACK
6
CONTINUOUS
10
8.73026
20
-4.29922
11
8.72691
21
-4.30368
0
LINE
8
BLACK
6
CONTINUOUS
10
8.72691
20
-4.30368
11
8.72245
21
-4.30703
0
LINE
8
BLACK
6
CONTINUOUS
10
8.72245
20
-4.30703
11
8.71722
21
-4.30899
0
LINE
8
BLACK
6
CONTINUOUS
10
8.71722
20
-4.30899
11
8.71299
21
-4.30945
0
LINE
8
BLACK
6
CONTINUOUS
10
8.71299
20
-4.30945
11
8.67362
21
-4.30945
0
LINE
8
BLACK
6
CONTINUOUS
10
8.67362
20
-4.30945
11
8.66939
21
-4.30899
0
LINE
8
BLACK
6
CONTINUOUS
10
8.66939
20
-4.30899
11
8.66417
21
-4.30703
0
LINE
8
BLACK
6
CONTINUOUS
10
8.66417
20
-4.30703
11
8.6597
21
-4.30368
0
LINE
8
BLACK
6
CONTINUOUS
10
8.6597
20
-4.30368
11
8.65636
21
-4.29922
0
LINE
8
BLACK
6
CONTINUOUS
10
8.65636
20
-4.29922
11
8.6544
21
-4.29399
0
LINE
8
BLACK
6
CONTINUOUS
10
8.6544
20
-4.29399
11
8.65394
21
-4.28976
0
LINE
8
BLACK
6
CONTINUOUS
10
8.65394
20
-4.28976
11
8.65394
21
-4.25039
0
LINE
8
BLACK
6
CONTINUOUS
10
8.65394
20
-4.25039
11
8.6544
21
-4.24617
0
LINE
8
BLACK
6
CONTINUOUS
10
8.6544
20
-4.24617
11
8.65636
21
-4.24094
0
LINE
8
BLACK
6
CONTINUOUS
10
8.65636
20
-4.24094
11
8.6597
21
-4.23647
0
LINE
8
BLACK
6
CONTINUOUS
10
8.6597
20
-4.23647
11
8.66417
21
-4.23313
0
LINE
8
BLACK
6
CONTINUOUS
10
8.66417
20
-4.23313
11
8.66939
21
-4.23117
0
LINE
8
BLACK
6
CONTINUOUS
10
8.66939
20
-4.23117
11
8.67362
21
-4.23071
0
LINE
8
BLACK
6
CONTINUOUS
10
8.67362
20
-4.23071
11
8.71299
21
-4.23071
0
LINE
8
BLACK
6
CONTINUOUS
10
8.71299
20
-4.23071
11
8.71722
21
-4.23117
0
LINE
8
BLACK
6
CONTINUOUS
10
7.9902
20
-4.15435
11
7.99754
21
-4.15662
0
LINE
8
BLACK
6
CONTINUOUS
10
7.99754
20
-4.15662
11
8.0043
21
-4.16027
0
LINE
8
BLACK
6
CONTINUOUS
10
8.0043
20
-4.16027
11
8.01022
21
-4.16517
0
LINE
8
BLACK
6
CONTINUOUS
10
8.01022
20
-4.16517
11
8.01508
21
-4.17113
0
LINE
8
BLACK
6
CONTINUOUS
10
8.01508
20
-4.17113
11
8.01868
21
-4.17791
0
LINE
8
BLACK
6
CONTINUOUS
10
8.01868
20
-4.17791
11
8.0209
21
-4.18527
0
LINE
8
BLACK
6
CONTINUOUS
10
8.0209
20
-4.18527
11
8.02165
21
-4.19291
0
LINE
8
BLACK
6
CONTINUOUS
10
8.02165
20
-4.19291
11
8.02164
21
-4.19401
0
LINE
8
BLACK
6
CONTINUOUS
10
8.02164
20
-4.19401
11
8.02068
21
-4.20164
0
LINE
8
BLACK
6
CONTINUOUS
10
8.02068
20
-4.20164
11
8.01825
21
-4.20893
0
LINE
8
BLACK
6
CONTINUOUS
10
8.01825
20
-4.20893
11
8.01445
21
-4.21561
0
LINE
8
BLACK
6
CONTINUOUS
10
8.01445
20
-4.21561
11
8.00943
21
-4.22142
0
LINE
8
BLACK
6
CONTINUOUS
10
8.00943
20
-4.22142
11
8.00338
21
-4.22615
0
LINE
8
BLACK
6
CONTINUOUS
10
8.00338
20
-4.22615
11
7.99652
21
-4.22962
0
LINE
8
BLACK
6
CONTINUOUS
10
7.99652
20
-4.22962
11
7.98912
21
-4.23169
0
LINE
8
BLACK
6
CONTINUOUS
10
7.98912
20
-4.23169
11
7.98146
21
-4.23227
0
LINE
8
BLACK
6
CONTINUOUS
10
7.98146
20
-4.23227
11
7.97383
21
-4.23137
0
LINE
8
BLACK
6
CONTINUOUS
10
7.97383
20
-4.23137
11
7.96652
21
-4.22899
0
LINE
8
BLACK
6
CONTINUOUS
10
7.96652
20
-4.22899
11
7.95981
21
-4.22524
0
LINE
8
BLACK
6
CONTINUOUS
10
7.95981
20
-4.22524
11
7.95396
21
-4.22026
0
LINE
8
BLACK
6
CONTINUOUS
10
7.95396
20
-4.22026
11
7.94919
21
-4.21424
0
LINE
8
BLACK
6
CONTINUOUS
10
7.94919
20
-4.21424
11
7.94568
21
-4.20741
0
LINE
8
BLACK
6
CONTINUOUS
10
7.94568
20
-4.20741
11
7.94356
21
-4.20002
0
LINE
8
BLACK
6
CONTINUOUS
10
7.94356
20
-4.20002
11
7.94292
21
-4.19236
0
LINE
8
BLACK
6
CONTINUOUS
10
7.94292
20
-4.19236
11
7.94377
21
-4.18473
0
LINE
8
BLACK
6
CONTINUOUS
10
7.94377
20
-4.18473
11
7.9461
21
-4.1774
0
LINE
8
BLACK
6
CONTINUOUS
10
7.9461
20
-4.1774
11
7.9498
21
-4.17067
0
LINE
8
BLACK
6
CONTINUOUS
10
7.9498
20
-4.17067
11
7.95474
21
-4.16478
0
LINE
8
BLACK
6
CONTINUOUS
10
7.95474
20
-4.16478
11
7.96073
21
-4.15997
0
LINE
8
BLACK
6
CONTINUOUS
10
7.96073
20
-4.15997
11
7.96754
21
-4.15641
0
LINE
8
BLACK
6
CONTINUOUS
10
7.96754
20
-4.15641
11
7.97491
21
-4.15424
0
LINE
8
BLACK
6
CONTINUOUS
10
7.97491
20
-4.15424
11
7.98256
21
-4.15354
0
LINE
8
BLACK
6
CONTINUOUS
10
7.98256
20
-4.15354
11
7.9902
21
-4.15435
0
LINE
8
BLACK
6
CONTINUOUS
10
8.18705
20
-4.15435
11
8.19439
21
-4.15662
0
LINE
8
BLACK
6
CONTINUOUS
10
8.19439
20
-4.15662
11
8.20115
21
-4.16027
0
LINE
8
BLACK
6
CONTINUOUS
10
8.20115
20
-4.16027
11
8.20707
21
-4.16517
0
LINE
8
BLACK
6
CONTINUOUS
10
8.20707
20
-4.16517
11
8.21193
21
-4.17113
0
LINE
8
BLACK
6
CONTINUOUS
10
8.21193
20
-4.17113
11
8.21553
21
-4.17791
0
LINE
8
BLACK
6
CONTINUOUS
10
8.21553
20
-4.17791
11
8.21775
21
-4.18527
0
LINE
8
BLACK
6
CONTINUOUS
10
8.21775
20
-4.18527
11
8.2185
21
-4.19291
0
LINE
8
BLACK
6
CONTINUOUS
10
8.2185
20
-4.19291
11
8.21849
21
-4.19401
0
LINE
8
BLACK
6
CONTINUOUS
10
8.21849
20
-4.19401
11
8.21753
21
-4.20164
0
LINE
8
BLACK
6
CONTINUOUS
10
8.21753
20
-4.20164
11
8.2151
21
-4.20893
0
LINE
8
BLACK
6
CONTINUOUS
10
8.2151
20
-4.20893
11
8.2113
21
-4.21561
0
LINE
8
BLACK
6
CONTINUOUS
10
8.2113
20
-4.21561
11
8.20628
21
-4.22142
0
LINE
8
BLACK
6
CONTINUOUS
10
8.20628
20
-4.22142
11
8.20023
21
-4.22615
0
LINE
8
BLACK
6
CONTINUOUS
10
8.20023
20
-4.22615
11
8.19337
21
-4.22962
0
LINE
8
BLACK
6
CONTINUOUS
10
8.19337
20
-4.22962
11
8.18597
21
-4.23169
0
LINE
8
BLACK
6
CONTINUOUS
10
8.18597
20
-4.23169
11
8.17831
21
-4.23227
0
LINE
8
BLACK
6
CONTINUOUS
10
8.17831
20
-4.23227
11
8.17068
21
-4.23137
0
LINE
8
BLACK
6
CONTINUOUS
10
8.17068
20
-4.23137
11
8.16337
21
-4.22899
0
LINE
8
BLACK
6
CONTINUOUS
10
8.16337
20
-4.22899
11
8.15666
21
-4.22524
0
LINE
8
BLACK
6
CONTINUOUS
10
8.15666
20
-4.22524
11
8.15081
21
-4.22026
0
LINE
8
BLACK
6
CONTINUOUS
10
8.15081
20
-4.22026
11
8.14604
21
-4.21424
0
LINE
8
BLACK
6
CONTINUOUS
10
8.14604
20
-4.21424
11
8.14253
21
-4.20741
0
LINE
8
BLACK
6
CONTINUOUS
10
8.14253
20
-4.20741
11
8.14041
21
-4.20002
0
LINE
8
BLACK
6
CONTINUOUS
10
8.14041
20
-4.20002
11
8.13977
21
-4.19236
0
LINE
8
BLACK
6
CONTINUOUS
10
8.13977
20
-4.19236
11
8.14062
21
-4.18473
0
LINE
8
BLACK
6
CONTINUOUS
10
8.14062
20
-4.18473
11
8.14295
21
-4.1774
0
LINE
8
BLACK
6
CONTINUOUS
10
8.14295
20
-4.1774
11
8.14665
21
-4.17067
0
LINE
8
BLACK
6
CONTINUOUS
10
8.14665
20
-4.17067
11
8.15159
21
-4.16478
0
LINE
8
BLACK
6
CONTINUOUS
10
8.15159
20
-4.16478
11
8.15758
21
-4.15997
0
LINE
8
BLACK
6
CONTINUOUS
10
8.15758
20
-4.15997
11
8.16439
21
-4.15641
0
LINE
8
BLACK
6
CONTINUOUS
10
8.16439
20
-4.15641
11
8.17176
21
-4.15424
0
LINE
8
BLACK
6
CONTINUOUS
10
8.17176
20
-4.15424
11
8.17941
21
-4.15354
0
LINE
8
BLACK
6
CONTINUOUS
10
8.17941
20
-4.15354
11
8.18705
21
-4.15435
  0
ENDSEC
  0
EOF
