<?xml version="1.0" standalone="no"?>
 <!DOCTYPE svg PUBLIC "-//W3C//DTD SVG 1.1//EN" 
 "http://www.w3.org/Graphics/SVG/1.1/DTD/svg11.dtd"> 
<svg
  xmlns:svg="http://www.w3.org/2000/svg"
  xmlns="http://www.w3.org/2000/svg"
  xmlns:xlink="http://www.w3.org/1999/xlink"
  version="1.1"
  width="29.700220cm" height="21.000720cm" viewBox="0 0 297002200 210007200">
<title>SVG Picture created as preamp-B_Cu.svg date 2022/03/21 18:12:51 </title>
  <desc>Picture generated by PCBNEW </desc>
<g style="fill:#000000; fill-opacity:1.000000;stroke:#000000; stroke-opacity:1.000000;
stroke-linecap:round; stroke-linejoin:round;"
 transform="translate(0 0) scale(1 1)">
</g>
<g style="fill:#000000; fill-opacity:0.0; 
stroke:#000000; stroke-width:0.000000; stroke-opacity:1; 
stroke-linecap:round; stroke-linejoin:round;">
<g >
</g>
<g >
</g>
<g >
</g>
<g >
</g>
<g >
</g>
<g >
</g>
<g >
</g>
<g >
</g>
<g >
</g>
<g >
</g>
<g >
</g>
<g >
</g>
<g >
</g>
<g >
</g>
<g >
</g>
<g style="fill:#000000; fill-opacity:0.0; 
stroke:#000000; stroke-width:0.000000; stroke-opacity:1; 
stroke-linecap:round; stroke-linejoin:round;">
</g>
<g style="fill:#000000; fill-opacity:0.0; 
stroke:#000000; stroke-width:1.000000; stroke-opacity:1; 
stroke-linecap:round; stroke-linejoin:round;">
</g>
<g style="fill:#000000; fill-opacity:1.0; 
stroke:#000000; stroke-width:1.000000; stroke-opacity:1; 
stroke-linecap:round; stroke-linejoin:round;">
<path style="fill:#000000; fill-opacity:1.0; 
stroke:#000000; stroke-width:1.000000; stroke-opacity:1; 
stroke-linecap:round; stroke-linejoin:round;fill-rule:evenodd;"
d="M 117300001.000000,93049999.000000
117300001.000000,92030001.000000
120499999.000000,92030001.000000
120499999.000000,93049999.000000
Z" /> 
<path style="fill:#000000; fill-opacity:1.0; 
stroke:#000000; stroke-width:1.000000; stroke-opacity:1; 
stroke-linecap:round; stroke-linejoin:round;fill-rule:evenodd;"
d="M 117300001.000000,90509999.000000
117300001.000000,89490001.000000
120499999.000000,89490001.000000
120499999.000000,90509999.000000
Z" /> 
<path style="fill:#000000; fill-opacity:1.0; 
stroke:#000000; stroke-width:1.000000; stroke-opacity:1; 
stroke-linecap:round; stroke-linejoin:round;fill-rule:evenodd;"
d="M 117300001.000000,87969999.000000
117300001.000000,86950001.000000
120499999.000000,86950001.000000
120499999.000000,87969999.000000
Z" /> 
</g>
<g >
</g>
<g style="fill:#000000; fill-opacity:1.0; 
stroke:#000000; stroke-width:1.000000; stroke-opacity:1; 
stroke-linecap:round; stroke-linejoin:round;">
<path style="fill:#000000; fill-opacity:1.0; 
stroke:#000000; stroke-width:1.000000; stroke-opacity:1; 
stroke-linecap:round; stroke-linejoin:round;fill-rule:evenodd;"
d="M 114799999.000000,86950001.000000
114799999.000000,87969999.000000
111600001.000000,87969999.000000
111600001.000000,86950001.000000
Z" /> 
<path style="fill:#000000; fill-opacity:1.0; 
stroke:#000000; stroke-width:1.000000; stroke-opacity:1; 
stroke-linecap:round; stroke-linejoin:round;fill-rule:evenodd;"
d="M 114799999.000000,89490001.000000
114799999.000000,90509999.000000
111600001.000000,90509999.000000
111600001.000000,89490001.000000
Z" /> 
<path style="fill:#000000; fill-opacity:1.0; 
stroke:#000000; stroke-width:1.000000; stroke-opacity:1; 
stroke-linecap:round; stroke-linejoin:round;fill-rule:evenodd;"
d="M 114799999.000000,92030001.000000
114799999.000000,93049999.000000
111600001.000000,93049999.000000
111600001.000000,92030001.000000
Z" /> 
</g>
<g >
</g>
<g style="fill:#000000; fill-opacity:1.0; 
stroke:#000000; stroke-width:1.000000; stroke-opacity:1; 
stroke-linecap:round; stroke-linejoin:round;">
<circle cx="120500000.000000" cy="91480498.000000" r="400000.000000" /> 
</g>
<g style="fill:#000000; fill-opacity:1.0; 
stroke:#000000; stroke-width:21200.000000; stroke-opacity:1; 
stroke-linecap:round; stroke-linejoin:round;">
</g>
<g style="fill:#000000; fill-opacity:1.0; 
stroke:#000000; stroke-width:1.000000; stroke-opacity:1; 
stroke-linecap:round; stroke-linejoin:round;">
<circle cx="107500000.000000" cy="93000000.000000" r="400000.000000" /> 
</g>
<g style="fill:#000000; fill-opacity:1.0; 
stroke:#000000; stroke-width:21200.000000; stroke-opacity:1; 
stroke-linecap:round; stroke-linejoin:round;">
</g>
<g style="fill:#000000; fill-opacity:1.0; 
stroke:#000000; stroke-width:1.000000; stroke-opacity:1; 
stroke-linecap:round; stroke-linejoin:round;">
<circle cx="109000000.000000" cy="93000000.000000" r="400000.000000" /> 
</g>
<g style="fill:#000000; fill-opacity:1.0; 
stroke:#000000; stroke-width:21200.000000; stroke-opacity:1; 
stroke-linecap:round; stroke-linejoin:round;">
</g>
<g style="fill:#000000; fill-opacity:1.0; 
stroke:#000000; stroke-width:1.000000; stroke-opacity:1; 
stroke-linecap:round; stroke-linejoin:round;">
<circle cx="127500000.000000" cy="93000000.000000" r="400000.000000" /> 
</g>
<g style="fill:#000000; fill-opacity:1.0; 
stroke:#000000; stroke-width:21200.000000; stroke-opacity:1; 
stroke-linecap:round; stroke-linejoin:round;">
</g>
<g style="fill:#000000; fill-opacity:1.0; 
stroke:#000000; stroke-width:1.000000; stroke-opacity:1; 
stroke-linecap:round; stroke-linejoin:round;">
<circle cx="116896495.000000" cy="89997292.000000" r="400000.000000" /> 
</g>
<g style="fill:#000000; fill-opacity:1.0; 
stroke:#000000; stroke-width:21200.000000; stroke-opacity:1; 
stroke-linecap:round; stroke-linejoin:round;">
</g>
<g style="fill:#000000; fill-opacity:1.0; 
stroke:#000000; stroke-width:1.000000; stroke-opacity:1; 
stroke-linecap:round; stroke-linejoin:round;">
<circle cx="106000000.000000" cy="93000000.000000" r="400000.000000" /> 
</g>
<g style="fill:#000000; fill-opacity:1.0; 
stroke:#000000; stroke-width:21200.000000; stroke-opacity:1; 
stroke-linecap:round; stroke-linejoin:round;">
</g>
<g style="fill:#000000; fill-opacity:1.0; 
stroke:#000000; stroke-width:1.000000; stroke-opacity:1; 
stroke-linecap:round; stroke-linejoin:round;">
<circle cx="124500000.000000" cy="93000000.000000" r="400000.000000" /> 
</g>
<g style="fill:#000000; fill-opacity:1.0; 
stroke:#000000; stroke-width:21200.000000; stroke-opacity:1; 
stroke-linecap:round; stroke-linejoin:round;">
</g>
<g style="fill:#000000; fill-opacity:1.0; 
stroke:#000000; stroke-width:1.000000; stroke-opacity:1; 
stroke-linecap:round; stroke-linejoin:round;">
<circle cx="126000000.000000" cy="93000000.000000" r="400000.000000" /> 
</g>
<g style="fill:#000000; fill-opacity:1.0; 
stroke:#000000; stroke-width:21200.000000; stroke-opacity:1; 
stroke-linecap:round; stroke-linejoin:round;">
</g>
<g style="fill:#000000; fill-opacity:1.0; 
stroke:#000000; stroke-width:1.000000; stroke-opacity:1; 
stroke-linecap:round; stroke-linejoin:round;">
<circle cx="115300000.000000" cy="91800000.000000" r="400000.000000" /> 
</g>
<g style="fill:#000000; fill-opacity:1.0; 
stroke:#000000; stroke-width:21200.000000; stroke-opacity:1; 
stroke-linecap:round; stroke-linejoin:round;">
</g>
<g style="fill:#000000; fill-opacity:1.0; 
stroke:#000000; stroke-width:1.000000; stroke-opacity:1; 
stroke-linecap:round; stroke-linejoin:round;">
<circle cx="110900000.000000" cy="87400000.000000" r="400000.000000" /> 
</g>
<g style="fill:#000000; fill-opacity:1.0; 
stroke:#000000; stroke-width:21200.000000; stroke-opacity:1; 
stroke-linecap:round; stroke-linejoin:round;">
</g>
<g style="fill:#000000; fill-opacity:1.0; 
stroke:#000000; stroke-width:1.000000; stroke-opacity:1; 
stroke-linecap:round; stroke-linejoin:round;">
<circle cx="121400000.000000" cy="92500000.000000" r="400000.000000" /> 
</g>
<g style="fill:#000000; fill-opacity:1.0; 
stroke:#000000; stroke-width:21200.000000; stroke-opacity:1; 
stroke-linecap:round; stroke-linejoin:round;">
</g>
<g style="fill:#000000; fill-opacity:1.0; 
stroke:#000000; stroke-width:1.000000; stroke-opacity:1; 
stroke-linecap:round; stroke-linejoin:round;">
<circle cx="110900000.000000" cy="92500000.000000" r="400000.000000" /> 
</g>
<g style="fill:#000000; fill-opacity:1.0; 
stroke:#000000; stroke-width:21200.000000; stroke-opacity:1; 
stroke-linecap:round; stroke-linejoin:round;">
</g>
<g style="fill:#000000; fill-opacity:1.0; 
stroke:#000000; stroke-width:1.000000; stroke-opacity:1; 
stroke-linecap:round; stroke-linejoin:round;">
<circle cx="109400000.000000" cy="89000000.000000" r="400000.000000" /> 
</g>
<g style="fill:#000000; fill-opacity:1.0; 
stroke:#000000; stroke-width:21200.000000; stroke-opacity:1; 
stroke-linecap:round; stroke-linejoin:round;">
</g>
<g >
</g>
<g style="fill:#000000; fill-opacity:1.0; 
stroke:#000000; stroke-width:21200.000000; stroke-opacity:1; 
stroke-linecap:round; stroke-linejoin:round;">
</g>
<g style="fill:#000000; fill-opacity:1.0; 
stroke:#000000; stroke-width:200000.000000; stroke-opacity:1; 
stroke-linecap:round; stroke-linejoin:round;">
</g>
<g style="fill:#000000; fill-opacity:0.0; 
stroke:#000000; stroke-width:200000.000000; stroke-opacity:1; 
stroke-linecap:round; stroke-linejoin:round;">
<path d="M118900000 90000000
L116899203 90000000
" />
<path d="M116899203 90000000
L116896495 89997292
" />
<path d="M115400000 87800000
L115060000 87460000
" />
<path d="M110960000 87460000
L113200000 87460000
" />
<path d="M110900000 87400000
L110960000 87460000
" />
<path d="M115400000 91700000
L115400000 87800000
" />
<path d="M115300000 91800000
L115400000 91700000
" />
<path d="M115060000 87460000
L113200000 87460000
" />
<path d="M121400000 92500000
L121360000 92540000
" />
<path d="M121360000 92540000
L118900000 92540000
" />
<path d="M113200000 92540000
L110940000 92540000
" />
<path d="M110940000 92540000
L110900000 92500000
" />
<path d="M118900000 87200000
L118400000 86700000
" />
<path d="M109400000 87600000
L109400000 89000000
" />
<path d="M118400000 86700000
L110300000 86700000
" />
<path d="M118900000 87460000
L118900000 87200000
" />
<path d="M110300000 86700000
L109400000 87600000
" />
</g>
<g >
</g>
<g style="fill:#000000; fill-opacity:0.0; 
stroke:#000000; stroke-width:200000.000000; stroke-opacity:1; 
stroke-linecap:round; stroke-linejoin:round;">
<g >
</g>
<g style="fill:#000000; fill-opacity:1.0; 
stroke:#000000; stroke-width:1.000000; stroke-opacity:1; 
stroke-linecap:round; stroke-linejoin:round;">
<path style="fill:#000000; fill-opacity:1.0; 
stroke:#000000; stroke-width:1.000000; stroke-opacity:1; 
stroke-linecap:round; stroke-linejoin:round;fill-rule:evenodd;"
d="M 110008591.000000,86274002.000000
110055084.000000,86327658.000000
110065188.000000,86397932.000000
110035694.000000,86462512.000000
110029566.000000,86469095.000000
109185578.000000,87313084.000000
109170098.000000,87325586.000000
109166868.000000,87328525.000000
109158118.000000,87334175.000000
109138991.000000,87358438.000000
109135441.000000,87362433.000000
109135540.000000,87362517.000000
109132182.000000,87366480.000000
109128506.000000,87370156.000000
109125483.000000,87374385.000000
109125483.000000,87374386.000000
109118146.000000,87384652.000000
109114585.000000,87389395.000000
109091503.000000,87418675.000000
109091501.000000,87418679.000000
109085054.000000,87426857.000000
109082221.000000,87434925.000000
109077247.000000,87441885.000000
109074263.000000,87451863.000000
109063580.000000,87487586.000000
109061744.000000,87493235.000000
109045950.000000,87538208.000000
109045500.000000,87543404.000000
109045500.000000,87546109.000000
109045403.000000,87548365.000000
109045260.000000,87548841.000000
109045214.000000,87548839.000000
109045201.000000,87549038.000000
109043432.000000,87554955.000000
109044748.000000,87588450.000000
109045403.000000,87605124.000000
109045500.000000,87610070.000000
109045500.000000,88383378.000000
109025498.000000,88451499.000000
109002330.000000,88478327.000000
108910039.000000,88558838.000000
108818950.000000,88688444.000000
108761406.000000,88836037.000000
108760414.000000,88843570.000000
108760414.000000,88843571.000000
108741970.000000,88983672.000000
108740729.000000,88993096.000000
108758113.000000,89150553.000000
108812553.000000,89299319.000000
108816789.000000,89305622.000000
108816789.000000,89305623.000000
108871908.000000,89387648.000000
108900908.000000,89430805.000000
108906527.000000,89435918.000000
108906528.000000,89435919.000000
108916872.000000,89445331.000000
109018076.000000,89537419.000000
109157293.000000,89613008.000000
109310522.000000,89653207.000000
109394477.000000,89654526.000000
109461319.000000,89655576.000000
109461322.000000,89655576.000000
109468916.000000,89655695.000000
109623332.000000,89620329.000000
109693742.000000,89584917.000000
109758072.000000,89552563.000000
109758075.000000,89552561.000000
109764855.000000,89549151.000000
109770626.000000,89544222.000000
109770629.000000,89544220.000000
109879536.000000,89451204.000000
109879536.000000,89451203.000000
109885314.000000,89446269.000000
109977755.000000,89317624.000000
110036842.000000,89170641.000000
110054692.000000,89045214.000000
110058581.000000,89017891.000000
110058581.000000,89017888.000000
110059162.000000,89013807.000000
110059307.000000,89000000.000000
110057174.000000,88982369.000000
110041188.000000,88850273.000000
110040276.000000,88842733.000000
109984280.000000,88694546.000000
109894553.000000,88563992.000000
109796681.000000,88476792.000000
109759126.000000,88416542.000000
109754500.000000,88382715.000000
109754500.000000,87799030.000000
109774502.000000,87730909.000000
109791405.000000,87709935.000000
110042017.000000,87459323.000000
110104329.000000,87425297.000000
110175144.000000,87430362.000000
110231980.000000,87472909.000000
110256351.000000,87534593.000000
110257194.000000,87542226.000000
110258113.000000,87550553.000000
110260723.000000,87557684.000000
110260723.000000,87557686.000000
110309883.000000,87692022.000000
110312553.000000,87699319.000000
110316789.000000,87705622.000000
110316789.000000,87705623.000000
110384638.000000,87806592.000000
110400908.000000,87830805.000000
110406527.000000,87835918.000000
110406528.000000,87835919.000000
110455273.000000,87880273.000000
110518076.000000,87937419.000000
110657293.000000,88013008.000000
110810522.000000,88053207.000000
110894477.000000,88054526.000000
110961319.000000,88055576.000000
110961322.000000,88055576.000000
110968916.000000,88055695.000000
111123332.000000,88020329.000000
111183665.000000,87989985.000000
111253508.000000,87977246.000000
111319152.000000,88004291.000000
111356687.000000,88054333.000000
111357844.000000,88057126.000000
111360266.000000,88069301.000000
111416516.000000,88153484.000000
111500699.000000,88209734.000000
111574933.000000,88224500.000000
113199737.000000,88224500.000000
114825066.000000,88224499.000000
114894921.000000,88210605.000000
114965634.000000,88216934.000000
115021701.000000,88260489.000000
115045500.000000,88334184.000000
115045500.000000,88863016.000000
115025498.000000,88931137.000000
114971842.000000,88977630.000000
114905893.000000,88988279.000000
114851488.000000,88982369.000000
114844672.000000,88982000.000000
113472115.000000,88982000.000000
113456876.000000,88986475.000000
113455671.000000,88987865.000000
113454000.000000,88995548.000000
113454000.000000,90999884.000000
113458475.000000,91015123.000000
113459865.000000,91016328.000000
113467548.000000,91017999.000000
114844669.000000,91017999.000000
114851482.000000,91017630.000000
114859374.000000,91016773.000000
114929256.000000,91029305.000000
114981269.000000,91077629.000000
114998899.000000,91146401.000000
114976550.000000,91213788.000000
114941080.000000,91244937.000000
114942446.000000,91246946.000000
114936159.000000,91251219.000000
114929414.000000,91254700.000000
114810039.000000,91358838.000000
114718950.000000,91488444.000000
114661406.000000,91636037.000000
114660414.000000,91643572.000000
114657469.000000,91665944.000000
114628748.000000,91730872.000000
114569484.000000,91769964.000000
114532547.000000,91775500.000000
111737663.000000,91775501.000000
111574934.000000,91775501.000000
111539182.000000,91782612.000000
111512874.000000,91787844.000000
111512872.000000,91787845.000000
111500699.000000,91790266.000000
111490379.000000,91797161.000000
111490378.000000,91797162.000000
111486131.000000,91800000.000000
111416516.000000,91846516.000000
111409623.000000,91856832.000000
111409622.000000,91856833.000000
111387735.000000,91889588.000000
111333258.000000,91935115.000000
111262814.000000,91943962.000000
111224012.000000,91930939.000000
111142988.000000,91888039.000000
111142989.000000,91888039.000000
111136274.000000,91884484.000000
110982633.000000,91845892.000000
110975034.000000,91845852.000000
110975033.000000,91845852.000000
110909181.000000,91845507.000000
110824221.000000,91845062.000000
110816841.000000,91846834.000000
110816839.000000,91846834.000000
110677563.000000,91880271.000000
110677560.000000,91880272.000000
110670184.000000,91882043.000000
110529414.000000,91954700.000000
110410039.000000,92058838.000000
110318950.000000,92188444.000000
110261406.000000,92336037.000000
110260414.000000,92343570.000000
110260414.000000,92343571.000000
110245653.000000,92455695.000000
110240729.000000,92493096.000000
110258113.000000,92650553.000000
110312553.000000,92799319.000000
110400908.000000,92930805.000000
110406527.000000,92935918.000000
110406528.000000,92935919.000000
110435823.000000,92962575.000000
110518076.000000,93037419.000000
110657293.000000,93113008.000000
110810522.000000,93153207.000000
110894477.000000,93154526.000000
110961319.000000,93155576.000000
110961322.000000,93155576.000000
110968916.000000,93155695.000000
111123332.000000,93120329.000000
111190521.000000,93086537.000000
111260364.000000,93073799.000000
111326008.000000,93100843.000000
111359512.000000,93145511.000000
111360266.000000,93149301.000000
111367161.000000,93159620.000000
111367162.000000,93159622.000000
111407516.000000,93220015.000000
111416516.000000,93233484.000000
111500699.000000,93289734.000000
111574933.000000,93304500.000000
113199737.000000,93304500.000000
114825066.000000,93304499.000000
114860818.000000,93297388.000000
114887126.000000,93292156.000000
114887128.000000,93292155.000000
114899301.000000,93289734.000000
114909621.000000,93282839.000000
114909622.000000,93282838.000000
114973168.000000,93240377.000000
114983484.000000,93233484.000000
115039734.000000,93149301.000000
115054500.000000,93075067.000000
115054499.000000,92575349.000000
115074501.000000,92507229.000000
115128156.000000,92460736.000000
115197597.000000,92450515.000000
115203170.000000,92451278.000000
115210522.000000,92453207.000000
115297312.000000,92454570.000000
115361319.000000,92455576.000000
115361322.000000,92455576.000000
115368916.000000,92455695.000000
115523332.000000,92420329.000000
115593742.000000,92384917.000000
115658072.000000,92352563.000000
115658075.000000,92352561.000000
115664855.000000,92349151.000000
115670626.000000,92344222.000000
115670629.000000,92344220.000000
115779536.000000,92251204.000000
115779536.000000,92251203.000000
115785314.000000,92246269.000000
115877755.000000,92117624.000000
115923057.000000,92004933.000000
117045500.000000,92004933.000000
117045501.000000,93075066.000000
117047783.000000,93086537.000000
117054504.000000,93120329.000000
117060266.000000,93149301.000000
117067161.000000,93159620.000000
117067162.000000,93159622.000000
117107516.000000,93220015.000000
117116516.000000,93233484.000000
117200699.000000,93289734.000000
117274933.000000,93304500.000000
118899737.000000,93304500.000000
120525066.000000,93304499.000000
120560818.000000,93297388.000000
120587126.000000,93292156.000000
120587128.000000,93292155.000000
120599301.000000,93289734.000000
120609621.000000,93282839.000000
120609622.000000,93282838.000000
120673168.000000,93240377.000000
120683484.000000,93233484.000000
120739734.000000,93149301.000000
120754500.000000,93075067.000000
120754500.000000,93069440.000000
120781009.000000,93003789.000000
120838964.000000,92962779.000000
120909890.000000,92959612.000000
120964619.000000,92988777.000000
121018076.000000,93037419.000000
121157293.000000,93113008.000000
121310522.000000,93153207.000000
121394477.000000,93154526.000000
121461319.000000,93155576.000000
121461322.000000,93155576.000000
121468916.000000,93155695.000000
121623332.000000,93120329.000000
121701261.000000,93081135.000000
121758072.000000,93052563.000000
121758075.000000,93052561.000000
121764855.000000,93049151.000000
121770626.000000,93044222.000000
121770629.000000,93044220.000000
121879536.000000,92951204.000000
121879536.000000,92951203.000000
121885314.000000,92946269.000000
121977755.000000,92817624.000000
122036842.000000,92670641.000000
122042965.000000,92627615.000000
122058581.000000,92517891.000000
122058581.000000,92517888.000000
122059162.000000,92513807.000000
122059307.000000,92500000.000000
122040276.000000,92342733.000000
121984280.000000,92194546.000000
121975814.000000,92182228.000000
121898855.000000,92070251.000000
121898854.000000,92070249.000000
121894553.000000,92063992.000000
121776275.000000,91958611.000000
121768889.000000,91954700.000000
121642988.000000,91888039.000000
121642989.000000,91888039.000000
121636274.000000,91884484.000000
121482633.000000,91845892.000000
121475034.000000,91845852.000000
121475033.000000,91845852.000000
121409181.000000,91845507.000000
121324221.000000,91845062.000000
121316841.000000,91846834.000000
121316839.000000,91846834.000000
121177563.000000,91880271.000000
121177560.000000,91880272.000000
121170184.000000,91882043.000000
121029414.000000,91954700.000000
120954230.000000,92020288.000000
120950596.000000,92023458.000000
120886114.000000,92053166.000000
120815806.000000,92043297.000000
120761996.000000,91996983.000000
120744187.000000,91953088.000000
120742156.000000,91942874.000000
120742155.000000,91942872.000000
120739734.000000,91930699.000000
120683484.000000,91846516.000000
120599301.000000,91790266.000000
120525067.000000,91775500.000000
118900263.000000,91775500.000000
117274934.000000,91775501.000000
117239182.000000,91782612.000000
117212874.000000,91787844.000000
117212872.000000,91787845.000000
117200699.000000,91790266.000000
117190379.000000,91797161.000000
117190378.000000,91797162.000000
117186131.000000,91800000.000000
117116516.000000,91846516.000000
117060266.000000,91930699.000000
117045500.000000,92004933.000000
115923057.000000,92004933.000000
115936842.000000,91970641.000000
115953039.000000,91856832.000000
115958581.000000,91817891.000000
115958581.000000,91817888.000000
115959162.000000,91813807.000000
115959307.000000,91800000.000000
115940276.000000,91642733.000000
115884280.000000,91494546.000000
115794553.000000,91363992.000000
115788876.000000,91358934.000000
115785987.000000,91355657.000000
115755941.000000,91291331.000000
115754500.000000,91272330.000000
115754500.000000,90554669.000000
116792001.000000,90554669.000000
116792371.000000,90561490.000000
116797895.000000,90612352.000000
116801521.000000,90627604.000000
116846676.000000,90748054.000000
116855214.000000,90763649.000000
116931715.000000,90865724.000000
116944276.000000,90878285.000000
117046351.000000,90954786.000000
117061946.000000,90963324.000000
117182394.000000,91008478.000000
117197649.000000,91012105.000000
117248514.000000,91017631.000000
117255328.000000,91018000.000000
118627885.000000,91018000.000000
118643124.000000,91013525.000000
118644329.000000,91012135.000000
118646000.000000,91004452.000000
118646000.000000,90999884.000000
119154000.000000,90999884.000000
119158475.000000,91015123.000000
119159865.000000,91016328.000000
119167548.000000,91017999.000000
120544669.000000,91017999.000000
120551490.000000,91017629.000000
120602352.000000,91012105.000000
120617604.000000,91008479.000000
120738054.000000,90963324.000000
120753649.000000,90954786.000000
120855724.000000,90878285.000000
120868285.000000,90865724.000000
120944786.000000,90763649.000000
120953324.000000,90748054.000000
120998478.000000,90627606.000000
121002105.000000,90612351.000000
121007631.000000,90561486.000000
121008000.000000,90554672.000000
121008000.000000,90272115.000000
121003525.000000,90256876.000000
121002135.000000,90255671.000000
120994452.000000,90254000.000000
119172115.000000,90254000.000000
119156876.000000,90258475.000000
119155671.000000,90259865.000000
119154000.000000,90267548.000000
119154000.000000,90999884.000000
118646000.000000,90999884.000000
118646000.000000,90272115.000000
118641525.000000,90256876.000000
118640135.000000,90255671.000000
118632452.000000,90254000.000000
116810116.000000,90254000.000000
116794877.000000,90258475.000000
116793672.000000,90259865.000000
116792001.000000,90267548.000000
116792001.000000,90554669.000000
115754500.000000,90554669.000000
115754500.000000,89727885.000000
116792000.000000,89727885.000000
116796475.000000,89743124.000000
116797865.000000,89744329.000000
116805548.000000,89746000.000000
118627885.000000,89746000.000000
118643124.000000,89741525.000000
118644329.000000,89740135.000000
118646000.000000,89732452.000000
118646000.000000,89727885.000000
119154000.000000,89727885.000000
119158475.000000,89743124.000000
119159865.000000,89744329.000000
119167548.000000,89746000.000000
120989884.000000,89746000.000000
121005123.000000,89741525.000000
121006328.000000,89740135.000000
121007999.000000,89732452.000000
121007999.000000,89445331.000000
121007629.000000,89438510.000000
121002105.000000,89387648.000000
120998479.000000,89372396.000000
120953324.000000,89251946.000000
120944786.000000,89236351.000000
120868285.000000,89134276.000000
120855724.000000,89121715.000000
120753649.000000,89045214.000000
120738054.000000,89036676.000000
120617606.000000,88991522.000000
120602351.000000,88987895.000000
120551486.000000,88982369.000000
120544672.000000,88982000.000000
119172115.000000,88982000.000000
119156876.000000,88986475.000000
119155671.000000,88987865.000000
119154000.000000,88995548.000000
119154000.000000,89727885.000000
118646000.000000,89727885.000000
118646000.000000,89000116.000000
118641525.000000,88984877.000000
118640135.000000,88983672.000000
118632452.000000,88982001.000000
117255331.000000,88982001.000000
117248510.000000,88982371.000000
117197648.000000,88987895.000000
117182396.000000,88991521.000000
117061946.000000,89036676.000000
117046351.000000,89045214.000000
116944276.000000,89121715.000000
116931715.000000,89134276.000000
116855214.000000,89236351.000000
116846676.000000,89251946.000000
116801522.000000,89372394.000000
116797895.000000,89387649.000000
116792369.000000,89438514.000000
116792000.000000,89445328.000000
116792000.000000,89727885.000000
115754500.000000,89727885.000000
115754500.000000,87851258.000000
115756606.000000,87831464.000000
115756811.000000,87827111.000000
115759003.000000,87816931.000000
115755373.000000,87786262.000000
115755058.000000,87780917.000000
115754928.000000,87780928.000000
115754500.000000,87775750.000000
115754500.000000,87770549.000000
115751573.000000,87752963.000000
115750736.000000,87747086.000000
115746355.000000,87710071.000000
115745131.000000,87699730.000000
115741430.000000,87692022.000000
115740025.000000,87683583.000000
115717380.000000,87641615.000000
115714684.000000,87636324.000000
115697474.000000,87600483.000000
115697472.000000,87600480.000000
115694045.000000,87593343.000000
115690689.000000,87589350.000000
115688763.000000,87587424.000000
115687250.000000,87585774.000000
115687014.000000,87585338.000000
115687049.000000,87585306.000000
115686916.000000,87585155.000000
115683983.000000,87579720.000000
115647131.000000,87545654.000000
115643565.000000,87542226.000000
115520014.000000,87418675.000000
115370934.000000,87269596.000000
115336909.000000,87207283.000000
115341973.000000,87136468.000000
115384520.000000,87079632.000000
115451040.000000,87054821.000000
115460029.000000,87054500.000000
116919500.000000,87054500.000000
116987621.000000,87074502.000000
117034114.000000,87128158.000000
117045500.000000,87180500.000000
117045501.000000,87585306.000000
117045501.000000,87995066.000000
117047336.000000,88004291.000000
117057560.000000,88055695.000000
117060266.000000,88069301.000000
117116516.000000,88153484.000000
117200699.000000,88209734.000000
117274933.000000,88224500.000000
118899737.000000,88224500.000000
120525066.000000,88224499.000000
120563101.000000,88216934.000000
120587126.000000,88212156.000000
120587128.000000,88212155.000000
120599301.000000,88209734.000000
120609621.000000,88202839.000000
120609622.000000,88202838.000000
120673168.000000,88160377.000000
120683484.000000,88153484.000000
120739734.000000,88069301.000000
120754500.000000,87995067.000000
120754499.000000,86924934.000000
120739734.000000,86850699.000000
120708013.000000,86803225.000000
120690377.000000,86776832.000000
120683484.000000,86766516.000000
120599301.000000,86710266.000000
120525067.000000,86695500.000000
120352502.000000,86695500.000000
118949029.000000,86695501.000000
118880908.000000,86675499.000000
118859934.000000,86658596.000000
118686918.000000,86485580.000000
118674406.000000,86470088.000000
118671472.000000,86466864.000000
118667924.000000,86461368.000000
118665827.000000,86458120.000000
118666221.000000,86457866.000000
118638541.000000,86400954.000000
118646937.000000,86330455.000000
118692113.000000,86275687.000000
118762787.000000,86254000.000000
129962575.000000,86254000.000000
129987153.000000,86256421.000000
130000000.000000,86258976.000000
130012172.000000,86256555.000000
130019754.000000,86256555.000000
130032104.000000,86257162.000000
130133188.000000,86267118.000000
130157408.000000,86271935.000000
130273617.000000,86307187.000000
130296418.000000,86316631.000000
130403517.000000,86373876.000000
130424047.000000,86387594.000000
130517909.000000,86464626.000000
130535374.000000,86482091.000000
130612406.000000,86575953.000000
130626124.000000,86596483.000000
130683369.000000,86703582.000000
130692813.000000,86726383.000000
130728065.000000,86842592.000000
130732882.000000,86866812.000000
130742838.000000,86967896.000000
130743445.000000,86980246.000000
130743445.000000,86987828.000000
130741024.000000,87000000.000000
130743445.000000,87012170.000000
130743579.000000,87012844.000000
130746000.000000,87037425.000000
130746000.000000,92962575.000000
130743579.000000,92987153.000000
130741024.000000,93000000.000000
130743445.000000,93012172.000000
130743445.000000,93019754.000000
130742838.000000,93032104.000000
130732882.000000,93133188.000000
130728065.000000,93157408.000000
130692813.000000,93273617.000000
130683369.000000,93296418.000000
130626124.000000,93403517.000000
130612406.000000,93424047.000000
130535374.000000,93517909.000000
130517909.000000,93535374.000000
130424047.000000,93612406.000000
130403517.000000,93626124.000000
130296418.000000,93683369.000000
130273617.000000,93692813.000000
130157408.000000,93728065.000000
130133188.000000,93732882.000000
130032104.000000,93742838.000000
130019754.000000,93743445.000000
130012172.000000,93743445.000000
130000000.000000,93741024.000000
129987153.000000,93743579.000000
129962575.000000,93746000.000000
102037425.000000,93746000.000000
102012847.000000,93743579.000000
102000000.000000,93741024.000000
101987828.000000,93743445.000000
101980246.000000,93743445.000000
101967896.000000,93742838.000000
101866812.000000,93732882.000000
101842592.000000,93728065.000000
101726383.000000,93692813.000000
101703582.000000,93683369.000000
101596483.000000,93626124.000000
101575953.000000,93612406.000000
101482091.000000,93535374.000000
101464626.000000,93517909.000000
101387594.000000,93424047.000000
101373876.000000,93403517.000000
101316631.000000,93296418.000000
101307187.000000,93273617.000000
101271935.000000,93157408.000000
101267118.000000,93133188.000000
101257162.000000,93032104.000000
101256555.000000,93019754.000000
101256555.000000,93012172.000000
101258976.000000,93000000.000000
101256421.000000,92987153.000000
101254000.000000,92962575.000000
101254000.000000,90554669.000000
111092001.000000,90554669.000000
111092371.000000,90561490.000000
111097895.000000,90612352.000000
111101521.000000,90627604.000000
111146676.000000,90748054.000000
111155214.000000,90763649.000000
111231715.000000,90865724.000000
111244276.000000,90878285.000000
111346351.000000,90954786.000000
111361946.000000,90963324.000000
111482394.000000,91008478.000000
111497649.000000,91012105.000000
111548514.000000,91017631.000000
111555328.000000,91018000.000000
112927885.000000,91018000.000000
112943124.000000,91013525.000000
112944329.000000,91012135.000000
112946000.000000,91004452.000000
112946000.000000,90272115.000000
112941525.000000,90256876.000000
112940135.000000,90255671.000000
112932452.000000,90254000.000000
111110116.000000,90254000.000000
111094877.000000,90258475.000000
111093672.000000,90259865.000000
111092001.000000,90267548.000000
111092001.000000,90554669.000000
101254000.000000,90554669.000000
101254000.000000,89727885.000000
111092000.000000,89727885.000000
111096475.000000,89743124.000000
111097865.000000,89744329.000000
111105548.000000,89746000.000000
112927885.000000,89746000.000000
112943124.000000,89741525.000000
112944329.000000,89740135.000000
112946000.000000,89732452.000000
112946000.000000,89000116.000000
112941525.000000,88984877.000000
112940135.000000,88983672.000000
112932452.000000,88982001.000000
111555331.000000,88982001.000000
111548510.000000,88982371.000000
111497648.000000,88987895.000000
111482396.000000,88991521.000000
111361946.000000,89036676.000000
111346351.000000,89045214.000000
111244276.000000,89121715.000000
111231715.000000,89134276.000000
111155214.000000,89236351.000000
111146676.000000,89251946.000000
111101522.000000,89372394.000000
111097895.000000,89387649.000000
111092369.000000,89438514.000000
111092000.000000,89445328.000000
111092000.000000,89727885.000000
101254000.000000,89727885.000000
101254000.000000,87037425.000000
101256421.000000,87012844.000000
101256555.000000,87012170.000000
101258976.000000,87000000.000000
101256555.000000,86987828.000000
101256555.000000,86980246.000000
101257162.000000,86967896.000000
101267118.000000,86866812.000000
101271935.000000,86842592.000000
101307187.000000,86726383.000000
101316631.000000,86703582.000000
101373876.000000,86596483.000000
101387594.000000,86575953.000000
101464626.000000,86482091.000000
101482091.000000,86464626.000000
101575953.000000,86387594.000000
101596483.000000,86373876.000000
101703582.000000,86316631.000000
101726383.000000,86307187.000000
101842592.000000,86271935.000000
101866812.000000,86267118.000000
101967896.000000,86257162.000000
101980246.000000,86256555.000000
101987828.000000,86256555.000000
102000000.000000,86258976.000000
102012847.000000,86256421.000000
102037425.000000,86254000.000000
109940470.000000,86254000.000000
Z" /> 
</g>
</g>
</g> 
</svg>
