<?xml version="1.0" standalone="no"?>
 <!DOCTYPE svg PUBLIC "-//W3C//DTD SVG 1.1//EN" 
 "http://www.w3.org/Graphics/SVG/1.1/DTD/svg11.dtd"> 
<svg
  xmlns:svg="http://www.w3.org/2000/svg"
  xmlns="http://www.w3.org/2000/svg"
  xmlns:xlink="http://www.w3.org/1999/xlink"
  version="1.1"
  width="29.700220cm" height="21.000720cm" viewBox="0 0 297002200 210007200">
<title>SVG Picture created as preamp-F_Cu.svg date 2022/03/21 18:47:40 </title>
  <desc>Picture generated by PCBNEW </desc>
<g style="fill:#000000; fill-opacity:1.000000;stroke:#000000; stroke-opacity:1.000000;
stroke-linecap:round; stroke-linejoin:round;"
 transform="translate(0 0) scale(1 1)">
</g>
<g style="fill:#000000; fill-opacity:0.0; 
stroke:#000000; stroke-width:0.000000; stroke-opacity:1; 
stroke-linecap:round; stroke-linejoin:round;">
<g >
</g>
<g style="fill:#000000; fill-opacity:0.0; 
stroke:#000000; stroke-width:1.000000; stroke-opacity:1; 
stroke-linecap:round; stroke-linejoin:round;">
</g>
<g style="fill:#000000; fill-opacity:1.0; 
stroke:#000000; stroke-width:1.000000; stroke-opacity:1; 
stroke-linecap:round; stroke-linejoin:round;">
<path style="fill:#000000; fill-opacity:1.0; 
stroke:#000000; stroke-width:1.000000; stroke-opacity:1; 
stroke-linecap:round; stroke-linejoin:round;fill-rule:evenodd;"
d="M 122525000.000000,90750000.000000
122429329.000000,90730970.000000
122348223.000000,90676777.000000
122294030.000000,90595671.000000
122275000.000000,90500000.000000
122275000.000000,90000000.000000
122294030.000000,89904329.000000
122348223.000000,89823223.000000
122429329.000000,89769030.000000
122525000.000000,89750000.000000
123475000.000000,89750000.000000
123570671.000000,89769030.000000
123651777.000000,89823223.000000
123705970.000000,89904329.000000
123725000.000000,90000000.000000
123725000.000000,90500000.000000
123705970.000000,90595671.000000
123651777.000000,90676777.000000
123570671.000000,90730970.000000
123475000.000000,90750000.000000
Z" /> 
<path style="fill:#000000; fill-opacity:1.0; 
stroke:#000000; stroke-width:1.000000; stroke-opacity:1; 
stroke-linecap:round; stroke-linejoin:round;fill-rule:evenodd;"
d="M 122525000.000000,88850000.000000
122429329.000000,88830970.000000
122348223.000000,88776777.000000
122294030.000000,88695671.000000
122275000.000000,88600000.000000
122275000.000000,88100000.000000
122294030.000000,88004329.000000
122348223.000000,87923223.000000
122429329.000000,87869030.000000
122525000.000000,87850000.000000
123475000.000000,87850000.000000
123570671.000000,87869030.000000
123651777.000000,87923223.000000
123705970.000000,88004329.000000
123725000.000000,88100000.000000
123725000.000000,88600000.000000
123705970.000000,88695671.000000
123651777.000000,88776777.000000
123570671.000000,88830970.000000
123475000.000000,88850000.000000
Z" /> 
</g>
<g >
</g>
<g style="fill:#000000; fill-opacity:1.0; 
stroke:#000000; stroke-width:1.000000; stroke-opacity:1; 
stroke-linecap:round; stroke-linejoin:round;">
<path style="fill:#000000; fill-opacity:1.0; 
stroke:#000000; stroke-width:1.000000; stroke-opacity:1; 
stroke-linecap:round; stroke-linejoin:round;fill-rule:evenodd;"
d="M 114675000.000000,87350000.000000
114770671.000000,87369030.000000
114851777.000000,87423223.000000
114905970.000000,87504329.000000
114925000.000000,87600000.000000
114925000.000000,88100000.000000
114905970.000000,88195671.000000
114851777.000000,88276777.000000
114770671.000000,88330970.000000
114675000.000000,88350000.000000
113725000.000000,88350000.000000
113629329.000000,88330970.000000
113548223.000000,88276777.000000
113494030.000000,88195671.000000
113475000.000000,88100000.000000
113475000.000000,87600000.000000
113494030.000000,87504329.000000
113548223.000000,87423223.000000
113629329.000000,87369030.000000
113725000.000000,87350000.000000
Z" /> 
<path style="fill:#000000; fill-opacity:1.0; 
stroke:#000000; stroke-width:1.000000; stroke-opacity:1; 
stroke-linecap:round; stroke-linejoin:round;fill-rule:evenodd;"
d="M 114675000.000000,89250000.000000
114770671.000000,89269030.000000
114851777.000000,89323223.000000
114905970.000000,89404329.000000
114925000.000000,89500000.000000
114925000.000000,90000000.000000
114905970.000000,90095671.000000
114851777.000000,90176777.000000
114770671.000000,90230970.000000
114675000.000000,90250000.000000
113725000.000000,90250000.000000
113629329.000000,90230970.000000
113548223.000000,90176777.000000
113494030.000000,90095671.000000
113475000.000000,90000000.000000
113475000.000000,89500000.000000
113494030.000000,89404329.000000
113548223.000000,89323223.000000
113629329.000000,89269030.000000
113725000.000000,89250000.000000
Z" /> 
</g>
<g >
</g>
<g >
</g>
<g style="fill:#000000; fill-opacity:1.0; 
stroke:#000000; stroke-width:1.000000; stroke-opacity:1; 
stroke-linecap:round; stroke-linejoin:round;">
<path style="fill:#000000; fill-opacity:1.0; 
stroke:#000000; stroke-width:1.000000; stroke-opacity:1; 
stroke-linecap:round; stroke-linejoin:round;fill-rule:evenodd;"
d="M 114470000.000000,91040000.000000
114523576.000000,91050657.000000
114568995.000000,91081005.000000
114599343.000000,91126424.000000
114610000.000000,91180000.000000
114610000.000000,91460000.000000
114599343.000000,91513576.000000
114568995.000000,91558995.000000
114523576.000000,91589343.000000
114470000.000000,91600000.000000
114130000.000000,91600000.000000
114076424.000000,91589343.000000
114031005.000000,91558995.000000
114000657.000000,91513576.000000
113990000.000000,91460000.000000
113990000.000000,91180000.000000
114000657.000000,91126424.000000
114031005.000000,91081005.000000
114076424.000000,91050657.000000
114130000.000000,91040000.000000
Z" /> 
<path style="fill:#000000; fill-opacity:1.0; 
stroke:#000000; stroke-width:1.000000; stroke-opacity:1; 
stroke-linecap:round; stroke-linejoin:round;fill-rule:evenodd;"
d="M 114470000.000000,92000000.000000
114523576.000000,92010657.000000
114568995.000000,92041005.000000
114599343.000000,92086424.000000
114610000.000000,92140000.000000
114610000.000000,92420000.000000
114599343.000000,92473576.000000
114568995.000000,92518995.000000
114523576.000000,92549343.000000
114470000.000000,92560000.000000
114130000.000000,92560000.000000
114076424.000000,92549343.000000
114031005.000000,92518995.000000
114000657.000000,92473576.000000
113990000.000000,92420000.000000
113990000.000000,92140000.000000
114000657.000000,92086424.000000
114031005.000000,92041005.000000
114076424.000000,92010657.000000
114130000.000000,92000000.000000
Z" /> 
</g>
<g >
</g>
<g style="fill:#000000; fill-opacity:1.0; 
stroke:#000000; stroke-width:1.000000; stroke-opacity:1; 
stroke-linecap:round; stroke-linejoin:round;">
<path style="fill:#000000; fill-opacity:1.0; 
stroke:#000000; stroke-width:1.000000; stroke-opacity:1; 
stroke-linecap:round; stroke-linejoin:round;fill-rule:evenodd;"
d="M 118680000.000000,87125000.000000
118669724.000000,87176662.000000
118640459.000000,87220459.000000
118596662.000000,87249724.000000
118545000.000000,87260000.000000
118275000.000000,87260000.000000
118223338.000000,87249724.000000
118179541.000000,87220459.000000
118150276.000000,87176662.000000
118140000.000000,87125000.000000
118140000.000000,86755000.000000
118150276.000000,86703338.000000
118179541.000000,86659541.000000
118223338.000000,86630276.000000
118275000.000000,86620000.000000
118545000.000000,86620000.000000
118596662.000000,86630276.000000
118640459.000000,86659541.000000
118669724.000000,86703338.000000
118680000.000000,86755000.000000
Z" /> 
<path style="fill:#000000; fill-opacity:1.0; 
stroke:#000000; stroke-width:1.000000; stroke-opacity:1; 
stroke-linecap:round; stroke-linejoin:round;fill-rule:evenodd;"
d="M 117660000.000000,87125000.000000
117649724.000000,87176662.000000
117620459.000000,87220459.000000
117576662.000000,87249724.000000
117525000.000000,87260000.000000
117255000.000000,87260000.000000
117203338.000000,87249724.000000
117159541.000000,87220459.000000
117130276.000000,87176662.000000
117120000.000000,87125000.000000
117120000.000000,86755000.000000
117130276.000000,86703338.000000
117159541.000000,86659541.000000
117203338.000000,86630276.000000
117255000.000000,86620000.000000
117525000.000000,86620000.000000
117576662.000000,86630276.000000
117620459.000000,86659541.000000
117649724.000000,86703338.000000
117660000.000000,86755000.000000
Z" /> 
</g>
<g >
</g>
<g style="fill:#000000; fill-opacity:1.0; 
stroke:#000000; stroke-width:1.000000; stroke-opacity:1; 
stroke-linecap:round; stroke-linejoin:round;">
<path style="fill:#000000; fill-opacity:1.0; 
stroke:#000000; stroke-width:1.000000; stroke-opacity:1; 
stroke-linecap:round; stroke-linejoin:round;fill-rule:evenodd;"
d="M 116180000.000000,89735000.000000
116231662.000000,89745276.000000
116275459.000000,89774541.000000
116304724.000000,89818338.000000
116315000.000000,89870000.000000
116315000.000000,90140000.000000
116304724.000000,90191662.000000
116275459.000000,90235459.000000
116231662.000000,90264724.000000
116180000.000000,90275000.000000
115810000.000000,90275000.000000
115758338.000000,90264724.000000
115714541.000000,90235459.000000
115685276.000000,90191662.000000
115675000.000000,90140000.000000
115675000.000000,89870000.000000
115685276.000000,89818338.000000
115714541.000000,89774541.000000
115758338.000000,89745276.000000
115810000.000000,89735000.000000
Z" /> 
<path style="fill:#000000; fill-opacity:1.0; 
stroke:#000000; stroke-width:1.000000; stroke-opacity:1; 
stroke-linecap:round; stroke-linejoin:round;fill-rule:evenodd;"
d="M 116180000.000000,90755000.000000
116231662.000000,90765276.000000
116275459.000000,90794541.000000
116304724.000000,90838338.000000
116315000.000000,90890000.000000
116315000.000000,91160000.000000
116304724.000000,91211662.000000
116275459.000000,91255459.000000
116231662.000000,91284724.000000
116180000.000000,91295000.000000
115810000.000000,91295000.000000
115758338.000000,91284724.000000
115714541.000000,91255459.000000
115685276.000000,91211662.000000
115675000.000000,91160000.000000
115675000.000000,90890000.000000
115685276.000000,90838338.000000
115714541.000000,90794541.000000
115758338.000000,90765276.000000
115810000.000000,90755000.000000
Z" /> 
</g>
<g >
</g>
<g style="fill:#000000; fill-opacity:1.0; 
stroke:#000000; stroke-width:1.000000; stroke-opacity:1; 
stroke-linecap:round; stroke-linejoin:round;">
<path style="fill:#000000; fill-opacity:1.0; 
stroke:#000000; stroke-width:1.000000; stroke-opacity:1; 
stroke-linecap:round; stroke-linejoin:round;fill-rule:evenodd;"
d="M 121190000.000000,89670000.000000
121138338.000000,89659724.000000
121094541.000000,89630459.000000
121065276.000000,89586662.000000
121055000.000000,89535000.000000
121055000.000000,89265000.000000
121065276.000000,89213338.000000
121094541.000000,89169541.000000
121138338.000000,89140276.000000
121190000.000000,89130000.000000
121560000.000000,89130000.000000
121611662.000000,89140276.000000
121655459.000000,89169541.000000
121684724.000000,89213338.000000
121695000.000000,89265000.000000
121695000.000000,89535000.000000
121684724.000000,89586662.000000
121655459.000000,89630459.000000
121611662.000000,89659724.000000
121560000.000000,89670000.000000
Z" /> 
<path style="fill:#000000; fill-opacity:1.0; 
stroke:#000000; stroke-width:1.000000; stroke-opacity:1; 
stroke-linecap:round; stroke-linejoin:round;fill-rule:evenodd;"
d="M 121190000.000000,88650000.000000
121138338.000000,88639724.000000
121094541.000000,88610459.000000
121065276.000000,88566662.000000
121055000.000000,88515000.000000
121055000.000000,88245000.000000
121065276.000000,88193338.000000
121094541.000000,88149541.000000
121138338.000000,88120276.000000
121190000.000000,88110000.000000
121560000.000000,88110000.000000
121611662.000000,88120276.000000
121655459.000000,88149541.000000
121684724.000000,88193338.000000
121695000.000000,88245000.000000
121695000.000000,88515000.000000
121684724.000000,88566662.000000
121655459.000000,88610459.000000
121611662.000000,88639724.000000
121560000.000000,88650000.000000
Z" /> 
</g>
<g >
</g>
<g style="fill:#000000; fill-opacity:1.0; 
stroke:#000000; stroke-width:1.000000; stroke-opacity:1; 
stroke-linecap:round; stroke-linejoin:round;">
<path style="fill:#000000; fill-opacity:1.0; 
stroke:#000000; stroke-width:1.000000; stroke-opacity:1; 
stroke-linecap:round; stroke-linejoin:round;fill-rule:evenodd;"
d="M 119040000.000000,92530000.000000
119050657.000000,92476424.000000
119081005.000000,92431005.000000
119126424.000000,92400657.000000
119180000.000000,92390000.000000
119460000.000000,92390000.000000
119513576.000000,92400657.000000
119558995.000000,92431005.000000
119589343.000000,92476424.000000
119600000.000000,92530000.000000
119600000.000000,92870000.000000
119589343.000000,92923576.000000
119558995.000000,92968995.000000
119513576.000000,92999343.000000
119460000.000000,93010000.000000
119180000.000000,93010000.000000
119126424.000000,92999343.000000
119081005.000000,92968995.000000
119050657.000000,92923576.000000
119040000.000000,92870000.000000
Z" /> 
<path style="fill:#000000; fill-opacity:1.0; 
stroke:#000000; stroke-width:1.000000; stroke-opacity:1; 
stroke-linecap:round; stroke-linejoin:round;fill-rule:evenodd;"
d="M 120000000.000000,92530000.000000
120010657.000000,92476424.000000
120041005.000000,92431005.000000
120086424.000000,92400657.000000
120140000.000000,92390000.000000
120420000.000000,92390000.000000
120473576.000000,92400657.000000
120518995.000000,92431005.000000
120549343.000000,92476424.000000
120560000.000000,92530000.000000
120560000.000000,92870000.000000
120549343.000000,92923576.000000
120518995.000000,92968995.000000
120473576.000000,92999343.000000
120420000.000000,93010000.000000
120140000.000000,93010000.000000
120086424.000000,92999343.000000
120041005.000000,92968995.000000
120010657.000000,92923576.000000
120000000.000000,92870000.000000
Z" /> 
</g>
<g >
</g>
<g style="fill:#000000; fill-opacity:1.0; 
stroke:#000000; stroke-width:1.000000; stroke-opacity:1; 
stroke-linecap:round; stroke-linejoin:round;">
<path style="fill:#000000; fill-opacity:1.0; 
stroke:#000000; stroke-width:1.000000; stroke-opacity:1; 
stroke-linecap:round; stroke-linejoin:round;fill-rule:evenodd;"
d="M 121215000.000000,91845000.000000
121163338.000000,91834724.000000
121119541.000000,91805459.000000
121090276.000000,91761662.000000
121080000.000000,91710000.000000
121080000.000000,91440000.000000
121090276.000000,91388338.000000
121119541.000000,91344541.000000
121163338.000000,91315276.000000
121215000.000000,91305000.000000
121585000.000000,91305000.000000
121636662.000000,91315276.000000
121680459.000000,91344541.000000
121709724.000000,91388338.000000
121720000.000000,91440000.000000
121720000.000000,91710000.000000
121709724.000000,91761662.000000
121680459.000000,91805459.000000
121636662.000000,91834724.000000
121585000.000000,91845000.000000
Z" /> 
<path style="fill:#000000; fill-opacity:1.0; 
stroke:#000000; stroke-width:1.000000; stroke-opacity:1; 
stroke-linecap:round; stroke-linejoin:round;fill-rule:evenodd;"
d="M 121215000.000000,90825000.000000
121163338.000000,90814724.000000
121119541.000000,90785459.000000
121090276.000000,90741662.000000
121080000.000000,90690000.000000
121080000.000000,90420000.000000
121090276.000000,90368338.000000
121119541.000000,90324541.000000
121163338.000000,90295276.000000
121215000.000000,90285000.000000
121585000.000000,90285000.000000
121636662.000000,90295276.000000
121680459.000000,90324541.000000
121709724.000000,90368338.000000
121720000.000000,90420000.000000
121720000.000000,90690000.000000
121709724.000000,90741662.000000
121680459.000000,90785459.000000
121636662.000000,90814724.000000
121585000.000000,90825000.000000
Z" /> 
</g>
<g >
</g>
<g style="fill:#000000; fill-opacity:1.0; 
stroke:#000000; stroke-width:1.000000; stroke-opacity:1; 
stroke-linecap:round; stroke-linejoin:round;">
<path style="fill:#000000; fill-opacity:1.0; 
stroke:#000000; stroke-width:1.000000; stroke-opacity:1; 
stroke-linecap:round; stroke-linejoin:round;fill-rule:evenodd;"
d="M 116180000.000000,87685000.000000
116231662.000000,87695276.000000
116275459.000000,87724541.000000
116304724.000000,87768338.000000
116315000.000000,87820000.000000
116315000.000000,88090000.000000
116304724.000000,88141662.000000
116275459.000000,88185459.000000
116231662.000000,88214724.000000
116180000.000000,88225000.000000
115810000.000000,88225000.000000
115758338.000000,88214724.000000
115714541.000000,88185459.000000
115685276.000000,88141662.000000
115675000.000000,88090000.000000
115675000.000000,87820000.000000
115685276.000000,87768338.000000
115714541.000000,87724541.000000
115758338.000000,87695276.000000
115810000.000000,87685000.000000
Z" /> 
<path style="fill:#000000; fill-opacity:1.0; 
stroke:#000000; stroke-width:1.000000; stroke-opacity:1; 
stroke-linecap:round; stroke-linejoin:round;fill-rule:evenodd;"
d="M 116180000.000000,88705000.000000
116231662.000000,88715276.000000
116275459.000000,88744541.000000
116304724.000000,88788338.000000
116315000.000000,88840000.000000
116315000.000000,89110000.000000
116304724.000000,89161662.000000
116275459.000000,89205459.000000
116231662.000000,89234724.000000
116180000.000000,89245000.000000
115810000.000000,89245000.000000
115758338.000000,89234724.000000
115714541.000000,89205459.000000
115685276.000000,89161662.000000
115675000.000000,89110000.000000
115675000.000000,88840000.000000
115685276.000000,88788338.000000
115714541.000000,88744541.000000
115758338.000000,88715276.000000
115810000.000000,88705000.000000
Z" /> 
</g>
<g >
</g>
<g style="fill:#000000; fill-opacity:1.0; 
stroke:#000000; stroke-width:1.000000; stroke-opacity:1; 
stroke-linecap:round; stroke-linejoin:round;">
<path style="fill:#000000; fill-opacity:1.0; 
stroke:#000000; stroke-width:1.000000; stroke-opacity:1; 
stroke-linecap:round; stroke-linejoin:round;fill-rule:evenodd;"
d="M 116995000.000000,92515000.000000
117005276.000000,92463338.000000
117034541.000000,92419541.000000
117078338.000000,92390276.000000
117130000.000000,92380000.000000
117400000.000000,92380000.000000
117451662.000000,92390276.000000
117495459.000000,92419541.000000
117524724.000000,92463338.000000
117535000.000000,92515000.000000
117535000.000000,92885000.000000
117524724.000000,92936662.000000
117495459.000000,92980459.000000
117451662.000000,93009724.000000
117400000.000000,93020000.000000
117130000.000000,93020000.000000
117078338.000000,93009724.000000
117034541.000000,92980459.000000
117005276.000000,92936662.000000
116995000.000000,92885000.000000
Z" /> 
<path style="fill:#000000; fill-opacity:1.0; 
stroke:#000000; stroke-width:1.000000; stroke-opacity:1; 
stroke-linecap:round; stroke-linejoin:round;fill-rule:evenodd;"
d="M 118015000.000000,92515000.000000
118025276.000000,92463338.000000
118054541.000000,92419541.000000
118098338.000000,92390276.000000
118150000.000000,92380000.000000
118420000.000000,92380000.000000
118471662.000000,92390276.000000
118515459.000000,92419541.000000
118544724.000000,92463338.000000
118555000.000000,92515000.000000
118555000.000000,92885000.000000
118544724.000000,92936662.000000
118515459.000000,92980459.000000
118471662.000000,93009724.000000
118420000.000000,93020000.000000
118150000.000000,93020000.000000
118098338.000000,93009724.000000
118054541.000000,92980459.000000
118025276.000000,92936662.000000
118015000.000000,92885000.000000
Z" /> 
</g>
<g >
</g>
<g style="fill:#000000; fill-opacity:1.0; 
stroke:#000000; stroke-width:1.000000; stroke-opacity:1; 
stroke-linecap:round; stroke-linejoin:round;">
<path style="fill:#000000; fill-opacity:1.0; 
stroke:#000000; stroke-width:1.000000; stroke-opacity:1; 
stroke-linecap:round; stroke-linejoin:round;fill-rule:evenodd;"
d="M 119650000.000000,88000000.000000
119707403.000000,88011418.000000
119756066.000000,88043934.000000
119788582.000000,88092597.000000
119800000.000000,88150000.000000
119800000.000000,89175000.000000
119788582.000000,89232403.000000
119756066.000000,89281066.000000
119707403.000000,89313582.000000
119650000.000000,89325000.000000
119350000.000000,89325000.000000
119292597.000000,89313582.000000
119243934.000000,89281066.000000
119211418.000000,89232403.000000
119200000.000000,89175000.000000
119200000.000000,88150000.000000
119211418.000000,88092597.000000
119243934.000000,88043934.000000
119292597.000000,88011418.000000
119350000.000000,88000000.000000
Z" /> 
<path style="fill:#000000; fill-opacity:1.0; 
stroke:#000000; stroke-width:1.000000; stroke-opacity:1; 
stroke-linecap:round; stroke-linejoin:round;fill-rule:evenodd;"
d="M 118700000.000000,88000000.000000
118757403.000000,88011418.000000
118806066.000000,88043934.000000
118838582.000000,88092597.000000
118850000.000000,88150000.000000
118850000.000000,89175000.000000
118838582.000000,89232403.000000
118806066.000000,89281066.000000
118757403.000000,89313582.000000
118700000.000000,89325000.000000
118400000.000000,89325000.000000
118342597.000000,89313582.000000
118293934.000000,89281066.000000
118261418.000000,89232403.000000
118250000.000000,89175000.000000
118250000.000000,88150000.000000
118261418.000000,88092597.000000
118293934.000000,88043934.000000
118342597.000000,88011418.000000
118400000.000000,88000000.000000
Z" /> 
<path style="fill:#000000; fill-opacity:1.0; 
stroke:#000000; stroke-width:1.000000; stroke-opacity:1; 
stroke-linecap:round; stroke-linejoin:round;fill-rule:evenodd;"
d="M 117750000.000000,88000000.000000
117807403.000000,88011418.000000
117856066.000000,88043934.000000
117888582.000000,88092597.000000
117900000.000000,88150000.000000
117900000.000000,89175000.000000
117888582.000000,89232403.000000
117856066.000000,89281066.000000
117807403.000000,89313582.000000
117750000.000000,89325000.000000
117450000.000000,89325000.000000
117392597.000000,89313582.000000
117343934.000000,89281066.000000
117311418.000000,89232403.000000
117300000.000000,89175000.000000
117300000.000000,88150000.000000
117311418.000000,88092597.000000
117343934.000000,88043934.000000
117392597.000000,88011418.000000
117450000.000000,88000000.000000
Z" /> 
<path style="fill:#000000; fill-opacity:1.0; 
stroke:#000000; stroke-width:1.000000; stroke-opacity:1; 
stroke-linecap:round; stroke-linejoin:round;fill-rule:evenodd;"
d="M 117750000.000000,90275000.000000
117807403.000000,90286418.000000
117856066.000000,90318934.000000
117888582.000000,90367597.000000
117900000.000000,90425000.000000
117900000.000000,91450000.000000
117888582.000000,91507403.000000
117856066.000000,91556066.000000
117807403.000000,91588582.000000
117750000.000000,91600000.000000
117450000.000000,91600000.000000
117392597.000000,91588582.000000
117343934.000000,91556066.000000
117311418.000000,91507403.000000
117300000.000000,91450000.000000
117300000.000000,90425000.000000
117311418.000000,90367597.000000
117343934.000000,90318934.000000
117392597.000000,90286418.000000
117450000.000000,90275000.000000
Z" /> 
<path style="fill:#000000; fill-opacity:1.0; 
stroke:#000000; stroke-width:1.000000; stroke-opacity:1; 
stroke-linecap:round; stroke-linejoin:round;fill-rule:evenodd;"
d="M 119650000.000000,90275000.000000
119707403.000000,90286418.000000
119756066.000000,90318934.000000
119788582.000000,90367597.000000
119800000.000000,90425000.000000
119800000.000000,91450000.000000
119788582.000000,91507403.000000
119756066.000000,91556066.000000
119707403.000000,91588582.000000
119650000.000000,91600000.000000
119350000.000000,91600000.000000
119292597.000000,91588582.000000
119243934.000000,91556066.000000
119211418.000000,91507403.000000
119200000.000000,91450000.000000
119200000.000000,90425000.000000
119211418.000000,90367597.000000
119243934.000000,90318934.000000
119292597.000000,90286418.000000
119350000.000000,90275000.000000
Z" /> 
</g>
<g >
</g>
<g style="fill:#000000; fill-opacity:1.0; 
stroke:#000000; stroke-width:1.000000; stroke-opacity:1; 
stroke-linecap:round; stroke-linejoin:round;">
<path style="fill:#000000; fill-opacity:1.0; 
stroke:#000000; stroke-width:1.000000; stroke-opacity:1; 
stroke-linecap:round; stroke-linejoin:round;fill-rule:evenodd;"
d="M 123085000.000000,91210000.000000
123136662.000000,91220276.000000
123180459.000000,91249541.000000
123209724.000000,91293338.000000
123220000.000000,91345000.000000
123220000.000000,91615000.000000
123209724.000000,91666662.000000
123180459.000000,91710459.000000
123136662.000000,91739724.000000
123085000.000000,91750000.000000
122715000.000000,91750000.000000
122663338.000000,91739724.000000
122619541.000000,91710459.000000
122590276.000000,91666662.000000
122580000.000000,91615000.000000
122580000.000000,91345000.000000
122590276.000000,91293338.000000
122619541.000000,91249541.000000
122663338.000000,91220276.000000
122715000.000000,91210000.000000
Z" /> 
<path style="fill:#000000; fill-opacity:1.0; 
stroke:#000000; stroke-width:1.000000; stroke-opacity:1; 
stroke-linecap:round; stroke-linejoin:round;fill-rule:evenodd;"
d="M 123085000.000000,92230000.000000
123136662.000000,92240276.000000
123180459.000000,92269541.000000
123209724.000000,92313338.000000
123220000.000000,92365000.000000
123220000.000000,92635000.000000
123209724.000000,92686662.000000
123180459.000000,92730459.000000
123136662.000000,92759724.000000
123085000.000000,92770000.000000
122715000.000000,92770000.000000
122663338.000000,92759724.000000
122619541.000000,92730459.000000
122590276.000000,92686662.000000
122580000.000000,92635000.000000
122580000.000000,92365000.000000
122590276.000000,92313338.000000
122619541.000000,92269541.000000
122663338.000000,92240276.000000
122715000.000000,92230000.000000
Z" /> 
</g>
<g >
</g>
<g style="fill:#000000; fill-opacity:1.0; 
stroke:#000000; stroke-width:1.000000; stroke-opacity:1; 
stroke-linecap:round; stroke-linejoin:round;">
<path style="fill:#000000; fill-opacity:1.0; 
stroke:#000000; stroke-width:1.000000; stroke-opacity:1; 
stroke-linecap:round; stroke-linejoin:round;fill-rule:evenodd;"
d="M 112619999.000000,90425001.000000
112619999.000000,91074999.000000
111400001.000000,91074999.000000
111400001.000000,90425001.000000
Z" /> 
<path style="fill:#000000; fill-opacity:1.0; 
stroke:#000000; stroke-width:1.000000; stroke-opacity:1; 
stroke-linecap:round; stroke-linejoin:round;fill-rule:evenodd;"
d="M 112619999.000000,88525001.000000
112619999.000000,89174999.000000
111400001.000000,89174999.000000
111400001.000000,88525001.000000
Z" /> 
<path style="fill:#000000; fill-opacity:1.0; 
stroke:#000000; stroke-width:1.000000; stroke-opacity:1; 
stroke-linecap:round; stroke-linejoin:round;fill-rule:evenodd;"
d="M 109999999.000000,89475001.000000
109999999.000000,90124999.000000
108780001.000000,90124999.000000
108780001.000000,89475001.000000
Z" /> 
</g>
<g >
</g>
<g >
</g>
<g >
</g>
<g style="fill:#000000; fill-opacity:1.0; 
stroke:#000000; stroke-width:1.000000; stroke-opacity:1; 
stroke-linecap:round; stroke-linejoin:round;">
<circle cx="120500000.000000" cy="91480498.000000" r="400000.000000" /> 
</g>
<g style="fill:#000000; fill-opacity:1.0; 
stroke:#000000; stroke-width:21200.000000; stroke-opacity:1; 
stroke-linecap:round; stroke-linejoin:round;">
</g>
<g style="fill:#000000; fill-opacity:1.0; 
stroke:#000000; stroke-width:1.000000; stroke-opacity:1; 
stroke-linecap:round; stroke-linejoin:round;">
<circle cx="107500000.000000" cy="93000000.000000" r="400000.000000" /> 
</g>
<g style="fill:#000000; fill-opacity:1.0; 
stroke:#000000; stroke-width:21200.000000; stroke-opacity:1; 
stroke-linecap:round; stroke-linejoin:round;">
</g>
<g style="fill:#000000; fill-opacity:1.0; 
stroke:#000000; stroke-width:1.000000; stroke-opacity:1; 
stroke-linecap:round; stroke-linejoin:round;">
<circle cx="109000000.000000" cy="93000000.000000" r="400000.000000" /> 
</g>
<g style="fill:#000000; fill-opacity:1.0; 
stroke:#000000; stroke-width:21200.000000; stroke-opacity:1; 
stroke-linecap:round; stroke-linejoin:round;">
</g>
<g style="fill:#000000; fill-opacity:1.0; 
stroke:#000000; stroke-width:1.000000; stroke-opacity:1; 
stroke-linecap:round; stroke-linejoin:round;">
<circle cx="127500000.000000" cy="93000000.000000" r="400000.000000" /> 
</g>
<g style="fill:#000000; fill-opacity:1.0; 
stroke:#000000; stroke-width:21200.000000; stroke-opacity:1; 
stroke-linecap:round; stroke-linejoin:round;">
</g>
<g style="fill:#000000; fill-opacity:1.0; 
stroke:#000000; stroke-width:1.000000; stroke-opacity:1; 
stroke-linecap:round; stroke-linejoin:round;">
<circle cx="116896495.000000" cy="89997292.000000" r="400000.000000" /> 
</g>
<g style="fill:#000000; fill-opacity:1.0; 
stroke:#000000; stroke-width:21200.000000; stroke-opacity:1; 
stroke-linecap:round; stroke-linejoin:round;">
</g>
<g style="fill:#000000; fill-opacity:1.0; 
stroke:#000000; stroke-width:1.000000; stroke-opacity:1; 
stroke-linecap:round; stroke-linejoin:round;">
<circle cx="106000000.000000" cy="93000000.000000" r="400000.000000" /> 
</g>
<g style="fill:#000000; fill-opacity:1.0; 
stroke:#000000; stroke-width:21200.000000; stroke-opacity:1; 
stroke-linecap:round; stroke-linejoin:round;">
</g>
<g style="fill:#000000; fill-opacity:1.0; 
stroke:#000000; stroke-width:1.000000; stroke-opacity:1; 
stroke-linecap:round; stroke-linejoin:round;">
<circle cx="124500000.000000" cy="93000000.000000" r="400000.000000" /> 
</g>
<g style="fill:#000000; fill-opacity:1.0; 
stroke:#000000; stroke-width:21200.000000; stroke-opacity:1; 
stroke-linecap:round; stroke-linejoin:round;">
</g>
<g style="fill:#000000; fill-opacity:1.0; 
stroke:#000000; stroke-width:1.000000; stroke-opacity:1; 
stroke-linecap:round; stroke-linejoin:round;">
<circle cx="126000000.000000" cy="93000000.000000" r="400000.000000" /> 
</g>
<g style="fill:#000000; fill-opacity:1.0; 
stroke:#000000; stroke-width:21200.000000; stroke-opacity:1; 
stroke-linecap:round; stroke-linejoin:round;">
</g>
<g style="fill:#000000; fill-opacity:1.0; 
stroke:#000000; stroke-width:1.000000; stroke-opacity:1; 
stroke-linecap:round; stroke-linejoin:round;">
<circle cx="115300000.000000" cy="91800000.000000" r="400000.000000" /> 
</g>
<g style="fill:#000000; fill-opacity:1.0; 
stroke:#000000; stroke-width:21200.000000; stroke-opacity:1; 
stroke-linecap:round; stroke-linejoin:round;">
</g>
<g style="fill:#000000; fill-opacity:1.0; 
stroke:#000000; stroke-width:1.000000; stroke-opacity:1; 
stroke-linecap:round; stroke-linejoin:round;">
<circle cx="110900000.000000" cy="87400000.000000" r="400000.000000" /> 
</g>
<g style="fill:#000000; fill-opacity:1.0; 
stroke:#000000; stroke-width:21200.000000; stroke-opacity:1; 
stroke-linecap:round; stroke-linejoin:round;">
</g>
<g style="fill:#000000; fill-opacity:1.0; 
stroke:#000000; stroke-width:1.000000; stroke-opacity:1; 
stroke-linecap:round; stroke-linejoin:round;">
<circle cx="121400000.000000" cy="92500000.000000" r="400000.000000" /> 
</g>
<g style="fill:#000000; fill-opacity:1.0; 
stroke:#000000; stroke-width:21200.000000; stroke-opacity:1; 
stroke-linecap:round; stroke-linejoin:round;">
</g>
<g style="fill:#000000; fill-opacity:1.0; 
stroke:#000000; stroke-width:1.000000; stroke-opacity:1; 
stroke-linecap:round; stroke-linejoin:round;">
<circle cx="110900000.000000" cy="92500000.000000" r="400000.000000" /> 
</g>
<g style="fill:#000000; fill-opacity:1.0; 
stroke:#000000; stroke-width:21200.000000; stroke-opacity:1; 
stroke-linecap:round; stroke-linejoin:round;">
</g>
<g style="fill:#000000; fill-opacity:1.0; 
stroke:#000000; stroke-width:1.000000; stroke-opacity:1; 
stroke-linecap:round; stroke-linejoin:round;">
<circle cx="109400000.000000" cy="89000000.000000" r="400000.000000" /> 
</g>
<g style="fill:#000000; fill-opacity:1.0; 
stroke:#000000; stroke-width:21200.000000; stroke-opacity:1; 
stroke-linecap:round; stroke-linejoin:round;">
</g>
<g >
</g>
<g style="fill:#000000; fill-opacity:1.0; 
stroke:#000000; stroke-width:21200.000000; stroke-opacity:1; 
stroke-linecap:round; stroke-linejoin:round;">
</g>
<g style="fill:#000000; fill-opacity:1.0; 
stroke:#000000; stroke-width:200000.000000; stroke-opacity:1; 
stroke-linecap:round; stroke-linejoin:round;">
</g>
<g style="fill:#000000; fill-opacity:0.0; 
stroke:#000000; stroke-width:200000.000000; stroke-opacity:1; 
stroke-linecap:round; stroke-linejoin:round;">
<path d="M115995000 91025000
L115475000 91025000
" />
<path d="M115995000 91025000
L115995000 90898787
" />
<path d="M117492714 89997292
L116896495 89997292
" />
<path d="M113200000 90750000
L112010000 90750000
" />
<path d="M118550000 88940006
L117492714 89997292
" />
<path d="M115475000 91025000
L114200000 89750000
" />
<path d="M118550000 88662500
L118550000 88940006
" />
<path d="M114200000 89750000
L113200000 90750000
" />
<path d="M120280000 92700000
L120280000 91700498
" />
<path d="M120280000 91700498
L120500000 91480498
" />
<path d="M115995000 90898787
L116896495 89997292
" />
<path d="M114300000 91320000
L114820000 91320000
" />
<path d="M114820000 91320000
L115300000 91800000
" />
<path d="M111360000 86940000
L110900000 87400000
" />
<path d="M117390000 86940000
L111360000 86940000
" />
<path d="M123000000 90250000
L121705000 90250000
" />
<path d="M123000000 91380000
L122900000 91480000
" />
<path d="M123000000 90250000
L123000000 91380000
" />
<path d="M121705000 90250000
L121400000 90555000
" />
<path d="M121400000 91575000
L121400000 92500000
" />
<path d="M118750480 93269520
L119320000 92700000
" />
<path d="M119320000 92700000
L119320000 91117500
" />
<path d="M112250000 87850000
L114200000 87850000
" />
<path d="M112010000 88850000
L111350000 88850000
" />
<path d="M110469520 93269520
L118750480 93269520
" />
<path d="M110249511 89950489
L110249511 93049511
" />
<path d="M112010000 88090000
L112250000 87850000
" />
<path d="M115890000 87850000
L115995000 87955000
" />
<path d="M111350000 88850000
L110249511 89950489
" />
<path d="M110249511 93049511
L110469520 93269520
" />
<path d="M114200000 87850000
L115890000 87850000
" />
<path d="M112010000 88850000
L112010000 88090000
" />
<path d="M119320000 91117500
L119500000 90937500
" />
<path d="M114080000 92500000
L114300000 92280000
" />
<path d="M110900000 92500000
L114080000 92500000
" />
<path d="M114720000 92700000
L117265000 92700000
" />
<path d="M114300000 92280000
L114720000 92700000
" />
<path d="M109400000 89000000
L109400000 89790000
" />
<path d="M109400000 89790000
L109390000 89800000
" />
<path d="M121375000 88380000
L122970000 88380000
" />
<path d="M119500000 88662500
L121092500 88662500
" />
<path d="M122970000 88380000
L123000000 88350000
" />
<path d="M121092500 88662500
L121375000 88380000
" />
<path d="M115995000 88975000
L117287500 88975000
" />
<path d="M117600000 87750000
L118410000 86940000
" />
<path d="M115995000 90005000
L115995000 88975000
" />
<path d="M117600000 88662500
L117600000 87750000
" />
<path d="M117287500 88975000
L117600000 88662500
" />
<path d="M118537500 90000000
L120775000 90000000
" />
<path d="M118285000 92700000
L118285000 91622500
" />
<path d="M120775000 90000000
L121375000 89400000
" />
<path d="M117600000 90937500
L118537500 90000000
" />
<path d="M118285000 91622500
L117600000 90937500
" />
</g>
<g >
</g>
<g style="fill:#000000; fill-opacity:0.0; 
stroke:#000000; stroke-width:200000.000000; stroke-opacity:1; 
stroke-linecap:round; stroke-linejoin:round;">
<g >
</g>
<g style="fill:#000000; fill-opacity:1.0; 
stroke:#000000; stroke-width:1.000000; stroke-opacity:1; 
stroke-linecap:round; stroke-linejoin:round;">
<path style="fill:#000000; fill-opacity:1.0; 
stroke:#000000; stroke-width:1.000000; stroke-opacity:1; 
stroke-linecap:round; stroke-linejoin:round;fill-rule:evenodd;"
d="M 116969095.000000,86274002.000000
117015588.000000,86327658.000000
117025692.000000,86397932.000000
116996198.000000,86462512.000000
116990069.000000,86469095.000000
116935960.000000,86523204.000000
116931458.000000,86532040.000000
116930352.000000,86533562.000000
116874130.000000,86576915.000000
116828417.000000,86585500.000000
111411257.000000,86585500.000000
111391463.000000,86583394.000000
111387110.000000,86583189.000000
111376930.000000,86580997.000000
111346260.000000,86584627.000000
111340917.000000,86584942.000000
111340928.000000,86585072.000000
111335748.000000,86585500.000000
111330549.000000,86585500.000000
111325425.000000,86586353.000000
111325412.000000,86586354.000000
111312959.000000,86588427.000000
111307084.000000,86589264.000000
111270071.000000,86593645.000000
111259730.000000,86594869.000000
111252022.000000,86598570.000000
111243583.000000,86599975.000000
111201599.000000,86622629.000000
111196336.000000,86625310.000000
111153342.000000,86645955.000000
111149350.000000,86649311.000000
111147403.000000,86651258.000000
111145778.000000,86652748.000000
111145346.000000,86652981.000000
111145313.000000,86652945.000000
111145155.000000,86653084.000000
111139720.000000,86656017.000000
111132651.000000,86663664.000000
111105642.000000,86692882.000000
111102213.000000,86696448.000000
111087734.000000,86710927.000000
111025422.000000,86744953.000000
110985871.000000,86746705.000000
110982633.000000,86745892.000000
110975040.000000,86745852.000000
110975038.000000,86745852.000000
110904326.000000,86745482.000000
110824221.000000,86745062.000000
110816841.000000,86746834.000000
110816839.000000,86746834.000000
110677563.000000,86780271.000000
110677560.000000,86780272.000000
110670184.000000,86782043.000000
110529414.000000,86854700.000000
110410039.000000,86958838.000000
110318950.000000,87088444.000000
110261406.000000,87236037.000000
110260414.000000,87243570.000000
110260414.000000,87243571.000000
110244585.000000,87363809.000000
110240729.000000,87393096.000000
110246712.000000,87447283.000000
110256382.000000,87534873.000000
110258113.000000,87550553.000000
110260723.000000,87557684.000000
110260723.000000,87557686.000000
110308887.000000,87689300.000000
110312553.000000,87699319.000000
110316789.000000,87705622.000000
110316789.000000,87705623.000000
110376380.000000,87794303.000000
110400908.000000,87830805.000000
110406527.000000,87835918.000000
110406528.000000,87835919.000000
110511619.000000,87931544.000000
110518076.000000,87937419.000000
110657293.000000,88013008.000000
110810522.000000,88053207.000000
110894477.000000,88054526.000000
110961319.000000,88055576.000000
110961322.000000,88055576.000000
110968916.000000,88055695.000000
111123332.000000,88020329.000000
111210656.000000,87976410.000000
111258072.000000,87952563.000000
111258075.000000,87952561.000000
111264855.000000,87949151.000000
111270626.000000,87944222.000000
111270629.000000,87944220.000000
111379536.000000,87851204.000000
111379536.000000,87851203.000000
111385314.000000,87846269.000000
111477755.000000,87717624.000000
111536842.000000,87570641.000000
111559162.000000,87413807.000000
111559194.000000,87410721.000000
111584218.000000,87344538.000000
111641244.000000,87302248.000000
111684746.000000,87294500.000000
112034067.000000,87294500.000000
112102188.000000,87314502.000000
112148681.000000,87368158.000000
112158785.000000,87438432.000000
112129291.000000,87503012.000000
112093905.000000,87531385.000000
112091615.000000,87532620.000000
112086336.000000,87535310.000000
112078431.000000,87539106.000000
112043342.000000,87555955.000000
112039350.000000,87559311.000000
112037403.000000,87561258.000000
112035778.000000,87562748.000000
112035346.000000,87562981.000000
112035313.000000,87562946.000000
112035158.000000,87563083.000000
112029720.000000,87566017.000000
111995642.000000,87602883.000000
111992212.000000,87606450.000000
111795580.000000,87803082.000000
111780098.000000,87815587.000000
111776871.000000,87818523.000000
111768118.000000,87824175.000000
111748991.000000,87848438.000000
111745441.000000,87852433.000000
111745540.000000,87852517.000000
111742182.000000,87856480.000000
111738506.000000,87860156.000000
111735483.000000,87864385.000000
111735483.000000,87864386.000000
111728146.000000,87874652.000000
111724585.000000,87879395.000000
111701503.000000,87908675.000000
111701501.000000,87908679.000000
111695054.000000,87916857.000000
111692221.000000,87924925.000000
111687247.000000,87931885.000000
111684263.000000,87941863.000000
111673580.000000,87977586.000000
111671744.000000,87983235.000000
111655950.000000,88028208.000000
111655500.000000,88033404.000000
111655500.000000,88036109.000000
111655403.000000,88038365.000000
111655260.000000,88038841.000000
111655214.000000,88038839.000000
111655201.000000,88039038.000000
111653432.000000,88044955.000000
111653853.000000,88055661.000000
111655403.000000,88095124.000000
111655500.000000,88100070.000000
111655500.000000,88144501.000000
111635498.000000,88212622.000000
111581842.000000,88259115.000000
111529500.000000,88270501.000000
111374934.000000,88270501.000000
111339182.000000,88277612.000000
111312874.000000,88282844.000000
111312872.000000,88282845.000000
111300699.000000,88285266.000000
111290379.000000,88292161.000000
111290378.000000,88292162.000000
111246029.000000,88321796.000000
111216516.000000,88341516.000000
111160266.000000,88425699.000000
111145500.000000,88499933.000000
111145500.000000,88506119.000000
111144926.000000,88511947.000000
111118343.000000,88577778.000000
111112066.000000,88585115.000000
111095606.000000,88602921.000000
111092202.000000,88606460.000000
110381633.000000,89317029.000000
110319321.000000,89351055.000000
110248506.000000,89345990.000000
110201203.000000,89308560.000000
110199154.000000,89310609.000000
110190377.000000,89301832.000000
110183484.000000,89291516.000000
110099775.000000,89235583.000000
110054249.000000,89181106.000000
110045036.000000,89113066.000000
110058581.000000,89017891.000000
110058581.000000,89017888.000000
110059162.000000,89013807.000000
110059307.000000,89000000.000000
110040276.000000,88842733.000000
109984280.000000,88694546.000000
109931009.000000,88617036.000000
109898855.000000,88570251.000000
109898854.000000,88570249.000000
109894553.000000,88563992.000000
109776275.000000,88458611.000000
109768889.000000,88454700.000000
109682652.000000,88409040.000000
109636274.000000,88384484.000000
109482633.000000,88345892.000000
109475034.000000,88345852.000000
109475033.000000,88345852.000000
109409181.000000,88345507.000000
109324221.000000,88345062.000000
109316841.000000,88346834.000000
109316839.000000,88346834.000000
109177563.000000,88380271.000000
109177560.000000,88380272.000000
109170184.000000,88382043.000000
109029414.000000,88454700.000000
108910039.000000,88558838.000000
108818950.000000,88688444.000000
108800994.000000,88734500.000000
108772276.000000,88808158.000000
108761406.000000,88836037.000000
108760414.000000,88843570.000000
108760414.000000,88843571.000000
108741937.000000,88983922.000000
108740729.000000,88993096.000000
108746094.000000,89041689.000000
108753566.000000,89109372.000000
108741160.000000,89179277.000000
108692930.000000,89231377.000000
108688130.000000,89233788.000000
108680699.000000,89235266.000000
108670382.000000,89242160.000000
108670379.000000,89242161.000000
108622280.000000,89274301.000000
108596516.000000,89291516.000000
108540266.000000,89375699.000000
108525500.000000,89449933.000000
108525501.000000,90150066.000000
108540266.000000,90224301.000000
108547161.000000,90234621.000000
108547162.000000,90234622.000000
108565364.000000,90261862.000000
108596516.000000,90308484.000000
108680699.000000,90364734.000000
108754933.000000,90379500.000000
108808294.000000,90379500.000000
109769011.000000,90379499.000000
109837132.000000,90399501.000000
109883625.000000,90453157.000000
109895011.000000,90505499.000000
109895011.000000,92998254.000000
109892905.000000,93018048.000000
109892700.000000,93022401.000000
109890508.000000,93032581.000000
109892873.000000,93052563.000000
109894138.000000,93063248.000000
109894453.000000,93068594.000000
109894583.000000,93068583.000000
109895011.000000,93073763.000000
109895011.000000,93078962.000000
109895864.000000,93084086.000000
109895865.000000,93084099.000000
109897938.000000,93096552.000000
109898775.000000,93102427.000000
109900295.000000,93115270.000000
109904380.000000,93149781.000000
109908081.000000,93157489.000000
109909486.000000,93165928.000000
109932140.000000,93207912.000000
109934821.000000,93213175.000000
109955466.000000,93256169.000000
109958822.000000,93260161.000000
109960769.000000,93262108.000000
109962259.000000,93263733.000000
109962492.000000,93264165.000000
109962456.000000,93264198.000000
109962595.000000,93264356.000000
109965528.000000,93269791.000000
109973175.000000,93276860.000000
110002392.000000,93303868.000000
110005958.000000,93307297.000000
110182604.000000,93483943.000000
110195112.000000,93499429.000000
110198046.000000,93502654.000000
110203695.000000,93511402.000000
110215935.000000,93521051.000000
110257047.000000,93578933.000000
110260339.000000,93649853.000000
110224767.000000,93711295.000000
110161623.000000,93743752.000000
110137927.000000,93746000.000000
102037425.000000,93746000.000000
102012847.000000,93743579.000000
102000000.000000,93741024.000000
101987828.000000,93743445.000000
101980246.000000,93743445.000000
101967896.000000,93742838.000000
101866812.000000,93732882.000000
101842592.000000,93728065.000000
101726383.000000,93692813.000000
101703582.000000,93683369.000000
101596483.000000,93626124.000000
101575953.000000,93612406.000000
101482091.000000,93535374.000000
101464626.000000,93517909.000000
101387594.000000,93424047.000000
101373876.000000,93403517.000000
101316631.000000,93296418.000000
101307187.000000,93273617.000000
101271935.000000,93157408.000000
101267118.000000,93133188.000000
101257162.000000,93032104.000000
101256555.000000,93019754.000000
101256555.000000,93012172.000000
101258976.000000,93000000.000000
101256421.000000,92987153.000000
101254000.000000,92962575.000000
101254000.000000,87037425.000000
101256421.000000,87012844.000000
101256555.000000,87012170.000000
101258976.000000,87000000.000000
101256555.000000,86987828.000000
101256555.000000,86980246.000000
101257162.000000,86967896.000000
101267118.000000,86866812.000000
101271935.000000,86842592.000000
101307187.000000,86726383.000000
101316631.000000,86703582.000000
101373876.000000,86596483.000000
101387594.000000,86575953.000000
101464626.000000,86482091.000000
101482091.000000,86464626.000000
101575953.000000,86387594.000000
101596483.000000,86373876.000000
101703582.000000,86316631.000000
101726383.000000,86307187.000000
101842592.000000,86271935.000000
101866812.000000,86267118.000000
101967896.000000,86257162.000000
101980246.000000,86256555.000000
101987828.000000,86256555.000000
102000000.000000,86258976.000000
102012847.000000,86256421.000000
102037425.000000,86254000.000000
116900974.000000,86254000.000000
Z" /> 
<path style="fill:#000000; fill-opacity:1.0; 
stroke:#000000; stroke-width:1.000000; stroke-opacity:1; 
stroke-linecap:round; stroke-linejoin:round;fill-rule:evenodd;"
d="M 129987153.000000,86256421.000000
130000000.000000,86258976.000000
130012172.000000,86256555.000000
130019754.000000,86256555.000000
130032104.000000,86257162.000000
130133188.000000,86267118.000000
130157408.000000,86271935.000000
130273617.000000,86307187.000000
130296418.000000,86316631.000000
130403517.000000,86373876.000000
130424047.000000,86387594.000000
130517909.000000,86464626.000000
130535374.000000,86482091.000000
130612406.000000,86575953.000000
130626124.000000,86596483.000000
130683369.000000,86703582.000000
130692813.000000,86726383.000000
130728065.000000,86842592.000000
130732882.000000,86866812.000000
130742838.000000,86967896.000000
130743445.000000,86980246.000000
130743445.000000,86987828.000000
130741024.000000,87000000.000000
130743445.000000,87012170.000000
130743579.000000,87012844.000000
130746000.000000,87037425.000000
130746000.000000,92962575.000000
130743579.000000,92987153.000000
130741024.000000,93000000.000000
130743445.000000,93012172.000000
130743445.000000,93019754.000000
130742838.000000,93032104.000000
130732882.000000,93133188.000000
130728065.000000,93157408.000000
130692813.000000,93273617.000000
130683369.000000,93296418.000000
130626124.000000,93403517.000000
130612406.000000,93424047.000000
130535374.000000,93517909.000000
130517909.000000,93535374.000000
130424047.000000,93612406.000000
130403517.000000,93626124.000000
130296418.000000,93683369.000000
130273617.000000,93692813.000000
130157408.000000,93728065.000000
130133188.000000,93732882.000000
130032104.000000,93742838.000000
130019754.000000,93743445.000000
130012172.000000,93743445.000000
130000000.000000,93741024.000000
129987153.000000,93743579.000000
129962575.000000,93746000.000000
120612764.000000,93746000.000000
120544643.000000,93725998.000000
120498150.000000,93672342.000000
120488046.000000,93602068.000000
120517540.000000,93537488.000000
120577611.000000,93499003.000000
120671784.000000,93471643.000000
120686220.000000,93465396.000000
120813499.000000,93390124.000000
120825926.000000,93380484.000000
120930484.000000,93275926.000000
120940124.000000,93263499.000000
120999131.000000,93163723.000000
121051024.000000,93115270.000000
121120875.000000,93102565.000000
121152312.000000,93110303.000000
121157293.000000,93113008.000000
121310522.000000,93153207.000000
121394477.000000,93154526.000000
121461319.000000,93155576.000000
121461322.000000,93155576.000000
121468916.000000,93155695.000000
121623332.000000,93120329.000000
121705582.000000,93078962.000000
121758072.000000,93052563.000000
121758075.000000,93052561.000000
121764855.000000,93049151.000000
121770626.000000,93044222.000000
121770629.000000,93044220.000000
121879536.000000,92951204.000000
121879536.000000,92951203.000000
121885314.000000,92946269.000000
121919060.000000,92899307.000000
121975052.000000,92855661.000000
122045755.000000,92849215.000000
122108720.000000,92882018.000000
122129833.000000,92908696.000000
122198854.000000,93025405.000000
122208501.000000,93037841.000000
122312159.000000,93141499.000000
122324595.000000,93151146.000000
122450778.000000,93225770.000000
122465217.000000,93232019.000000
122607436.000000,93273338.000000
122620023.000000,93275637.000000
122627943.000000,93276260.000000
122643030.000000,93273090.000000
122646000.000000,93261626.000000
122646000.000000,93259566.000000
123154000.000000,93259566.000000
123158344.000000,93274361.000000
123170003.000000,93276421.000000
123179977.000000,93275637.000000
123192564.000000,93273338.000000
123334783.000000,93232019.000000
123349222.000000,93225770.000000
123475405.000000,93151146.000000
123487841.000000,93141499.000000
123591499.000000,93037841.000000
123601146.000000,93025405.000000
123675770.000000,92899222.000000
123682019.000000,92884783.000000
123714961.000000,92771395.000000
123714921.000000,92757295.000000
123707651.000000,92754000.000000
123172115.000000,92754000.000000
123156876.000000,92758475.000000
123155671.000000,92759865.000000
123154000.000000,92767548.000000
123154000.000000,93259566.000000
122646000.000000,93259566.000000
122646000.000000,92372000.000000
122666002.000000,92303879.000000
122719658.000000,92257386.000000
122772000.000000,92246000.000000
123701900.000000,92246000.000000
123715431.000000,92242027.000000
123716566.000000,92234129.000000
123682019.000000,92115217.000000
123675770.000000,92100778.000000
123601146.000000,91974595.000000
123591499.000000,91962159.000000
123490405.000000,91861065.000000
123456379.000000,91798753.000000
123459412.000000,91738121.000000
123460054.000000,91736862.000000
123474500.000000,91645653.000000
123474499.000000,91314348.000000
123460054.000000,91223138.000000
123440704.000000,91185161.000000
123427600.000000,91115386.000000
123454300.000000,91049601.000000
123512327.000000,91008694.000000
123539363.000000,91002696.000000
123576597.000000,90998651.000000
123576598.000000,90998651.000000
123584448.000000,90997798.000000
123591841.000000,90995026.000000
123591843.000000,90995026.000000
123666752.000000,90966944.000000
123719764.000000,90947071.000000
123726943.000000,90941691.000000
123726946.000000,90941689.000000
123828224.000000,90865785.000000
123835404.000000,90860404.000000
123871784.000000,90811862.000000
123916689.000000,90751946.000000
123916691.000000,90751943.000000
123922071.000000,90744764.000000
123972798.000000,90609448.000000
123979500.000000,90547756.000000
123979500.000000,89952244.000000
123972798.000000,89890552.000000
123959111.000000,89854040.000000
123937334.000000,89795951.000000
123922071.000000,89755236.000000
123916691.000000,89748057.000000
123916689.000000,89748054.000000
123840785.000000,89646776.000000
123835404.000000,89639596.000000
123794039.000000,89608595.000000
123726946.000000,89558311.000000
123726943.000000,89558309.000000
123719764.000000,89552929.000000
123607453.000000,89510826.000000
123591843.000000,89504974.000000
123591841.000000,89504974.000000
123584448.000000,89502202.000000
123576598.000000,89501349.000000
123576597.000000,89501349.000000
123526153.000000,89495869.000000
123526152.000000,89495869.000000
123522756.000000,89495500.000000
122477244.000000,89495500.000000
122473848.000000,89495869.000000
122473847.000000,89495869.000000
122423403.000000,89501349.000000
122423402.000000,89501349.000000
122415552.000000,89502202.000000
122408159.000000,89504974.000000
122408157.000000,89504974.000000
122392547.000000,89510826.000000
122280236.000000,89552929.000000
122273057.000000,89558309.000000
122273054.000000,89558311.000000
122205961.000000,89608595.000000
122164596.000000,89639596.000000
122162313.000000,89642642.000000
122102283.000000,89675422.000000
122031468.000000,89670357.000000
121974632.000000,89627810.000000
121949821.000000,89561290.000000
121949500.000000,89552301.000000
121949499.000000,89239303.000000
121949499.000000,89234348.000000
121941067.000000,89181106.000000
121936606.000000,89152936.000000
121936605.000000,89152934.000000
121935054.000000,89143138.000000
121917850.000000,89109372.000000
121891035.000000,89056746.000000
121879040.000000,89033204.000000
121824931.000000,88979095.000000
121790905.000000,88916783.000000
121795970.000000,88845968.000000
121824931.000000,88800905.000000
121854431.000000,88771405.000000
121916743.000000,88737379.000000
121943526.000000,88734500.000000
121949265.000000,88734500.000000
122017386.000000,88754502.000000
122063879.000000,88808158.000000
122067246.000000,88816269.000000
122074777.000000,88836358.000000
122074778.000000,88836360.000000
122077929.000000,88844764.000000
122083309.000000,88851943.000000
122083311.000000,88851946.000000
122111831.000000,88890000.000000
122164596.000000,88960404.000000
122171776.000000,88965785.000000
122273054.000000,89041689.000000
122273057.000000,89041691.000000
122280236.000000,89047071.000000
122354415.000000,89074879.000000
122408157.000000,89095026.000000
122408159.000000,89095026.000000
122415552.000000,89097798.000000
122423402.000000,89098651.000000
122423403.000000,89098651.000000
122473847.000000,89104131.000000
122477244.000000,89104500.000000
123522756.000000,89104500.000000
123526153.000000,89104131.000000
123576597.000000,89098651.000000
123576598.000000,89098651.000000
123584448.000000,89097798.000000
123591841.000000,89095026.000000
123591843.000000,89095026.000000
123645585.000000,89074879.000000
123719764.000000,89047071.000000
123726943.000000,89041691.000000
123726946.000000,89041689.000000
123828224.000000,88965785.000000
123835404.000000,88960404.000000
123888169.000000,88890000.000000
123916689.000000,88851946.000000
123916691.000000,88851943.000000
123922071.000000,88844764.000000
123965870.000000,88727929.000000
123970026.000000,88716843.000000
123970026.000000,88716841.000000
123972798.000000,88709448.000000
123979500.000000,88647756.000000
123979500.000000,88052244.000000
123978708.000000,88044955.000000
123973651.000000,87998403.000000
123973651.000000,87998402.000000
123972798.000000,87990552.000000
123969001.000000,87980422.000000
123946897.000000,87921460.000000
123922071.000000,87855236.000000
123916691.000000,87848057.000000
123916689.000000,87848054.000000
123840785.000000,87746776.000000
123835404.000000,87739596.000000
123790074.000000,87705623.000000
123726946.000000,87658311.000000
123726943.000000,87658309.000000
123719764.000000,87652929.000000
123595780.000000,87606450.000000
123591843.000000,87604974.000000
123591841.000000,87604974.000000
123584448.000000,87602202.000000
123576598.000000,87601349.000000
123576597.000000,87601349.000000
123526153.000000,87595869.000000
123526152.000000,87595869.000000
123522756.000000,87595500.000000
122477244.000000,87595500.000000
122473848.000000,87595869.000000
122473847.000000,87595869.000000
122423403.000000,87601349.000000
122423402.000000,87601349.000000
122415552.000000,87602202.000000
122408159.000000,87604974.000000
122408157.000000,87604974.000000
122404220.000000,87606450.000000
122280236.000000,87652929.000000
122273057.000000,87658309.000000
122273054.000000,87658311.000000
122209926.000000,87705623.000000
122164596.000000,87739596.000000
122159215.000000,87746776.000000
122083311.000000,87848054.000000
122083309.000000,87848057.000000
122077929.000000,87855236.000000
122053627.000000,87920064.000000
122049323.000000,87931544.000000
122006682.000000,87988309.000000
121940121.000000,88013009.000000
121870772.000000,87997802.000000
121842246.000000,87976410.000000
121791796.000000,87925960.000000
121681862.000000,87869946.000000
121672073.000000,87868396.000000
121672071.000000,87868395.000000
121642041.000000,87863639.000000
121590653.000000,87855500.000000
121375044.000000,87855500.000000
121159348.000000,87855501.000000
121154455.000000,87856276.000000
121154454.000000,87856276.000000
121077936.000000,87868394.000000
121077934.000000,87868395.000000
121068138.000000,87869946.000000
121059301.000000,87874449.000000
121059300.000000,87874449.000000
121049593.000000,87879395.000000
120958204.000000,87925960.000000
120870960.000000,88013204.000000
120814946.000000,88123138.000000
120813395.000000,88132929.000000
120813395.000000,88132930.000000
120802501.000000,88201711.000000
120772088.000000,88265864.000000
120711820.000000,88303391.000000
120678052.000000,88308000.000000
120180500.000000,88308000.000000
120112379.000000,88287998.000000
120065886.000000,88234342.000000
120054500.000000,88182000.000000
120054500.000000,88118166.000000
120039498.000000,88023445.000000
119981326.000000,87909277.000000
119890723.000000,87818674.000000
119776555.000000,87760502.000000
119681834.000000,87745500.000000
119318166.000000,87745500.000000
119313281.000000,87746274.000000
119313264.000000,87746275.000000
119302051.000000,87748051.000000
119231641.000000,87738950.000000
119193250.000000,87712697.000000
119112104.000000,87631551.000000
119099678.000000,87621911.000000
118970221.000000,87545352.000000
118955788.000000,87539106.000000
118941217.000000,87534873.000000
118881382.000000,87496660.000000
118851704.000000,87432164.000000
118864103.000000,87356674.000000
118915552.000000,87255698.000000
118915552.000000,87255697.000000
118920054.000000,87246862.000000
118934500.000000,87155653.000000
118934499.000000,86724348.000000
118931209.000000,86703573.000000
118921606.000000,86642936.000000
118921605.000000,86642934.000000
118920054.000000,86633138.000000
118904241.000000,86602102.000000
118868540.000000,86532036.000000
118864040.000000,86523204.000000
118809931.000000,86469095.000000
118775905.000000,86406783.000000
118780970.000000,86335968.000000
118823517.000000,86279132.000000
118890037.000000,86254321.000000
118899026.000000,86254000.000000
129962575.000000,86254000.000000
Z" /> 
<path style="fill:#000000; fill-opacity:1.0; 
stroke:#000000; stroke-width:1.000000; stroke-opacity:1; 
stroke-linecap:round; stroke-linejoin:round;fill-rule:evenodd;"
d="M 120767621.000000,90374502.000000
120814114.000000,90428158.000000
120825500.000000,90480499.000000
120825501.000000,90601597.000000
120825501.000000,90720652.000000
120826276.000000,90725545.000000
120826276.000000,90725546.000000
120834584.000000,90778002.000000
120839946.000000,90811862.000000
120844449.000000,90820699.000000
120844449.000000,90820700.000000
120854343.000000,90840118.000000
120895960.000000,90921796.000000
120950069.000000,90975905.000000
120984095.000000,91038217.000000
120979030.000000,91109032.000000
120950069.000000,91154095.000000
120895960.000000,91208204.000000
120839946.000000,91318138.000000
120825500.000000,91409347.000000
120825501.000000,91740652.000000
120826276.000000,91745543.000000
120826276.000000,91745548.000000
120833019.000000,91788127.000000
120823918.000000,91858538.000000
120778195.000000,91912851.000000
120710366.000000,91933822.000000
120673417.000000,91928832.000000
120551395.000000,91893381.000000
120537295.000000,91893421.000000
120534000.000000,91900691.000000
120534000.000000,92828000.000000
120513998.000000,92896121.000000
120460342.000000,92942614.000000
120408000.000000,92954000.000000
120152000.000000,92954000.000000
120083879.000000,92933998.000000
120037386.000000,92880342.000000
120026000.000000,92828000.000000
120026000.000000,91906442.000000
120021525.000000,91891203.000000
119998231.000000,91871019.000000
119992667.000000,91868477.000000
119954287.000000,91808748.000000
119954292.000000,91737752.000000
119973253.000000,91699194.000000
119974311.000000,91697738.000000
119981326.000000,91690723.000000
120039498.000000,91576555.000000
120054500.000000,91481834.000000
120054500.000000,90480499.000000
120074502.000000,90412379.000000
120128158.000000,90365886.000000
120180500.000000,90354500.000000
120699500.000000,90354500.000000
Z" /> 
<path style="fill:#000000; fill-opacity:1.0; 
stroke:#000000; stroke-width:1.000000; stroke-opacity:1; 
stroke-linecap:round; stroke-linejoin:round;fill-rule:evenodd;"
d="M 116191121.000000,90791002.000000
116237614.000000,90844658.000000
116249000.000000,90897000.000000
116249000.000000,91784566.000000
116253344.000000,91799361.000000
116265003.000000,91801421.000000
116274977.000000,91800637.000000
116287564.000000,91798338.000000
116429783.000000,91757019.000000
116444222.000000,91750770.000000
116570405.000000,91676146.000000
116582841.000000,91666499.000000
116686499.000000,91562841.000000
116696146.000000,91550405.000000
116770770.000000,91424222.000000
116777019.000000,91409783.000000
116798503.000000,91335834.000000
116836716.000000,91275999.000000
116901212.000000,91246321.000000
116971515.000000,91256224.000000
117025303.000000,91302564.000000
117045500.000000,91370987.000000
117045500.000000,91481834.000000
117060502.000000,91576555.000000
117118674.000000,91690723.000000
117209277.000000,91781326.000000
117323445.000000,91839498.000000
117418166.000000,91854500.000000
117781834.000000,91854500.000000
117786726.000000,91853725.000000
117791659.000000,91853337.000000
117791785.000000,91854935.000000
117855207.000000,91863135.000000
117909519.000000,91908860.000000
117930500.000000,91978481.000000
117930500.000000,92131474.000000
117910498.000000,92199595.000000
117893595.000000,92220569.000000
117864095.000000,92250069.000000
117801783.000000,92284095.000000
117730968.000000,92279030.000000
117685905.000000,92250069.000000
117631796.000000,92195960.000000
117521862.000000,92139946.000000
117512073.000000,92138396.000000
117512071.000000,92138395.000000
117485579.000000,92134199.000000
117430653.000000,92125500.000000
117265034.000000,92125500.000000
117099348.000000,92125501.000000
117094455.000000,92126276.000000
117094454.000000,92126276.000000
117017936.000000,92138394.000000
117017934.000000,92138395.000000
117008138.000000,92139946.000000
116999301.000000,92144449.000000
116999300.000000,92144449.000000
116943991.000000,92172631.000000
116898204.000000,92195960.000000
116810960.000000,92283204.000000
116806458.000000,92292040.000000
116805352.000000,92293562.000000
116749130.000000,92336915.000000
116703417.000000,92345500.000000
115959705.000000,92345500.000000
115891584.000000,92325498.000000
115845091.000000,92271842.000000
115834987.000000,92201568.000000
115857382.000000,92145977.000000
115877755.000000,92117624.000000
115936842.000000,91970641.000000
115952142.000000,91863135.000000
115958581.000000,91817891.000000
115958581.000000,91817888.000000
115959162.000000,91813807.000000
115959307.000000,91800000.000000
115940276.000000,91642733.000000
115884280.000000,91494546.000000
115859732.000000,91458828.000000
115798855.000000,91370251.000000
115798854.000000,91370249.000000
115794553.000000,91363992.000000
115783180.000000,91353859.000000
115745626.000000,91293611.000000
115741000.000000,91259784.000000
115741000.000000,90897000.000000
115761002.000000,90828879.000000
115814658.000000,90782386.000000
115867000.000000,90771000.000000
116123000.000000,90771000.000000
Z" /> 
<path style="fill:#000000; fill-opacity:1.0; 
stroke:#000000; stroke-width:1.000000; stroke-opacity:1; 
stroke-linecap:round; stroke-linejoin:round;fill-rule:evenodd;"
d="M 112907218.000000,89377759.000000
112954661.000000,89430576.000000
112961479.000000,89460624.000000
112961896.000000,89460502.000000
112971475.000000,89493124.000000
112972865.000000,89494329.000000
112980548.000000,89496000.000000
114328000.000000,89496000.000000
114396121.000000,89516002.000000
114442614.000000,89569658.000000
114454000.000000,89622000.000000
114454000.000000,89878000.000000
114433998.000000,89946121.000000
114380342.000000,89992614.000000
114328000.000000,90004000.000000
112967001.000000,90004000.000000
112967001.000000,90003039.000000
112917392.000000,90003039.000000
112877327.000000,89982970.000000
112873646.000000,89980211.000000
112858059.000000,89971678.000000
112737606.000000,89926522.000000
112722351.000000,89922895.000000
112671486.000000,89917369.000000
112664672.000000,89917000.000000
112282115.000000,89917000.000000
112266876.000000,89921475.000000
112265671.000000,89922865.000000
112264000.000000,89930548.000000
112264000.000000,90477885.000000
112268475.000000,90493124.000000
112269865.000000,90494329.000000
112277548.000000,90496000.000000
113096793.000000,90496000.000000
113164914.000000,90516002.000000
113185811.000000,90532827.000000
113246829.000000,90593739.000000
113258240.000000,90602751.000000
113396243.000000,90687816.000000
113409424.000000,90693963.000000
113563710.000000,90745138.000000
113577086.000000,90748005.000000
113671438.000000,90757672.000000
113677854.000000,90758000.000000
113697523.000000,90758000.000000
113765644.000000,90778002.000000
113812137.000000,90831658.000000
113822241.000000,90901932.000000
113805044.000000,90944301.000000
113806865.000000,90945229.000000
113750132.000000,91056573.000000
113748581.000000,91066363.000000
113748581.000000,91066364.000000
113744555.000000,91091783.000000
113735500.000000,91148955.000000
113735501.000000,91491044.000000
113737181.000000,91501649.000000
113748557.000000,91573479.000000
113750132.000000,91583427.000000
113754635.000000,91592264.000000
113754635.000000,91592265.000000
113759283.000000,91601386.000000
113806865.000000,91694771.000000
113822999.000000,91710905.000000
113857025.000000,91773217.000000
113851960.000000,91844032.000000
113822999.000000,91889095.000000
113806865.000000,91905229.000000
113750132.000000,92016573.000000
113748582.000000,92026362.000000
113748579.000000,92026370.000000
113746545.000000,92039213.000000
113716132.000000,92103366.000000
113655863.000000,92140891.000000
113622097.000000,92145500.000000
111516864.000000,92145500.000000
111448743.000000,92125498.000000
111413025.000000,92090868.000000
111398857.000000,92070253.000000
111398853.000000,92070248.000000
111394553.000000,92063992.000000
111276275.000000,91958611.000000
111136274.000000,91884484.000000
110982633.000000,91845892.000000
110975034.000000,91845852.000000
110975033.000000,91845852.000000
110909181.000000,91845507.000000
110824221.000000,91845062.000000
110816841.000000,91846834.000000
110816839.000000,91846834.000000
110759425.000000,91860618.000000
110688517.000000,91857071.000000
110630783.000000,91815751.000000
110604553.000000,91749777.000000
110604011.000000,91738099.000000
110604011.000000,91119669.000000
110892001.000000,91119669.000000
110892371.000000,91126490.000000
110897895.000000,91177352.000000
110901521.000000,91192604.000000
110946676.000000,91313054.000000
110955214.000000,91328649.000000
111031715.000000,91430724.000000
111044276.000000,91443285.000000
111146351.000000,91519786.000000
111161946.000000,91528324.000000
111282394.000000,91573478.000000
111297649.000000,91577105.000000
111348514.000000,91582631.000000
111355328.000000,91583000.000000
111737885.000000,91583000.000000
111753124.000000,91578525.000000
111754329.000000,91577135.000000
111756000.000000,91569452.000000
111756000.000000,91564884.000000
112264000.000000,91564884.000000
112268475.000000,91580123.000000
112269865.000000,91581328.000000
112277548.000000,91582999.000000
112664669.000000,91582999.000000
112671490.000000,91582629.000000
112722352.000000,91577105.000000
112737604.000000,91573479.000000
112858054.000000,91528324.000000
112873649.000000,91519786.000000
112975724.000000,91443285.000000
112988285.000000,91430724.000000
113064786.000000,91328649.000000
113073324.000000,91313054.000000
113118478.000000,91192606.000000
113122105.000000,91177351.000000
113127631.000000,91126486.000000
113128000.000000,91119672.000000
113128000.000000,91022115.000000
113123525.000000,91006876.000000
113122135.000000,91005671.000000
113114452.000000,91004000.000000
112282115.000000,91004000.000000
112266876.000000,91008475.000000
112265671.000000,91009865.000000
112264000.000000,91017548.000000
112264000.000000,91564884.000000
111756000.000000,91564884.000000
111756000.000000,91022115.000000
111751525.000000,91006876.000000
111750135.000000,91005671.000000
111742452.000000,91004000.000000
110910116.000000,91004000.000000
110894877.000000,91008475.000000
110893672.000000,91009865.000000
110892001.000000,91017548.000000
110892001.000000,91119669.000000
110604011.000000,91119669.000000
110604011.000000,90477885.000000
110892000.000000,90477885.000000
110896475.000000,90493124.000000
110897865.000000,90494329.000000
110905548.000000,90496000.000000
111737885.000000,90496000.000000
111753124.000000,90491525.000000
111754329.000000,90490135.000000
111756000.000000,90482452.000000
111756000.000000,89935116.000000
111751525.000000,89919877.000000
111750135.000000,89918672.000000
111742452.000000,89917001.000000
111355331.000000,89917001.000000
111348510.000000,89917371.000000
111297648.000000,89922895.000000
111282396.000000,89926521.000000
111161946.000000,89971676.000000
111146351.000000,89980214.000000
111044276.000000,90056715.000000
111031715.000000,90069276.000000
110955214.000000,90171351.000000
110946676.000000,90186946.000000
110901522.000000,90307394.000000
110897895.000000,90322649.000000
110892369.000000,90373514.000000
110892000.000000,90380328.000000
110892000.000000,90477885.000000
110604011.000000,90477885.000000
110604011.000000,90149518.000000
110624013.000000,90081397.000000
110640916.000000,90060423.000000
111241321.000000,89460018.000000
111303633.000000,89425992.000000
111355000.000000,89425535.000000
111368862.000000,89428293.000000
111368868.000000,89428294.000000
111374933.000000,89429500.000000
112009897.000000,89429500.000000
112645066.000000,89429499.000000
112687948.000000,89420970.000000
112707126.000000,89417156.000000
112707128.000000,89417155.000000
112719301.000000,89414734.000000
112729621.000000,89407839.000000
112729622.000000,89407838.000000
112770998.000000,89380191.000000
112838751.000000,89358976.000000
Z" /> 
<path style="fill:#000000; fill-opacity:1.0; 
stroke:#000000; stroke-width:1.000000; stroke-opacity:1; 
stroke-linecap:round; stroke-linejoin:round;fill-rule:evenodd;"
d="M 117065649.000000,89349502.000000
117109795.000000,89398297.000000
117118674.000000,89415723.000000
117209277.000000,89506326.000000
117323445.000000,89564498.000000
117418166.000000,89579500.000000
117781834.000000,89579500.000000
117786719.000000,89578726.000000
117786736.000000,89578725.000000
117797949.000000,89576949.000000
117868359.000000,89586050.000000
117906750.000000,89612303.000000
117987896.000000,89693449.000000
118000323.000000,89703089.000000
118069598.000000,89744058.000000
118118051.000000,89795951.000000
118130756.000000,89865802.000000
118103681.000000,89931433.000000
118094554.000000,89941607.000000
118023501.000000,90012660.000000
117961189.000000,90046686.000000
117895180.000000,90041965.000000
117894822.000000,90043068.000000
117885389.000000,90040003.000000
117876555.000000,90035502.000000
117781834.000000,90020500.000000
117418166.000000,90020500.000000
117323445.000000,90035502.000000
117209277.000000,90093674.000000
117118674.000000,90184277.000000
117060502.000000,90298445.000000
117045500.000000,90393166.000000
117045500.000000,90679013.000000
117025498.000000,90747134.000000
116971842.000000,90793627.000000
116901568.000000,90803731.000000
116836988.000000,90774237.000000
116798503.000000,90714166.000000
116777019.000000,90640217.000000
116770770.000000,90625778.000000
116696146.000000,90499595.000000
116686499.000000,90487159.000000
116585405.000000,90386065.000000
116551379.000000,90323753.000000
116554412.000000,90263121.000000
116555054.000000,90261862.000000
116569500.000000,90170653.000000
116569499.000000,89839348.000000
116555054.000000,89748138.000000
116536942.000000,89712590.000000
116503540.000000,89647036.000000
116499040.000000,89638204.000000
116439931.000000,89579095.000000
116405905.000000,89516783.000000
116410970.000000,89445968.000000
116439931.000000,89400905.000000
116474431.000000,89366405.000000
116536743.000000,89332379.000000
116563526.000000,89329500.000000
116997528.000000,89329500.000000
Z" /> 
</g>
</g>
</g>
<g style="fill:#FFFFFF; fill-opacity:1.0; 
stroke:#FFFFFF; stroke-width:1.000000; stroke-opacity:1; 
stroke-linecap:round; stroke-linejoin:round;">
<circle cx="120500000.000000" cy="91480498.000000" r="200000.000000" /> 
</g>
<g style="fill:#FFFFFF; fill-opacity:1.0; 
stroke:#FFFFFF; stroke-width:21200.000000; stroke-opacity:1; 
stroke-linecap:round; stroke-linejoin:round;">
</g>
<g style="fill:#FFFFFF; fill-opacity:1.0; 
stroke:#FFFFFF; stroke-width:1.000000; stroke-opacity:1; 
stroke-linecap:round; stroke-linejoin:round;">
<circle cx="107500000.000000" cy="93000000.000000" r="200000.000000" /> 
</g>
<g style="fill:#FFFFFF; fill-opacity:1.0; 
stroke:#FFFFFF; stroke-width:21200.000000; stroke-opacity:1; 
stroke-linecap:round; stroke-linejoin:round;">
</g>
<g style="fill:#FFFFFF; fill-opacity:1.0; 
stroke:#FFFFFF; stroke-width:1.000000; stroke-opacity:1; 
stroke-linecap:round; stroke-linejoin:round;">
<circle cx="109000000.000000" cy="93000000.000000" r="200000.000000" /> 
</g>
<g style="fill:#FFFFFF; fill-opacity:1.0; 
stroke:#FFFFFF; stroke-width:21200.000000; stroke-opacity:1; 
stroke-linecap:round; stroke-linejoin:round;">
</g>
<g style="fill:#FFFFFF; fill-opacity:1.0; 
stroke:#FFFFFF; stroke-width:1.000000; stroke-opacity:1; 
stroke-linecap:round; stroke-linejoin:round;">
<circle cx="127500000.000000" cy="93000000.000000" r="200000.000000" /> 
</g>
<g style="fill:#FFFFFF; fill-opacity:1.0; 
stroke:#FFFFFF; stroke-width:21200.000000; stroke-opacity:1; 
stroke-linecap:round; stroke-linejoin:round;">
</g>
<g style="fill:#FFFFFF; fill-opacity:1.0; 
stroke:#FFFFFF; stroke-width:1.000000; stroke-opacity:1; 
stroke-linecap:round; stroke-linejoin:round;">
<circle cx="116896495.000000" cy="89997292.000000" r="200000.000000" /> 
</g>
<g style="fill:#FFFFFF; fill-opacity:1.0; 
stroke:#FFFFFF; stroke-width:21200.000000; stroke-opacity:1; 
stroke-linecap:round; stroke-linejoin:round;">
</g>
<g style="fill:#FFFFFF; fill-opacity:1.0; 
stroke:#FFFFFF; stroke-width:1.000000; stroke-opacity:1; 
stroke-linecap:round; stroke-linejoin:round;">
<circle cx="106000000.000000" cy="93000000.000000" r="200000.000000" /> 
</g>
<g style="fill:#FFFFFF; fill-opacity:1.0; 
stroke:#FFFFFF; stroke-width:21200.000000; stroke-opacity:1; 
stroke-linecap:round; stroke-linejoin:round;">
</g>
<g style="fill:#FFFFFF; fill-opacity:1.0; 
stroke:#FFFFFF; stroke-width:1.000000; stroke-opacity:1; 
stroke-linecap:round; stroke-linejoin:round;">
<circle cx="124500000.000000" cy="93000000.000000" r="200000.000000" /> 
</g>
<g style="fill:#FFFFFF; fill-opacity:1.0; 
stroke:#FFFFFF; stroke-width:21200.000000; stroke-opacity:1; 
stroke-linecap:round; stroke-linejoin:round;">
</g>
<g style="fill:#FFFFFF; fill-opacity:1.0; 
stroke:#FFFFFF; stroke-width:1.000000; stroke-opacity:1; 
stroke-linecap:round; stroke-linejoin:round;">
<circle cx="126000000.000000" cy="93000000.000000" r="200000.000000" /> 
</g>
<g style="fill:#FFFFFF; fill-opacity:1.0; 
stroke:#FFFFFF; stroke-width:21200.000000; stroke-opacity:1; 
stroke-linecap:round; stroke-linejoin:round;">
</g>
<g style="fill:#FFFFFF; fill-opacity:1.0; 
stroke:#FFFFFF; stroke-width:1.000000; stroke-opacity:1; 
stroke-linecap:round; stroke-linejoin:round;">
<circle cx="115300000.000000" cy="91800000.000000" r="200000.000000" /> 
</g>
<g style="fill:#FFFFFF; fill-opacity:1.0; 
stroke:#FFFFFF; stroke-width:21200.000000; stroke-opacity:1; 
stroke-linecap:round; stroke-linejoin:round;">
</g>
<g style="fill:#FFFFFF; fill-opacity:1.0; 
stroke:#FFFFFF; stroke-width:1.000000; stroke-opacity:1; 
stroke-linecap:round; stroke-linejoin:round;">
<circle cx="110900000.000000" cy="87400000.000000" r="200000.000000" /> 
</g>
<g style="fill:#FFFFFF; fill-opacity:1.0; 
stroke:#FFFFFF; stroke-width:21200.000000; stroke-opacity:1; 
stroke-linecap:round; stroke-linejoin:round;">
</g>
<g style="fill:#FFFFFF; fill-opacity:1.0; 
stroke:#FFFFFF; stroke-width:1.000000; stroke-opacity:1; 
stroke-linecap:round; stroke-linejoin:round;">
<circle cx="121400000.000000" cy="92500000.000000" r="200000.000000" /> 
</g>
<g style="fill:#FFFFFF; fill-opacity:1.0; 
stroke:#FFFFFF; stroke-width:21200.000000; stroke-opacity:1; 
stroke-linecap:round; stroke-linejoin:round;">
</g>
<g style="fill:#FFFFFF; fill-opacity:1.0; 
stroke:#FFFFFF; stroke-width:1.000000; stroke-opacity:1; 
stroke-linecap:round; stroke-linejoin:round;">
<circle cx="110900000.000000" cy="92500000.000000" r="200000.000000" /> 
</g>
<g style="fill:#FFFFFF; fill-opacity:1.0; 
stroke:#FFFFFF; stroke-width:21200.000000; stroke-opacity:1; 
stroke-linecap:round; stroke-linejoin:round;">
</g>
<g style="fill:#FFFFFF; fill-opacity:1.0; 
stroke:#FFFFFF; stroke-width:1.000000; stroke-opacity:1; 
stroke-linecap:round; stroke-linejoin:round;">
<circle cx="109400000.000000" cy="89000000.000000" r="200000.000000" /> 
</g>
<g style="fill:#FFFFFF; fill-opacity:1.0; 
stroke:#FFFFFF; stroke-width:21200.000000; stroke-opacity:1; 
stroke-linecap:round; stroke-linejoin:round;">
</g>
<g style="fill:#000000; fill-opacity:1.0; 
stroke:#000000; stroke-width:21200.000000; stroke-opacity:1; 
stroke-linecap:round; stroke-linejoin:round;">
</g> 
</svg>
