<?xml version="1.0" standalone="no"?>
 <!DOCTYPE svg PUBLIC "-//W3C//DTD SVG 1.1//EN" 
 "http://www.w3.org/Graphics/SVG/1.1/DTD/svg11.dtd"> 
<svg
  xmlns:svg="http://www.w3.org/2000/svg"
  xmlns="http://www.w3.org/2000/svg"
  xmlns:xlink="http://www.w3.org/1999/xlink"
  version="1.1"
  width="29.700220cm" height="21.000720cm" viewBox="0 0 297002200 210007200">
<title>SVG Picture created as preamp-F_Mask.svg date 2022/03/21 18:47:40 </title>
  <desc>Picture generated by PCBNEW </desc>
<g style="fill:#000000; fill-opacity:1.000000;stroke:#000000; stroke-opacity:1.000000;
stroke-linecap:round; stroke-linejoin:round;"
 transform="translate(0 0) scale(1 1)">
</g>
<g style="fill:#000000; fill-opacity:0.0; 
stroke:#000000; stroke-width:0.000000; stroke-opacity:1; 
stroke-linecap:round; stroke-linejoin:round;">
<g >
</g>
<g style="fill:#000000; fill-opacity:0.0; 
stroke:#000000; stroke-width:1.000000; stroke-opacity:1; 
stroke-linecap:round; stroke-linejoin:round;">
</g>
<g style="fill:#000000; fill-opacity:1.0; 
stroke:#000000; stroke-width:1.000000; stroke-opacity:1; 
stroke-linecap:round; stroke-linejoin:round;">
<path style="fill:#000000; fill-opacity:1.0; 
stroke:#000000; stroke-width:1.000000; stroke-opacity:1; 
stroke-linecap:round; stroke-linejoin:round;fill-rule:evenodd;"
d="M 122525000.000000,90750000.000000
122429329.000000,90730970.000000
122348223.000000,90676777.000000
122294030.000000,90595671.000000
122275000.000000,90500000.000000
122275000.000000,90000000.000000
122294030.000000,89904329.000000
122348223.000000,89823223.000000
122429329.000000,89769030.000000
122525000.000000,89750000.000000
123475000.000000,89750000.000000
123570671.000000,89769030.000000
123651777.000000,89823223.000000
123705970.000000,89904329.000000
123725000.000000,90000000.000000
123725000.000000,90500000.000000
123705970.000000,90595671.000000
123651777.000000,90676777.000000
123570671.000000,90730970.000000
123475000.000000,90750000.000000
Z" /> 
<path style="fill:#000000; fill-opacity:1.0; 
stroke:#000000; stroke-width:1.000000; stroke-opacity:1; 
stroke-linecap:round; stroke-linejoin:round;fill-rule:evenodd;"
d="M 122525000.000000,88850000.000000
122429329.000000,88830970.000000
122348223.000000,88776777.000000
122294030.000000,88695671.000000
122275000.000000,88600000.000000
122275000.000000,88100000.000000
122294030.000000,88004329.000000
122348223.000000,87923223.000000
122429329.000000,87869030.000000
122525000.000000,87850000.000000
123475000.000000,87850000.000000
123570671.000000,87869030.000000
123651777.000000,87923223.000000
123705970.000000,88004329.000000
123725000.000000,88100000.000000
123725000.000000,88600000.000000
123705970.000000,88695671.000000
123651777.000000,88776777.000000
123570671.000000,88830970.000000
123475000.000000,88850000.000000
Z" /> 
</g>
<g >
</g>
<g style="fill:#000000; fill-opacity:1.0; 
stroke:#000000; stroke-width:1.000000; stroke-opacity:1; 
stroke-linecap:round; stroke-linejoin:round;">
<path style="fill:#000000; fill-opacity:1.0; 
stroke:#000000; stroke-width:1.000000; stroke-opacity:1; 
stroke-linecap:round; stroke-linejoin:round;fill-rule:evenodd;"
d="M 114675000.000000,87350000.000000
114770671.000000,87369030.000000
114851777.000000,87423223.000000
114905970.000000,87504329.000000
114925000.000000,87600000.000000
114925000.000000,88100000.000000
114905970.000000,88195671.000000
114851777.000000,88276777.000000
114770671.000000,88330970.000000
114675000.000000,88350000.000000
113725000.000000,88350000.000000
113629329.000000,88330970.000000
113548223.000000,88276777.000000
113494030.000000,88195671.000000
113475000.000000,88100000.000000
113475000.000000,87600000.000000
113494030.000000,87504329.000000
113548223.000000,87423223.000000
113629329.000000,87369030.000000
113725000.000000,87350000.000000
Z" /> 
<path style="fill:#000000; fill-opacity:1.0; 
stroke:#000000; stroke-width:1.000000; stroke-opacity:1; 
stroke-linecap:round; stroke-linejoin:round;fill-rule:evenodd;"
d="M 114675000.000000,89250000.000000
114770671.000000,89269030.000000
114851777.000000,89323223.000000
114905970.000000,89404329.000000
114925000.000000,89500000.000000
114925000.000000,90000000.000000
114905970.000000,90095671.000000
114851777.000000,90176777.000000
114770671.000000,90230970.000000
114675000.000000,90250000.000000
113725000.000000,90250000.000000
113629329.000000,90230970.000000
113548223.000000,90176777.000000
113494030.000000,90095671.000000
113475000.000000,90000000.000000
113475000.000000,89500000.000000
113494030.000000,89404329.000000
113548223.000000,89323223.000000
113629329.000000,89269030.000000
113725000.000000,89250000.000000
Z" /> 
</g>
<g >
</g>
<g >
</g>
<g style="fill:#000000; fill-opacity:1.0; 
stroke:#000000; stroke-width:1.000000; stroke-opacity:1; 
stroke-linecap:round; stroke-linejoin:round;">
<path style="fill:#000000; fill-opacity:1.0; 
stroke:#000000; stroke-width:1.000000; stroke-opacity:1; 
stroke-linecap:round; stroke-linejoin:round;fill-rule:evenodd;"
d="M 114470000.000000,91040000.000000
114523576.000000,91050657.000000
114568995.000000,91081005.000000
114599343.000000,91126424.000000
114610000.000000,91180000.000000
114610000.000000,91460000.000000
114599343.000000,91513576.000000
114568995.000000,91558995.000000
114523576.000000,91589343.000000
114470000.000000,91600000.000000
114130000.000000,91600000.000000
114076424.000000,91589343.000000
114031005.000000,91558995.000000
114000657.000000,91513576.000000
113990000.000000,91460000.000000
113990000.000000,91180000.000000
114000657.000000,91126424.000000
114031005.000000,91081005.000000
114076424.000000,91050657.000000
114130000.000000,91040000.000000
Z" /> 
<path style="fill:#000000; fill-opacity:1.0; 
stroke:#000000; stroke-width:1.000000; stroke-opacity:1; 
stroke-linecap:round; stroke-linejoin:round;fill-rule:evenodd;"
d="M 114470000.000000,92000000.000000
114523576.000000,92010657.000000
114568995.000000,92041005.000000
114599343.000000,92086424.000000
114610000.000000,92140000.000000
114610000.000000,92420000.000000
114599343.000000,92473576.000000
114568995.000000,92518995.000000
114523576.000000,92549343.000000
114470000.000000,92560000.000000
114130000.000000,92560000.000000
114076424.000000,92549343.000000
114031005.000000,92518995.000000
114000657.000000,92473576.000000
113990000.000000,92420000.000000
113990000.000000,92140000.000000
114000657.000000,92086424.000000
114031005.000000,92041005.000000
114076424.000000,92010657.000000
114130000.000000,92000000.000000
Z" /> 
</g>
<g >
</g>
<g style="fill:#000000; fill-opacity:1.0; 
stroke:#000000; stroke-width:1.000000; stroke-opacity:1; 
stroke-linecap:round; stroke-linejoin:round;">
<path style="fill:#000000; fill-opacity:1.0; 
stroke:#000000; stroke-width:1.000000; stroke-opacity:1; 
stroke-linecap:round; stroke-linejoin:round;fill-rule:evenodd;"
d="M 118680000.000000,87125000.000000
118669724.000000,87176662.000000
118640459.000000,87220459.000000
118596662.000000,87249724.000000
118545000.000000,87260000.000000
118275000.000000,87260000.000000
118223338.000000,87249724.000000
118179541.000000,87220459.000000
118150276.000000,87176662.000000
118140000.000000,87125000.000000
118140000.000000,86755000.000000
118150276.000000,86703338.000000
118179541.000000,86659541.000000
118223338.000000,86630276.000000
118275000.000000,86620000.000000
118545000.000000,86620000.000000
118596662.000000,86630276.000000
118640459.000000,86659541.000000
118669724.000000,86703338.000000
118680000.000000,86755000.000000
Z" /> 
<path style="fill:#000000; fill-opacity:1.0; 
stroke:#000000; stroke-width:1.000000; stroke-opacity:1; 
stroke-linecap:round; stroke-linejoin:round;fill-rule:evenodd;"
d="M 117660000.000000,87125000.000000
117649724.000000,87176662.000000
117620459.000000,87220459.000000
117576662.000000,87249724.000000
117525000.000000,87260000.000000
117255000.000000,87260000.000000
117203338.000000,87249724.000000
117159541.000000,87220459.000000
117130276.000000,87176662.000000
117120000.000000,87125000.000000
117120000.000000,86755000.000000
117130276.000000,86703338.000000
117159541.000000,86659541.000000
117203338.000000,86630276.000000
117255000.000000,86620000.000000
117525000.000000,86620000.000000
117576662.000000,86630276.000000
117620459.000000,86659541.000000
117649724.000000,86703338.000000
117660000.000000,86755000.000000
Z" /> 
</g>
<g >
</g>
<g style="fill:#000000; fill-opacity:1.0; 
stroke:#000000; stroke-width:1.000000; stroke-opacity:1; 
stroke-linecap:round; stroke-linejoin:round;">
<path style="fill:#000000; fill-opacity:1.0; 
stroke:#000000; stroke-width:1.000000; stroke-opacity:1; 
stroke-linecap:round; stroke-linejoin:round;fill-rule:evenodd;"
d="M 116180000.000000,89735000.000000
116231662.000000,89745276.000000
116275459.000000,89774541.000000
116304724.000000,89818338.000000
116315000.000000,89870000.000000
116315000.000000,90140000.000000
116304724.000000,90191662.000000
116275459.000000,90235459.000000
116231662.000000,90264724.000000
116180000.000000,90275000.000000
115810000.000000,90275000.000000
115758338.000000,90264724.000000
115714541.000000,90235459.000000
115685276.000000,90191662.000000
115675000.000000,90140000.000000
115675000.000000,89870000.000000
115685276.000000,89818338.000000
115714541.000000,89774541.000000
115758338.000000,89745276.000000
115810000.000000,89735000.000000
Z" /> 
<path style="fill:#000000; fill-opacity:1.0; 
stroke:#000000; stroke-width:1.000000; stroke-opacity:1; 
stroke-linecap:round; stroke-linejoin:round;fill-rule:evenodd;"
d="M 116180000.000000,90755000.000000
116231662.000000,90765276.000000
116275459.000000,90794541.000000
116304724.000000,90838338.000000
116315000.000000,90890000.000000
116315000.000000,91160000.000000
116304724.000000,91211662.000000
116275459.000000,91255459.000000
116231662.000000,91284724.000000
116180000.000000,91295000.000000
115810000.000000,91295000.000000
115758338.000000,91284724.000000
115714541.000000,91255459.000000
115685276.000000,91211662.000000
115675000.000000,91160000.000000
115675000.000000,90890000.000000
115685276.000000,90838338.000000
115714541.000000,90794541.000000
115758338.000000,90765276.000000
115810000.000000,90755000.000000
Z" /> 
</g>
<g >
</g>
<g style="fill:#000000; fill-opacity:1.0; 
stroke:#000000; stroke-width:1.000000; stroke-opacity:1; 
stroke-linecap:round; stroke-linejoin:round;">
<path style="fill:#000000; fill-opacity:1.0; 
stroke:#000000; stroke-width:1.000000; stroke-opacity:1; 
stroke-linecap:round; stroke-linejoin:round;fill-rule:evenodd;"
d="M 121190000.000000,89670000.000000
121138338.000000,89659724.000000
121094541.000000,89630459.000000
121065276.000000,89586662.000000
121055000.000000,89535000.000000
121055000.000000,89265000.000000
121065276.000000,89213338.000000
121094541.000000,89169541.000000
121138338.000000,89140276.000000
121190000.000000,89130000.000000
121560000.000000,89130000.000000
121611662.000000,89140276.000000
121655459.000000,89169541.000000
121684724.000000,89213338.000000
121695000.000000,89265000.000000
121695000.000000,89535000.000000
121684724.000000,89586662.000000
121655459.000000,89630459.000000
121611662.000000,89659724.000000
121560000.000000,89670000.000000
Z" /> 
<path style="fill:#000000; fill-opacity:1.0; 
stroke:#000000; stroke-width:1.000000; stroke-opacity:1; 
stroke-linecap:round; stroke-linejoin:round;fill-rule:evenodd;"
d="M 121190000.000000,88650000.000000
121138338.000000,88639724.000000
121094541.000000,88610459.000000
121065276.000000,88566662.000000
121055000.000000,88515000.000000
121055000.000000,88245000.000000
121065276.000000,88193338.000000
121094541.000000,88149541.000000
121138338.000000,88120276.000000
121190000.000000,88110000.000000
121560000.000000,88110000.000000
121611662.000000,88120276.000000
121655459.000000,88149541.000000
121684724.000000,88193338.000000
121695000.000000,88245000.000000
121695000.000000,88515000.000000
121684724.000000,88566662.000000
121655459.000000,88610459.000000
121611662.000000,88639724.000000
121560000.000000,88650000.000000
Z" /> 
</g>
<g >
</g>
<g style="fill:#000000; fill-opacity:1.0; 
stroke:#000000; stroke-width:1.000000; stroke-opacity:1; 
stroke-linecap:round; stroke-linejoin:round;">
<path style="fill:#000000; fill-opacity:1.0; 
stroke:#000000; stroke-width:1.000000; stroke-opacity:1; 
stroke-linecap:round; stroke-linejoin:round;fill-rule:evenodd;"
d="M 119040000.000000,92530000.000000
119050657.000000,92476424.000000
119081005.000000,92431005.000000
119126424.000000,92400657.000000
119180000.000000,92390000.000000
119460000.000000,92390000.000000
119513576.000000,92400657.000000
119558995.000000,92431005.000000
119589343.000000,92476424.000000
119600000.000000,92530000.000000
119600000.000000,92870000.000000
119589343.000000,92923576.000000
119558995.000000,92968995.000000
119513576.000000,92999343.000000
119460000.000000,93010000.000000
119180000.000000,93010000.000000
119126424.000000,92999343.000000
119081005.000000,92968995.000000
119050657.000000,92923576.000000
119040000.000000,92870000.000000
Z" /> 
<path style="fill:#000000; fill-opacity:1.0; 
stroke:#000000; stroke-width:1.000000; stroke-opacity:1; 
stroke-linecap:round; stroke-linejoin:round;fill-rule:evenodd;"
d="M 120000000.000000,92530000.000000
120010657.000000,92476424.000000
120041005.000000,92431005.000000
120086424.000000,92400657.000000
120140000.000000,92390000.000000
120420000.000000,92390000.000000
120473576.000000,92400657.000000
120518995.000000,92431005.000000
120549343.000000,92476424.000000
120560000.000000,92530000.000000
120560000.000000,92870000.000000
120549343.000000,92923576.000000
120518995.000000,92968995.000000
120473576.000000,92999343.000000
120420000.000000,93010000.000000
120140000.000000,93010000.000000
120086424.000000,92999343.000000
120041005.000000,92968995.000000
120010657.000000,92923576.000000
120000000.000000,92870000.000000
Z" /> 
</g>
<g >
</g>
<g style="fill:#000000; fill-opacity:1.0; 
stroke:#000000; stroke-width:1.000000; stroke-opacity:1; 
stroke-linecap:round; stroke-linejoin:round;">
<path style="fill:#000000; fill-opacity:1.0; 
stroke:#000000; stroke-width:1.000000; stroke-opacity:1; 
stroke-linecap:round; stroke-linejoin:round;fill-rule:evenodd;"
d="M 121215000.000000,91845000.000000
121163338.000000,91834724.000000
121119541.000000,91805459.000000
121090276.000000,91761662.000000
121080000.000000,91710000.000000
121080000.000000,91440000.000000
121090276.000000,91388338.000000
121119541.000000,91344541.000000
121163338.000000,91315276.000000
121215000.000000,91305000.000000
121585000.000000,91305000.000000
121636662.000000,91315276.000000
121680459.000000,91344541.000000
121709724.000000,91388338.000000
121720000.000000,91440000.000000
121720000.000000,91710000.000000
121709724.000000,91761662.000000
121680459.000000,91805459.000000
121636662.000000,91834724.000000
121585000.000000,91845000.000000
Z" /> 
<path style="fill:#000000; fill-opacity:1.0; 
stroke:#000000; stroke-width:1.000000; stroke-opacity:1; 
stroke-linecap:round; stroke-linejoin:round;fill-rule:evenodd;"
d="M 121215000.000000,90825000.000000
121163338.000000,90814724.000000
121119541.000000,90785459.000000
121090276.000000,90741662.000000
121080000.000000,90690000.000000
121080000.000000,90420000.000000
121090276.000000,90368338.000000
121119541.000000,90324541.000000
121163338.000000,90295276.000000
121215000.000000,90285000.000000
121585000.000000,90285000.000000
121636662.000000,90295276.000000
121680459.000000,90324541.000000
121709724.000000,90368338.000000
121720000.000000,90420000.000000
121720000.000000,90690000.000000
121709724.000000,90741662.000000
121680459.000000,90785459.000000
121636662.000000,90814724.000000
121585000.000000,90825000.000000
Z" /> 
</g>
<g >
</g>
<g style="fill:#000000; fill-opacity:1.0; 
stroke:#000000; stroke-width:1.000000; stroke-opacity:1; 
stroke-linecap:round; stroke-linejoin:round;">
<path style="fill:#000000; fill-opacity:1.0; 
stroke:#000000; stroke-width:1.000000; stroke-opacity:1; 
stroke-linecap:round; stroke-linejoin:round;fill-rule:evenodd;"
d="M 116180000.000000,87685000.000000
116231662.000000,87695276.000000
116275459.000000,87724541.000000
116304724.000000,87768338.000000
116315000.000000,87820000.000000
116315000.000000,88090000.000000
116304724.000000,88141662.000000
116275459.000000,88185459.000000
116231662.000000,88214724.000000
116180000.000000,88225000.000000
115810000.000000,88225000.000000
115758338.000000,88214724.000000
115714541.000000,88185459.000000
115685276.000000,88141662.000000
115675000.000000,88090000.000000
115675000.000000,87820000.000000
115685276.000000,87768338.000000
115714541.000000,87724541.000000
115758338.000000,87695276.000000
115810000.000000,87685000.000000
Z" /> 
<path style="fill:#000000; fill-opacity:1.0; 
stroke:#000000; stroke-width:1.000000; stroke-opacity:1; 
stroke-linecap:round; stroke-linejoin:round;fill-rule:evenodd;"
d="M 116180000.000000,88705000.000000
116231662.000000,88715276.000000
116275459.000000,88744541.000000
116304724.000000,88788338.000000
116315000.000000,88840000.000000
116315000.000000,89110000.000000
116304724.000000,89161662.000000
116275459.000000,89205459.000000
116231662.000000,89234724.000000
116180000.000000,89245000.000000
115810000.000000,89245000.000000
115758338.000000,89234724.000000
115714541.000000,89205459.000000
115685276.000000,89161662.000000
115675000.000000,89110000.000000
115675000.000000,88840000.000000
115685276.000000,88788338.000000
115714541.000000,88744541.000000
115758338.000000,88715276.000000
115810000.000000,88705000.000000
Z" /> 
</g>
<g >
</g>
<g style="fill:#000000; fill-opacity:1.0; 
stroke:#000000; stroke-width:1.000000; stroke-opacity:1; 
stroke-linecap:round; stroke-linejoin:round;">
<path style="fill:#000000; fill-opacity:1.0; 
stroke:#000000; stroke-width:1.000000; stroke-opacity:1; 
stroke-linecap:round; stroke-linejoin:round;fill-rule:evenodd;"
d="M 116995000.000000,92515000.000000
117005276.000000,92463338.000000
117034541.000000,92419541.000000
117078338.000000,92390276.000000
117130000.000000,92380000.000000
117400000.000000,92380000.000000
117451662.000000,92390276.000000
117495459.000000,92419541.000000
117524724.000000,92463338.000000
117535000.000000,92515000.000000
117535000.000000,92885000.000000
117524724.000000,92936662.000000
117495459.000000,92980459.000000
117451662.000000,93009724.000000
117400000.000000,93020000.000000
117130000.000000,93020000.000000
117078338.000000,93009724.000000
117034541.000000,92980459.000000
117005276.000000,92936662.000000
116995000.000000,92885000.000000
Z" /> 
<path style="fill:#000000; fill-opacity:1.0; 
stroke:#000000; stroke-width:1.000000; stroke-opacity:1; 
stroke-linecap:round; stroke-linejoin:round;fill-rule:evenodd;"
d="M 118015000.000000,92515000.000000
118025276.000000,92463338.000000
118054541.000000,92419541.000000
118098338.000000,92390276.000000
118150000.000000,92380000.000000
118420000.000000,92380000.000000
118471662.000000,92390276.000000
118515459.000000,92419541.000000
118544724.000000,92463338.000000
118555000.000000,92515000.000000
118555000.000000,92885000.000000
118544724.000000,92936662.000000
118515459.000000,92980459.000000
118471662.000000,93009724.000000
118420000.000000,93020000.000000
118150000.000000,93020000.000000
118098338.000000,93009724.000000
118054541.000000,92980459.000000
118025276.000000,92936662.000000
118015000.000000,92885000.000000
Z" /> 
</g>
<g >
</g>
<g style="fill:#000000; fill-opacity:1.0; 
stroke:#000000; stroke-width:1.000000; stroke-opacity:1; 
stroke-linecap:round; stroke-linejoin:round;">
<path style="fill:#000000; fill-opacity:1.0; 
stroke:#000000; stroke-width:1.000000; stroke-opacity:1; 
stroke-linecap:round; stroke-linejoin:round;fill-rule:evenodd;"
d="M 119650000.000000,88000000.000000
119707403.000000,88011418.000000
119756066.000000,88043934.000000
119788582.000000,88092597.000000
119800000.000000,88150000.000000
119800000.000000,89175000.000000
119788582.000000,89232403.000000
119756066.000000,89281066.000000
119707403.000000,89313582.000000
119650000.000000,89325000.000000
119350000.000000,89325000.000000
119292597.000000,89313582.000000
119243934.000000,89281066.000000
119211418.000000,89232403.000000
119200000.000000,89175000.000000
119200000.000000,88150000.000000
119211418.000000,88092597.000000
119243934.000000,88043934.000000
119292597.000000,88011418.000000
119350000.000000,88000000.000000
Z" /> 
<path style="fill:#000000; fill-opacity:1.0; 
stroke:#000000; stroke-width:1.000000; stroke-opacity:1; 
stroke-linecap:round; stroke-linejoin:round;fill-rule:evenodd;"
d="M 118700000.000000,88000000.000000
118757403.000000,88011418.000000
118806066.000000,88043934.000000
118838582.000000,88092597.000000
118850000.000000,88150000.000000
118850000.000000,89175000.000000
118838582.000000,89232403.000000
118806066.000000,89281066.000000
118757403.000000,89313582.000000
118700000.000000,89325000.000000
118400000.000000,89325000.000000
118342597.000000,89313582.000000
118293934.000000,89281066.000000
118261418.000000,89232403.000000
118250000.000000,89175000.000000
118250000.000000,88150000.000000
118261418.000000,88092597.000000
118293934.000000,88043934.000000
118342597.000000,88011418.000000
118400000.000000,88000000.000000
Z" /> 
<path style="fill:#000000; fill-opacity:1.0; 
stroke:#000000; stroke-width:1.000000; stroke-opacity:1; 
stroke-linecap:round; stroke-linejoin:round;fill-rule:evenodd;"
d="M 117750000.000000,88000000.000000
117807403.000000,88011418.000000
117856066.000000,88043934.000000
117888582.000000,88092597.000000
117900000.000000,88150000.000000
117900000.000000,89175000.000000
117888582.000000,89232403.000000
117856066.000000,89281066.000000
117807403.000000,89313582.000000
117750000.000000,89325000.000000
117450000.000000,89325000.000000
117392597.000000,89313582.000000
117343934.000000,89281066.000000
117311418.000000,89232403.000000
117300000.000000,89175000.000000
117300000.000000,88150000.000000
117311418.000000,88092597.000000
117343934.000000,88043934.000000
117392597.000000,88011418.000000
117450000.000000,88000000.000000
Z" /> 
<path style="fill:#000000; fill-opacity:1.0; 
stroke:#000000; stroke-width:1.000000; stroke-opacity:1; 
stroke-linecap:round; stroke-linejoin:round;fill-rule:evenodd;"
d="M 117750000.000000,90275000.000000
117807403.000000,90286418.000000
117856066.000000,90318934.000000
117888582.000000,90367597.000000
117900000.000000,90425000.000000
117900000.000000,91450000.000000
117888582.000000,91507403.000000
117856066.000000,91556066.000000
117807403.000000,91588582.000000
117750000.000000,91600000.000000
117450000.000000,91600000.000000
117392597.000000,91588582.000000
117343934.000000,91556066.000000
117311418.000000,91507403.000000
117300000.000000,91450000.000000
117300000.000000,90425000.000000
117311418.000000,90367597.000000
117343934.000000,90318934.000000
117392597.000000,90286418.000000
117450000.000000,90275000.000000
Z" /> 
<path style="fill:#000000; fill-opacity:1.0; 
stroke:#000000; stroke-width:1.000000; stroke-opacity:1; 
stroke-linecap:round; stroke-linejoin:round;fill-rule:evenodd;"
d="M 119650000.000000,90275000.000000
119707403.000000,90286418.000000
119756066.000000,90318934.000000
119788582.000000,90367597.000000
119800000.000000,90425000.000000
119800000.000000,91450000.000000
119788582.000000,91507403.000000
119756066.000000,91556066.000000
119707403.000000,91588582.000000
119650000.000000,91600000.000000
119350000.000000,91600000.000000
119292597.000000,91588582.000000
119243934.000000,91556066.000000
119211418.000000,91507403.000000
119200000.000000,91450000.000000
119200000.000000,90425000.000000
119211418.000000,90367597.000000
119243934.000000,90318934.000000
119292597.000000,90286418.000000
119350000.000000,90275000.000000
Z" /> 
</g>
<g >
</g>
<g style="fill:#000000; fill-opacity:1.0; 
stroke:#000000; stroke-width:1.000000; stroke-opacity:1; 
stroke-linecap:round; stroke-linejoin:round;">
<path style="fill:#000000; fill-opacity:1.0; 
stroke:#000000; stroke-width:1.000000; stroke-opacity:1; 
stroke-linecap:round; stroke-linejoin:round;fill-rule:evenodd;"
d="M 123085000.000000,91210000.000000
123136662.000000,91220276.000000
123180459.000000,91249541.000000
123209724.000000,91293338.000000
123220000.000000,91345000.000000
123220000.000000,91615000.000000
123209724.000000,91666662.000000
123180459.000000,91710459.000000
123136662.000000,91739724.000000
123085000.000000,91750000.000000
122715000.000000,91750000.000000
122663338.000000,91739724.000000
122619541.000000,91710459.000000
122590276.000000,91666662.000000
122580000.000000,91615000.000000
122580000.000000,91345000.000000
122590276.000000,91293338.000000
122619541.000000,91249541.000000
122663338.000000,91220276.000000
122715000.000000,91210000.000000
Z" /> 
<path style="fill:#000000; fill-opacity:1.0; 
stroke:#000000; stroke-width:1.000000; stroke-opacity:1; 
stroke-linecap:round; stroke-linejoin:round;fill-rule:evenodd;"
d="M 123085000.000000,92230000.000000
123136662.000000,92240276.000000
123180459.000000,92269541.000000
123209724.000000,92313338.000000
123220000.000000,92365000.000000
123220000.000000,92635000.000000
123209724.000000,92686662.000000
123180459.000000,92730459.000000
123136662.000000,92759724.000000
123085000.000000,92770000.000000
122715000.000000,92770000.000000
122663338.000000,92759724.000000
122619541.000000,92730459.000000
122590276.000000,92686662.000000
122580000.000000,92635000.000000
122580000.000000,92365000.000000
122590276.000000,92313338.000000
122619541.000000,92269541.000000
122663338.000000,92240276.000000
122715000.000000,92230000.000000
Z" /> 
</g>
<g >
</g>
<g style="fill:#000000; fill-opacity:1.0; 
stroke:#000000; stroke-width:1.000000; stroke-opacity:1; 
stroke-linecap:round; stroke-linejoin:round;">
<path style="fill:#000000; fill-opacity:1.0; 
stroke:#000000; stroke-width:1.000000; stroke-opacity:1; 
stroke-linecap:round; stroke-linejoin:round;fill-rule:evenodd;"
d="M 112619999.000000,90425001.000000
112619999.000000,91074999.000000
111400001.000000,91074999.000000
111400001.000000,90425001.000000
Z" /> 
<path style="fill:#000000; fill-opacity:1.0; 
stroke:#000000; stroke-width:1.000000; stroke-opacity:1; 
stroke-linecap:round; stroke-linejoin:round;fill-rule:evenodd;"
d="M 112619999.000000,88525001.000000
112619999.000000,89174999.000000
111400001.000000,89174999.000000
111400001.000000,88525001.000000
Z" /> 
<path style="fill:#000000; fill-opacity:1.0; 
stroke:#000000; stroke-width:1.000000; stroke-opacity:1; 
stroke-linecap:round; stroke-linejoin:round;fill-rule:evenodd;"
d="M 109999999.000000,89475001.000000
109999999.000000,90124999.000000
108780001.000000,90124999.000000
108780001.000000,89475001.000000
Z" /> 
</g>
<g >
</g>
<g >
</g>
<g >
</g>
<g >
</g>
<g >
</g>
</g> 
</svg>
