<?xml version="1.0" standalone="no"?>
 <!DOCTYPE svg PUBLIC "-//W3C//DTD SVG 1.1//EN" 
 "http://www.w3.org/Graphics/SVG/1.1/DTD/svg11.dtd"> 
<svg
  xmlns:svg="http://www.w3.org/2000/svg"
  xmlns="http://www.w3.org/2000/svg"
  xmlns:xlink="http://www.w3.org/1999/xlink"
  version="1.1"
  width="29.700220cm" height="21.000720cm" viewBox="0 0 297002200 210007200">
<title>SVG Picture created as preamp-F_Silkscreen.svg date 2022/03/21 18:47:40 </title>
  <desc>Picture generated by PCBNEW </desc>
<g style="fill:#000000; fill-opacity:1.000000;stroke:#000000; stroke-opacity:1.000000;
stroke-linecap:round; stroke-linejoin:round;"
 transform="translate(0 0) scale(1 1)">
</g>
<g style="fill:#000000; fill-opacity:0.0; 
stroke:#000000; stroke-width:0.000000; stroke-opacity:1; 
stroke-linecap:round; stroke-linejoin:round;">
</g>
<g style="fill:#000000; fill-opacity:0.0; 
stroke:#000000; stroke-width:125000.000000; stroke-opacity:1; 
stroke-linecap:round; stroke-linejoin:round;">
<text x="127700000.000000" y="88617000.000000"
textLength="5153571.000000" font-size="800000.000000" lengthAdjust="spacingAndGlyphs"
text-anchor="middle" opacity="0">XR Spectra</text>
<g class="stroked-text"><desc>XR Spectra</desc>
<path d="M125271428 87988428
L125671428 88588428
" />
<path d="M125671428 87988428
L125271428 88588428
" />
<path d="M126242857 88588428
L126042857 88302714
" />
<path d="M125900000 88588428
L125900000 87988428
L126128571 87988428
L126185714 88017000
L126214285 88045571
L126242857 88102714
L126242857 88188428
L126214285 88245571
L126185714 88274142
L126128571 88302714
L125900000 88302714
" />
<path d="M126928571 88559857
L127014285 88588428
L127157142 88588428
L127214285 88559857
L127242857 88531285
L127271428 88474142
L127271428 88417000
L127242857 88359857
L127214285 88331285
L127157142 88302714
L127042857 88274142
L126985714 88245571
L126957142 88217000
L126928571 88159857
L126928571 88102714
L126957142 88045571
L126985714 88017000
L127042857 87988428
L127185714 87988428
L127271428 88017000
" />
<path d="M127528571 88188428
L127528571 88788428
" />
<path d="M127528571 88217000
L127585714 88188428
L127700000 88188428
L127757142 88217000
L127785714 88245571
L127814285 88302714
L127814285 88474142
L127785714 88531285
L127757142 88559857
L127700000 88588428
L127585714 88588428
L127528571 88559857
" />
<path d="M128300000 88559857
L128242857 88588428
L128128571 88588428
L128071428 88559857
L128042857 88502714
L128042857 88274142
L128071428 88217000
L128128571 88188428
L128242857 88188428
L128300000 88217000
L128328571 88274142
L128328571 88331285
L128042857 88388428
" />
<path d="M128842857 88559857
L128785714 88588428
L128671428 88588428
L128614285 88559857
L128585714 88531285
L128557142 88474142
L128557142 88302714
L128585714 88245571
L128614285 88217000
L128671428 88188428
L128785714 88188428
L128842857 88217000
" />
<path d="M129014285 88188428
L129242857 88188428
" />
<path d="M129100000 87988428
L129100000 88502714
L129128571 88559857
L129185714 88588428
L129242857 88588428
" />
<path d="M129442857 88588428
L129442857 88188428
" />
<path d="M129442857 88302714
L129471428 88245571
L129500000 88217000
L129557142 88188428
L129614285 88188428
" />
<path d="M130071428 88588428
L130071428 88274142
L130042857 88217000
L129985714 88188428
L129871428 88188428
L129814285 88217000
" />
<path d="M130071428 88559857
L130014285 88588428
L129871428 88588428
L129814285 88559857
L129785714 88502714
L129785714 88445571
L129814285 88388428
L129871428 88359857
L130014285 88359857
L130071428 88331285
" />
</g><text x="127700000.000000" y="89583000.000000"
textLength="5876786.000000" font-size="800000.000000" lengthAdjust="spacingAndGlyphs"
text-anchor="middle" opacity="0">Preamp v2.0</text>
<g class="stroked-text"><desc>Preamp v2.0</desc>
<path d="M124985714 89554428
L124985714 88954428
L125214285 88954428
L125271428 88983000
L125300000 89011571
L125328571 89068714
L125328571 89154428
L125300000 89211571
L125271428 89240142
L125214285 89268714
L124985714 89268714
" />
<path d="M125585714 89554428
L125585714 89154428
" />
<path d="M125585714 89268714
L125614285 89211571
L125642857 89183000
L125700000 89154428
L125757142 89154428
" />
<path d="M126185714 89525857
L126128571 89554428
L126014285 89554428
L125957142 89525857
L125928571 89468714
L125928571 89240142
L125957142 89183000
L126014285 89154428
L126128571 89154428
L126185714 89183000
L126214285 89240142
L126214285 89297285
L125928571 89354428
" />
<path d="M126728571 89554428
L126728571 89240142
L126700000 89183000
L126642857 89154428
L126528571 89154428
L126471428 89183000
" />
<path d="M126728571 89525857
L126671428 89554428
L126528571 89554428
L126471428 89525857
L126442857 89468714
L126442857 89411571
L126471428 89354428
L126528571 89325857
L126671428 89325857
L126728571 89297285
" />
<path d="M127014285 89554428
L127014285 89154428
" />
<path d="M127014285 89211571
L127042857 89183000
L127100000 89154428
L127185714 89154428
L127242857 89183000
L127271428 89240142
L127271428 89554428
" />
<path d="M127271428 89240142
L127300000 89183000
L127357142 89154428
L127442857 89154428
L127500000 89183000
L127528571 89240142
L127528571 89554428
" />
<path d="M127814285 89154428
L127814285 89754428
" />
<path d="M127814285 89183000
L127871428 89154428
L127985714 89154428
L128042857 89183000
L128071428 89211571
L128100000 89268714
L128100000 89440142
L128071428 89497285
L128042857 89525857
L127985714 89554428
L127871428 89554428
L127814285 89525857
" />
<path d="M128757142 89154428
L128900000 89554428
L129042857 89154428
" />
<path d="M129242857 89011571
L129271428 88983000
L129328571 88954428
L129471428 88954428
L129528571 88983000
L129557142 89011571
L129585714 89068714
L129585714 89125857
L129557142 89211571
L129214285 89554428
L129585714 89554428
" />
<path d="M129842857 89497285
L129871428 89525857
L129842857 89554428
L129814285 89525857
L129842857 89497285
L129842857 89554428
" />
<path d="M130242857 88954428
L130300000 88954428
L130357142 88983000
L130385714 89011571
L130414285 89068714
L130442857 89183000
L130442857 89325857
L130414285 89440142
L130385714 89497285
L130357142 89525857
L130300000 89554428
L130242857 89554428
L130185714 89525857
L130157142 89497285
L130128571 89440142
L130100000 89325857
L130100000 89183000
L130128571 89068714
L130157142 89011571
L130185714 88983000
L130242857 88954428
" />
</g></g>
<g style="fill:#000000; fill-opacity:0.0; 
stroke:#000000; stroke-width:120000.000000; stroke-opacity:1; 
stroke-linecap:round; stroke-linejoin:round;">
<path d="M122265000 89561252
L122265000 89038748
" />
<path d="M123735000 89561252
L123735000 89038748
" />
<path d="M113465000 88538748
L113465000 89061252
" />
<path d="M114935000 88538748
L114935000 89061252
" />
</g>
<g style="fill:#000000; fill-opacity:0.0; 
stroke:#000000; stroke-width:10000.000000; stroke-opacity:1; 
stroke-linecap:round; stroke-linejoin:round;">
<path d="M130354186 86693625
L130348975 86821710
" />
<path d="M130348975 86821710
L130342870 86956618
" />
<path d="M130342870 86956618
L130336672 87081339
" />
<path d="M130336672 87081339
L130331735 87169875
" />
<path d="M130331735 87169875
L130319882 87365667
" />
<path d="M130319882 87365667
L129893890 87365667
" />
<path d="M129893890 87365667
L129907778 87044801
" />
<path d="M129907778 87044801
L129912847 86916910
" />
<path d="M129912847 86916910
L129917088 86789395
" />
<path d="M129917088 86789395
L129920126 86675048
" />
<path d="M129920126 86675048
L129921590 86586663
" />
<path d="M129921590 86586663
L129921667 86568551
" />
<path d="M129921667 86568551
L129921667 86413167
" />
<path d="M129921667 86413167
L130364785 86413167
" />
<path d="M130364785 86413167
L130354186 86693625
" />
</g>
<g style="fill:#000000; fill-opacity:1.0; 
stroke:#000000; stroke-width:1.000000; stroke-opacity:1; 
stroke-linecap:round; stroke-linejoin:round;">
<circle cx="130354186.000000" cy="86693625.000000" r="5000.000000" /> 
</g>
<g style="fill:#000000; fill-opacity:1.0; 
stroke:#000000; stroke-width:10000.000000; stroke-opacity:1; 
stroke-linecap:round; stroke-linejoin:round;">
<path style="fill:#000000; fill-opacity:1.0; 
stroke:#000000; stroke-width:10000.000000; stroke-opacity:1; 
stroke-linecap:round; stroke-linejoin:round;fill-rule:evenodd;"
d="M 130354186.000000,86693625.000000
130348975.000000,86821710.000000
130342870.000000,86956618.000000
130336672.000000,87081339.000000
130331735.000000,87169875.000000
130319882.000000,87365667.000000
129893890.000000,87365667.000000
129907778.000000,87044801.000000
129912847.000000,86916910.000000
129917088.000000,86789395.000000
129920126.000000,86675048.000000
129921590.000000,86586663.000000
129921667.000000,86568551.000000
129921667.000000,86413167.000000
130364785.000000,86413167.000000
Z" /> 
</g>
<g style="fill:#000000; fill-opacity:0.0; 
stroke:#000000; stroke-width:10000.000000; stroke-opacity:1; 
stroke-linecap:round; stroke-linejoin:round;">
<path d="M129501083 86416634
L129625598 86418219
" />
<path d="M129625598 86418219
L129722450 86420563
" />
<path d="M129722450 86420563
L129786895 86423603
" />
<path d="M129786895 86423603
L129814183 86427277
" />
<path d="M129814183 86427277
L129814655 86427637
" />
<path d="M129814655 86427637
L129821066 86456730
" />
<path d="M129821066 86456730
L129822702 86513893
" />
<path d="M129822702 86513893
L129820451 86566625
" />
<path d="M129820451 86566625
L129811915 86688333
" />
<path d="M129811915 86688333
L129116886 86688333
" />
<path d="M129116886 86688333
L128923888 86688548
" />
<path d="M128923888 86688548
L128768889 86689326
" />
<path d="M128768889 86689326
L128647557 86690864
" />
<path d="M128647557 86690864
L128555560 86693361
" />
<path d="M128555560 86693361
L128488566 86697013
" />
<path d="M128488566 86697013
L128442242 86702020
" />
<path d="M128442242 86702020
L128412256 86708578
" />
<path d="M128412256 86708578
L128394275 86716886
" />
<path d="M128394275 86716886
L128388595 86721595
" />
<path d="M128388595 86721595
L128361562 86761302
" />
<path d="M128361562 86761302
L128355333 86785095
" />
<path d="M128355333 86785095
L128361169 86794866
" />
<path d="M128361169 86794866
L128381784 86802347
" />
<path d="M128381784 86802347
L128421844 86807822
" />
<path d="M128421844 86807822
L128486011 86811574
" />
<path d="M128486011 86811574
L128578950 86813887
" />
<path d="M128578950 86813887
L128705325 86815045
" />
<path d="M128705325 86815045
L128852750 86815333
" />
<path d="M128852750 86815333
L129350167 86815333
" />
<path d="M129350167 86815333
L129350167 87090500
" />
<path d="M129350167 87090500
L128334167 87090500
" />
<path d="M128334167 87090500
L128334167 87365667
" />
<path d="M128334167 87365667
L127904584 87365667
" />
<path d="M127904584 87365667
L127919420 87021708
" />
<path d="M127919420 87021708
L127927310 86868245
" />
<path d="M127927310 86868245
L127937499 86750788
" />
<path d="M127937499 86750788
L127952219 86663010
" />
<path d="M127952219 86663010
L127973707 86598583
" />
<path d="M127973707 86598583
L128004196 86551181
" />
<path d="M128004196 86551181
L128045921 86514476
" />
<path d="M128045921 86514476
L128101117 86482142
" />
<path d="M128101117 86482142
L128111917 86476667
" />
<path d="M128111917 86476667
L128217750 86423750
" />
<path d="M128217750 86423750
L129009037 86417054
" />
<path d="M129009037 86417054
L129188056 86415989
" />
<path d="M129188056 86415989
L129353654 86415870
" />
<path d="M129353654 86415870
L129501083 86416634
" />
</g>
<g style="fill:#000000; fill-opacity:1.0; 
stroke:#000000; stroke-width:1.000000; stroke-opacity:1; 
stroke-linecap:round; stroke-linejoin:round;">
<circle cx="129501083.000000" cy="86416634.000000" r="5000.000000" /> 
</g>
<g style="fill:#000000; fill-opacity:1.0; 
stroke:#000000; stroke-width:10000.000000; stroke-opacity:1; 
stroke-linecap:round; stroke-linejoin:round;">
<path style="fill:#000000; fill-opacity:1.0; 
stroke:#000000; stroke-width:10000.000000; stroke-opacity:1; 
stroke-linecap:round; stroke-linejoin:round;fill-rule:evenodd;"
d="M 129501083.000000,86416634.000000
129625598.000000,86418219.000000
129722450.000000,86420563.000000
129786895.000000,86423603.000000
129814183.000000,86427277.000000
129814655.000000,86427637.000000
129821066.000000,86456730.000000
129822702.000000,86513893.000000
129820451.000000,86566625.000000
129811915.000000,86688333.000000
129116886.000000,86688333.000000
128923888.000000,86688548.000000
128768889.000000,86689326.000000
128647557.000000,86690864.000000
128555560.000000,86693361.000000
128488566.000000,86697013.000000
128442242.000000,86702020.000000
128412256.000000,86708578.000000
128394275.000000,86716886.000000
128388595.000000,86721595.000000
128361562.000000,86761302.000000
128355333.000000,86785095.000000
128361169.000000,86794866.000000
128381784.000000,86802347.000000
128421844.000000,86807822.000000
128486011.000000,86811574.000000
128578950.000000,86813887.000000
128705325.000000,86815045.000000
128852750.000000,86815333.000000
129350167.000000,86815333.000000
129350167.000000,87090500.000000
128334167.000000,87090500.000000
128334167.000000,87365667.000000
127904584.000000,87365667.000000
127919420.000000,87021708.000000
127927310.000000,86868245.000000
127937499.000000,86750788.000000
127952219.000000,86663010.000000
127973707.000000,86598583.000000
128004196.000000,86551181.000000
128045921.000000,86514476.000000
128101117.000000,86482142.000000
128111917.000000,86476667.000000
128217750.000000,86423750.000000
129009037.000000,86417054.000000
129188056.000000,86415989.000000
129353654.000000,86415870.000000
Z" /> 
</g>
<g style="fill:#000000; fill-opacity:0.0; 
stroke:#000000; stroke-width:10000.000000; stroke-opacity:1; 
stroke-linecap:round; stroke-linejoin:round;">
<path d="M123293864 86415308
L123399731 86416095
" />
<path d="M123399731 86416095
L123474046 86417351
" />
<path d="M123474046 86417351
L123512148 86419062
" />
<path d="M123512148 86419062
L123515894 86419689
" />
<path d="M123515894 86419689
L123529755 86446784
" />
<path d="M123529755 86446784
L123534250 86511502
" />
<path d="M123534250 86511502
L123532745 86558602
" />
<path d="M123532745 86558602
L123525573 86688333
" />
<path d="M123525573 86688333
L122749578 86688657
" />
<path d="M122749578 86688657
L122564290 86689257
" />
<path d="M122564290 86689257
L122394762 86690822
" />
<path d="M122394762 86690822
L122245521 86693240
" />
<path d="M122245521 86693240
L122121094 86696400
" />
<path d="M122121094 86696400
L122026008 86700190
" />
<path d="M122026008 86700190
L121964787 86704498
" />
<path d="M121964787 86704498
L121942595 86708581
" />
<path d="M121942595 86708581
L121924001 86740520
" />
<path d="M121924001 86740520
L121910271 86801073
" />
<path d="M121910271 86801073
L121902246 86876715
" />
<path d="M121902246 86876715
L121900765 86953917
" />
<path d="M121900765 86953917
L121906666 87019154
" />
<path d="M121906666 87019154
L121920790 87058898
" />
<path d="M121920790 87058898
L121920857 87058979
" />
<path d="M121920857 87058979
L121932861 87067304
" />
<path d="M121932861 87067304
L121956307 87074062
" />
<path d="M121956307 87074062
L121995157 87079408
" />
<path d="M121995157 87079408
L122053368 87083497
" />
<path d="M122053368 87083497
L122134900 87086482
" />
<path d="M122134900 87086482
L122243712 87088520
" />
<path d="M122243712 87088520
L122383763 87089765
" />
<path d="M122383763 87089765
L122559013 87090371
" />
<path d="M122559013 87090371
L122727592 87090500
" />
<path d="M122727592 87090500
L123508167 87090500
" />
<path d="M123508167 87090500
L123508167 87365667
" />
<path d="M123508167 87365667
L122687958 87363347
" />
<path d="M122687958 87363347
L122501570 87362351
" />
<path d="M122501570 87362351
L122325078 87360516
" />
<path d="M122325078 87360516
L122163766 87357962
" />
<path d="M122163766 87357962
L122022917 87354811
" />
<path d="M122022917 87354811
L121907816 87351184
" />
<path d="M121907816 87351184
L121823747 87347201
" />
<path d="M121823747 87347201
L121775993 87342984
" />
<path d="M121775993 87342984
L121772532 87342387
" />
<path d="M121772532 87342387
L121662576 87306226
" />
<path d="M121662576 87306226
L121582226 87244038
" />
<path d="M121582226 87244038
L121533018 87169317
" />
<path d="M121533018 87169317
L121516141 87130137
" />
<path d="M121516141 87130137
L121506474 87089014
" />
<path d="M121506474 87089014
L121503382 87035756
" />
<path d="M121503382 87035756
L121506230 86960173
" />
<path d="M121506230 86960173
L121513728 86859970
" />
<path d="M121513728 86859970
L121526773 86733519
" />
<path d="M121526773 86733519
L121544471 86641323
" />
<path d="M121544471 86641323
L121570784 86575307
" />
<path d="M121570784 86575307
L121609676 86527398
" />
<path d="M121609676 86527398
L121665113 86489524
" />
<path d="M121665113 86489524
L121705493 86469395
" />
<path d="M121705493 86469395
L121731765 86457938
" />
<path d="M121731765 86457938
L121759125 86448527
" />
<path d="M121759125 86448527
L121791917 86440922
" />
<path d="M121791917 86440922
L121834485 86434881
" />
<path d="M121834485 86434881
L121891175 86430164
" />
<path d="M121891175 86430164
L121966330 86426530
" />
<path d="M121966330 86426530
L122064296 86423738
" />
<path d="M122064296 86423738
L122189416 86421546
" />
<path d="M122189416 86421546
L122346035 86419715
" />
<path d="M122346035 86419715
L122538497 86418003
" />
<path d="M122538497 86418003
L122648061 86417128
" />
<path d="M122648061 86417128
L122833542 86415901
" />
<path d="M122833542 86415901
L123006109 86415198
" />
<path d="M123006109 86415198
L123161103 86415005
" />
<path d="M123161103 86415005
L123293864 86415308
" />
</g>
<g style="fill:#000000; fill-opacity:1.0; 
stroke:#000000; stroke-width:1.000000; stroke-opacity:1; 
stroke-linecap:round; stroke-linejoin:round;">
<circle cx="123293864.000000" cy="86415308.000000" r="5000.000000" /> 
</g>
<g style="fill:#000000; fill-opacity:1.0; 
stroke:#000000; stroke-width:10000.000000; stroke-opacity:1; 
stroke-linecap:round; stroke-linejoin:round;">
<path style="fill:#000000; fill-opacity:1.0; 
stroke:#000000; stroke-width:10000.000000; stroke-opacity:1; 
stroke-linecap:round; stroke-linejoin:round;fill-rule:evenodd;"
d="M 123293864.000000,86415308.000000
123399731.000000,86416095.000000
123474046.000000,86417351.000000
123512148.000000,86419062.000000
123515894.000000,86419689.000000
123529755.000000,86446784.000000
123534250.000000,86511502.000000
123532745.000000,86558602.000000
123525573.000000,86688333.000000
122749578.000000,86688657.000000
122564290.000000,86689257.000000
122394762.000000,86690822.000000
122245521.000000,86693240.000000
122121094.000000,86696400.000000
122026008.000000,86700190.000000
121964787.000000,86704498.000000
121942595.000000,86708581.000000
121924001.000000,86740520.000000
121910271.000000,86801073.000000
121902246.000000,86876715.000000
121900765.000000,86953917.000000
121906666.000000,87019154.000000
121920790.000000,87058898.000000
121920857.000000,87058979.000000
121932861.000000,87067304.000000
121956307.000000,87074062.000000
121995157.000000,87079408.000000
122053368.000000,87083497.000000
122134900.000000,87086482.000000
122243712.000000,87088520.000000
122383763.000000,87089765.000000
122559013.000000,87090371.000000
122727592.000000,87090500.000000
123508167.000000,87090500.000000
123508167.000000,87365667.000000
122687958.000000,87363347.000000
122501570.000000,87362351.000000
122325078.000000,87360516.000000
122163766.000000,87357962.000000
122022917.000000,87354811.000000
121907816.000000,87351184.000000
121823747.000000,87347201.000000
121775993.000000,87342984.000000
121772532.000000,87342387.000000
121662576.000000,87306226.000000
121582226.000000,87244038.000000
121533018.000000,87169317.000000
121516141.000000,87130137.000000
121506474.000000,87089014.000000
121503382.000000,87035756.000000
121506230.000000,86960173.000000
121513728.000000,86859970.000000
121526773.000000,86733519.000000
121544471.000000,86641323.000000
121570784.000000,86575307.000000
121609676.000000,86527398.000000
121665113.000000,86489524.000000
121705493.000000,86469395.000000
121731765.000000,86457938.000000
121759125.000000,86448527.000000
121791917.000000,86440922.000000
121834485.000000,86434881.000000
121891175.000000,86430164.000000
121966330.000000,86426530.000000
122064296.000000,86423738.000000
122189416.000000,86421546.000000
122346035.000000,86419715.000000
122538497.000000,86418003.000000
122648061.000000,86417128.000000
122833542.000000,86415901.000000
123006109.000000,86415198.000000
123161103.000000,86415005.000000
Z" /> 
</g>
<g style="fill:#000000; fill-opacity:0.0; 
stroke:#000000; stroke-width:10000.000000; stroke-opacity:1; 
stroke-linecap:round; stroke-linejoin:round;">
<path d="M127821918 86544175
L127815583 86677750
" />
<path d="M127815583 86677750
L127043613 86688333
" />
<path d="M127043613 86688333
L126271644 86698917
" />
<path d="M126271644 86698917
L126244884 86751833
" />
<path d="M126244884 86751833
L126228601 86805943
" />
<path d="M126228601 86805943
L126220004 86878940
" />
<path d="M126220004 86878940
L126219185 86956027
" />
<path d="M126219185 86956027
L126226238 87022406
" />
<path d="M126226238 87022406
L126241256 87063279
" />
<path d="M126241256 87063279
L126242900 87065100
" />
<path d="M126242900 87065100
L126262102 87072266
" />
<path d="M126262102 87072266
L126305894 87078099
" />
<path d="M126305894 87078099
L126377147 87082691
" />
<path d="M126377147 87082691
L126478729 87086134
" />
<path d="M126478729 87086134
L126613509 87088520
" />
<path d="M126613509 87088520
L126784355 87089940
" />
<path d="M126784355 87089940
L126994138 87090487
" />
<path d="M126994138 87090487
L127036650 87090500
" />
<path d="M127036650 87090500
L127240032 87090204
" />
<path d="M127240032 87090204
L127404955 87089920
" />
<path d="M127404955 87089920
L127535284 87090555
" />
<path d="M127535284 87090555
L127634882 87093014
" />
<path d="M127634882 87093014
L127707616 87098202
" />
<path d="M127707616 87098202
L127757349 87107027
" />
<path d="M127757349 87107027
L127787946 87120394
" />
<path d="M127787946 87120394
L127803272 87139209
" />
<path d="M127803272 87139209
L127807192 87164378
" />
<path d="M127807192 87164378
L127803570 87196807
" />
<path d="M127803570 87196807
L127796271 87237402
" />
<path d="M127796271 87237402
L127791539 87267462
" />
<path d="M127791539 87267462
L127778079 87365667
" />
<path d="M127778079 87365667
L126960748 87363232
" />
<path d="M126960748 87363232
L126775750 87362306
" />
<path d="M126775750 87362306
L126601564 87360719
" />
<path d="M126601564 87360719
L126443319 87358569
" />
<path d="M126443319 87358569
L126306143 87355958
" />
<path d="M126306143 87355958
L126195162 87352986
" />
<path d="M126195162 87352986
L126115506 87349752
" />
<path d="M126115506 87349752
L126072301 87346356
" />
<path d="M126072301 87346356
L126069333 87345850
" />
<path d="M126069333 87345850
L125956788 87309176
" />
<path d="M125956788 87309176
L125870313 87252104
" />
<path d="M125870313 87252104
L125824091 87192803
" />
<path d="M125824091 87192803
L125808245 87152184
" />
<path d="M125808245 87152184
L125798959 87099171
" />
<path d="M125798959 87099171
L125795420 87024505
" />
<path d="M125795420 87024505
L125796819 86918926
" />
<path d="M125796819 86918926
L125797677 86891536
" />
<path d="M125797677 86891536
L125805520 86758178
" />
<path d="M125805520 86758178
L125821086 86659127
" />
<path d="M125821086 86659127
L125847842 86586571
" />
<path d="M125847842 86586571
L125889251 86532700
" />
<path d="M125889251 86532700
L125948777 86489702
" />
<path d="M125948777 86489702
L125984204 86470925
" />
<path d="M125984204 86470925
L126008919 86459293
" />
<path d="M126008919 86459293
L126034212 86449710
" />
<path d="M126034212 86449710
L126064316 86441940
" />
<path d="M126064316 86441940
L126103464 86435750
" />
<path d="M126103464 86435750
L126155888 86430904
" />
<path d="M126155888 86430904
L126225819 86427169
" />
<path d="M126225819 86427169
L126317492 86424309
" />
<path d="M126317492 86424309
L126435137 86422090
" />
<path d="M126435137 86422090
L126582987 86420277
" />
<path d="M126582987 86420277
L126765275 86418637
" />
<path d="M126765275 86418637
L126954085 86417175
" />
<path d="M126954085 86417175
L127828253 86410601
" />
<path d="M127828253 86410601
L127821918 86544175
" />
</g>
<g style="fill:#000000; fill-opacity:1.0; 
stroke:#000000; stroke-width:1.000000; stroke-opacity:1; 
stroke-linecap:round; stroke-linejoin:round;">
<circle cx="127821918.000000" cy="86544175.000000" r="5000.000000" /> 
</g>
<g style="fill:#000000; fill-opacity:1.0; 
stroke:#000000; stroke-width:10000.000000; stroke-opacity:1; 
stroke-linecap:round; stroke-linejoin:round;">
<path style="fill:#000000; fill-opacity:1.0; 
stroke:#000000; stroke-width:10000.000000; stroke-opacity:1; 
stroke-linecap:round; stroke-linejoin:round;fill-rule:evenodd;"
d="M 127821918.000000,86544175.000000
127815583.000000,86677750.000000
127043613.000000,86688333.000000
126271644.000000,86698917.000000
126244884.000000,86751833.000000
126228601.000000,86805943.000000
126220004.000000,86878940.000000
126219185.000000,86956027.000000
126226238.000000,87022406.000000
126241256.000000,87063279.000000
126242900.000000,87065100.000000
126262102.000000,87072266.000000
126305894.000000,87078099.000000
126377147.000000,87082691.000000
126478729.000000,87086134.000000
126613509.000000,87088520.000000
126784355.000000,87089940.000000
126994138.000000,87090487.000000
127036650.000000,87090500.000000
127240032.000000,87090204.000000
127404955.000000,87089920.000000
127535284.000000,87090555.000000
127634882.000000,87093014.000000
127707616.000000,87098202.000000
127757349.000000,87107027.000000
127787946.000000,87120394.000000
127803272.000000,87139209.000000
127807192.000000,87164378.000000
127803570.000000,87196807.000000
127796271.000000,87237402.000000
127791539.000000,87267462.000000
127778079.000000,87365667.000000
126960748.000000,87363232.000000
126775750.000000,87362306.000000
126601564.000000,87360719.000000
126443319.000000,87358569.000000
126306143.000000,87355958.000000
126195162.000000,87352986.000000
126115506.000000,87349752.000000
126072301.000000,87346356.000000
126069333.000000,87345850.000000
125956788.000000,87309176.000000
125870313.000000,87252104.000000
125824091.000000,87192803.000000
125808245.000000,87152184.000000
125798959.000000,87099171.000000
125795420.000000,87024505.000000
125796819.000000,86918926.000000
125797677.000000,86891536.000000
125805520.000000,86758178.000000
125821086.000000,86659127.000000
125847842.000000,86586571.000000
125889251.000000,86532700.000000
125948777.000000,86489702.000000
125984204.000000,86470925.000000
126008919.000000,86459293.000000
126034212.000000,86449710.000000
126064316.000000,86441940.000000
126103464.000000,86435750.000000
126155888.000000,86430904.000000
126225819.000000,86427169.000000
126317492.000000,86424309.000000
126435137.000000,86422090.000000
126582987.000000,86420277.000000
126765275.000000,86418637.000000
126954085.000000,86417175.000000
127828253.000000,86410601.000000
Z" /> 
</g>
<g style="fill:#000000; fill-opacity:0.0; 
stroke:#000000; stroke-width:10000.000000; stroke-opacity:1; 
stroke-linecap:round; stroke-linejoin:round;">
<path d="M125676457 86629394
L125667731 86805451
" />
<path d="M125667731 86805451
L125658944 86944392
" />
<path d="M125658944 86944392
L125648599 87051406
" />
<path d="M125648599 87051406
L125635198 87131686
" />
<path d="M125635198 87131686
L125617244 87190423
" />
<path d="M125617244 87190423
L125593241 87232809
" />
<path d="M125593241 87232809
L125561690 87264035
" />
<path d="M125561690 87264035
L125521094 87289293
" />
<path d="M125521094 87289293
L125480455 87308986
" />
<path d="M125480455 87308986
L125446209 87323383
" />
<path d="M125446209 87323383
L125410021 87334549
" />
<path d="M125410021 87334549
L125365888 87343002
" />
<path d="M125365888 87343002
L125307810 87349260
" />
<path d="M125307810 87349260
L125229783 87353843
" />
<path d="M125229783 87353843
L125125808 87357268
" />
<path d="M125125808 87357268
L124989882 87360055
" />
<path d="M124989882 87360055
L124867065 87361984
" />
<path d="M124867065 87361984
L124352713 87369538
" />
<path d="M124352713 87369538
L124359065 87235311
" />
<path d="M124359065 87235311
L124365417 87101083
" />
<path d="M124365417 87101083
L124788750 87089366
" />
<path d="M124788750 87089366
L124917818 87085603
" />
<path d="M124917818 87085603
L125031547 87081922
" />
<path d="M125031547 87081922
L125123496 87078563
" />
<path d="M125123496 87078563
L125187228 87075763
" />
<path d="M125187228 87075763
L125216301 87073761
" />
<path d="M125216301 87073761
L125217375 87073491
" />
<path d="M125217375 87073491
L125221384 87051870
" />
<path d="M125221384 87051870
L125222667 87016417
" />
<path d="M125222667 87016417
L125222667 86963500
" />
<path d="M125222667 86963500
L124641625 86963500
" />
<path d="M124641625 86963500
L124438606 86962852
" />
<path d="M124438606 86962852
L124273106 86960494
" />
<path d="M124273106 86960494
L124140325 86955800
" />
<path d="M124140325 86955800
L124035463 86948147
" />
<path d="M124035463 86948147
L123953720 86936910
" />
<path d="M123953720 86936910
L123890295 86921465
" />
<path d="M123890295 86921465
L123840387 86901188
" />
<path d="M123840387 86901188
L123799198 86875456
" />
<path d="M123799198 86875456
L123768727 86849998
" />
<path d="M123768727 86849998
L123707339 86773262
" />
<path d="M123707339 86773262
L123675041 86678873
" />
<path d="M123675041 86678873
L123669610 86559258
" />
<path d="M123669610 86559258
L123672454 86521730
" />
<path d="M123672454 86521730
L123682886 86413167
" />
<path d="M123682886 86413167
L124100833 86413167
" />
<path d="M124100833 86413167
L124100833 86525350
" />
<path d="M124100833 86525350
L124105372 86593690
" />
<path d="M124105372 86593690
L124116984 86645940
" />
<path d="M124116984 86645940
L124126233 86662933
" />
<path d="M124126233 86662933
L124148425 86671436
" />
<path d="M124148425 86671436
L124198065 86678047
" />
<path d="M124198065 86678047
L124278233 86682904
" />
<path d="M124278233 86682904
L124392009 86686142
" />
<path d="M124392009 86686142
L124542474 86687900
" />
<path d="M124542474 86687900
L124696723 86688333
" />
<path d="M124696723 86688333
L125241813 86688333
" />
<path d="M125241813 86688333
L125248115 86556042
" />
<path d="M125248115 86556042
L125254417 86423750
" />
<path d="M125254417 86423750
L125470534 86417727
" />
<path d="M125470534 86417727
L125686651 86411705
" />
<path d="M125686651 86411705
L125676457 86629394
" />
</g>
<g style="fill:#000000; fill-opacity:1.0; 
stroke:#000000; stroke-width:1.000000; stroke-opacity:1; 
stroke-linecap:round; stroke-linejoin:round;">
<circle cx="125676457.000000" cy="86629394.000000" r="5000.000000" /> 
</g>
<g style="fill:#000000; fill-opacity:1.0; 
stroke:#000000; stroke-width:10000.000000; stroke-opacity:1; 
stroke-linecap:round; stroke-linejoin:round;">
<path style="fill:#000000; fill-opacity:1.0; 
stroke:#000000; stroke-width:10000.000000; stroke-opacity:1; 
stroke-linecap:round; stroke-linejoin:round;fill-rule:evenodd;"
d="M 125676457.000000,86629394.000000
125667731.000000,86805451.000000
125658944.000000,86944392.000000
125648599.000000,87051406.000000
125635198.000000,87131686.000000
125617244.000000,87190423.000000
125593241.000000,87232809.000000
125561690.000000,87264035.000000
125521094.000000,87289293.000000
125480455.000000,87308986.000000
125446209.000000,87323383.000000
125410021.000000,87334549.000000
125365888.000000,87343002.000000
125307810.000000,87349260.000000
125229783.000000,87353843.000000
125125808.000000,87357268.000000
124989882.000000,87360055.000000
124867065.000000,87361984.000000
124352713.000000,87369538.000000
124359065.000000,87235311.000000
124365417.000000,87101083.000000
124788750.000000,87089366.000000
124917818.000000,87085603.000000
125031547.000000,87081922.000000
125123496.000000,87078563.000000
125187228.000000,87075763.000000
125216301.000000,87073761.000000
125217375.000000,87073491.000000
125221384.000000,87051870.000000
125222667.000000,87016417.000000
125222667.000000,86963500.000000
124641625.000000,86963500.000000
124438606.000000,86962852.000000
124273106.000000,86960494.000000
124140325.000000,86955800.000000
124035463.000000,86948147.000000
123953720.000000,86936910.000000
123890295.000000,86921465.000000
123840387.000000,86901188.000000
123799198.000000,86875456.000000
123768727.000000,86849998.000000
123707339.000000,86773262.000000
123675041.000000,86678873.000000
123669610.000000,86559258.000000
123672454.000000,86521730.000000
123682886.000000,86413167.000000
124100833.000000,86413167.000000
124100833.000000,86525350.000000
124105372.000000,86593690.000000
124116984.000000,86645940.000000
124126233.000000,86662933.000000
124148425.000000,86671436.000000
124198065.000000,86678047.000000
124278233.000000,86682904.000000
124392009.000000,86686142.000000
124542474.000000,86687900.000000
124696723.000000,86688333.000000
125241813.000000,86688333.000000
125248115.000000,86556042.000000
125254417.000000,86423750.000000
125470534.000000,86417727.000000
125686651.000000,86411705.000000
Z" /> 
</g>
<g style="fill:#000000; fill-opacity:1.0; 
stroke:#000000; stroke-width:120000.000000; stroke-opacity:1; 
stroke-linecap:round; stroke-linejoin:round;">
</g>
<g style="fill:#000000; fill-opacity:0.0; 
stroke:#000000; stroke-width:120000.000000; stroke-opacity:1; 
stroke-linecap:round; stroke-linejoin:round;">
<path d="M113940000 91692164
L113940000 91907836
" />
<path d="M114660000 91692164
L114660000 91907836
" />
<path d="M118053641 86560000
L117746359 86560000
" />
<path d="M118053641 87320000
L117746359 87320000
" />
<path d="M115615000 90361359
L115615000 90668641
" />
<path d="M116375000 90361359
L116375000 90668641
" />
<path d="M120995000 89043641
L120995000 88736359
" />
<path d="M121755000 89043641
L121755000 88736359
" />
<path d="M119692164 92340000
L119907836 92340000
" />
<path d="M119692164 93060000
L119907836 93060000
" />
<path d="M121020000 91218641
L121020000 90911359
" />
<path d="M121780000 91218641
L121780000 90911359
" />
<path d="M115615000 88311359
L115615000 88618641
" />
<path d="M116375000 88311359
L116375000 88618641
" />
<path d="M117621359 92320000
L117928641 92320000
" />
<path d="M117621359 93080000
L117928641 93080000
" />
<path d="M116990000 89800000
L116990000 90600000
" />
<path d="M116990000 89800000
L116990000 89000000
" />
<path d="M120110000 89800000
L120110000 88000000
" />
<path d="M120110000 89800000
L120110000 90600000
" />
<path d="M122520000 91836359
L122520000 92143641
" />
<path d="M123280000 91836359
L123280000 92143641
" />
<path d="M109770000 91310000
L112200000 91310000
" />
<path d="M109750000 91300000
L109750000 90300000
" />
<path d="M109750000 89300000
L109750000 88250000
" />
<path d="M109750000 88250000
L111600000 88250000
" />
<g >
</g>
<g >
</g>
<g >
</g>
<g >
</g>
<g >
</g>
<g >
</g>
<g >
</g>
<g >
</g>
<g >
</g>
<g >
</g>
<g >
</g>
<g >
</g>
<g >
</g>
<g >
</g>
<g >
</g>
<g >
</g>
<g >
</g>
<g >
</g>
<g >
</g>
</g>
<g style="fill:#FFFFFF; fill-opacity:0.0; 
stroke:#FFFFFF; stroke-width:120000.000000; stroke-opacity:1; 
stroke-linecap:round; stroke-linejoin:round;">
</g>
<g style="fill:#FFFFFF; fill-opacity:1.0; 
stroke:#FFFFFF; stroke-width:1.000000; stroke-opacity:1; 
stroke-linecap:round; stroke-linejoin:round;">
<circle cx="120500000.000000" cy="91480498.000000" r="200000.000000" /> 
</g>
<g style="fill:#FFFFFF; fill-opacity:1.0; 
stroke:#FFFFFF; stroke-width:21200.000000; stroke-opacity:1; 
stroke-linecap:round; stroke-linejoin:round;">
</g>
<g style="fill:#FFFFFF; fill-opacity:1.0; 
stroke:#FFFFFF; stroke-width:1.000000; stroke-opacity:1; 
stroke-linecap:round; stroke-linejoin:round;">
<circle cx="107500000.000000" cy="93000000.000000" r="200000.000000" /> 
</g>
<g style="fill:#FFFFFF; fill-opacity:1.0; 
stroke:#FFFFFF; stroke-width:21200.000000; stroke-opacity:1; 
stroke-linecap:round; stroke-linejoin:round;">
</g>
<g style="fill:#FFFFFF; fill-opacity:1.0; 
stroke:#FFFFFF; stroke-width:1.000000; stroke-opacity:1; 
stroke-linecap:round; stroke-linejoin:round;">
<circle cx="109000000.000000" cy="93000000.000000" r="200000.000000" /> 
</g>
<g style="fill:#FFFFFF; fill-opacity:1.0; 
stroke:#FFFFFF; stroke-width:21200.000000; stroke-opacity:1; 
stroke-linecap:round; stroke-linejoin:round;">
</g>
<g style="fill:#FFFFFF; fill-opacity:1.0; 
stroke:#FFFFFF; stroke-width:1.000000; stroke-opacity:1; 
stroke-linecap:round; stroke-linejoin:round;">
<circle cx="127500000.000000" cy="93000000.000000" r="200000.000000" /> 
</g>
<g style="fill:#FFFFFF; fill-opacity:1.0; 
stroke:#FFFFFF; stroke-width:21200.000000; stroke-opacity:1; 
stroke-linecap:round; stroke-linejoin:round;">
</g>
<g style="fill:#FFFFFF; fill-opacity:1.0; 
stroke:#FFFFFF; stroke-width:1.000000; stroke-opacity:1; 
stroke-linecap:round; stroke-linejoin:round;">
<circle cx="116896495.000000" cy="89997292.000000" r="200000.000000" /> 
</g>
<g style="fill:#FFFFFF; fill-opacity:1.0; 
stroke:#FFFFFF; stroke-width:21200.000000; stroke-opacity:1; 
stroke-linecap:round; stroke-linejoin:round;">
</g>
<g style="fill:#FFFFFF; fill-opacity:1.0; 
stroke:#FFFFFF; stroke-width:1.000000; stroke-opacity:1; 
stroke-linecap:round; stroke-linejoin:round;">
<circle cx="106000000.000000" cy="93000000.000000" r="200000.000000" /> 
</g>
<g style="fill:#FFFFFF; fill-opacity:1.0; 
stroke:#FFFFFF; stroke-width:21200.000000; stroke-opacity:1; 
stroke-linecap:round; stroke-linejoin:round;">
</g>
<g style="fill:#FFFFFF; fill-opacity:1.0; 
stroke:#FFFFFF; stroke-width:1.000000; stroke-opacity:1; 
stroke-linecap:round; stroke-linejoin:round;">
<circle cx="124500000.000000" cy="93000000.000000" r="200000.000000" /> 
</g>
<g style="fill:#FFFFFF; fill-opacity:1.0; 
stroke:#FFFFFF; stroke-width:21200.000000; stroke-opacity:1; 
stroke-linecap:round; stroke-linejoin:round;">
</g>
<g style="fill:#FFFFFF; fill-opacity:1.0; 
stroke:#FFFFFF; stroke-width:1.000000; stroke-opacity:1; 
stroke-linecap:round; stroke-linejoin:round;">
<circle cx="126000000.000000" cy="93000000.000000" r="200000.000000" /> 
</g>
<g style="fill:#FFFFFF; fill-opacity:1.0; 
stroke:#FFFFFF; stroke-width:21200.000000; stroke-opacity:1; 
stroke-linecap:round; stroke-linejoin:round;">
</g>
<g style="fill:#FFFFFF; fill-opacity:1.0; 
stroke:#FFFFFF; stroke-width:1.000000; stroke-opacity:1; 
stroke-linecap:round; stroke-linejoin:round;">
<circle cx="115300000.000000" cy="91800000.000000" r="200000.000000" /> 
</g>
<g style="fill:#FFFFFF; fill-opacity:1.0; 
stroke:#FFFFFF; stroke-width:21200.000000; stroke-opacity:1; 
stroke-linecap:round; stroke-linejoin:round;">
</g>
<g style="fill:#FFFFFF; fill-opacity:1.0; 
stroke:#FFFFFF; stroke-width:1.000000; stroke-opacity:1; 
stroke-linecap:round; stroke-linejoin:round;">
<circle cx="110900000.000000" cy="87400000.000000" r="200000.000000" /> 
</g>
<g style="fill:#FFFFFF; fill-opacity:1.0; 
stroke:#FFFFFF; stroke-width:21200.000000; stroke-opacity:1; 
stroke-linecap:round; stroke-linejoin:round;">
</g>
<g style="fill:#FFFFFF; fill-opacity:1.0; 
stroke:#FFFFFF; stroke-width:1.000000; stroke-opacity:1; 
stroke-linecap:round; stroke-linejoin:round;">
<circle cx="121400000.000000" cy="92500000.000000" r="200000.000000" /> 
</g>
<g style="fill:#FFFFFF; fill-opacity:1.0; 
stroke:#FFFFFF; stroke-width:21200.000000; stroke-opacity:1; 
stroke-linecap:round; stroke-linejoin:round;">
</g>
<g style="fill:#FFFFFF; fill-opacity:1.0; 
stroke:#FFFFFF; stroke-width:1.000000; stroke-opacity:1; 
stroke-linecap:round; stroke-linejoin:round;">
<circle cx="110900000.000000" cy="92500000.000000" r="200000.000000" /> 
</g>
<g style="fill:#FFFFFF; fill-opacity:1.0; 
stroke:#FFFFFF; stroke-width:21200.000000; stroke-opacity:1; 
stroke-linecap:round; stroke-linejoin:round;">
</g>
<g style="fill:#FFFFFF; fill-opacity:1.0; 
stroke:#FFFFFF; stroke-width:1.000000; stroke-opacity:1; 
stroke-linecap:round; stroke-linejoin:round;">
<circle cx="109400000.000000" cy="89000000.000000" r="200000.000000" /> 
</g>
<g style="fill:#FFFFFF; fill-opacity:1.0; 
stroke:#FFFFFF; stroke-width:21200.000000; stroke-opacity:1; 
stroke-linecap:round; stroke-linejoin:round;">
</g>
<g style="fill:#000000; fill-opacity:1.0; 
stroke:#000000; stroke-width:21200.000000; stroke-opacity:1; 
stroke-linecap:round; stroke-linejoin:round;">
</g> 
</svg>
