<?xml version="1.0" standalone="no"?>
 <!DOCTYPE svg PUBLIC "-//W3C//DTD SVG 1.1//EN" 
 "http://www.w3.org/Graphics/SVG/1.1/DTD/svg11.dtd"> 
<svg
  xmlns:svg="http://www.w3.org/2000/svg"
  xmlns="http://www.w3.org/2000/svg"
  xmlns:xlink="http://www.w3.org/1999/xlink"
  version="1.1"
  width="29.700220cm" height="21.000720cm" viewBox="0 0 297002200 210007200">
<title>SVG Picture created as preamp-B_Silkscreen.svg date 2022/03/21 18:12:51 </title>
  <desc>Picture generated by PCBNEW </desc>
<g style="fill:#000000; fill-opacity:1.000000;stroke:#000000; stroke-opacity:1.000000;
stroke-linecap:round; stroke-linejoin:round;"
 transform="translate(0 0) scale(1 1)">
</g>
<g style="fill:#000000; fill-opacity:0.0; 
stroke:#000000; stroke-width:0.000000; stroke-opacity:1; 
stroke-linecap:round; stroke-linejoin:round;">
</g>
<g style="fill:#000000; fill-opacity:0.0; 
stroke:#000000; stroke-width:120000.000000; stroke-opacity:1; 
stroke-linecap:round; stroke-linejoin:round;">
<path d="M105750000 90000000
L103750000 92000000
" />
<path d="M103750000 92000000
L103750000 90750000
" />
<path d="M103750000 90750000
L101750000 90750000
" />
<path d="M101750000 90750000
L101750000 89250000
" />
<path d="M101750000 89250000
L103750000 89250000
" />
<path d="M103750000 89250000
L103750000 88000000
" />
<path d="M103750000 88000000
L105750000 90000000
" />
</g>
<g style="fill:#000000; fill-opacity:1.0; 
stroke:#000000; stroke-width:120000.000000; stroke-opacity:1; 
stroke-linecap:round; stroke-linejoin:round;">
<path style="fill:#000000; fill-opacity:1.0; 
stroke:#000000; stroke-width:120000.000000; stroke-opacity:1; 
stroke-linecap:round; stroke-linejoin:round;fill-rule:evenodd;"
d="M 105750000.000000,90000000.000000
103750000.000000,92000000.000000
103750000.000000,90750000.000000
101750000.000000,90750000.000000
101750000.000000,89250000.000000
103750000.000000,89250000.000000
103750000.000000,88000000.000000
Z" /> 
</g>
<g style="fill:#000000; fill-opacity:0.0; 
stroke:#000000; stroke-width:120000.000000; stroke-opacity:1; 
stroke-linecap:round; stroke-linejoin:round;">
<path d="M130500000 90000000
L128500000 92000000
" />
<path d="M128500000 92000000
L128500000 90750000
" />
<path d="M128500000 90750000
L126500000 90750000
" />
<path d="M126500000 90750000
L126500000 89250000
" />
<path d="M126500000 89250000
L128500000 89250000
" />
<path d="M128500000 89250000
L128500000 88000000
" />
<path d="M128500000 88000000
L130500000 90000000
" />
</g>
<g style="fill:#000000; fill-opacity:1.0; 
stroke:#000000; stroke-width:120000.000000; stroke-opacity:1; 
stroke-linecap:round; stroke-linejoin:round;">
<path style="fill:#000000; fill-opacity:1.0; 
stroke:#000000; stroke-width:120000.000000; stroke-opacity:1; 
stroke-linecap:round; stroke-linejoin:round;fill-rule:evenodd;"
d="M 130500000.000000,90000000.000000
128500000.000000,92000000.000000
128500000.000000,90750000.000000
126500000.000000,90750000.000000
126500000.000000,89250000.000000
128500000.000000,89250000.000000
128500000.000000,88000000.000000
Z" /> 
</g>
<g style="fill:#000000; fill-opacity:0.0; 
stroke:#000000; stroke-width:120000.000000; stroke-opacity:1; 
stroke-linecap:round; stroke-linejoin:round;">
<path d="M122550000 93810000
L125050000 93810000
" />
<path d="M116900000 93500000
L118400000 93500000
" />
<path d="M122550000 93810000
L122550000 86190000
" />
<path d="M116900000 92000000
L116900000 93500000
" />
<path d="M125050000 93810000
L125050000 86190000
" />
<path d="M122550000 86190000
L125050000 86190000
" />
<path d="M109550000 86190000
L109550000 93810000
" />
<path d="M115200000 86500000
L113700000 86500000
" />
<path d="M109550000 86190000
L107050000 86190000
" />
<path d="M109550000 93810000
L107050000 93810000
" />
<path d="M107050000 86190000
L107050000 93810000
" />
<path d="M115200000 88000000
L115200000 86500000
" />
<g >
</g>
<g >
</g>
<g >
</g>
<g >
</g>
<g >
</g>
<g >
</g>
<g >
</g>
<g >
</g>
<g >
</g>
<g >
</g>
<g >
</g>
<g >
</g>
<g >
</g>
<g >
</g>
<g >
</g>
<g >
</g>
<g >
</g>
<g >
</g>
<g >
</g>
</g> 
</svg>
